<svg width="216" height="163" viewBox="0 0 216 163" fill="none" xmlns="http://www.w3.org/2000/svg">
<path d="M191.511 115.719H24.489C24.4174 115.719 24.3487 115.69 24.2981 115.64C24.2474 115.589 24.219 115.52 24.219 115.449C24.2204 115.377 24.2493 115.309 24.2996 115.259C24.3499 115.209 24.4178 115.18 24.489 115.178H191.511C191.582 115.18 191.65 115.209 191.7 115.259C191.751 115.309 191.78 115.377 191.781 115.449C191.781 115.52 191.753 115.589 191.702 115.64C191.651 115.69 191.583 115.719 191.511 115.719Z" fill="#D1D3D4"/>
<path d="M37.7622 57.4832C29.7 63.3603 28.62 75.6118 28.4148 84.814C28.2096 93.4648 30.1374 101.726 31.941 110.166C33.7014 118.422 40.392 122.926 48.3786 124.764C60.2586 127.516 73.2186 127.835 85.2768 126.505C97.335 125.175 97.6482 113.28 96.4386 103.543C96.1038 100.84 94.2084 99.1688 92.1618 97.709C89.6296 96.0157 87.4204 93.8825 85.6386 91.4102C79.92 83.1217 79.5906 73.2707 75.7782 64.2524C72.765 57.1101 66.0582 52.1359 58.2768 52.3847C50.4954 52.6334 43.1244 53.5795 37.7622 57.4832Z" fill="white"/>
<path d="M71.5824 127.554C63.7584 127.597 55.9546 126.756 48.3192 125.045C36.5958 122.342 32.7996 115.481 31.6764 110.22L31.2984 108.447C29.5758 100.445 27.9504 92.8918 28.1448 84.8087C28.593 66.1718 33.4368 60.3002 37.6056 57.2616L37.7622 57.4833L37.6056 57.2616C43.281 53.1309 51.2352 52.3415 58.2714 52.1144C65.8638 51.8819 72.8514 56.5912 76.0266 64.1443C77.4221 67.6621 78.5627 71.2759 79.4394 74.9577C80.8974 80.4996 82.4094 86.2253 85.8654 91.2643C87.3936 93.4919 89.3214 95.3572 92.3454 97.4983C94.419 98.9743 96.3846 100.742 96.7302 103.516C97.8426 112.432 96.93 118.606 93.9384 122.396C91.9728 124.889 89.0784 126.365 85.3308 126.781C80.7655 127.289 76.1759 127.547 71.5824 127.554ZM37.9242 57.7104C30.1806 63.3496 28.917 75.1686 28.6848 84.8304C28.4958 92.8485 30.1104 100.375 31.8222 108.344L32.2056 110.117C33.2856 115.227 36.9954 121.866 48.4434 124.526C59.5242 127.1 72.252 127.7 85.2444 126.262C88.8408 125.867 91.6164 124.456 93.4902 122.083C96.3846 118.411 97.2702 112.35 96.1902 103.602C95.8662 101.023 93.9978 99.3636 92.0268 97.9578C88.9758 95.7952 87.0048 93.8758 85.4388 91.5941C81.9288 86.4794 80.4114 80.6996 78.9588 75.1145C78.0847 71.4556 76.9514 67.8637 75.5676 64.366C72.468 57.0183 65.6964 52.4118 58.3254 52.6659C51.3756 52.893 43.5186 53.6662 37.962 57.7104H37.9242Z" fill="#231F20"/>
<path d="M58.9301 103.17C57.4867 103.169 56.0445 103.088 54.6101 102.927C51.8581 102.614 49.1445 102.025 46.5101 101.169C42.9245 100.007 40.5161 98.6768 38.7071 96.871C35.9585 94.119 34.9271 90.383 34.5113 87.7715C33.5933 81.6944 34.5113 74.9793 35.1755 71.519C35.6091 69.1467 36.556 66.8981 37.9497 64.9311C39.3434 62.964 41.1501 61.3262 43.2431 60.1325C46.1483 58.4402 49.6151 57.3481 53.8325 56.7966C58.2605 56.2181 61.4465 56.6938 63.8603 58.2888C67.8023 60.8949 68.9255 65.9069 69.7355 70.8161L71.1125 79.1479C71.4473 81.2186 71.9117 84.0517 73.5371 85.3872C74.1105 85.8217 74.7276 86.195 75.3785 86.501C76.5179 87.0741 77.6897 87.6742 78.3539 88.9772C79.1693 90.5992 79.5149 93.3026 78.6779 95.0814C77.7491 97.0386 75.8537 98.3254 74.5145 99.1202C69.7778 101.848 64.3941 103.247 58.9301 103.17ZM57.2399 57.0994C56.1417 57.1076 55.0451 57.1853 53.9567 57.3318C49.8095 57.8725 46.3967 58.9538 43.5725 60.5759C41.5456 61.7293 39.796 63.3138 38.4469 65.2176C37.0977 67.1214 36.182 69.2982 35.7641 71.5947C35.0999 75.0442 34.1819 81.689 35.0999 87.6904C35.4833 90.2424 36.4985 93.8379 39.1445 96.4871C40.8887 98.2335 43.2269 99.5203 46.7045 100.656C49.294 101.502 51.9627 102.081 54.6695 102.386C61.9865 103.213 68.7635 101.921 74.2661 98.6552C75.5459 97.8929 77.3495 96.671 78.2135 94.8705C78.9803 93.2485 78.6563 90.7398 77.9003 89.2422C77.3171 88.0959 76.2803 87.5661 75.1625 87.0038C74.4767 86.6824 73.8269 86.2891 73.2239 85.8305C71.4365 84.3653 70.9559 81.4079 70.6049 79.256L69.2279 70.9243C68.4395 66.1339 67.3487 61.2463 63.5903 58.7646C61.9433 57.64 59.8697 57.0994 57.2399 57.0994Z" fill="#D1D3D4"/>
<path d="M39.0474 94.7192C38.9934 94.7193 38.9405 94.7035 38.8953 94.6737C38.8502 94.6439 38.8148 94.6014 38.7936 94.5516C38.7805 94.5186 38.774 94.4833 38.7744 94.4478C38.7749 94.4123 38.7824 94.3772 38.7964 94.3445C38.8105 94.3119 38.8308 94.2823 38.8563 94.2576C38.8817 94.2328 38.9118 94.2133 38.9448 94.2002C42.4116 92.762 44.7228 93.1188 44.82 93.1188C44.8555 93.1242 44.8895 93.1364 44.9203 93.1549C44.951 93.1734 44.9778 93.1978 44.9991 93.2267C45.0204 93.2556 45.0358 93.2884 45.0445 93.3232C45.0531 93.358 45.0548 93.3942 45.0495 93.4297C45.0442 93.4652 45.032 93.4993 45.0135 93.5301C44.995 93.5609 44.9706 93.5877 44.9418 93.609C44.913 93.6303 44.8802 93.6458 44.8454 93.6545C44.8106 93.6631 44.7745 93.6648 44.739 93.6595C44.739 93.6595 42.4656 93.3351 39.15 94.7084C39.1171 94.7197 39.082 94.7234 39.0474 94.7192Z" fill="#D1D3D4"/>
<path d="M178.238 57.4832C186.311 63.3603 187.364 75.6118 187.585 84.814C187.79 93.4648 185.863 101.726 184.059 110.166C182.299 118.422 175.608 122.926 167.621 124.764C155.741 127.516 142.781 127.835 130.723 126.505C118.665 125.175 118.352 113.28 119.561 103.543C119.896 100.84 121.792 99.1688 123.838 97.709C126.37 96.0157 128.58 93.8825 130.361 91.4102C136.08 83.1217 136.409 73.2707 140.222 64.2524C143.235 57.1101 149.942 52.1359 157.723 52.3847C165.505 52.6334 172.876 53.5795 178.238 57.4832Z" fill="white"/>
<path d="M144.418 127.554C139.828 127.55 135.242 127.296 130.68 126.792C126.932 126.375 124.038 124.899 122.072 122.407C119.081 118.622 118.168 112.442 119.281 103.527C119.626 100.737 121.592 98.9849 123.665 97.5089C126.662 95.3462 128.59 93.5025 130.145 91.275C133.601 86.2359 135.113 80.5103 136.571 74.9684C137.448 71.2865 138.589 67.6727 139.984 64.155C143.176 56.5856 150.163 51.898 157.739 52.1251C164.759 52.3522 172.73 53.1415 178.405 57.2723C186.343 63.052 187.628 75.0279 187.866 84.8464C188.06 92.9294 186.435 100.483 184.712 108.485L184.334 110.258C183.211 115.519 179.415 122.358 167.692 125.083C160.051 126.782 152.244 127.611 144.418 127.554ZM157.14 52.6441C149.985 52.6441 143.473 57.1912 140.449 64.355C139.065 67.8527 137.932 71.4447 137.057 75.1036C135.589 80.6887 134.071 86.4576 130.577 91.5832C129.011 93.8648 127.04 95.768 123.989 97.9469C122.018 99.3526 120.15 101.012 119.826 103.591C118.746 112.356 119.61 118.4 122.526 122.072C124.4 124.445 127.175 125.856 130.772 126.251C143.764 127.689 156.492 127.089 167.573 124.515C179.021 121.855 182.693 115.216 183.811 110.107L184.194 108.333C185.906 100.364 187.52 92.8375 187.331 84.8194C186.889 66.4366 182.164 60.6623 178.092 57.6994C172.535 53.6552 164.678 52.882 157.729 52.6549L157.14 52.6441Z" fill="#231F20"/>
<path d="M157.07 103.17C151.591 103.255 146.192 101.856 141.442 99.1202C140.103 98.3254 138.202 97.0386 137.279 95.0814C136.442 93.308 136.787 90.5884 137.603 88.9772C138.267 87.6742 139.439 87.0741 140.578 86.501C141.229 86.195 141.846 85.8217 142.42 85.3872C144.04 84.0517 144.509 81.2186 144.844 79.1479L146.221 70.8161C147.031 65.9069 148.154 60.8948 152.096 58.2888C154.51 56.6938 157.696 56.2181 162.124 56.7966C166.342 57.3372 169.808 58.4186 172.714 60.1325C174.807 61.3262 176.613 62.964 178.007 64.9311C179.401 66.8981 180.348 69.1467 180.781 71.519C181.424 74.9793 182.363 81.6944 181.445 87.7715C181.051 90.4046 179.998 94.119 177.25 96.871C175.441 98.6768 173.032 100.007 169.447 101.169C166.812 102.025 164.099 102.614 161.347 102.927C159.927 103.086 158.499 103.167 157.07 103.17ZM158.76 57.0994C156.119 57.0994 154.046 57.64 152.383 58.7214C148.603 61.203 147.523 66.0907 146.745 70.881L145.368 79.2127C145.017 81.3754 144.536 84.3221 142.749 85.7873C142.146 86.2459 141.496 86.6391 140.81 86.9605C139.73 87.5012 138.65 88.0419 138.073 89.1989C137.317 90.6966 136.993 93.2053 137.759 94.8273C138.623 96.6493 140.427 97.8712 141.707 98.612C147.209 101.856 153.981 103.17 161.303 102.343C164.01 102.038 166.679 101.458 169.268 100.612C172.773 99.477 175.111 98.1902 176.828 96.4439C179.474 93.7946 180.49 90.1991 180.873 87.6472C181.78 81.6457 180.873 75.0009 180.209 71.5785C179.791 69.282 178.875 67.1051 177.526 65.2013C176.177 63.2975 174.427 61.7131 172.4 60.5596C169.56 58.9052 166.163 57.8563 162.016 57.3156C160.936 57.1754 159.849 57.1032 158.76 57.0994Z" fill="#D1D3D4"/>
<path d="M176.953 94.7192C176.919 94.7268 176.884 94.7268 176.85 94.7192C173.534 93.3459 171.288 93.6703 171.261 93.6703C171.226 93.6756 171.189 93.6739 171.155 93.6652C171.12 93.6566 171.087 93.6411 171.058 93.6198C171.029 93.5984 171.005 93.5716 170.987 93.5409C170.968 93.5101 170.956 93.476 170.95 93.4405C170.945 93.405 170.947 93.3688 170.956 93.334C170.964 93.2991 170.98 93.2663 171.001 93.2375C171.022 93.2086 171.049 93.1842 171.08 93.1657C171.11 93.1472 171.145 93.1349 171.18 93.1296C171.277 93.1296 173.588 92.7782 177.055 94.211C177.088 94.2241 177.118 94.2436 177.144 94.2683C177.169 94.2931 177.19 94.3226 177.204 94.3553C177.218 94.3879 177.225 94.423 177.226 94.4586C177.226 94.4941 177.22 94.5294 177.206 94.5624C177.184 94.6102 177.148 94.6504 177.103 94.6782C177.058 94.706 177.005 94.7202 176.953 94.7192Z" fill="#D1D3D4"/>
<path d="M137.587 63.182L120.847 53.9906C120.847 53.9906 119.88 51.2223 118.843 50.3735C117.806 49.5246 118.449 52.5362 118.449 52.5362C118.449 52.5362 112.725 48.8758 112.136 49.8652C111.548 50.8547 110.57 54.8881 112.525 56.4506C114.248 57.8185 117.455 58.1645 117.455 58.1645C126.398 65.3825 139.018 73.3574 139.018 73.3574" fill="white"/>
<path d="M139.018 73.6169C138.968 73.6157 138.919 73.6007 138.877 73.5736C138.748 73.4925 126.193 65.5447 117.342 58.4348C116.802 58.37 113.989 57.9699 112.358 56.6723C110.311 55.0503 111.218 50.8763 111.904 49.7355C111.947 49.6645 112.004 49.6034 112.072 49.5559C112.14 49.5084 112.217 49.4756 112.298 49.4597C113.378 49.2002 116.721 51.1628 118.071 51.9901C117.947 51.2061 117.893 50.287 118.287 50.0437C118.433 49.9571 118.67 49.9085 119.011 50.1842C119.999 50.979 120.863 53.2877 121.052 53.8013L137.716 62.9927C137.779 63.0271 137.826 63.0852 137.846 63.1541C137.866 63.2231 137.858 63.2973 137.824 63.3604C137.79 63.4234 137.732 63.4703 137.663 63.4906C137.594 63.5108 137.52 63.5029 137.457 63.4685L120.717 54.2771C120.687 54.2627 120.661 54.2423 120.639 54.2172C120.618 54.1921 120.602 54.1627 120.593 54.1311C120.593 54.1311 119.659 51.4278 118.687 50.66L118.579 50.5843C118.505 51.2404 118.557 51.9045 118.73 52.5415C118.742 52.5938 118.739 52.6488 118.72 52.699C118.7 52.7492 118.666 52.7924 118.622 52.8227C118.577 52.8516 118.524 52.8669 118.471 52.8669C118.417 52.8669 118.364 52.8516 118.319 52.8227C116.478 51.644 113.243 49.8436 112.439 50.0382C112.406 50.0382 112.385 50.0382 112.385 50.0382C111.78 51.0439 110.938 54.861 112.709 56.2722C114.329 57.5806 117.466 57.932 117.499 57.932C117.55 57.939 117.598 57.9596 117.639 57.9915C126.468 65.1175 139.055 73.087 139.18 73.1627C139.239 73.2016 139.282 73.2622 139.298 73.3318C139.314 73.4014 139.303 73.4745 139.266 73.5358C139.234 73.5684 139.195 73.5929 139.152 73.607C139.108 73.6211 139.062 73.6245 139.018 73.6169Z" fill="#231F20"/>
<path d="M133.439 115.243C133.439 115.243 134.654 129.128 134.158 130.025C133.661 130.923 121.765 132.728 121.549 131.458C121.333 130.187 127.37 127.673 127.37 127.673L126.041 116.319" fill="white"/>
<path d="M123.341 132.155C122.951 132.164 122.561 132.138 122.175 132.079C121.824 132.02 121.349 131.896 121.279 131.506C121.057 130.182 125.437 128.214 127.078 127.527L125.771 116.378C125.767 116.343 125.77 116.307 125.78 116.272C125.789 116.238 125.806 116.206 125.828 116.178C125.85 116.15 125.877 116.126 125.908 116.109C125.939 116.091 125.974 116.08 126.009 116.076C126.044 116.071 126.08 116.074 126.115 116.084C126.149 116.093 126.181 116.11 126.209 116.132C126.238 116.154 126.261 116.181 126.278 116.213C126.296 116.244 126.307 116.278 126.311 116.314L127.64 127.668C127.646 127.726 127.634 127.786 127.603 127.836C127.573 127.887 127.527 127.927 127.472 127.949C124.664 129.106 121.7 130.76 121.813 131.414C121.813 131.414 121.97 131.587 123.125 131.62C126.592 131.733 133.477 130.42 133.925 129.884C134.249 129.203 133.634 120.558 133.169 115.286C133.166 115.251 133.17 115.215 133.181 115.181C133.191 115.147 133.209 115.115 133.231 115.088C133.254 115.061 133.282 115.038 133.314 115.021C133.345 115.005 133.38 114.995 133.415 114.992C133.451 114.988 133.486 114.992 133.52 115.003C133.554 115.013 133.586 115.031 133.613 115.054C133.64 115.076 133.663 115.104 133.68 115.136C133.696 115.168 133.706 115.202 133.709 115.238C133.915 117.568 134.908 129.252 134.395 130.171C133.882 131.09 126.673 132.155 123.341 132.155Z" fill="#231F20"/>
<path d="M151.033 118.887C151.033 118.887 152.701 131.155 151.837 131.506C150.973 131.858 139.228 132.415 139.417 131.382C139.606 130.349 145.4 128.381 145.4 128.381L143.305 116.422" fill="white"/>
<path d="M144.061 132.258C141.777 132.258 139.779 132.123 139.315 131.75C139.252 131.703 139.203 131.64 139.173 131.568C139.144 131.495 139.135 131.416 139.147 131.339C139.331 130.257 143.467 128.754 145.087 128.203L143.024 116.465C143.013 116.395 143.031 116.323 143.072 116.265C143.113 116.208 143.176 116.169 143.246 116.157C143.281 116.15 143.317 116.15 143.351 116.157C143.386 116.164 143.419 116.178 143.448 116.198C143.477 116.219 143.502 116.244 143.521 116.274C143.54 116.304 143.553 116.338 143.559 116.373L145.66 128.333C145.671 128.398 145.658 128.464 145.625 128.521C145.591 128.577 145.538 128.62 145.476 128.641C142.868 129.522 140.006 130.804 139.698 131.344C140.022 131.528 141.566 131.761 145.638 131.669C147.661 131.661 149.681 131.522 151.686 131.252C152.059 130.571 151.508 124.483 150.746 118.909C150.737 118.837 150.756 118.765 150.8 118.707C150.843 118.65 150.907 118.611 150.979 118.601C151.014 118.595 151.05 118.597 151.084 118.606C151.119 118.615 151.151 118.631 151.179 118.652C151.207 118.674 151.231 118.701 151.249 118.732C151.266 118.763 151.277 118.798 151.281 118.833C152.059 124.526 152.798 131.382 151.924 131.739C151.416 131.971 147.42 132.258 144.061 132.258Z" fill="#231F20"/>
<path d="M138.094 94.2919C137.808 95.2759 135.302 121.055 135.302 121.055H125.199C125.199 121.055 120.55 95.1678 122.078 88.7771C123.125 84.376 127.899 82.2242 132.759 83.6515C139.99 83.365 147.42 82.4404 147.42 82.4404L138.094 94.2919Z" fill="#231F20"/>
<path d="M135.302 121.326H125.199C125.136 121.327 125.074 121.305 125.026 121.264C124.977 121.223 124.945 121.167 124.934 121.104C124.745 120.023 120.29 95.087 121.813 88.7125C122.043 87.7485 122.468 86.8418 123.061 86.0486C123.655 85.2553 124.404 84.5924 125.264 84.1006C126.407 83.4824 127.661 83.0998 128.954 82.9753C130.247 82.8509 131.552 82.9872 132.791 83.3761C139.914 83.095 147.312 82.1812 147.371 82.1758C147.425 82.1681 147.479 82.1769 147.528 82.2011C147.576 82.2252 147.616 82.2636 147.641 82.311C147.667 82.3575 147.679 82.4108 147.674 82.4638C147.669 82.5169 147.648 82.5672 147.614 82.6084L138.326 94.4112C138.056 95.7034 136.242 114.027 135.556 121.082C135.55 121.147 135.521 121.206 135.474 121.251C135.428 121.296 135.367 121.322 135.302 121.326ZM125.426 120.785H135.059C135.329 117.995 137.56 95.1735 137.835 94.2165C137.846 94.1833 137.862 94.1522 137.884 94.1246L146.804 82.7706C144.833 82.9976 138.704 83.6735 132.764 83.906H132.678C131.503 83.5293 130.265 83.3936 129.036 83.5069C127.808 83.6202 126.615 83.9803 125.528 84.5656C124.73 85.0155 124.033 85.6272 123.484 86.3617C122.934 87.0962 122.544 87.9374 122.337 88.8315C120.917 94.7896 124.978 118.266 125.426 120.785Z" fill="#231F20"/>
<path d="M169.285 86.0415C169.285 86.0415 172.465 91.3292 167.551 97.282C162.637 103.235 148.651 96.9738 148.651 96.9738L152.145 120.266L141.885 120.163C141.885 120.163 131.193 88.4529 132.424 85.171C133.655 81.8891 142.414 80.3752 142.414 80.3752L169.285 86.0415Z" fill="#231F20"/>
<path d="M152.129 120.536L141.869 120.433C141.813 120.433 141.758 120.415 141.713 120.382C141.667 120.349 141.633 120.303 141.615 120.25C141.178 118.952 130.901 88.4096 132.154 85.0736C133.407 81.7377 141.988 80.1752 142.355 80.1103C142.389 80.1048 142.423 80.1048 142.457 80.1103L169.339 85.7765C169.376 85.7847 169.411 85.8004 169.441 85.8228C169.472 85.8451 169.498 85.8735 169.517 85.9063C169.549 85.9603 172.757 91.4211 167.756 97.455C165.683 99.9691 161.681 100.699 156.195 99.6177C153.724 99.1027 151.306 98.3625 148.97 97.4063L152.393 120.223C152.4 120.261 152.398 120.3 152.388 120.337C152.377 120.375 152.359 120.409 152.334 120.439C152.308 120.468 152.277 120.492 152.242 120.509C152.206 120.526 152.168 120.535 152.129 120.536ZM142.063 119.887L151.816 119.99L148.365 97.0062C148.358 96.9582 148.364 96.9091 148.382 96.8641C148.4 96.8191 148.43 96.7799 148.469 96.7506C148.508 96.7213 148.554 96.7029 148.602 96.6975C148.65 96.692 148.699 96.6997 148.743 96.7197C148.883 96.7845 162.616 102.829 167.341 97.1035C169.814 94.1082 170.149 91.3022 169.992 89.4747C169.905 88.3624 169.605 87.2773 169.106 86.2793L142.398 80.651C141.685 80.7807 133.758 82.273 132.678 85.2629C131.684 87.8635 139.055 110.961 142.063 119.887Z" fill="#231F20"/>
<path d="M135.983 102.359C135.929 102.359 135.877 102.344 135.833 102.314C135.788 102.284 135.754 102.241 135.734 102.191C135.502 101.602 130.07 87.6959 131.776 84.2086C131.859 84.0146 131.983 83.841 132.14 83.7C132.296 83.559 132.482 83.4539 132.683 83.3922C132.717 83.3822 132.753 83.3791 132.788 83.3829C132.824 83.3868 132.858 83.3976 132.889 83.4147C132.92 83.4317 132.947 83.4548 132.969 83.4824C132.992 83.5101 133.008 83.5419 133.018 83.576C133.037 83.6448 133.028 83.7181 132.994 83.7806C132.96 83.8431 132.903 83.8899 132.835 83.9112C132.705 83.9536 132.587 84.024 132.488 84.1174C132.389 84.2109 132.312 84.3251 132.262 84.4519C130.642 87.7283 136.177 101.856 136.237 101.997C136.25 102.03 136.256 102.066 136.255 102.101C136.254 102.137 136.246 102.172 136.232 102.205C136.217 102.238 136.196 102.267 136.17 102.292C136.144 102.316 136.113 102.335 136.08 102.348L135.983 102.359Z" fill="white"/>
<path d="M148.635 97.2443C148.586 97.2454 148.537 97.2322 148.495 97.2065C148.36 97.1254 145.174 95.1789 144.272 93.8002C144.252 93.7709 144.238 93.7379 144.231 93.7031C144.224 93.6683 144.224 93.6325 144.231 93.5977C144.238 93.5629 144.252 93.5298 144.272 93.5005C144.292 93.4712 144.318 93.4463 144.347 93.4272C144.407 93.388 144.48 93.374 144.549 93.3882C144.619 93.4024 144.68 93.4436 144.72 93.5029C145.557 94.7843 148.743 96.7469 148.776 96.7469C148.836 96.7849 148.88 96.8451 148.897 96.9148C148.914 96.9844 148.903 97.058 148.867 97.12C148.842 97.1581 148.807 97.1894 148.767 97.2111C148.726 97.2328 148.681 97.2442 148.635 97.2443Z" fill="white"/>
<path d="M169.285 86.0412C169.285 86.0412 180.565 58.213 172.233 51.8276C163.901 45.4423 152.026 48.2863 150.406 54.2553C148.786 60.2242 142.398 80.375 142.398 80.375C142.398 80.375 162.864 86.4846 169.285 86.0412Z" fill="#F14736"/>
<path d="M157.491 54.8612L155.542 74.5037L166.293 53.4717L157.491 54.8612Z" fill="#231F20"/>
<path d="M155.52 74.7738C155.493 74.7791 155.466 74.7791 155.439 74.7738C155.378 74.7573 155.325 74.7191 155.29 74.6663C155.256 74.6136 155.241 74.5499 155.25 74.4873L157.205 54.8447C157.21 54.7847 157.235 54.7281 157.276 54.684C157.317 54.6399 157.372 54.6108 157.432 54.6014L166.228 53.2173C166.278 53.2081 166.329 53.2134 166.376 53.2325C166.423 53.2517 166.464 53.284 166.493 53.3254C166.518 53.368 166.531 53.4166 166.531 53.466C166.531 53.5155 166.518 53.564 166.493 53.6066L155.736 74.6387C155.714 74.6772 155.683 74.7098 155.645 74.7333C155.607 74.7569 155.564 74.7708 155.52 74.7738ZM157.718 55.0934L155.925 73.1086L165.791 53.8229L157.718 55.0934Z" fill="#231F20"/>
<path d="M151.146 51.8604L137.063 61.8357L138.348 74.5036L153.441 68.1183C153.441 68.1183 155.941 54.1041 151.146 51.8604Z" fill="#F14736"/>
<path d="M156.6 52.1468C157.612 51.8061 158.687 51.6899 159.748 51.8062C161.406 52.0981 162.923 52.8875 164.608 53.1362C166.466 53.3038 168.334 53.3038 170.192 53.1362C170.732 53.1092 170.192 53.8391 170.645 53.5255C172.168 52.4117 172.093 50.2058 172.087 48.5513C172.134 44.7195 171.656 40.8993 170.667 37.1973C170.127 35.2725 167.994 28.2276 164.878 31.2499C165.58 30.5633 162.178 28.9629 161.692 28.8277C157.275 27.6004 153.268 31.4878 152.28 35.532C151.562 38.4679 151.508 41.3821 150.12 44.1395C149.504 45.356 148.705 46.5563 148.651 47.9242C148.665 48.7487 148.907 49.5531 149.35 50.2481C149.794 50.943 150.421 51.5011 151.162 51.8603C152.667 52.5526 154.363 52.7071 155.968 52.2982L156.6 52.1468Z" fill="white"/>
<path d="M170.489 53.8716C170.438 53.8706 170.388 53.8577 170.343 53.8338C170.282 53.7925 170.234 53.7339 170.207 53.6656C170.179 53.5973 170.172 53.5222 170.186 53.4499V53.412L169.339 53.4499C167.751 53.5815 166.155 53.5671 164.57 53.4066C163.672 53.2536 162.79 53.0183 161.935 52.7038C161.205 52.4374 160.456 52.2277 159.694 52.0766C158.723 51.9649 157.74 52.0645 156.811 52.3685L156.654 52.4064L156.011 52.5632C154.345 52.9794 152.588 52.8154 151.027 52.0982C150.239 51.7188 149.572 51.1265 149.102 50.3881C148.631 49.6497 148.376 48.7945 148.365 47.9188C148.492 46.7629 148.886 45.6524 149.515 44.6748C149.634 44.4531 149.753 44.2315 149.866 44.0098C150.795 42.1823 151.119 40.3062 151.486 38.3219C151.643 37.3866 151.81 36.4242 152.026 35.4618C152.666 32.9074 154.276 30.7038 156.514 29.3198C157.292 28.8409 158.161 28.5267 159.065 28.3966C159.97 28.2664 160.891 28.323 161.773 28.5628C162.081 28.6493 164.597 29.7523 165.143 30.6769C165.384 30.4802 165.668 30.3423 165.971 30.2738C166.275 30.2053 166.59 30.2082 166.892 30.2822C168.782 30.7904 170.132 34.2669 170.937 37.0946C171.938 40.8239 172.42 44.6739 172.368 48.5352V48.7406C172.368 50.3627 172.368 52.5848 170.813 53.731C170.722 53.8106 170.609 53.8597 170.489 53.8716ZM170.213 52.8443C170.283 52.8407 170.352 52.8512 170.417 52.8754C170.482 52.8996 170.541 52.9369 170.591 52.9849C170.631 53.0256 170.662 53.0732 170.683 53.1255C171.839 52.0982 171.828 50.2383 171.823 48.7298V48.5298C171.873 44.7162 171.399 40.9137 170.413 37.2298C169.333 33.4451 168.032 31.1364 166.752 30.7958C166.441 30.7372 166.12 30.7652 165.824 30.8767C165.528 30.9883 165.268 31.1791 165.073 31.4284C165.021 31.4786 164.952 31.5062 164.88 31.5052C164.808 31.5042 164.739 31.4746 164.689 31.423C164.639 31.3714 164.611 31.3019 164.612 31.2299C164.613 31.1579 164.643 31.0893 164.695 31.0391C164.792 30.6336 162.378 29.2819 161.622 29.0711C160.807 28.8477 159.955 28.7949 159.119 28.9158C158.283 29.0368 157.48 29.3289 156.762 29.7739C154.648 31.0825 153.129 33.1663 152.528 35.5807C152.296 36.5215 152.134 37.4785 151.988 38.403C151.659 40.344 151.313 42.3445 150.368 44.2477C150.255 44.4693 150.131 44.691 150.012 44.9181C149.432 45.8227 149.063 46.8464 148.932 47.9134C148.944 48.6869 149.172 49.4417 149.59 50.0923C150.008 50.743 150.599 51.2636 151.297 51.5954C152.748 52.2561 154.38 52.4029 155.925 52.0117L156.551 51.8603L156.708 51.8225C157.709 51.4989 158.768 51.3956 159.813 51.5197C160.602 51.6785 161.378 51.8953 162.135 52.1685C162.959 52.4725 163.808 52.7005 164.673 52.8497C166.224 53.0058 167.786 53.0184 169.339 52.8876L170.203 52.8443H170.213Z" fill="#231F20"/>
<path d="M153.959 37.1054C153.959 37.1054 152.485 41.6416 153.365 45.0316C153.586 45.9787 154.077 46.8409 154.779 47.513C155.481 48.1851 156.363 48.638 157.318 48.8163L157.491 54.8556C157.491 54.8556 157.556 57.9482 161.32 57.3589C162.411 57.1884 163.441 56.7412 164.312 56.0599C165.182 55.3785 165.864 54.4857 166.293 53.4661L166.401 42.3445C166.401 42.3445 162.043 39.998 162.297 36.0024C162.297 36.0078 157.275 38.6247 153.959 37.1054Z" fill="white"/>
<path d="M160.418 57.7102C159.637 57.7461 158.87 57.4984 158.258 57.0127C157.952 56.7383 157.703 56.4059 157.526 56.0347C157.349 55.6635 157.247 55.2609 157.226 54.85L157.054 49.0595C156.095 48.8322 155.219 48.3436 154.521 47.6479C153.823 46.9521 153.332 46.0765 153.101 45.118C152.215 41.6901 153.641 37.2242 153.706 37.0079C153.717 36.9722 153.736 36.9394 153.761 36.9115C153.787 36.8835 153.817 36.8611 153.851 36.8457C153.886 36.831 153.924 36.8234 153.962 36.8234C154 36.8234 154.038 36.831 154.073 36.8457C157.232 38.2947 162.124 35.7644 162.173 35.7644C162.215 35.7407 162.262 35.7283 162.311 35.7283C162.359 35.7283 162.406 35.7407 162.448 35.7644C162.488 35.7909 162.519 35.8274 162.54 35.8701C162.561 35.9128 162.57 35.9603 162.567 36.0077C162.324 39.7924 166.487 42.074 166.525 42.0956C166.569 42.1183 166.605 42.1524 166.631 42.1943C166.657 42.2362 166.671 42.2844 166.671 42.3335L166.563 53.4605C166.568 53.4891 166.568 53.5184 166.563 53.547C166.123 54.6151 165.414 55.5509 164.506 56.2634C163.597 56.9759 162.52 57.4408 161.379 57.6129C161.062 57.6717 160.74 57.7042 160.418 57.7102ZM154.132 37.4729C153.835 38.5056 152.901 42.1659 153.625 44.9612C153.826 45.8592 154.287 46.6782 154.949 47.3164C155.612 47.9547 156.447 48.384 157.351 48.5512C157.415 48.559 157.474 48.5894 157.517 48.637C157.561 48.6846 157.586 48.7462 157.588 48.8108L157.761 54.85C157.803 55.5215 158.106 56.1499 158.603 56.6018C159.214 57.1425 160.115 57.2777 161.303 57.0992C162.339 56.9332 163.316 56.5089 164.144 55.8654C164.973 55.222 165.626 54.3801 166.045 53.4173L166.147 42.5066C165.402 42.0686 162.097 39.9276 162.038 36.4402C160.78 37.0188 156.989 38.5651 154.132 37.4729Z" fill="#231F20"/>
<path d="M164.284 41.631C164.284 41.631 166.028 37.3813 168.205 39.9657C170.381 42.5501 167.405 45.5346 165.537 45.34" fill="white"/>
<path d="M165.715 45.6212H165.51C165.474 45.6178 165.44 45.6075 165.408 45.5906C165.377 45.5738 165.349 45.5509 165.327 45.5233C165.304 45.4956 165.287 45.4638 165.277 45.4295C165.267 45.3953 165.263 45.3594 165.267 45.3239C165.27 45.2883 165.281 45.2537 165.298 45.2222C165.314 45.1907 165.337 45.1628 165.365 45.1402C165.392 45.1176 165.424 45.1006 165.458 45.0904C165.493 45.0802 165.529 45.0768 165.564 45.0806C166.504 45.1779 167.767 44.3507 168.356 43.2315C168.631 42.7464 168.744 42.1863 168.68 41.6323C168.616 41.0782 168.378 40.559 167.999 40.1496C167.851 39.918 167.645 39.7292 167.402 39.6021C167.158 39.475 166.886 39.414 166.612 39.4251C165.629 39.5765 164.781 41.1499 164.538 41.7446C164.511 41.8113 164.458 41.8644 164.392 41.8923C164.326 41.9202 164.251 41.9206 164.184 41.8933C164.118 41.8661 164.065 41.8134 164.037 41.747C164.009 41.6806 164.009 41.6058 164.036 41.5392C164.079 41.4364 165.046 39.1224 166.531 38.8899C167.184 38.7872 167.816 39.0953 168.415 39.8036C168.86 40.2966 169.14 40.9167 169.216 41.5769C169.291 42.2372 169.159 42.9046 168.836 43.4856C168.178 44.7345 166.86 45.6212 165.715 45.6212Z" fill="#231F20"/>
<path d="M156.406 45.1614C156.113 45.1699 155.822 45.1145 155.552 44.9992C155.487 44.9677 155.43 44.9216 155.385 44.8644C155.34 44.8073 155.308 44.7405 155.293 44.6694C155.093 43.8962 156.546 41.766 157 41.128C157.02 41.0989 157.045 41.0741 157.075 41.0551C157.105 41.0361 157.138 41.0231 157.172 41.0171C157.207 41.0111 157.243 41.012 157.277 41.0199C157.311 41.0278 157.344 41.0425 157.372 41.0631C157.401 41.0836 157.426 41.1097 157.445 41.1398C157.465 41.17 157.477 41.2036 157.483 41.2388C157.489 41.274 157.488 41.31 157.481 41.3448C157.473 41.3796 157.458 41.4125 157.437 41.4416C156.465 42.8149 155.704 44.2639 155.817 44.5396C156.382 44.6606 156.968 44.6307 157.518 44.4531C157.554 44.4428 157.591 44.4396 157.627 44.4437C157.664 44.4477 157.7 44.459 157.732 44.4768C157.764 44.4947 157.793 44.5187 157.816 44.5475C157.839 44.5764 157.856 44.6095 157.866 44.645C157.877 44.6805 157.88 44.7177 157.876 44.7545C157.872 44.7912 157.86 44.8268 157.843 44.8592C157.825 44.8915 157.801 44.9201 157.772 44.9432C157.743 44.9663 157.71 44.9835 157.675 44.9938C157.261 45.108 156.834 45.1644 156.406 45.1614Z" fill="#231F20"/>
<path d="M157.318 48.8217C157.318 48.8217 160.558 49.1353 162.389 48.6055C162.389 48.6055 160.504 53.4228 157.442 53.4715L157.318 48.8217Z" fill="#231F20"/>
<path d="M157.442 53.7581C157.372 53.7581 157.304 53.7304 157.253 53.6808C157.203 53.6313 157.174 53.5639 157.172 53.4932L157.048 48.8272C157.047 48.7888 157.054 48.7507 157.069 48.7154C157.084 48.68 157.106 48.6483 157.135 48.6222C157.163 48.5961 157.196 48.5763 157.232 48.5641C157.269 48.5519 157.307 48.5476 157.345 48.5514C157.378 48.5514 160.547 48.8542 162.313 48.346C162.361 48.3309 162.413 48.33 162.462 48.3434C162.511 48.3569 162.555 48.384 162.589 48.4217C162.623 48.4588 162.646 48.5048 162.656 48.5545C162.665 48.6042 162.661 48.6556 162.643 48.7028C162.562 48.9083 160.655 53.6878 157.448 53.7581H157.442ZM157.594 49.1137L157.702 53.1958C159.862 52.9363 161.384 50.141 161.924 48.9948C160.49 49.1997 159.037 49.2396 157.594 49.1137Z" fill="#231F20"/>
<path d="M159.787 40.5993C159.799 40.1396 159.596 39.7616 159.333 39.7549C159.071 39.7482 158.849 40.1154 158.837 40.5751C158.825 41.0348 159.029 41.4129 159.291 41.4196C159.553 41.4263 159.775 41.059 159.787 40.5993Z" fill="#231F20"/>
<path d="M155.415 40.4922C155.427 40.0325 155.224 39.6544 154.961 39.6477C154.699 39.641 154.477 40.0082 154.465 40.4679C154.453 40.9276 154.657 41.3057 154.919 41.3124C155.181 41.3191 155.404 40.9519 155.415 40.4922Z" fill="#231F20"/>
<path d="M172.028 46.3562C172.26 49.9084 172.568 56.4397 166.93 54.8285C165.762 54.4782 164.771 53.6951 164.16 52.6388C163.08 50.7032 165.985 47.9025 167.362 46.6428" fill="white"/>
<path d="M168.534 55.353C167.965 55.3447 167.4 55.2574 166.855 55.0935C165.606 54.7324 164.546 53.8986 163.901 52.7686C162.783 50.8006 165.224 48.2162 167.141 46.4428C167.192 46.3929 167.261 46.365 167.333 46.365C167.404 46.365 167.473 46.3929 167.524 46.4428C167.55 46.4679 167.57 46.4978 167.583 46.5307C167.597 46.5637 167.604 46.599 167.604 46.6347C167.604 46.6704 167.597 46.7057 167.583 46.7387C167.57 46.7716 167.55 46.8015 167.524 46.8266C166.487 47.7782 163.339 50.6654 164.376 52.4875C164.953 53.4935 165.898 54.236 167.011 54.5582C168.426 54.9637 169.538 54.8502 170.316 54.223C172.179 52.7145 171.898 48.427 171.763 46.3671C171.761 46.3316 171.765 46.2959 171.777 46.2622C171.788 46.2284 171.806 46.1972 171.829 46.1704C171.852 46.1435 171.881 46.1215 171.912 46.1056C171.944 46.0897 171.979 46.0803 172.014 46.0778C172.05 46.0753 172.085 46.0799 172.119 46.0911C172.153 46.1024 172.184 46.1203 172.211 46.1436C172.238 46.167 172.26 46.1954 172.275 46.2272C172.291 46.2591 172.301 46.2937 172.303 46.3292C172.454 48.6487 172.741 52.9578 170.651 54.6447C170.051 55.1244 169.301 55.3754 168.534 55.353Z" fill="#231F20"/>
<path d="M159.743 46.3942C159.743 46.6807 159.262 46.9349 158.663 46.9349C158.063 46.9349 158.306 46.697 158.306 46.3942C158.306 46.0914 158.069 45.8535 158.663 45.8535C159.257 45.8535 159.743 46.1076 159.743 46.3942Z" fill="#231F20"/>
<path d="M173.216 53.2876C173.216 53.2876 168.232 57.4562 168.21 60.9813C168.188 64.5065 171.99 80.9861 171.99 80.9861L182.374 75.1901C182.374 75.1901 178.324 54.715 173.216 53.2876Z" fill="#F14736"/>
<path d="M142.965 78.8506H142.889C142.855 78.8402 142.824 78.823 142.796 78.8002C142.769 78.7773 142.746 78.7493 142.729 78.7176C142.713 78.6859 142.703 78.6512 142.699 78.6156C142.696 78.58 142.7 78.5441 142.711 78.51L150.152 54.1799C150.159 54.1424 150.174 54.1067 150.195 54.0753C150.217 54.0438 150.245 54.0173 150.278 53.9975C150.31 53.9776 150.346 53.9649 150.384 53.9601C150.422 53.9554 150.46 53.9587 150.497 53.9698C150.533 53.9809 150.567 53.9997 150.596 54.0247C150.624 54.0498 150.647 54.0807 150.663 54.1154C150.679 54.15 150.688 54.1877 150.688 54.2258C150.688 54.2639 150.681 54.3017 150.665 54.3367L143.224 78.6668C143.206 78.7209 143.171 78.7679 143.124 78.8009C143.078 78.834 143.022 78.8514 142.965 78.8506Z" fill="#231F20"/>
<path d="M172.093 80.1317C172.031 80.133 171.971 80.1127 171.922 80.0742C171.874 80.0357 171.841 79.9814 171.828 79.9209C167.621 61.1326 167.881 60.9109 168.048 60.7758C168.099 60.7259 168.168 60.698 168.24 60.698C168.311 60.698 168.38 60.7259 168.431 60.7758C168.462 60.8115 168.483 60.855 168.492 60.9016C168.5 60.9482 168.496 60.9962 168.48 61.0407C168.48 61.922 170.786 72.6921 172.373 79.7749C172.381 79.8097 172.382 79.8457 172.376 79.8809C172.37 79.9161 172.357 79.9498 172.338 79.9799C172.319 80.0101 172.294 80.0362 172.265 80.0566C172.236 80.0771 172.203 80.0916 172.168 80.0993L172.093 80.1317Z" fill="#231F20"/>
<path d="M157.599 79.8615L138.24 87.1659L129.643 80.9861L146.567 75.8713L157.599 79.8615Z" fill="white"/>
<path d="M138.24 87.4472C138.182 87.4477 138.126 87.4307 138.078 87.3985L129.487 81.2133C129.445 81.1843 129.412 81.1441 129.392 81.0972C129.372 81.0503 129.365 80.9987 129.373 80.9483C129.383 80.8993 129.405 80.8539 129.439 80.8167C129.472 80.7796 129.515 80.7522 129.562 80.7375L146.486 75.6281C146.542 75.6119 146.602 75.6119 146.659 75.6281L157.68 79.6075C157.731 79.6282 157.775 79.6632 157.806 79.7083C157.838 79.7533 157.856 79.8066 157.858 79.8616C157.858 79.9171 157.841 79.9713 157.809 80.0168C157.777 80.0623 157.732 80.0968 157.68 80.1157L138.332 87.4472C138.301 87.4528 138.27 87.4528 138.24 87.4472ZM130.243 81.0943L138.278 86.8741L156.816 79.8778L146.556 76.1688L130.243 81.0943Z" fill="#231F20"/>
<path d="M181.165 75.877C181.165 75.877 183.325 86.8147 177.444 87.8582C171.563 88.9017 152.064 85.0792 152.064 85.0792C152.064 85.0792 145.292 86.274 145.724 84.5385C146.156 82.8029 150.385 82.0352 150.385 82.0352C150.385 82.0352 146.896 80.3429 148.613 80.3483C150.441 80.457 152.261 80.6609 154.067 80.9592L172.103 78.5533" fill="white"/>
<path d="M174.776 88.3124C167.389 88.3124 153.236 85.6091 152.096 85.355C151.076 85.5334 146.61 86.2417 145.67 85.2252C145.581 85.1302 145.518 85.0132 145.487 84.8861C145.457 84.7589 145.461 84.626 145.498 84.5007C145.859 83.0896 148.333 82.2894 149.623 81.965C147.787 80.9918 147.874 80.6079 147.911 80.4565C147.992 80.1051 148.451 80.1051 148.646 80.1051C150.475 80.2109 152.297 80.4131 154.105 80.7106L172.103 78.31C172.175 78.3007 172.247 78.3203 172.305 78.3644C172.362 78.4085 172.399 78.4735 172.409 78.5452C172.418 78.6169 172.398 78.6894 172.354 78.7467C172.31 78.804 172.245 78.8414 172.174 78.8507L154.138 81.2513C154.111 81.2567 154.083 81.2567 154.057 81.2513C152.268 80.9571 150.466 80.755 148.657 80.6457H148.576C149.192 81.1048 149.854 81.498 150.552 81.819C150.602 81.8449 150.643 81.8856 150.669 81.9356C150.696 81.9856 150.706 82.0424 150.699 82.0985C150.692 82.1545 150.668 82.207 150.63 82.2488C150.592 82.2907 150.542 82.32 150.487 82.3326C149.359 82.5435 146.356 83.3761 146.038 84.6359C146.022 84.6729 146.017 84.7138 146.025 84.7534C146.033 84.793 146.052 84.8293 146.081 84.8576C146.664 85.4901 150.061 85.1657 152.064 84.8143H152.167C152.361 84.8521 171.677 88.599 177.422 87.5933C177.939 87.5054 178.431 87.3128 178.871 87.0274C179.31 86.742 179.686 86.3697 179.977 85.9335C182.18 82.7273 180.981 76.2014 180.927 75.9311C180.92 75.8912 180.922 75.8502 180.932 75.811C180.942 75.7719 180.961 75.7353 180.986 75.704C181.018 75.6635 181.062 75.6332 181.11 75.6169C181.159 75.6005 181.212 75.5989 181.262 75.6121C181.311 75.6242 181.356 75.6507 181.391 75.6882C181.425 75.7257 181.448 75.7726 181.456 75.823L181.192 75.877L181.462 75.8284C181.597 76.542 182.714 82.9111 180.419 86.2417C180.09 86.7377 179.662 87.1607 179.162 87.4843C178.662 87.808 178.101 88.0254 177.514 88.1232C176.609 88.2647 175.693 88.328 174.776 88.3124Z" fill="#231F20"/>
<path d="M106.056 122.504C106.616 123.043 107.333 123.392 108.103 123.499C109.004 123.499 118.784 121.693 119.189 123.034C119.594 124.375 118.795 125.045 116.456 126.148C113.324 127.624 102.811 131.09 102.811 131.09L100.51 125.683L106.056 122.504Z" fill="white"/>
<path d="M102.811 131.339C102.762 131.34 102.714 131.326 102.673 131.299C102.633 131.272 102.602 131.233 102.584 131.187L100.283 125.781C100.26 125.726 100.257 125.664 100.276 125.607C100.295 125.55 100.334 125.502 100.386 125.472L105.932 122.293C105.981 122.265 106.038 122.254 106.094 122.263C106.15 122.272 106.202 122.3 106.24 122.342C106.753 122.833 107.406 123.152 108.108 123.256C108.767 123.211 109.423 123.13 110.074 123.012C115.9 122.196 119.113 121.931 119.426 122.964C119.891 124.505 118.919 125.262 116.559 126.375C113.454 127.846 102.994 131.295 102.886 131.333L102.811 131.339ZM100.823 125.786L102.951 130.787C104.463 130.284 113.513 127.262 116.348 125.921C118.751 124.786 119.286 124.207 118.951 123.099C118.708 122.293 112.261 123.196 110.144 123.494C108.956 123.661 108.324 123.731 108.097 123.742C107.325 123.647 106.6 123.319 106.018 122.802L100.823 125.786Z" fill="#231F20"/>
<path d="M75.6593 128.306C75.6593 128.306 86.1407 131.912 86.5889 132.599C87.0371 133.285 86.2433 134.091 83.4515 134.339C80.6597 134.588 68.7149 133.939 68.7149 133.939C68.7149 133.939 68.5637 130.695 69.3143 129.073C70.0649 127.451 75.6593 128.306 75.6593 128.306Z" fill="white"/>
<path d="M81.459 134.642C77.1822 134.642 69.1092 134.21 68.7042 134.188C68.6425 134.184 68.5842 134.158 68.5405 134.114C68.4967 134.07 68.4704 134.012 68.4666 133.95C68.4666 133.815 68.3262 130.631 69.0876 128.954C69.8922 127.186 75.1032 127.97 75.6972 128.062H75.735C78.2136 128.917 86.3352 131.75 86.7942 132.458C86.8819 132.581 86.9352 132.725 86.9485 132.875C86.9618 133.025 86.9346 133.176 86.8698 133.312C86.5512 133.966 85.374 134.394 83.4732 134.572C83.0142 134.626 82.3122 134.642 81.459 134.642ZM68.9526 133.707C70.6158 133.793 80.9028 134.318 83.43 134.091C85.8708 133.875 86.3406 133.285 86.4216 133.107C86.4518 133.048 86.4643 132.981 86.4576 132.915C86.4508 132.849 86.4252 132.786 86.3838 132.734C85.968 132.247 79.5582 129.911 75.5838 128.549C73.4886 128.214 70.0056 128.089 69.5196 129.16C68.9364 130.485 68.9364 132.955 68.9526 133.707Z" fill="#231F20"/>
<path d="M48.4758 94.119C48.4758 94.119 39.9222 72.7139 40.8186 62.1547C41.715 51.5954 48.6 50.952 51.0138 50.8006C53.4276 50.6492 66.1014 48.9569 70.7292 54.6393C75.357 60.3218 74.169 87.6905 74.169 87.6905L48.4758 94.119Z" fill="#F14736"/>
<path d="M63.5742 55.6772L63.4176 77.1256L54.324 54.239L63.5742 55.6772Z" fill="#231F20"/>
<path d="M63.4176 77.3961C63.3635 77.3962 63.3107 77.3803 63.2655 77.3505C63.2204 77.3207 63.185 77.2782 63.1638 77.2285L54.0702 54.3365C54.0543 54.2914 54.0499 54.243 54.0575 54.1958C54.065 54.1486 54.0843 54.104 54.1134 54.0661C54.143 54.0285 54.1822 53.9995 54.2269 53.9824C54.2716 53.9652 54.3201 53.9605 54.3672 53.9688L63.6174 55.4124C63.6814 55.4215 63.74 55.4532 63.7826 55.5018C63.8252 55.5504 63.849 55.6127 63.8496 55.6773L63.6876 77.1311C63.6861 77.1933 63.6633 77.253 63.623 77.3003C63.5827 77.3476 63.5273 77.3795 63.4662 77.3906L63.4176 77.3961ZM54.7776 54.5744L63.18 75.7416L63.3258 55.9098L54.7776 54.5744Z" fill="#231F20"/>
<path d="M74.6928 82.2675C74.6928 82.2675 85.1472 85.0682 94.4946 91.4265C98.7822 94.3407 106.79 122.931 106.79 122.931C106.79 122.931 105.894 127.884 100.181 127.111L75.2112 94.7191C75.2112 94.7191 69.8544 82.1432 74.6928 82.2675Z" fill="#231F20"/>
<path d="M101.347 127.457C100.944 127.456 100.542 127.427 100.143 127.37C100.073 127.359 100.009 127.322 99.9647 127.267L75.0006 94.8758C74.9849 94.8581 74.9721 94.838 74.9628 94.8163C74.8062 94.4433 71.0586 85.5763 72.9216 82.8297C73.1167 82.5447 73.3842 82.3168 73.6964 82.1695C74.0086 82.0222 74.3544 81.9608 74.6982 81.9916H74.763C74.8656 82.0187 85.3685 84.8788 94.6457 91.183C98.9657 94.1243 106.72 121.671 107.066 122.845C107.074 122.884 107.074 122.924 107.066 122.964C106.788 124.264 106.064 125.426 105.019 126.247C103.974 127.068 102.675 127.496 101.347 127.457ZM100.327 126.851C105.343 127.473 106.391 123.499 106.51 122.937C106.088 121.439 98.4095 94.4054 94.3433 91.6426C85.3902 85.5546 75.2922 82.7053 74.655 82.5323H74.6226C74.3796 82.5144 74.1362 82.5604 73.9165 82.6657C73.6968 82.7709 73.5083 82.9318 73.3698 83.1324C71.7228 85.5655 75.2004 93.9891 75.4488 94.573L100.327 126.851Z" fill="#231F20"/>
<path d="M48.4759 94.1191C48.4759 94.1191 68.2831 86.0523 73.3591 85.3062C73.3591 85.3062 80.6221 88.0095 84.3535 94.8976C88.0849 101.786 75.6595 128.306 75.6595 128.306C73.615 129.516 71.2011 129.943 68.8663 129.506L68.7043 101.748C68.7043 101.748 44.7769 104.121 48.4759 94.1191Z" fill="#231F20"/>
<path d="M70.6752 129.949C70.05 129.948 69.4262 129.889 68.8122 129.771C68.7512 129.758 68.6964 129.725 68.657 129.677C68.6177 129.629 68.5962 129.568 68.5962 129.506L68.4342 102.045C66.1554 102.245 52.2612 103.251 48.6702 98.5904C47.709 97.3522 47.5902 95.8167 48.222 94.0271C48.2349 93.9919 48.2551 93.9598 48.2811 93.9328C48.3071 93.9058 48.3385 93.8845 48.3732 93.8703C49.1832 93.5405 68.2668 85.7603 73.3212 85.0358C73.3656 85.0252 73.4118 85.0252 73.4562 85.0358C73.5264 85.0628 80.8542 87.8635 84.591 94.7678C88.3278 101.672 76.41 127.332 75.9024 128.419C75.8824 128.466 75.8484 128.506 75.8052 128.533C74.2561 129.464 72.4822 129.954 70.6752 129.949ZM69.12 129.279C71.2944 129.625 73.5217 129.217 75.4326 128.122C76.14 126.586 87.6366 101.532 84.0996 95.0273C80.6436 88.6583 74.034 85.8684 73.2996 85.5818C68.4018 86.3496 50.2632 93.6919 48.6648 94.3245C48.1248 95.8816 48.2544 97.2008 49.0698 98.2605C52.7202 102.997 68.5098 101.505 68.6502 101.505C68.687 101.501 68.7241 101.505 68.7594 101.516C68.7946 101.527 68.8273 101.545 68.8554 101.569C68.8838 101.594 68.9067 101.625 68.9225 101.66C68.9384 101.694 68.9467 101.732 68.9472 101.769L69.12 129.279Z" fill="#231F20"/>
<path d="M83.9051 106.322H83.8565C83.7862 106.309 83.7237 106.269 83.6824 106.21C83.641 106.152 83.6241 106.079 83.6351 106.008C84.3317 102.04 85.0499 95.7789 84.1751 94.7949C81.2969 91.6158 74.1473 86.3172 74.0771 86.2631C74.0206 86.221 73.9827 86.1584 73.9716 86.0887C73.9605 86.019 73.977 85.9477 74.0178 85.8901C74.0608 85.833 74.1242 85.795 74.1948 85.7839C74.2653 85.7728 74.3373 85.7895 74.3958 85.8306C74.466 85.8846 81.6587 91.2373 84.5747 94.4326C85.9301 95.9249 84.3695 105.068 84.1859 106.106C84.1741 106.17 84.1389 106.228 84.087 106.268C84.0352 106.308 83.9704 106.327 83.9051 106.322Z" fill="white"/>
<path d="M70.74 54.6394C70.74 54.6394 74.169 61.2356 76.1886 64.6256C78.2082 68.0156 82.593 72.8762 82.593 72.8762C82.593 72.8762 98.1234 78.4072 98.226 78.7046C98.3286 79.002 96.7518 84.2303 96.7518 84.2303C96.7518 84.2303 80.46 83.057 77.76 81.781C75.06 80.505 69.5952 74.2116 69.5952 74.2116L70.74 54.6394Z" fill="#F14736"/>
<path d="M60.0534 58.0457L58.9086 59.8515L60.1614 60.5976L60.2856 69.2483L63.4176 77.1259L63.5742 69.8377L60.966 60.3489L61.7436 59.4352L60.0534 58.0457Z" fill="white"/>
<path d="M63.4176 77.3962C63.3636 77.3963 63.3107 77.3804 63.2655 77.3506C63.2204 77.3208 63.185 77.2784 63.1638 77.2286L60.0372 69.351C60.0347 69.3186 60.0347 69.2861 60.0372 69.2537L59.9184 60.749L58.7898 60.0839C58.7281 60.044 58.6838 59.9822 58.6656 59.9109C58.657 59.876 58.6559 59.8396 58.6625 59.8041C58.669 59.7687 58.6829 59.7351 58.7034 59.7055L59.8482 57.8996C59.8686 57.8673 59.8954 57.8396 59.927 57.8182C59.9586 57.7967 59.9943 57.7822 60.0318 57.7753C60.07 57.7698 60.1088 57.7723 60.146 57.7825C60.1832 57.7928 60.2178 57.8105 60.2478 57.8348L61.938 59.2243C61.9656 59.2472 61.9883 59.2754 62.0048 59.3072C62.0214 59.3389 62.0315 59.3737 62.0345 59.4094C62.0375 59.4452 62.0334 59.4811 62.0224 59.5152C62.0114 59.5494 61.9937 59.5809 61.9704 59.6082L61.2684 60.4138L63.8388 69.7673C63.8415 69.7943 63.8415 69.8215 63.8388 69.8484L63.6768 77.1313C63.6754 77.1934 63.6525 77.2532 63.6122 77.3004C63.5719 77.3477 63.5165 77.3796 63.4554 77.3908L63.4176 77.3962ZM60.5556 69.1996L63.18 75.7904L63.3096 69.8755L60.7068 60.4138C60.6965 60.3709 60.696 60.3263 60.7053 60.2832C60.7147 60.2401 60.7337 60.1997 60.7608 60.165L61.3602 59.4622L60.1182 58.4403L59.2866 59.7541L60.3018 60.3597C60.3412 60.3831 60.3738 60.4163 60.3966 60.4561C60.4193 60.4959 60.4313 60.5409 60.4314 60.5868L60.5556 69.1996Z" fill="#231F20"/>
<path d="M53.757 33.5261C54.0685 33.4071 54.3929 33.3254 54.7236 33.2828C56.0412 33.1314 56.0628 33.4179 57.078 32.5637C58.6267 31.3437 60.5109 30.6268 62.478 30.5091C66.258 30.2604 69.0066 32.1582 68.1426 36.3105C67.7271 37.9552 66.973 39.4947 65.9286 40.8305C63.7686 43.7934 60.7824 46.4751 57.1428 46.7779C56.0628 46.859 54.0378 46.7779 53.2548 45.8966C52.1424 44.6337 51.3733 43.1053 51.0215 41.4587C50.6697 39.812 50.747 38.1024 51.246 36.4944C51.4452 35.8057 51.7772 35.1628 52.2234 34.602C52.6377 34.1218 53.1647 33.7521 53.757 33.5261Z" fill="white"/>
<path d="M56.4786 47.0428C55.5174 47.0428 53.8164 46.913 53.0388 46.048C51.8982 44.7531 51.1102 43.1858 50.7508 41.4972C50.3913 39.8086 50.4726 38.0558 50.9868 36.4078C51.1964 35.6864 51.547 35.0138 52.0182 34.429C52.7069 33.6328 53.672 33.1283 54.7182 33.0178C54.9906 32.984 55.2646 32.9642 55.539 32.9584C56.079 32.9584 56.2464 32.9584 56.9268 32.3582C58.5099 31.0952 60.4461 30.3564 62.4672 30.2442C64.6974 30.0982 66.5064 30.6821 67.5594 31.8662C68.499 32.9475 68.796 34.4939 68.4126 36.3375C67.9993 38.0224 67.2296 39.5989 66.1554 40.9603C64.2924 43.5447 61.2252 46.6914 57.1698 46.9941C57.0672 47.0266 56.8188 47.0428 56.4786 47.0428ZM63.1098 30.7578C62.9046 30.7578 62.694 30.7578 62.478 30.7578C60.5676 30.8801 58.7401 31.5837 57.24 32.7745C57.0233 33.0111 56.7582 33.1983 56.4629 33.3233C56.1675 33.4483 55.8488 33.5083 55.5282 33.499C55.3284 33.499 55.08 33.499 54.7452 33.5531C54.4364 33.591 54.1334 33.6672 53.8434 33.7802C53.2947 33.9883 52.8066 34.3303 52.4232 34.775C51.998 35.3087 51.6807 35.9202 51.489 36.5754C51.0074 38.1364 50.9358 39.7953 51.281 41.392C51.6263 42.9887 52.3767 44.4694 53.46 45.6911C54.0756 46.3778 55.7928 46.5886 57.1266 46.4805C60.9714 46.194 63.9198 43.1608 65.7126 40.6737C66.7389 39.3723 67.4754 37.8662 67.8726 36.2564C68.2182 34.5804 67.9644 33.1963 67.1382 32.2447C66.312 31.2931 64.8756 30.7578 63.1098 30.7578Z" fill="#231F20"/>
<path d="M63.5796 49.9678V55.6773C63.5796 55.6773 62.2404 58.8186 58.509 57.8724C54.7776 56.9263 54.324 54.2337 54.324 54.2337L54.4914 43.6528C54.4914 43.6528 57.2832 42.2038 56.538 36.1646C59.5873 37.5198 62.9449 38.0278 66.258 37.6352C66.258 37.6352 67.4028 44.2367 67.0032 47.1456C66.5982 49.9787 63.6282 49.93 63.5796 49.9678Z" fill="white"/>
<path d="M59.8536 58.3212C59.3778 58.3169 58.9044 58.2534 58.4443 58.132C54.5886 57.148 54.0756 54.396 54.0594 54.2824L54.2214 43.6637C54.223 43.6147 54.2372 43.567 54.2628 43.5253C54.2884 43.4836 54.3244 43.4493 54.3672 43.4258C54.3672 43.4258 56.9808 41.9605 56.2734 36.2132C56.2656 36.1644 56.2722 36.1144 56.2923 36.0692C56.3125 36.0241 56.3453 35.9858 56.3868 35.9591C56.4283 35.9338 56.476 35.9204 56.5245 35.9204C56.5731 35.9204 56.6208 35.9338 56.6622 35.9591C59.6619 37.2812 62.9591 37.7795 66.2148 37.4027C66.283 37.3961 66.3512 37.4151 66.4061 37.4561C66.4611 37.4971 66.4987 37.5571 66.5118 37.6244C66.555 37.8947 67.6566 44.3016 67.2516 47.2213C67.0194 48.946 65.8098 50.0111 63.8496 50.2328V55.699C63.8553 55.733 63.8553 55.7677 63.8496 55.8017C63.4853 56.5536 62.9178 57.1882 62.2115 57.6336C61.5052 58.0789 60.6883 58.3171 59.8536 58.3212ZM54.7614 43.8205L54.594 54.2392C54.594 54.2932 55.0746 56.7154 58.5792 57.6075C61.8193 58.4402 63.126 55.9855 63.3096 55.6179V49.9679C63.3092 49.9277 63.3177 49.8879 63.3345 49.8515C63.3513 49.815 63.376 49.7827 63.4068 49.757C63.4799 49.7074 63.5671 49.6828 63.6552 49.6867C65.4534 49.5245 66.5119 48.6378 66.717 47.1239C67.0626 44.6098 66.2202 39.1761 66.0204 37.9326C62.8986 38.2589 59.7446 37.8056 56.8404 36.6133C57.3534 41.6902 55.3338 43.4312 54.7614 43.8205Z" fill="#231F20"/>
<path d="M56.7 43.5124C56.5789 42.9955 56.2926 42.5323 55.8846 42.1931C55.4924 41.8953 55.0522 41.6667 54.5832 41.5173C54.3348 41.409 54.0655 41.3573 53.7948 41.3659C53.6041 41.3931 53.4207 41.4574 53.2548 41.5551C52.8484 41.7473 52.5245 42.0792 52.3421 42.4905C52.2322 42.8402 52.21 43.2115 52.2773 43.5718C52.3198 43.9624 52.4123 44.3458 52.5527 44.7127C52.6995 45.0784 52.9176 45.4111 53.1944 45.6914C53.4711 45.9716 53.801 46.1938 54.1645 46.3448C54.5281 46.4959 54.9181 46.5728 55.3118 46.571C55.7054 46.5693 56.0947 46.4889 56.457 46.3347" fill="white"/>
<path d="M55.2852 46.805C54.6458 46.8038 54.0211 46.6131 53.4897 46.2572C52.9584 45.9012 52.544 45.3958 52.299 44.8045C52.1458 44.4164 52.0476 44.0088 52.0074 43.5934C51.9337 43.1932 51.9596 42.7809 52.083 42.3931C52.2888 41.9205 52.6565 41.537 53.1198 41.3118C53.3133 41.1961 53.5282 41.1207 53.7516 41.0901C54.0645 41.0764 54.3765 41.1337 54.6642 41.2577C55.1621 41.4178 55.6295 41.6609 56.0466 41.9768C56.4971 42.3551 56.8134 42.8691 56.9484 43.442C56.9572 43.4765 56.9589 43.5124 56.9536 43.5475C56.9482 43.5827 56.9359 43.6164 56.9172 43.6467C56.8986 43.677 56.874 43.7032 56.8451 43.7237C56.8161 43.7443 56.7833 43.7588 56.7486 43.7664C56.6791 43.7827 56.6061 43.7708 56.5454 43.7333C56.4847 43.6958 56.4412 43.6358 56.4246 43.5664C56.3151 43.1078 56.0615 42.6965 55.701 42.3931C55.3304 42.1167 54.916 41.9047 54.4752 41.766C54.2669 41.6705 54.04 41.6225 53.811 41.6254C53.6578 41.6509 53.5111 41.706 53.379 41.7876C53.0327 41.9504 52.7525 42.2271 52.5852 42.5716C52.5001 42.8779 52.4853 43.1995 52.542 43.5123C52.5766 43.8833 52.6639 44.2474 52.8012 44.5937C52.9375 44.9227 53.1374 45.2216 53.3895 45.4731C53.6416 45.7245 53.9408 45.9236 54.27 46.0589C54.9367 46.3291 55.6822 46.3291 56.349 46.0589C56.3811 46.0439 56.4159 46.0356 56.4513 46.0346C56.4867 46.0336 56.522 46.0399 56.5549 46.0531C56.5877 46.0663 56.6176 46.086 56.6426 46.1112C56.6675 46.1364 56.687 46.1664 56.7 46.1994C56.7143 46.2321 56.722 46.2672 56.7227 46.3029C56.7233 46.3385 56.717 46.3739 56.7039 46.4071C56.6909 46.4403 56.6714 46.4705 56.6466 46.4961C56.6218 46.5217 56.5923 46.5422 56.5596 46.5563C56.1559 46.7244 55.7224 46.809 55.2852 46.805Z" fill="#231F20"/>
<path d="M63.3583 41.4468C63.3583 41.4468 65.3887 44.334 64.9351 44.853C64.4815 45.372 63.1693 45.0639 63.1693 45.0639" fill="white"/>
<path d="M63.9684 45.4265C63.6795 45.4241 63.3918 45.3915 63.1098 45.3291C63.0743 45.3213 63.0407 45.3066 63.011 45.2858C62.9812 45.265 62.9558 45.2385 62.9362 45.2079C62.9167 45.1773 62.9033 45.1431 62.897 45.1073C62.8906 45.0715 62.8914 45.0348 62.8992 44.9993C62.907 44.9638 62.9217 44.9302 62.9424 44.9004C62.9632 44.8706 62.9897 44.8452 63.0202 44.8256C63.0508 44.806 63.085 44.7927 63.1207 44.7863C63.1565 44.7799 63.1931 44.7807 63.2286 44.7885C63.6768 44.8912 64.4814 44.9453 64.7298 44.6587C64.8432 44.3938 64.098 42.9556 63.1098 41.5877C63.0733 41.5288 63.0607 41.4582 63.0748 41.3904C63.0888 41.3226 63.1283 41.2627 63.1851 41.2232C63.2419 41.1836 63.3116 41.1674 63.38 41.1779C63.4484 41.1884 63.5102 41.2248 63.5526 41.2795C64.3572 42.4203 65.6262 44.4208 65.1132 45.0155C64.9599 45.1578 64.7794 45.2675 64.5827 45.3381C64.386 45.4087 64.177 45.4388 63.9684 45.4265Z" fill="#231F20"/>
<path d="M62.2331 40.8495C62.2562 40.4739 62.0578 40.1561 61.7899 40.1395C61.522 40.123 61.2861 40.414 61.263 40.7895C61.2398 41.1651 61.4382 41.4829 61.7061 41.4994C61.974 41.516 62.21 41.225 62.2331 40.8495Z" fill="#231F20"/>
<path d="M65.9612 41.5096C66.2289 41.4908 66.4246 41.1712 66.3983 40.7959C66.3719 40.4206 66.1335 40.1316 65.8658 40.1505C65.598 40.1693 65.4023 40.4888 65.4287 40.8641C65.455 41.2395 65.6934 41.5284 65.9612 41.5096Z" fill="#231F20"/>
<path d="M63.4554 47.1565C62.3322 47.1565 60.858 46.9835 59.886 46.1995C59.83 46.154 59.7941 46.0882 59.786 46.0164C59.778 45.9446 59.7983 45.8726 59.8428 45.8157C59.8648 45.7879 59.8922 45.7648 59.9233 45.7478C59.9544 45.7308 59.9885 45.7202 60.0238 45.7166C60.0591 45.7131 60.0947 45.7167 60.1285 45.7272C60.1623 45.7377 60.1937 45.7549 60.2208 45.7778C61.7598 47.016 64.9242 46.5131 64.9566 46.5077C65.0282 46.4962 65.1014 46.5137 65.1602 46.5563C65.2189 46.5989 65.2583 46.6631 65.2698 46.7348C65.2813 46.8065 65.2638 46.8798 65.2213 46.9386C65.1787 46.9974 65.1146 47.0369 65.043 47.0484C64.5173 47.1244 63.9866 47.1605 63.4554 47.1565Z" fill="#231F20"/>
<path d="M67.1112 44.4529C66.58 44.4546 66.0549 44.3396 65.5728 44.1161C65.0908 43.8926 64.6635 43.566 64.3212 43.1593C63.9788 42.7526 63.7297 42.2757 63.5913 41.7621C63.4529 41.2486 63.4286 40.711 63.5202 40.187C63.6888 39.238 64.2262 38.3945 65.0146 37.8412C65.803 37.2879 66.7782 37.0699 67.7268 37.235C68.6277 37.384 69.4395 37.8676 70 38.5894C70.5606 39.3111 70.8287 40.2179 70.751 41.1288C70.6733 42.0398 70.2555 42.8879 69.5808 43.5041C68.9062 44.1202 68.0243 44.459 67.1112 44.4529ZM64.0548 40.2844C63.9482 40.8877 64.0231 41.5092 64.2698 42.0699C64.5166 42.6306 64.9241 43.1053 65.4408 43.4337C65.9574 43.7622 66.5598 43.9295 67.1716 43.9146C67.7834 43.8997 68.377 43.7032 68.877 43.35C69.2105 43.1158 69.4946 42.8181 69.713 42.4739C69.9315 42.1298 70.0801 41.7459 70.1503 41.3442C70.2205 40.9425 70.211 40.5308 70.1222 40.1328C70.0335 39.7348 69.8672 39.3583 69.633 39.0246C69.281 38.5238 68.7886 38.1387 68.218 37.9179C67.6475 37.6972 67.0244 37.6507 66.4274 37.7843C65.8305 37.918 65.2865 38.2258 64.8642 38.6688C64.4419 39.1119 64.1603 39.6703 64.0548 40.2736V40.2844Z" fill="#231F20"/>
<path d="M60.0587 44.1936C59.8469 44.1945 59.6355 44.1764 59.4269 44.1396C58.9435 44.0724 58.4785 43.9084 58.0598 43.6573C57.641 43.4063 57.2771 43.0734 56.9896 42.6784C56.7022 42.2835 56.4971 41.8346 56.3867 41.3586C56.2763 40.8826 56.2628 40.3892 56.3469 39.9079C56.4311 39.4265 56.6113 38.9671 56.8767 38.5569C57.142 38.1468 57.4872 37.7944 57.8916 37.5208C58.2959 37.2471 58.7512 37.0578 59.2302 36.9642C59.7093 36.8705 60.2022 36.8744 60.6797 36.9757C61.3869 37.1003 62.0413 37.4317 62.5605 37.9283C63.0796 38.4249 63.4403 39.0644 63.5968 39.766C63.7534 40.4676 63.6988 41.1999 63.4401 41.8705C63.1814 42.5411 62.7301 43.12 62.1431 43.534C61.5322 43.9626 60.8046 44.1928 60.0587 44.1936ZM60.0587 37.4623C59.4947 37.4648 58.9422 37.6216 58.4607 37.9157C57.9793 38.2098 57.5873 38.63 57.3271 39.131C57.0669 39.632 56.9485 40.1947 56.9845 40.7582C57.0205 41.3217 57.2097 41.8647 57.5315 42.3283C57.7649 42.6629 58.0621 42.948 58.4059 43.167C58.7498 43.3861 59.1336 43.5349 59.5352 43.6047C59.9368 43.6746 60.3482 43.6642 60.7457 43.5741C61.1433 43.484 61.5191 43.316 61.8515 43.0799C62.185 42.8457 62.469 42.548 62.6875 42.2038C62.906 41.8597 63.0546 41.4758 63.1248 41.0741C63.195 40.6724 63.1855 40.2607 63.0967 39.8627C63.008 39.4647 62.8417 39.0881 62.6075 38.7545C62.3234 38.3451 61.9436 38.0114 61.5013 37.7824C61.0589 37.5534 60.5674 37.4361 60.0695 37.4407L60.0587 37.4623Z" fill="#231F20"/>
<path d="M63.5796 49.968C63.5796 49.968 60.0318 50.7898 57.942 49.6003C57.942 49.6003 60.2532 54.3853 63.5796 53.8878V49.968Z" fill="#231F20"/>
<path d="M63.0828 54.1905C59.8968 54.1905 57.7908 49.903 57.6828 49.7138C57.6554 49.6626 57.6464 49.6035 57.6572 49.5465C57.668 49.4894 57.698 49.4378 57.7422 49.4002C57.783 49.3602 57.8358 49.3349 57.8924 49.328C57.949 49.3212 58.0063 49.3332 58.0554 49.3623C60.0318 50.4923 63.4554 49.7138 63.4986 49.7083C63.5382 49.6986 63.5794 49.6979 63.6192 49.7063C63.6591 49.7147 63.6965 49.7321 63.7287 49.757C63.7609 49.782 63.7871 49.8139 63.8052 49.8504C63.8233 49.8869 63.833 49.9271 63.8334 49.9679V53.8823C63.8328 53.947 63.809 54.0093 63.7664 54.0579C63.7238 54.1065 63.6652 54.1382 63.6012 54.1473C63.4297 54.1741 63.2564 54.1885 63.0828 54.1905ZM58.5738 50.1733C59.319 51.3952 61.0848 53.8012 63.3096 53.639V50.3031C62.4834 50.4545 60.3072 50.7627 58.5738 50.1733Z" fill="#231F20"/>
<path d="M44.28 53.3851C41.3802 53.9258 29.6352 81.089 33.6582 84.2033C39.933 89.0693 61.7652 84.1492 61.7652 84.1492L59.9886 75.7147C59.9886 75.7147 45.9486 76.1094 45.7488 73.2223C45.549 70.3351 53.9136 57.0022 52.8174 54.9801C51.7212 52.958 44.28 53.3851 44.28 53.3851Z" fill="#F14736"/>
<path d="M51.1218 86.9336C51.0864 86.9368 51.0506 86.933 51.0166 86.9224C50.9827 86.9117 50.9511 86.8945 50.9238 86.8717C50.8965 86.8488 50.8739 86.8208 50.8574 86.7892C50.8408 86.7576 50.8307 86.7231 50.8275 86.6876C50.8243 86.6521 50.8281 86.6163 50.8388 86.5823C50.8494 86.5483 50.8666 86.5167 50.8894 86.4893C50.9122 86.462 50.9402 86.4394 50.9717 86.4228C51.0033 86.4063 51.0378 86.3962 51.0732 86.393L57.6774 85.2575L57.8826 77.553L45.4626 76.2716C45.4237 76.2689 45.3859 76.2573 45.3522 76.2376C45.3184 76.2179 45.2897 76.1907 45.2682 76.1581C45.2453 76.1255 45.2299 76.0882 45.2234 76.0489C45.2168 76.0095 45.2192 75.9692 45.2304 75.931L50.76 56.9481C50.7801 56.8792 50.8266 56.8212 50.8894 56.7867C50.9522 56.7522 51.0261 56.7442 51.0948 56.7642C51.1628 56.7855 51.2198 56.8323 51.2541 56.8948C51.2883 56.9573 51.297 57.0306 51.2784 57.0994L45.8784 75.7742L58.1958 77.0448C58.2636 77.0516 58.3263 77.0838 58.3714 77.1349C58.4164 77.186 58.4405 77.2523 58.4388 77.3205L58.2228 85.4954C58.2211 85.5584 58.1975 85.6187 58.1561 85.6661C58.1147 85.7135 58.0581 85.7449 57.996 85.755L51.1758 86.9336H51.1218Z" fill="#231F20"/>
<path d="M58.455 78.5315C60.7896 78.6726 63.1327 78.5584 65.4426 78.1909C67.1482 77.7762 68.8985 77.5746 70.6536 77.5907C72.9696 77.7028 75.2476 78.2245 77.382 79.1316C77.4702 79.1599 77.5488 79.2124 77.6088 79.283C77.814 79.5696 77.3226 79.8237 76.9716 79.8616C76.043 79.8831 75.1164 79.7646 74.223 79.5101C76.4313 80.3305 78.5198 81.4434 80.433 82.819C80.6544 82.9758 80.892 83.2191 80.784 83.4678C80.676 83.7165 80.244 83.6679 79.947 83.5381L74.925 81.2403C76.2263 81.7581 77.4325 82.4889 78.4944 83.403C78.6456 83.5381 78.8076 83.7111 78.7644 83.9112C78.6942 84.2464 78.192 84.1815 77.8788 84.0301C76.3524 83.2687 74.8944 82.3769 73.521 81.3646L76.6206 83.7382C76.6584 83.9923 76.3938 84.2085 76.1346 84.2194C75.8783 84.2013 75.6318 84.1134 75.4218 83.9652L71.9658 81.9648L74.1258 83.4786C74.466 83.7165 74.8494 84.1004 74.6658 84.4789C74.4822 84.8574 73.8072 84.7871 73.359 84.587C71.5794 83.8134 69.7193 83.2403 67.8132 82.8785C67.1463 82.6587 66.4556 82.5189 65.7558 82.4622C64.6878 82.5954 63.6341 82.8252 62.6076 83.1488C61.047 83.5003 59.4864 83.8625 57.9258 84.2302" fill="white"/>
<path d="M74.1366 85.0304C73.8379 85.0154 73.5447 84.9439 73.2726 84.8195C71.511 84.0503 69.6689 83.4809 67.7808 83.1218C67.5432 83.0786 67.311 83.0083 67.0788 82.9434C66.6619 82.7982 66.2242 82.7215 65.7828 82.7163C65.062 82.7774 64.3501 82.9188 63.6606 83.138C63.3258 83.23 62.9964 83.3219 62.6778 83.3922C61.1172 83.749 59.5566 84.1058 57.996 84.4735C57.9324 84.4867 57.8662 84.475 57.8109 84.4408C57.7557 84.4066 57.7156 84.3525 57.699 84.2897C57.691 84.2581 57.6895 84.2251 57.6944 84.1929C57.6994 84.1607 57.7108 84.1298 57.7279 84.102C57.745 84.0743 57.7675 84.0503 57.7941 84.0314C57.8207 84.0126 57.8508 83.9993 57.8826 83.9923C59.4432 83.6246 61.0092 83.2678 62.5698 82.911C62.8776 82.8407 63.2016 82.7542 63.531 82.6622C64.257 82.4301 65.0071 82.2814 65.7666 82.2189C66.2585 82.2312 66.746 82.315 67.2138 82.4676C67.4352 82.5325 67.6512 82.5974 67.878 82.6406C69.8032 83.0039 71.6816 83.5824 73.4778 84.3654C73.736 84.5082 74.0353 84.5579 74.3256 84.5059C74.3547 84.497 74.3814 84.4816 74.4038 84.4611C74.4262 84.4405 74.4438 84.4152 74.4552 84.387C74.5686 84.1275 74.1204 83.7868 73.98 83.6841L71.82 82.1756C71.7673 82.1384 71.7306 82.0825 71.7176 82.0192C71.7046 81.956 71.7161 81.8901 71.7498 81.835C71.7852 81.7817 71.8397 81.7441 71.9021 81.73C71.9644 81.7159 72.0298 81.7264 72.0846 81.7593L75.5406 83.7598C75.7104 83.8862 75.9128 83.9613 76.1238 83.9761C76.1653 83.9736 76.2057 83.9627 76.2429 83.9441C76.28 83.9255 76.313 83.8996 76.3398 83.8679L73.3536 81.5809C73.3234 81.5631 73.2974 81.5392 73.2771 81.5106C73.2568 81.4821 73.2428 81.4495 73.2359 81.4151C73.2291 81.3808 73.2296 81.3453 73.2373 81.3112C73.2451 81.277 73.2601 81.2448 73.2811 81.2168C73.3022 81.1888 73.3289 81.1656 73.3596 81.1487C73.3902 81.1318 73.4241 81.1215 73.459 81.1186C73.4939 81.1158 73.529 81.1203 73.562 81.1319C73.5951 81.1436 73.6253 81.1621 73.6506 81.1862C75.0115 82.191 76.4569 83.0757 77.9706 83.8301C78.1246 83.9176 78.3055 83.9445 78.4782 83.9058C78.5106 83.8517 78.4782 83.776 78.3108 83.6138C77.5845 82.9825 76.7871 82.4382 75.9348 81.9918L74.8008 81.4512C74.748 81.4208 74.7081 81.3721 74.6887 81.3143C74.6694 81.2564 74.672 81.1934 74.696 81.1374C74.72 81.0813 74.7637 81.036 74.8189 81.0101C74.8741 80.9842 74.9368 80.9796 74.9952 80.997C75.3894 81.1538 75.7728 81.3322 76.1508 81.5377L80.028 83.3165C80.1735 83.3943 80.3402 83.4228 80.5032 83.3976C80.568 83.3002 80.4546 83.1489 80.271 83.0191C78.3745 81.6564 76.3041 80.5544 74.115 79.7426C74.0552 79.7206 74.0065 79.676 73.9792 79.6184C73.9519 79.5608 73.9483 79.4947 73.9692 79.4344C73.9891 79.3737 74.0317 79.3229 74.088 79.2927C74.1443 79.2625 74.2101 79.2552 74.2716 79.2722C75.138 79.5225 76.0378 79.6374 76.9392 79.6129C77.0238 79.6127 77.1073 79.5949 77.1845 79.5604C77.2617 79.5259 77.3308 79.4757 77.3874 79.4128L77.2632 79.3588C75.157 78.4603 72.908 77.9441 70.6212 77.8341C69.1006 77.8084 67.5826 77.9701 66.1014 78.3153L65.4642 78.4342C63.1434 78.8017 60.7898 78.9177 58.4442 78.7802C58.4116 78.7788 58.3796 78.771 58.3499 78.7572C58.3203 78.7434 58.2937 78.7239 58.2717 78.6998C58.2496 78.6757 58.2325 78.6475 58.2213 78.6167C58.2102 78.586 58.2052 78.5534 58.2066 78.5207C58.2065 78.4881 58.2132 78.4557 58.2261 78.4258C58.2391 78.3958 58.258 78.3688 58.2818 78.3465C58.3056 78.3242 58.3338 78.307 58.3645 78.2961C58.3952 78.2851 58.4279 78.2806 58.4604 78.2828C60.7751 78.4203 63.0979 78.3079 65.3886 77.9476L66.0258 77.8287C67.5441 77.4747 69.1005 77.3112 70.659 77.3421C73.0049 77.4563 75.3121 77.9853 77.4738 78.9046C77.6037 78.9487 77.7181 79.0295 77.8032 79.1371C77.8558 79.2078 77.8876 79.2918 77.8952 79.3797C77.9029 79.4675 77.886 79.5557 77.8464 79.6345C77.7488 79.7772 77.6185 79.8945 77.4662 79.9763C77.314 80.0582 77.1444 80.1023 76.9716 80.1049C76.734 80.1049 76.4964 80.1049 76.2642 80.1049C77.7799 80.8074 79.2263 81.6509 80.5842 82.6244C80.9946 82.9164 81.1512 83.2624 81.0162 83.5706C80.9873 83.639 80.9445 83.7008 80.8906 83.752C80.8367 83.8031 80.7729 83.8426 80.703 83.8679C80.4163 83.9406 80.1129 83.906 79.8498 83.7706L78.6456 83.23C78.7634 83.3122 78.8577 83.4238 78.9192 83.5537C78.9808 83.6836 79.0075 83.8273 78.9966 83.9707C78.9795 84.0509 78.9443 84.1262 78.8938 84.1909C78.8433 84.2555 78.7787 84.3078 78.705 84.3437C78.5504 84.3971 78.3862 84.417 78.2233 84.4021C78.0604 84.3872 77.9025 84.3378 77.76 84.2572C77.4576 84.1113 77.1606 83.9545 76.8582 83.7923C76.8601 83.939 76.8083 84.0813 76.7124 84.1923C76.6406 84.2764 76.5522 84.3448 76.4528 84.3932C76.3534 84.4415 76.2451 84.4689 76.1346 84.4735C75.831 84.4629 75.5367 84.3654 75.2868 84.1923L74.871 83.949C74.9189 84.0486 74.9437 84.1576 74.9437 84.268C74.9437 84.3785 74.9189 84.4875 74.871 84.587C74.8342 84.675 74.7797 84.7544 74.711 84.8204C74.6422 84.8865 74.5607 84.9377 74.4714 84.9709C74.3639 85.0091 74.2507 85.0292 74.1366 85.0304Z" fill="#231F20"/>
<path d="M67.7808 58.051C67.7808 58.051 70.3512 68.5454 72.6408 76.0121L67.7808 58.051Z" fill="white"/>
<path d="M72.6625 76.2552C72.6103 76.2551 72.5596 76.2383 72.5178 76.2071C72.476 76.176 72.4453 76.1322 72.4303 76.0822C70.1407 68.7021 67.5703 58.2401 67.5379 58.1104C67.5298 58.0784 67.5282 58.0452 67.5331 58.0126C67.538 57.98 67.5493 57.9487 67.5664 57.9205C67.5835 57.8923 67.606 57.8678 67.6326 57.8485C67.6592 57.8291 67.6894 57.8152 67.7215 57.8076C67.7852 57.7929 67.8521 57.804 67.9077 57.8384C67.9633 57.8728 68.0031 57.9278 68.0185 57.9914C68.0455 58.0941 70.6159 68.5669 72.8785 75.9362C72.8971 75.9986 72.8906 76.0658 72.8603 76.1235C72.83 76.1811 72.7784 76.2245 72.7165 76.2444C72.6991 76.2507 72.6809 76.2544 72.6625 76.2552Z" fill="#231F20"/>
<path d="M98.6095 88.6746L98.4745 90.1452L65.4427 94.9788L65.7721 93.4379L98.6095 88.6746Z" fill="white"/>
<path d="M65.4426 95.249C65.4052 95.2486 65.3683 95.2407 65.334 95.2259C65.2997 95.211 65.2687 95.1895 65.2428 95.1625C65.2132 95.1313 65.1917 95.0932 65.1804 95.0517C65.1691 95.0102 65.1683 94.9665 65.178 94.9246L65.5074 93.3782C65.5211 93.325 65.5497 93.2769 65.5899 93.2395C65.6301 93.2021 65.6802 93.1771 65.7342 93.1674L98.5716 88.4095C98.6114 88.4044 98.6518 88.408 98.6901 88.4201C98.7283 88.4323 98.7634 88.4526 98.793 88.4798C98.8224 88.5084 98.8454 88.543 98.8603 88.5812C98.8752 88.6195 98.8817 88.6605 98.8794 88.7015L98.7444 90.1667C98.7391 90.2267 98.7139 90.2833 98.6728 90.3274C98.6317 90.3715 98.5771 90.4006 98.5176 90.41L65.4804 95.276L65.4426 95.249ZM65.9826 93.6756L65.772 94.6542L98.2098 89.9071L98.2908 88.9934L65.9826 93.6756Z" fill="#231F20"/>
<path d="M98.6095 88.6746C98.6095 88.6746 91.0873 82.219 90.8389 82.2785C90.5905 82.338 56.8189 86.393 56.8189 86.393L65.7883 93.4217L98.6095 88.6746Z" fill="white"/>
<path d="M65.772 93.7081C65.7127 93.7083 65.6552 93.6872 65.61 93.6486L56.6352 86.6199C56.5932 86.5869 56.5618 86.5421 56.5452 86.4912C56.5286 86.4403 56.5275 86.3856 56.5419 86.3341C56.5564 86.2825 56.5858 86.2365 56.6264 86.2017C56.6671 86.1669 56.7171 86.145 56.7702 86.1387C57.105 86.1009 90.2502 82.1215 90.7902 82.0296C90.9414 81.9972 91.1628 81.9377 98.7876 88.4852C98.8271 88.5191 98.8561 88.5635 98.8714 88.6133C98.8867 88.663 98.8876 88.7161 98.874 88.7664C98.8588 88.8162 98.83 88.8607 98.7909 88.8951C98.7518 88.9295 98.7039 88.9523 98.6526 88.961L65.8206 93.7189L65.772 93.7081ZM57.483 86.5821L65.8476 93.1512L97.983 88.496C95.283 86.1982 91.3842 82.9001 90.801 82.5487C89.0406 82.7974 64.1358 85.7819 57.483 86.5821Z" fill="#231F20"/>
<path d="M65.4426 94.9786L56.6676 87.858L56.8026 86.3928L65.772 93.4377L65.4426 94.9786Z" fill="white"/>
<path d="M65.4426 95.2489C65.38 95.2489 65.3192 95.228 65.2698 95.1895L56.5002 88.0688C56.4661 88.0408 56.439 88.0052 56.4212 87.9648C56.4033 87.9244 56.3953 87.8804 56.3976 87.8363L56.5326 86.3657C56.5383 86.3177 56.5564 86.2721 56.5853 86.2333C56.6141 86.1946 56.6526 86.1641 56.6969 86.1449C56.7412 86.1258 56.7897 86.1186 56.8376 86.1241C56.8856 86.1297 56.9312 86.1477 56.97 86.1765L65.9394 93.2052C65.9788 93.2369 66.0088 93.279 66.0259 93.3267C66.0431 93.3744 66.0468 93.4259 66.0366 93.4755L65.7072 95.0218C65.6966 95.0668 65.6746 95.1083 65.6434 95.1424C65.6122 95.1765 65.5728 95.202 65.529 95.2165C65.5025 95.2327 65.4732 95.2437 65.4426 95.2489ZM56.9484 87.739L65.2698 94.4758L65.475 93.5296L57.024 86.9064L56.9484 87.739Z" fill="#231F20"/>
<path d="M98.6094 88.6747L104.954 67.3777L70.1352 73.3196L65.772 93.438L98.6094 88.6747Z" fill="white"/>
<path d="M65.772 93.7081C65.7355 93.7076 65.6994 93.6997 65.666 93.6848C65.6326 93.67 65.6025 93.6485 65.5776 93.6216C65.5481 93.5892 65.5264 93.5503 65.5142 93.5082C65.5021 93.466 65.4997 93.4215 65.5074 93.3783L69.8706 73.2654C69.8809 73.2124 69.9071 73.1638 69.9457 73.1261C69.9843 73.0884 70.0335 73.0634 70.0866 73.0545L104.911 67.1071C104.956 67.0984 105.003 67.1015 105.046 67.1163C105.09 67.131 105.129 67.1569 105.159 67.1912C105.19 67.2256 105.211 67.2673 105.22 67.3123C105.23 67.3573 105.228 67.404 105.214 67.4478L98.8686 88.7502C98.852 88.7987 98.8227 88.8418 98.7837 88.8751C98.7448 88.9084 98.6977 88.9306 98.6472 88.9394L65.8152 93.6973L65.772 93.7081ZM70.362 73.5573L66.123 93.1134L98.3988 88.4312L104.571 67.7181L70.362 73.5573Z" fill="#231F20"/>
<path d="M117.277 56.7047C117.211 56.7051 117.148 56.6809 117.099 56.6369C117.05 56.593 117.019 56.5323 117.013 56.4668C116.829 54.6772 118.163 52.4767 118.222 52.3848C118.24 52.3541 118.265 52.3274 118.293 52.3062C118.322 52.2849 118.355 52.2696 118.389 52.261C118.424 52.2525 118.46 52.2509 118.495 52.2564C118.53 52.2618 118.564 52.2742 118.595 52.2929C118.655 52.3317 118.697 52.3924 118.713 52.4619C118.729 52.5315 118.718 52.6047 118.681 52.6659C118.681 52.6659 117.385 54.8286 117.547 56.4074C117.551 56.4429 117.548 56.4788 117.537 56.5131C117.527 56.5473 117.51 56.5792 117.488 56.6068C117.465 56.6345 117.437 56.6573 117.406 56.6742C117.374 56.691 117.34 56.7014 117.304 56.7047H117.277Z" fill="#231F20"/>
<path d="M139.358 85.1385C139.306 85.1375 139.256 85.1225 139.212 85.0952L133.18 81.2132C133.119 81.1745 133.076 81.1131 133.061 81.0427C133.045 80.9722 133.058 80.8984 133.096 80.8374C133.135 80.7765 133.196 80.7334 133.267 80.7177C133.337 80.702 133.411 80.7149 133.472 80.7536L139.504 84.6357C139.564 84.6754 139.606 84.7375 139.622 84.8083C139.637 84.8791 139.623 84.953 139.585 85.0141C139.559 85.0512 139.525 85.0818 139.486 85.1034C139.447 85.125 139.403 85.137 139.358 85.1385Z" fill="#D1D3D4"/>
<path d="M141.539 84.1655C141.488 84.167 141.438 84.1539 141.394 84.1277L135.664 80.4187C135.604 80.3792 135.562 80.3175 135.547 80.247C135.533 80.1766 135.547 80.1031 135.586 80.0429C135.625 79.9827 135.687 79.9406 135.757 79.9259C135.828 79.9112 135.901 79.9251 135.961 79.9645L141.685 83.6465C141.746 83.6863 141.788 83.7483 141.803 83.8191C141.818 83.8899 141.805 83.9638 141.766 84.0249C141.743 84.0654 141.71 84.0994 141.671 84.1239C141.631 84.1485 141.586 84.1627 141.539 84.1655Z" fill="#D1D3D4"/>
<path d="M143.64 83.4462C143.588 83.4444 143.538 83.4295 143.494 83.4029L137.7 79.6831C137.64 79.6436 137.598 79.5819 137.583 79.5114C137.568 79.441 137.582 79.3675 137.622 79.3073C137.661 79.2471 137.723 79.205 137.793 79.1903C137.863 79.1756 137.937 79.1895 137.997 79.2289L143.77 82.9487C143.83 82.9875 143.872 83.0486 143.887 83.1185C143.902 83.1884 143.889 83.2615 143.851 83.3218C143.828 83.3583 143.798 83.3887 143.761 83.4104C143.724 83.4321 143.683 83.4444 143.64 83.4462Z" fill="#D1D3D4"/>
<path d="M146.281 82.7325C146.233 82.7334 146.186 82.7202 146.146 82.6946L139.93 79.0289C139.896 79.0133 139.865 78.9907 139.84 78.9624C139.815 78.9342 139.796 78.901 139.784 78.865C139.773 78.8289 139.769 78.7909 139.773 78.7533C139.777 78.7157 139.789 78.6794 139.808 78.6467C139.827 78.614 139.853 78.5856 139.883 78.5635C139.914 78.5413 139.949 78.5258 139.986 78.518C140.023 78.5102 140.061 78.5103 140.098 78.5182C140.135 78.5261 140.17 78.5417 140.2 78.5639L146.416 82.2296C146.466 82.2597 146.506 82.3056 146.528 82.3603C146.55 82.4149 146.554 82.4753 146.539 82.5323C146.523 82.5893 146.49 82.6397 146.443 82.6758C146.397 82.712 146.339 82.7318 146.281 82.7325Z" fill="#D1D3D4"/>
<path d="M148.165 82.089C148.116 82.09 148.067 82.0769 148.025 82.0511L141.809 78.3854C141.749 78.3474 141.705 78.2872 141.688 78.2175C141.671 78.1479 141.681 78.0743 141.718 78.0123C141.735 77.9813 141.758 77.9541 141.786 77.9325C141.815 77.9109 141.847 77.8953 141.881 77.8867C141.916 77.878 141.952 77.8766 141.987 77.8824C142.022 77.8882 142.055 77.9012 142.085 77.9204L148.3 81.5862C148.351 81.6163 148.39 81.6622 148.413 81.7168C148.435 81.7715 148.438 81.8319 148.423 81.8889C148.408 81.9458 148.374 81.9962 148.328 82.0324C148.281 82.0685 148.224 82.0884 148.165 82.089Z" fill="#D1D3D4"/>
</svg>
