<svg width="216" height="163" viewBox="0 0 216 163" fill="none" xmlns="http://www.w3.org/2000/svg">
<path d="M135.427 144.32H88.0417L90.1099 137.584L92.1025 131.085H131.366L132.1 133.48L135.427 144.32Z" fill="white"/>
<path d="M135.427 144.591H88.02C87.9779 144.592 87.9362 144.582 87.8986 144.564C87.861 144.545 87.8285 144.517 87.804 144.483C87.7783 144.448 87.7611 144.409 87.7536 144.366C87.7461 144.324 87.7486 144.281 87.7608 144.24L91.8215 131.004C91.8389 130.949 91.8734 130.901 91.92 130.867C91.9667 130.833 92.023 130.814 92.0808 130.815H131.344C131.402 130.814 131.458 130.833 131.505 130.867C131.551 130.901 131.586 130.949 131.603 131.004L135.686 144.218C135.698 144.259 135.7 144.302 135.693 144.345C135.685 144.387 135.668 144.427 135.643 144.461C135.621 144.499 135.589 144.531 135.551 144.554C135.514 144.577 135.471 144.59 135.427 144.591ZM88.4088 144.05H135.059L131.166 131.355H92.2859L88.4088 144.05Z" fill="#231F20"/>
<path d="M132.1 133.48L90.1098 137.584L92.1024 131.085H131.366L132.1 133.48Z" fill="#231F20"/>
<path d="M90.1098 137.822C90.0747 137.822 90.04 137.814 90.0083 137.799C89.9765 137.784 89.9485 137.762 89.9262 137.735C89.902 137.704 89.8855 137.668 89.878 137.63C89.8705 137.591 89.8722 137.551 89.883 137.514L91.8756 131.026C91.8913 130.977 91.9216 130.935 91.9622 130.905C92.0029 130.875 92.0518 130.859 92.1024 130.858H131.366C131.416 130.859 131.465 130.875 131.506 130.905C131.547 130.935 131.577 130.977 131.593 131.026L132.327 133.421C132.337 133.454 132.34 133.489 132.336 133.524C132.331 133.558 132.319 133.591 132.3 133.621C132.28 133.65 132.253 133.675 132.222 133.694C132.192 133.713 132.157 133.725 132.122 133.729L90.1314 137.833L90.1098 137.822ZM92.2698 131.334L90.4338 137.324L131.776 133.28L131.177 131.334H92.2698Z" fill="#231F20"/>
<path d="M81.3564 143.677H142.106C142.611 143.677 143.094 143.878 143.45 144.234C143.807 144.591 144.007 145.075 144.007 145.58V146.38H79.4556V145.613C79.4513 145.36 79.4973 145.109 79.5908 144.874C79.6844 144.64 79.8238 144.426 80.0007 144.246C80.1776 144.066 80.3886 143.923 80.6214 143.825C80.8542 143.727 81.104 143.677 81.3564 143.677Z" fill="white"/>
<path d="M144.007 146.635H79.4556C79.384 146.635 79.3153 146.606 79.2647 146.555C79.214 146.505 79.1856 146.436 79.1856 146.364V145.602C79.1856 145.028 79.4132 144.478 79.8182 144.073C80.2233 143.667 80.7727 143.439 81.3456 143.439H142.106C142.679 143.439 143.229 143.667 143.634 144.073C144.039 144.478 144.266 145.028 144.266 145.602V146.38C144.262 146.447 144.234 146.511 144.186 146.558C144.138 146.605 144.074 146.632 144.007 146.635ZM79.7472 146.094H143.737V145.602C143.737 145.172 143.567 144.759 143.263 144.455C142.959 144.151 142.547 143.98 142.117 143.98H81.3618C80.9321 143.98 80.5201 144.151 80.2163 144.455C79.9125 144.759 79.7418 145.172 79.7418 145.602L79.7472 146.094Z" fill="#231F20"/>
<path d="M173.065 44.3018H50.4037C48.5606 44.3018 47.0665 45.7977 47.0665 47.6431V128.235C47.0665 130.081 48.5606 131.577 50.4037 131.577H173.065C174.908 131.577 176.402 130.081 176.402 128.235V47.6431C176.402 45.7977 174.908 44.3018 173.065 44.3018Z" fill="white"/>
<path d="M173.065 131.842H50.3982C49.443 131.842 48.5269 131.462 47.8514 130.786C47.1759 130.109 46.7964 129.192 46.7964 128.236V47.638C46.7964 47.1644 46.8896 46.6955 47.0706 46.258C47.2516 45.8204 47.5169 45.4229 47.8514 45.088C48.1858 44.7531 48.5829 44.4875 49.0199 44.3063C49.4569 44.125 49.9253 44.0317 50.3982 44.0317H173.065C174.02 44.0317 174.937 44.4115 175.613 45.0877C176.29 45.7638 176.67 46.6811 176.672 47.638V128.236C176.67 129.193 176.29 130.11 175.613 130.786C174.937 131.462 174.02 131.842 173.065 131.842ZM50.3982 44.5724C49.5862 44.5724 48.8074 44.8954 48.2332 45.4703C47.659 46.0452 47.3364 46.825 47.3364 47.638V128.236C47.3364 129.049 47.659 129.828 48.2332 130.403C48.8074 130.978 49.5862 131.301 50.3982 131.301H173.065C173.877 131.301 174.657 130.978 175.232 130.404C175.807 129.829 176.13 129.049 176.132 128.236V47.638C176.13 46.8245 175.807 46.0447 175.232 45.47C174.657 44.8952 173.877 44.5724 173.065 44.5724H50.3982Z" fill="#231F20"/>
<path d="M171.493 49.6653H51.9696V126.208H171.493V49.6653Z" fill="white"/>
<path d="M171.493 126.478H51.9696C51.898 126.478 51.8293 126.45 51.7787 126.399C51.728 126.348 51.6996 126.28 51.6996 126.208V49.6654C51.6996 49.5937 51.728 49.5249 51.7787 49.4742C51.8293 49.4235 51.898 49.395 51.9696 49.395H171.493C171.565 49.395 171.633 49.4235 171.684 49.4742C171.735 49.5249 171.763 49.5937 171.763 49.6654V126.208C171.763 126.28 171.735 126.348 171.684 126.399C171.633 126.45 171.565 126.478 171.493 126.478ZM52.2396 125.938H171.223V49.9357H52.2396V125.938Z" fill="#231F20"/>
<path d="M85.6494 57.3374C85.6494 57.3374 70.4268 65.6367 69.0066 88.48L88.2306 92.2647L93.312 74.4712L85.6494 57.3374Z" fill="#F14736"/>
<path d="M89.8938 44.5235C86.5944 40.874 83.3706 36.8352 82.431 32.0016C82.1359 30.8982 82.2099 29.7284 82.6416 28.6711C83.1438 27.6546 84.3966 26.9463 85.4442 27.3843C84.969 26.1029 85.7412 24.6809 86.6376 23.6753C88.8302 21.1765 91.866 19.5749 95.1642 19.1769C94.6587 18.8498 94.2444 18.3996 93.96 17.8685C93.8257 17.599 93.7955 17.2894 93.8752 16.999C93.955 16.7087 94.139 16.458 94.392 16.2951C94.6615 16.1897 94.9551 16.1616 95.2398 16.214C96.3136 16.3494 97.3249 16.7946 98.1504 17.4954C97.443 17.1873 97.4052 16.0681 97.983 15.5598C98.2924 15.331 98.6624 15.1987 99.0467 15.1794C99.4309 15.1602 99.8123 15.2549 100.143 15.4517C100.802 15.854 101.372 16.3877 101.817 17.0196C101.751 16.867 101.724 16.7004 101.738 16.5348C101.752 16.3691 101.806 16.2095 101.897 16.0699C101.987 15.9304 102.11 15.8153 102.255 15.7348C102.401 15.6543 102.564 15.6109 102.73 15.6085C103.003 15.6438 103.264 15.7439 103.491 15.9005C106.612 17.7658 108.54 21.3072 108.81 24.9567C108.995 28.6269 107.886 32.2455 105.678 35.1807C103.469 38.0905 100.639 40.4697 97.3944 42.1446C94.824 43.5395 91.5948 44.583 89.0568 43.1178" fill="white"/>
<path d="M89.8938 44.794C89.8563 44.7946 89.8191 44.7872 89.7846 44.7723C89.7502 44.7574 89.7193 44.7353 89.694 44.7075C86.3406 40.9931 83.1114 36.8948 82.1664 32.0558C81.864 30.8917 81.9455 29.6609 82.3986 28.5469C82.6368 28.0508 83.0186 27.6379 83.4944 27.3621C83.9702 27.0863 84.5179 26.9603 85.0662 27.0006C84.834 25.6002 85.7952 24.2323 86.4324 23.497C88.526 21.1146 91.3747 19.5262 94.5 18.9986C94.1591 18.7223 93.8842 18.3732 93.6954 17.9768C93.5303 17.6461 93.4942 17.2658 93.5941 16.9099C93.6939 16.5541 93.9225 16.2482 94.2354 16.052C94.55 15.9233 94.8948 15.8877 95.229 15.9493C95.9436 16.0373 96.6357 16.2573 97.2702 16.5981C97.2567 16.3683 97.2936 16.1383 97.3785 15.9244C97.4634 15.7104 97.5942 15.5178 97.7616 15.3599C98.1127 15.0927 98.535 14.9356 98.9753 14.9087C99.4155 14.8818 99.8538 14.9861 100.235 15.2085C100.721 15.473 101.157 15.8228 101.52 16.2412C101.558 16.1295 101.609 16.0225 101.671 15.9222C101.784 15.7381 101.943 15.587 102.133 15.4844C102.322 15.3819 102.536 15.3314 102.751 15.3383C103.067 15.377 103.368 15.49 103.631 15.6681C106.704 17.5064 108.794 21.0748 109.08 24.9352C109.276 28.6703 108.148 32.3547 105.894 35.3377C103.665 38.2789 100.805 40.681 97.524 42.3664C94.3326 44.0911 91.584 44.5291 89.4564 43.6045C89.667 43.8478 89.883 44.0911 90.099 44.329C90.1243 44.3542 90.1444 44.3841 90.1581 44.417C90.1718 44.4499 90.1789 44.4853 90.1789 44.521C90.1789 44.5567 90.1718 44.592 90.1581 44.6249C90.1444 44.6579 90.1243 44.6878 90.099 44.7129C90.0439 44.7658 89.9702 44.7949 89.8938 44.794ZM89.0514 42.8476C89.0987 42.85 89.1448 42.863 89.1864 42.8854C91.6974 44.3344 94.9644 43.1504 97.2864 41.9068C100.49 40.245 103.282 37.8858 105.457 35.0025C107.627 32.1269 108.719 28.5785 108.54 24.9785C108.259 21.2695 106.272 17.8849 103.345 16.1331C103.154 16.0018 102.937 15.915 102.708 15.879C102.591 15.8842 102.476 15.9176 102.374 15.9763C102.272 16.035 102.186 16.1174 102.122 16.2164C102.059 16.3155 102.02 16.4284 102.009 16.5456C101.998 16.6628 102.016 16.781 102.06 16.89C102.092 16.9493 102.101 17.0187 102.084 17.084C102.067 17.1493 102.025 17.2056 101.968 17.2415C101.913 17.2792 101.845 17.2946 101.779 17.2846C101.713 17.2746 101.653 17.2398 101.612 17.1874C101.183 16.5894 100.642 16.0807 100.019 15.6897C99.734 15.5214 99.4066 15.4389 99.0761 15.4524C98.7456 15.4658 98.4261 15.5745 98.1558 15.7654C98.036 15.8833 97.9464 16.0285 97.8947 16.1885C97.8429 16.3486 97.8306 16.5187 97.8588 16.6846C97.8779 16.8084 97.924 16.9266 97.9938 17.0306C98.1018 17.1117 98.2152 17.1982 98.3178 17.2901C98.3673 17.3313 98.4001 17.3892 98.41 17.4529C98.42 17.5166 98.4064 17.5818 98.3718 17.6362C98.3373 17.6904 98.285 17.731 98.2239 17.7507C98.1627 17.7705 98.0966 17.7682 98.037 17.7443C97.8722 17.6698 97.7263 17.5589 97.6104 17.4199C96.8972 16.9135 96.0697 16.5921 95.202 16.4845C94.9692 16.4395 94.7285 16.4581 94.5054 16.5386C94.3159 16.6712 94.1805 16.8677 94.124 17.0921C94.0674 17.3165 94.0936 17.5538 94.1976 17.7605C94.4727 18.2468 94.8619 18.6588 95.3316 18.9608C95.3739 18.9939 95.4057 19.0386 95.423 19.0895C95.4402 19.1404 95.4423 19.1953 95.4288 19.2474C95.4154 19.3001 95.3857 19.3472 95.344 19.3822C95.3024 19.4171 95.2508 19.438 95.1966 19.442C91.9665 19.8393 88.9942 21.4091 86.8428 23.8539C86.211 24.5784 85.2228 25.9895 85.7034 27.2925C85.7216 27.3423 85.7248 27.3963 85.7126 27.4478C85.7004 27.4993 85.6734 27.5462 85.6348 27.5824C85.5963 27.6187 85.548 27.6429 85.4958 27.6519C85.4437 27.6609 85.3901 27.6544 85.3416 27.6331C84.4236 27.2439 83.3112 27.9305 82.89 28.7902C82.4688 29.6498 82.4364 30.5852 82.701 31.9531C83.5002 36.0622 86.0328 39.6576 88.857 42.9395C88.881 42.9112 88.9107 42.8883 88.9442 42.8724C88.9778 42.8566 89.0143 42.8481 89.0514 42.8476Z" fill="#231F20"/>
<path d="M142.231 126.208H92.0106C91.53 121.672 91.1736 118.601 91.1736 118.601L139.19 109.199C139.52 111.497 140.643 117.725 142.231 126.208Z" fill="#231F20"/>
<path d="M142.231 126.446H92.0106C91.952 126.446 91.8953 126.425 91.8514 126.386C91.8076 126.347 91.7796 126.293 91.773 126.235C91.2978 121.748 90.9414 118.666 90.936 118.628C90.9295 118.568 90.946 118.508 90.9821 118.46C91.0182 118.412 91.0712 118.379 91.1304 118.368L139.147 108.966C139.178 108.958 139.21 108.958 139.241 108.964C139.272 108.971 139.301 108.984 139.325 109.004C139.352 109.023 139.375 109.047 139.393 109.075C139.411 109.103 139.422 109.134 139.428 109.166C139.747 111.383 140.8 117.276 142.468 126.165C142.475 126.199 142.475 126.234 142.466 126.268C142.458 126.302 142.442 126.333 142.42 126.36C142.397 126.387 142.368 126.41 142.335 126.425C142.302 126.44 142.267 126.447 142.231 126.446ZM92.2212 125.97H141.944C140.362 117.525 139.342 111.848 138.985 109.48L91.4274 118.806C91.5192 119.558 91.827 122.272 92.2212 125.97Z" fill="#231F20"/>
<path d="M117.239 36.7701C117.239 36.7701 118.541 40.0142 122.704 43.3501L126.176 39.6033L119.237 30.7092L117.239 36.7701Z" fill="white"/>
<path d="M122.704 43.6533C122.643 43.6525 122.584 43.6316 122.537 43.5938C118.368 40.2524 117.045 37.0355 116.991 36.9003C116.969 36.8391 116.969 36.7722 116.991 36.7111L118.989 30.6555C119.004 30.6086 119.032 30.5666 119.069 30.5342C119.106 30.5018 119.151 30.4802 119.2 30.4717C119.248 30.4618 119.297 30.4656 119.343 30.4828C119.389 30.5001 119.429 30.5299 119.459 30.569L126.387 39.436C126.429 39.485 126.452 39.5473 126.452 39.6118C126.452 39.6762 126.429 39.7385 126.387 39.7875L122.92 43.5397C122.895 43.5737 122.862 43.6015 122.825 43.6212C122.788 43.6409 122.746 43.6518 122.704 43.6533ZM117.526 36.7868C117.763 37.3274 119.146 40.1227 122.677 43.0099L125.82 39.5874L119.34 31.2773L117.526 36.7868Z" fill="#231F20"/>
<path d="M125.464 36.5435C125.464 36.5435 118.606 42.1448 119.34 43.41C120.074 44.6751 129.805 51.7255 129.811 51.7255C128.99 51.1361 125.707 51.7255 124.767 51.7255C120.447 51.8228 116.15 52.0859 111.877 52.5148C105.855 53.0962 99.8729 54.0295 93.96 55.3101C91.5948 55.8508 87.7068 56.067 85.6494 57.3376C83.592 58.6082 84.159 60.3708 84.7584 62.7011C85.023 63.7283 85.2984 64.7664 85.5144 65.8045C89.4186 82.9924 89.748 101.051 91.1682 118.601C91.1682 118.601 126.911 119.682 141.35 110.285L133.38 69.3567C133.38 69.3567 161.795 71.5951 164.7 60.7493C167.605 49.9034 125.464 36.5435 125.464 36.5435Z" fill="#F14736"/>
<path d="M107.816 48.9841L110.241 57.0942C110.241 57.0942 110.3 61.1114 104.512 61.479C98.7228 61.8467 96.7734 58.3756 96.7734 58.3756L92.7936 43.1125C92.7936 43.1125 95.4666 39.7603 91.611 31.4394C91.611 31.4394 100.726 31.4394 108.421 27.925C108.421 27.925 111.575 37.7166 112.201 42.096C112.828 46.4754 107.816 48.9841 107.816 48.9841Z" fill="white"/>
<path d="M103.68 61.7656C98.4528 61.7656 96.66 58.6351 96.5574 58.5215C96.5536 58.5001 96.5536 58.4781 96.5574 58.4567L92.5722 43.1881C92.5624 43.147 92.5622 43.1041 92.5715 43.0629C92.5809 43.0216 92.5996 42.9831 92.6262 42.9502C92.6262 42.9178 95.1318 39.5981 91.4058 31.5637C91.3881 31.5222 91.3809 31.4769 91.3848 31.4319C91.3886 31.3869 91.4035 31.3435 91.428 31.3056C91.4526 31.2677 91.486 31.2364 91.5255 31.2145C91.5649 31.1926 91.6091 31.1807 91.6542 31.1799C91.7406 31.1799 100.802 31.1258 108.356 27.6871C108.391 27.6711 108.429 27.6628 108.467 27.6628C108.505 27.6628 108.543 27.6711 108.578 27.6871C108.612 27.7025 108.643 27.7249 108.668 27.7529C108.693 27.7808 108.712 27.8136 108.724 27.8493C108.756 27.9521 111.888 37.7166 112.504 42.069C113.092 46.0753 109.112 48.6057 108.184 49.1463L110.543 57.0347C110.549 57.0597 110.549 57.0854 110.543 57.1104C110.543 57.1536 110.543 61.3871 104.56 61.7656C104.22 61.7547 103.934 61.7656 103.68 61.7656ZM97.0272 58.2512C97.2324 58.5972 99.1872 61.5277 104.49 61.1925C109.723 60.8626 109.96 57.5267 109.971 57.1212L107.557 49.0598C107.539 48.9986 107.544 48.933 107.569 48.8746C107.595 48.8163 107.64 48.7689 107.698 48.7408C107.746 48.7408 112.558 46.2483 111.947 42.1176C111.38 38.2248 108.783 29.9201 108.259 28.2711C101.585 31.2231 93.879 31.6232 92.0268 31.6773C95.337 39.0574 93.5226 42.4907 93.1068 43.1449L97.0272 58.2512Z" fill="#231F20"/>
<path d="M95.2074 41.8743C94.7962 41.189 94.1722 40.6573 93.4308 40.3604C92.7369 40.116 92.0064 39.9917 91.2708 39.9928C90.8653 39.9502 90.4555 40.0001 90.072 40.1388C89.8127 40.2736 89.5817 40.4572 89.3916 40.6794C88.8978 41.1454 88.5858 41.7721 88.5114 42.4474C88.5189 42.994 88.6598 43.5304 88.9218 44.01C89.1591 44.5532 89.4679 45.0624 89.8398 45.5238C90.2226 45.976 90.6915 46.3475 91.2191 46.6166C91.7466 46.8858 92.3224 47.0471 92.9128 47.0914C93.5033 47.1357 94.0966 47.062 94.6583 46.8745C95.22 46.6871 95.7389 46.3897 96.1848 45.9996" fill="white"/>
<path d="M93.2202 47.3513C93.1014 47.3513 92.988 47.3513 92.8692 47.3513C91.6122 47.2499 90.4468 46.6529 89.6292 45.6915C89.2403 45.2122 88.9171 44.6831 88.668 44.1181C88.3925 43.5981 88.2445 43.0199 88.236 42.4312C88.3104 41.6885 88.6498 40.9974 89.1918 40.4848C89.407 40.2448 89.6676 40.05 89.9586 39.9117C90.3785 39.7525 90.8296 39.6933 91.2762 39.7387C92.0503 39.7359 92.8192 39.8658 93.5496 40.1226C94.3428 40.4437 95.0114 41.0126 95.4558 41.7446C95.4744 41.7751 95.4868 41.8089 95.4923 41.8443C95.4978 41.8796 95.4962 41.9156 95.4876 41.9503C95.4791 41.985 95.4638 42.0176 95.4426 42.0464C95.4213 42.0751 95.3947 42.0993 95.364 42.1177C95.3022 42.1539 95.2287 42.1645 95.1591 42.1474C95.0895 42.1302 95.0294 42.0866 94.9914 42.0257C94.6162 41.3951 94.0482 40.9022 93.3714 40.62C92.6971 40.3887 91.989 40.2718 91.2762 40.274C90.9115 40.233 90.5422 40.2756 90.1962 40.3983C89.971 40.5126 89.7694 40.6685 89.6022 40.8579C89.1562 41.2769 88.8714 41.8395 88.7976 42.4475C88.8106 42.9504 88.9419 43.4432 89.181 43.8856C89.4072 44.4077 89.7053 44.8954 90.0666 45.3346C90.797 46.1866 91.8328 46.7167 92.9502 46.8107C93.5048 46.8516 94.062 46.7818 94.5894 46.6055C95.1168 46.4291 95.6041 46.1497 96.0228 45.7834C96.0475 45.7582 96.0769 45.7382 96.1093 45.7246C96.1418 45.7109 96.1766 45.7039 96.2118 45.7039C96.247 45.7039 96.2819 45.7109 96.3143 45.7246C96.3468 45.7382 96.3762 45.7582 96.4008 45.7834C96.4261 45.8085 96.4462 45.8384 96.4599 45.8714C96.4736 45.9043 96.4807 45.9396 96.4807 45.9753C96.4807 46.011 96.4736 46.0464 96.4599 46.0793C96.4462 46.1122 96.4261 46.1421 96.4008 46.1673C95.521 46.9382 94.3894 47.3595 93.2202 47.3513Z" fill="#231F20"/>
<path d="M106.321 35.5754C106.321 35.5754 110.565 38.7762 110.155 39.7278C109.744 40.6794 107.719 40.8578 107.719 40.8578" fill="white"/>
<path d="M107.719 41.1282C107.652 41.1271 107.588 41.101 107.539 41.055C107.49 41.009 107.46 40.9464 107.455 40.8795C107.451 40.8442 107.454 40.8086 107.465 40.7747C107.475 40.7408 107.492 40.7093 107.514 40.6821C107.537 40.6549 107.565 40.6325 107.596 40.6162C107.628 40.6 107.662 40.5902 107.698 40.5875C108.238 40.5443 109.625 40.2847 109.906 39.6251C110.084 39.2196 108.329 37.43 106.159 35.7918C106.13 35.7705 106.106 35.7438 106.088 35.7132C106.07 35.6827 106.058 35.6489 106.053 35.6137C106.048 35.5786 106.05 35.5428 106.059 35.5084C106.068 35.474 106.083 35.4417 106.105 35.4133C106.126 35.3849 106.152 35.361 106.183 35.3429C106.214 35.3248 106.247 35.3129 106.282 35.3079C106.317 35.3029 106.353 35.3048 106.388 35.3136C106.422 35.3224 106.454 35.3379 106.483 35.3592C107.811 36.3595 110.851 38.7979 110.403 39.836C109.955 40.8741 107.968 41.1066 107.746 41.1228L107.719 41.1282Z" fill="#231F20"/>
<path d="M99.7434 34.705C99.7434 34.705 100.678 32.2017 102.865 33.7643L99.7434 34.705Z" fill="white"/>
<path d="M99.7434 35.0024H99.6462C99.6127 34.9899 99.5821 34.9707 99.556 34.9462C99.53 34.9217 99.5091 34.8922 99.4945 34.8595C99.48 34.8268 99.472 34.7915 99.4712 34.7557C99.4703 34.72 99.4766 34.6843 99.4896 34.651C99.6142 34.297 99.8111 33.9728 100.068 33.6991C100.324 33.4254 100.635 33.2083 100.98 33.0614C101.332 32.9756 101.699 32.975 102.051 33.0596C102.403 33.1442 102.73 33.3117 103.005 33.548C103.062 33.5911 103.1 33.6547 103.111 33.7253C103.122 33.7959 103.105 33.868 103.064 33.9265C103.022 33.9832 102.96 34.0211 102.89 34.0322C102.821 34.0433 102.749 34.0267 102.692 33.986C102.483 33.8021 102.234 33.6693 101.965 33.598C101.696 33.5267 101.414 33.5189 101.142 33.5751C100.877 33.6928 100.637 33.8619 100.437 34.0725C100.237 34.2831 100.08 34.5311 99.9756 34.8024C99.9631 34.8561 99.9339 34.9045 99.8922 34.9404C99.8504 34.9764 99.7983 34.9981 99.7434 35.0024Z" fill="#231F20"/>
<path d="M105.57 33.0394C105.57 33.0394 105.883 31.4714 108.27 32.6176L105.57 33.0394Z" fill="white"/>
<path d="M105.57 33.3048H105.511C105.476 33.2977 105.444 33.284 105.415 33.2644C105.387 33.2448 105.362 33.2197 105.343 33.1906C105.324 33.1615 105.311 33.1289 105.304 33.0947C105.298 33.0605 105.298 33.0253 105.305 32.9912C105.352 32.8002 105.439 32.6216 105.561 32.4676C105.684 32.3136 105.838 32.1879 106.013 32.0991C106.596 31.8072 107.395 31.9045 108.389 32.3803C108.454 32.4111 108.504 32.4666 108.528 32.5345C108.553 32.6025 108.549 32.6773 108.518 32.7425C108.488 32.8078 108.432 32.8581 108.364 32.8824C108.296 32.9068 108.222 32.9031 108.157 32.8723C107.336 32.4776 106.677 32.3749 106.261 32.5803C106.154 32.6329 106.061 32.7088 105.987 32.8023C105.913 32.8959 105.861 33.0047 105.835 33.121C105.815 33.1756 105.779 33.2227 105.732 33.2557C105.684 33.2887 105.628 33.3059 105.57 33.3048Z" fill="#231F20"/>
<path d="M107.816 48.9841C107.816 48.9841 103.588 50.1574 101.304 49.5248C101.304 49.5248 104.269 53.915 109.199 53.8502L107.816 48.9841Z" fill="#231F20"/>
<path d="M109.118 54.1526C104.15 54.1526 101.207 49.8759 101.083 49.692C101.051 49.6479 101.034 49.595 101.034 49.5407C101.034 49.4863 101.051 49.4334 101.083 49.3893C101.114 49.3444 101.158 49.31 101.209 49.2907C101.26 49.2714 101.316 49.2681 101.369 49.2811C103.556 49.8705 107.698 48.7405 107.741 48.7405C107.81 48.7222 107.883 48.7319 107.944 48.7673C108.006 48.8027 108.051 48.8611 108.07 48.9297L109.453 53.7957C109.463 53.8361 109.465 53.8784 109.457 53.9195C109.45 53.9606 109.434 53.9995 109.409 54.0336C109.384 54.0666 109.351 54.0934 109.314 54.1121C109.276 54.1308 109.235 54.141 109.193 54.1418L109.118 54.1526ZM101.952 49.9353C102.897 51.0491 105.343 53.4821 108.842 53.6065L107.627 49.3136C106.769 49.5353 103.982 50.1787 101.952 49.9353Z" fill="#231F20"/>
<path d="M143.046 12.678L106.92 44.9181L150.93 30.5309L143.046 12.678Z" fill="white"/>
<path d="M106.92 45.1885C106.873 45.1871 106.826 45.1734 106.785 45.1488C106.745 45.1242 106.711 45.0894 106.688 45.0479C106.656 44.9945 106.644 44.9318 106.654 44.8705C106.664 44.8092 106.695 44.7534 106.742 44.7127L142.862 12.4779C142.894 12.4494 142.932 12.4287 142.974 12.4174C143.015 12.4062 143.058 12.4047 143.1 12.4131C143.142 12.4211 143.182 12.4396 143.215 12.4671C143.248 12.4945 143.273 12.5299 143.289 12.5699L151.178 30.412C151.194 30.4458 151.203 30.4827 151.203 30.5201C151.203 30.5575 151.194 30.5944 151.178 30.6282C151.163 30.6625 151.141 30.6932 151.113 30.7183C151.085 30.7435 151.052 30.7625 151.016 30.7742L107.006 45.1614C106.98 45.1758 106.95 45.185 106.92 45.1885ZM142.949 13.1267L108.065 44.2585L150.563 30.3633L142.949 13.1267Z" fill="#231F20"/>
<path d="M117.239 36.7705C119.399 36.5055 121.77 34.3212 121.559 31.9801C121.327 28.947 118.454 30.277 117.126 31.7801C116.397 32.6073 114.637 35.5269 115.803 36.4893C116.011 36.6311 116.245 36.7292 116.492 36.7775C116.739 36.8258 116.993 36.8234 117.239 36.7705Z" fill="white"/>
<path d="M116.856 37.0677C116.426 37.0898 116.003 36.9574 115.663 36.6946C115.517 36.5718 115.399 36.4198 115.317 36.2484C115.234 36.077 115.188 35.8901 115.182 35.6998C115.074 34.3643 116.3 32.3368 116.953 31.6015C117.898 30.5202 119.524 29.5902 120.663 29.9795C121.149 30.1471 121.743 30.6229 121.856 31.9692C122.056 34.4941 119.551 36.7757 117.272 37.0515C117.134 37.0644 116.995 37.0698 116.856 37.0677ZM120.096 30.4228C119.227 30.4228 118.071 31.1527 117.358 31.9583C116.737 32.6612 115.63 34.5481 115.738 35.6565C115.74 35.7744 115.767 35.8905 115.816 35.9976C115.865 36.1046 115.936 36.2002 116.024 36.2783C116.199 36.3958 116.396 36.4761 116.603 36.5142C116.811 36.5523 117.023 36.5475 117.229 36.5C119.232 36.2621 121.511 34.2021 121.343 32.0016C121.273 31.1581 120.998 30.6445 120.512 30.4823C120.377 30.4407 120.237 30.4206 120.096 30.4228Z" fill="#231F20"/>
<path d="M104.841 43.2476C104.841 43.2476 108.173 44.0802 107.233 46.6862L104.841 43.2476Z" fill="white"/>
<path d="M107.233 46.9564C107.203 46.9616 107.172 46.9616 107.141 46.9564C107.074 46.932 107.019 46.8819 106.989 46.817C106.958 46.7521 106.955 46.6778 106.979 46.6104C107.091 46.3529 107.144 46.0738 107.134 45.7933C107.125 45.5129 107.054 45.238 106.925 44.9884C106.385 43.9071 104.792 43.5124 104.765 43.5124C104.696 43.4945 104.636 43.4499 104.598 43.3883C104.561 43.3266 104.549 43.2528 104.565 43.1826C104.574 43.1481 104.59 43.1157 104.611 43.0873C104.632 43.0588 104.659 43.0349 104.69 43.0168C104.72 42.9987 104.754 42.9868 104.789 42.9819C104.825 42.9769 104.86 42.979 104.895 42.9879C104.97 42.9879 106.709 43.4529 107.39 44.7343C107.553 45.0478 107.645 45.3934 107.66 45.7465C107.675 46.0997 107.612 46.4518 107.476 46.778C107.459 46.8294 107.427 46.8742 107.383 46.9062C107.34 46.9382 107.287 46.9558 107.233 46.9564Z" fill="#231F20"/>
<path d="M150.927 30.5165C153.62 29.5084 154.258 24.5555 152.353 19.4539C150.448 14.3523 146.721 11.0338 144.028 12.0419C141.335 13.05 140.696 18.0029 142.602 23.1045C144.507 28.2061 148.234 31.5246 150.927 30.5165Z" fill="#231F20"/>
<path d="M149.936 30.9743C147.269 30.9743 144.067 27.8006 142.376 23.2103C140.422 17.9766 141.134 12.8564 143.959 11.7967C145.363 11.2561 147.037 11.7967 148.689 13.2674C150.466 14.9615 151.817 17.0535 152.631 19.3715C153.536 21.6554 153.888 24.1216 153.657 26.5678C153.371 28.763 152.447 30.2606 151.049 30.7796C150.694 30.9145 150.316 30.9806 149.936 30.9743ZM145.076 12.1374C144.759 12.135 144.444 12.1918 144.148 12.305C141.599 13.2565 141.032 18.0631 142.879 23.021C144.725 27.979 148.284 31.2176 150.838 30.2768C152.042 29.8281 152.847 28.4872 153.101 26.4921C153.321 24.1333 152.979 21.7557 152.102 19.5553C151.326 17.3189 150.03 15.2991 148.322 13.662C147.182 12.6618 146.054 12.1374 145.055 12.1374H145.076Z" fill="#231F20"/>
<path d="M144.488 62.7982C144.445 62.797 144.402 62.7859 144.364 62.7658C134.044 57.3915 122.153 46.1618 122.035 46.0483C122.01 46.0236 121.99 45.9942 121.976 45.9617C121.962 45.9292 121.955 45.8943 121.955 45.859C121.955 45.8238 121.962 45.7889 121.976 45.7564C121.99 45.7239 122.01 45.6945 122.035 45.6698C122.06 45.6445 122.09 45.6244 122.123 45.6106C122.155 45.5969 122.191 45.5898 122.226 45.5898C122.262 45.5898 122.297 45.5969 122.33 45.6106C122.363 45.6244 122.393 45.6445 122.418 45.6698C122.537 45.7834 134.374 56.959 144.623 62.2954C144.655 62.3114 144.684 62.3338 144.707 62.361C144.731 62.3883 144.748 62.42 144.759 62.4542C144.771 62.4885 144.775 62.5246 144.772 62.5604C144.769 62.5963 144.758 62.6312 144.742 62.6631C144.716 62.7068 144.679 62.7426 144.634 62.7664C144.589 62.7903 144.538 62.8013 144.488 62.7982Z" fill="#231F20"/>
<path d="M138.78 97.3631C138.717 97.3639 138.655 97.342 138.607 97.3014C138.558 97.2607 138.526 97.2039 138.515 97.1414L132.219 63.3874C132.206 63.3172 132.222 63.2448 132.263 63.186C132.303 63.1273 132.365 63.0869 132.435 63.0738C132.47 63.0668 132.506 63.0669 132.54 63.074C132.575 63.0812 132.608 63.0953 132.637 63.1154C132.667 63.1356 132.692 63.1615 132.711 63.1915C132.73 63.2215 132.742 63.255 132.748 63.2901L139.039 97.0441C139.052 97.1143 139.036 97.1867 138.996 97.2455C138.955 97.3042 138.893 97.3445 138.823 97.3577L138.78 97.3631Z" fill="#231F20"/>
<path d="M106.045 61.2627L103.388 64.8636L106.034 66.4856L109.458 99.9801L116.608 103.738L119.756 96.6658L108.205 66.0314L109.507 63.6633L106.045 61.2627Z" fill="#231F20"/>
<path d="M116.608 104.003C116.565 104.002 116.523 103.993 116.483 103.976L109.334 100.218C109.295 100.197 109.261 100.167 109.236 100.13C109.21 100.094 109.194 100.051 109.188 100.007L105.781 66.6478L103.248 65.0907C103.216 65.072 103.189 65.0462 103.168 65.0153C103.147 64.9843 103.134 64.9491 103.129 64.9122C103.121 64.876 103.121 64.8385 103.128 64.8022C103.136 64.7659 103.151 64.7315 103.172 64.7014L105.829 61.1005C105.872 61.045 105.935 61.0079 106.004 60.9968C106.073 60.9858 106.144 61.0016 106.202 61.041L109.658 63.4416C109.712 63.4799 109.75 63.537 109.765 63.6018C109.78 63.6667 109.771 63.7348 109.739 63.793L108.502 66.053L120.01 96.5739C120.034 96.6383 120.034 96.7095 120.01 96.7739L116.856 103.846C116.841 103.879 116.819 103.91 116.792 103.935C116.766 103.96 116.734 103.979 116.699 103.992L116.608 104.003ZM109.712 99.8071L116.478 103.365L119.464 96.6604L107.957 66.1287C107.939 66.0944 107.93 66.0564 107.93 66.0179C107.93 65.9794 107.939 65.9414 107.957 65.9071L109.139 63.7444L106.099 61.6304L103.772 64.7879L106.164 66.2585C106.199 66.2803 106.229 66.3095 106.251 66.3441C106.273 66.3787 106.288 66.4177 106.294 66.4585L109.712 99.8071Z" fill="#231F20"/>
<path d="M96.41 64.2909L36.7422 80.7241L47.6053 120.265L107.273 103.832L96.41 64.2909Z" fill="white"/>
<path d="M47.601 120.536C47.5417 120.538 47.4836 120.519 47.4358 120.484C47.3879 120.449 47.353 120.399 47.3364 120.342L36.477 80.7971C36.4588 80.7283 36.4684 80.6551 36.5038 80.5933C36.5392 80.5316 36.5975 80.4863 36.666 80.4673L96.336 64.0364C96.4022 64.012 96.475 64.012 96.5412 64.0364C96.6039 64.0715 96.6504 64.1297 96.6708 64.1986L107.53 103.743C107.548 103.812 107.539 103.885 107.503 103.947C107.468 104.009 107.41 104.054 107.341 104.073L47.6712 120.531L47.601 120.536ZM37.071 80.9161L47.79 119.936L106.92 103.667L96.2172 64.6311L37.071 80.9161Z" fill="#231F20"/>
<path d="M79.8282 111.642C79.8282 111.642 79.947 112.821 78.2892 113.978C76.6314 115.135 71.2314 116.644 70.0758 116.07C68.5648 115.4 67.2868 114.295 66.4038 112.897C65.4642 111.237 64.2438 109.144 64.8864 108.35C65.529 107.555 66.8358 108.782 68.3478 111.377C68.3478 111.377 66.474 106.69 67.6242 106.398C68.7744 106.106 69.5736 107.317 71.1558 109.566C71.1558 109.566 69.1416 104.619 70.6536 104.646C72.1656 104.673 75.4812 110.226 75.4812 109.934C75.4812 109.642 73.5372 104.884 75.195 105.749C76.8528 106.614 78.1488 111.523 78.1488 111.523L79.8282 111.642Z" fill="white"/>
<path d="M70.8804 116.465C70.5648 116.482 70.2493 116.429 69.957 116.308C68.399 115.615 67.0829 114.472 66.177 113.026L66.0744 112.842C65.0754 111.08 63.9468 109.085 64.692 108.176C64.7781 108.061 64.8923 107.97 65.0237 107.911C65.1551 107.852 65.2993 107.828 65.4426 107.841C65.9826 107.884 66.6414 108.414 67.3974 109.415C67.0842 108.333 66.8574 107.073 67.1274 106.506C67.1696 106.416 67.2312 106.336 67.3078 106.272C67.3843 106.209 67.4739 106.163 67.5702 106.138C68.5692 105.889 69.2928 106.544 70.2702 107.847C69.9138 106.668 69.6276 105.278 70.0326 104.695C70.1016 104.59 70.1967 104.506 70.3086 104.45C70.4204 104.394 70.545 104.368 70.6698 104.376C71.7498 104.376 73.305 106.419 74.7522 108.479C74.2554 106.857 74.088 105.857 74.5092 105.5C74.6442 105.381 74.9034 105.289 75.33 105.5C76.9014 106.322 78.1056 110.323 78.3702 111.258L79.8606 111.361C79.924 111.366 79.9837 111.393 80.0291 111.437C80.0746 111.482 80.1029 111.541 80.109 111.604C80.109 111.658 80.2224 112.956 78.4566 114.189C77.0796 115.151 72.954 116.465 70.8804 116.465ZM65.3616 108.355C65.3098 108.357 65.2591 108.371 65.2133 108.395C65.1675 108.419 65.1278 108.454 65.097 108.495C64.5894 109.117 65.7612 111.199 66.5334 112.556L66.636 112.74C67.4954 114.092 68.7356 115.158 70.2 115.805C71.172 116.292 76.437 114.919 78.138 113.735C78.4846 113.534 78.7877 113.266 79.0297 112.947C79.2717 112.627 79.4477 112.263 79.5474 111.875L78.1272 111.772C78.0716 111.766 78.019 111.744 77.9758 111.708C77.9326 111.673 77.9008 111.625 77.8842 111.572C77.5332 110.236 76.3398 106.636 75.0654 105.971C74.9984 105.924 74.9198 105.898 74.8386 105.895C74.709 106.025 74.7198 106.7 75.5352 109.139C75.636 109.384 75.7085 109.64 75.7512 109.901C75.751 109.961 75.7321 110.019 75.6973 110.068C75.6624 110.116 75.6133 110.152 75.5568 110.172C75.33 110.242 75.3084 110.204 74.6442 109.252C73.818 108.057 71.6202 104.927 70.6482 104.884C70.6133 104.88 70.578 104.886 70.5459 104.9C70.5137 104.915 70.4857 104.937 70.4646 104.965C70.0866 105.506 70.7886 107.912 71.4096 109.431C71.4345 109.492 71.4355 109.561 71.4125 109.623C71.3895 109.685 71.3442 109.736 71.2854 109.766C71.2283 109.799 71.1608 109.809 71.0966 109.794C71.0324 109.779 70.9763 109.74 70.9398 109.685L70.7508 109.42C69.2334 107.257 68.5908 106.408 67.6944 106.63C67.662 106.63 67.6296 106.63 67.5972 106.717C67.2678 107.365 68.0346 109.836 68.5962 111.247C68.6152 111.309 68.6114 111.376 68.5856 111.435C68.5598 111.494 68.5137 111.542 68.4556 111.57C68.3975 111.598 68.3313 111.605 68.2689 111.588C68.2066 111.572 68.1522 111.533 68.1156 111.48C66.4578 108.641 65.61 108.366 65.4156 108.349L65.3616 108.355Z" fill="#231F20"/>
<path d="M57.996 85.0742L59.8266 84.5335L63.6066 88.0478L62.397 83.7928L63.747 83.4143L65.4804 89.5347L63.72 90.0375L59.8158 86.4367L61.0524 90.7944L59.7024 91.1783L57.996 85.0742Z" fill="#D1D3D4"/>
<path d="M65.0916 83.0571L69.2442 81.8784L69.5952 83.122L66.7872 83.9222L67.1112 85.063L69.768 84.3114L70.119 85.555L67.4676 86.3065L67.8186 87.5555L70.7832 86.712L71.1342 87.9556L66.8142 89.1829L65.0916 83.0571Z" fill="#D1D3D4"/>
<path d="M69.8381 81.711L71.3069 81.2893L73.3967 84.9388L73.5641 80.6513L74.8169 80.2945L77.2307 83.9656L77.1119 79.6403L78.4781 79.251L78.4295 85.885L77.2253 86.2256L74.6765 82.3706L74.5307 86.9934L73.3751 87.3232L69.8381 81.711Z" fill="#D1D3D4"/>
<path d="M51.9587 99.726C51.7815 99.6032 51.5781 99.5236 51.3647 99.4935C51.1274 99.4633 50.8863 99.4836 50.6573 99.553C50.4135 99.6216 50.1871 99.7414 49.9931 99.9044C49.808 100.061 49.6572 100.254 49.5503 100.472C49.4397 100.703 49.3737 100.952 49.3559 101.207C49.3365 101.485 49.3676 101.763 49.4477 102.029C49.5189 102.3 49.6398 102.555 49.8041 102.781C49.9474 102.994 50.1308 103.178 50.3441 103.321C50.5444 103.455 50.7709 103.543 51.0083 103.581C51.2484 103.619 51.4938 103.602 51.7265 103.532C51.9783 103.47 52.2098 103.343 52.3989 103.165C52.588 102.987 52.7284 102.764 52.8065 102.516L54.1673 103.057C54.0202 103.48 53.7585 103.854 53.4113 104.138C53.0735 104.417 52.682 104.623 52.2611 104.743C51.8114 104.877 51.3413 104.928 50.8733 104.895C50.4452 104.866 50.0278 104.748 49.6475 104.549C49.2608 104.331 48.927 104.03 48.6701 103.668C48.3882 103.299 48.1809 102.878 48.0599 102.429C47.924 101.976 47.8781 101.5 47.9249 101.029C47.9707 100.602 48.107 100.189 48.3245 99.8179C48.5441 99.4462 48.8383 99.124 49.1885 98.8718C49.5637 98.5937 49.9864 98.3866 50.4359 98.2608C50.6129 98.2122 50.7935 98.1778 50.9759 98.1581C51.1733 98.1364 51.3725 98.1364 51.5699 98.1581C51.7757 98.1755 51.9787 98.2173 52.1747 98.2824C52.3678 98.3556 52.5496 98.4557 52.7147 98.5798L51.9587 99.726Z" fill="#D1D3D4"/>
<path d="M55.4364 97.0172L56.5488 96.7036L60.9444 102.067L59.427 102.5L58.5306 101.353L56.16 102.045L56.0196 103.489L54.5346 103.911L55.4364 97.0172ZM56.457 98.6392L56.2572 100.753L57.7476 100.326L56.457 98.6392Z" fill="#D1D3D4"/>
<path d="M59.8211 95.7737L61.8623 95.1897L64.4003 98.7852L64.6811 94.3895L66.7115 93.811L68.4503 99.9368L67.1003 100.315L65.7665 95.6223L65.4911 100.775L64.4651 101.067L61.5869 96.8118L62.9099 101.505L61.5599 101.889L59.8211 95.7737Z" fill="#D1D3D4"/>
<path d="M67.9752 93.454L70.2486 92.8052C70.5503 92.7197 70.8595 92.6636 71.172 92.6376C71.4486 92.6134 71.7273 92.6428 71.9928 92.7241C72.2465 92.8111 72.4748 92.9597 72.657 93.1567C72.8702 93.4002 73.022 93.6912 73.0998 94.0055C73.1983 94.3107 73.226 94.6343 73.1808 94.9517C73.1385 95.214 73.0308 95.4613 72.8676 95.6708C72.6959 95.8815 72.4827 96.0545 72.2412 96.179C71.9632 96.3262 71.6698 96.4422 71.3664 96.525L70.3836 96.8062L71.0586 99.1905L69.714 99.5744L67.9752 93.454ZM70.0596 95.6654L70.956 95.4059C71.074 95.3758 71.1881 95.3323 71.2962 95.2761C71.3979 95.2246 71.4894 95.155 71.5662 95.0707C71.6414 94.9905 71.6937 94.8915 71.7174 94.7841C71.7492 94.6599 71.7492 94.5298 71.7174 94.4056C71.6831 94.2706 71.6076 94.1497 71.5014 94.0596C71.4021 93.9831 71.285 93.9329 71.1612 93.9136C71.027 93.8923 70.8904 93.8923 70.7562 93.9136C70.621 93.9347 70.4874 93.9655 70.3566 94.0055L69.6654 94.2002L70.0596 95.6654Z" fill="#D1D3D4"/>
<path d="M74.79 91.5133L75.9078 91.1997L80.3034 96.5631L78.7806 96.9957L77.8842 95.8495L75.5136 96.5253L75.3678 97.9689L73.8828 98.3906L74.79 91.5133ZM75.816 93.1353L75.6108 95.2493L77.1066 94.8222L75.816 93.1353Z" fill="#D1D3D4"/>
<path d="M79.1641 90.275L80.5087 89.8911L82.2475 96.0115L80.8975 96.3954L79.1641 90.275Z" fill="#D1D3D4"/>
<path d="M88.884 93.6596C88.5512 93.9756 88.1769 94.2448 87.7716 94.4598C87.3618 94.6744 86.9311 94.8465 86.4864 94.9734C86.0385 95.1072 85.5701 95.1585 85.104 95.1248C84.6741 95.0958 84.2549 94.978 83.8728 94.7788C83.4937 94.5778 83.1622 94.2975 82.9008 93.957C82.6128 93.5814 82.4001 93.1536 82.2744 92.6972C82.1398 92.2416 82.0958 91.764 82.1448 91.2915C82.1889 90.8636 82.3253 90.4504 82.5444 90.0803C82.7636 89.7115 83.0558 89.3914 83.403 89.1396C83.7834 88.8662 84.2095 88.663 84.6612 88.5394C85.1173 88.4055 85.5899 88.3363 86.0652 88.334C86.5026 88.3334 86.934 88.4372 87.3234 88.6368L86.6646 89.9452C86.4368 89.808 86.183 89.7197 85.9194 89.6857C85.6153 89.6581 85.3088 89.6912 85.0176 89.783C84.7484 89.8563 84.4968 89.9831 84.2778 90.156C84.0776 90.3132 83.9121 90.5102 83.7918 90.7346C83.6733 90.9648 83.6035 91.2169 83.5866 91.4753C83.5719 91.7593 83.6104 92.0435 83.7 92.3133C83.7741 92.5837 83.8967 92.8384 84.0618 93.0649C84.2029 93.2729 84.387 93.4481 84.6018 93.5785C84.8196 93.7089 85.0625 93.7918 85.3146 93.8218C85.5923 93.8519 85.8732 93.8262 86.1408 93.7461C86.3982 93.6764 86.6438 93.5689 86.8698 93.4271C87.0328 93.3281 87.1848 93.2121 87.3234 93.0811L87.0426 92.0862L85.9626 92.3998L85.6062 91.1509L87.9984 90.475L88.884 93.6596Z" fill="#D1D3D4"/>
<path d="M88.4574 87.6312L90.288 87.0906L94.095 90.6103L92.88 86.3661L94.23 85.9822L95.9634 92.1026L94.203 92.6054L90.2988 89.0045L91.5354 93.3623L90.1854 93.7462L88.4574 87.6312Z" fill="#D1D3D4"/>
<path d="M164.5 67.3235C164.399 67.2228 164.262 67.1663 164.12 67.1663C163.977 67.1663 163.84 67.2228 163.739 67.3235C163.259 67.8978 162.941 68.5897 162.816 69.328C162.692 70.0663 162.766 70.8244 163.031 71.5245C163.05 71.593 163.082 71.6572 163.126 71.7133C163.169 71.7695 163.223 71.8164 163.285 71.8516C163.347 71.8867 163.415 71.9094 163.485 71.9182C163.556 71.927 163.627 71.9218 163.696 71.903C163.764 71.8842 163.828 71.8521 163.884 71.8085C163.94 71.7649 163.987 71.7107 164.022 71.6489C164.057 71.5871 164.08 71.519 164.089 71.4485C164.098 71.378 164.092 71.3064 164.074 71.2379C164.018 71.1005 163.971 70.9596 163.933 70.8162C163.933 70.7351 163.895 70.654 163.879 70.5729C163.877 70.5369 163.877 70.5008 163.879 70.4648C163.868 70.3154 163.868 70.1654 163.879 70.016C163.879 69.9403 163.879 69.87 163.879 69.7943C163.879 69.7187 163.879 69.7186 163.879 69.6808C163.878 69.6592 163.878 69.6375 163.879 69.6159C163.9 69.4739 163.929 69.3331 163.966 69.1942C163.966 69.1239 164.009 69.0536 164.036 68.9833C164.063 68.9131 164.106 68.7941 164.079 68.8536C164.14 68.7077 164.212 68.5667 164.295 68.4319C164.333 68.367 164.376 68.3075 164.419 68.2426C164.437 68.2113 164.459 68.1822 164.484 68.1561L164.516 68.1183C164.57 68.0665 164.613 68.0042 164.641 67.9352C164.67 67.8662 164.684 67.792 164.682 67.7173C164.681 67.6427 164.664 67.5691 164.632 67.5013C164.601 67.4335 164.556 67.373 164.5 67.3235Z" fill="#E6E7E8"/>
<path d="M158.296 101.867C157.647 101.204 156.882 100.667 156.038 100.283C155.976 99.9813 155.854 99.6954 155.68 99.4419C155.506 99.1884 155.282 98.9724 155.023 98.8068C153.835 98.0552 152.242 98.4229 150.995 98.8068C150.336 99.0122 150.617 100.061 151.286 99.8449C152.075 99.5383 152.921 99.4109 153.765 99.4718C154.172 99.519 154.545 99.7249 154.802 100.045C154.737 100.045 154.678 100.045 154.613 100.045C154.268 100.06 153.931 100.153 153.628 100.318C153.325 100.483 153.063 100.715 152.863 100.996C152.667 101.263 152.574 101.593 152.603 101.924C152.632 102.254 152.78 102.563 153.02 102.792C154.019 103.646 155.444 102.792 155.882 101.764C155.929 101.652 155.969 101.536 156.001 101.418C156.56 101.75 157.076 102.151 157.534 102.613C158.042 103.127 158.809 102.343 158.296 101.867ZM154.057 102.062C153.743 102.094 153.581 101.937 153.743 101.645C153.858 101.482 154.011 101.35 154.189 101.261C154.367 101.173 154.565 101.13 154.764 101.137C154.832 101.132 154.901 101.132 154.969 101.137C154.925 101.363 154.815 101.57 154.652 101.732C154.49 101.894 154.282 102.003 154.057 102.045V102.062Z" fill="#E6E7E8"/>
<path d="M70.011 121.883L69.9732 121.84L69.8868 121.715L69.7086 121.461C69.5952 121.294 69.4872 121.115 69.39 120.92C69.2928 120.726 69.201 120.553 69.1146 120.38C69.1146 120.38 69.0228 120.196 69.1146 120.331C69.1146 120.288 69.0768 120.234 69.0552 120.191C69.0336 120.147 68.985 119.996 68.9526 119.899C68.9339 119.83 68.9018 119.766 68.8583 119.71C68.8147 119.654 68.7606 119.607 68.6989 119.571C68.6372 119.536 68.5692 119.514 68.4987 119.505C68.4283 119.496 68.3568 119.501 68.2884 119.52C68.2199 119.539 68.1559 119.571 68.0998 119.615C68.0437 119.658 67.9968 119.712 67.9617 119.774C67.9266 119.836 67.904 119.904 67.8952 119.975C67.8864 120.045 67.8916 120.117 67.9104 120.185C68.2178 121.08 68.6783 121.914 69.2712 122.651C69.3724 122.751 69.5092 122.808 69.6519 122.808C69.7946 122.808 69.9314 122.751 70.0326 122.651C70.0836 122.601 70.1242 122.541 70.152 122.475C70.1798 122.409 70.1943 122.338 70.1946 122.267C70.1787 122.122 70.1139 121.986 70.011 121.883Z" fill="#E6E7E8"/>
<path d="M153.479 113.026C153.41 113.007 153.339 113.002 153.268 113.011C153.198 113.02 153.13 113.042 153.068 113.078C153.007 113.113 152.953 113.16 152.909 113.216C152.865 113.272 152.833 113.336 152.815 113.405L152.782 113.48C152.755 113.54 152.728 113.594 152.707 113.648C152.685 113.702 152.593 113.881 152.528 113.994C152.405 114.23 152.27 114.459 152.123 114.681C152.053 114.789 151.978 114.897 151.902 115L151.805 115.129C151.78 115.157 151.756 115.186 151.735 115.216C151.562 115.421 151.384 115.621 151.195 115.811C151.138 115.859 151.092 115.919 151.06 115.986C151.027 116.053 151.009 116.126 151.006 116.2C151.003 116.275 151.016 116.349 151.043 116.419C151.07 116.488 151.111 116.551 151.164 116.604C151.217 116.656 151.28 116.698 151.349 116.725C151.418 116.752 151.492 116.764 151.567 116.762C151.641 116.759 151.714 116.741 151.781 116.708C151.848 116.676 151.908 116.63 151.956 116.573C152.781 115.736 153.432 114.744 153.873 113.653C153.899 113.518 153.873 113.378 153.8 113.262C153.727 113.145 153.612 113.061 153.479 113.026Z" fill="#E6E7E8"/>
<path d="M166.45 84.3062C166.414 84.2447 166.366 84.1908 166.31 84.1478C166.253 84.1047 166.189 84.0732 166.12 84.0551C166.051 84.037 165.98 84.0327 165.909 84.0424C165.839 84.0521 165.771 84.0756 165.71 84.1115L161.795 86.604C161.733 86.6398 161.68 86.6874 161.637 86.744C161.594 86.8006 161.562 86.8652 161.544 86.934C161.526 87.0028 161.522 87.0745 161.531 87.145C161.541 87.2155 161.565 87.2834 161.6 87.3447C161.636 87.4062 161.684 87.4601 161.74 87.5032C161.797 87.5463 161.861 87.5777 161.93 87.5958C161.999 87.6139 162.07 87.6182 162.141 87.6085C162.211 87.5989 162.279 87.5754 162.34 87.5394L166.255 85.0469C166.317 85.0111 166.37 84.9636 166.413 84.9069C166.457 84.8503 166.488 84.7858 166.506 84.7169C166.524 84.6481 166.528 84.5764 166.519 84.5059C166.509 84.4355 166.486 84.3676 166.45 84.3062Z" fill="#E6E7E8"/>
<path d="M168.053 117.752C167.726 117.432 167.32 117.205 166.876 117.092C166.503 117.014 166.151 116.855 165.845 116.627C165.521 116.314 165.65 115.816 165.731 115.427C165.881 114.945 165.898 114.431 165.78 113.94C165.483 113.037 164.527 112.367 163.679 113.037C163.579 113.139 163.522 113.276 163.522 113.418C163.522 113.561 163.579 113.698 163.679 113.8C163.73 113.85 163.789 113.891 163.855 113.918C163.921 113.945 163.992 113.96 164.063 113.96C164.134 113.96 164.205 113.945 164.271 113.918C164.336 113.891 164.396 113.85 164.446 113.8C164.387 113.848 164.408 113.8 164.446 113.854C164.528 113.913 164.596 113.988 164.646 114.075C164.715 114.204 164.758 114.346 164.771 114.492C164.784 114.638 164.767 114.785 164.722 114.924C164.565 115.757 164.387 116.644 165.024 117.325C165.526 117.865 166.255 117.968 166.898 118.233C167.128 118.319 167.319 118.484 167.438 118.698C167.476 118.776 167.506 118.858 167.53 118.941C167.534 118.966 167.534 118.992 167.53 119.017H167.492C167.374 119.092 167.29 119.209 167.257 119.345C167.224 119.48 167.244 119.623 167.314 119.744C167.384 119.865 167.497 119.954 167.631 119.993C167.765 120.031 167.908 120.017 168.032 119.952C168.885 119.466 168.637 118.385 168.053 117.752Z" fill="#E6E7E8"/>
<path d="M86.1084 114.481L87.0318 113.518C87.5178 113.021 86.7564 112.253 86.2704 112.756L85.2174 113.837C84.8448 114.221 84.4668 114.6 84.618 115.189C84.688 115.416 84.7765 115.637 84.8826 115.849C84.9798 116.081 85.0824 116.308 85.1796 116.541C85.3794 117.017 85.5792 117.487 85.7844 117.963C85.8155 118.032 85.8608 118.093 85.9172 118.144C85.9736 118.194 86.0399 118.232 86.1118 118.255C86.1838 118.278 86.2598 118.286 86.3349 118.278C86.41 118.269 86.4826 118.246 86.5479 118.208C86.6132 118.169 86.6699 118.118 86.7141 118.057C86.7584 117.996 86.7893 117.926 86.8049 117.852C86.8205 117.778 86.8204 117.701 86.8046 117.627C86.7888 117.553 86.7577 117.483 86.7132 117.422C86.3838 116.638 86.0328 115.86 85.7142 115.065C85.6948 115.023 85.6785 114.979 85.6656 114.935C85.8248 114.795 85.9729 114.644 86.1084 114.481Z" fill="#E6E7E8"/>
<path d="M79.6393 119.839C79.6186 119.77 79.5794 119.708 79.5259 119.66L79.4179 119.579C79.3345 119.53 79.2394 119.503 79.1425 119.503H79.0021C78.9118 119.525 78.8295 119.572 78.7645 119.639L78.3595 120.05C78.3061 120.095 78.2668 120.155 78.2461 120.223C78.2136 120.286 78.1969 120.357 78.1975 120.428C78.1969 120.501 78.2135 120.573 78.2461 120.639C78.2683 120.705 78.3074 120.765 78.3595 120.812L78.4675 120.898C78.5498 120.945 78.6429 120.969 78.7375 120.969H78.8833C78.9733 120.943 79.0552 120.895 79.1209 120.828L79.5259 120.423C79.5759 120.372 79.6155 120.312 79.6424 120.246C79.6693 120.18 79.6829 120.11 79.6825 120.039C79.6864 119.969 79.6715 119.9 79.6393 119.839Z" fill="#E6E7E8"/>
<path d="M74.331 59.138C74.1261 58.8719 73.8518 58.6675 73.5384 58.5473C73.225 58.4271 72.8845 58.3958 72.5544 58.4567C72.9379 57.6007 73.5124 56.8442 74.2338 56.2454C74.7738 55.802 74.0016 55.0397 73.467 55.4831C72.4387 56.3555 71.6801 57.5033 71.28 58.792C71.2728 58.8231 71.2638 58.8538 71.253 58.8839C71.1072 58.965 70.9668 59.0515 70.8372 59.138C70.2626 59.5436 69.7935 60.0813 69.4693 60.706C69.1451 61.3306 68.9754 62.0241 68.9742 62.728C68.9742 62.8714 69.0311 63.0089 69.1324 63.1103C69.2337 63.2117 69.371 63.2687 69.5142 63.2687C69.6575 63.2687 69.7948 63.2117 69.8961 63.1103C69.9973 63.0089 70.0542 62.8714 70.0542 62.728C70.0475 61.9306 70.3383 61.1594 70.8696 60.5653L71.0262 60.4086C71.0351 60.5149 71.055 60.62 71.0856 60.7221C71.1911 61.0189 71.3965 61.2697 71.6664 61.4315C71.9364 61.5932 72.2542 61.6559 72.5652 61.6088C73.2264 61.583 73.8557 61.3179 74.3364 60.8627C74.5288 60.6163 74.6328 60.3122 74.6319 59.9994C74.6309 59.6866 74.5249 59.3832 74.331 59.138ZM73.5318 60.0896C73.44 60.3491 72.7866 60.4734 72.549 60.5059C72.1548 60.5599 72.0468 60.4031 72.0846 60.0247C72.0846 59.8949 72.1062 59.7652 72.1494 59.6354C72.4306 59.5242 72.7359 59.4888 73.035 59.5327C73.2618 59.5705 73.6398 59.7922 73.5318 60.0896Z" fill="#E6E7E8"/>
<path d="M62.586 56.8019C62.5544 56.5083 62.4544 56.2261 62.294 55.9782C62.1336 55.7303 61.9174 55.5235 61.6626 55.3746C61.209 55.0826 60.5826 54.9312 60.2532 54.5095C60.1107 54.3301 60.0169 54.1168 59.9809 53.8904C59.945 53.664 59.9681 53.4321 60.048 53.2173C60.086 53.0789 60.0675 52.9311 59.9966 52.8064C59.9257 52.6817 59.8082 52.5903 59.67 52.5523C59.5318 52.5143 59.3842 52.5328 59.2596 52.6038C59.1351 52.6748 59.0438 52.7924 59.0058 52.9307C58.8338 53.4812 58.8614 54.0748 59.0837 54.6069C59.3059 55.139 59.7086 55.5756 60.2208 55.8395C60.4638 55.9693 60.723 56.0774 60.9606 56.2126C61.0691 56.2698 61.1721 56.3367 61.2684 56.4127C61.2999 56.4406 61.3288 56.4714 61.3548 56.5046L61.3872 56.5532L61.4358 56.6451C61.4482 56.6752 61.459 56.7059 61.4682 56.7371C61.4803 56.7759 61.4894 56.8157 61.4952 56.856C61.4952 56.856 61.4952 56.9371 61.4952 56.9479C61.497 56.9568 61.497 56.966 61.4952 56.975V57.0236C61.3665 57.0682 61.2594 57.1598 61.1953 57.2801C61.1312 57.4005 61.1149 57.5406 61.1496 57.6724C61.1684 57.741 61.2004 57.8051 61.244 57.8613C61.2875 57.9174 61.3417 57.9644 61.4033 57.9995C61.465 58.0347 61.533 58.0573 61.6035 58.0661C61.6739 58.0749 61.7454 58.0698 61.8138 58.0509C62.0593 57.9532 62.2669 57.7791 62.406 57.5541C62.545 57.3292 62.6082 57.0655 62.586 56.8019Z" fill="#E6E7E8"/>
<path d="M143.446 72.7195C143.127 72.4437 142.452 72.1788 142.528 71.6381C142.603 71.0975 143.257 70.6379 143.678 70.3567C144.256 69.9783 143.716 69.0375 143.138 69.4268C142.263 70.0053 141.161 70.9893 141.518 72.1734C141.708 72.6607 142.059 73.0687 142.511 73.3304C142.614 73.4007 142.981 73.6332 142.976 73.7846C142.976 73.8495 142.819 73.9198 142.754 73.9576C141.934 74.3793 140.978 74.628 140.989 75.7634C141.068 76.3325 141.251 76.8822 141.529 77.3855C141.647 77.6774 141.809 78.2127 141.453 78.3803C140.821 78.6668 141.367 79.5968 141.993 79.3102C142.954 78.8723 142.814 77.6234 142.452 76.8232C142.279 76.4447 141.815 75.7418 142.198 75.385C142.531 75.155 142.895 74.973 143.278 74.8443C144.223 74.4172 144.223 73.3899 143.446 72.7195Z" fill="#E6E7E8"/>
<path d="M152.96 81.2081C152.296 81.155 151.637 81.3637 151.123 81.7898C150.61 82.216 150.283 82.8258 150.212 83.4897C150.212 83.6519 150.212 83.8195 150.185 83.9817C150.177 84.0939 150.135 84.2012 150.066 84.2899C149.962 84.4017 149.83 84.4823 149.683 84.5224C149.208 84.6384 148.714 84.6494 148.235 84.5548C148.167 84.5359 148.096 84.5308 148.025 84.5396C147.955 84.5484 147.887 84.571 147.825 84.6062C147.763 84.6413 147.709 84.6883 147.666 84.7444C147.622 84.8006 147.59 84.8647 147.571 84.9333C147.533 85.0709 147.551 85.2181 147.621 85.3428C147.69 85.4674 147.807 85.5592 147.944 85.5983C149.024 85.7821 150.601 85.8146 151.119 84.6035C151.226 84.2529 151.283 83.8888 151.286 83.5221C151.318 83.2808 151.416 83.0528 151.567 82.8625C151.728 82.6516 151.941 82.487 152.186 82.3854C152.431 82.2838 152.698 82.2488 152.96 82.284C153.104 82.284 153.241 82.227 153.342 82.1256C153.443 82.0242 153.5 81.8867 153.5 81.7433C153.5 81.5999 153.443 81.4624 153.342 81.361C153.241 81.2596 153.104 81.2027 152.96 81.2027V81.2081Z" fill="#E6E7E8"/>
<path d="M146.923 104.489C146.904 104.421 146.872 104.356 146.829 104.3C146.785 104.244 146.731 104.197 146.669 104.162C146.608 104.127 146.54 104.104 146.469 104.095C146.399 104.087 146.327 104.092 146.259 104.111C145.359 104.333 144.556 104.841 143.969 105.56C143.873 105.665 143.817 105.801 143.813 105.944C143.815 106.087 143.871 106.224 143.969 106.327C144.02 106.378 144.079 106.418 144.145 106.446C144.211 106.473 144.281 106.487 144.353 106.487C144.424 106.487 144.495 106.473 144.56 106.446C144.626 106.418 144.686 106.378 144.736 106.327C144.86 106.168 144.997 106.02 145.147 105.884L145.255 105.787C145.275 105.775 145.293 105.761 145.309 105.744L145.352 105.711L145.406 105.673L145.541 105.581C145.714 105.478 145.895 105.388 146.081 105.311H146.135L146.275 105.257C146.373 105.225 146.472 105.198 146.572 105.176C146.641 105.154 146.704 105.119 146.759 105.073C146.814 105.027 146.859 104.97 146.891 104.906C146.924 104.842 146.944 104.772 146.949 104.701C146.955 104.629 146.946 104.557 146.923 104.489Z" fill="#E6E7E8"/>
<path d="M67.743 68.5239C67.4018 68.1355 66.9262 67.891 66.4121 67.8399C65.898 67.7887 65.3837 67.9346 64.9728 68.2482C64.6454 67.9315 64.2578 67.684 63.8329 67.5206C63.408 67.3571 62.9545 67.2809 62.4996 67.2966C61.9304 67.3292 61.3762 67.492 60.8796 67.7724C60.389 67.4159 59.7887 67.2436 59.184 67.2858C57.6558 67.4264 56.7378 68.9078 56.619 70.3081C56.5596 71.0056 57.6396 71.0002 57.699 70.3081C57.7119 69.888 57.8506 69.4813 58.0971 69.141C58.3436 68.8007 58.6865 68.5424 59.0814 68.3996C59.4149 68.3187 59.7664 68.363 60.0696 68.5239C59.9225 68.7656 59.8545 69.0473 59.8752 69.3295C59.896 69.5973 60.0206 69.8463 60.2225 70.0231C60.4244 70.2 60.6874 70.2906 60.9552 70.2757C61.6248 70.2433 61.8624 69.6161 61.7382 69.0322C61.7067 68.8845 61.6578 68.7411 61.5924 68.605C61.8911 68.4558 62.2198 68.3763 62.5536 68.3725C62.9242 68.3584 63.2927 68.4352 63.6268 68.5964C63.9609 68.7575 64.2506 68.9981 64.4706 69.2971C64.5184 69.3778 64.5864 69.4446 64.6678 69.491C64.7492 69.5374 64.8413 69.5619 64.935 69.5619C65.0287 69.5619 65.1208 69.5374 65.2022 69.491C65.2836 69.4446 65.3516 69.3778 65.3994 69.2971C65.4916 69.176 65.6105 69.0779 65.7468 69.0104C65.883 68.9429 66.033 68.9078 66.1851 68.9078C66.3372 68.9078 66.4872 68.9429 66.6234 69.0104C66.7597 69.0779 66.8786 69.176 66.9708 69.2971C67.4136 69.8378 68.175 69.0646 67.743 68.5239Z" fill="#E6E7E8"/>
</svg>
