<svg width="216" height="163" viewBox="0 0 216 163" fill="none" xmlns="http://www.w3.org/2000/svg">
<path d="M135.675 28.6982C136.723 27.6709 138.067 25.8705 136.895 24.3729C136.588 23.9836 136.134 23.7186 135.886 23.2915C135.692 22.7959 135.583 22.2715 135.562 21.7398C135.232 19.8366 133.402 18.5661 131.549 17.9551C129.697 17.3442 126.83 16.8251 125.069 17.9551C123.401 19.0364 122.672 21.2694 120.809 22.1669C118.53 23.2483 115.409 21.6263 113.454 23.2104C112.801 23.7511 112.406 24.5675 111.694 25.0271C111.065 25.359 110.363 25.5246 109.652 25.5083C106.277 25.6921 102.47 25.6218 100.084 28.017C97.6967 30.4121 97.7724 34.2833 98.5338 37.5706C98.8255 39.1041 99.4244 40.5626 100.294 41.8581C101.02 42.766 101.919 43.5203 102.939 44.0772C103.959 44.6341 105.079 44.9825 106.234 45.1021C109.674 45.5401 113.508 45.1021 114.939 41.577C115.263 40.7768 115.479 39.8847 116.084 39.2791C117.439 37.9437 119.756 38.8033 121.565 38.1978C124.637 37.2084 125.183 32.5748 128.196 31.3962C131.047 30.3202 133.288 31.0339 135.675 28.6982Z" fill="white"/>
<path d="M108.329 45.5238C107.62 45.5211 106.911 45.4723 106.207 45.3779C105.016 45.2562 103.861 44.8975 102.811 44.3228C101.76 43.7481 100.835 42.9689 100.089 42.0311C99.1984 40.7097 98.5831 39.222 98.2799 37.6571C97.5779 34.6293 97.2863 30.4716 99.8999 27.8547C102.13 25.6164 105.446 25.4596 108.659 25.3136C108.988 25.3136 109.318 25.3136 109.642 25.2649C110.306 25.2844 110.965 25.1317 111.553 24.8216C111.912 24.5651 112.226 24.2509 112.482 23.8916C112.72 23.5764 112.989 23.2866 113.287 23.0266C114.431 22.0912 115.922 22.1831 117.358 22.275C118.519 22.3453 119.718 22.421 120.701 21.9452C121.617 21.4145 122.395 20.6732 122.969 19.7825C123.505 19.0023 124.168 18.3171 124.929 17.755C126.976 16.4088 130.297 17.2738 131.625 17.7064C133.952 18.4633 135.524 19.9501 135.821 21.6857C135.848 21.8425 135.864 22.0047 135.88 22.1615C135.892 22.5039 135.973 22.8403 136.118 23.1509C136.258 23.3687 136.431 23.5638 136.631 23.7294C136.801 23.8743 136.958 24.0335 137.101 24.2052C138.078 25.4488 137.641 27.1573 135.859 28.8874C134.276 30.4337 132.748 30.6933 131.134 30.969C130.166 31.1044 129.216 31.3418 128.299 31.6773C126.905 32.2179 126.068 33.548 125.188 34.9537C124.308 36.3595 123.314 37.949 121.651 38.4789C120.875 38.6857 120.072 38.7714 119.27 38.733C118.114 38.733 117.018 38.733 116.278 39.4791C115.87 39.947 115.572 40.5016 115.409 41.1012C115.339 41.2904 115.268 41.4796 115.193 41.6689C114.172 44.1938 111.812 45.5238 108.329 45.5238ZM116.068 22.7616C115.203 22.6942 114.342 22.9355 113.638 23.4429C113.367 23.6808 113.121 23.9453 112.903 24.2323C112.604 24.64 112.239 24.9945 111.823 25.2812C111.161 25.6438 110.418 25.8299 109.663 25.8218L108.67 25.8705C105.565 26.0111 102.352 26.1624 100.273 28.2494C97.7399 30.8122 98.2799 35.1646 98.8199 37.5381C99.1059 39.0351 99.6879 40.4598 100.532 41.7283C101.236 42.6051 102.108 43.3323 103.096 43.8671C104.085 44.4019 105.17 44.7335 106.288 44.8426C109.35 45.2373 113.308 44.9723 114.707 41.485C114.782 41.3066 114.847 41.1228 114.917 40.9444C115.107 40.2639 115.449 39.6354 115.916 39.1061C116.813 38.2248 118.076 38.2194 119.286 38.2086C120.031 38.2444 120.777 38.1679 121.5 37.9815C122.974 37.5111 123.838 36.1378 124.74 34.6834C125.642 33.229 126.549 31.7962 128.104 31.1907C129.055 30.8391 130.042 30.5926 131.047 30.4554C132.667 30.1796 134.023 29.9471 135.486 28.5144C136.393 27.6277 137.759 25.93 136.679 24.5567C136.556 24.4073 136.42 24.2681 136.274 24.1403C136.03 23.9415 135.821 23.7041 135.653 23.4375C135.47 23.0627 135.367 22.6539 135.351 22.2372C135.351 22.0858 135.319 21.9398 135.297 21.7938C135.032 20.2583 133.601 18.9283 131.463 18.2362C130.486 17.9172 127.143 16.9711 125.231 18.2362C124.52 18.7666 123.901 19.4115 123.401 20.1448C122.776 21.0882 121.94 21.8731 120.96 22.4372C119.853 22.9779 118.579 22.8914 117.353 22.8157C116.899 22.7887 116.478 22.7616 116.068 22.7616Z" fill="#231F20"/>
<path d="M74.7197 29.6498L74.6549 25.2163H78.6023L79.1477 30.6825L74.7197 29.6498Z" fill="white"/>
<path d="M79.1532 30.9528H79.0884L74.6604 29.9201C74.6026 29.9062 74.5508 29.8739 74.5129 29.8281C74.4749 29.7823 74.4528 29.7255 74.4498 29.666L74.385 25.2325C74.3843 25.1966 74.3907 25.1608 74.404 25.1274C74.4172 25.094 74.437 25.0635 74.4621 25.0379C74.4873 25.0122 74.5173 24.9918 74.5504 24.9779C74.5835 24.9639 74.6191 24.9568 74.655 24.9568H78.6024C78.669 24.9566 78.7332 24.9815 78.7822 25.0266C78.8313 25.0717 78.8615 25.1336 78.867 25.2001L79.407 30.6663C79.4122 30.7083 79.407 30.751 79.392 30.7906C79.3769 30.8301 79.3524 30.8654 79.3206 30.8934C79.2725 30.9305 79.2139 30.9513 79.1532 30.9528ZM74.9898 29.4335L78.84 30.3311L78.3486 25.465H74.925L74.9898 29.4335Z" fill="#231F20"/>
<path d="M78.6023 25.2164L79.1423 22.4211C79.1423 22.4211 70.2594 19.5934 70.74 20.9451C71.2206 22.2967 74.6658 25.2434 74.6658 25.2434L78.6023 25.2164Z" fill="#231F20"/>
<path d="M78.6024 25.4864H74.655C74.5918 25.4845 74.5311 25.4617 74.4822 25.4216C74.3364 25.2972 70.9668 22.383 70.4754 21.0097C70.4418 20.9266 70.4326 20.8357 70.4488 20.7476C70.4651 20.6595 70.5062 20.5778 70.5672 20.5123C71.3016 19.7499 76.869 21.4152 79.2072 22.1343C79.2692 22.1553 79.3214 22.1982 79.3542 22.2548C79.3869 22.3115 79.398 22.3782 79.3854 22.4425L78.84 25.2702C78.8296 25.3273 78.8007 25.3794 78.7577 25.4185C78.7148 25.4576 78.6602 25.4815 78.6024 25.4864ZM74.7576 24.9458H78.381L78.84 22.6047C75.4488 21.5233 71.6256 20.6096 70.9992 20.8637C71.4096 21.8964 73.7694 24.0915 74.7576 24.9458Z" fill="#231F20"/>
<path d="M72.6191 48.1408C72.6191 47.7136 74.1743 28.5739 74.1743 28.5739C74.1743 28.5739 79.9793 28.2928 79.8389 28.5739C79.6985 28.8551 81.2537 48.1408 81.2537 48.1408H72.6191Z" fill="#231F20"/>
<path d="M81.2538 48.411H72.6138C72.541 48.4097 72.4715 48.3807 72.4194 48.3299C72.3705 48.2791 72.3433 48.2112 72.3438 48.1406C72.3438 47.7081 73.8396 29.3361 73.899 28.5522C73.9053 28.4865 73.935 28.4253 73.9825 28.3797C74.0301 28.3341 74.0924 28.307 74.1582 28.3034C79.812 28.0277 79.9578 28.2548 80.0604 28.4062C80.0984 28.4754 80.11 28.5561 80.0928 28.6333C80.0334 29.2604 80.9136 40.6145 81.5184 48.0974C81.5228 48.1724 81.4976 48.2462 81.4482 48.3028C81.4248 48.3332 81.3955 48.3584 81.3621 48.377C81.3287 48.3956 81.2918 48.4071 81.2538 48.411ZM72.9 47.8703H80.9622C79.7742 33.11 79.5798 29.6173 79.5744 28.7522C78.9588 28.6765 76.6206 28.7522 74.4228 28.8333C73.9206 35.0023 73.035 45.9888 72.9 47.8703Z" fill="#231F20"/>
<path d="M132.635 34.8509C132.635 34.8509 129.492 30.1579 130.064 28.7954C130.637 27.4329 131.495 26.4976 132.224 26.7355C132.953 26.9734 134.957 33.1532 134.957 33.1532L132.635 34.8509Z" fill="white"/>
<path d="M132.635 35.1212H132.586C132.514 35.108 132.45 35.0673 132.408 35.0077C132.079 34.5157 129.206 30.1416 129.816 28.6981C130.496 27.0761 131.474 26.211 132.3 26.4867C133.126 26.7625 134.584 31.1797 135.2 33.0721C135.218 33.1263 135.219 33.1851 135.202 33.2397C135.184 33.2943 135.149 33.3417 135.103 33.3749L132.791 35.0726C132.746 35.1065 132.691 35.1237 132.635 35.1212ZM131.976 26.9679C131.479 26.9679 130.804 27.7357 130.313 28.9035C129.956 29.7578 131.528 32.6882 132.7 34.467L134.627 33.0505C133.693 30.2227 132.521 27.222 132.116 26.9895C132.071 26.9744 132.024 26.9671 131.976 26.9679Z" fill="#231F20"/>
<path d="M59.9292 31.8721L57.5478 28.1956L54.1944 30.6556L56.1924 34.6241L59.9292 31.8721Z" fill="white"/>
<path d="M56.1924 34.8941H56.1276C56.0893 34.8838 56.0536 34.8654 56.0228 34.8403C55.9921 34.8151 55.9671 34.7837 55.9494 34.7481L53.9514 30.7796C53.9234 30.7222 53.9162 30.6569 53.931 30.5948C53.9457 30.5327 53.9816 30.4776 54.0324 30.439L57.3912 27.9735C57.4507 27.9313 57.5243 27.9138 57.5964 27.9249C57.6328 27.9309 57.6676 27.9446 57.6983 27.9651C57.7291 27.9856 57.7551 28.0124 57.7746 28.0438L60.156 31.715C60.1945 31.7728 60.2092 31.8433 60.1971 31.9118C60.1851 31.9803 60.1471 32.0415 60.0912 32.0826L56.349 34.8346C56.3055 34.8724 56.25 34.8935 56.1924 34.8941ZM54.54 30.7364L56.2896 34.2183L59.5674 31.8015L57.4776 28.5845L54.54 30.7364Z" fill="#231F20"/>
<path d="M57.5478 28.1954C57.5478 28.1954 55.62 25 55.5606 25.2163C55.5012 25.4326 48.4488 30.1797 48.546 30.6771C48.6432 31.1745 54.1944 30.6771 54.1944 30.6771L57.5478 28.1954Z" fill="#231F20"/>
<path d="M50.2199 31.142C48.3839 31.142 48.3299 30.8716 48.2975 30.704C48.2273 30.3526 48.6269 29.9255 53.3951 26.5084C54.2969 25.8596 55.2257 25.1946 55.3607 25.0594C55.4103 24.9928 55.4839 24.9482 55.5659 24.9351C55.7549 24.9351 55.9115 24.9026 57.7961 28.0601C57.8305 28.1169 57.8424 28.1845 57.8294 28.2495C57.8164 28.3146 57.7795 28.3724 57.7259 28.4116L54.3671 30.8716C54.3269 30.8988 54.2805 30.9156 54.2321 30.9203C52.3799 31.0825 51.0785 31.142 50.2199 31.142ZM48.9509 30.5418C50.673 30.6252 52.399 30.5746 54.1133 30.3904L57.2075 28.125C56.5757 27.0437 55.8791 25.9623 55.5875 25.5785C55.3391 25.7731 54.8207 26.1191 53.7137 26.9464C52.2125 28.0007 49.5881 29.8822 48.9347 30.5418H48.9509Z" fill="#231F20"/>
<path d="M126.83 32.4937C127.445 32.7046 132.694 43.5829 134.298 43.0152C135.902 42.4475 131.161 34.4618 131.161 34.4618L135.416 31.407C135.416 31.407 146.281 47.4865 142.123 50.9846C137.965 54.4828 122.191 42.9503 122.191 42.9503L126.83 32.4937Z" fill="#F14736"/>
<path d="M125.156 30.0499C125.156 30.0499 121.468 25.7786 115.976 29.4173C110.484 33.056 100.132 39.3278 100.132 39.3278L103.567 52.8013C103.567 52.8013 111.915 56.4994 121.797 51.6604C130.469 47.4162 130.918 40.5983 129.789 37.7652C128.66 34.9321 125.156 30.0499 125.156 30.0499Z" fill="#F14736"/>
<path d="M121.268 50.3951C121.211 50.3944 121.155 50.3755 121.109 50.3412C121.064 50.3069 121.03 50.259 121.013 50.2042C120.996 50.1495 120.997 50.0909 121.016 50.0368C121.034 49.9826 121.07 49.9358 121.117 49.903C121.192 49.849 128.806 44.6856 130.118 39.2356C130.137 39.1668 130.182 39.108 130.244 39.0717C130.305 39.0354 130.378 39.0244 130.448 39.041C130.517 39.0577 130.577 39.1012 130.615 39.1619C130.652 39.2227 130.664 39.2959 130.648 39.3654C129.281 45.0154 121.738 50.1355 121.419 50.3518C121.374 50.3809 121.321 50.396 121.268 50.3951Z" fill="#231F20"/>
<path d="M133.423 27.7195C133.423 27.7195 133.731 30.7418 133.186 31.05C132.64 31.3582 131.776 30.5093 131.776 30.5093" fill="white"/>
<path d="M132.916 31.3852C132.409 31.3123 131.942 31.0726 131.587 30.704C131.562 30.6789 131.542 30.649 131.528 30.616C131.514 30.5831 131.507 30.5477 131.507 30.5121C131.507 30.4764 131.514 30.441 131.528 30.4081C131.542 30.3751 131.562 30.3452 131.587 30.3201C131.638 30.2702 131.707 30.2423 131.779 30.2423C131.85 30.2423 131.919 30.2702 131.971 30.3201C132.203 30.5472 132.775 30.9689 133.051 30.8121C133.326 30.6553 133.304 29.1901 133.153 27.7465C133.147 27.711 133.148 27.6745 133.156 27.6394C133.164 27.6042 133.179 27.5711 133.2 27.5418C133.222 27.5126 133.248 27.4879 133.279 27.4692C133.31 27.4505 133.344 27.4382 133.38 27.4329C133.45 27.4267 133.521 27.448 133.576 27.4923C133.631 27.5366 133.667 27.6005 133.677 27.6708C133.801 28.8657 133.915 30.9149 133.299 31.2663C133.183 31.3369 133.051 31.3777 132.916 31.3852Z" fill="#231F20"/>
<path d="M125.172 38.2032C123.152 36.5812 121.754 31.5962 121.797 31.4989C122.62 29.9527 123.521 28.4495 124.497 26.9951C124.497 26.9951 126.117 27.8494 128.072 26.422C130.027 24.9946 131.852 26.2598 134.665 24.5891C135.205 25.8543 134.077 27.3411 133.515 28.3738C132.727 29.8624 131.902 31.3295 131.042 32.7749C130.502 33.694 128.045 32.4342 127.759 31.926C127.116 33.4777 127.116 33.4777 125.172 38.2032Z" fill="white"/>
<path d="M125.172 38.4734C125.108 38.4742 125.047 38.4511 124.999 38.4085C123.001 36.7865 121.387 31.7366 121.554 31.3798C122.374 29.8199 123.276 28.3039 124.254 26.8381C124.29 26.7809 124.346 26.7396 124.411 26.7225C124.476 26.7054 124.546 26.7139 124.605 26.7462C124.664 26.7787 126.101 27.5032 127.888 26.2056C128.783 25.611 129.839 25.307 130.912 25.3351C132.174 25.3289 133.412 24.9915 134.503 24.3565C134.536 24.3374 134.573 24.3251 134.611 24.3205C134.649 24.3158 134.688 24.3189 134.725 24.3294C134.761 24.3423 134.795 24.3623 134.823 24.3883C134.852 24.4143 134.875 24.4457 134.892 24.4808C135.394 25.6595 134.649 26.9355 134.05 27.9627C133.936 28.1628 133.828 28.3466 133.731 28.5034C132.943 29.9848 132.111 31.4717 131.252 32.9153C131.146 33.0735 131 33.1999 130.827 33.2809C130.655 33.3618 130.464 33.3943 130.275 33.3748C129.385 33.2858 128.537 32.9487 127.829 32.4016L125.404 38.2841C125.387 38.3223 125.362 38.3562 125.33 38.3833C125.298 38.4104 125.261 38.4301 125.221 38.4409L125.172 38.4734ZM122.078 31.5474C122.197 32.088 123.368 36.0566 125.064 37.7435C126.868 33.3694 126.884 33.3316 127.505 31.8447C127.523 31.7975 127.555 31.7565 127.596 31.7268C127.637 31.6971 127.686 31.6798 127.737 31.6771C127.788 31.674 127.839 31.6855 127.884 31.7104C127.929 31.7353 127.966 31.7725 127.991 31.8177C128.631 32.3986 129.442 32.757 130.302 32.8396C130.577 32.8396 130.729 32.7747 130.804 32.6449C131.657 31.2068 132.489 29.7307 133.272 28.2547C133.369 28.0709 133.483 27.8762 133.601 27.6762C134.082 26.849 134.681 25.8379 134.498 24.9728C133.404 25.5399 132.193 25.8435 130.961 25.8595C129.991 25.8269 129.035 26.095 128.223 26.6273C127.724 27.0366 127.13 27.3139 126.496 27.4339C125.862 27.5539 125.208 27.5126 124.594 27.3139C124.168 27.9735 122.731 30.2011 122.078 31.5474Z" fill="#231F20"/>
<path d="M131.582 31.6665C131.387 31.6885 131.189 31.6679 131.002 31.6063C130.815 31.5446 130.644 31.4434 130.5 31.3094C130.356 31.1754 130.242 31.0119 130.167 30.83C130.092 30.6481 130.057 30.4521 130.064 30.2554" fill="white"/>
<path d="M131.517 31.9367C131.059 31.9446 130.613 31.785 130.264 31.4879C130.104 31.3269 129.979 31.1339 129.898 30.9215C129.817 30.7092 129.782 30.4822 129.794 30.2552C129.794 30.1835 129.823 30.1147 129.873 30.064C129.924 30.0133 129.993 29.9849 130.064 29.9849C130.135 29.9863 130.202 30.0154 130.252 30.0659C130.301 30.1165 130.329 30.1844 130.329 30.2552C130.316 30.408 130.336 30.5617 130.387 30.7062C130.439 30.8507 130.52 30.9826 130.626 31.0932C130.891 31.3035 131.222 31.411 131.56 31.396C131.596 31.3923 131.632 31.396 131.666 31.407C131.701 31.418 131.732 31.436 131.759 31.4599C131.786 31.4838 131.808 31.5131 131.823 31.5458C131.838 31.5786 131.846 31.6141 131.846 31.6501C131.851 31.721 131.827 31.7907 131.781 31.8444C131.734 31.898 131.669 31.9311 131.598 31.9367H131.517Z" fill="#231F20"/>
<path d="M127.753 31.9478C127.408 31.7423 127.109 31.4677 126.875 31.1411C126.641 30.8146 126.476 30.4431 126.392 30.05C126.392 30.05 125.28 32.3803 126.878 34.0564L127.753 31.9478Z" fill="#231F20"/>
<path d="M126.9 34.3265C126.864 34.3271 126.828 34.3201 126.794 34.3062C126.761 34.2922 126.731 34.2716 126.706 34.2454C124.994 32.4558 126.122 30.039 126.166 29.9201C126.19 29.8673 126.232 29.824 126.283 29.7967C126.335 29.7694 126.394 29.7596 126.452 29.7687C126.51 29.7795 126.563 29.8083 126.603 29.851C126.644 29.8937 126.67 29.9481 126.679 30.0066C126.759 30.3567 126.909 30.687 127.119 30.9778C127.33 31.2686 127.597 31.5138 127.904 31.6989C127.961 31.7309 128.004 31.7829 128.025 31.8448C128.046 31.9066 128.043 31.9741 128.018 32.0341L127.143 34.1427C127.127 34.1848 127.1 34.2219 127.065 34.2504C127.03 34.2788 126.988 34.2976 126.943 34.3049L126.9 34.3265ZM126.414 30.9095C126.291 31.3514 126.264 31.8146 126.335 32.2679C126.405 32.7211 126.572 33.1539 126.824 33.5372L127.44 32.0503C127.009 31.7544 126.651 31.3643 126.392 30.9095H126.414Z" fill="#231F20"/>
<path d="M133.497 26.8617C133.671 26.5794 133.721 26.2948 133.609 26.2259C133.498 26.157 133.266 26.33 133.093 26.6122C132.919 26.8945 132.869 27.1791 132.981 27.248C133.093 27.3169 133.324 27.1439 133.497 26.8617Z" fill="#231F20"/>
<path d="M129.989 26.8923C130.143 26.4987 130.182 26.0693 130.102 25.6542C130.091 25.3258 130.029 25.0012 129.919 24.6918C129.862 24.538 129.772 24.3987 129.655 24.2838C129.539 24.1688 129.398 24.081 129.244 24.0267C129.103 23.993 128.956 23.9895 128.814 24.0165C128.671 24.0435 128.536 24.1005 128.417 24.1835C128.18 24.3519 127.985 24.5719 127.845 24.8269C127.529 25.3763 127.363 25.999 127.363 26.6328C127.363 27.2665 127.529 27.8892 127.845 28.4386L127.813 28.3035" fill="white"/>
<path d="M127.834 28.7091C127.787 28.7083 127.741 28.6954 127.701 28.6717C127.66 28.6481 127.626 28.6144 127.602 28.5739C127.264 27.9821 127.086 27.312 127.086 26.6302C127.086 25.9483 127.264 25.2783 127.602 24.6865C127.761 24.3963 127.985 24.1466 128.255 23.9566C128.407 23.8512 128.58 23.7797 128.761 23.747C128.943 23.7144 129.13 23.7213 129.308 23.7673C129.502 23.8315 129.679 23.9387 129.826 24.081C129.973 24.2233 130.086 24.3971 130.156 24.5892C130.279 24.9221 130.349 25.2725 130.361 25.6272C130.445 26.0949 130.395 26.5768 130.216 27.0168C130.183 27.0804 130.127 27.1287 130.059 27.151C129.991 27.1733 129.918 27.1678 129.854 27.1357C129.79 27.1033 129.742 27.047 129.72 26.9791C129.697 26.9113 129.703 26.8373 129.735 26.7735C129.863 26.4279 129.894 26.0543 129.827 25.6921C129.81 25.3922 129.754 25.0959 129.659 24.8108C129.618 24.6947 129.551 24.589 129.464 24.5012C129.378 24.4134 129.273 24.3457 129.157 24.3026C129.053 24.2802 128.946 24.2797 128.842 24.3011C128.738 24.3226 128.639 24.3654 128.552 24.427C128.352 24.568 128.185 24.7529 128.066 24.9676C127.78 25.4644 127.625 26.0265 127.618 26.6002C127.61 27.1739 127.75 27.7399 128.023 28.2441H128.05L128.088 28.3793C128.104 28.4424 128.097 28.509 128.068 28.5674C128.039 28.6258 127.991 28.6721 127.931 28.6983C127.9 28.708 127.867 28.7117 127.834 28.7091Z" fill="#231F20"/>
<path d="M100.132 39.3277C97.4916 38.2464 91.1952 39.5656 87.2262 40.8903C83.2572 42.2149 70.2 45.7779 70.2 45.7779L60.6258 30.677C60.6258 30.677 53.8326 33.1316 54.2106 33.6993C54.5886 34.267 61.02 49.6004 67.4244 52.6931C73.8288 55.7857 104.285 52.9526 104.285 52.9526L100.132 39.3277Z" fill="#231F20"/>
<path d="M80.8812 54.4178C74.9412 54.4178 69.633 54.0556 67.311 52.9364C63.531 51.1143 59.211 44.9831 54.4104 34.7104C54.2052 34.2724 54.027 33.8886 53.9838 33.8291C53.9537 33.7813 53.9347 33.7273 53.9281 33.6712C53.9216 33.6151 53.9277 33.5582 53.946 33.5047C54.189 32.764 58.6386 31.0879 60.5394 30.4012C60.5969 30.3805 60.6597 30.3799 60.7176 30.3996C60.7754 30.4192 60.8249 30.4579 60.858 30.5094L70.2918 45.4643C71.9118 45.0156 83.4894 41.8256 87.1452 40.5983C90.3852 39.5169 97.254 37.8138 100.235 39.0466C100.271 39.0631 100.304 39.0869 100.331 39.1167C100.358 39.1465 100.379 39.1815 100.391 39.2196L104.544 52.8715C104.555 52.9095 104.558 52.9494 104.552 52.9885C104.546 53.0276 104.533 53.0651 104.512 53.0986C104.488 53.1313 104.459 53.1588 104.424 53.1793C104.39 53.1998 104.352 53.2128 104.312 53.2175C103.518 53.2932 91.2924 54.4178 80.8812 54.4178ZM54.4914 33.6345C54.5616 33.7696 54.6858 34.0291 54.8964 34.4833C59.643 44.6425 63.8982 50.7034 67.5432 52.4498C73.4832 55.3153 100.624 52.9904 103.934 52.7147L99.9 39.5061C97.2 38.5005 90.9198 39.9062 87.3018 41.1281C83.376 42.4366 70.3674 45.9942 70.2324 46.0482C70.1767 46.0636 70.1175 46.0603 70.0639 46.0388C70.0103 46.0173 69.9651 45.9789 69.9354 45.9293L60.5178 30.9798C57.78 31.9692 54.9288 33.1857 54.4914 33.6345Z" fill="#231F20"/>
<path d="M126.041 52.8932V50.5521H141.448L147.776 34.8511H170.143L162.805 50.4764V52.8932H126.041Z" fill="white"/>
<path d="M162.805 53.1636H126.041C125.97 53.1636 125.901 53.1352 125.85 53.0845C125.8 53.0338 125.771 52.965 125.771 52.8933V50.5522C125.771 50.4805 125.8 50.4118 125.85 50.3611C125.901 50.3104 125.97 50.2819 126.041 50.2819H141.264L147.528 34.7484C147.548 34.6986 147.582 34.656 147.626 34.626C147.671 34.5961 147.723 34.5804 147.776 34.5808H170.143C170.188 34.5809 170.233 34.5923 170.272 34.614C170.312 34.6358 170.346 34.6671 170.37 34.7052C170.392 34.7448 170.404 34.7895 170.404 34.8349C170.404 34.8804 170.392 34.9251 170.37 34.9647L163.08 50.536V52.8933C163.08 52.9293 163.073 52.9649 163.059 52.998C163.045 53.0312 163.025 53.0612 162.999 53.0864C162.973 53.1116 162.943 53.1314 162.91 53.1446C162.876 53.1579 162.841 53.1644 162.805 53.1636ZM126.311 52.623H162.54V50.4603C162.541 50.421 162.55 50.3824 162.567 50.3468L169.722 35.1053H147.96L141.696 50.682C141.676 50.7318 141.642 50.7744 141.598 50.8044C141.553 50.8343 141.501 50.85 141.448 50.8496H126.328L126.311 52.623Z" fill="#231F20"/>
<path d="M110.473 32.8395C110.473 32.8395 113.022 52.4983 114.793 52.9741C116.564 53.4499 134.773 49.6328 134.773 49.6328L133.531 43.2583C133.531 43.2583 120.474 45.5885 120.685 43.2583C120.895 40.928 119.221 32.1799 119.221 32.1799L110.473 32.8395Z" fill="#F14736"/>
<path d="M114.907 52.8879C114.255 52.9028 113.604 52.8521 112.963 52.7365C111.699 52.4662 110.776 51.1686 110.209 48.8815C109.523 46.1079 109.539 42.5989 109.609 40.7715C109.609 40.7282 109.782 36.2623 110.295 35.8298C110.35 35.784 110.422 35.7618 110.493 35.7678C110.565 35.7739 110.631 35.8078 110.678 35.8622C110.721 35.9129 110.744 35.977 110.744 36.0433C110.744 36.1096 110.721 36.1738 110.678 36.2245C110.317 36.8624 109.382 45.8916 111.218 50.2819C111.704 51.4281 112.331 52.0877 113.081 52.2499C117.401 53.169 134.573 49.4222 134.746 49.3844C134.782 49.3765 134.818 49.3758 134.854 49.3822C134.89 49.3885 134.924 49.4019 134.954 49.4215C134.985 49.4411 135.011 49.4665 135.032 49.4963C135.053 49.5261 135.068 49.5597 135.076 49.5952C135.083 49.6307 135.084 49.6674 135.078 49.7032C135.071 49.739 135.058 49.7732 135.038 49.8038C135.019 49.8344 134.994 49.8609 134.964 49.8817C134.934 49.9025 134.9 49.9172 134.865 49.925C134.228 50.0061 120.96 52.8879 114.907 52.8879Z" fill="#231F20"/>
<path d="M122.116 44.5777C121.709 44.5716 121.322 44.4067 121.036 44.1182C118.773 41.9933 118.973 32.5478 118.978 32.1423C118.984 32.0716 119.016 32.0055 119.068 31.9574C119.12 31.9092 119.188 31.8826 119.259 31.8828C119.294 31.8835 119.329 31.8912 119.361 31.9055C119.393 31.9198 119.422 31.9404 119.446 31.9661C119.471 31.9918 119.489 32.0221 119.502 32.0551C119.514 32.0881 119.52 32.1233 119.518 32.1586C119.518 32.2559 119.318 41.7663 121.408 43.7235C121.509 43.8305 121.633 43.9137 121.77 43.967C121.908 44.0203 122.055 44.0424 122.202 44.0317C125.442 43.7397 133.456 42.9503 133.542 42.9503C133.612 42.947 133.681 42.9701 133.735 43.0152C133.789 43.0602 133.824 43.1239 133.834 43.1936C133.837 43.2292 133.834 43.2651 133.824 43.2993C133.813 43.3335 133.797 43.3654 133.774 43.3931C133.751 43.4207 133.724 43.4436 133.692 43.4604C133.661 43.4772 133.626 43.4876 133.591 43.491C133.51 43.491 125.491 44.2696 122.251 44.5723L122.116 44.5777Z" fill="#231F20"/>
<path d="M134.298 44.2965C134.298 44.2965 138.164 41.658 138.888 42.3231C139.612 42.9881 142.889 47.2432 142.009 47.5622C141.129 47.8812 139.687 46.3565 139.687 46.3565C139.687 46.3565 138.829 47.7244 135.416 47.2432L134.298 44.2965Z" fill="white"/>
<path d="M141.75 47.8757C140.983 47.8757 140.098 47.1296 139.698 46.7511C139.25 47.1566 138.078 47.8865 135.378 47.508C135.33 47.502 135.284 47.4826 135.246 47.452C135.208 47.4215 135.179 47.381 135.162 47.335L134.044 44.3938C134.022 44.3369 134.02 44.2741 134.039 44.216C134.057 44.1578 134.096 44.108 134.147 44.0748C135.362 43.2476 138.278 41.3714 139.072 42.1284C139.671 42.669 142.63 46.3618 142.414 47.4432C142.4 47.5278 142.364 47.6072 142.309 47.6729C142.254 47.7386 142.182 47.7881 142.101 47.8162C141.988 47.8554 141.87 47.8755 141.75 47.8757ZM139.687 46.0915C139.724 46.0906 139.76 46.0974 139.793 46.1114C139.827 46.1253 139.857 46.1462 139.882 46.1726C140.395 46.7133 141.399 47.4972 141.917 47.308C142.004 47.0106 140.152 43.8585 138.704 42.5231C138.413 42.2581 136.544 43.1286 134.627 44.4046L135.61 46.9944C138.64 47.3783 139.455 46.2213 139.46 46.2104C139.484 46.1773 139.515 46.1496 139.55 46.1291C139.586 46.1086 139.625 46.0958 139.666 46.0915H139.687Z" fill="#231F20"/>
<path d="M72.6191 44.5723C72.5576 44.5726 72.4979 44.5518 72.4498 44.5135C72.4016 44.4751 72.368 44.4215 72.3545 44.3614C72.3466 44.327 72.3456 44.2913 72.3517 44.2564C72.3578 44.2216 72.3708 44.1883 72.3899 44.1586C72.409 44.1289 72.4339 44.1033 72.4631 44.0833C72.4922 44.0634 72.5251 44.0495 72.5597 44.0424L81.1997 42.1339C81.2691 42.1194 81.3414 42.1328 81.4011 42.1712C81.4607 42.2097 81.5028 42.2701 81.5183 42.3393C81.5263 42.3741 81.5273 42.4102 81.5212 42.4453C81.5152 42.4805 81.5023 42.5142 81.4832 42.5443C81.4641 42.5745 81.4393 42.6006 81.4101 42.6211C81.3809 42.6416 81.3479 42.6561 81.3131 42.6637L72.6731 44.5669L72.6191 44.5723Z" fill="white"/>
<path d="M162.54 50.8224H141.426C141.354 50.8224 141.286 50.7939 141.235 50.7432C141.184 50.6925 141.156 50.6238 141.156 50.5521C141.156 50.4804 141.184 50.4116 141.235 50.3609C141.286 50.3102 141.354 50.2817 141.426 50.2817H162.54C162.611 50.2831 162.679 50.312 162.729 50.3625C162.78 50.4129 162.809 50.4808 162.81 50.5521C162.81 50.6238 162.782 50.6925 162.731 50.7432C162.68 50.7939 162.612 50.8224 162.54 50.8224Z" fill="#231F20"/>
<path d="M172.8 57.781V137.319C172.8 140.26 169.501 142.65 165.418 142.65H55.2582C51.1866 142.65 47.871 140.26 47.871 137.319V57.781C47.871 54.8397 51.1866 52.45 55.2582 52.45H165.418C169.506 52.45 172.8 54.8397 172.8 57.781Z" fill="white"/>
<path d="M165.424 142.92H55.2636C51.0408 142.92 47.6064 140.406 47.6064 137.319V57.7754C47.6064 54.6882 51.0408 52.1794 55.2636 52.1794H165.424C169.641 52.1794 173.075 54.6882 173.075 57.7754V137.319C173.075 140.433 169.641 142.92 165.424 142.92ZM55.2636 52.7201C51.3378 52.7201 48.1464 54.9855 48.1464 57.7754V137.319C48.1464 140.109 51.3378 142.379 55.2636 142.379H165.424C169.344 142.379 172.535 140.109 172.535 137.319V57.7754C172.535 54.9855 169.344 52.7201 165.424 52.7201H55.2636Z" fill="#231F20"/>
<path d="M172.8 57.781V61.9657H47.8927V57.781C47.8927 54.8397 51.2083 52.45 55.2799 52.45H165.44C169.506 52.45 172.8 54.8397 172.8 57.781Z" fill="white"/>
<path d="M172.8 62.2359H47.8926C47.821 62.2359 47.7523 62.2074 47.7016 62.1567C47.651 62.106 47.6226 62.0373 47.6226 61.9656V57.7754C47.6226 54.6882 51.057 52.1794 55.2798 52.1794H165.44C169.657 52.1794 173.092 54.6882 173.092 57.7754V61.9656C173.092 62.003 173.084 62.04 173.069 62.0743C173.054 62.1086 173.032 62.1394 173.005 62.1648C172.978 62.1902 172.945 62.2096 172.91 62.2219C172.875 62.2341 172.837 62.2389 172.8 62.2359ZM48.1572 61.6952H172.535V57.7754C172.535 54.9855 169.344 52.7201 165.424 52.7201H55.2636C51.3378 52.7201 48.1464 54.9855 48.1464 57.7754L48.1572 61.6952Z" fill="#231F20"/>
<path d="M153.182 67.8264H68.742V76.2392H153.182V67.8264Z" fill="white"/>
<path d="M153.182 76.5096H68.742C68.6704 76.5096 68.6017 76.4812 68.5511 76.4305C68.5005 76.3798 68.472 76.311 68.472 76.2393V67.8265C68.472 67.7548 68.5005 67.686 68.5511 67.6353C68.6017 67.5846 68.6704 67.5562 68.742 67.5562H153.182C153.253 67.5575 153.321 67.5865 153.371 67.6369C153.422 67.6873 153.45 67.7552 153.452 67.8265V76.2393C153.452 76.311 153.423 76.3798 153.373 76.4305C153.322 76.4812 153.253 76.5096 153.182 76.5096ZM69.012 75.969H152.912V68.0968H69.012V75.969Z" fill="#231F20"/>
<path d="M153.182 67.8264H141.728V76.2392H153.182V67.8264Z" fill="#F14736"/>
<path d="M153.182 76.5096H141.728C141.657 76.5096 141.588 76.4812 141.537 76.4305C141.487 76.3798 141.458 76.311 141.458 76.2393V67.8265C141.458 67.7548 141.487 67.686 141.537 67.6353C141.588 67.5846 141.657 67.5562 141.728 67.5562H153.182C153.253 67.5575 153.321 67.5865 153.371 67.6369C153.421 67.6873 153.45 67.7552 153.452 67.8265V76.2393C153.452 76.311 153.423 76.3798 153.373 76.4305C153.322 76.4812 153.253 76.5096 153.182 76.5096ZM141.998 75.969H152.912V68.0968H142.02L141.998 75.969Z" fill="#231F20"/>
<path d="M164.862 82.0679H121.284V125.7H164.862V82.0679Z" fill="#E6E7E8"/>
<path d="M107.968 83.1545H59.4918V84.2359H107.968V83.1545Z" fill="#F14736"/>
<path d="M91.7352 86.3877H59.4918V87.469H91.7352V86.3877Z" fill="#F14736"/>
<path d="M111.478 89.6155H59.4918V90.6968H111.478V89.6155Z" fill="#D1D3D4"/>
<path d="M105.187 92.8486H59.4918V93.93H105.187V92.8486Z" fill="#D1D3D4"/>
<path d="M66.7332 96.2981H59.859V96.8388H66.7332V96.2981Z" fill="#D1D3D4"/>
<path d="M72.5436 96.2981H68.742V96.8388H72.5436V96.2981Z" fill="#D1D3D4"/>
<path d="M77.9705 96.2981H74.2985V96.8388H77.9705V96.2981Z" fill="#D1D3D4"/>
<path d="M97.5132 102.673H59.4918V103.754H97.5132V102.673Z" fill="#F14736"/>
<path d="M105.187 105.906H59.4918V106.987H105.187V105.906Z" fill="#F14736"/>
<path d="M90.0558 109.134H59.4918V110.215H90.0558V109.134Z" fill="#D1D3D4"/>
<path d="M99.5598 112.367H59.4918V113.448H99.5598V112.367Z" fill="#D1D3D4"/>
<path d="M63.2934 115.816H59.859V116.357H63.2934V115.816Z" fill="#D1D3D4"/>
<path d="M72.5436 115.816H65.0484V116.357H72.5436V115.816Z" fill="#D1D3D4"/>
<path d="M76.7825 115.816H74.2985V116.357H76.7825V115.816Z" fill="#D1D3D4"/>
<path d="M102.006 122.191H59.4918V123.272H102.006V122.191Z" fill="#F14736"/>
<path d="M107.968 125.424H59.4918V126.505H107.968V125.424Z" fill="#F14736"/>
<path d="M92.6856 128.652H59.4918V129.733H92.6856V128.652Z" fill="#D1D3D4"/>
<path d="M86.8374 131.88H59.4918V132.961H86.8374V131.88Z" fill="#D1D3D4"/>
<path d="M68.796 135.334H59.859V135.875H68.796V135.334Z" fill="#D1D3D4"/>
<path d="M76.1346 135.334H71.0802V135.875H76.1346V135.334Z" fill="#D1D3D4"/>
<path d="M56.2194 58.9866C57.2035 58.9866 58.0014 58.1878 58.0014 57.2024C58.0014 56.217 57.2035 55.4182 56.2194 55.4182C55.2352 55.4182 54.4374 56.217 54.4374 57.2024C54.4374 58.1878 55.2352 58.9866 56.2194 58.9866Z" fill="#F14736"/>
<path d="M61.5763 58.9866C62.5605 58.9866 63.3583 58.1878 63.3583 57.2024C63.3583 56.217 62.5605 55.4182 61.5763 55.4182C60.5921 55.4182 59.7943 56.217 59.7943 57.2024C59.7943 58.1878 60.5921 58.9866 61.5763 58.9866Z" fill="#E6E7E8"/>
<path d="M66.9331 58.9866C67.9172 58.9866 68.7151 58.1878 68.7151 57.2024C68.7151 56.217 67.9172 55.4182 66.9331 55.4182C65.9489 55.4182 65.1511 56.217 65.1511 57.2024C65.1511 58.1878 65.9489 58.9866 66.9331 58.9866Z" fill="#E6E7E8"/>
<path d="M146.092 73.7848C145.563 73.7838 145.052 73.5995 144.644 73.2633C144.236 72.9272 143.957 72.4599 143.855 71.941C143.753 71.4221 143.833 70.8837 144.082 70.4176C144.332 69.9514 144.735 69.5862 145.223 69.3841C145.712 69.1821 146.255 69.1557 146.76 69.3095C147.265 69.4633 147.702 69.7877 147.995 70.2275C148.289 70.6673 148.421 71.1954 148.369 71.7217C148.317 72.2481 148.085 72.7402 147.712 73.1143C147.499 73.3279 147.247 73.4971 146.969 73.6122C146.691 73.7273 146.393 73.7859 146.092 73.7848ZM146.092 69.7568C145.863 69.7557 145.636 69.8001 145.425 69.8874C145.214 69.9746 145.022 70.103 144.86 70.265C144.616 70.509 144.449 70.8202 144.381 71.1591C144.314 71.498 144.348 71.8495 144.48 72.1689C144.611 72.4884 144.835 72.7615 145.122 72.9536C145.409 73.1458 145.746 73.2484 146.092 73.2484C146.437 73.2484 146.774 73.1458 147.061 72.9536C147.348 72.7615 147.572 72.4884 147.704 72.1689C147.835 71.8495 147.87 71.498 147.802 71.1591C147.734 70.8202 147.567 70.509 147.323 70.265C147.161 70.103 146.969 69.9746 146.758 69.8874C146.547 69.8001 146.32 69.7557 146.092 69.7568Z" fill="#231F20"/>
<path d="M149.175 74.8552C149.102 74.855 149.032 74.8258 148.981 74.7741L147.323 73.1142C147.273 73.0637 147.246 72.9957 147.246 72.925C147.246 72.8542 147.273 72.7863 147.323 72.7357C147.348 72.7104 147.378 72.6903 147.411 72.6766C147.443 72.6628 147.479 72.6558 147.514 72.6558C147.55 72.6558 147.585 72.6628 147.618 72.6766C147.651 72.6903 147.681 72.7104 147.706 72.7357L149.364 74.3956C149.401 74.4334 149.426 74.4812 149.436 74.5331C149.446 74.5851 149.441 74.6388 149.421 74.6878C149.401 74.7367 149.367 74.7787 149.323 74.8084C149.279 74.8382 149.228 74.8544 149.175 74.8552Z" fill="#231F20"/>
<path d="M180.533 97.1416H136.193V130.074H180.533V97.1416Z" fill="white"/>
<path d="M180.533 130.344H136.193C136.122 130.344 136.053 130.316 136.002 130.265C135.952 130.214 135.923 130.146 135.923 130.074V97.1417C135.923 97.07 135.952 97.0012 136.002 96.9505C136.053 96.8998 136.122 96.8713 136.193 96.8713H180.533C180.604 96.8727 180.672 96.9017 180.722 96.9521C180.773 97.0025 180.801 97.0704 180.803 97.1417V130.074C180.803 130.146 180.774 130.214 180.724 130.265C180.673 130.316 180.604 130.344 180.533 130.344ZM136.463 129.804H180.263V97.412H136.463V129.804Z" fill="#231F20"/>
<path d="M140.94 123.862H140.886C137.014 123.737 135.95 120.044 135.939 120.007C135.93 119.971 135.927 119.934 135.932 119.898C135.937 119.861 135.949 119.826 135.967 119.794C135.985 119.762 136.01 119.734 136.039 119.712C136.068 119.689 136.101 119.673 136.137 119.663C136.172 119.654 136.209 119.651 136.245 119.656C136.282 119.661 136.317 119.673 136.349 119.691C136.381 119.709 136.409 119.734 136.431 119.763C136.453 119.792 136.47 119.825 136.479 119.861C136.517 120.001 137.457 123.207 140.924 123.321H140.94C142.646 123.321 143.85 118.741 144.909 114.67C145.989 110.453 147.069 106.468 148.824 106.057C149.172 105.96 149.535 105.936 149.893 105.985C150.251 106.034 150.594 106.156 150.903 106.344C152.469 107.333 153.063 110.102 153.781 113.302C154.137 115.119 154.609 116.91 155.196 118.666C156.135 121.272 157.896 122.888 159.591 122.694C161.692 122.45 163.28 119.509 163.825 114.822C165.386 101.456 170.019 99.991 171.925 99.9802H171.995C176.769 99.9802 179.237 102.548 180.792 109.123C180.8 109.158 180.801 109.195 180.795 109.231C180.789 109.267 180.776 109.301 180.757 109.332C180.718 109.395 180.656 109.439 180.584 109.455C180.512 109.472 180.437 109.459 180.375 109.42C180.313 109.381 180.268 109.319 180.252 109.247C178.745 102.894 176.504 100.521 171.979 100.521H171.914C168.215 100.521 165.38 105.928 164.354 114.886C163.771 119.909 162.054 122.953 159.645 123.229C157.707 123.461 155.709 121.694 154.683 118.85C154.09 117.08 153.61 115.274 153.246 113.443C152.598 110.485 151.988 107.696 150.606 106.82C150.358 106.67 150.081 106.574 149.794 106.536C149.507 106.499 149.215 106.522 148.937 106.603C147.49 106.944 146.394 111.134 145.427 114.827C144.18 119.471 143.051 123.862 140.94 123.862Z" fill="#231F20"/>
<path d="M176.402 116.946H170.208C170.136 116.946 170.068 116.918 170.017 116.867C169.966 116.817 169.938 116.748 169.938 116.676C169.938 116.604 169.966 116.536 170.017 116.485C170.068 116.434 170.136 116.406 170.208 116.406H176.402C176.473 116.406 176.542 116.434 176.593 116.485C176.643 116.536 176.672 116.604 176.672 116.676C176.672 116.748 176.643 116.817 176.593 116.867C176.542 116.918 176.473 116.946 176.402 116.946Z" fill="#D1D3D4"/>
<path d="M176.402 119.504H170.208C170.136 119.504 170.068 119.475 170.017 119.425C169.966 119.374 169.938 119.305 169.938 119.233C169.938 119.162 169.966 119.093 170.017 119.042C170.068 118.992 170.136 118.963 170.208 118.963H176.402C176.473 118.963 176.542 118.992 176.593 119.042C176.643 119.093 176.672 119.162 176.672 119.233C176.672 119.305 176.643 119.374 176.593 119.425C176.542 119.475 176.473 119.504 176.402 119.504Z" fill="#D1D3D4"/>
<path d="M173.302 122.05H170.208C170.136 122.05 170.068 122.022 170.017 121.971C169.966 121.92 169.938 121.852 169.938 121.78C169.938 121.708 169.966 121.639 170.017 121.589C170.068 121.538 170.136 121.51 170.208 121.51H173.302C173.374 121.51 173.442 121.538 173.493 121.589C173.544 121.639 173.572 121.708 173.572 121.78C173.572 121.852 173.544 121.92 173.493 121.971C173.442 122.022 173.374 122.05 173.302 122.05Z" fill="#D1D3D4"/>
<path d="M146.88 100.542H140.686C140.615 100.542 140.546 100.514 140.495 100.463C140.445 100.413 140.416 100.344 140.416 100.272C140.416 100.2 140.445 100.132 140.495 100.081C140.546 100.03 140.615 100.002 140.686 100.002H146.88C146.952 100.002 147.02 100.03 147.071 100.081C147.122 100.132 147.15 100.2 147.15 100.272C147.149 100.343 147.12 100.411 147.069 100.462C147.019 100.512 146.951 100.541 146.88 100.542Z" fill="#D1D3D4"/>
<path d="M146.88 103.127H140.686C140.615 103.127 140.546 103.098 140.495 103.048C140.445 102.997 140.416 102.928 140.416 102.857C140.416 102.785 140.445 102.716 140.495 102.665C140.546 102.615 140.615 102.586 140.686 102.586H146.88C146.951 102.588 147.019 102.616 147.069 102.667C147.12 102.717 147.149 102.785 147.15 102.857C147.15 102.928 147.122 102.997 147.071 103.048C147.02 103.098 146.952 103.127 146.88 103.127Z" fill="#D1D3D4"/>
<path d="M143.78 105.662H140.686C140.615 105.662 140.546 105.634 140.495 105.583C140.445 105.533 140.416 105.464 140.416 105.392C140.416 105.32 140.445 105.252 140.495 105.201C140.546 105.15 140.615 105.122 140.686 105.122H143.78C143.852 105.122 143.921 105.15 143.971 105.201C144.022 105.252 144.05 105.32 144.05 105.392C144.05 105.464 144.022 105.533 143.971 105.583C143.921 105.634 143.852 105.662 143.78 105.662Z" fill="#D1D3D4"/>
<path d="M61.9027 103.755L56.5269 101.004L49.9951 113.801L55.3709 116.551L61.9027 103.755Z" fill="#231F20"/>
<path d="M55.3662 116.822C55.3245 116.821 55.2837 116.81 55.2474 116.789L49.8474 114.043C49.8154 114.027 49.7868 114.006 49.7634 113.979C49.74 113.952 49.7223 113.921 49.7112 113.887C49.7001 113.853 49.6959 113.818 49.6989 113.782C49.7019 113.747 49.712 113.712 49.7286 113.681L56.2626 100.883C56.278 100.851 56.2999 100.822 56.3269 100.799C56.3538 100.776 56.3852 100.758 56.4192 100.748C56.4849 100.721 56.5587 100.721 56.6244 100.748L62.0244 103.5C62.0559 103.516 62.084 103.538 62.1068 103.565C62.1297 103.592 62.1469 103.623 62.1574 103.657C62.168 103.691 62.1717 103.726 62.1683 103.762C62.165 103.797 62.1546 103.831 62.1378 103.862L55.62 116.676C55.5854 116.737 55.5297 116.783 55.4634 116.806C55.4326 116.818 55.3994 116.824 55.3662 116.822ZM50.355 113.686L55.2528 116.189L61.56 103.873L56.6676 101.364L50.355 113.686Z" fill="#231F20"/>
<path d="M56.9453 112.773L52.1273 110.307C51.466 109.969 50.656 110.231 50.3181 110.893L39.095 132.881C38.7571 133.543 39.0192 134.354 39.6804 134.692L44.4985 137.158C45.1597 137.496 45.9697 137.234 46.3077 136.571L57.5307 114.584C57.8687 113.922 57.6066 113.111 56.9453 112.773Z" fill="white"/>
<path d="M45.1116 137.578C44.8577 137.579 44.6075 137.518 44.3826 137.4L39.555 134.934C39.1781 134.738 38.8934 134.401 38.7621 133.997C38.6307 133.592 38.6634 133.152 38.853 132.772L50.0796 110.783C50.2756 110.405 50.6119 110.12 51.0159 109.989C51.42 109.857 51.8594 109.89 52.2396 110.08L57.0618 112.545C57.4386 112.742 57.7234 113.078 57.8547 113.483C57.986 113.887 57.9533 114.327 57.7638 114.708L46.548 136.697C46.4123 136.962 46.2065 137.184 45.9532 137.339C45.6998 137.495 45.4087 137.577 45.1116 137.578ZM51.516 110.431C51.4039 110.43 51.2924 110.449 51.1866 110.485C51.0518 110.53 50.9271 110.601 50.8196 110.693C50.7121 110.786 50.624 110.899 50.5602 111.026L39.3336 133.01C39.2068 133.264 39.185 133.558 39.2729 133.828C39.3608 134.098 39.5513 134.323 39.8034 134.453L44.6256 136.919C44.8788 137.046 45.1718 137.069 45.4415 136.982C45.7112 136.895 45.936 136.705 46.0674 136.454L57.294 114.481C57.4208 114.227 57.4426 113.933 57.3547 113.663C57.2667 113.393 57.0762 113.168 56.8242 113.037L52.002 110.572C51.8542 110.485 51.6871 110.437 51.516 110.431Z" fill="#231F20"/>
<path d="M71.5823 77.3855C68.8498 75.9849 65.7636 75.4274 62.7144 75.7837C59.6652 76.1399 56.7902 77.3939 54.4531 79.3869C52.116 81.3799 50.422 84.0223 49.5855 86.9796C48.749 89.937 48.8076 93.0763 49.7538 96.0003C50.7 98.9244 52.4914 101.502 54.9012 103.406C57.3109 105.31 60.2308 106.456 63.2911 106.698C66.3514 106.94 69.4146 106.267 72.0931 104.765C74.7715 103.263 76.9448 101 78.3377 98.2608C80.2021 94.5948 80.5379 90.338 79.2715 86.4245C78.005 82.5109 75.2397 79.2602 71.5823 77.3855ZM59.2649 101.505C57.2307 100.464 55.5504 98.8422 54.4366 96.8451C53.3229 94.848 52.8256 92.565 53.0077 90.2849C53.1899 88.0048 54.0432 85.83 55.4599 84.0355C56.8765 82.241 58.7928 80.9074 60.9665 80.2034C63.1401 79.4994 65.4735 79.4565 67.6714 80.0803C69.8694 80.7041 71.8332 81.9664 73.3146 83.7077C74.796 85.449 75.7284 87.591 75.9939 89.8629C76.2594 92.1348 75.8461 94.4345 74.8061 96.4712C73.4118 99.202 70.9912 101.266 68.0767 102.21C65.1622 103.154 61.9925 102.901 59.2649 101.505Z" fill="white"/>
<path d="M64.5084 107.025C60.5215 107.036 56.6773 105.54 53.7432 102.838C50.8091 100.135 49.001 96.4236 48.6798 92.4448C48.3586 88.4659 49.548 84.5121 52.0105 81.3727C54.473 78.2333 58.0274 76.1392 61.9642 75.5085C65.9011 74.8779 69.9306 75.757 73.2485 77.9704C76.5664 80.1838 78.9285 83.5686 79.8633 87.4492C80.798 91.3298 80.2367 95.4206 78.2913 98.905C76.3459 102.389 73.1596 105.011 69.3684 106.246C67.7994 106.76 66.1592 107.023 64.5084 107.025ZM64.5408 75.9473C62.942 75.9494 61.3533 76.2011 59.832 76.6934C56.2006 77.8768 53.1481 80.3871 51.2833 83.7238C49.4184 87.0605 48.8782 90.9784 49.7703 94.6961C50.6625 98.4139 52.9215 101.658 56.0968 103.783C59.2722 105.907 63.1305 106.755 66.9024 106.157C70.6743 105.559 74.0827 103.56 76.4477 100.558C78.8128 97.5559 79.9608 93.7715 79.6628 89.9596C79.3648 86.1476 77.6427 82.5882 74.8399 79.9911C72.0372 77.394 68.3597 75.9501 64.5408 75.9473ZM64.503 103.046C62.6404 103.046 60.8045 102.603 59.1462 101.753C56.5646 100.436 54.5558 98.2154 53.5006 95.5133C52.4454 92.8112 52.4173 89.8154 53.4216 87.0939C54.4259 84.3725 56.3928 82.1147 58.9492 80.7487C61.5056 79.3827 64.4738 79.0035 67.2909 79.6831C70.1079 80.3626 72.578 82.0536 74.2326 84.4354C75.8872 86.8172 76.6113 89.7242 76.2675 92.605C75.9237 95.4858 74.536 98.1401 72.3676 100.065C70.1991 101.989 67.4007 103.05 64.503 103.046ZM59.4 101.272C61.3851 102.286 63.6256 102.688 65.8388 102.429C68.052 102.169 70.1388 101.259 71.8359 99.8127C73.533 98.3668 74.7644 96.4501 75.3747 94.3043C75.985 92.1584 75.9469 89.8797 75.2652 87.7555C74.578 85.6311 73.2773 83.7583 71.5274 82.3738C69.7774 80.9894 67.6569 80.1553 65.4337 79.9771C63.2105 79.7989 60.9845 80.2845 59.0369 81.3726C57.0892 82.4607 55.5075 84.1024 54.4914 86.0903C53.1375 88.7563 52.8938 91.8509 53.8138 94.6964C54.7338 97.5419 56.7425 99.9065 59.4 101.272Z" fill="#231F20"/>
</svg>
