<svg width="572" height="402" viewBox="0 0 572 402" fill="none" xmlns="http://www.w3.org/2000/svg">
<path d="M485.158 174.603V400.519H68.2037V174.603L276.69 48.4939L485.158 174.603Z" fill="#F1F2F2"/>
<path d="M485.157 401.454H68.1475C67.8995 401.454 67.6617 401.356 67.4863 401.18C67.311 401.005 67.2125 400.767 67.2125 400.519V174.603C67.2135 174.44 67.2572 174.28 67.3392 174.139C67.4212 173.997 67.5387 173.88 67.68 173.799L276.26 47.689C276.406 47.5977 276.574 47.5493 276.746 47.5493C276.918 47.5493 277.086 47.5977 277.232 47.689L485.7 173.799C485.838 173.883 485.951 174.001 486.03 174.142C486.109 174.283 486.149 174.442 486.148 174.603V400.519C486.149 400.647 486.123 400.773 486.072 400.89C486.022 401.008 485.948 401.113 485.855 401.201C485.762 401.289 485.652 401.356 485.532 401.4C485.412 401.444 485.285 401.462 485.157 401.454ZM69.1386 399.584H484.278V175.089L276.709 49.5411L69.1386 175.089V399.584Z" fill="#231F20"/>
<path d="M367.235 80.5402C367.235 80.5402 376.866 62.5433 375.613 50.6077C374.36 38.6721 362.523 36.5394 362.523 36.5394C362.523 36.5394 333.968 21.6667 327.348 11.3586L327.573 26.4372C322.388 24.6462 317.604 21.856 313.492 18.2244C313.492 18.2244 309.041 25.9133 313.847 32.7604C313.847 32.7604 305.432 34.4067 299.897 28.8318C299.897 28.8318 302.72 51.4682 322.673 54.3867C335.819 56.22 352.93 81.4195 367.235 80.5402Z" fill="white"/>
<path d="M366.506 81.4944C358.615 81.4944 350.143 74.3854 341.953 67.5196C334.922 61.6266 328.302 56.0517 322.58 55.2286C302.159 52.2353 299.036 29.0376 298.999 28.8505C298.977 28.6579 299.016 28.4632 299.11 28.2935C299.203 28.1238 299.347 27.9874 299.522 27.9032C299.696 27.8189 299.893 27.791 300.084 27.8233C300.275 27.8556 300.451 27.9465 300.588 28.0835C302.171 29.4888 304.03 30.5476 306.046 31.192C308.062 31.8363 310.191 32.0519 312.295 31.825C308.555 24.9593 312.538 17.8877 312.725 17.5884C312.79 17.4678 312.881 17.3634 312.991 17.2826C313.102 17.2019 313.229 17.147 313.363 17.1219C313.498 17.0967 313.636 17.1021 313.769 17.1375C313.901 17.1729 314.023 17.2375 314.127 17.3265C317.867 20.5264 322.098 23.1036 326.656 24.9593L326.451 11.209C326.443 11.0076 326.504 10.8094 326.622 10.6466C326.741 10.4837 326.911 10.3655 327.105 10.311C327.299 10.2486 327.508 10.2513 327.701 10.3189C327.893 10.3864 328.058 10.5151 328.171 10.6852C334.379 20.3384 360.896 34.4254 362.878 35.4731C364.318 35.7911 375.295 38.5412 376.548 50.4393C377.819 62.6182 368.451 80.2597 368.058 81.008C367.982 81.1475 367.872 81.2654 367.738 81.3505C367.604 81.4356 367.45 81.4851 367.291 81.4944H366.506ZM301.355 31.1329C302.776 36.9697 307.751 51.1502 322.86 53.3765C329.087 54.2932 335.95 60.0178 343.15 66.0791C351.097 72.7391 359.288 79.6236 366.506 79.6236H366.656C368.133 76.7239 375.781 61.1589 374.678 50.6077C373.518 39.383 362.841 37.5122 362.392 37.3626L362.13 37.269C361.027 36.7078 337.147 24.1735 328.358 14.09L328.545 26.3249C328.546 26.4684 328.514 26.6101 328.453 26.7397C328.391 26.8692 328.301 26.9833 328.19 27.0733C328.075 27.1636 327.941 27.2258 327.798 27.2551C327.655 27.2843 327.508 27.2797 327.367 27.2416C322.419 25.5512 317.837 22.9356 313.865 19.534C312.905 21.5136 312.472 23.7082 312.61 25.9045C312.748 28.1008 313.451 30.2241 314.651 32.0683C314.735 32.2004 314.787 32.3504 314.803 32.5062C314.82 32.6621 314.799 32.8195 314.744 32.9662C314.685 33.11 314.59 33.2366 314.47 33.3346C314.349 33.4326 314.205 33.4989 314.053 33.5275C309.67 34.2858 305.161 33.4355 301.355 31.1329Z" fill="#231F20"/>
<path d="M352.425 266.852C352.425 266.852 398.446 211.084 406.057 168.486C413.667 125.888 387.076 116.104 377.801 112.923C368.526 109.743 320.186 89.6883 295.914 107.199C271.641 124.709 247.462 233.945 247.462 233.945L352.425 266.852Z" fill="#F14736"/>
<path d="M186.5 322.358L235.999 260.622C235.999 260.622 270.444 216.677 251.202 211.981C251.202 211.981 224.498 215.461 180.871 230.689C167.912 235.198 145.64 286.682 131.578 322.358H186.5Z" fill="#231F20"/>
<path d="M186.5 323.293H131.485C131.333 323.293 131.183 323.256 131.049 323.184C130.915 323.112 130.802 323.008 130.718 322.882C130.649 322.749 130.613 322.601 130.613 322.451C130.613 322.302 130.649 322.154 130.718 322.021C146.314 282.435 167.632 234.281 180.572 229.773C223.769 214.806 250.809 211.065 251.09 211.065H251.426C252.787 211.306 254.06 211.904 255.114 212.798C256.169 213.692 256.967 214.85 257.429 216.153C261.861 228.875 237.775 259.817 236.747 261.052L187.229 322.788C187.159 322.926 187.056 323.044 186.928 323.133C186.801 323.221 186.654 323.276 186.5 323.293ZM132.962 321.422H186.051L235.12 259.967C235.363 259.668 259.598 228.538 255.522 216.789C255.174 215.807 254.572 214.934 253.777 214.26C252.982 213.587 252.022 213.136 250.996 212.954C248.64 213.272 222.236 217.201 181.04 231.55C171.54 234.861 154.486 266.758 132.868 321.422H132.962Z" fill="#231F20"/>
<path d="M269.397 322.358L281.963 291.733C281.963 291.733 312.631 300.919 333.089 293.211C347.488 287.786 351.883 269.172 358.39 254.093C358.39 254.093 272.37 233.702 253.165 225.395C253.165 225.395 251.969 225.395 229.959 248.518C220.123 258.901 212.287 290.536 206.64 322.358H269.397Z" fill="#231F20"/>
<path d="M269.397 323.293H206.64C206.501 323.295 206.363 323.265 206.237 323.207C206.111 323.149 205.999 323.063 205.91 322.956C205.827 322.852 205.765 322.732 205.73 322.603C205.694 322.475 205.686 322.34 205.705 322.208C212.886 281.799 220.833 256.73 229.285 247.882C251.576 224.385 252.773 224.441 253.203 224.459C253.314 224.442 253.428 224.442 253.539 224.459C272.52 232.803 357.754 252.989 358.54 253.195C358.671 253.227 358.794 253.288 358.901 253.371C359.007 253.455 359.095 253.561 359.157 253.681C359.213 253.805 359.242 253.938 359.242 254.074C359.242 254.209 359.213 254.343 359.157 254.467C357.942 257.273 356.782 260.266 355.66 263.147C350.63 276.112 345.412 289.525 333.314 294.09C314.427 301.199 287.536 294.277 282.412 292.855L270.164 322.788C270.092 322.932 269.983 323.055 269.848 323.143C269.714 323.232 269.558 323.284 269.397 323.293ZM207.687 321.422H268.78L281.122 291.377C281.206 291.162 281.368 290.987 281.576 290.886C281.785 290.785 282.023 290.767 282.244 290.835C282.562 290.835 312.856 299.833 332.734 292.331C343.954 288.085 349.096 275.064 353.996 262.399C354.987 259.836 356.015 257.198 357.081 254.673C347.152 252.297 271.978 234.225 253.24 226.368C252.174 227.172 247.761 231.045 230.613 249.098C222.628 257.61 214.718 282.585 207.743 321.422H207.687Z" fill="#231F20"/>
<path d="M295.914 107.199C295.914 107.199 275.344 129.648 263.862 140.873C252.38 152.098 229.865 166.634 229.865 166.634C229.865 166.634 162.732 172.04 162.022 173.107C161.311 174.173 162.022 196.473 162.022 196.473C162.022 196.473 227.621 209.063 239.589 206.893C251.557 204.723 279.794 185.734 279.794 185.734L295.914 107.199Z" fill="#F14736"/>
<path d="M324.487 96.0485L322.412 117.17C322.412 117.17 326.152 129.292 340.401 127.122C354.65 124.952 357.231 115.187 357.231 115.187L366.469 73.9171C366.469 73.9171 357.923 67.7435 349.863 43.6104C349.863 43.6104 320.093 37.9981 319.064 49.4847C319.064 49.4847 313.192 70.0633 313.623 80.9325C314.015 91.5025 324.3 95.8801 324.487 96.0485Z" fill="white"/>
<path d="M337.129 128.32C333.725 128.345 330.397 127.313 327.603 125.366C324.81 123.419 322.689 120.654 321.533 117.451C321.505 117.334 321.505 117.212 321.533 117.096L323.515 96.517C316.839 92.8877 312.949 87.1631 312.706 80.8772C312.276 69.9518 317.942 49.9906 318.185 49.0739C318.278 48.1272 318.575 47.212 319.056 46.3915C319.538 45.5711 320.191 44.865 320.972 44.3221C328.452 38.5975 349.19 42.4513 350.05 42.4513C350.217 42.4844 350.372 42.5606 350.5 42.6721C350.628 42.7837 350.724 42.9269 350.78 43.0874C358.596 66.5283 366.955 72.8703 367.049 73.0199C367.192 73.1292 367.301 73.2767 367.364 73.4456C367.427 73.6144 367.441 73.7976 367.404 73.974L358.166 115.244C358.035 115.711 355.174 125.664 340.569 127.909C339.434 128.127 338.284 128.264 337.129 128.32ZM323.365 117.096C323.889 118.555 327.816 128.133 340.195 126.225C353.603 124.167 356.24 115 356.259 115L365.366 74.3482C363.402 72.6458 356.016 65.2375 349.078 44.4156C345.787 43.8544 328.283 41.1605 322 45.931C321.409 46.3415 320.916 46.8783 320.557 47.5027C320.198 48.1272 319.982 48.8235 319.925 49.5416C319.925 49.9157 314.071 70.1202 314.483 80.8585C314.801 88.828 320.972 93.187 324.618 95.0578C324.778 95.1344 324.928 95.2285 325.067 95.3384C325.17 95.4358 325.249 95.5558 325.297 95.6889C325.346 95.822 325.363 95.9646 325.348 96.1054L323.365 117.096Z" fill="#231F20"/>
<path d="M356.221 74.6285C356.862 72.7635 358.089 71.1559 359.718 70.0451C362.165 68.247 365.225 67.4934 368.227 67.9498C371.686 68.9226 373.444 73.1506 372.696 76.6677C372.232 78.7758 371.241 80.7316 369.815 82.3514C368.389 83.9712 366.575 85.2019 364.543 85.928C363.144 86.3418 361.677 86.4755 360.227 86.3214C358.777 86.1673 357.371 85.7285 356.09 85.0301" fill="white"/>
<path d="M361.42 87.3125C359.401 87.3222 357.413 86.8201 355.641 85.8533C355.533 85.7943 355.438 85.7147 355.361 85.6188C355.283 85.523 355.226 85.4129 355.191 85.2947C355.156 85.1766 355.145 85.0528 355.158 84.9304C355.171 84.8079 355.209 84.6893 355.267 84.5812C355.326 84.4731 355.406 84.3777 355.502 84.3004C355.598 84.223 355.708 84.1654 355.826 84.1306C355.944 84.0959 356.068 84.0848 356.19 84.0979C356.312 84.111 356.431 84.1481 356.539 84.207C358.91 85.4916 361.693 85.7874 364.281 85.0302C366.147 84.3512 367.811 83.2114 369.119 81.7167C370.426 80.222 371.335 78.4209 371.761 76.4807C372.378 73.5435 370.975 69.6897 368.021 68.8666C366.671 68.6531 365.292 68.7084 363.963 69.0295C362.635 69.3505 361.383 69.9309 360.279 70.7374C358.816 71.7226 357.719 73.1625 357.156 74.8344C357.077 75.0825 356.902 75.2888 356.671 75.4081C356.439 75.5274 356.17 75.5498 355.922 75.4704C355.674 75.3911 355.468 75.2164 355.348 74.9848C355.229 74.7533 355.207 74.4838 355.286 74.2357C355.989 72.1788 357.341 70.4061 359.138 69.1846C360.466 68.202 361.979 67.4983 363.586 67.1157C365.193 66.7331 366.86 66.6796 368.488 66.9584C372.565 68.0808 374.435 72.9449 373.631 76.7613C373.151 79.064 372.087 81.2044 370.541 82.9769C368.995 84.7494 367.02 86.0942 364.804 86.8822C363.704 87.1921 362.563 87.3372 361.42 87.3125Z" fill="#231F20"/>
<path d="M335.371 64.283C335.371 64.283 326.806 74.2168 328.302 76.3121C329.798 78.4074 334.754 77.7339 334.754 77.7339" fill="white"/>
<path d="M333.014 78.7815C332.02 78.8892 331.014 78.7775 330.067 78.4543C329.121 78.131 328.256 77.6042 327.535 76.9108C325.871 74.5723 331.275 67.5568 334.66 63.8153C334.829 63.6624 335.049 63.5768 335.277 63.5745C335.505 63.5722 335.726 63.6535 335.899 63.803C336.071 63.9525 336.183 64.1599 336.213 64.3861C336.243 64.6123 336.19 64.8418 336.062 65.0313C331.948 69.8205 328.676 74.909 329.069 75.938C329.91 77.0978 332.94 77.1727 334.679 76.9482C334.927 76.9159 335.177 76.9835 335.375 77.1362C335.574 77.2888 335.703 77.5139 335.735 77.762C335.767 78.01 335.7 78.2608 335.547 78.459C335.395 78.6572 335.17 78.7867 334.922 78.819C334.286 78.8426 333.649 78.8301 333.014 78.7815Z" fill="#231F20"/>
<path d="M350.93 63.0252C351.154 61.638 350.542 60.3851 349.564 60.2267C348.585 60.0683 347.61 61.0644 347.385 62.4515C347.161 63.8386 347.772 65.0916 348.751 65.25C349.73 65.4084 350.705 64.4123 350.93 63.0252Z" fill="#231F20"/>
<path d="M327.531 63.9233C328.522 63.8888 329.286 62.7225 329.237 61.3182C329.188 59.9138 328.346 58.8033 327.355 58.8378C326.364 58.8722 325.6 60.0386 325.649 61.4429C325.698 62.8472 326.54 63.9577 327.531 63.9233Z" fill="#231F20"/>
<path d="M324.487 96.0488C324.487 96.0488 337.315 100.37 345.487 96.7036C345.487 96.7036 335.202 113.541 323.047 110.529L324.487 96.0488Z" fill="#231F20"/>
<path d="M326.077 111.838C324.986 111.843 323.899 111.711 322.842 111.445C322.626 111.389 322.437 111.259 322.307 111.078C322.177 110.897 322.115 110.676 322.131 110.454L323.552 95.9737C323.565 95.8323 323.608 95.6955 323.679 95.5726C323.75 95.4498 323.847 95.3441 323.964 95.2628C324.089 95.2029 324.226 95.1719 324.366 95.1719C324.505 95.1719 324.642 95.2029 324.768 95.2628C324.899 95.2628 337.371 99.4159 345.113 95.9362C345.297 95.8583 345.5 95.8398 345.695 95.8834C345.889 95.9271 346.065 96.0306 346.198 96.1795C346.315 96.3397 346.378 96.5329 346.378 96.7313C346.378 96.9297 346.315 97.123 346.198 97.2832C345.899 97.8444 337.222 111.838 326.077 111.838ZM324.076 109.799C332.472 111.277 339.971 102.727 343.112 98.5741C336.399 100.22 328.246 98.2186 325.291 97.358L324.076 109.799Z" fill="#231F20"/>
<path d="M324.656 68.0057H324.039L317.138 67.4631C315.162 67.3056 313.33 66.3699 312.043 64.8616C310.756 63.3533 310.12 61.3957 310.275 59.4187L310.724 53.8064C310.748 53.5614 310.867 53.3356 311.056 53.178C311.245 53.0204 311.489 52.9437 311.734 52.9645L331.668 54.536C331.915 54.5628 332.143 54.6833 332.304 54.8727C332.385 54.9638 332.447 55.0706 332.486 55.1864C332.524 55.3022 332.539 55.4246 332.528 55.5462L332.08 61.1586C331.924 63.0344 331.068 64.7827 329.682 66.0552C328.296 67.3277 326.481 68.0308 324.6 68.0244L324.656 68.0057ZM312.519 54.9102L312.145 59.5123C312.032 60.9927 312.509 62.4578 313.473 63.5868C314.437 64.7159 315.809 65.4168 317.288 65.5362L324.188 66.0787C324.921 66.1465 325.66 66.0654 326.36 65.8404C327.061 65.6153 327.709 65.251 328.265 64.7692C329.382 63.8256 330.086 62.4831 330.228 61.0276L330.584 56.4255L312.519 54.9102Z" fill="#231F20"/>
<path d="M349.452 70.0448H348.835L341.934 69.4836C339.958 69.3261 338.126 68.3904 336.839 66.8821C335.552 65.3738 334.916 63.4162 335.071 61.4393L335.52 55.8269C335.53 55.7039 335.563 55.584 335.619 55.4741C335.675 55.3642 335.752 55.2664 335.846 55.1865C335.94 55.1065 336.049 55.0459 336.166 55.0081C336.283 54.9703 336.407 54.9561 336.53 54.9664L356.464 56.5565C356.585 56.566 356.702 56.5991 356.81 56.6542C356.917 56.7092 357.013 56.7849 357.091 56.8771C357.169 56.9693 357.229 57.076 357.265 57.1911C357.302 57.3063 357.316 57.4276 357.306 57.548L356.876 63.1604C356.725 65.0395 355.871 66.7924 354.484 68.0688C353.097 69.3452 351.28 70.0509 349.396 70.0448H349.452ZM348.984 68.1741C350.465 68.2887 351.931 67.811 353.061 66.8458C354.143 65.8863 354.813 64.5459 354.931 63.1042L355.305 58.5021L337.297 56.9494L336.941 61.5328C336.828 63.0132 337.305 64.4783 338.269 65.6073C339.233 66.7364 340.605 67.4373 342.084 67.5567L348.984 68.1741Z" fill="#231F20"/>
<path d="M336.1 60.3543L331.238 59.9614C331.115 59.952 330.995 59.9183 330.885 59.8623C330.775 59.8064 330.678 59.7292 330.598 59.6353C330.518 59.5414 330.457 59.4326 330.42 59.3152C330.382 59.1978 330.368 59.0741 330.378 58.9512C330.406 58.7065 330.526 58.4816 330.713 58.3219C330.901 58.1622 331.142 58.0795 331.388 58.0906L336.25 58.4835C336.498 58.4835 336.735 58.582 336.911 58.7574C337.086 58.9329 337.185 59.1708 337.185 59.4189C337.185 59.667 337.086 59.9049 336.911 60.0803C336.735 60.2557 336.498 60.3543 336.25 60.3543H336.1Z" fill="#231F20"/>
<path d="M333.089 93.355C327.236 93.355 322.617 88.8277 320.766 83.5521C320.716 83.4046 320.703 83.247 320.729 83.0934C320.755 82.9399 320.819 82.7953 320.915 82.6728C320.998 82.5432 321.116 82.4395 321.255 82.3734C321.394 82.3072 321.548 82.2814 321.701 82.2986C329.681 82.7166 337.66 81.4415 345.113 78.5571C345.261 78.4922 345.423 78.4667 345.584 78.4831C345.744 78.4995 345.898 78.5572 346.03 78.6506C346.164 78.7432 346.271 78.87 346.34 79.0181C346.41 79.1661 346.438 79.3298 346.422 79.4924C346.422 79.9227 345.45 90.1934 336.418 92.775C335.342 93.1289 334.221 93.3242 333.089 93.355ZM323.01 84.2255C324.973 88.36 329.517 92.906 335.857 91.0726C341.691 89.4076 343.636 83.7578 344.253 80.9891C337.426 83.3446 330.228 84.4412 323.01 84.2255Z" fill="#231F20"/>
<path d="M401.756 130.247C412.639 135.354 430.31 255.01 411.106 263.073C381.185 275.551 300.196 233.14 300.196 233.14L316.128 201.767C316.128 201.767 371.144 218.155 374.958 206.968C378.773 195.781 359.886 134.251 366.319 127.553C372.752 120.856 401.756 130.247 401.756 130.247Z" fill="#F14736"/>
<path d="M319.139 214.432C309.778 212.523 300.654 209.593 291.93 205.696C285.236 202.497 279.458 199.429 271.996 197.82C262.738 195.808 253.197 195.454 243.815 196.772C243.436 196.802 243.071 196.924 242.749 197.127C241.646 198.063 243.273 199.672 244.619 200.102C248.261 201.173 252.044 201.69 255.839 201.636C246.243 202.521 236.808 204.692 227.789 208.09C226.761 208.483 225.545 209.213 225.714 210.279C225.882 211.345 227.677 211.663 228.949 211.458L251.202 207.716C245.514 208.392 239.978 210.011 234.821 212.505C234.091 212.861 233.25 213.385 233.212 214.208C233.212 215.629 235.195 215.891 236.597 215.611C243.425 214.232 250.12 212.26 256.606 209.718L241.852 215.798C241.784 216.05 241.768 216.312 241.803 216.571C241.838 216.829 241.925 217.078 242.057 217.302C242.189 217.527 242.365 217.723 242.574 217.879C242.782 218.035 243.02 218.148 243.273 218.211C244.305 218.409 245.371 218.325 246.358 217.968L262.123 213.74L252.006 217.482C250.416 218.061 248.49 219.147 248.752 220.83C249.051 222.813 251.8 222.963 253.782 222.701C261.623 221.53 269.57 221.235 277.475 221.822C280.374 221.99 283.272 221.504 286.04 222.346C290.023 223.562 294.044 226.443 297.746 228.388C303.543 231.419 309.321 234.506 315.1 237.592" fill="white"/>
<path d="M315.174 238.304C315.031 238.309 314.89 238.276 314.763 238.21C309.003 235.129 303.219 232.061 297.409 229.006C296.25 228.407 295.053 227.696 293.838 226.967C291.333 225.36 288.654 224.042 285.853 223.038C284.086 222.606 282.263 222.449 280.449 222.57C279.457 222.57 278.485 222.57 277.494 222.57C269.65 221.984 261.766 222.279 253.988 223.449C252.324 223.802 250.59 223.557 249.089 222.757C248.786 222.538 248.532 222.259 248.342 221.937C248.152 221.615 248.031 221.258 247.985 220.887C247.911 220.369 247.974 219.841 248.168 219.355C248.362 218.869 248.679 218.443 249.089 218.118L246.658 218.773C245.513 219.189 244.273 219.267 243.086 218.997C242.681 218.866 242.306 218.654 241.985 218.374C241.663 218.095 241.402 217.753 241.216 217.369C241.085 217.075 241.017 216.756 241.017 216.434C241.017 216.112 241.085 215.793 241.216 215.499C239.776 215.835 238.355 216.153 236.915 216.453C236.282 216.612 235.622 216.637 234.978 216.528C234.334 216.418 233.72 216.176 233.175 215.817C232.94 215.615 232.755 215.361 232.635 215.075C232.515 214.789 232.463 214.48 232.483 214.17C232.483 212.711 234.016 212 234.559 211.738L235.643 211.233L229.192 212.318C228.054 212.569 226.864 212.396 225.845 211.832C225.615 211.667 225.42 211.459 225.272 211.218C225.125 210.977 225.027 210.708 224.984 210.429C224.872 209.68 224.984 208.277 227.602 207.323C234.214 204.784 241.06 202.904 248.041 201.711C246.84 201.535 245.648 201.297 244.47 201C243.817 200.82 243.217 200.485 242.722 200.022C242.227 199.559 241.851 198.983 241.627 198.344C241.566 198.017 241.593 197.681 241.705 197.369C241.816 197.057 242.009 196.78 242.263 196.566C242.697 196.254 243.208 196.067 243.74 196.024C253.221 194.679 262.865 195.034 272.221 197.071C278.398 198.587 284.36 200.875 289.967 203.881L292.36 205.022C300.998 208.832 310.02 211.705 319.27 213.59C319.49 213.644 319.68 213.782 319.799 213.974C319.918 214.167 319.956 214.399 319.906 214.619C319.881 214.73 319.835 214.834 319.77 214.926C319.705 215.018 319.622 215.096 319.526 215.155C319.43 215.215 319.323 215.254 319.212 215.271C319.1 215.289 318.986 215.283 318.877 215.255C309.464 213.317 300.286 210.376 291.5 206.481L289.107 205.322C283.615 202.387 277.78 200.15 271.734 198.662C262.576 196.657 253.133 196.308 243.853 197.633C243.635 197.632 243.422 197.69 243.236 197.801C243.236 198.325 244.04 199.036 244.825 199.279C248.383 200.318 252.077 200.823 255.783 200.776C255.987 200.806 256.174 200.909 256.308 201.065C256.443 201.221 256.517 201.42 256.517 201.627C256.517 201.833 256.443 202.033 256.308 202.189C256.174 202.345 255.987 202.448 255.783 202.478C246.276 203.37 236.931 205.528 227.995 208.895C227.247 209.175 226.387 209.68 226.462 210.148C226.468 210.204 226.486 210.258 226.515 210.307C226.544 210.355 226.583 210.397 226.63 210.429C227.281 210.723 228.012 210.789 228.706 210.616L245.928 207.697C247.602 207.326 249.293 207.039 250.996 206.837C251.218 206.815 251.44 206.878 251.617 207.013C251.794 207.149 251.913 207.347 251.95 207.566C251.982 207.789 251.926 208.016 251.793 208.198C251.66 208.38 251.461 208.502 251.239 208.539L246.246 209.381C242.368 210.229 238.602 211.529 235.026 213.254C234.11 213.703 233.904 214.039 233.904 214.227C233.898 214.279 233.905 214.332 233.925 214.381C233.944 214.43 233.976 214.473 234.016 214.507C234.704 214.857 235.495 214.944 236.242 214.75C243.032 213.382 249.689 211.422 256.139 208.895C256.347 208.814 256.579 208.818 256.785 208.905C256.991 208.992 257.155 209.156 257.242 209.362C257.323 209.574 257.32 209.808 257.233 210.018C257.146 210.227 256.982 210.394 256.774 210.485L242.45 216.397C242.426 216.476 242.426 216.561 242.45 216.64C242.617 216.982 242.913 217.245 243.273 217.369C244.151 217.529 245.057 217.445 245.891 217.126L261.655 212.88C261.86 212.846 262.069 212.888 262.246 212.998C262.422 213.107 262.553 213.276 262.614 213.474C262.675 213.672 262.663 213.886 262.58 214.075C262.496 214.265 262.347 214.419 262.16 214.507L252.062 218.249C251.183 218.567 249.163 219.446 249.35 220.662C249.369 220.804 249.417 220.94 249.491 221.063C249.565 221.185 249.663 221.291 249.781 221.373C250.901 221.919 252.178 222.058 253.39 221.766C261.297 220.571 269.314 220.269 277.288 220.868C278.223 220.868 279.158 220.868 280.112 220.868C282.104 220.734 284.105 220.917 286.04 221.41C288.974 222.436 291.774 223.812 294.38 225.507C295.577 226.2 296.755 226.892 297.896 227.49C303.693 230.534 309.477 233.602 315.249 236.695C315.35 236.746 315.44 236.817 315.513 236.904C315.586 236.99 315.64 237.091 315.674 237.199C315.707 237.307 315.718 237.421 315.706 237.534C315.694 237.646 315.66 237.756 315.605 237.855C315.525 238.055 315.371 238.216 315.174 238.304Z" fill="#231F20"/>
<path d="M299.336 118.218C295.465 120.481 274.708 167.176 265.676 189.457L299.336 118.218Z" fill="white"/>
<path d="M265.732 190.317C265.591 190.318 265.452 190.284 265.327 190.219C265.203 190.153 265.096 190.058 265.017 189.942C264.937 189.826 264.888 189.692 264.872 189.551C264.857 189.411 264.876 189.27 264.928 189.139C273.1 168.878 294.492 120.051 298.906 117.469C299.003 117.406 299.112 117.363 299.226 117.343C299.34 117.323 299.457 117.326 299.57 117.352C299.683 117.378 299.789 117.427 299.883 117.495C299.976 117.564 300.055 117.65 300.114 117.75C300.174 117.85 300.212 117.96 300.228 118.075C300.243 118.19 300.235 118.307 300.204 118.419C300.174 118.531 300.121 118.635 300.048 118.726C299.976 118.817 299.886 118.892 299.785 118.947C296.475 120.818 276.727 164.463 266.517 189.775C266.457 189.934 266.349 190.071 266.209 190.168C266.069 190.265 265.902 190.317 265.732 190.317Z" fill="#231F20"/>
<path d="M151.344 207.997L150.278 217.5L271.547 269.751L271.921 259.761L151.344 207.997Z" fill="white"/>
<path d="M271.547 270.687C271.424 270.715 271.296 270.715 271.173 270.687L149.904 218.436C149.718 218.356 149.562 218.218 149.461 218.043C149.36 217.867 149.319 217.664 149.343 217.463L150.409 207.959C150.423 207.814 150.474 207.675 150.555 207.554C150.637 207.433 150.747 207.335 150.876 207.267C151.006 207.198 151.15 207.162 151.297 207.162C151.444 207.162 151.588 207.198 151.718 207.267L272.295 258.994C272.47 259.068 272.618 259.193 272.719 259.354C272.819 259.515 272.867 259.703 272.856 259.892L272.482 269.882C272.474 270.037 272.429 270.187 272.351 270.32C272.273 270.453 272.164 270.566 272.034 270.649C271.878 270.706 271.71 270.719 271.547 270.687ZM151.269 216.92L270.65 268.348L270.968 260.341L152.129 209.325L151.269 216.92Z" fill="#231F20"/>
<path d="M151.344 207.997C151.344 207.997 186.668 191.048 187.566 191.534C188.463 192.021 313.398 242.045 313.398 242.045L271.921 259.762L151.344 207.997Z" fill="white"/>
<path d="M271.922 260.697C271.798 260.723 271.671 260.723 271.548 260.697L150.97 208.857C150.806 208.785 150.665 208.668 150.566 208.519C150.466 208.369 150.412 208.195 150.409 208.015C150.403 207.836 150.449 207.66 150.542 207.507C150.635 207.354 150.771 207.231 150.933 207.155C186.706 189.981 187.491 190.411 188.015 190.711C189.885 191.552 312.519 240.679 313.753 241.222C313.927 241.288 314.076 241.406 314.18 241.56C314.284 241.714 314.337 241.896 314.333 242.082C314.336 242.265 314.285 242.445 314.185 242.599C314.085 242.752 313.941 242.872 313.772 242.943L272.296 260.659C272.175 260.698 272.047 260.711 271.922 260.697ZM153.607 207.94L271.922 258.751L310.948 242.157C291.65 234.412 193.587 195.144 187.416 192.563C184.985 193.124 166.285 201.879 153.607 207.94Z" fill="#231F20"/>
<path d="M271.547 269.751L311.846 250.987L313.398 242.045L271.921 259.761L271.547 269.751Z" fill="white"/>
<path d="M271.547 270.687C271.361 270.695 271.178 270.642 271.024 270.537C270.887 270.45 270.777 270.327 270.705 270.182C270.632 270.037 270.6 269.876 270.612 269.714L270.986 259.724C270.997 259.549 271.055 259.38 271.154 259.235C271.252 259.09 271.388 258.975 271.547 258.901L313.043 241.184C313.195 241.117 313.364 241.094 313.529 241.117C313.694 241.14 313.849 241.209 313.978 241.315C314.115 241.416 314.219 241.555 314.279 241.715C314.339 241.874 314.351 242.047 314.314 242.213L312.781 251.137C312.752 251.285 312.69 251.424 312.599 251.544C312.508 251.663 312.391 251.761 312.257 251.829L271.94 270.537C271.822 270.615 271.688 270.666 271.547 270.687ZM272.838 260.397L272.52 268.348L311.004 250.426L312.164 243.654L272.838 260.397Z" fill="#231F20"/>
<path d="M151.344 207.997L148.857 120.201L275.811 178.513L271.922 259.761L151.344 207.997Z" fill="white"/>
<path d="M271.922 260.697C271.798 260.723 271.671 260.723 271.548 260.697L150.97 208.857C150.804 208.788 150.663 208.671 150.563 208.521C150.463 208.371 150.409 208.195 150.409 208.015L147.903 120.22C147.9 120.06 147.938 119.902 148.013 119.761C148.089 119.62 148.199 119.501 148.333 119.415C148.47 119.338 148.625 119.298 148.782 119.298C148.939 119.298 149.094 119.338 149.231 119.415L276.26 177.671C276.43 177.744 276.573 177.868 276.67 178.025C276.767 178.182 276.813 178.366 276.802 178.551L272.913 259.799C272.906 259.949 272.864 260.095 272.789 260.226C272.714 260.356 272.609 260.466 272.483 260.547C272.319 260.662 272.12 260.715 271.922 260.697ZM152.241 207.361L271.043 258.377L274.783 179.093L149.829 121.679L152.241 207.361Z" fill="#231F20"/>
<path d="M339.522 255.253C339.392 255.279 339.259 255.279 339.129 255.253L313.454 243.411C313.257 243.321 313.097 243.166 313.001 242.972C312.906 242.777 312.881 242.556 312.93 242.345L320.691 209.868C320.741 209.634 320.88 209.428 321.079 209.295C321.278 209.162 321.522 209.113 321.757 209.157L371.948 217.201L370.302 137.618C370.297 137.495 370.317 137.371 370.361 137.256C370.405 137.14 370.471 137.035 370.557 136.946C370.642 136.857 370.745 136.786 370.859 136.737C370.973 136.689 371.095 136.664 371.218 136.664C371.462 136.669 371.694 136.766 371.868 136.937C372.042 137.107 372.144 137.337 372.153 137.581L373.818 218.286C373.819 218.423 373.79 218.557 373.731 218.681C373.673 218.804 373.587 218.912 373.481 218.997C373.381 219.087 373.261 219.154 373.132 219.193C373.003 219.232 372.867 219.242 372.733 219.222L322.243 211.14L314.857 242.027L339.84 253.382C339.951 253.433 340.052 253.505 340.135 253.594C340.218 253.684 340.283 253.79 340.325 253.905C340.366 254.02 340.385 254.142 340.379 254.265C340.372 254.387 340.342 254.507 340.289 254.617C340.236 254.786 340.135 254.935 339.999 255.048C339.863 255.161 339.697 255.232 339.522 255.253Z" fill="#231F20"/>
<path d="M117.011 322.358C112.653 319.066 107.436 317.326 103.752 322.358H117.011Z" fill="white"/>
<path d="M117.011 323.218H103.752C103.594 323.216 103.44 323.172 103.305 323.089C103.17 323.007 103.06 322.89 102.986 322.75C102.903 322.615 102.859 322.46 102.859 322.301C102.859 322.143 102.903 321.987 102.986 321.852C103.584 320.951 104.361 320.183 105.268 319.594C106.175 319.005 107.193 318.608 108.259 318.429C110.971 318.017 114.075 319.121 117.459 321.684C117.6 321.794 117.704 321.944 117.758 322.114C117.811 322.285 117.812 322.467 117.759 322.638C117.7 322.795 117.599 322.932 117.467 323.035C117.335 323.137 117.177 323.201 117.011 323.218ZM105.66 321.515H114.168C112.501 320.449 110.531 319.957 108.558 320.112C107.476 320.287 106.468 320.774 105.66 321.515Z" fill="#231F20"/>
<path d="M212.549 294.259H212.399C212.157 294.217 211.941 294.082 211.797 293.883C211.654 293.683 211.595 293.435 211.633 293.192C211.782 292.257 215.373 270.294 222.31 259.144C222.449 258.955 222.654 258.825 222.884 258.78C223.114 258.735 223.352 258.778 223.552 258.9C223.752 259.022 223.899 259.215 223.963 259.441C224.027 259.666 224.005 259.907 223.9 260.117C217.224 270.949 213.503 293.267 213.465 293.492C213.43 293.708 213.317 293.904 213.149 294.045C212.981 294.186 212.768 294.262 212.549 294.259Z" fill="white"/>
<path d="M328.115 131.201L330.022 137.599L306.18 186.726L312.968 204.292L327.853 191.59L333.968 137.561L337.128 134.306L333.875 128.862L328.115 131.201Z" fill="#231F20"/>
<path d="M485.158 174.603V400.519H68.2037V174.603L276.69 316.633L485.158 174.603Z" fill="white"/>
<path d="M485.157 401.454H68.1475C67.8995 401.454 67.6617 401.356 67.4863 401.18C67.311 401.005 67.2125 400.767 67.2125 400.519V174.603C67.2117 174.432 67.2586 174.265 67.3478 174.12C67.437 173.974 67.565 173.857 67.7174 173.78C67.8646 173.693 68.0325 173.647 68.2036 173.647C68.3747 173.647 68.5426 173.693 68.6898 173.78L276.634 315.473L484.578 173.78C484.721 173.692 484.886 173.646 485.055 173.646C485.223 173.646 485.388 173.692 485.532 173.78C485.685 173.855 485.815 173.972 485.904 174.118C485.993 174.264 486.039 174.432 486.036 174.603V400.519C486.037 400.758 485.946 400.987 485.783 401.161C485.619 401.335 485.396 401.44 485.157 401.454ZM69.1386 399.584H484.279V176.362L277.27 317.419C277.113 317.519 276.932 317.572 276.746 317.572C276.56 317.572 276.379 317.519 276.222 317.419L69.1386 176.362V399.584Z" fill="#231F20"/>
<path d="M276.69 317.568C276.505 317.568 276.324 317.516 276.167 317.419L67.6803 175.37C67.4783 175.23 67.3396 175.016 67.2941 174.775C67.2486 174.533 67.3 174.283 67.4372 174.079C67.5777 173.873 67.7935 173.73 68.0382 173.681C68.2829 173.632 68.5371 173.681 68.7462 173.817L276.69 315.511L484.634 173.817C484.84 173.682 485.092 173.634 485.333 173.683C485.575 173.732 485.787 173.874 485.924 174.079C485.995 174.18 486.044 174.293 486.07 174.413C486.096 174.532 486.098 174.656 486.075 174.776C486.052 174.896 486.006 175.011 485.938 175.113C485.871 175.215 485.783 175.303 485.681 175.37L277.214 317.419C277.055 317.513 276.875 317.565 276.69 317.568Z" fill="#231F20"/>
<path d="M68.2037 400.519L276.671 270.518L485.158 400.519H68.2037Z" fill="white"/>
<path d="M485.158 401.455H68.1475C67.9452 401.455 67.7483 401.389 67.5865 401.267C67.4247 401.146 67.3065 400.975 67.2499 400.781C67.1923 400.586 67.2014 400.376 67.2759 400.187C67.3504 399.997 67.486 399.837 67.6613 399.733L276.26 269.733C276.409 269.642 276.581 269.594 276.755 269.594C276.93 269.594 277.102 269.642 277.251 269.733L485.7 399.733C485.875 399.837 486.011 399.997 486.085 400.187C486.16 400.376 486.169 400.586 486.111 400.781C486.052 400.985 485.926 401.163 485.752 401.285C485.579 401.407 485.369 401.467 485.158 401.455ZM71.4761 399.584H481.96L276.765 271.622L71.4761 399.584Z" fill="#231F20"/>
<path d="M499.352 288.294L382.803 318.101L399.319 382.735L515.868 352.928L499.352 288.294Z" fill="#F14736"/>
<path d="M399.325 383.682C399.155 383.676 398.988 383.632 398.838 383.551C398.631 383.415 398.478 383.209 398.408 382.971L381.896 318.335C381.839 318.095 381.877 317.842 382.002 317.629C382.128 317.416 382.331 317.26 382.569 317.194L499.126 287.393C499.356 287.308 499.608 287.308 499.837 287.393C499.945 287.454 500.039 287.538 500.113 287.638C500.187 287.737 500.24 287.851 500.267 287.973L516.779 352.608C516.81 352.727 516.817 352.851 516.8 352.973C516.783 353.095 516.742 353.213 516.68 353.319C516.617 353.425 516.534 353.517 516.436 353.591C516.337 353.665 516.225 353.719 516.106 353.749L399.549 383.551L399.325 383.682ZM383.953 318.859L399.998 381.68L514.741 352.328L498.79 289.432L383.953 318.859Z" fill="#231F20"/>
<path d="M399.325 382.747L448.337 331.581L515.882 352.926L399.325 382.747Z" fill="#F14736"/>
<path d="M399.324 383.682C399.161 383.681 399.001 383.637 398.86 383.555C398.719 383.473 398.602 383.356 398.52 383.214C398.41 383.04 398.363 382.834 398.387 382.63C398.411 382.425 398.504 382.236 398.651 382.092L447.664 330.945C447.784 330.818 447.936 330.726 448.104 330.68C448.272 330.634 448.45 330.635 448.618 330.683L516.162 352.047C516.356 352.108 516.525 352.23 516.643 352.396C516.761 352.561 516.822 352.76 516.817 352.964C516.807 353.167 516.733 353.362 516.605 353.52C516.478 353.678 516.303 353.791 516.106 353.843L399.549 383.645L399.324 383.682ZM448.618 332.647L402.26 381.025L512.478 352.833L448.618 332.647Z" fill="#231F20"/>
<path d="M382.813 318.111L451.18 342.693L499.37 288.291L382.813 318.111Z" fill="#F14736"/>
<path d="M451.18 343.629C451.075 343.648 450.967 343.648 450.862 343.629L382.494 319.047C382.308 318.979 382.147 318.854 382.036 318.689C381.925 318.524 381.87 318.328 381.877 318.13C381.885 317.929 381.957 317.736 382.081 317.578C382.205 317.42 382.376 317.306 382.569 317.251L499.126 287.449C499.319 287.402 499.522 287.416 499.707 287.49C499.891 287.564 500.048 287.693 500.155 287.861C500.263 288.032 500.313 288.235 500.296 288.437C500.279 288.64 500.197 288.832 500.061 288.983L451.872 343.367C451.781 343.457 451.673 343.527 451.554 343.572C451.434 343.618 451.307 343.637 451.18 343.629ZM385.991 318.261L450.899 341.59L496.639 289.956L385.991 318.261Z" fill="#231F20"/>
<path d="M561.109 227.613L494.596 244.068L503.713 280.952L570.226 264.497L561.109 227.613Z" fill="#F14736"/>
<path d="M503.708 281.874C503.498 281.873 503.295 281.802 503.129 281.674C502.964 281.545 502.845 281.366 502.792 281.163L493.685 244.29C493.627 244.049 493.665 243.796 493.791 243.583C493.917 243.37 494.12 243.215 494.358 243.149L560.874 226.704C560.992 226.671 561.115 226.662 561.237 226.678C561.358 226.694 561.475 226.735 561.58 226.798C561.686 226.861 561.777 226.945 561.848 227.045C561.92 227.145 561.97 227.258 561.996 227.378L571.121 264.251C571.151 264.371 571.156 264.496 571.136 264.618C571.117 264.74 571.074 264.857 571.009 264.962C570.948 265.07 570.864 265.164 570.764 265.238C570.665 265.312 570.551 265.365 570.429 265.392L503.932 281.836L503.708 281.874ZM495.723 244.739L504.4 279.797L569.083 263.802L560.5 228.744L495.723 244.739Z" fill="#231F20"/>
<path d="M503.708 280.938L531.851 252.016L570.205 264.476L503.708 280.938Z" fill="#F14736"/>
<path d="M503.708 281.874C503.544 281.876 503.382 281.834 503.241 281.752C503.099 281.67 502.982 281.55 502.904 281.406C502.8 281.23 502.757 281.025 502.781 280.823C502.804 280.62 502.894 280.431 503.035 280.283L531.178 251.38C531.298 251.253 531.451 251.162 531.62 251.119C531.789 251.076 531.966 251.082 532.132 251.137L570.504 263.596C570.752 263.596 570.99 263.695 571.166 263.87C571.341 264.045 571.439 264.283 571.439 264.531C571.439 264.779 571.341 265.017 571.166 265.193C570.99 265.368 570.752 265.467 570.504 265.467L504.007 281.911L503.708 281.874ZM532.113 253.101L506.663 279.292L566.802 264.419L532.113 253.101Z" fill="#231F20"/>
<path d="M494.582 244.065L533.404 258.358L561.098 227.602L494.582 244.065Z" fill="#F14736"/>
<path d="M533.422 259.294C533.311 259.311 533.197 259.311 533.085 259.294L494.264 245.001C494.078 244.929 493.919 244.8 493.811 244.632C493.704 244.463 493.653 244.265 493.666 244.065C493.672 243.866 493.743 243.674 493.868 243.519C493.993 243.364 494.165 243.254 494.358 243.205L560.874 226.761C561.067 226.711 561.27 226.724 561.455 226.798C561.64 226.872 561.797 227.003 561.902 227.172C562.005 227.347 562.05 227.55 562.03 227.752C562.01 227.954 561.926 228.144 561.79 228.295L534.114 258.994C533.931 259.18 533.683 259.287 533.422 259.294ZM497.78 244.327L533.142 257.423L558.368 229.361L497.78 244.327Z" fill="#231F20"/>
<path d="M462.008 218.311L407.495 242.729L421.02 272.95L475.534 248.532L462.008 218.311Z" fill="#F14736"/>
<path d="M421.035 273.96C420.855 273.965 420.676 273.916 420.523 273.819C420.37 273.723 420.249 273.583 420.175 273.418L406.655 243.186C406.602 243.075 406.573 242.954 406.568 242.83C406.563 242.707 406.583 242.584 406.626 242.469C406.67 242.354 406.737 242.249 406.822 242.16C406.907 242.071 407.009 242 407.123 241.951L461.614 217.537C461.843 217.435 462.102 217.427 462.337 217.515C462.571 217.602 462.761 217.778 462.867 218.005L476.35 248.143C476.443 248.371 476.443 248.627 476.35 248.854C476.256 249.082 476.083 249.267 475.864 249.378L421.353 273.698C421.268 273.808 421.159 273.897 421.035 273.96ZM408.731 243.279L421.503 271.79L474.293 248.143L461.54 219.633L408.731 243.279Z" fill="#231F20"/>
<path d="M421.035 272.932L440.689 243.785L475.527 248.518L421.035 272.932Z" fill="#F14736"/>
<path d="M421.035 273.961C420.862 273.97 420.69 273.929 420.538 273.844C420.387 273.759 420.263 273.633 420.181 273.48C420.098 273.327 420.061 273.154 420.074 272.981C420.086 272.807 420.147 272.641 420.25 272.501L439.922 243.355C440.019 243.209 440.154 243.093 440.312 243.021C440.471 242.948 440.647 242.921 440.82 242.943L475.658 247.695C475.859 247.721 476.046 247.812 476.191 247.953C476.336 248.095 476.431 248.28 476.462 248.481C476.489 248.682 476.451 248.887 476.353 249.065C476.256 249.244 476.104 249.386 475.92 249.472L421.409 273.792C421.298 273.875 421.171 273.932 421.035 273.961ZM441.138 244.87L423.635 270.836L472.161 249.098L441.138 244.87Z" fill="#231F20"/>
<path d="M407.496 242.718L443.026 248.967L462.007 218.305L407.496 242.718Z" fill="#F14736"/>
<path d="M443.008 249.902H442.858L407.328 243.654C407.133 243.619 406.955 243.521 406.82 243.376C406.686 243.231 406.601 243.046 406.58 242.849C406.554 242.651 406.593 242.449 406.691 242.273C406.789 242.098 406.94 241.959 407.123 241.877L461.614 217.463C461.8 217.381 462.007 217.36 462.206 217.403C462.404 217.447 462.584 217.553 462.718 217.706C462.837 217.865 462.902 218.059 462.902 218.258C462.902 218.457 462.837 218.651 462.718 218.81L443.737 249.491C443.655 249.61 443.546 249.709 443.42 249.781C443.294 249.852 443.153 249.894 443.008 249.902ZM410.657 242.419L442.559 248.031L459.613 220.494L410.657 242.419Z" fill="#231F20"/>
<path d="M222.834 1.48117H113.177C109.74 1.48117 106.444 2.84708 104.014 5.2784C101.583 7.70972 100.218 11.0073 100.218 14.4457V70.5692C100.218 72.2718 100.553 73.9576 101.205 75.5306C101.856 77.1035 102.81 78.5327 104.014 79.7365C105.217 80.9404 106.646 81.8954 108.218 82.5469C109.79 83.1984 111.475 83.5338 113.177 83.5338H210.81L222.441 103.476L222.591 83.5338H222.909C224.611 83.5338 226.296 83.1984 227.868 82.5469C229.44 81.8954 230.869 80.9404 232.072 79.7365C233.276 78.5327 234.23 77.1035 234.882 75.5306C235.533 73.9576 235.868 72.2718 235.868 70.5692V14.4457C235.868 12.7369 235.53 11.0449 234.874 9.46705C234.218 7.88923 233.257 6.4567 232.046 5.25184C230.835 4.04699 229.397 3.09359 227.816 2.44648C226.235 1.79937 224.542 1.47131 222.834 1.48117Z" fill="white"/>
<path d="M222.367 104.411C222.203 104.41 222.043 104.367 221.902 104.285C221.761 104.203 221.644 104.085 221.562 103.944L210.212 84.4688H113.177C109.494 84.4639 105.963 82.9978 103.358 80.3921C100.754 77.7865 99.2881 74.2538 99.2832 70.5689V14.4453C99.2881 10.7604 100.754 7.22774 103.358 4.62207C105.963 2.0164 109.494 0.55036 113.177 0.54541H222.834C226.519 0.54541 230.053 2.00986 232.659 4.61661C235.264 7.22335 236.728 10.7588 236.728 14.4453V70.5689C236.727 74.1476 235.346 77.588 232.873 80.1737C230.4 82.7594 227.025 84.2911 223.451 84.4501L223.302 103.495C223.303 103.698 223.235 103.896 223.109 104.055C222.984 104.215 222.807 104.327 222.61 104.374C222.533 104.406 222.449 104.419 222.367 104.411ZM113.177 2.41619C109.99 2.42114 106.934 3.69009 104.68 5.94492C102.427 8.19975 101.158 11.2565 101.153 14.4453V70.5689C101.158 73.7577 102.427 76.8145 104.68 79.0693C106.934 81.3241 109.99 82.5931 113.177 82.598H210.81C210.976 82.5957 211.14 82.6378 211.285 82.72C211.43 82.8022 211.55 82.9216 211.633 83.0657L221.544 100.071L221.656 83.5334C221.656 83.2853 221.754 83.0474 221.93 82.872C222.105 82.6966 222.343 82.598 222.591 82.598H222.909C226.096 82.5931 229.152 81.3241 231.406 79.0693C233.66 76.8145 234.928 73.7577 234.933 70.5689V14.4453C234.933 11.255 233.666 8.19535 231.411 5.93945C229.156 3.68355 226.098 2.41619 222.909 2.41619H113.177Z" fill="#231F20"/>
<path d="M149.941 45.4445L199.085 15.3623L157.44 32.7045L149.941 45.4445Z" fill="#231F20"/>
<path d="M149.941 46.3796C149.695 46.3761 149.459 46.2753 149.287 46.099C149.141 45.951 149.048 45.7595 149.021 45.5535C148.994 45.3476 149.035 45.1384 149.137 44.9578L156.617 32.2365C156.719 32.0592 156.877 31.9209 157.066 31.8436L198.711 14.4828C198.929 14.392 199.173 14.387 199.394 14.4689C199.616 14.5508 199.798 14.7134 199.905 14.9242C200.011 15.135 200.034 15.3783 199.969 15.6052C199.903 15.8322 199.755 16.026 199.552 16.1478L150.428 46.23C150.282 46.3239 150.114 46.3757 149.941 46.3796ZM158.095 33.4525L152.653 42.6755L188.37 20.8621L158.095 33.4525Z" fill="#231F20"/>
<path d="M157.44 32.7045L173.522 40.9172L199.085 15.3623L157.44 32.7045Z" fill="#F14736"/>
<path d="M173.522 41.7776C173.393 41.8054 173.259 41.8054 173.13 41.7776L157.066 33.5648C156.893 33.4849 156.751 33.3497 156.663 33.1803C156.575 33.011 156.546 32.8172 156.58 32.6294C156.584 32.4669 156.635 32.3091 156.729 32.1759C156.822 32.0428 156.952 31.9402 157.104 31.8811L198.749 14.5202C198.931 14.4538 199.13 14.451 199.315 14.5123C199.499 14.5737 199.657 14.6956 199.763 14.8581C199.869 15.0207 199.917 15.2144 199.899 15.4078C199.882 15.6012 199.799 15.7829 199.665 15.9233L174.121 41.5156C173.962 41.6766 173.748 41.7704 173.522 41.7776ZM159.479 32.7791L173.41 39.8694L195.476 17.8128L159.479 32.7791Z" fill="#231F20"/>
<path d="M199.085 15.3623L146.183 27.9901L134.159 21.1243L199.085 15.3623Z" fill="#F14736"/>
<path d="M146.183 28.8878C146.038 28.8881 145.896 28.8493 145.771 28.7756L133.728 21.8911C133.573 21.8007 133.449 21.6635 133.375 21.4991C133.301 21.3346 133.281 21.1511 133.317 20.9744C133.356 20.795 133.452 20.6328 133.59 20.5117C133.728 20.3905 133.901 20.3166 134.084 20.3009L199.01 14.5389C199.222 14.5299 199.431 14.5963 199.599 14.7265C199.766 14.8566 199.882 15.042 199.926 15.2498C199.961 15.4621 199.915 15.6797 199.798 15.8598C199.68 16.0399 199.499 16.1693 199.291 16.2226L146.388 28.8878H146.183ZM136.945 21.7601L146.295 27.1293L187.435 17.2702L136.945 21.7601Z" fill="#231F20"/>
<path d="M146.183 27.9901L149.941 45.4445L157.44 32.7045L199.085 15.3623L146.183 27.9901Z" fill="#F14736"/>
<path d="M149.941 46.2862H149.81C149.64 46.2586 149.482 46.1791 149.358 46.0586C149.235 45.9381 149.151 45.7825 149.119 45.6127L145.379 28.177C145.354 28.0689 145.35 27.9569 145.369 27.8476C145.387 27.7382 145.427 27.6335 145.487 27.5397C145.546 27.4458 145.623 27.3645 145.713 27.3005C145.804 27.2365 145.906 27.1911 146.014 27.1668L198.898 14.5203C199.108 14.4751 199.328 14.5069 199.516 14.6099C199.705 14.7129 199.851 14.8802 199.926 15.0815C199.991 15.288 199.977 15.5109 199.887 15.7076C199.797 15.9043 199.638 16.061 199.44 16.1479L158.038 33.3778L150.689 45.8746C150.61 46.0012 150.5 46.1054 150.369 46.1774C150.238 46.2494 150.091 46.2869 149.941 46.2862ZM147.23 28.626L150.353 43.1246L156.748 32.274C156.842 32.1133 156.987 31.9883 157.16 31.9186L188.95 18.6547L147.23 28.626Z" fill="#231F20"/>
<path d="M146.855 55.4218C145.79 55.1155 145.013 54.7401 144.525 54.2956C144.042 53.8468 143.8 53.2945 143.8 52.6386C143.8 51.8964 144.096 51.2837 144.687 50.8004C145.283 50.3128 146.055 50.069 147.004 50.069C147.652 50.069 148.228 50.1941 148.733 50.4444C149.242 50.6947 149.634 51.0399 149.911 51.48C150.191 51.9202 150.331 52.4013 150.331 52.9234H149.082C149.082 52.3538 148.901 51.9072 148.538 51.5836C148.176 51.2556 147.665 51.0917 147.004 51.0917C146.392 51.0917 145.913 51.2276 145.567 51.4994C145.227 51.767 145.056 52.1402 145.056 52.6192C145.056 53.0032 145.218 53.329 145.542 53.5966C145.869 53.8598 146.424 54.1014 147.205 54.3215C147.99 54.5416 148.603 54.7854 149.043 55.0529C149.488 55.3161 149.816 55.6246 150.027 55.9785C150.243 56.3323 150.351 56.7487 150.351 57.2277C150.351 57.9915 150.053 58.6042 149.457 59.0659C148.862 59.5233 148.066 59.752 147.069 59.752C146.422 59.752 145.818 59.629 145.257 59.3831C144.696 59.1328 144.262 58.7919 143.956 58.3604C143.654 57.9289 143.503 57.4391 143.503 56.8911H144.752C144.752 57.4607 144.961 57.9116 145.38 58.2439C145.803 58.5718 146.366 58.7358 147.069 58.7358C147.725 58.7358 148.228 58.602 148.577 58.3345C148.927 58.067 149.101 57.7024 149.101 57.2406C149.101 56.7789 148.94 56.4229 148.616 56.1727C148.292 55.9181 147.706 55.6678 146.855 55.4218ZM154.668 59.752C153.719 59.752 152.946 59.4413 152.351 58.82C151.755 58.1943 151.457 57.3593 151.457 56.3151V56.095C151.457 55.4003 151.589 54.781 151.852 54.2373C152.12 53.6893 152.491 53.2621 152.966 52.9558C153.445 52.6451 153.962 52.4897 154.519 52.4897C155.43 52.4897 156.137 52.7896 156.642 53.3894C157.147 53.9892 157.399 54.8479 157.399 55.9655V56.4639H152.655C152.672 57.1543 152.873 57.7131 153.257 58.1403C153.645 58.5632 154.137 58.7746 154.733 58.7746C155.156 58.7746 155.514 58.6883 155.807 58.5157C156.101 58.3431 156.357 58.1144 156.577 57.8296L157.309 58.3992C156.722 59.3011 155.842 59.752 154.668 59.752ZM154.519 53.4736C154.036 53.4736 153.63 53.6505 153.302 54.0043C152.974 54.3539 152.771 54.8458 152.694 55.4801H156.202V55.3895C156.167 54.781 156.003 54.3107 155.71 53.9784C155.417 53.6419 155.02 53.4736 154.519 53.4736ZM159.924 52.6192L159.963 53.4995C160.498 52.8263 161.197 52.4897 162.06 52.4897C163.54 52.4897 164.286 53.3247 164.299 54.9946V59.6226H163.102V54.9882C163.097 54.4833 162.981 54.1101 162.752 53.8684C162.528 53.6268 162.176 53.5059 161.697 53.5059C161.309 53.5059 160.968 53.6095 160.674 53.8166C160.381 54.0238 160.152 54.2956 159.988 54.6322V59.6226H158.791V52.6192H159.924ZM167.73 50.9234V52.6192H169.037V53.5448H167.73V57.8879C167.73 58.1684 167.788 58.3798 167.904 58.5222C168.021 58.6603 168.219 58.7293 168.5 58.7293C168.638 58.7293 168.828 58.7034 169.069 58.6517V59.6226C168.754 59.7089 168.448 59.752 168.15 59.752C167.615 59.752 167.212 59.5902 166.94 59.2666C166.668 58.9429 166.532 58.4834 166.532 57.8879V53.5448H165.257V52.6192H166.532V50.9234H167.73Z" fill="black"/>
<path d="M215.298 378.444C215.05 378.444 214.812 378.345 214.637 378.17C214.461 377.994 214.363 377.757 214.363 377.508C214.363 377.26 214.461 377.022 214.637 376.847C214.812 376.672 215.05 376.573 215.298 376.573C217.785 376.573 220.272 376.573 222.778 376.386C223.026 376.386 223.264 376.485 223.439 376.66C223.614 376.835 223.713 377.073 223.713 377.321C223.713 377.569 223.614 377.807 223.439 377.983C223.264 378.158 223.026 378.257 222.778 378.257C220.272 378.35 217.766 378.406 215.298 378.444ZM207.818 378.444C205.331 378.444 202.825 378.444 200.338 378.257C200.093 378.247 199.862 378.142 199.694 377.963C199.526 377.785 199.435 377.548 199.44 377.303C199.455 377.055 199.563 376.821 199.744 376.651C199.925 376.48 200.164 376.386 200.413 376.386C202.9 376.48 205.368 376.536 207.893 376.573C208.141 376.573 208.378 376.672 208.554 376.847C208.729 377.022 208.828 377.26 208.828 377.508C208.828 377.757 208.729 377.994 208.554 378.17C208.378 378.345 208.141 378.444 207.893 378.444H207.818ZM230.258 377.92C230.021 377.92 229.794 377.829 229.623 377.665C229.452 377.501 229.351 377.277 229.342 377.041C229.334 376.918 229.351 376.795 229.391 376.678C229.431 376.562 229.494 376.455 229.575 376.362C229.657 376.27 229.756 376.195 229.867 376.141C229.977 376.088 230.098 376.056 230.22 376.049C232.689 375.918 235.176 375.75 237.7 375.544C237.822 375.534 237.945 375.548 238.061 375.586C238.178 375.624 238.285 375.685 238.377 375.765C238.47 375.846 238.545 375.943 238.599 376.053C238.653 376.163 238.685 376.283 238.692 376.405C238.702 376.528 238.688 376.651 238.65 376.769C238.612 376.886 238.552 376.995 238.472 377.089C238.392 377.183 238.294 377.26 238.184 377.316C238.074 377.372 237.954 377.405 237.831 377.415C235.344 377.602 232.857 377.77 230.351 377.92H230.258ZM192.858 377.92C190.352 377.77 187.865 377.602 185.378 377.396C185.255 377.386 185.135 377.352 185.026 377.296C184.916 377.24 184.819 377.163 184.739 377.069C184.659 376.975 184.598 376.867 184.56 376.75C184.522 376.632 184.508 376.509 184.518 376.386C184.528 376.263 184.561 376.143 184.617 376.034C184.674 375.924 184.751 375.826 184.844 375.746C184.938 375.667 185.047 375.606 185.164 375.568C185.281 375.53 185.405 375.516 185.527 375.525C188.015 375.731 190.483 375.9 193.007 376.049C193.255 376.049 193.493 376.148 193.669 376.323C193.844 376.499 193.942 376.737 193.942 376.985C193.942 377.233 193.844 377.471 193.669 377.646C193.493 377.821 193.255 377.92 193.007 377.92H192.858ZM245.218 376.741C244.988 376.735 244.767 376.646 244.596 376.492C244.425 376.338 244.314 376.128 244.283 375.9C244.27 375.777 244.282 375.652 244.317 375.534C244.352 375.415 244.411 375.305 244.489 375.21C244.567 375.114 244.664 375.035 244.773 374.976C244.882 374.918 245.001 374.882 245.124 374.871C247.618 374.609 250.111 374.328 252.604 374.029C252.727 374.013 252.852 374.021 252.971 374.053C253.091 374.086 253.203 374.141 253.301 374.217C253.399 374.292 253.482 374.387 253.543 374.494C253.605 374.601 253.645 374.72 253.661 374.843C253.677 374.965 253.669 375.09 253.636 375.21C253.604 375.329 253.549 375.441 253.473 375.54C253.397 375.638 253.303 375.72 253.196 375.782C253.089 375.844 252.97 375.884 252.847 375.9C250.354 376.224 247.861 376.504 245.368 376.741H245.218ZM178.029 376.741H177.935C175.448 376.461 172.961 376.161 170.455 375.843C170.207 375.811 169.982 375.682 169.83 375.483C169.677 375.285 169.61 375.035 169.642 374.786C169.674 374.538 169.804 374.313 170.002 374.161C170.2 374.008 170.45 373.94 170.698 373.973C173.148 374.291 175.616 374.59 178.178 374.852C178.426 374.867 178.658 374.98 178.823 375.166C178.988 375.352 179.072 375.595 179.057 375.843C179.042 376.092 178.93 376.324 178.744 376.488C178.558 376.653 178.314 376.738 178.066 376.723L178.029 376.741ZM260.066 374.871C259.845 374.869 259.632 374.789 259.464 374.645C259.296 374.502 259.185 374.303 259.149 374.085C259.128 373.963 259.132 373.838 259.16 373.718C259.189 373.597 259.241 373.484 259.314 373.384C259.388 373.284 259.481 373.201 259.587 373.138C259.694 373.075 259.812 373.034 259.935 373.019C262.385 372.644 264.853 372.252 267.303 371.84C267.423 371.819 267.547 371.822 267.666 371.849C267.785 371.876 267.898 371.927 267.997 371.998C268.097 372.07 268.181 372.161 268.244 372.265C268.308 372.37 268.35 372.486 268.368 372.607C268.393 372.726 268.392 372.85 268.367 372.969C268.342 373.088 268.293 373.201 268.223 373.301C268.153 373.401 268.064 373.485 267.96 373.549C267.857 373.613 267.741 373.655 267.62 373.673C265.152 374.104 262.684 374.496 260.14 374.871H260.066ZM163.218 374.721H163.069C160.6 374.328 158.132 373.898 155.682 373.449C155.56 373.427 155.442 373.381 155.337 373.313C155.232 373.246 155.142 373.158 155.07 373.056C154.999 372.953 154.949 372.838 154.922 372.716C154.896 372.594 154.893 372.468 154.916 372.345C154.938 372.222 154.984 372.105 155.051 372C155.119 371.895 155.206 371.804 155.308 371.733C155.411 371.662 155.526 371.611 155.648 371.585C155.77 371.558 155.896 371.556 156.019 371.578C158.469 372.046 160.918 372.457 163.368 372.85C163.491 372.86 163.61 372.894 163.72 372.95C163.83 373.006 163.927 373.083 164.007 373.177C164.087 373.271 164.148 373.38 164.186 373.497C164.224 373.614 164.238 373.738 164.228 373.86C164.218 373.983 164.184 374.103 164.128 374.213C164.072 374.322 163.995 374.42 163.901 374.5C163.808 374.58 163.699 374.641 163.582 374.678C163.465 374.716 163.341 374.731 163.218 374.721ZM274.82 372.345C274.572 372.37 274.324 372.295 274.131 372.137C273.939 371.979 273.816 371.751 273.791 371.503C273.767 371.255 273.841 371.007 273.999 370.814C274.157 370.621 274.385 370.499 274.633 370.474C277.083 369.988 279.532 369.483 281.945 368.959C282.193 368.904 282.452 368.951 282.666 369.087C282.88 369.224 283.031 369.44 283.085 369.689C283.14 369.937 283.094 370.196 282.957 370.41C282.82 370.624 282.604 370.775 282.356 370.83L275.007 372.345H274.82ZM148.539 371.971H148.333C145.883 371.447 143.452 370.886 141.021 370.287C140.903 370.259 140.791 370.207 140.693 370.135C140.595 370.063 140.512 369.972 140.449 369.867C140.387 369.763 140.345 369.647 140.328 369.526C140.311 369.406 140.318 369.283 140.348 369.165C140.406 368.925 140.556 368.717 140.767 368.587C140.977 368.458 141.23 368.416 141.47 368.473C143.883 369.071 146.295 369.614 148.726 370.138C148.846 370.164 148.961 370.214 149.062 370.285C149.163 370.356 149.249 370.446 149.315 370.551C149.381 370.655 149.426 370.771 149.447 370.893C149.468 371.015 149.464 371.14 149.436 371.26C149.388 371.473 149.265 371.661 149.091 371.791C148.916 371.922 148.7 371.985 148.483 371.971H148.539ZM289.35 369.146C289.142 369.147 288.94 369.077 288.776 368.948C288.613 368.819 288.499 368.638 288.452 368.435C288.421 368.316 288.414 368.192 288.431 368.07C288.449 367.948 288.49 367.831 288.552 367.725C288.615 367.619 288.697 367.526 288.796 367.452C288.894 367.378 289.006 367.324 289.125 367.294C291.556 366.695 293.969 366.072 296.362 365.423C296.6 365.36 296.854 365.393 297.067 365.516C297.281 365.639 297.437 365.841 297.503 366.078C297.562 366.318 297.527 366.572 297.405 366.788C297.284 367.003 297.085 367.164 296.849 367.238C294.436 367.874 292.005 368.491 289.574 369.109L289.35 369.146ZM133.934 368.435H133.672C131.26 367.762 128.866 367.069 126.473 366.34C126.225 366.265 126.017 366.096 125.894 365.867C125.771 365.639 125.744 365.372 125.818 365.124C125.893 364.876 126.063 364.667 126.291 364.545C126.519 364.422 126.786 364.395 127.034 364.469C129.39 365.199 131.784 365.891 134.177 366.546C134.416 366.615 134.618 366.776 134.74 366.992C134.863 367.209 134.895 367.465 134.832 367.706C134.787 367.904 134.679 368.083 134.524 368.215C134.369 368.346 134.175 368.424 133.972 368.435H133.934ZM303.805 365.236C303.557 365.271 303.305 365.206 303.106 365.055C302.906 364.904 302.774 364.68 302.739 364.432C302.704 364.184 302.77 363.932 302.92 363.732C303.071 363.532 303.295 363.4 303.543 363.365C305.937 362.673 308.312 361.925 310.668 361.177C310.791 361.138 310.92 361.125 311.048 361.137C311.176 361.149 311.3 361.186 311.414 361.245C311.528 361.305 311.629 361.387 311.711 361.486C311.793 361.585 311.855 361.699 311.893 361.822C311.931 361.945 311.944 362.074 311.932 362.202C311.921 362.33 311.884 362.454 311.824 362.568C311.764 362.682 311.682 362.783 311.583 362.865C311.484 362.947 311.37 363.009 311.248 363.047C308.873 363.814 306.479 364.544 304.067 365.255C303.991 365.263 303.915 365.256 303.842 365.236H303.805ZM119.647 364.039C119.548 364.057 119.447 364.057 119.348 364.039C116.973 363.234 114.617 362.374 112.298 361.495C112.094 361.39 111.935 361.214 111.852 360.999C111.769 360.785 111.768 360.547 111.849 360.332C111.93 360.117 112.087 359.939 112.291 359.833C112.494 359.726 112.73 359.698 112.953 359.755C115.272 360.615 117.59 361.457 119.947 362.262C120.18 362.346 120.371 362.519 120.479 362.742C120.588 362.966 120.604 363.223 120.526 363.459C120.459 363.628 120.344 363.774 120.194 363.877C120.044 363.98 119.867 364.037 119.685 364.039H119.647ZM318.054 360.634C317.862 360.637 317.673 360.578 317.515 360.468C317.357 360.357 317.238 360.199 317.175 360.017C317.097 359.781 317.114 359.524 317.222 359.3C317.331 359.077 317.522 358.904 317.755 358.819C320.111 357.996 322.449 357.136 324.768 356.256C324.882 356.212 325.004 356.19 325.126 356.193C325.248 356.196 325.369 356.224 325.481 356.275C325.592 356.325 325.692 356.398 325.776 356.488C325.859 356.578 325.923 356.684 325.965 356.799C326.01 356.914 326.031 357.037 326.028 357.161C326.025 357.285 325.998 357.407 325.947 357.52C325.897 357.633 325.825 357.735 325.734 357.82C325.644 357.905 325.538 357.971 325.422 358.015C323.103 358.894 320.747 359.755 318.372 360.597C318.281 360.624 318.187 360.637 318.092 360.634H318.054ZM105.678 358.763C105.562 358.79 105.44 358.79 105.323 358.763C103.004 357.79 100.686 356.78 98.4416 355.77C98.3293 355.718 98.2285 355.644 98.145 355.552C98.0616 355.461 97.9971 355.354 97.9553 355.237C97.9136 355.12 97.8954 354.997 97.9018 354.873C97.9082 354.749 97.9392 354.628 97.9928 354.517C98.0431 354.405 98.1152 354.304 98.2049 354.221C98.2946 354.138 98.4001 354.073 98.5152 354.031C98.6302 353.99 98.7525 353.971 98.8747 353.977C98.997 353.984 99.1168 354.014 99.227 354.068C101.452 355.078 103.734 356.088 106.034 357.042C106.148 357.087 106.252 357.155 106.34 357.241C106.427 357.327 106.497 357.43 106.544 357.543C106.591 357.657 106.615 357.778 106.614 357.901C106.613 358.024 106.587 358.145 106.539 358.258C106.461 358.408 106.343 358.534 106.197 358.62C106.052 358.706 105.885 358.749 105.716 358.745L105.678 358.763ZM332.061 355.321C331.875 355.325 331.692 355.272 331.538 355.168C331.384 355.064 331.266 354.915 331.2 354.741C331.152 354.628 331.126 354.507 331.126 354.384C331.125 354.261 331.148 354.139 331.196 354.026C331.243 353.913 331.312 353.81 331.4 353.724C331.487 353.638 331.591 353.57 331.705 353.525C334.005 352.571 336.287 351.654 338.55 350.588C338.662 350.538 338.784 350.512 338.907 350.509C339.031 350.507 339.153 350.529 339.268 350.574C339.383 350.619 339.487 350.687 339.576 350.773C339.664 350.859 339.735 350.961 339.784 351.074C339.88 351.301 339.885 351.556 339.798 351.786C339.711 352.016 339.538 352.203 339.316 352.309C337.035 353.319 334.735 354.292 332.416 355.265C332.312 355.292 332.205 355.304 332.098 355.302L332.061 355.321ZM92.1397 352.533C91.9978 352.529 91.8581 352.497 91.7283 352.44C89.4843 351.317 87.259 350.139 85.0898 348.942C84.9815 348.883 84.8859 348.803 84.8085 348.707C84.731 348.612 84.6733 348.501 84.6385 348.383C84.6038 348.265 84.5927 348.141 84.606 348.019C84.6192 347.896 84.6566 347.777 84.7158 347.669C84.8379 347.454 85.0388 347.295 85.276 347.225C85.5132 347.155 85.7683 347.181 85.9874 347.295C88.1379 348.493 90.3445 349.652 92.5698 350.756C92.7879 350.876 92.9521 351.074 93.0286 351.31C93.1051 351.547 93.0881 351.804 92.9812 352.028C92.8998 352.181 92.7786 352.309 92.6304 352.398C92.4821 352.486 92.3125 352.533 92.1397 352.533ZM345.768 349.241C345.592 349.246 345.418 349.199 345.268 349.106C345.119 349.013 345 348.877 344.926 348.717C344.872 348.607 344.84 348.486 344.832 348.364C344.825 348.241 344.841 348.117 344.881 348.001C344.921 347.885 344.984 347.777 345.065 347.685C345.147 347.593 345.246 347.518 345.356 347.464C347.6 346.379 349.826 345.275 352.032 344.134C352.253 344.02 352.51 343.998 352.747 344.073C352.983 344.149 353.18 344.315 353.295 344.536C353.409 344.757 353.43 345.014 353.355 345.251C353.28 345.487 353.113 345.685 352.893 345.799C350.667 346.94 348.442 348.062 346.16 349.147C346.039 349.207 345.903 349.232 345.768 349.222V349.241ZM79.0684 345.312C78.8956 345.308 78.7273 345.256 78.5822 345.163C76.4317 343.872 74.2999 342.525 72.2242 341.159C72.0192 341.022 71.8767 340.809 71.8277 340.568C71.7786 340.326 71.8271 340.074 71.9624 339.868C72.0286 339.765 72.1149 339.676 72.2162 339.606C72.3175 339.537 72.4317 339.488 72.5521 339.464C72.6724 339.439 72.7965 339.439 72.9168 339.464C73.0372 339.488 73.1514 339.537 73.2527 339.606C75.3097 340.953 77.4228 342.282 79.5546 343.572C79.7637 343.7 79.9142 343.906 79.9737 344.143C80.0331 344.381 79.9968 344.633 79.8725 344.845C79.7895 344.985 79.6721 345.101 79.5313 345.183C79.3905 345.265 79.2312 345.309 79.0684 345.312ZM359.045 342.338C358.879 342.336 358.717 342.293 358.573 342.211C358.429 342.129 358.308 342.012 358.222 341.87C358.107 341.651 358.082 341.396 358.152 341.158C358.222 340.921 358.381 340.72 358.596 340.598C360.765 339.382 362.916 338.128 365.029 336.856C365.134 336.792 365.252 336.75 365.374 336.731C365.496 336.713 365.62 336.718 365.74 336.748C365.86 336.778 365.972 336.83 366.072 336.904C366.171 336.977 366.255 337.069 366.319 337.174C366.383 337.28 366.425 337.397 366.444 337.519C366.463 337.641 366.457 337.766 366.427 337.886C366.398 338.006 366.345 338.118 366.272 338.218C366.199 338.317 366.107 338.401 366.001 338.465C363.869 339.712 361.7 340.96 359.494 342.207C359.358 342.288 359.203 342.333 359.045 342.338ZM66.5955 337.062C66.402 337.061 66.2132 337.003 66.0532 336.894C64.0087 335.41 62.0078 333.894 60.0505 332.348C59.8578 332.193 59.734 331.969 59.706 331.724C59.6779 331.478 59.748 331.232 59.9009 331.038C60.0612 330.848 60.2881 330.727 60.535 330.699C60.7819 330.671 61.0301 330.739 61.2286 330.889C63.0986 332.423 65.1369 333.919 67.1378 335.378C67.2389 335.449 67.325 335.54 67.3911 335.644C67.4572 335.748 67.5019 335.865 67.5228 335.986C67.5436 336.108 67.5402 336.233 67.5126 336.353C67.4851 336.474 67.4339 336.587 67.3622 336.688C67.2722 336.806 67.1561 336.901 67.023 336.966C66.8899 337.031 66.7435 337.064 66.5955 337.062ZM54.8893 327.708C54.6638 327.707 54.4457 327.628 54.2722 327.484C52.5892 326.006 50.9062 324.49 49.298 322.975L48.7183 322.414C48.6312 322.329 48.562 322.227 48.5148 322.114C48.4676 322.002 48.4433 321.881 48.4433 321.759C48.4433 321.637 48.4676 321.516 48.5148 321.404C48.562 321.292 48.6312 321.19 48.7183 321.104C48.8052 321.017 48.9086 320.947 49.0226 320.9C49.1365 320.852 49.2587 320.828 49.3821 320.828C49.5056 320.828 49.6278 320.852 49.7417 320.9C49.8557 320.947 49.9591 321.017 50.046 321.104L50.607 321.647C52.2152 323.162 53.8608 324.659 55.5438 326.099C55.6897 326.224 55.7936 326.391 55.8416 326.577C55.8895 326.763 55.879 326.959 55.8116 327.139C55.7442 327.318 55.6232 327.473 55.4648 327.582C55.3065 327.69 55.1186 327.748 54.9267 327.746L54.8893 327.708ZM44.0433 317.419C43.7906 317.418 43.5485 317.317 43.3701 317.138C41.6123 315.267 39.8919 313.397 38.2463 311.638C38.1592 311.553 38.09 311.451 38.0428 311.339C37.9956 311.226 37.9713 311.105 37.9713 310.983C37.9713 310.861 37.9956 310.741 38.0428 310.628C38.09 310.516 38.1592 310.414 38.2463 310.329C38.3332 310.241 38.4366 310.171 38.5506 310.124C38.6645 310.076 38.7867 310.052 38.9101 310.052C39.0336 310.052 39.1558 310.076 39.2697 310.124C39.3837 310.171 39.4871 310.241 39.574 310.329C41.2196 312.199 42.9213 314.07 44.6604 315.773C44.748 315.86 44.8176 315.963 44.8651 316.077C44.9125 316.191 44.937 316.313 44.937 316.437C44.937 316.56 44.9125 316.682 44.8651 316.796C44.8176 316.91 44.748 317.014 44.6604 317.101C44.511 317.304 44.2908 317.445 44.0433 317.494V317.419ZM34.0575 306.194C33.9173 306.192 33.7792 306.159 33.6532 306.098C33.5271 306.036 33.4161 305.948 33.3282 305.839C31.72 303.968 30.1679 301.91 28.6719 299.946C28.5278 299.746 28.4668 299.497 28.5017 299.253C28.5366 299.009 28.6646 298.788 28.8589 298.636C29.0573 298.487 29.3066 298.423 29.5521 298.459C29.7976 298.494 30.0191 298.625 30.1679 298.823C31.6452 300.694 33.1973 302.733 34.7681 304.66C34.8483 304.753 34.9091 304.861 34.947 304.977C34.9848 305.094 34.9989 305.217 34.9885 305.339C34.978 305.461 34.9432 305.579 34.8861 305.688C34.8289 305.796 34.7507 305.892 34.6559 305.97C34.515 306.173 34.3004 306.314 34.0575 306.363V306.194ZM25.0628 294.24C24.9109 294.24 24.7613 294.203 24.6275 294.131C24.4937 294.059 24.3798 293.955 24.2961 293.828C22.8749 291.752 21.4911 289.619 20.2008 287.505C20.0958 287.295 20.0733 287.054 20.1377 286.829C20.2021 286.603 20.3488 286.41 20.5487 286.288C20.7486 286.166 20.9871 286.123 21.2171 286.168C21.447 286.213 21.6516 286.343 21.7903 286.532C23.0619 288.609 24.427 290.723 25.8295 292.781C25.8999 292.881 25.9494 292.994 25.9753 293.114C26.0012 293.233 26.0029 293.357 25.9802 293.477C25.9576 293.598 25.911 293.712 25.8434 293.814C25.7758 293.916 25.6884 294.004 25.5864 294.071C25.4588 294.244 25.2725 294.364 25.0628 294.408V294.24ZM17.2462 281.5C17.0784 281.498 16.914 281.453 16.7695 281.367C16.625 281.282 16.5056 281.16 16.4234 281.013C15.2079 278.806 14.0485 276.542 12.9639 274.316C12.9103 274.204 12.8793 274.083 12.8729 273.96C12.8665 273.836 12.8847 273.712 12.9264 273.595C12.9682 273.479 13.0327 273.372 13.1161 273.28C13.1996 273.189 13.3004 273.115 13.4127 273.063C13.5218 273.009 13.6405 272.977 13.7619 272.97C13.8834 272.962 14.0051 272.979 14.12 273.019C14.2348 273.059 14.3406 273.121 14.4311 273.203C14.5215 273.284 14.5949 273.383 14.6469 273.493C15.7128 275.7 16.8722 277.927 18.0503 280.115C18.1124 280.22 18.1526 280.337 18.1684 280.458C18.1841 280.578 18.1751 280.701 18.1418 280.819C18.1086 280.936 18.0518 281.045 17.975 281.14C17.8982 281.234 17.8029 281.312 17.695 281.369C17.5833 281.516 17.4252 281.622 17.2462 281.668V281.5ZM10.7199 268.18C10.5321 268.183 10.3479 268.129 10.1911 268.025C10.0343 267.922 9.91233 267.774 9.84099 267.6C8.88729 265.299 7.97099 262.923 7.14819 260.584C7.07191 260.353 7.08877 260.101 7.19518 259.882C7.30159 259.663 7.48917 259.495 7.71806 259.412C7.94694 259.329 8.19909 259.339 8.42092 259.439C8.64274 259.539 8.81676 259.722 8.90599 259.948C9.72879 262.268 10.6264 264.607 11.5801 266.889C11.6682 267.118 11.6649 267.372 11.5709 267.598C11.4769 267.825 11.2994 268.006 11.0752 268.105C10.9634 268.155 10.8423 268.18 10.7199 268.18ZM5.74569 254.074C5.54263 254.077 5.34427 254.013 5.1818 253.891C5.01933 253.769 4.90195 253.597 4.84809 253.401C4.15619 250.987 3.52039 248.537 2.97809 246.105C2.95051 245.984 2.94705 245.86 2.9679 245.738C2.98875 245.616 3.0335 245.5 3.09957 245.395C3.16563 245.291 3.25171 245.201 3.35283 245.13C3.45394 245.059 3.5681 245.009 3.68869 244.982C3.92906 244.932 4.17951 244.978 4.38595 245.111C4.59238 245.244 4.73824 245.453 4.79199 245.693C5.33429 248.088 5.95139 250.501 6.66199 252.877C6.69637 252.995 6.7072 253.118 6.69385 253.24C6.68051 253.363 6.64325 253.481 6.58421 253.589C6.52517 253.696 6.44551 253.791 6.34976 253.868C6.25402 253.945 6.14407 254.002 6.02619 254.037C5.94814 254.064 5.86573 254.077 5.78309 254.074H5.74569ZM2.47319 239.482C2.24908 239.485 2.03139 239.407 1.85977 239.263C1.68816 239.119 1.57403 238.918 1.53819 238.696C1.14549 236.208 0.827594 233.701 0.584493 231.213C0.562176 230.965 0.639275 230.718 0.79884 230.527C0.958406 230.336 1.18736 230.216 1.43534 230.194C1.68332 230.171 1.93 230.248 2.12113 230.408C2.31226 230.568 2.43218 230.797 2.45449 231.045C2.69759 233.477 3.01549 235.946 3.40819 238.397C3.42964 238.519 3.42678 238.643 3.39978 238.764C3.37278 238.884 3.32218 238.998 3.2509 239.099C3.17961 239.2 3.08906 239.286 2.98446 239.352C2.87986 239.417 2.7633 239.462 2.64149 239.482H2.47319ZM1.03329 224.609C0.789949 224.605 0.557571 224.507 0.383743 224.337C0.209915 224.166 0.107791 223.936 0.0982895 223.693C0.0982895 222.458 0.0982895 221.223 0.0982895 219.951C0.0982895 218.679 0.0982895 217.369 0.0982895 216.097C0.100579 215.974 0.127863 215.852 0.178498 215.739C0.229134 215.626 0.302073 215.525 0.392924 215.441C0.483775 215.357 0.59066 215.292 0.707139 215.251C0.823619 215.209 0.947284 215.192 1.07069 215.199C1.3154 215.209 1.54651 215.314 1.71436 215.493C1.88221 215.671 1.97338 215.908 1.96829 216.153C1.96829 217.407 1.96829 218.679 1.96829 219.895C1.96829 221.111 1.96829 222.308 1.96829 223.524C1.97329 223.649 1.95342 223.773 1.90984 223.889C1.86627 224.006 1.79987 224.113 1.71453 224.203C1.62919 224.294 1.52663 224.367 1.41286 224.417C1.29909 224.467 1.17641 224.495 1.05199 224.497L1.03329 224.609ZM1.53819 209.643C1.41598 209.634 1.29689 209.6 1.18796 209.544C1.07903 209.488 0.982472 209.41 0.904009 209.316C0.825547 209.222 0.766769 209.113 0.731158 208.995C0.695547 208.878 0.683827 208.755 0.696689 208.633C0.958489 206.126 1.29509 203.6 1.72519 201.15C1.7433 201.029 1.78547 200.912 1.84922 200.808C1.91296 200.703 1.997 200.613 2.09635 200.541C2.1957 200.47 2.30836 200.419 2.42769 200.392C2.54701 200.364 2.67057 200.361 2.79109 200.383C2.91289 200.403 3.02946 200.447 3.13406 200.513C3.23866 200.579 3.32922 200.664 3.4005 200.765C3.47179 200.866 3.52239 200.98 3.54938 201.101C3.57638 201.221 3.57923 201.346 3.55779 201.468C3.14639 203.881 2.80979 206.35 2.56669 208.82C2.53447 209.058 2.41543 209.275 2.23246 209.431C2.04949 209.586 1.81552 209.669 1.57559 209.662L1.53819 209.643ZM4.06269 194.901H3.83829C3.71908 194.871 3.60706 194.817 3.50867 194.743C3.41027 194.669 3.32742 194.576 3.26488 194.47C3.20234 194.364 3.16132 194.247 3.1442 194.125C3.12708 194.003 3.13417 193.879 3.16509 193.76C3.74479 191.309 4.43669 188.877 5.20339 186.501C5.28041 186.266 5.44774 186.071 5.66863 185.958C5.88952 185.846 6.14591 185.826 6.38149 185.903C6.49739 185.939 6.60495 185.998 6.69793 186.076C6.79092 186.154 6.86747 186.25 6.92314 186.358C6.97882 186.465 7.01251 186.583 7.02225 186.704C7.03199 186.825 7.01759 186.947 6.97989 187.063C6.23189 189.401 5.55869 191.796 4.97899 194.209C4.93011 194.407 4.81775 194.584 4.65906 194.712C4.50037 194.841 4.30406 194.914 4.10009 194.92L4.06269 194.901ZM8.64419 180.665C8.52739 180.692 8.40569 180.692 8.28889 180.665C8.17463 180.619 8.07043 180.552 7.98226 180.466C7.89408 180.38 7.82366 180.278 7.77503 180.165C7.7264 180.052 7.7005 179.931 7.69883 179.808C7.69716 179.685 7.71974 179.563 7.76529 179.449C8.70029 177.129 9.74749 174.809 10.8508 172.564C10.8948 172.439 10.9647 172.325 11.056 172.23C11.1473 172.134 11.2578 172.059 11.3803 172.009C11.5028 171.959 11.6345 171.936 11.7666 171.941C11.8987 171.945 12.0283 171.978 12.1469 172.037C12.2654 172.096 12.3701 172.179 12.4542 172.281C12.5383 172.383 12.5997 172.502 12.6345 172.629C12.6693 172.757 12.6767 172.89 12.6561 173.021C12.6355 173.152 12.5874 173.277 12.5151 173.387C11.4492 175.595 10.4207 177.858 9.50439 180.159C9.42705 180.313 9.3098 180.442 9.16498 180.535C9.02017 180.627 8.85316 180.678 8.68159 180.683L8.64419 180.665ZM15.264 167.326C15.099 167.327 14.9369 167.282 14.7965 167.195C14.6895 167.135 14.5957 167.054 14.5206 166.957C14.4454 166.86 14.3905 166.749 14.3592 166.63C14.3278 166.511 14.3205 166.388 14.3378 166.266C14.3551 166.145 14.3966 166.028 14.4599 165.923C15.7315 163.771 17.0592 161.62 18.443 159.525C18.5891 159.343 18.7977 159.223 19.028 159.187C19.2582 159.151 19.4934 159.203 19.6876 159.332C19.8818 159.461 20.021 159.657 20.0779 159.883C20.1347 160.109 20.1052 160.348 19.9951 160.554C18.6487 162.612 17.321 164.744 16.0681 166.858C15.9865 167 15.8694 167.117 15.7283 167.199C15.5872 167.281 15.4272 167.325 15.264 167.326ZM23.5107 154.829C23.3077 154.833 23.1095 154.767 22.9497 154.642C22.7537 154.496 22.6225 154.28 22.5841 154.038C22.5456 153.797 22.603 153.551 22.744 153.351C24.24 151.331 25.7921 149.329 27.3816 147.402C27.4578 147.306 27.5526 147.226 27.6602 147.167C27.7679 147.108 27.8863 147.072 28.0084 147.059C28.1305 147.047 28.2538 147.06 28.371 147.096C28.4881 147.132 28.5968 147.192 28.6906 147.271C28.8804 147.428 29.0007 147.654 29.0252 147.899C29.0497 148.144 28.9765 148.389 28.8215 148.581C27.2507 150.451 25.7173 152.453 24.2587 154.455C24.1651 154.56 24.0496 154.643 23.9203 154.698C23.7909 154.753 23.6511 154.778 23.5107 154.773V154.829ZM32.9916 143.268C32.8778 143.27 32.7646 143.25 32.6587 143.208C32.5527 143.166 32.4561 143.104 32.3745 143.024C32.2869 142.937 32.2173 142.834 32.1698 142.72C32.1224 142.606 32.0979 142.484 32.0979 142.36C32.0979 142.237 32.1224 142.115 32.1698 142.001C32.2173 141.887 32.2869 141.783 32.3745 141.696C34.0575 139.825 35.834 137.955 37.6105 136.29C37.6958 136.202 37.7976 136.133 37.91 136.086C38.0224 136.039 38.1431 136.014 38.265 136.014C38.3869 136.014 38.5076 136.039 38.62 136.086C38.7323 136.133 38.8342 136.202 38.9195 136.29C39.0071 136.377 39.0767 136.48 39.1242 136.594C39.1716 136.708 39.1961 136.83 39.1961 136.954C39.1961 137.077 39.1716 137.199 39.1242 137.313C39.0767 137.427 39.0071 137.531 38.9195 137.618C37.1617 139.32 35.4226 141.116 33.7396 142.95C33.6424 143.046 33.5248 143.12 33.3954 143.166C33.2659 143.211 33.1279 143.227 32.9916 143.211V143.268ZM43.688 132.81C43.5564 132.811 43.4262 132.783 43.3067 132.728C43.1871 132.673 43.0811 132.592 42.9961 132.492C42.909 132.407 42.8398 132.305 42.7926 132.192C42.7454 132.08 42.7211 131.959 42.7211 131.837C42.7211 131.715 42.7454 131.594 42.7926 131.482C42.8398 131.37 42.909 131.268 42.9961 131.182C44.8661 129.517 46.8483 127.908 48.8118 126.374C49.0118 126.256 49.2481 126.214 49.4765 126.258C49.7048 126.302 49.9094 126.427 50.0518 126.611C50.1942 126.795 50.2646 127.024 50.2498 127.256C50.2349 127.488 50.1358 127.707 49.9712 127.871C48.1012 129.368 46.1003 130.958 44.2303 132.585C44.0713 132.696 43.8818 132.755 43.688 132.754V132.81ZM199.085 129.854C198.915 129.853 198.748 129.805 198.603 129.716C198.458 129.627 198.34 129.5 198.262 129.349C197.039 127.253 195.583 125.301 193.924 123.531C193.758 123.345 193.672 123.1 193.686 122.851C193.7 122.602 193.813 122.369 193.999 122.203C194.185 122.036 194.429 121.951 194.678 121.965C194.927 121.979 195.16 122.091 195.326 122.277C197.095 124.158 198.633 126.243 199.908 128.488C199.966 128.596 200.002 128.714 200.014 128.836C200.025 128.958 200.012 129.081 199.976 129.198C199.939 129.315 199.88 129.423 199.8 129.517C199.721 129.61 199.624 129.687 199.515 129.742C199.379 129.797 199.231 129.816 199.085 129.798V129.854ZM55.5999 123.587C55.4474 123.591 55.2965 123.555 55.1621 123.483C55.0276 123.411 54.9143 123.305 54.8332 123.175C54.7628 123.075 54.7132 122.962 54.6873 122.842C54.6615 122.723 54.6598 122.599 54.6825 122.479C54.7051 122.358 54.7516 122.244 54.8193 122.142C54.8869 122.04 54.9743 121.952 55.0763 121.885C57.1333 120.463 59.2651 119.097 61.3969 117.806C61.5016 117.739 61.6188 117.694 61.7414 117.674C61.8641 117.653 61.9896 117.658 62.1103 117.688C62.231 117.718 62.3444 117.772 62.4436 117.847C62.5427 117.922 62.6256 118.016 62.6872 118.124C62.7517 118.23 62.7946 118.347 62.8135 118.469C62.8324 118.591 62.8269 118.716 62.7974 118.836C62.7678 118.956 62.7147 119.069 62.6413 119.168C62.5678 119.268 62.4754 119.352 62.3693 119.415C60.2562 120.669 58.1618 122.034 56.1235 123.419C55.9715 123.529 55.7879 123.588 55.5999 123.587ZM189.23 118.686C189.01 118.685 188.798 118.605 188.632 118.461C186.737 116.892 184.751 115.437 182.685 114.102C182.582 114.035 182.493 113.947 182.424 113.845C182.354 113.743 182.306 113.629 182.28 113.508C182.255 113.387 182.254 113.263 182.277 113.142C182.3 113.021 182.346 112.905 182.414 112.802C182.481 112.699 182.569 112.61 182.671 112.54C182.772 112.471 182.887 112.422 183.008 112.397C183.128 112.372 183.253 112.371 183.374 112.394C183.495 112.417 183.61 112.463 183.714 112.531C185.838 113.914 187.879 115.419 189.828 117.039C189.973 117.163 190.077 117.328 190.125 117.512C190.174 117.696 190.165 117.891 190.1 118.07C190.035 118.249 189.916 118.404 189.761 118.514C189.606 118.624 189.42 118.684 189.23 118.686ZM68.3159 115.879C68.143 115.879 67.9734 115.832 67.8252 115.743C67.677 115.654 67.5557 115.527 67.4744 115.374C67.3621 115.156 67.3403 114.902 67.4138 114.667C67.4873 114.432 67.6501 114.236 67.8671 114.121C70.0737 112.961 72.3551 111.857 74.6552 110.828C74.7666 110.776 74.8874 110.746 75.0105 110.741C75.1336 110.736 75.2565 110.756 75.3717 110.8C75.4869 110.843 75.5921 110.91 75.6811 110.995C75.77 111.08 75.8409 111.183 75.8894 111.296C75.9856 111.522 75.9907 111.777 75.9036 112.007C75.8165 112.237 75.6439 112.425 75.4219 112.531C73.1592 113.541 70.9152 114.626 68.746 115.767C68.614 115.839 68.4663 115.878 68.3159 115.879ZM176.776 110.491C176.632 110.489 176.49 110.451 176.364 110.379C174.214 109.313 171.933 108.303 169.614 107.405C169.384 107.317 169.198 107.142 169.097 106.917C168.995 106.693 168.986 106.438 169.071 106.207C169.115 106.091 169.181 105.985 169.266 105.895C169.351 105.805 169.453 105.732 169.566 105.682C169.679 105.631 169.801 105.604 169.925 105.601C170.049 105.598 170.172 105.62 170.287 105.665C172.662 106.582 174.999 107.536 177.206 108.714C177.426 108.826 177.593 109.021 177.67 109.256C177.747 109.491 177.728 109.747 177.617 109.968C177.533 110.135 177.401 110.275 177.238 110.368C177.075 110.461 176.888 110.504 176.701 110.491H176.776ZM82.023 109.743C81.8336 109.742 81.6489 109.684 81.4924 109.578C81.3359 109.471 81.2146 109.32 81.1441 109.145C81.0993 109.03 81.0779 108.909 81.0811 108.786C81.0842 108.664 81.1119 108.543 81.1624 108.431C81.213 108.32 81.2854 108.219 81.3754 108.136C81.4654 108.053 81.5711 107.989 81.6864 107.947C84.0239 107.049 86.4175 106.226 88.8111 105.478C88.9276 105.438 89.0511 105.422 89.1739 105.432C89.2967 105.441 89.4163 105.476 89.525 105.534C89.6338 105.592 89.7295 105.672 89.8061 105.768C89.8827 105.865 89.9387 105.976 89.9705 106.095C90.0078 106.212 90.0214 106.335 90.0105 106.457C89.9995 106.579 89.9642 106.697 89.9067 106.805C89.8492 106.914 89.7706 107.009 89.6755 107.086C89.5805 107.163 89.471 107.221 89.3534 107.255C87.0159 108.003 84.641 108.808 82.3409 109.687C82.216 109.735 82.0816 109.755 81.9482 109.743H82.023ZM96.2724 105.272C96.0244 105.302 95.7748 105.232 95.5784 105.077C95.382 104.923 95.255 104.697 95.2252 104.449C95.1954 104.201 95.2654 103.951 95.4197 103.755C95.574 103.558 95.8 103.431 96.048 103.401C98.4603 102.784 100.929 102.241 103.397 101.774C103.517 101.749 103.641 101.748 103.762 101.772C103.883 101.795 103.997 101.842 104.1 101.91C104.202 101.978 104.29 102.065 104.359 102.167C104.428 102.268 104.476 102.383 104.5 102.503C104.544 102.748 104.491 103.001 104.351 103.208C104.211 103.414 103.996 103.557 103.752 103.607C101.321 104.075 98.8904 104.617 96.4968 105.216L96.2724 105.272ZM162.844 105.104H162.601C160.282 104.449 157.87 103.85 155.402 103.345C155.281 103.321 155.167 103.273 155.065 103.204C154.964 103.135 154.876 103.047 154.809 102.944C154.741 102.842 154.694 102.727 154.671 102.606C154.647 102.486 154.648 102.362 154.672 102.241C154.726 102.001 154.871 101.79 155.077 101.654C155.283 101.518 155.533 101.467 155.776 101.512C158.282 102.036 160.75 102.634 163.106 103.383C163.345 103.452 163.547 103.613 163.669 103.829C163.791 104.046 163.824 104.302 163.761 104.542C163.678 104.73 163.537 104.886 163.358 104.987C163.18 105.088 162.973 105.129 162.77 105.104H162.844ZM110.952 102.447C110.829 102.456 110.706 102.44 110.589 102.401C110.472 102.362 110.364 102.3 110.272 102.219C110.084 102.056 109.969 101.825 109.951 101.577C109.934 101.329 110.016 101.084 110.179 100.897C110.342 100.709 110.573 100.594 110.821 100.576C113.289 100.24 115.795 99.959 118.301 99.7532C118.424 99.7434 118.547 99.7578 118.664 99.7958C118.782 99.8337 118.89 99.8943 118.984 99.9742C119.078 100.054 119.155 100.152 119.211 100.261C119.267 100.371 119.301 100.491 119.311 100.614C119.321 100.737 119.306 100.86 119.268 100.977C119.23 101.095 119.17 101.203 119.09 101.297C119.01 101.391 118.912 101.468 118.803 101.524C118.693 101.58 118.573 101.614 118.451 101.624C116.001 101.848 113.514 102.11 111.083 102.447H110.952ZM148.221 102.11H148.09C145.715 101.811 143.228 101.549 140.722 101.381C140.599 101.374 140.479 101.342 140.368 101.289C140.258 101.235 140.159 101.16 140.077 101.068C139.995 100.975 139.933 100.868 139.893 100.752C139.853 100.635 139.836 100.512 139.843 100.389C139.863 100.139 139.979 99.9071 140.168 99.7426C140.357 99.5781 140.603 99.4945 140.853 99.51C143.396 99.6971 145.921 99.9403 148.333 100.258C148.456 100.266 148.576 100.297 148.687 100.351C148.797 100.405 148.896 100.48 148.978 100.572C149.06 100.664 149.122 100.771 149.162 100.888C149.203 101.004 149.219 101.127 149.212 101.25C149.205 101.373 149.173 101.493 149.119 101.603C149.066 101.714 148.991 101.813 148.899 101.895C148.807 101.976 148.699 102.039 148.583 102.079C148.467 102.12 148.344 102.136 148.221 102.129V102.11ZM125.781 101.156C125.539 101.156 125.307 101.063 125.133 100.896C124.958 100.728 124.856 100.5 124.846 100.258C124.841 100.011 124.931 99.7722 125.099 99.5908C125.266 99.4094 125.497 99.2999 125.744 99.2855C128.231 99.2855 130.774 99.1732 133.224 99.2855C133.47 99.2952 133.703 99.3999 133.874 99.5778C134.045 99.7557 134.14 99.9929 134.14 100.24C134.137 100.362 134.111 100.484 134.062 100.596C134.012 100.709 133.941 100.81 133.853 100.896C133.764 100.981 133.66 101.048 133.545 101.092C133.431 101.137 133.309 101.159 133.186 101.156C130.736 101.156 128.212 101.156 125.706 101.156H125.781Z" fill="#D1D3D4"/>
</svg>
