<svg width="488" height="588" viewBox="0 0 488 588" fill="none" xmlns="http://www.w3.org/2000/svg">
<path d="M477.702 7.53415V4.86074L487.424 0V2.43037L480.132 6.07593V6.31896L487.424 9.96452V12.3949L477.702 7.53415Z" fill="#2E2E2E"/>
<path d="M428.285 26.6801V24.0067L438.006 19.146V21.5764L430.715 25.2219V25.465L438.006 29.1105V31.5409L428.285 26.6801Z" fill="#2E2E2E"/>
<path d="M444.757 26.6801V24.0067L454.479 19.146V21.5764L447.187 25.2219V25.465L454.479 29.1105V31.5409L444.757 26.6801Z" fill="#2E2E2E"/>
<path d="M461.229 26.6801V24.0067L470.951 19.146V21.5764L463.66 25.2219V25.465L470.951 29.1105V31.5409L461.229 26.6801Z" fill="#2E2E2E"/>
<path d="M477.702 26.6801V24.0067L487.424 19.146V21.5764L480.132 25.2219V25.465L487.424 29.1105V31.5409L477.702 26.6801Z" fill="#2E2E2E"/>
<path d="M378.867 45.8257V43.1522L388.588 38.2915V40.7219L381.297 44.3674V44.6105L388.588 48.256V50.6864L378.867 45.8257Z" fill="#2E2E2E"/>
<path d="M395.34 45.8257V43.1522L405.061 38.2915V40.7219L397.77 44.3674V44.6105L405.061 48.256V50.6864L395.34 45.8257Z" fill="#2E2E2E"/>
<path d="M411.812 45.8257V43.1522L421.534 38.2915V40.7219L414.243 44.3674V44.6105L421.534 48.256V50.6864L411.812 45.8257Z" fill="#2E2E2E"/>
<path d="M428.285 45.8257V43.1522L438.006 38.2915V40.7219L430.715 44.3674V44.6105L438.006 48.256V50.6864L428.285 45.8257Z" fill="#2E2E2E"/>
<path d="M444.757 45.8257V43.1522L454.479 38.2915V40.7219L447.187 44.3674V44.6105L454.479 48.256V50.6864L444.757 45.8257Z" fill="#2E2E2E"/>
<path d="M461.229 45.8257V43.1522L470.951 38.2915V40.7219L463.66 44.3674V44.6105L470.951 48.256V50.6864L461.229 45.8257Z" fill="#2E2E2E"/>
<path d="M477.702 45.8257V43.1522L487.424 38.2915V40.7219L480.132 44.3674V44.6105L487.424 48.256V50.6864L477.702 45.8257Z" fill="#2E2E2E"/>
<path d="M329.45 64.9721V62.2987L339.171 57.438V59.8684L331.88 63.5139V63.757L339.171 67.4025V69.8329L329.45 64.9721Z" fill="#2E2E2E"/>
<path d="M345.922 64.9721V62.2987L355.644 57.438V59.8684L348.353 63.5139V63.757L355.644 67.4025V69.8329L345.922 64.9721Z" fill="#2E2E2E"/>
<path d="M362.395 64.9721V62.2987L372.116 57.438V59.8684L364.825 63.5139V63.757L372.116 67.4025V69.8329L362.395 64.9721Z" fill="#2E2E2E"/>
<path d="M378.867 64.9721V62.2987L388.588 57.438V59.8684L381.297 63.5139V63.757L388.588 67.4025V69.8329L378.867 64.9721Z" fill="#2E2E2E"/>
<path d="M395.34 64.9721V62.2987L405.061 57.438V59.8684L397.77 63.5139V63.757L405.061 67.4025V69.8329L395.34 64.9721Z" fill="#2E2E2E"/>
<path d="M411.812 64.9721V62.2987L421.534 57.438V59.8684L414.243 63.5139V63.757L421.534 67.4025V69.8329L411.812 64.9721Z" fill="#2E2E2E"/>
<path d="M428.285 64.9721V62.2987L438.006 57.438V59.8684L430.715 63.5139V63.757L438.006 67.4025V69.8329L428.285 64.9721Z" fill="#2E2E2E"/>
<path d="M444.757 64.9721V62.2987L454.479 57.438V59.8684L447.187 63.5139V63.757L454.479 67.4025V69.8329L444.757 64.9721Z" fill="#2E2E2E"/>
<path d="M461.229 64.9721V62.2987L470.951 57.438V59.8684L463.66 63.5139V63.757L470.951 67.4025V69.8329L461.229 64.9721Z" fill="#2E2E2E"/>
<path d="M477.702 64.9721V62.2987L487.424 57.438V59.8684L480.132 63.5139V63.757L487.424 67.4025V69.8329L477.702 64.9721Z" fill="#2E2E2E"/>
<path d="M329.45 84.1176V81.4442L339.171 76.5835V79.0139L331.88 82.6594V82.9025L339.171 86.548V88.9784L329.45 84.1176Z" fill="#2E2E2E"/>
<path d="M345.922 84.1176V81.4442L355.644 76.5835V79.0139L348.353 82.6594V82.9025L355.644 86.548V88.9784L345.922 84.1176Z" fill="#2E2E2E"/>
<path d="M362.395 84.1176V81.4442L372.116 76.5835V79.0139L364.825 82.6594V82.9025L372.116 86.548V88.9784L362.395 84.1176Z" fill="#2E2E2E"/>
<path d="M378.867 84.1176V81.4442L388.588 76.5835V79.0139L381.297 82.6594V82.9025L388.588 86.548V88.9784L378.867 84.1176Z" fill="#2E2E2E"/>
<path d="M395.34 84.1176V81.4442L405.061 76.5835V79.0139L397.77 82.6594V82.9025L405.061 86.548V88.9784L395.34 84.1176Z" fill="#2E2E2E"/>
<path d="M411.812 84.1176V81.4442L421.534 76.5835V79.0139L414.243 82.6594V82.9025L421.534 86.548V88.9784L411.812 84.1176Z" fill="#2E2E2E"/>
<path d="M428.285 84.1176V81.4442L438.006 76.5835V79.0139L430.715 82.6594V82.9025L438.006 86.548V88.9784L428.285 84.1176Z" fill="#2E2E2E"/>
<path d="M444.757 84.1176V81.4442L454.479 76.5835V79.0139L447.187 82.6594V82.9025L454.479 86.548V88.9784L444.757 84.1176Z" fill="#2E2E2E"/>
<path d="M461.229 84.1176V81.4442L470.951 76.5835V79.0139L463.66 82.6594V82.9025L470.951 86.548V88.9784L461.229 84.1176Z" fill="#2E2E2E"/>
<path d="M477.702 84.1176V81.4442L487.424 76.5835V79.0139L480.132 82.6594V82.9025L487.424 86.548V88.9784L477.702 84.1176Z" fill="#2E2E2E"/>
<path d="M329.45 103.264V100.591L339.171 95.73V98.1604L331.88 101.806V102.049L339.171 105.695V108.125L329.45 103.264Z" fill="#2E2E2E"/>
<path d="M345.922 103.264V100.591L355.644 95.73V98.1604L348.353 101.806V102.049L355.644 105.695V108.125L345.922 103.264Z" fill="#2E2E2E"/>
<path d="M362.395 103.264V100.591L372.116 95.73V98.1604L364.825 101.806V102.049L372.116 105.695V108.125L362.395 103.264Z" fill="#2E2E2E"/>
<path d="M378.867 103.264V100.591L388.588 95.73V98.1604L381.297 101.806V102.049L388.588 105.695V108.125L378.867 103.264Z" fill="#2E2E2E"/>
<path d="M395.34 103.264V100.591L405.061 95.73V98.1604L397.77 101.806V102.049L405.061 105.695V108.125L395.34 103.264Z" fill="#2E2E2E"/>
<path d="M411.812 103.264V100.591L421.534 95.73V98.1604L414.243 101.806V102.049L421.534 105.695V108.125L411.812 103.264Z" fill="#2E2E2E"/>
<path d="M428.285 103.264V100.591L438.006 95.73V98.1604L430.715 101.806V102.049L438.006 105.695V108.125L428.285 103.264Z" fill="#2E2E2E"/>
<path d="M444.757 103.264V100.591L454.479 95.73V98.1604L447.187 101.806V102.049L454.479 105.695V108.125L444.757 103.264Z" fill="#2E2E2E"/>
<path d="M461.229 103.264V100.591L470.951 95.73V98.1604L463.66 101.806V102.049L470.951 105.695V108.125L461.229 103.264Z" fill="#2E2E2E"/>
<path d="M477.702 103.264V100.591L487.424 95.73V98.1604L480.132 101.806V102.049L487.424 105.695V108.125L477.702 103.264Z" fill="#2E2E2E"/>
<path d="M329.45 122.41V119.736L339.171 114.875V117.306L331.88 120.951V121.194L339.171 124.84V127.27L329.45 122.41Z" fill="#2E2E2E"/>
<path d="M345.922 122.41V119.736L355.644 114.875V117.306L348.353 120.951V121.194L355.644 124.84V127.27L345.922 122.41Z" fill="#2E2E2E"/>
<path d="M362.395 122.41V119.736L372.116 114.875V117.306L364.825 120.951V121.194L372.116 124.84V127.27L362.395 122.41Z" fill="#2E2E2E"/>
<path d="M378.867 122.41V119.736L388.588 114.875V117.306L381.297 120.951V121.194L388.588 124.84V127.27L378.867 122.41Z" fill="#2E2E2E"/>
<path d="M395.34 122.41V119.736L405.061 114.875V117.306L397.77 120.951V121.194L405.061 124.84V127.27L395.34 122.41Z" fill="#2E2E2E"/>
<path d="M411.812 122.41V119.736L421.534 114.875V117.306L414.243 120.951V121.194L421.534 124.84V127.27L411.812 122.41Z" fill="#2E2E2E"/>
<path d="M428.285 122.41V119.736L438.006 114.875V117.306L430.715 120.951V121.194L438.006 124.84V127.27L428.285 122.41Z" fill="#2E2E2E"/>
<path d="M444.757 122.41V119.736L454.479 114.875V117.306L447.187 120.951V121.194L454.479 124.84V127.27L444.757 122.41Z" fill="#2E2E2E"/>
<path d="M461.229 122.41V119.736L470.951 114.875V117.306L463.66 120.951V121.194L470.951 124.84V127.27L461.229 122.41Z" fill="#2E2E2E"/>
<path d="M477.702 122.41V119.736L487.424 114.875V117.306L480.132 120.951V121.194L487.424 124.84V127.27L477.702 122.41Z" fill="#2E2E2E"/>
<path d="M329.45 141.556V138.882L339.171 134.021V136.452L331.88 140.097V140.34L339.171 143.986V146.416L329.45 141.556Z" fill="#2E2E2E"/>
<path d="M345.922 141.556V138.882L355.644 134.021V136.452L348.353 140.097V140.34L355.644 143.986V146.416L345.922 141.556Z" fill="#2E2E2E"/>
<path d="M362.395 141.556V138.882L372.116 134.021V136.452L364.825 140.097V140.34L372.116 143.986V146.416L362.395 141.556Z" fill="#2E2E2E"/>
<path d="M378.867 141.556V138.882L388.588 134.021V136.452L381.297 140.097V140.34L388.588 143.986V146.416L378.867 141.556Z" fill="#2E2E2E"/>
<path d="M395.34 141.556V138.882L405.061 134.021V136.452L397.77 140.097V140.34L405.061 143.986V146.416L395.34 141.556Z" fill="#2E2E2E"/>
<path d="M411.812 141.556V138.882L421.534 134.021V136.452L414.243 140.097V140.34L421.534 143.986V146.416L411.812 141.556Z" fill="#2E2E2E"/>
<path d="M428.285 141.556V138.882L438.006 134.021V136.452L430.715 140.097V140.34L438.006 143.986V146.416L428.285 141.556Z" fill="#2E2E2E"/>
<path d="M444.757 141.556V138.882L454.479 134.021V136.452L447.187 140.097V140.34L454.479 143.986V146.416L444.757 141.556Z" fill="#2E2E2E"/>
<path d="M461.229 141.556V138.882L470.951 134.021V136.452L463.66 140.097V140.34L470.951 143.986V146.416L461.229 141.556Z" fill="#2E2E2E"/>
<path d="M477.702 141.556V138.882L487.424 134.021V136.452L480.132 140.097V140.34L487.424 143.986V146.416L477.702 141.556Z" fill="#2E2E2E"/>
<path d="M329.45 160.702V158.028L339.171 153.167V155.598L331.88 159.243V159.486L339.171 163.132V165.562L329.45 160.702Z" fill="#2E2E2E"/>
<path d="M345.922 160.702V158.028L355.644 153.167V155.598L348.353 159.243V159.486L355.644 163.132V165.562L345.922 160.702Z" fill="#2E2E2E"/>
<path d="M362.395 160.702V158.028L372.116 153.167V155.598L364.825 159.243V159.486L372.116 163.132V165.562L362.395 160.702Z" fill="#2E2E2E"/>
<path d="M378.867 160.702V158.028L388.588 153.167V155.598L381.297 159.243V159.486L388.588 163.132V165.562L378.867 160.702Z" fill="#2E2E2E"/>
<path d="M395.34 160.702V158.028L405.061 153.167V155.598L397.77 159.243V159.486L405.061 163.132V165.562L395.34 160.702Z" fill="#2E2E2E"/>
<path d="M411.812 160.702V158.028L421.534 153.167V155.598L414.243 159.243V159.486L421.534 163.132V165.562L411.812 160.702Z" fill="#2E2E2E"/>
<path d="M428.285 160.702V158.028L438.006 153.167V155.598L430.715 159.243V159.486L438.006 163.132V165.562L428.285 160.702Z" fill="#2E2E2E"/>
<path d="M444.757 160.702V158.028L454.479 153.167V155.598L447.187 159.243V159.486L454.479 163.132V165.562L444.757 160.702Z" fill="#2E2E2E"/>
<path d="M461.229 160.702V158.028L470.951 153.167V155.598L463.66 159.243V159.486L470.951 163.132V165.562L461.229 160.702Z" fill="#2E2E2E"/>
<path d="M477.702 160.702V158.028L487.424 153.167V155.598L480.132 159.243V159.486L487.424 163.132V165.562L477.702 160.702Z" fill="#2E2E2E"/>
<path d="M329.45 179.847V177.174L339.171 172.313V174.743L331.88 178.389V178.632L339.171 182.278V184.708L329.45 179.847Z" fill="#2E2E2E"/>
<path d="M345.922 179.847V177.174L355.644 172.313V174.743L348.353 178.389V178.632L355.644 182.278V184.708L345.922 179.847Z" fill="#2E2E2E"/>
<path d="M362.395 179.847V177.174L372.116 172.313V174.743L364.825 178.389V178.632L372.116 182.278V184.708L362.395 179.847Z" fill="#2E2E2E"/>
<path d="M378.867 179.847V177.174L388.588 172.313V174.743L381.297 178.389V178.632L388.588 182.278V184.708L378.867 179.847Z" fill="#2E2E2E"/>
<path d="M395.34 179.847V177.174L405.061 172.313V174.743L397.77 178.389V178.632L405.061 182.278V184.708L395.34 179.847Z" fill="#2E2E2E"/>
<path d="M411.812 179.847V177.174L421.534 172.313V174.743L414.243 178.389V178.632L421.534 182.278V184.708L411.812 179.847Z" fill="#2E2E2E"/>
<path d="M428.285 179.847V177.174L438.006 172.313V174.743L430.715 178.389V178.632L438.006 182.278V184.708L428.285 179.847Z" fill="#2E2E2E"/>
<path d="M444.757 179.847V177.174L454.479 172.313V174.743L447.187 178.389V178.632L454.479 182.278V184.708L444.757 179.847Z" fill="#2E2E2E"/>
<path d="M461.229 179.847V177.174L470.951 172.313V174.743L463.66 178.389V178.632L470.951 182.278V184.708L461.229 179.847Z" fill="#2E2E2E"/>
<path d="M477.702 179.847V177.174L487.424 172.313V174.743L480.132 178.389V178.632L487.424 182.278V184.708L477.702 179.847Z" fill="#2E2E2E"/>
<path d="M312.977 64.9721V62.2987L322.699 57.438V59.8684L315.408 63.5139V63.757L322.699 67.4025V69.8329L312.977 64.9721Z" fill="#2E2E2E"/>
<path d="M263.56 84.1181V81.4447L273.281 76.584V79.0144L265.99 82.6599V82.9029L273.281 86.5485V88.9789L263.56 84.1181Z" fill="#2E2E2E"/>
<path d="M280.032 84.1181V81.4447L289.754 76.584V79.0144L282.463 82.6599V82.9029L289.754 86.5485V88.9789L280.032 84.1181Z" fill="#2E2E2E"/>
<path d="M296.505 84.1181V81.4447L306.226 76.584V79.0144L298.935 82.6599V82.9029L306.226 86.5485V88.9789L296.505 84.1181Z" fill="#2E2E2E"/>
<path d="M312.977 84.1181V81.4447L322.699 76.584V79.0144L315.408 82.6599V82.9029L322.699 86.5485V88.9789L312.977 84.1181Z" fill="#2E2E2E"/>
<path d="M214.142 103.264V100.591L223.864 95.73V98.1604L216.573 101.806V102.049L223.864 105.695V108.125L214.142 103.264Z" fill="#2E2E2E"/>
<path d="M230.615 103.264V100.591L240.337 95.73V98.1604L233.046 101.806V102.049L240.337 105.695V108.125L230.615 103.264Z" fill="#2E2E2E"/>
<path d="M247.088 103.264V100.591L256.809 95.73V98.1604L249.518 101.806V102.049L256.809 105.695V108.125L247.088 103.264Z" fill="#2E2E2E"/>
<path d="M263.56 103.264V100.591L273.281 95.73V98.1604L265.99 101.806V102.049L273.281 105.695V108.125L263.56 103.264Z" fill="#2E2E2E"/>
<path d="M280.032 103.264V100.591L289.754 95.73V98.1604L282.463 101.806V102.049L289.754 105.695V108.125L280.032 103.264Z" fill="#2E2E2E"/>
<path d="M296.505 103.264V100.591L306.226 95.73V98.1604L298.935 101.806V102.049L306.226 105.695V108.125L296.505 103.264Z" fill="#2E2E2E"/>
<path d="M312.977 103.264V100.591L322.699 95.73V98.1604L315.408 101.806V102.049L322.699 105.695V108.125L312.977 103.264Z" fill="#2E2E2E"/>
<path d="M164.725 122.41V119.737L174.447 114.876V117.306L167.156 120.952V121.195L174.447 124.84V127.271L164.725 122.41Z" fill="#2E2E2E"/>
<path d="M181.198 122.41V119.737L190.919 114.876V117.306L183.628 120.952V121.195L190.919 124.84V127.271L181.198 122.41Z" fill="#2E2E2E"/>
<path d="M197.67 122.41V119.737L207.392 114.876V117.306L200.101 120.952V121.195L207.392 124.84V127.271L197.67 122.41Z" fill="#2E2E2E"/>
<path d="M214.142 122.41V119.737L223.864 114.876V117.306L216.573 120.952V121.195L223.864 124.84V127.271L214.142 122.41Z" fill="#2E2E2E"/>
<path d="M230.615 122.41V119.737L240.337 114.876V117.306L233.046 120.952V121.195L240.337 124.84V127.271L230.615 122.41Z" fill="#2E2E2E"/>
<path d="M247.088 122.41V119.737L256.809 114.876V117.306L249.518 120.952V121.195L256.809 124.84V127.271L247.088 122.41Z" fill="#2E2E2E"/>
<path d="M263.56 122.41V119.737L273.281 114.876V117.306L265.99 120.952V121.195L273.281 124.84V127.271L263.56 122.41Z" fill="#2E2E2E"/>
<path d="M280.032 122.41V119.737L289.754 114.876V117.306L282.463 120.952V121.195L289.754 124.84V127.271L280.032 122.41Z" fill="#2E2E2E"/>
<path d="M296.505 122.41V119.737L306.226 114.876V117.306L298.935 120.952V121.195L306.226 124.84V127.271L296.505 122.41Z" fill="#2E2E2E"/>
<path d="M312.977 122.41V119.737L322.699 114.876V117.306L315.408 120.952V121.195L322.699 124.84V127.271L312.977 122.41Z" fill="#2E2E2E"/>
<path d="M164.725 141.556V138.882L174.447 134.021V136.452L167.156 140.097V140.34L174.447 143.986V146.416L164.725 141.556Z" fill="#2E2E2E"/>
<path d="M181.198 141.556V138.882L190.919 134.021V136.452L183.628 140.097V140.34L190.919 143.986V146.416L181.198 141.556Z" fill="#2E2E2E"/>
<path d="M197.67 141.556V138.882L207.392 134.021V136.452L200.101 140.097V140.34L207.392 143.986V146.416L197.67 141.556Z" fill="#2E2E2E"/>
<path d="M214.142 141.556V138.882L223.864 134.021V136.452L216.573 140.097V140.34L223.864 143.986V146.416L214.142 141.556Z" fill="#2E2E2E"/>
<path d="M230.615 141.556V138.882L240.337 134.021V136.452L233.046 140.097V140.34L240.337 143.986V146.416L230.615 141.556Z" fill="#2E2E2E"/>
<path d="M247.088 141.556V138.882L256.809 134.021V136.452L249.518 140.097V140.34L256.809 143.986V146.416L247.088 141.556Z" fill="#2E2E2E"/>
<path d="M263.56 141.556V138.882L273.281 134.021V136.452L265.99 140.097V140.34L273.281 143.986V146.416L263.56 141.556Z" fill="#2E2E2E"/>
<path d="M280.032 141.556V138.882L289.754 134.021V136.452L282.463 140.097V140.34L289.754 143.986V146.416L280.032 141.556Z" fill="#2E2E2E"/>
<path d="M296.505 141.556V138.882L306.226 134.021V136.452L298.935 140.097V140.34L306.226 143.986V146.416L296.505 141.556Z" fill="#2E2E2E"/>
<path d="M312.977 141.556V138.882L322.699 134.021V136.452L315.408 140.097V140.34L322.699 143.986V146.416L312.977 141.556Z" fill="#2E2E2E"/>
<path d="M164.725 160.702V158.029L174.447 153.168V155.598L167.156 159.244V159.487L174.447 163.132V165.563L164.725 160.702Z" fill="#2E2E2E"/>
<path d="M181.198 160.702V158.029L190.919 153.168V155.598L183.628 159.244V159.487L190.919 163.132V165.563L181.198 160.702Z" fill="#2E2E2E"/>
<path d="M197.67 160.702V158.029L207.392 153.168V155.598L200.101 159.244V159.487L207.392 163.132V165.563L197.67 160.702Z" fill="#2E2E2E"/>
<path d="M214.142 160.702V158.029L223.864 153.168V155.598L216.573 159.244V159.487L223.864 163.132V165.563L214.142 160.702Z" fill="#2E2E2E"/>
<path d="M230.615 160.702V158.029L240.337 153.168V155.598L233.046 159.244V159.487L240.337 163.132V165.563L230.615 160.702Z" fill="#2E2E2E"/>
<path d="M247.088 160.702V158.029L256.809 153.168V155.598L249.518 159.244V159.487L256.809 163.132V165.563L247.088 160.702Z" fill="#2E2E2E"/>
<path d="M263.56 160.702V158.029L273.281 153.168V155.598L265.99 159.244V159.487L273.281 163.132V165.563L263.56 160.702Z" fill="#2E2E2E"/>
<path d="M280.032 160.702V158.029L289.754 153.168V155.598L282.463 159.244V159.487L289.754 163.132V165.563L280.032 160.702Z" fill="#2E2E2E"/>
<path d="M296.505 160.702V158.029L306.226 153.168V155.598L298.935 159.244V159.487L306.226 163.132V165.563L296.505 160.702Z" fill="#2E2E2E"/>
<path d="M312.977 160.702V158.029L322.699 153.168V155.598L315.408 159.244V159.487L322.699 163.132V165.563L312.977 160.702Z" fill="#2E2E2E"/>
<path d="M164.725 179.848V177.174L174.447 172.313V174.744L167.156 178.389V178.632L174.447 182.278V184.708L164.725 179.848Z" fill="#2E2E2E"/>
<path d="M181.198 179.848V177.174L190.919 172.313V174.744L183.628 178.389V178.632L190.919 182.278V184.708L181.198 179.848Z" fill="#2E2E2E"/>
<path d="M197.67 179.848V177.174L207.392 172.313V174.744L200.101 178.389V178.632L207.392 182.278V184.708L197.67 179.848Z" fill="#2E2E2E"/>
<path d="M214.142 179.848V177.174L223.864 172.313V174.744L216.573 178.389V178.632L223.864 182.278V184.708L214.142 179.848Z" fill="#2E2E2E"/>
<path d="M230.615 179.848V177.174L240.337 172.313V174.744L233.046 178.389V178.632L240.337 182.278V184.708L230.615 179.848Z" fill="#2E2E2E"/>
<path d="M247.088 179.848V177.174L256.809 172.313V174.744L249.518 178.389V178.632L256.809 182.278V184.708L247.088 179.848Z" fill="#2E2E2E"/>
<path d="M263.56 179.848V177.174L273.281 172.313V174.744L265.99 178.389V178.632L273.281 182.278V184.708L263.56 179.848Z" fill="#2E2E2E"/>
<path d="M280.032 179.848V177.174L289.754 172.313V174.744L282.463 178.389V178.632L289.754 182.278V184.708L280.032 179.848Z" fill="#2E2E2E"/>
<path d="M296.505 179.848V177.174L306.226 172.313V174.744L298.935 178.389V178.632L306.226 182.278V184.708L296.505 179.848Z" fill="#2E2E2E"/>
<path d="M312.977 179.848V177.174L322.699 172.313V174.744L315.408 178.389V178.632L322.699 182.278V184.708L312.977 179.848Z" fill="#2E2E2E"/>
<path d="M148.252 122.41V119.736L157.974 114.875V117.306L150.682 120.951V121.194L157.974 124.84V127.27L148.252 122.41Z" fill="#2E2E2E"/>
<path d="M98.8346 141.556V138.882L108.556 134.021V136.452L101.265 140.097V140.34L108.556 143.986V146.416L98.8346 141.556Z" fill="#2E2E2E"/>
<path d="M115.307 141.556V138.882L125.029 134.021V136.452L117.737 140.097V140.34L125.029 143.986V146.416L115.307 141.556Z" fill="#2E2E2E"/>
<path d="M131.78 141.556V138.882L141.501 134.021V136.452L134.21 140.097V140.34L141.501 143.986V146.416L131.78 141.556Z" fill="#2E2E2E"/>
<path d="M148.252 141.556V138.882L157.974 134.021V136.452L150.682 140.097V140.34L157.974 143.986V146.416L148.252 141.556Z" fill="#2E2E2E"/>
<path d="M49.4171 160.701V158.028L59.1386 153.167V155.597L51.8475 159.243V159.486L59.1386 163.132V165.562L49.4171 160.701Z" fill="#2E2E2E"/>
<path d="M65.89 160.701V158.028L75.6115 153.167V155.597L68.3204 159.243V159.486L75.6115 163.132V165.562L65.89 160.701Z" fill="#2E2E2E"/>
<path d="M82.3625 160.701V158.028L92.084 153.167V155.597L84.7929 159.243V159.486L92.084 163.132V165.562L82.3625 160.701Z" fill="#2E2E2E"/>
<path d="M98.8346 160.701V158.028L108.556 153.167V155.597L101.265 159.243V159.486L108.556 163.132V165.562L98.8346 160.701Z" fill="#2E2E2E"/>
<path d="M115.307 160.701V158.028L125.029 153.167V155.597L117.737 159.243V159.486L125.029 163.132V165.562L115.307 160.701Z" fill="#2E2E2E"/>
<path d="M131.78 160.701V158.028L141.501 153.167V155.597L134.21 159.243V159.486L141.501 163.132V165.562L131.78 160.701Z" fill="#2E2E2E"/>
<path d="M148.252 160.701V158.028L157.974 153.167V155.597L150.682 159.243V159.486L157.974 163.132V165.562L148.252 160.701Z" fill="#2E2E2E"/>
<path d="M0 179.848V177.174L9.72148 172.313V174.744L2.43037 178.389V178.632L9.72148 182.278V184.708L0 179.848Z" fill="#2E2E2E"/>
<path d="M16.4725 179.848V177.174L26.194 172.313V174.744L18.9029 178.389V178.632L26.194 182.278V184.708L16.4725 179.848Z" fill="#2E2E2E"/>
<path d="M32.945 179.848V177.174L42.6665 172.313V174.744L35.3754 178.389V178.632L42.6665 182.278V184.708L32.945 179.848Z" fill="#2E2E2E"/>
<path d="M49.4171 179.848V177.174L59.1386 172.313V174.744L51.8475 178.389V178.632L59.1386 182.278V184.708L49.4171 179.848Z" fill="#2E2E2E"/>
<path d="M65.89 179.848V177.174L75.6115 172.313V174.744L68.3204 178.389V178.632L75.6115 182.278V184.708L65.89 179.848Z" fill="#2E2E2E"/>
<path d="M82.3625 179.848V177.174L92.084 172.313V174.744L84.7929 178.389V178.632L92.084 182.278V184.708L82.3625 179.848Z" fill="#2E2E2E"/>
<path d="M98.8346 179.848V177.174L108.556 172.313V174.744L101.265 178.389V178.632L108.556 182.278V184.708L98.8346 179.848Z" fill="#2E2E2E"/>
<path d="M115.307 179.848V177.174L125.029 172.313V174.744L117.737 178.389V178.632L125.029 182.278V184.708L115.307 179.848Z" fill="#2E2E2E"/>
<path d="M131.78 179.848V177.174L141.501 172.313V174.744L134.21 178.389V178.632L141.501 182.278V184.708L131.78 179.848Z" fill="#2E2E2E"/>
<path d="M148.252 179.848V177.174L157.974 172.313V174.744L150.682 178.389V178.632L157.974 182.278V184.708L148.252 179.848Z" fill="#2E2E2E"/>
<path d="M329.451 199.264V196.59L339.172 191.729V194.16L331.881 197.805V198.048L339.172 201.694V204.124L329.451 199.264Z" fill="#2E2E2E"/>
<path d="M345.922 199.264V196.59L355.644 191.729V194.16L348.353 197.805V198.048L355.644 201.694V204.124L345.922 199.264Z" fill="#2E2E2E"/>
<path d="M362.395 199.264V196.59L372.116 191.729V194.16L364.825 197.805V198.048L372.116 201.694V204.124L362.395 199.264Z" fill="#2E2E2E"/>
<path d="M378.867 199.264V196.59L388.588 191.729V194.16L381.297 197.805V198.048L388.588 201.694V204.124L378.867 199.264Z" fill="#2E2E2E"/>
<path d="M395.34 199.264V196.59L405.061 191.729V194.16L397.77 197.805V198.048L405.061 201.694V204.124L395.34 199.264Z" fill="#2E2E2E"/>
<path d="M411.812 199.264V196.59L421.534 191.729V194.16L414.243 197.805V198.048L421.534 201.694V204.124L411.812 199.264Z" fill="#2E2E2E"/>
<path d="M428.285 199.264V196.59L438.006 191.729V194.16L430.715 197.805V198.048L438.006 201.694V204.124L428.285 199.264Z" fill="#2E2E2E"/>
<path d="M444.757 199.264V196.59L454.479 191.729V194.16L447.187 197.805V198.048L454.479 201.694V204.124L444.757 199.264Z" fill="#2E2E2E"/>
<path d="M461.229 199.264V196.59L470.951 191.729V194.16L463.66 197.805V198.048L470.951 201.694V204.124L461.229 199.264Z" fill="#2E2E2E"/>
<path d="M477.702 199.264V196.59L487.424 191.729V194.16L480.132 197.805V198.048L487.424 201.694V204.124L477.702 199.264Z" fill="#2E2E2E"/>
<path d="M329.45 218.409V215.736L339.171 210.875V213.306L331.88 216.951V217.194L339.171 220.84V223.27L329.45 218.409Z" fill="#2E2E2E"/>
<path d="M345.922 218.409V215.736L355.644 210.875V213.306L348.353 216.951V217.194L355.644 220.84V223.27L345.922 218.409Z" fill="#2E2E2E"/>
<path d="M362.395 218.409V215.736L372.116 210.875V213.306L364.825 216.951V217.194L372.116 220.84V223.27L362.395 218.409Z" fill="#2E2E2E"/>
<path d="M378.867 218.409V215.736L388.588 210.875V213.306L381.297 216.951V217.194L388.588 220.84V223.27L378.867 218.409Z" fill="#2E2E2E"/>
<path d="M395.34 218.409V215.736L405.061 210.875V213.306L397.77 216.951V217.194L405.061 220.84V223.27L395.34 218.409Z" fill="#2E2E2E"/>
<path d="M411.812 218.409V215.736L421.534 210.875V213.306L414.243 216.951V217.194L421.534 220.84V223.27L411.812 218.409Z" fill="#2E2E2E"/>
<path d="M329.45 237.555V234.882L339.171 230.021V232.451L331.88 236.097V236.34L339.171 239.986V242.416L329.45 237.555Z" fill="#2E2E2E"/>
<path d="M345.922 237.555V234.882L355.644 230.021V232.451L348.353 236.097V236.34L355.644 239.986V242.416L345.922 237.555Z" fill="#2E2E2E"/>
<path d="M329.45 352.431V349.757L339.171 344.897V347.327L331.88 350.973V351.216L339.171 354.861V357.292L329.45 352.431Z" fill="#2E2E2E"/>
<path d="M345.922 352.431V349.757L355.644 344.897V347.327L348.353 350.973V351.216L355.644 354.861V357.292L345.922 352.431Z" fill="#2E2E2E"/>
<path d="M362.395 352.431V349.757L372.116 344.897V347.327L364.825 350.973V351.216L372.116 354.861V357.292L362.395 352.431Z" fill="#2E2E2E"/>
<path d="M329.45 371.577V368.903L339.171 364.042V366.473L331.88 370.118V370.361L339.171 374.007V376.437L329.45 371.577Z" fill="#2E2E2E"/>
<path d="M345.922 371.577V368.903L355.644 364.042V366.473L348.353 370.118V370.361L355.644 374.007V376.437L345.922 371.577Z" fill="#2E2E2E"/>
<path d="M362.395 371.577V368.903L372.116 364.042V366.473L364.825 370.118V370.361L372.116 374.007V376.437L362.395 371.577Z" fill="#2E2E2E"/>
<path d="M378.867 371.577V368.903L388.588 364.042V366.473L381.297 370.118V370.361L388.588 374.007V376.437L378.867 371.577Z" fill="#2E2E2E"/>
<path d="M395.34 371.577V368.903L405.061 364.042V366.473L397.77 370.118V370.361L405.061 374.007V376.437L395.34 371.577Z" fill="#2E2E2E"/>
<path d="M411.812 371.577V368.903L421.534 364.042V366.473L414.243 370.118V370.361L421.534 374.007V376.437L411.812 371.577Z" fill="#2E2E2E"/>
<path d="M165.178 199.264V196.59L174.899 191.729V194.16L167.608 197.805V198.048L174.899 201.694V204.124L165.178 199.264Z" fill="#2E2E2E"/>
<path d="M181.436 199.264V196.59L191.158 191.729V194.16L183.866 197.805V198.048L191.158 201.694V204.124L181.436 199.264Z" fill="#2E2E2E"/>
<path d="M197.868 199.264V196.59L207.59 191.729V194.16L200.299 197.805V198.048L207.59 201.694V204.124L197.868 199.264Z" fill="#2E2E2E"/>
<path d="M214.214 199.264V196.59L223.935 191.729V194.16L216.644 197.805V198.048L223.935 201.694V204.124L214.214 199.264Z" fill="#2E2E2E"/>
<path d="M230.559 199.264V196.59L240.281 191.729V194.16L232.99 197.805V198.048L240.281 201.694V204.124L230.559 199.264Z" fill="#2E2E2E"/>
<path d="M247.765 199.264V196.59L257.487 191.729V194.16L250.196 197.805V198.048L257.487 201.694V204.124L247.765 199.264Z" fill="#2E2E2E"/>
<path d="M264.111 199.264V196.59L273.833 191.729V194.16L266.541 197.805V198.048L273.833 201.694V204.124L264.111 199.264Z" fill="#2E2E2E"/>
<path d="M280.457 199.264V196.59L290.178 191.729V194.16L282.887 197.805V198.048L290.178 201.694V204.124L280.457 199.264Z" fill="#2E2E2E"/>
<path d="M296.802 199.264V196.59L306.524 191.729V194.16L299.233 197.805V198.048L306.524 201.694V204.124L296.802 199.264Z" fill="#2E2E2E"/>
<path d="M313.148 199.264V196.59L322.869 191.729V194.16L315.578 197.805V198.048L322.869 201.694V204.124L313.148 199.264Z" fill="#2E2E2E"/>
<path d="M165.177 218.409V215.736L174.898 210.875V213.306L167.607 216.951V217.194L174.898 220.84V223.27L165.177 218.409Z" fill="#2E2E2E"/>
<path d="M181.436 218.409V215.736L191.158 210.875V213.306L183.866 216.951V217.194L191.158 220.84V223.27L181.436 218.409Z" fill="#2E2E2E"/>
<path d="M197.868 218.409V215.736L207.59 210.875V213.306L200.299 216.951V217.194L207.59 220.84V223.27L197.868 218.409Z" fill="#2E2E2E"/>
<path d="M214.214 218.409V215.736L223.935 210.875V213.306L216.644 216.951V217.194L223.935 220.84V223.27L214.214 218.409Z" fill="#2E2E2E"/>
<path d="M230.559 218.409V215.736L240.281 210.875V213.306L232.99 216.951V217.194L240.281 220.84V223.27L230.559 218.409Z" fill="#2E2E2E"/>
<path d="M247.765 218.409V215.736L257.487 210.875V213.306L250.196 216.951V217.194L257.487 220.84V223.27L247.765 218.409Z" fill="#2E2E2E"/>
<path d="M264.111 218.409V215.736L273.833 210.875V213.306L266.541 216.951V217.194L273.833 220.84V223.27L264.111 218.409Z" fill="#2E2E2E"/>
<path d="M280.457 218.409V215.736L290.178 210.875V213.306L282.887 216.951V217.194L290.178 220.84V223.27L280.457 218.409Z" fill="#2E2E2E"/>
<path d="M296.802 218.409V215.736L306.524 210.875V213.306L299.233 216.951V217.194L306.524 220.84V223.27L296.802 218.409Z" fill="#2E2E2E"/>
<path d="M313.148 218.409V215.736L322.869 210.875V213.306L315.578 216.951V217.194L322.869 220.84V223.27L313.148 218.409Z" fill="#2E2E2E"/>
<path d="M165.177 237.555V234.882L174.898 230.021V232.451L167.607 236.097V236.34L174.898 239.986V242.416L165.177 237.555Z" fill="#2E2E2E"/>
<path d="M181.436 237.555V234.882L191.158 230.021V232.451L183.866 236.097V236.34L191.158 239.986V242.416L181.436 237.555Z" fill="#2E2E2E"/>
<path d="M197.868 237.555V234.882L207.59 230.021V232.451L200.299 236.097V236.34L207.59 239.986V242.416L197.868 237.555Z" fill="#2E2E2E"/>
<path d="M214.214 237.555V234.882L223.935 230.021V232.451L216.644 236.097V236.34L223.935 239.986V242.416L214.214 237.555Z" fill="#2E2E2E"/>
<path d="M230.559 237.555V234.882L240.281 230.021V232.451L232.99 236.097V236.34L240.281 239.986V242.416L230.559 237.555Z" fill="#2E2E2E"/>
<path d="M247.765 237.555V234.882L257.487 230.021V232.451L250.196 236.097V236.34L257.487 239.986V242.416L247.765 237.555Z" fill="#2E2E2E"/>
<path d="M264.111 237.555V234.882L273.833 230.021V232.451L266.541 236.097V236.34L273.833 239.986V242.416L264.111 237.555Z" fill="#2E2E2E"/>
<path d="M280.457 237.555V234.882L290.178 230.021V232.451L282.887 236.097V236.34L290.178 239.986V242.416L280.457 237.555Z" fill="#2E2E2E"/>
<path d="M296.802 237.555V234.882L306.524 230.021V232.451L299.233 236.097V236.34L306.524 239.986V242.416L296.802 237.555Z" fill="#2E2E2E"/>
<path d="M313.148 237.555V234.882L322.869 230.021V232.451L315.578 236.097V236.34L322.869 239.986V242.416L313.148 237.555Z" fill="#2E2E2E"/>
<path d="M165.177 256.701V254.028L174.898 249.167V251.598L167.607 255.243V255.486L174.898 259.132V261.562L165.177 256.701Z" fill="#2E2E2E"/>
<path d="M181.436 256.701V254.028L191.158 249.167V251.598L183.866 255.243V255.486L191.158 259.132V261.562L181.436 256.701Z" fill="#2E2E2E"/>
<path d="M197.868 256.701V254.028L207.59 249.167V251.598L200.299 255.243V255.486L207.59 259.132V261.562L197.868 256.701Z" fill="#2E2E2E"/>
<path d="M214.214 256.701V254.028L223.935 249.167V251.598L216.644 255.243V255.486L223.935 259.132V261.562L214.214 256.701Z" fill="#2E2E2E"/>
<path d="M230.559 256.701V254.028L240.281 249.167V251.598L232.99 255.243V255.486L240.281 259.132V261.562L230.559 256.701Z" fill="#2E2E2E"/>
<path d="M247.765 256.701V254.028L257.487 249.167V251.598L250.196 255.243V255.486L257.487 259.132V261.562L247.765 256.701Z" fill="#2E2E2E"/>
<path d="M264.111 256.701V254.028L273.833 249.167V251.598L266.541 255.243V255.486L273.833 259.132V261.562L264.111 256.701Z" fill="#2E2E2E"/>
<path d="M280.457 256.701V254.028L290.178 249.167V251.598L282.887 255.243V255.486L290.178 259.132V261.562L280.457 256.701Z" fill="#2E2E2E"/>
<path d="M296.802 256.701V254.028L306.524 249.167V251.598L299.233 255.243V255.486L306.524 259.132V261.562L296.802 256.701Z" fill="#2E2E2E"/>
<path d="M165.177 275.847V273.174L174.898 268.313V270.744L167.607 274.389V274.632L174.898 278.278V280.708L165.177 275.847Z" fill="#2E2E2E"/>
<path d="M181.436 275.847V273.174L191.158 268.313V270.744L183.866 274.389V274.632L191.158 278.278V280.708L181.436 275.847Z" fill="#2E2E2E"/>
<path d="M197.868 275.847V273.174L207.59 268.313V270.744L200.299 274.389V274.632L207.59 278.278V280.708L197.868 275.847Z" fill="#2E2E2E"/>
<path d="M214.214 275.847V273.174L223.935 268.313V270.744L216.644 274.389V274.632L223.935 278.278V280.708L214.214 275.847Z" fill="#2E2E2E"/>
<path d="M230.559 275.847V273.174L240.281 268.313V270.744L232.99 274.389V274.632L240.281 278.278V280.708L230.559 275.847Z" fill="#2E2E2E"/>
<path d="M165.177 294.993V292.32L174.898 287.459V289.89L167.607 293.535V293.778L174.898 297.424V299.854L165.177 294.993Z" fill="#2E2E2E"/>
<path d="M181.436 294.993V292.32L191.158 287.459V289.89L183.866 293.535V293.778L191.158 297.424V299.854L181.436 294.993Z" fill="#2E2E2E"/>
<path d="M197.868 294.993V292.32L207.59 287.459V289.89L200.299 293.535V293.778L207.59 297.424V299.854L197.868 294.993Z" fill="#2E2E2E"/>
<path d="M165.177 314.139V311.466L174.898 306.605V309.036L167.607 312.681V312.924L174.898 316.57V319L165.177 314.139Z" fill="#2E2E2E"/>
<path d="M181.436 314.139V311.466L191.158 306.605V309.036L183.866 312.681V312.924L191.158 316.57V319L181.436 314.139Z" fill="#2E2E2E"/>
<path d="M197.868 314.139V311.466L207.59 306.605V309.036L200.299 312.681V312.924L207.59 316.57V319L197.868 314.139Z" fill="#2E2E2E"/>
<path d="M214.214 314.139V311.466L223.935 306.605V309.036L216.644 312.681V312.924L223.935 316.57V319L214.214 314.139Z" fill="#2E2E2E"/>
<path d="M230.559 314.139V311.466L240.281 306.605V309.036L232.99 312.681V312.924L240.281 316.57V319L230.559 314.139Z" fill="#2E2E2E"/>
<path d="M165.177 333.285V330.612L174.898 325.751V328.181L167.607 331.827V332.07L174.898 335.715V338.146L165.177 333.285Z" fill="#2E2E2E"/>
<path d="M181.436 333.285V330.612L191.158 325.751V328.181L183.866 331.827V332.07L191.158 335.715V338.146L181.436 333.285Z" fill="#2E2E2E"/>
<path d="M197.868 333.285V330.612L207.59 325.751V328.181L200.299 331.827V332.07L207.59 335.715V338.146L197.868 333.285Z" fill="#2E2E2E"/>
<path d="M214.214 333.285V330.612L223.935 325.751V328.181L216.644 331.827V332.07L223.935 335.715V338.146L214.214 333.285Z" fill="#2E2E2E"/>
<path d="M230.559 333.285V330.612L240.281 325.751V328.181L232.99 331.827V332.07L240.281 335.715V338.146L230.559 333.285Z" fill="#2E2E2E"/>
<path d="M247.765 333.285V330.612L257.487 325.751V328.181L250.196 331.827V332.07L257.487 335.715V338.146L247.765 333.285Z" fill="#2E2E2E"/>
<path d="M264.111 333.285V330.612L273.833 325.751V328.181L266.541 331.827V332.07L273.833 335.715V338.146L264.111 333.285Z" fill="#2E2E2E"/>
<path d="M280.457 333.285V330.612L290.178 325.751V328.181L282.887 331.827V332.07L290.178 335.715V338.146L280.457 333.285Z" fill="#2E2E2E"/>
<path d="M296.802 333.285V330.612L306.524 325.751V328.181L299.233 331.827V332.07L306.524 335.715V338.146L296.802 333.285Z" fill="#2E2E2E"/>
<path d="M165.177 352.431V349.757L174.898 344.897V347.327L167.607 350.973V351.216L174.898 354.861V357.292L165.177 352.431Z" fill="#2E2E2E"/>
<path d="M181.436 352.431V349.757L191.158 344.897V347.327L183.866 350.973V351.216L191.158 354.861V357.292L181.436 352.431Z" fill="#2E2E2E"/>
<path d="M197.868 352.431V349.757L207.59 344.897V347.327L200.299 350.973V351.216L207.59 354.861V357.292L197.868 352.431Z" fill="#2E2E2E"/>
<path d="M214.214 352.431V349.757L223.935 344.897V347.327L216.644 350.973V351.216L223.935 354.861V357.292L214.214 352.431Z" fill="#2E2E2E"/>
<path d="M230.559 352.431V349.757L240.281 344.897V347.327L232.99 350.973V351.216L240.281 354.861V357.292L230.559 352.431Z" fill="#2E2E2E"/>
<path d="M247.765 352.431V349.757L257.487 344.897V347.327L250.196 350.973V351.216L257.487 354.861V357.292L247.765 352.431Z" fill="#2E2E2E"/>
<path d="M264.111 352.431V349.757L273.833 344.897V347.327L266.541 350.973V351.216L273.833 354.861V357.292L264.111 352.431Z" fill="#2E2E2E"/>
<path d="M280.457 352.431V349.757L290.178 344.897V347.327L282.887 350.973V351.216L290.178 354.861V357.292L280.457 352.431Z" fill="#2E2E2E"/>
<path d="M296.802 352.431V349.757L306.524 344.897V347.327L299.233 350.973V351.216L306.524 354.861V357.292L296.802 352.431Z" fill="#2E2E2E"/>
<path d="M313.148 352.431V349.757L322.869 344.897V347.327L315.578 350.973V351.216L322.869 354.861V357.292L313.148 352.431Z" fill="#2E2E2E"/>
<path d="M165.177 371.577V368.903L174.898 364.042V366.473L167.607 370.118V370.361L174.898 374.007V376.437L165.177 371.577Z" fill="#2E2E2E"/>
<path d="M181.436 371.577V368.903L191.158 364.042V366.473L183.866 370.118V370.361L191.158 374.007V376.437L181.436 371.577Z" fill="#2E2E2E"/>
<path d="M197.868 371.577V368.903L207.59 364.042V366.473L200.299 370.118V370.361L207.59 374.007V376.437L197.868 371.577Z" fill="#2E2E2E"/>
<path d="M214.214 371.577V368.903L223.935 364.042V366.473L216.644 370.118V370.361L223.935 374.007V376.437L214.214 371.577Z" fill="#2E2E2E"/>
<path d="M230.559 371.577V368.903L240.281 364.042V366.473L232.99 370.118V370.361L240.281 374.007V376.437L230.559 371.577Z" fill="#2E2E2E"/>
<path d="M247.765 371.577V368.903L257.487 364.042V366.473L250.196 370.118V370.361L257.487 374.007V376.437L247.765 371.577Z" fill="#2E2E2E"/>
<path d="M264.111 371.577V368.903L273.833 364.042V366.473L266.541 370.118V370.361L273.833 374.007V376.437L264.111 371.577Z" fill="#2E2E2E"/>
<path d="M280.457 371.577V368.903L290.178 364.042V366.473L282.887 370.118V370.361L290.178 374.007V376.437L280.457 371.577Z" fill="#2E2E2E"/>
<path d="M296.802 371.577V368.903L306.524 364.042V366.473L299.233 370.118V370.361L306.524 374.007V376.437L296.802 371.577Z" fill="#2E2E2E"/>
<path d="M313.148 371.577V368.903L322.869 364.042V366.473L315.578 370.118V370.361L322.869 374.007V376.437L313.148 371.577Z" fill="#2E2E2E"/>
<path d="M6.10352e-05 199.264V196.591L9.72154 191.73V194.16L2.43043 197.806V198.049L9.72154 201.695V204.125L6.10352e-05 199.264Z" fill="#2E2E2E"/>
<path d="M16.4726 199.264V196.59L26.1941 191.729V194.16L18.903 197.805V198.048L26.1941 201.694V204.124L16.4726 199.264Z" fill="#2E2E2E"/>
<path d="M32.9451 199.264V196.59L42.6666 191.729V194.16L35.3755 197.805V198.048L42.6666 201.694V204.124L32.9451 199.264Z" fill="#2E2E2E"/>
<path d="M49.4172 199.264V196.59L59.1387 191.729V194.16L51.8476 197.805V198.048L59.1387 201.694V204.124L49.4172 199.264Z" fill="#2E2E2E"/>
<path d="M65.8901 199.264V196.59L75.6116 191.729V194.16L68.3205 197.805V198.048L75.6116 201.694V204.124L65.8901 199.264Z" fill="#2E2E2E"/>
<path d="M82.3626 199.264V196.59L92.0841 191.729V194.16L84.793 197.805V198.048L92.0841 201.694V204.124L82.3626 199.264Z" fill="#2E2E2E"/>
<path d="M98.8347 199.264V196.59L108.556 191.729V194.16L101.265 197.805V198.048L108.556 201.694V204.124L98.8347 199.264Z" fill="#2E2E2E"/>
<path d="M115.307 199.264V196.59L125.029 191.729V194.16L117.738 197.805V198.048L125.029 201.694V204.124L115.307 199.264Z" fill="#2E2E2E"/>
<path d="M131.78 199.264V196.59L141.501 191.729V194.16L134.21 197.805V198.048L141.501 201.694V204.124L131.78 199.264Z" fill="#2E2E2E"/>
<path d="M148.252 199.264V196.59L157.974 191.729V194.16L150.683 197.805V198.048L157.974 201.694V204.124L148.252 199.264Z" fill="#2E2E2E"/>
<path d="M0.00012207 218.41V215.736L9.7216 210.875V213.306L2.43049 216.951V217.194L9.7216 220.84V223.27L0.00012207 218.41Z" fill="#2E2E2E"/>
<path d="M16.4726 218.41V215.736L26.1941 210.875V213.306L18.903 216.951V217.194L26.1941 220.84V223.27L16.4726 218.41Z" fill="#2E2E2E"/>
<path d="M32.9451 218.41V215.736L42.6666 210.875V213.306L35.3755 216.951V217.194L42.6666 220.84V223.27L32.9451 218.41Z" fill="#2E2E2E"/>
<path d="M49.4172 218.41V215.736L59.1387 210.875V213.306L51.8476 216.951V217.194L59.1387 220.84V223.27L49.4172 218.41Z" fill="#2E2E2E"/>
<path d="M65.8901 218.41V215.736L75.6116 210.875V213.306L68.3205 216.951V217.194L75.6116 220.84V223.27L65.8901 218.41Z" fill="#2E2E2E"/>
<path d="M82.3626 218.41V215.736L92.0841 210.875V213.306L84.793 216.951V217.194L92.0841 220.84V223.27L82.3626 218.41Z" fill="#2E2E2E"/>
<path d="M98.8347 218.41V215.736L108.556 210.875V213.306L101.265 216.951V217.194L108.556 220.84V223.27L98.8347 218.41Z" fill="#2E2E2E"/>
<path d="M115.307 218.41V215.736L125.029 210.875V213.306L117.738 216.951V217.194L125.029 220.84V223.27L115.307 218.41Z" fill="#2E2E2E"/>
<path d="M131.78 218.41V215.736L141.501 210.875V213.306L134.21 216.951V217.194L141.501 220.84V223.27L131.78 218.41Z" fill="#2E2E2E"/>
<path d="M148.252 218.41V215.736L157.974 210.875V213.306L150.683 216.951V217.194L157.974 220.84V223.27L148.252 218.41Z" fill="#2E2E2E"/>
<path d="M0.00012207 237.555V234.882L9.7216 230.021V232.452L2.43049 236.097V236.34L9.7216 239.986V242.416L0.00012207 237.555Z" fill="#2E2E2E"/>
<path d="M16.4726 237.555V234.882L26.1941 230.021V232.452L18.903 236.097V236.34L26.1941 239.986V242.416L16.4726 237.555Z" fill="#2E2E2E"/>
<path d="M32.9451 237.555V234.882L42.6666 230.021V232.452L35.3755 236.097V236.34L42.6666 239.986V242.416L32.9451 237.555Z" fill="#2E2E2E"/>
<path d="M49.4172 237.555V234.882L59.1387 230.021V232.452L51.8476 236.097V236.34L59.1387 239.986V242.416L49.4172 237.555Z" fill="#2E2E2E"/>
<path d="M65.8901 237.555V234.882L75.6116 230.021V232.452L68.3205 236.097V236.34L75.6116 239.986V242.416L65.8901 237.555Z" fill="#2E2E2E"/>
<path d="M82.3626 237.555V234.882L92.0841 230.021V232.452L84.793 236.097V236.34L92.0841 239.986V242.416L82.3626 237.555Z" fill="#2E2E2E"/>
<path d="M98.8347 237.555V234.882L108.556 230.021V232.452L101.265 236.097V236.34L108.556 239.986V242.416L98.8347 237.555Z" fill="#2E2E2E"/>
<path d="M115.307 237.555V234.882L125.029 230.021V232.452L117.738 236.097V236.34L125.029 239.986V242.416L115.307 237.555Z" fill="#2E2E2E"/>
<path d="M131.78 237.555V234.882L141.501 230.021V232.452L134.21 236.097V236.34L141.501 239.986V242.416L131.78 237.555Z" fill="#2E2E2E"/>
<path d="M148.252 237.555V234.882L157.974 230.021V232.452L150.683 236.097V236.34L157.974 239.986V242.416L148.252 237.555Z" fill="#2E2E2E"/>
<path d="M0.00012207 256.702V254.028L9.7216 249.167V251.598L2.43049 255.243V255.486L9.7216 259.132V261.562L0.00012207 256.702Z" fill="#2E2E2E"/>
<path d="M16.4726 256.702V254.028L26.1941 249.167V251.598L18.903 255.243V255.486L26.1941 259.132V261.562L16.4726 256.702Z" fill="#2E2E2E"/>
<path d="M32.9451 256.702V254.028L42.6666 249.167V251.598L35.3755 255.243V255.486L42.6666 259.132V261.562L32.9451 256.702Z" fill="#2E2E2E"/>
<path d="M49.4172 256.702V254.028L59.1387 249.167V251.598L51.8476 255.243V255.486L59.1387 259.132V261.562L49.4172 256.702Z" fill="#2E2E2E"/>
<path d="M65.8901 256.702V254.028L75.6116 249.167V251.598L68.3205 255.243V255.486L75.6116 259.132V261.562L65.8901 256.702Z" fill="#2E2E2E"/>
<path d="M82.3626 256.702V254.028L92.0841 249.167V251.598L84.793 255.243V255.486L92.0841 259.132V261.562L82.3626 256.702Z" fill="#2E2E2E"/>
<path d="M98.8347 256.702V254.028L108.556 249.167V251.598L101.265 255.243V255.486L108.556 259.132V261.562L98.8347 256.702Z" fill="#2E2E2E"/>
<path d="M115.307 256.702V254.028L125.029 249.167V251.598L117.738 255.243V255.486L125.029 259.132V261.562L115.307 256.702Z" fill="#2E2E2E"/>
<path d="M131.78 256.702V254.028L141.501 249.167V251.598L134.21 255.243V255.486L141.501 259.132V261.562L131.78 256.702Z" fill="#2E2E2E"/>
<path d="M148.252 256.702V254.028L157.974 249.167V251.598L150.683 255.243V255.486L157.974 259.132V261.562L148.252 256.702Z" fill="#2E2E2E"/>
<path d="M0.00012207 275.847V273.174L9.7216 268.313V270.744L2.43049 274.389V274.632L9.7216 278.278V280.708L0.00012207 275.847Z" fill="#2E2E2E"/>
<path d="M16.4726 275.847V273.174L26.1941 268.313V270.744L18.903 274.389V274.632L26.1941 278.278V280.708L16.4726 275.847Z" fill="#2E2E2E"/>
<path d="M32.9451 275.847V273.174L42.6666 268.313V270.744L35.3755 274.389V274.632L42.6666 278.278V280.708L32.9451 275.847Z" fill="#2E2E2E"/>
<path d="M49.4172 275.847V273.174L59.1387 268.313V270.744L51.8476 274.389V274.632L59.1387 278.278V280.708L49.4172 275.847Z" fill="#2E2E2E"/>
<path d="M65.8901 275.847V273.174L75.6116 268.313V270.744L68.3205 274.389V274.632L75.6116 278.278V280.708L65.8901 275.847Z" fill="#2E2E2E"/>
<path d="M82.3626 275.847V273.174L92.0841 268.313V270.744L84.793 274.389V274.632L92.0841 278.278V280.708L82.3626 275.847Z" fill="#2E2E2E"/>
<path d="M98.8347 275.847V273.174L108.556 268.313V270.744L101.265 274.389V274.632L108.556 278.278V280.708L98.8347 275.847Z" fill="#2E2E2E"/>
<path d="M115.307 275.847V273.174L125.029 268.313V270.744L117.738 274.389V274.632L125.029 278.278V280.708L115.307 275.847Z" fill="#2E2E2E"/>
<path d="M131.78 275.847V273.174L141.501 268.313V270.744L134.21 274.389V274.632L141.501 278.278V280.708L131.78 275.847Z" fill="#2E2E2E"/>
<path d="M148.252 275.847V273.174L157.974 268.313V270.744L150.683 274.389V274.632L157.974 278.278V280.708L148.252 275.847Z" fill="#2E2E2E"/>
<path d="M0.00012207 294.994V292.32L9.7216 287.459V289.89L2.43049 293.535V293.778L9.7216 297.424V299.854L0.00012207 294.994Z" fill="#2E2E2E"/>
<path d="M16.4726 294.994V292.32L26.1941 287.459V289.89L18.903 293.535V293.778L26.1941 297.424V299.854L16.4726 294.994Z" fill="#2E2E2E"/>
<path d="M32.9451 294.994V292.32L42.6666 287.459V289.89L35.3755 293.535V293.778L42.6666 297.424V299.854L32.9451 294.994Z" fill="#2E2E2E"/>
<path d="M49.4172 294.994V292.32L59.1387 287.459V289.89L51.8476 293.535V293.778L59.1387 297.424V299.854L49.4172 294.994Z" fill="#2E2E2E"/>
<path d="M65.8901 294.994V292.32L75.6116 287.459V289.89L68.3205 293.535V293.778L75.6116 297.424V299.854L65.8901 294.994Z" fill="#2E2E2E"/>
<path d="M82.3626 294.994V292.32L92.0841 287.459V289.89L84.793 293.535V293.778L92.0841 297.424V299.854L82.3626 294.994Z" fill="#2E2E2E"/>
<path d="M98.8347 294.994V292.32L108.556 287.459V289.89L101.265 293.535V293.778L108.556 297.424V299.854L98.8347 294.994Z" fill="#2E2E2E"/>
<path d="M115.307 294.994V292.32L125.029 287.459V289.89L117.738 293.535V293.778L125.029 297.424V299.854L115.307 294.994Z" fill="#2E2E2E"/>
<path d="M131.78 294.994V292.32L141.501 287.459V289.89L134.21 293.535V293.778L141.501 297.424V299.854L131.78 294.994Z" fill="#2E2E2E"/>
<path d="M148.252 294.994V292.32L157.974 287.459V289.89L150.683 293.535V293.778L157.974 297.424V299.854L148.252 294.994Z" fill="#2E2E2E"/>
<path d="M0.00012207 314.139V311.466L9.7216 306.605V309.036L2.43049 312.681V312.924L9.7216 316.57V319L0.00012207 314.139Z" fill="#2E2E2E"/>
<path d="M16.4726 314.139V311.466L26.1941 306.605V309.036L18.903 312.681V312.924L26.1941 316.57V319L16.4726 314.139Z" fill="#2E2E2E"/>
<path d="M32.9451 314.139V311.466L42.6666 306.605V309.036L35.3755 312.681V312.924L42.6666 316.57V319L32.9451 314.139Z" fill="#2E2E2E"/>
<path d="M49.4172 314.139V311.466L59.1387 306.605V309.036L51.8476 312.681V312.924L59.1387 316.57V319L49.4172 314.139Z" fill="#2E2E2E"/>
<path d="M65.8901 314.139V311.466L75.6116 306.605V309.036L68.3205 312.681V312.924L75.6116 316.57V319L65.8901 314.139Z" fill="#2E2E2E"/>
<path d="M82.3626 314.139V311.466L92.0841 306.605V309.036L84.793 312.681V312.924L92.0841 316.57V319L82.3626 314.139Z" fill="#2E2E2E"/>
<path d="M98.8347 314.139V311.466L108.556 306.605V309.036L101.265 312.681V312.924L108.556 316.57V319L98.8347 314.139Z" fill="#2E2E2E"/>
<path d="M115.307 314.139V311.466L125.029 306.605V309.036L117.738 312.681V312.924L125.029 316.57V319L115.307 314.139Z" fill="#2E2E2E"/>
<path d="M131.78 314.139V311.466L141.501 306.605V309.036L134.21 312.681V312.924L141.501 316.57V319L131.78 314.139Z" fill="#2E2E2E"/>
<path d="M148.252 314.139V311.466L157.974 306.605V309.036L150.683 312.681V312.924L157.974 316.57V319L148.252 314.139Z" fill="#2E2E2E"/>
<path d="M0.00012207 333.285V330.612L9.7216 325.751V328.181L2.43049 331.827V332.07L9.7216 335.715V338.146L0.00012207 333.285Z" fill="#2E2E2E"/>
<path d="M16.4726 333.285V330.612L26.1941 325.751V328.181L18.903 331.827V332.07L26.1941 335.715V338.146L16.4726 333.285Z" fill="#2E2E2E"/>
<path d="M32.9451 333.285V330.612L42.6666 325.751V328.181L35.3755 331.827V332.07L42.6666 335.715V338.146L32.9451 333.285Z" fill="#2E2E2E"/>
<path d="M49.4172 333.285V330.612L59.1387 325.751V328.181L51.8476 331.827V332.07L59.1387 335.715V338.146L49.4172 333.285Z" fill="#2E2E2E"/>
<path d="M65.8901 333.285V330.612L75.6116 325.751V328.181L68.3205 331.827V332.07L75.6116 335.715V338.146L65.8901 333.285Z" fill="#2E2E2E"/>
<path d="M82.3626 333.285V330.612L92.0841 325.751V328.181L84.793 331.827V332.07L92.0841 335.715V338.146L82.3626 333.285Z" fill="#2E2E2E"/>
<path d="M98.8347 333.285V330.612L108.556 325.751V328.181L101.265 331.827V332.07L108.556 335.715V338.146L98.8347 333.285Z" fill="#2E2E2E"/>
<path d="M115.307 333.285V330.612L125.029 325.751V328.181L117.738 331.827V332.07L125.029 335.715V338.146L115.307 333.285Z" fill="#2E2E2E"/>
<path d="M131.78 333.285V330.612L141.501 325.751V328.181L134.21 331.827V332.07L141.501 335.715V338.146L131.78 333.285Z" fill="#2E2E2E"/>
<path d="M148.252 333.285V330.612L157.974 325.751V328.181L150.683 331.827V332.07L157.974 335.715V338.146L148.252 333.285Z" fill="#2E2E2E"/>
<path d="M0.00012207 352.431V349.757L9.7216 344.897V347.327L2.43049 350.973V351.216L9.7216 354.861V357.292L0.00012207 352.431Z" fill="#2E2E2E"/>
<path d="M16.4726 352.431V349.757L26.1941 344.897V347.327L18.903 350.973V351.216L26.1941 354.861V357.292L16.4726 352.431Z" fill="#2E2E2E"/>
<path d="M32.9451 352.431V349.757L42.6666 344.897V347.327L35.3755 350.973V351.216L42.6666 354.861V357.292L32.9451 352.431Z" fill="#2E2E2E"/>
<path d="M49.4172 352.431V349.757L59.1387 344.897V347.327L51.8476 350.973V351.216L59.1387 354.861V357.292L49.4172 352.431Z" fill="#2E2E2E"/>
<path d="M65.8901 352.431V349.757L75.6116 344.897V347.327L68.3205 350.973V351.216L75.6116 354.861V357.292L65.8901 352.431Z" fill="#2E2E2E"/>
<path d="M82.3626 352.431V349.757L92.0841 344.897V347.327L84.793 350.973V351.216L92.0841 354.861V357.292L82.3626 352.431Z" fill="#2E2E2E"/>
<path d="M98.8347 352.431V349.757L108.556 344.897V347.327L101.265 350.973V351.216L108.556 354.861V357.292L98.8347 352.431Z" fill="#2E2E2E"/>
<path d="M115.307 352.431V349.757L125.029 344.897V347.327L117.738 350.973V351.216L125.029 354.861V357.292L115.307 352.431Z" fill="#2E2E2E"/>
<path d="M131.78 352.431V349.757L141.501 344.897V347.327L134.21 350.973V351.216L141.501 354.861V357.292L131.78 352.431Z" fill="#2E2E2E"/>
<path d="M148.252 352.431V349.757L157.974 344.897V347.327L150.683 350.973V351.216L157.974 354.861V357.292L148.252 352.431Z" fill="#2E2E2E"/>
<path d="M0.00012207 371.577V368.903L9.7216 364.043V366.473L2.43049 370.119V370.362L9.7216 374.007V376.438L0.00012207 371.577Z" fill="#2E2E2E"/>
<path d="M16.4726 371.577V368.903L26.1941 364.043V366.473L18.903 370.119V370.362L26.1941 374.007V376.438L16.4726 371.577Z" fill="#2E2E2E"/>
<path d="M32.9451 371.577V368.903L42.6666 364.043V366.473L35.3755 370.119V370.362L42.6666 374.007V376.438L32.9451 371.577Z" fill="#2E2E2E"/>
<path d="M49.4172 371.577V368.903L59.1387 364.043V366.473L51.8476 370.119V370.362L59.1387 374.007V376.438L49.4172 371.577Z" fill="#2E2E2E"/>
<path d="M65.8901 371.577V368.903L75.6116 364.043V366.473L68.3205 370.119V370.362L75.6116 374.007V376.438L65.8901 371.577Z" fill="#2E2E2E"/>
<path d="M82.3626 371.577V368.903L92.0841 364.043V366.473L84.793 370.119V370.362L92.0841 374.007V376.438L82.3626 371.577Z" fill="#2E2E2E"/>
<path d="M98.8347 371.577V368.903L108.556 364.043V366.473L101.265 370.119V370.362L108.556 374.007V376.438L98.8347 371.577Z" fill="#2E2E2E"/>
<path d="M115.307 371.577V368.903L125.029 364.043V366.473L117.738 370.119V370.362L125.029 374.007V376.438L115.307 371.577Z" fill="#2E2E2E"/>
<path d="M131.78 371.577V368.903L141.501 364.043V366.473L134.21 370.119V370.362L141.501 374.007V376.438L131.78 371.577Z" fill="#2E2E2E"/>
<path d="M148.252 371.577V368.903L157.974 364.043V366.473L150.683 370.119V370.362L157.974 374.007V376.438L148.252 371.577Z" fill="#2E2E2E"/>
<path d="M329.451 390.993V388.32L339.172 383.459V385.889L331.881 389.535V389.778L339.172 393.424V395.854L329.451 390.993Z" fill="#2E2E2E"/>
<path d="M345.922 390.993V388.319L355.644 383.459V385.889L348.353 389.535V389.778L355.644 393.423V395.854L345.922 390.993Z" fill="#2E2E2E"/>
<path d="M362.395 390.993V388.319L372.116 383.459V385.889L364.825 389.535V389.778L372.116 393.423V395.854L362.395 390.993Z" fill="#2E2E2E"/>
<path d="M378.867 390.993V388.319L388.588 383.459V385.889L381.297 389.535V389.778L388.588 393.423V395.854L378.867 390.993Z" fill="#2E2E2E"/>
<path d="M395.34 390.993V388.319L405.061 383.459V385.889L397.77 389.535V389.778L405.061 393.423V395.854L395.34 390.993Z" fill="#2E2E2E"/>
<path d="M411.812 390.993V388.319L421.534 383.459V385.889L414.243 389.535V389.778L421.534 393.423V395.854L411.812 390.993Z" fill="#2E2E2E"/>
<path d="M428.285 390.993V388.319L438.006 383.459V385.889L430.715 389.535V389.778L438.006 393.423V395.854L428.285 390.993Z" fill="#2E2E2E"/>
<path d="M444.757 390.993V388.319L454.479 383.459V385.889L447.187 389.535V389.778L454.479 393.423V395.854L444.757 390.993Z" fill="#2E2E2E"/>
<path d="M461.229 390.993V388.319L470.951 383.459V385.889L463.66 389.535V389.778L470.951 393.423V395.854L461.229 390.993Z" fill="#2E2E2E"/>
<path d="M477.702 390.993V388.319L487.424 383.459V385.889L480.132 389.535V389.778L487.424 393.423V395.854L477.702 390.993Z" fill="#2E2E2E"/>
<path d="M329.45 410.139V407.465L339.171 402.604V405.035L331.88 408.68V408.923L339.171 412.569V414.999L329.45 410.139Z" fill="#2E2E2E"/>
<path d="M345.922 410.139V407.465L355.644 402.604V405.035L348.353 408.68V408.923L355.644 412.569V414.999L345.922 410.139Z" fill="#2E2E2E"/>
<path d="M362.395 410.139V407.465L372.116 402.604V405.035L364.825 408.68V408.923L372.116 412.569V414.999L362.395 410.139Z" fill="#2E2E2E"/>
<path d="M378.867 410.139V407.465L388.588 402.604V405.035L381.297 408.68V408.923L388.588 412.569V414.999L378.867 410.139Z" fill="#2E2E2E"/>
<path d="M395.34 410.139V407.465L405.061 402.604V405.035L397.77 408.68V408.923L405.061 412.569V414.999L395.34 410.139Z" fill="#2E2E2E"/>
<path d="M411.812 410.139V407.465L421.534 402.604V405.035L414.243 408.68V408.923L421.534 412.569V414.999L411.812 410.139Z" fill="#2E2E2E"/>
<path d="M428.285 410.139V407.465L438.006 402.604V405.035L430.715 408.68V408.923L438.006 412.569V414.999L428.285 410.139Z" fill="#2E2E2E"/>
<path d="M444.757 410.139V407.465L454.479 402.604V405.035L447.187 408.68V408.923L454.479 412.569V414.999L444.757 410.139Z" fill="#2E2E2E"/>
<path d="M461.229 410.139V407.465L470.951 402.604V405.035L463.66 408.68V408.923L470.951 412.569V414.999L461.229 410.139Z" fill="#2E2E2E"/>
<path d="M477.702 410.139V407.465L487.424 402.604V405.035L480.132 408.68V408.923L487.424 412.569V414.999L477.702 410.139Z" fill="#2E2E2E"/>
<path d="M329.45 429.284V426.611L339.171 421.75V424.181L331.88 427.826V428.069L339.171 431.715V434.145L329.45 429.284Z" fill="#2E2E2E"/>
<path d="M345.922 429.284V426.611L355.644 421.75V424.181L348.353 427.826V428.069L355.644 431.715V434.145L345.922 429.284Z" fill="#2E2E2E"/>
<path d="M362.395 429.284V426.611L372.116 421.75V424.181L364.825 427.826V428.069L372.116 431.715V434.145L362.395 429.284Z" fill="#2E2E2E"/>
<path d="M378.867 429.284V426.611L388.588 421.75V424.181L381.297 427.826V428.069L388.588 431.715V434.145L378.867 429.284Z" fill="#2E2E2E"/>
<path d="M395.34 429.284V426.611L405.061 421.75V424.181L397.77 427.826V428.069L405.061 431.715V434.145L395.34 429.284Z" fill="#2E2E2E"/>
<path d="M411.812 429.284V426.611L421.534 421.75V424.181L414.243 427.826V428.069L421.534 431.715V434.145L411.812 429.284Z" fill="#2E2E2E"/>
<path d="M428.285 429.284V426.611L438.006 421.75V424.181L430.715 427.826V428.069L438.006 431.715V434.145L428.285 429.284Z" fill="#2E2E2E"/>
<path d="M444.757 429.284V426.611L454.479 421.75V424.181L447.187 427.826V428.069L454.479 431.715V434.145L444.757 429.284Z" fill="#2E2E2E"/>
<path d="M461.229 429.284V426.611L470.951 421.75V424.181L463.66 427.826V428.069L470.951 431.715V434.145L461.229 429.284Z" fill="#2E2E2E"/>
<path d="M477.702 429.284V426.611L487.424 421.75V424.181L480.132 427.826V428.069L487.424 431.715V434.145L477.702 429.284Z" fill="#2E2E2E"/>
<path d="M329.45 448.431V445.757L339.171 440.896V443.327L331.88 446.972V447.215L339.171 450.861V453.291L329.45 448.431Z" fill="#2E2E2E"/>
<path d="M345.922 448.431V445.757L355.644 440.896V443.327L348.353 446.972V447.215L355.644 450.861V453.291L345.922 448.431Z" fill="#2E2E2E"/>
<path d="M362.395 448.431V445.757L372.116 440.896V443.327L364.825 446.972V447.215L372.116 450.861V453.291L362.395 448.431Z" fill="#2E2E2E"/>
<path d="M378.867 448.431V445.757L388.588 440.896V443.327L381.297 446.972V447.215L388.588 450.861V453.291L378.867 448.431Z" fill="#2E2E2E"/>
<path d="M395.34 448.431V445.757L405.061 440.896V443.327L397.77 446.972V447.215L405.061 450.861V453.291L395.34 448.431Z" fill="#2E2E2E"/>
<path d="M411.812 448.431V445.757L421.534 440.896V443.327L414.243 446.972V447.215L421.534 450.861V453.291L411.812 448.431Z" fill="#2E2E2E"/>
<path d="M428.285 448.431V445.757L438.006 440.896V443.327L430.715 446.972V447.215L438.006 450.861V453.291L428.285 448.431Z" fill="#2E2E2E"/>
<path d="M444.757 448.431V445.757L454.479 440.896V443.327L447.187 446.972V447.215L454.479 450.861V453.291L444.757 448.431Z" fill="#2E2E2E"/>
<path d="M461.229 448.431V445.757L470.951 440.896V443.327L463.66 446.972V447.215L470.951 450.861V453.291L461.229 448.431Z" fill="#2E2E2E"/>
<path d="M477.702 448.431V445.757L487.424 440.896V443.327L480.132 446.972V447.215L487.424 450.861V453.291L477.702 448.431Z" fill="#2E2E2E"/>
<path d="M329.45 467.577V464.903L339.171 460.042V462.473L331.88 466.118V466.361L339.171 470.007V472.437L329.45 467.577Z" fill="#2E2E2E"/>
<path d="M345.922 467.577V464.903L355.644 460.042V462.473L348.353 466.118V466.361L355.644 470.007V472.437L345.922 467.577Z" fill="#2E2E2E"/>
<path d="M362.395 467.577V464.903L372.116 460.042V462.473L364.825 466.118V466.361L372.116 470.007V472.437L362.395 467.577Z" fill="#2E2E2E"/>
<path d="M378.867 467.577V464.903L388.588 460.042V462.473L381.297 466.118V466.361L388.588 470.007V472.437L378.867 467.577Z" fill="#2E2E2E"/>
<path d="M395.34 467.577V464.903L405.061 460.042V462.473L397.77 466.118V466.361L405.061 470.007V472.437L395.34 467.577Z" fill="#2E2E2E"/>
<path d="M411.812 467.577V464.903L421.534 460.042V462.473L414.243 466.118V466.361L421.534 470.007V472.437L411.812 467.577Z" fill="#2E2E2E"/>
<path d="M428.285 467.577V464.903L438.006 460.042V462.473L430.715 466.118V466.361L438.006 470.007V472.437L428.285 467.577Z" fill="#2E2E2E"/>
<path d="M444.757 467.577V464.903L454.479 460.042V462.473L447.187 466.118V466.361L454.479 470.007V472.437L444.757 467.577Z" fill="#2E2E2E"/>
<path d="M461.229 467.577V464.903L470.951 460.042V462.473L463.66 466.118V466.361L470.951 470.007V472.437L461.229 467.577Z" fill="#2E2E2E"/>
<path d="M477.702 467.577V464.903L487.424 460.042V462.473L480.132 466.118V466.361L487.424 470.007V472.437L477.702 467.577Z" fill="#2E2E2E"/>
<path d="M329.45 486.723V484.049L339.171 479.188V481.619L331.88 485.264V485.507L339.171 489.153V491.583L329.45 486.723Z" fill="#2E2E2E"/>
<path d="M345.922 486.723V484.049L355.644 479.188V481.619L348.353 485.264V485.507L355.644 489.153V491.583L345.922 486.723Z" fill="#2E2E2E"/>
<path d="M362.395 486.723V484.049L372.116 479.188V481.619L364.825 485.264V485.507L372.116 489.153V491.583L362.395 486.723Z" fill="#2E2E2E"/>
<path d="M378.867 486.723V484.049L388.588 479.188V481.619L381.297 485.264V485.507L388.588 489.153V491.583L378.867 486.723Z" fill="#2E2E2E"/>
<path d="M395.34 486.723V484.049L405.061 479.188V481.619L397.77 485.264V485.507L405.061 489.153V491.583L395.34 486.723Z" fill="#2E2E2E"/>
<path d="M411.812 486.723V484.049L421.534 479.188V481.619L414.243 485.264V485.507L421.534 489.153V491.583L411.812 486.723Z" fill="#2E2E2E"/>
<path d="M428.285 486.723V484.049L438.006 479.188V481.619L430.715 485.264V485.507L438.006 489.153V491.583L428.285 486.723Z" fill="#2E2E2E"/>
<path d="M444.757 486.723V484.049L454.479 479.188V481.619L447.187 485.264V485.507L454.479 489.153V491.583L444.757 486.723Z" fill="#2E2E2E"/>
<path d="M461.229 486.723V484.049L470.951 479.188V481.619L463.66 485.264V485.507L470.951 489.153V491.583L461.229 486.723Z" fill="#2E2E2E"/>
<path d="M477.702 486.723V484.049L487.424 479.188V481.619L480.132 485.264V485.507L487.424 489.153V491.583L477.702 486.723Z" fill="#2E2E2E"/>
<path d="M329.45 505.869V503.195L339.171 498.334V500.765L331.88 504.41V504.653L339.171 508.299V510.729L329.45 505.869Z" fill="#2E2E2E"/>
<path d="M345.922 505.869V503.195L355.644 498.334V500.765L348.353 504.41V504.653L355.644 508.299V510.729L345.922 505.869Z" fill="#2E2E2E"/>
<path d="M362.395 505.869V503.195L372.116 498.334V500.765L364.825 504.41V504.653L372.116 508.299V510.729L362.395 505.869Z" fill="#2E2E2E"/>
<path d="M378.867 505.869V503.195L388.588 498.334V500.765L381.297 504.41V504.653L388.588 508.299V510.729L378.867 505.869Z" fill="#2E2E2E"/>
<path d="M395.34 505.869V503.195L405.061 498.334V500.765L397.77 504.41V504.653L405.061 508.299V510.729L395.34 505.869Z" fill="#2E2E2E"/>
<path d="M411.812 505.869V503.195L421.534 498.334V500.765L414.243 504.41V504.653L421.534 508.299V510.729L411.812 505.869Z" fill="#2E2E2E"/>
<path d="M428.285 505.869V503.195L438.006 498.334V500.765L430.715 504.41V504.653L438.006 508.299V510.729L428.285 505.869Z" fill="#2E2E2E"/>
<path d="M444.757 505.869V503.195L454.479 498.334V500.765L447.187 504.41V504.653L454.479 508.299V510.729L444.757 505.869Z" fill="#2E2E2E"/>
<path d="M461.229 505.869V503.195L470.951 498.334V500.765L463.66 504.41V504.653L470.951 508.299V510.729L461.229 505.869Z" fill="#2E2E2E"/>
<path d="M477.702 505.869V503.195L487.424 498.334V500.765L480.132 504.41V504.653L487.424 508.299V510.729L477.702 505.869Z" fill="#2E2E2E"/>
<path d="M329.45 525.014V522.341L339.171 517.48V519.911L331.88 523.556V523.799L339.171 527.445V529.875L329.45 525.014Z" fill="#2E2E2E"/>
<path d="M345.922 525.014V522.341L355.644 517.48V519.911L348.353 523.556V523.799L355.644 527.445V529.875L345.922 525.014Z" fill="#2E2E2E"/>
<path d="M362.395 525.014V522.341L372.116 517.48V519.911L364.825 523.556V523.799L372.116 527.445V529.875L362.395 525.014Z" fill="#2E2E2E"/>
<path d="M378.867 525.014V522.341L388.588 517.48V519.911L381.297 523.556V523.799L388.588 527.445V529.875L378.867 525.014Z" fill="#2E2E2E"/>
<path d="M395.34 525.014V522.341L405.061 517.48V519.911L397.77 523.556V523.799L405.061 527.445V529.875L395.34 525.014Z" fill="#2E2E2E"/>
<path d="M411.812 525.014V522.341L421.534 517.48V519.911L414.243 523.556V523.799L421.534 527.445V529.875L411.812 525.014Z" fill="#2E2E2E"/>
<path d="M428.285 525.014V522.341L438.006 517.48V519.911L430.715 523.556V523.799L438.006 527.445V529.875L428.285 525.014Z" fill="#2E2E2E"/>
<path d="M444.757 525.014V522.341L454.479 517.48V519.911L447.187 523.556V523.799L454.479 527.445V529.875L444.757 525.014Z" fill="#2E2E2E"/>
<path d="M461.229 525.014V522.341L470.951 517.48V519.911L463.66 523.556V523.799L470.951 527.445V529.875L461.229 525.014Z" fill="#2E2E2E"/>
<path d="M477.702 525.014V522.341L487.424 517.48V519.911L480.132 523.556V523.799L487.424 527.445V529.875L477.702 525.014Z" fill="#2E2E2E"/>
<path d="M362.395 544.16V541.487L372.116 536.626V539.056L364.825 542.702V542.945L372.116 546.59V549.021L362.395 544.16Z" fill="#2E2E2E"/>
<path d="M378.867 544.16V541.487L388.588 536.626V539.056L381.297 542.702V542.945L388.588 546.59V549.021L378.867 544.16Z" fill="#2E2E2E"/>
<path d="M395.34 544.16V541.487L405.061 536.626V539.056L397.77 542.702V542.945L405.061 546.59V549.021L395.34 544.16Z" fill="#2E2E2E"/>
<path d="M411.812 544.16V541.487L421.534 536.626V539.056L414.243 542.702V542.945L421.534 546.59V549.021L411.812 544.16Z" fill="#2E2E2E"/>
<path d="M428.285 544.16V541.487L438.006 536.626V539.056L430.715 542.702V542.945L438.006 546.59V549.021L428.285 544.16Z" fill="#2E2E2E"/>
<path d="M444.757 544.16V541.487L454.479 536.626V539.056L447.187 542.702V542.945L454.479 546.59V549.021L444.757 544.16Z" fill="#2E2E2E"/>
<path d="M461.229 544.16V541.487L470.951 536.626V539.056L463.66 542.702V542.945L470.951 546.59V549.021L461.229 544.16Z" fill="#2E2E2E"/>
<path d="M477.702 544.16V541.487L487.424 536.626V539.056L480.132 542.702V542.945L487.424 546.59V549.021L477.702 544.16Z" fill="#2E2E2E"/>
<path d="M411.812 563.306V560.632L421.534 555.772V558.202L414.243 561.848V562.091L421.534 565.736V568.167L411.812 563.306Z" fill="#2E2E2E"/>
<path d="M428.285 563.306V560.632L438.006 555.772V558.202L430.715 561.848V562.091L438.006 565.736V568.167L428.285 563.306Z" fill="#2E2E2E"/>
<path d="M444.757 563.306V560.632L454.479 555.772V558.202L447.187 561.848V562.091L454.479 565.736V568.167L444.757 563.306Z" fill="#2E2E2E"/>
<path d="M461.229 563.306V560.632L470.951 555.772V558.202L463.66 561.848V562.091L470.951 565.736V568.167L461.229 563.306Z" fill="#2E2E2E"/>
<path d="M477.702 563.306V560.632L487.424 555.772V558.202L480.132 561.848V562.091L487.424 565.736V568.167L477.702 563.306Z" fill="#2E2E2E"/>
<path d="M164.725 390.993V388.319L174.447 383.459V385.889L167.156 389.535V389.778L174.447 393.423V395.854L164.725 390.993Z" fill="#2E2E2E"/>
<path d="M181.198 390.993V388.319L190.919 383.459V385.889L183.628 389.535V389.778L190.919 393.423V395.854L181.198 390.993Z" fill="#2E2E2E"/>
<path d="M197.67 390.993V388.319L207.392 383.459V385.889L200.101 389.535V389.778L207.392 393.423V395.854L197.67 390.993Z" fill="#2E2E2E"/>
<path d="M214.142 390.993V388.319L223.864 383.459V385.889L216.573 389.535V389.778L223.864 393.423V395.854L214.142 390.993Z" fill="#2E2E2E"/>
<path d="M230.615 390.993V388.319L240.337 383.459V385.889L233.046 389.535V389.778L240.337 393.423V395.854L230.615 390.993Z" fill="#2E2E2E"/>
<path d="M247.088 390.993V388.319L256.809 383.459V385.889L249.518 389.535V389.778L256.809 393.423V395.854L247.088 390.993Z" fill="#2E2E2E"/>
<path d="M263.56 390.993V388.319L273.281 383.459V385.889L265.99 389.535V389.778L273.281 393.423V395.854L263.56 390.993Z" fill="#2E2E2E"/>
<path d="M280.032 390.993V388.319L289.754 383.459V385.889L282.463 389.535V389.778L289.754 393.423V395.854L280.032 390.993Z" fill="#2E2E2E"/>
<path d="M296.505 390.993V388.319L306.226 383.459V385.889L298.935 389.535V389.778L306.226 393.423V395.854L296.505 390.993Z" fill="#2E2E2E"/>
<path d="M312.977 390.993V388.319L322.699 383.459V385.889L315.408 389.535V389.778L322.699 393.423V395.854L312.977 390.993Z" fill="#2E2E2E"/>
<path d="M164.725 410.139V407.465L174.447 402.604V405.035L167.156 408.68V408.923L174.447 412.569V414.999L164.725 410.139Z" fill="#2E2E2E"/>
<path d="M181.198 410.139V407.465L190.919 402.604V405.035L183.628 408.68V408.923L190.919 412.569V414.999L181.198 410.139Z" fill="#2E2E2E"/>
<path d="M197.67 410.139V407.465L207.392 402.604V405.035L200.101 408.68V408.923L207.392 412.569V414.999L197.67 410.139Z" fill="#2E2E2E"/>
<path d="M214.142 410.139V407.465L223.864 402.604V405.035L216.573 408.68V408.923L223.864 412.569V414.999L214.142 410.139Z" fill="#2E2E2E"/>
<path d="M230.615 410.139V407.465L240.337 402.604V405.035L233.046 408.68V408.923L240.337 412.569V414.999L230.615 410.139Z" fill="#2E2E2E"/>
<path d="M247.088 410.139V407.465L256.809 402.604V405.035L249.518 408.68V408.923L256.809 412.569V414.999L247.088 410.139Z" fill="#2E2E2E"/>
<path d="M263.56 410.139V407.465L273.281 402.604V405.035L265.99 408.68V408.923L273.281 412.569V414.999L263.56 410.139Z" fill="#2E2E2E"/>
<path d="M280.032 410.139V407.465L289.754 402.604V405.035L282.463 408.68V408.923L289.754 412.569V414.999L280.032 410.139Z" fill="#2E2E2E"/>
<path d="M296.505 410.139V407.465L306.226 402.604V405.035L298.935 408.68V408.923L306.226 412.569V414.999L296.505 410.139Z" fill="#2E2E2E"/>
<path d="M312.977 410.139V407.465L322.699 402.604V405.035L315.408 408.68V408.923L322.699 412.569V414.999L312.977 410.139Z" fill="#2E2E2E"/>
<path d="M164.725 429.284V426.611L174.447 421.75V424.181L167.156 427.826V428.069L174.447 431.715V434.145L164.725 429.284Z" fill="#2E2E2E"/>
<path d="M181.198 429.284V426.611L190.919 421.75V424.181L183.628 427.826V428.069L190.919 431.715V434.145L181.198 429.284Z" fill="#2E2E2E"/>
<path d="M197.67 429.284V426.611L207.392 421.75V424.181L200.101 427.826V428.069L207.392 431.715V434.145L197.67 429.284Z" fill="#2E2E2E"/>
<path d="M214.142 429.284V426.611L223.864 421.75V424.181L216.573 427.826V428.069L223.864 431.715V434.145L214.142 429.284Z" fill="#2E2E2E"/>
<path d="M230.615 429.284V426.611L240.337 421.75V424.181L233.046 427.826V428.069L240.337 431.715V434.145L230.615 429.284Z" fill="#2E2E2E"/>
<path d="M247.088 429.284V426.611L256.809 421.75V424.181L249.518 427.826V428.069L256.809 431.715V434.145L247.088 429.284Z" fill="#2E2E2E"/>
<path d="M263.56 429.284V426.611L273.281 421.75V424.181L265.99 427.826V428.069L273.281 431.715V434.145L263.56 429.284Z" fill="#2E2E2E"/>
<path d="M280.032 429.284V426.611L289.754 421.75V424.181L282.463 427.826V428.069L289.754 431.715V434.145L280.032 429.284Z" fill="#2E2E2E"/>
<path d="M296.505 429.284V426.611L306.226 421.75V424.181L298.935 427.826V428.069L306.226 431.715V434.145L296.505 429.284Z" fill="#2E2E2E"/>
<path d="M312.977 429.284V426.611L322.699 421.75V424.181L315.408 427.826V428.069L322.699 431.715V434.145L312.977 429.284Z" fill="#2E2E2E"/>
<path d="M164.725 448.431V445.757L174.447 440.896V443.327L167.156 446.972V447.215L174.447 450.861V453.291L164.725 448.431Z" fill="#2E2E2E"/>
<path d="M181.198 448.431V445.757L190.919 440.896V443.327L183.628 446.972V447.215L190.919 450.861V453.291L181.198 448.431Z" fill="#2E2E2E"/>
<path d="M197.67 448.431V445.757L207.392 440.896V443.327L200.101 446.972V447.215L207.392 450.861V453.291L197.67 448.431Z" fill="#2E2E2E"/>
<path d="M214.142 448.431V445.757L223.864 440.896V443.327L216.573 446.972V447.215L223.864 450.861V453.291L214.142 448.431Z" fill="#2E2E2E"/>
<path d="M230.615 448.431V445.757L240.337 440.896V443.327L233.046 446.972V447.215L240.337 450.861V453.291L230.615 448.431Z" fill="#2E2E2E"/>
<path d="M247.088 448.431V445.757L256.809 440.896V443.327L249.518 446.972V447.215L256.809 450.861V453.291L247.088 448.431Z" fill="#2E2E2E"/>
<path d="M263.56 448.431V445.757L273.281 440.896V443.327L265.99 446.972V447.215L273.281 450.861V453.291L263.56 448.431Z" fill="#2E2E2E"/>
<path d="M280.032 448.431V445.757L289.754 440.896V443.327L282.463 446.972V447.215L289.754 450.861V453.291L280.032 448.431Z" fill="#2E2E2E"/>
<path d="M296.505 448.431V445.757L306.226 440.896V443.327L298.935 446.972V447.215L306.226 450.861V453.291L296.505 448.431Z" fill="#2E2E2E"/>
<path d="M312.977 448.431V445.757L322.699 440.896V443.327L315.408 446.972V447.215L322.699 450.861V453.291L312.977 448.431Z" fill="#2E2E2E"/>
<path d="M164.725 467.576V464.903L174.447 460.042V462.473L167.156 466.118V466.361L174.447 470.007V472.437L164.725 467.576Z" fill="#2E2E2E"/>
<path d="M181.198 467.576V464.903L190.919 460.042V462.473L183.628 466.118V466.361L190.919 470.007V472.437L181.198 467.576Z" fill="#2E2E2E"/>
<path d="M197.67 467.576V464.903L207.392 460.042V462.473L200.101 466.118V466.361L207.392 470.007V472.437L197.67 467.576Z" fill="#2E2E2E"/>
<path d="M214.142 467.576V464.903L223.864 460.042V462.473L216.573 466.118V466.361L223.864 470.007V472.437L214.142 467.576Z" fill="#2E2E2E"/>
<path d="M230.615 467.576V464.903L240.337 460.042V462.473L233.046 466.118V466.361L240.337 470.007V472.437L230.615 467.576Z" fill="#2E2E2E"/>
<path d="M247.088 467.576V464.903L256.809 460.042V462.473L249.518 466.118V466.361L256.809 470.007V472.437L247.088 467.576Z" fill="#2E2E2E"/>
<path d="M263.56 467.576V464.903L273.281 460.042V462.473L265.99 466.118V466.361L273.281 470.007V472.437L263.56 467.576Z" fill="#2E2E2E"/>
<path d="M280.032 467.576V464.903L289.754 460.042V462.473L282.463 466.118V466.361L289.754 470.007V472.437L280.032 467.576Z" fill="#2E2E2E"/>
<path d="M296.505 467.576V464.903L306.226 460.042V462.473L298.935 466.118V466.361L306.226 470.007V472.437L296.505 467.576Z" fill="#2E2E2E"/>
<path d="M312.977 467.576V464.903L322.699 460.042V462.473L315.408 466.118V466.361L322.699 470.007V472.437L312.977 467.576Z" fill="#2E2E2E"/>
<path d="M197.67 486.723V484.049L207.392 479.188V481.619L200.101 485.264V485.507L207.392 489.153V491.583L197.67 486.723Z" fill="#2E2E2E"/>
<path d="M214.142 486.723V484.049L223.864 479.188V481.619L216.573 485.264V485.507L223.864 489.153V491.583L214.142 486.723Z" fill="#2E2E2E"/>
<path d="M230.615 486.723V484.049L240.337 479.188V481.619L233.046 485.264V485.507L240.337 489.153V491.583L230.615 486.723Z" fill="#2E2E2E"/>
<path d="M247.088 486.723V484.049L256.809 479.188V481.619L249.518 485.264V485.507L256.809 489.153V491.583L247.088 486.723Z" fill="#2E2E2E"/>
<path d="M263.56 486.723V484.049L273.281 479.188V481.619L265.99 485.264V485.507L273.281 489.153V491.583L263.56 486.723Z" fill="#2E2E2E"/>
<path d="M280.032 486.723V484.049L289.754 479.188V481.619L282.463 485.264V485.507L289.754 489.153V491.583L280.032 486.723Z" fill="#2E2E2E"/>
<path d="M296.505 486.723V484.049L306.226 479.188V481.619L298.935 485.264V485.507L306.226 489.153V491.583L296.505 486.723Z" fill="#2E2E2E"/>
<path d="M312.977 486.723V484.049L322.699 479.188V481.619L315.408 485.264V485.507L322.699 489.153V491.583L312.977 486.723Z" fill="#2E2E2E"/>
<path d="M263.56 505.869V503.195L273.281 498.334V500.765L265.99 504.41V504.653L273.281 508.299V510.729L263.56 505.869Z" fill="#2E2E2E"/>
<path d="M280.032 505.869V503.195L289.754 498.334V500.765L282.463 504.41V504.653L289.754 508.299V510.729L280.032 505.869Z" fill="#2E2E2E"/>
<path d="M296.505 505.869V503.195L306.226 498.334V500.765L298.935 504.41V504.653L306.226 508.299V510.729L296.505 505.869Z" fill="#2E2E2E"/>
<path d="M312.977 505.869V503.195L322.699 498.334V500.765L315.408 504.41V504.653L322.699 508.299V510.729L312.977 505.869Z" fill="#2E2E2E"/>
<path d="M312.977 525.014V522.341L322.699 517.48V519.911L315.408 523.556V523.799L322.699 527.445V529.875L312.977 525.014Z" fill="#2E2E2E"/>
<path d="M0 390.993V388.32L9.72148 383.459V385.889L2.43037 389.535V389.778L9.72148 393.424V395.854L0 390.993Z" fill="#2E2E2E"/>
<path d="M16.4726 390.993V388.319L26.1941 383.459V385.889L18.903 389.535V389.778L26.1941 393.423V395.854L16.4726 390.993Z" fill="#2E2E2E"/>
<path d="M32.9451 390.993V388.319L42.6666 383.459V385.889L35.3755 389.535V389.778L42.6666 393.423V395.854L32.9451 390.993Z" fill="#2E2E2E"/>
<path d="M49.4172 390.993V388.319L59.1387 383.459V385.889L51.8476 389.535V389.778L59.1387 393.423V395.854L49.4172 390.993Z" fill="#2E2E2E"/>
<path d="M65.8901 390.993V388.319L75.6116 383.459V385.889L68.3205 389.535V389.778L75.6116 393.423V395.854L65.8901 390.993Z" fill="#2E2E2E"/>
<path d="M82.3626 390.993V388.319L92.0841 383.459V385.889L84.793 389.535V389.778L92.0841 393.423V395.854L82.3626 390.993Z" fill="#2E2E2E"/>
<path d="M98.8347 390.993V388.319L108.556 383.459V385.889L101.265 389.535V389.778L108.556 393.423V395.854L98.8347 390.993Z" fill="#2E2E2E"/>
<path d="M115.307 390.993V388.319L125.029 383.459V385.889L117.738 389.535V389.778L125.029 393.423V395.854L115.307 390.993Z" fill="#2E2E2E"/>
<path d="M131.78 390.993V388.319L141.501 383.459V385.889L134.21 389.535V389.778L141.501 393.423V395.854L131.78 390.993Z" fill="#2E2E2E"/>
<path d="M148.252 390.993V388.319L157.974 383.459V385.889L150.683 389.535V389.778L157.974 393.423V395.854L148.252 390.993Z" fill="#2E2E2E"/>
<path d="M0.00012207 410.139V407.465L9.7216 402.604V405.035L2.43049 408.68V408.923L9.7216 412.569V414.999L0.00012207 410.139Z" fill="#2E2E2E"/>
<path d="M16.4726 410.139V407.465L26.1941 402.604V405.035L18.903 408.68V408.923L26.1941 412.569V414.999L16.4726 410.139Z" fill="#2E2E2E"/>
<path d="M32.9451 410.139V407.465L42.6666 402.604V405.035L35.3755 408.68V408.923L42.6666 412.569V414.999L32.9451 410.139Z" fill="#2E2E2E"/>
<path d="M49.4172 410.139V407.465L59.1387 402.604V405.035L51.8476 408.68V408.923L59.1387 412.569V414.999L49.4172 410.139Z" fill="#2E2E2E"/>
<path d="M65.8901 410.139V407.465L75.6116 402.604V405.035L68.3205 408.68V408.923L75.6116 412.569V414.999L65.8901 410.139Z" fill="#2E2E2E"/>
<path d="M82.3626 410.139V407.465L92.0841 402.604V405.035L84.793 408.68V408.923L92.0841 412.569V414.999L82.3626 410.139Z" fill="#2E2E2E"/>
<path d="M98.8347 410.139V407.465L108.556 402.604V405.035L101.265 408.68V408.923L108.556 412.569V414.999L98.8347 410.139Z" fill="#2E2E2E"/>
<path d="M115.307 410.139V407.465L125.029 402.604V405.035L117.738 408.68V408.923L125.029 412.569V414.999L115.307 410.139Z" fill="#2E2E2E"/>
<path d="M131.78 410.139V407.465L141.501 402.604V405.035L134.21 408.68V408.923L141.501 412.569V414.999L131.78 410.139Z" fill="#2E2E2E"/>
<path d="M148.252 410.139V407.465L157.974 402.604V405.035L150.683 408.68V408.923L157.974 412.569V414.999L148.252 410.139Z" fill="#2E2E2E"/>
<path d="M32.9451 429.284V426.611L42.6666 421.75V424.181L35.3755 427.826V428.069L42.6666 431.715V434.145L32.9451 429.284Z" fill="#2E2E2E"/>
<path d="M49.4172 429.284V426.611L59.1387 421.75V424.181L51.8476 427.826V428.069L59.1387 431.715V434.145L49.4172 429.284Z" fill="#2E2E2E"/>
<path d="M65.8901 429.284V426.611L75.6116 421.75V424.181L68.3205 427.826V428.069L75.6116 431.715V434.145L65.8901 429.284Z" fill="#2E2E2E"/>
<path d="M82.3626 429.284V426.611L92.0841 421.75V424.181L84.793 427.826V428.069L92.0841 431.715V434.145L82.3626 429.284Z" fill="#2E2E2E"/>
<path d="M98.8347 429.284V426.611L108.556 421.75V424.181L101.265 427.826V428.069L108.556 431.715V434.145L98.8347 429.284Z" fill="#2E2E2E"/>
<path d="M115.307 429.284V426.611L125.029 421.75V424.181L117.738 427.826V428.069L125.029 431.715V434.145L115.307 429.284Z" fill="#2E2E2E"/>
<path d="M131.78 429.284V426.611L141.501 421.75V424.181L134.21 427.826V428.069L141.501 431.715V434.145L131.78 429.284Z" fill="#2E2E2E"/>
<path d="M148.252 429.284V426.611L157.974 421.75V424.181L150.683 427.826V428.069L157.974 431.715V434.145L148.252 429.284Z" fill="#2E2E2E"/>
<path d="M98.8347 448.431V445.757L108.556 440.896V443.327L101.265 446.972V447.215L108.556 450.861V453.291L98.8347 448.431Z" fill="#2E2E2E"/>
<path d="M115.307 448.431V445.757L125.029 440.896V443.327L117.738 446.972V447.215L125.029 450.861V453.291L115.307 448.431Z" fill="#2E2E2E"/>
<path d="M131.78 448.431V445.757L141.501 440.896V443.327L134.21 446.972V447.215L141.501 450.861V453.291L131.78 448.431Z" fill="#2E2E2E"/>
<path d="M148.252 448.431V445.757L157.974 440.896V443.327L150.683 446.972V447.215L157.974 450.861V453.291L148.252 448.431Z" fill="#2E2E2E"/>
<path d="M148.252 467.576V464.903L157.974 460.042V462.473L150.683 466.118V466.361L157.974 470.007V472.437L148.252 467.576Z" fill="#2E2E2E"/>
<path d="M477.702 582.722V580.048L487.424 575.188V577.618L480.133 581.264V581.507L487.424 585.152V587.583L477.702 582.722Z" fill="#2E2E2E"/>
</svg>
