<svg width="141" height="36" viewBox="0 0 141 36" fill="none" xmlns="http://www.w3.org/2000/svg">
<path d="M141 0H0V36H141V0Z" fill="#F14736"/>
<path d="M10.5226 25.5206V22.6148L19.3531 18.256V17.9653L10.5226 13.6065V10.7007L22.2966 16.5123V19.709L10.5226 25.5206Z" fill="white"/>
<path d="M34.0716 25.5204V10.7005H37.1624V12.7339H37.3096C37.5453 12.3469 37.9079 11.9588 38.3985 11.5718C39.4578 10.7977 40.6645 10.4097 42.0184 10.4097C43.8822 10.4097 45.3296 10.9431 46.3605 12.008C47.3904 13.0738 47.9064 14.623 47.9064 16.6575V25.5204H44.8156V16.9483C44.8156 15.6508 44.5262 14.6962 43.9472 14.0856C43.3683 13.4749 42.4795 13.1701 41.283 13.1701C40.0855 13.1701 39.1003 13.5722 38.3253 14.3754C37.5504 15.1795 37.1624 16.2303 37.1624 17.5288V25.5194H34.0716V25.5204Z" fill="white"/>
<path d="M52.3327 23.5872C50.8315 22.1052 50.0809 20.2793 50.0809 18.1094C50.0809 15.9406 50.8315 14.1136 52.3327 12.6327C53.8339 11.1507 55.6835 10.4097 57.8815 10.4097C60.0794 10.4097 61.929 11.1507 63.4302 12.6327C64.9314 14.1146 65.682 15.9406 65.682 18.1094C65.682 20.2793 64.9314 22.1052 63.4302 23.5872C61.929 25.0692 60.0794 25.8102 57.8815 25.8102C55.6825 25.8102 53.8339 25.0692 52.3327 23.5872ZM54.5845 14.5217C53.7405 15.4232 53.319 16.6194 53.319 18.1104C53.319 19.6024 53.7405 20.7987 54.5845 21.6991C55.4286 22.5995 56.5276 23.0497 57.8815 23.0497C59.2354 23.0497 60.3344 22.5995 61.1784 21.6991C62.0225 20.7977 62.444 19.6024 62.444 18.1104C62.444 16.6194 62.0215 15.4232 61.1784 14.5217C60.3344 13.6203 59.2354 13.1711 57.8815 13.1711C56.5276 13.1711 55.4276 13.6203 54.5845 14.5217Z" fill="white"/>
<path d="M66.1229 10.7007H69.3609L72.5989 22.7592H74.5125L77.7506 10.7007H80.9886L76.8679 25.5206H70.2456L66.1229 10.7007Z" fill="white"/>
<path d="M81.7166 21.3065C81.7166 20.009 82.2509 18.9331 83.3214 18.0808C84.3909 17.2285 85.9165 16.8024 87.8982 16.8024H92.1661V16.2208C92.1661 15.2722 91.8868 14.5262 91.3271 13.9838C90.7685 13.4423 89.9681 13.1706 88.9281 13.1706C87.7895 13.1706 86.8774 13.5095 86.1908 14.1873C85.8962 14.4981 85.6799 14.8371 85.5438 15.205H82.3057C82.5018 14.3136 82.8847 13.5195 83.4535 12.8226C84.7678 11.2143 86.593 10.4111 88.9281 10.4111C90.8904 10.4111 92.4353 10.9386 93.5637 11.9944C94.6921 13.0502 95.2559 14.46 95.2559 16.2228V25.5218H92.1651V23.4874H92.0178C91.704 23.9135 91.3109 24.3016 90.8406 24.6495C89.7416 25.4246 88.4659 25.8116 87.0135 25.8116C85.3457 25.8116 84.0456 25.4005 83.1132 24.5763C82.1828 23.7521 81.7166 22.6631 81.7166 21.3065ZM84.9547 21.1621C84.9547 22.4215 85.8861 23.0512 87.7509 23.0512C89.1434 23.0512 90.2282 22.7173 91.0031 22.0485C91.7781 21.3797 92.1661 20.4552 92.1661 19.273H87.6036C85.8373 19.273 84.9547 19.9027 84.9547 21.1621Z" fill="white"/>
<path d="M97.0205 13.461V10.7005H98.7868V7.50391H101.878V10.7005H106.44V13.461H101.878V22.76H106.587V25.5205H98.7868V13.461H97.0205Z" fill="white"/>
<path d="M111.519 10.7007H108.429V25.5206H111.519V10.7007Z" fill="white"/>
<path d="M113.009 25.5206L117.571 18.1106L113.156 10.7007H116.689L120.074 16.6577H120.809L124.195 10.7007H127.727L123.312 18.1106L127.874 25.5206H124.342L120.809 19.4182H120.074L116.541 25.5206H113.009Z" fill="white"/>
<path d="M133.142 20.5791C131.689 20.5791 130.53 21.6921 130.53 23.0808C130.53 24.4997 131.689 25.6127 133.142 25.6127C134.609 25.6127 135.738 24.4997 135.738 23.0808C135.738 21.6931 134.61 20.5791 133.142 20.5791ZM133.158 25.0792C132.014 25.0792 131.18 24.1938 131.18 23.0808C131.18 21.9819 132.014 21.0825 133.143 21.0825C134.271 21.0825 135.09 21.9819 135.09 23.0959C135.089 24.1938 134.27 25.0792 133.158 25.0792Z" fill="white"/>
<path d="M133.729 23.157V23.127C134.039 23.0347 134.255 22.8211 134.255 22.5474C134.255 22.3037 134.146 22.1052 134.008 21.9989C133.822 21.8916 133.606 21.8154 133.127 21.8154C132.71 21.8154 132.386 21.8455 132.153 21.8916V24.3934H132.74V23.3867H133.019C133.343 23.3867 133.497 23.509 133.544 23.7837C133.621 24.0735 133.667 24.3021 133.745 24.3934H134.379C134.317 24.3021 134.27 24.1497 134.193 23.7677C134.116 23.4318 133.977 23.2483 133.729 23.157ZM133.034 22.9746H132.756V22.2576C132.818 22.2426 132.925 22.2265 133.081 22.2265C133.451 22.2265 133.622 22.3789 133.622 22.6076C133.621 22.8673 133.359 22.9746 133.034 22.9746Z" fill="white"/>
<path d="M111.519 5.19385H108.429V8.24507H111.519V5.19385Z" fill="white"/>
</svg>
