<svg width="36" height="36" viewBox="0 0 36 36" fill="none" xmlns="http://www.w3.org/2000/svg">
<rect width="36" height="36" fill="#F14736"/>
<path d="M29 18.9795H7C6.448 18.9795 6 18.5315 6 17.9795C6 17.4275 6.448 16.9795 7 16.9795H29C29.552 16.9795 30 17.4275 30 17.9795C30 18.5315 29.552 18.9795 29 18.9795Z" fill="white"/>
<path d="M29 11.3125H7C6.448 11.3125 6 10.8645 6 10.3125C6 9.7605 6.448 9.3125 7 9.3125H29C29.552 9.3125 30 9.7605 30 10.3125C30 10.8645 29.552 11.3125 29 11.3125Z" fill="white"/>
<path d="M29 26.6455H7C6.448 26.6455 6 26.1975 6 25.6455C6 25.0935 6.448 24.6455 7 24.6455H29C29.552 24.6455 30 25.0935 30 25.6455C30 26.1975 29.552 26.6455 29 26.6455Z" fill="white"/>
</svg>
