<svg width="301" height="228" viewBox="0 0 301 228" fill="none" xmlns="http://www.w3.org/2000/svg">
<path d="M262.833 190.506H224.228C224.211 190.506 224.194 190.373 224.182 190.134C224.169 189.896 224.162 189.573 224.162 189.236C224.162 188.9 224.169 188.577 224.182 188.338C224.194 188.1 224.211 187.966 224.228 187.966H262.833C262.851 187.966 262.867 188.1 262.88 188.338C262.892 188.577 262.899 188.9 262.899 189.236C262.899 189.573 262.892 189.896 262.88 190.134C262.867 190.373 262.851 190.506 262.833 190.506Z" fill="#D1D3D4"/>
<path d="M85.6517 195.587H40.7177C40.6975 195.587 40.6781 195.419 40.6638 195.122C40.6495 194.824 40.6415 194.42 40.6415 193.999C40.6415 193.578 40.6495 193.174 40.6638 192.876C40.6781 192.579 40.6975 192.411 40.7177 192.411H85.6517C85.672 192.411 85.6914 192.579 85.7056 192.876C85.7199 193.174 85.728 193.578 85.728 193.999C85.728 194.42 85.7199 194.824 85.7056 195.122C85.6914 195.419 85.672 195.587 85.6517 195.587Z" fill="#D1D3D4"/>
<path d="M249.913 41.7446V153.8C249.914 154.916 249.695 156.021 249.27 157.052C248.844 158.083 248.221 159.02 247.434 159.809C246.647 160.599 245.712 161.225 244.684 161.652C243.655 162.079 242.553 162.299 241.44 162.299H59.5603C58.447 162.299 57.3445 162.079 56.316 161.652C55.2875 161.225 54.3531 160.599 53.5662 159.809C52.7793 159.02 52.1554 158.083 51.73 157.052C51.3046 156.021 51.0862 154.916 51.0872 153.8V41.7446C51.0872 39.492 51.9796 37.3315 53.5684 35.7379C55.1572 34.1444 57.3124 33.2481 59.5603 33.2461H241.44C243.687 33.2481 245.843 34.1444 247.431 35.7379C249.02 37.3315 249.913 39.492 249.913 41.7446Z" fill="white"/>
<path d="M241.44 162.684H59.5603C57.2126 162.682 54.9618 161.746 53.3024 160.081C51.643 158.417 50.7109 156.161 50.7109 153.808V41.7447C50.7109 39.3921 51.643 37.1357 53.3024 35.4715C54.9618 33.8072 57.2126 32.8712 59.5603 32.8692H241.44C243.787 32.8712 246.038 33.8072 247.698 35.4715C249.357 37.1357 250.289 39.3921 250.289 41.7447V153.801C250.29 154.966 250.062 156.12 249.618 157.198C249.174 158.275 248.522 159.254 247.7 160.079C246.878 160.904 245.903 161.558 244.828 162.005C243.754 162.452 242.603 162.683 241.44 162.684ZM59.5603 33.6233C57.4128 33.6273 55.3545 34.4845 53.8367 36.0069C52.3189 37.5293 51.4654 39.5927 51.4634 41.7447V153.801C51.4634 155.954 52.316 158.019 53.834 159.543C55.3521 161.067 57.4115 161.926 59.5603 161.93H241.44C243.587 161.926 245.645 161.068 247.163 159.546C248.681 158.024 249.535 155.96 249.536 153.808V41.7447C249.535 39.5927 248.681 37.5293 247.163 36.0069C245.645 34.4845 243.587 33.6273 241.44 33.6233H59.5603Z" fill="#231F20"/>
<path d="M249.913 41.7446V47.8149H51.0872V41.7446C51.0872 39.492 51.9796 37.3315 53.5684 35.7379C55.1572 34.1444 57.3124 33.2481 59.5603 33.2461H241.44C243.687 33.2481 245.843 34.1444 247.431 35.7379C249.02 37.3315 249.913 39.492 249.913 41.7446Z" fill="#231F20"/>
<path d="M249.913 48.1471H51.0873C50.9995 48.1471 50.9153 48.1121 50.8532 48.0499C50.7911 47.9877 50.7562 47.9033 50.7562 47.8153V41.7449C50.7582 39.4049 51.6862 37.1612 53.3367 35.5059C54.9871 33.8505 57.2254 32.9187 59.5605 32.9147H241.44C243.775 32.9187 246.013 33.8505 247.664 35.5059C249.314 37.1612 250.242 39.4049 250.244 41.7449V47.8153C250.244 47.9033 250.209 47.9877 250.147 48.0499C250.085 48.1121 250.001 48.1471 249.913 48.1471ZM51.4184 47.4835H249.582V41.7449C249.58 39.5809 248.722 37.506 247.195 35.9751C245.669 34.4442 243.599 33.5823 241.44 33.5783H59.5605C57.401 33.5823 55.3312 34.4442 53.8049 35.9751C52.2786 37.506 51.4204 39.5809 51.4184 41.7449V47.4835Z" fill="#231F20"/>
<path d="M132.026 47.8149L124.847 36.1041H86.56L78.5233 47.8149H51.0872V65.6715H249.913V47.8149H132.026Z" fill="#F14736"/>
<path d="M249.913 66.0486H51.0872C50.9874 66.0486 50.8917 66.0089 50.8211 65.9382C50.7506 65.8675 50.7109 65.7716 50.7109 65.6716V47.815C50.7109 47.715 50.7506 47.6191 50.8211 47.5484C50.8917 47.4777 50.9874 47.438 51.0872 47.438H78.3277L86.2515 35.8931C86.2852 35.842 86.331 35.8 86.3849 35.7711C86.4387 35.7421 86.4989 35.727 86.56 35.7272H124.847C124.912 35.7268 124.976 35.7433 125.033 35.775C125.09 35.8067 125.137 35.8526 125.171 35.9082L132.237 47.438H249.913C250.013 47.438 250.108 47.4777 250.179 47.5484C250.249 47.6191 250.289 47.715 250.289 47.815V65.6716C250.289 65.7716 250.249 65.8675 250.179 65.9382C250.108 66.0089 250.013 66.0486 249.913 66.0486ZM51.4634 65.2945H249.536V48.1921H132.026C131.961 48.191 131.898 48.174 131.842 48.1424C131.785 48.1108 131.737 48.0657 131.703 48.0111L124.637 36.4813H86.7557L78.8319 48.0639C78.7982 48.115 78.7524 48.1569 78.6985 48.1859C78.6447 48.2148 78.5845 48.2299 78.5233 48.2298H51.4333L51.4634 65.2945Z" fill="#231F20"/>
<path d="M60.2903 42.5665C61.4124 42.5665 62.322 41.655 62.322 40.5305C62.322 39.4061 61.4124 38.4945 60.2903 38.4945C59.1682 38.4945 58.2585 39.4061 58.2585 40.5305C58.2585 41.655 59.1682 42.5665 60.2903 42.5665Z" fill="#F14736"/>
<path d="M67.1231 42.5665C68.2452 42.5665 69.1548 41.655 69.1548 40.5305C69.1548 39.4061 68.2452 38.4945 67.1231 38.4945C66.001 38.4945 65.0913 39.4061 65.0913 40.5305C65.0913 41.655 66.001 42.5665 67.1231 42.5665Z" fill="white"/>
<path d="M73.9558 42.5665C75.0779 42.5665 75.9876 41.655 75.9876 40.5305C75.9876 39.4061 75.0779 38.4945 73.9558 38.4945C72.8337 38.4945 71.9241 39.4061 71.9241 40.5305C71.9241 41.655 72.8337 42.5665 73.9558 42.5665Z" fill="white"/>
<path d="M228.226 102.161H77.5675V118.834H228.226V102.161Z" fill="white"/>
<path d="M228.226 119.211H77.5678C77.468 119.211 77.3723 119.171 77.3017 119.101C77.2312 119.03 77.1915 118.934 77.1915 118.834V102.162C77.1915 102.062 77.2312 101.966 77.3017 101.895C77.3723 101.824 77.468 101.784 77.5678 101.784H228.226C228.326 101.784 228.421 101.824 228.492 101.895C228.562 101.966 228.602 102.062 228.602 102.162V118.834C228.602 118.934 228.562 119.03 228.492 119.101C228.421 119.171 228.326 119.211 228.226 119.211ZM77.944 118.457H227.85V102.539H77.944V118.457Z" fill="#231F20"/>
<path d="M128.435 83.5848C126.753 83.1003 125.527 82.5065 124.758 81.8036C123.995 81.0938 123.614 80.2202 123.614 79.1829C123.614 78.009 124.08 77.0399 125.013 76.2755C125.953 75.5043 127.172 75.1188 128.67 75.1188C129.692 75.1188 130.601 75.3167 131.398 75.7125C132.202 76.1083 132.821 76.6543 133.257 77.3504C133.7 78.0466 133.921 78.8075 133.921 79.6333H131.95C131.95 78.7324 131.664 78.0261 131.091 77.5142C130.519 76.9956 129.712 76.7362 128.67 76.7362C127.703 76.7362 126.947 76.9512 126.402 77.3811C125.864 77.8043 125.595 78.3946 125.595 79.1522C125.595 79.7596 125.851 80.2748 126.362 80.698C126.879 81.1143 127.754 81.4965 128.987 81.8445C130.227 82.1926 131.194 82.5782 131.888 83.0013C132.59 83.4176 133.107 83.9056 133.441 84.4652C133.782 85.0248 133.952 85.6834 133.952 86.441C133.952 87.649 133.482 88.6181 132.542 89.3483C131.602 90.0717 130.346 90.4334 128.773 90.4334C127.751 90.4334 126.797 90.2389 125.912 89.8499C125.027 89.4541 124.342 88.9149 123.859 88.2325C123.382 87.55 123.144 86.7754 123.144 85.9087H125.115C125.115 86.8095 125.446 87.5227 126.106 88.0482C126.774 88.5669 127.662 88.8262 128.773 88.8262C129.808 88.8262 130.601 88.6147 131.153 88.1915C131.704 87.7684 131.98 87.1917 131.98 86.4615C131.98 85.7312 131.725 85.1682 131.214 84.7723C130.703 84.3697 129.777 83.9738 128.435 83.5848Z" fill="black"/>
<path d="M140.766 90.4334C139.267 90.4334 138.048 89.9421 137.109 88.9593C136.169 87.9697 135.699 86.6491 135.699 84.9976V84.6495C135.699 83.5507 135.906 82.5714 136.322 81.7114C136.744 80.8447 137.33 80.1691 138.079 79.6845C138.835 79.1931 139.652 78.9474 140.531 78.9474C141.968 78.9474 143.085 79.4217 143.882 80.3704C144.678 81.319 145.077 82.6771 145.077 84.4447V85.233H137.589C137.616 86.325 137.933 87.2088 138.539 87.8844C139.152 88.5532 139.928 88.8876 140.868 88.8876C141.535 88.8876 142.101 88.7512 142.564 88.4782C143.027 88.2052 143.432 87.8435 143.779 87.393L144.934 88.2939C144.008 89.7203 142.618 90.4334 140.766 90.4334ZM140.531 80.5035C139.768 80.5035 139.128 80.7833 138.61 81.3429C138.093 81.8957 137.773 82.6737 137.65 83.677H143.187V83.5336C143.132 82.5714 142.874 81.8275 142.41 81.302C141.947 80.7696 141.321 80.5035 140.531 80.5035Z" fill="black"/>
<path d="M154.097 90.2287C153.988 90.0103 153.9 89.6213 153.832 89.0617C152.953 89.9762 151.904 90.4334 150.685 90.4334C149.595 90.4334 148.7 90.1263 147.998 89.5121C147.304 88.8911 146.956 88.1062 146.956 87.1576C146.956 86.0042 147.392 85.1102 148.264 84.4755C149.143 83.8339 150.375 83.5132 151.962 83.5132H153.801V82.643C153.801 81.981 153.603 81.4555 153.208 81.0665C152.813 80.6707 152.231 80.4728 151.462 80.4728C150.787 80.4728 150.222 80.6434 149.766 80.9846C149.309 81.3258 149.081 81.7387 149.081 82.2233H147.181C147.181 81.6705 147.375 81.1382 147.763 80.6263C148.158 80.1076 148.69 79.6981 149.357 79.3979C150.031 79.0976 150.77 78.9474 151.574 78.9474C152.847 78.9474 153.845 79.2682 154.567 79.9097C155.289 80.5444 155.664 81.4214 155.691 82.5406V87.6387C155.691 88.6556 155.82 89.4643 156.079 90.0649V90.2287H154.097ZM150.961 88.7853C151.553 88.7853 152.115 88.6317 152.647 88.3246C153.178 88.0175 153.563 87.6182 153.801 87.1269V84.8542H152.32C150.004 84.8542 148.846 85.5333 148.846 86.8914C148.846 87.4852 149.044 87.9492 149.439 88.2837C149.834 88.6181 150.341 88.7853 150.961 88.7853Z" fill="black"/>
<path d="M163.996 80.8515C163.71 80.8038 163.4 80.7799 163.067 80.7799C161.827 80.7799 160.986 81.3088 160.543 82.3666V90.2287H158.653V79.1522H160.492L160.523 80.4318C161.143 79.4422 162.021 78.9474 163.159 78.9474C163.526 78.9474 163.806 78.9952 163.996 79.0907V80.8515Z" fill="black"/>
<path d="M169.972 88.8876C170.647 88.8876 171.236 88.6829 171.74 88.2734C172.244 87.8639 172.523 87.3521 172.577 86.7379H174.365C174.331 87.3726 174.113 87.9765 173.711 88.5498C173.31 89.1231 172.771 89.5804 172.097 89.9216C171.43 90.2628 170.722 90.4334 169.972 90.4334C168.467 90.4334 167.269 89.9318 166.376 88.9286C165.491 87.9185 165.048 86.5399 165.048 84.7928V84.4755C165.048 83.3972 165.246 82.4383 165.641 81.5988C166.036 80.7594 166.601 80.1076 167.337 79.6435C168.079 79.1795 168.954 78.9474 169.962 78.9474C171.202 78.9474 172.23 79.3194 173.047 80.0633C173.871 80.8072 174.311 81.7729 174.365 82.9604H172.577C172.523 82.2438 172.25 81.6568 171.76 81.1996C171.277 80.7355 170.677 80.5035 169.962 80.5035C169.002 80.5035 168.256 80.8515 167.725 81.5476C167.201 82.2369 166.938 83.2368 166.938 84.5471V84.9054C166.938 86.1816 167.201 87.1644 167.725 87.8537C168.249 88.543 168.998 88.8876 169.972 88.8876Z" fill="black"/>
<path d="M178.38 80.4932C179.218 79.4627 180.307 78.9474 181.649 78.9474C183.985 78.9474 185.163 80.268 185.184 82.9092V90.2287H183.294V82.8989C183.287 82.1005 183.103 81.5101 182.742 81.1279C182.388 80.7457 181.833 80.5546 181.077 80.5546C180.464 80.5546 179.926 80.7184 179.463 81.046C179 81.3736 178.639 81.8036 178.38 82.3359V90.2287H176.49V74.5045H178.38V80.4932Z" fill="black"/>
<path d="M208.54 119.211C208.49 119.211 208.441 119.201 208.394 119.182C208.348 119.162 208.307 119.134 208.271 119.098C208.236 119.062 208.209 119.02 208.19 118.973C208.172 118.927 208.163 118.877 208.164 118.827C208.239 112.605 208.307 103.164 208.164 102.305C208.156 102.257 208.156 102.209 208.164 102.161C208.17 102.089 208.196 102.02 208.238 101.961C208.281 101.903 208.339 101.857 208.406 101.83C208.474 101.803 208.547 101.794 208.618 101.806C208.69 101.818 208.756 101.85 208.811 101.898C208.954 102.041 209.112 102.207 208.916 118.842C208.916 118.891 208.907 118.939 208.888 118.985C208.869 119.03 208.841 119.071 208.806 119.106C208.771 119.14 208.729 119.167 208.684 119.185C208.638 119.203 208.589 119.212 208.54 119.211Z" fill="#231F20"/>
<path d="M229.023 52.0154H82.0524C79.5755 52.0154 77.5675 54.0276 77.5675 56.5097V57.211C77.5675 59.6931 79.5755 61.7053 82.0524 61.7053H229.023C231.5 61.7053 233.508 59.6931 233.508 57.211V56.5097C233.508 54.0276 231.5 52.0154 229.023 52.0154Z" fill="white"/>
<path d="M226.502 59.0355C226.422 59.0362 226.343 59.0125 226.277 58.9676C226.22 58.9257 226.176 58.8691 226.15 58.804C226.123 58.7388 226.115 58.6676 226.126 58.5981L226.405 56.9769L225.231 55.8231C225.18 55.775 225.143 55.7132 225.126 55.6451C225.109 55.577 225.111 55.5053 225.133 55.4385C225.156 55.3715 225.197 55.312 225.251 55.2668C225.306 55.2215 225.371 55.1923 225.441 55.1822L227.067 54.9484L227.819 53.4402C227.851 53.3773 227.899 53.3244 227.959 53.2871C228.019 53.2499 228.088 53.2298 228.158 53.2291C228.228 53.2298 228.297 53.2499 228.357 53.2871C228.417 53.3244 228.465 53.3773 228.497 53.4402L229.249 54.9484L230.874 55.1822C230.944 55.1923 231.01 55.2215 231.065 55.2668C231.119 55.312 231.16 55.3715 231.183 55.4385C231.205 55.5053 231.207 55.577 231.19 55.6451C231.173 55.7132 231.136 55.775 231.085 55.8231L229.911 56.9769L230.19 58.5981C230.201 58.6676 230.193 58.7388 230.166 58.804C230.139 58.8691 230.096 58.9257 230.039 58.9676C229.979 59.0027 229.91 59.0212 229.84 59.0212C229.77 59.0212 229.701 59.0027 229.64 58.9676L228.188 58.2136L226.736 58.9676C226.666 59.0115 226.585 59.035 226.502 59.0355ZM226.299 55.8156L227.052 56.5697C227.096 56.6132 227.128 56.6669 227.147 56.7261C227.165 56.7853 227.169 56.8481 227.157 56.909L226.977 57.9722L227.932 57.467C227.986 57.441 228.045 57.4274 228.105 57.4274C228.165 57.4274 228.224 57.441 228.278 57.467L229.234 57.9722L229.053 56.909C229.042 56.8481 229.045 56.7853 229.064 56.7261C229.082 56.6669 229.115 56.6132 229.159 56.5697L229.911 55.8156L228.843 55.6648C228.782 55.6536 228.725 55.6287 228.676 55.5922C228.626 55.5556 228.585 55.5082 228.557 55.4536L228.083 54.4884L227.609 55.4536C227.58 55.5082 227.539 55.5556 227.49 55.5922C227.44 55.6287 227.383 55.6536 227.323 55.6648L226.299 55.8156Z" fill="#D1D3D4"/>
<path d="M245.255 54.0138H239.611C239.511 54.0138 239.416 53.9741 239.345 53.9034C239.274 53.8326 239.235 53.7367 239.235 53.6367C239.235 53.5367 239.274 53.4408 239.345 53.3701C239.416 53.2994 239.511 53.2597 239.611 53.2597H245.255C245.355 53.2597 245.45 53.2994 245.521 53.3701C245.591 53.4408 245.631 53.5367 245.631 53.6367C245.631 53.7367 245.591 53.8326 245.521 53.9034C245.45 53.9741 245.355 54.0138 245.255 54.0138Z" fill="#231F20"/>
<path d="M245.255 56.5246H239.611C239.511 56.5246 239.416 56.4849 239.345 56.4142C239.274 56.3434 239.235 56.2475 239.235 56.1475C239.237 56.0482 239.277 55.9534 239.347 55.8831C239.417 55.8128 239.512 55.7724 239.611 55.7705H245.255C245.355 55.7705 245.45 55.8102 245.521 55.8809C245.591 55.9516 245.631 56.0475 245.631 56.1475C245.631 56.2475 245.591 56.3434 245.521 56.4142C245.45 56.4849 245.355 56.5246 245.255 56.5246Z" fill="#231F20"/>
<path d="M245.255 59.0357H239.611C239.511 59.0357 239.416 58.996 239.345 58.9253C239.274 58.8546 239.235 58.7587 239.235 58.6587C239.237 58.5593 239.277 58.4645 239.347 58.3942C239.417 58.3239 239.512 58.2836 239.611 58.2816H245.255C245.355 58.2816 245.45 58.3214 245.521 58.3921C245.591 58.4628 245.631 58.5587 245.631 58.6587C245.631 58.7587 245.591 58.8546 245.521 58.9253C245.45 58.996 245.355 59.0357 245.255 59.0357Z" fill="#231F20"/>
<path d="M138.317 45.1456C138.217 45.1456 138.122 45.1059 138.051 45.0352C137.98 44.9645 137.941 44.8686 137.941 44.7686V38.8189C137.941 38.7189 137.98 38.623 138.051 38.5523C138.122 38.4816 138.217 38.4418 138.317 38.4418C138.417 38.4418 138.513 38.4816 138.583 38.5523C138.654 38.623 138.693 38.7189 138.693 38.8189V44.7686C138.693 44.8686 138.654 44.9645 138.583 45.0352C138.513 45.1059 138.417 45.1456 138.317 45.1456Z" fill="#D1D3D4"/>
<path d="M141.29 42.1746H135.345C135.245 42.1746 135.149 42.1349 135.079 42.0642C135.008 41.9935 134.969 41.8976 134.969 41.7976C134.969 41.6976 135.008 41.6017 135.079 41.5309C135.149 41.4602 135.245 41.4205 135.345 41.4205H141.29C141.389 41.4205 141.485 41.4602 141.556 41.5309C141.626 41.6017 141.666 41.6976 141.666 41.7976C141.664 41.8969 141.624 41.9917 141.553 42.062C141.483 42.1323 141.389 42.1727 141.29 42.1746Z" fill="#D1D3D4"/>
<path d="M61.3889 57.8138H56.0386C55.9388 57.8138 55.8431 57.7741 55.7726 57.7034C55.702 57.6327 55.6624 57.5368 55.6624 57.4368C55.6624 57.3368 55.702 57.2409 55.7726 57.1702C55.8431 57.0995 55.9388 57.0598 56.0386 57.0598H61.3889C61.4881 57.0617 61.5826 57.102 61.6528 57.1723C61.7229 57.2426 61.7632 57.3374 61.7651 57.4368C61.7651 57.5368 61.7255 57.6327 61.6549 57.7034C61.5844 57.7741 61.4887 57.8138 61.3889 57.8138Z" fill="#231F20"/>
<path d="M57.476 60.3328C57.4196 60.332 57.364 60.3187 57.3133 60.294C57.2625 60.2692 57.2179 60.2335 57.1825 60.1895L55.1507 57.6784C55.0944 57.6107 55.0636 57.5253 55.0636 57.4371C55.0636 57.349 55.0944 57.2636 55.1507 57.1958L57.348 54.6244C57.4129 54.5484 57.5052 54.5014 57.6047 54.4936C57.654 54.4897 57.7035 54.4956 57.7505 54.511C57.7975 54.5263 57.841 54.5508 57.8786 54.583C57.9161 54.6151 57.947 54.6544 57.9694 54.6986C57.9918 54.7427 58.0053 54.7908 58.0091 54.8402C58.013 54.8895 58.0071 54.9392 57.9918 54.9863C57.9765 55.0333 57.9521 55.0769 57.9199 55.1146L55.9258 57.4447L57.7619 59.7069C57.7934 59.7452 57.8168 59.7894 57.8308 59.837C57.8448 59.8845 57.8491 59.9344 57.8435 59.9836C57.8379 60.0329 57.8225 60.0805 57.7981 60.1236C57.7737 60.1668 57.741 60.2046 57.7017 60.2348C57.6406 60.2935 57.5605 60.3282 57.476 60.3328Z" fill="#231F20"/>
<path d="M69.659 57.8138H64.3087C64.209 57.8138 64.1133 57.7741 64.0427 57.7034C63.9721 57.6327 63.9325 57.5368 63.9325 57.4368C63.9325 57.3368 63.9721 57.2409 64.0427 57.1702C64.1133 57.0995 64.209 57.0598 64.3087 57.0598H69.659C69.7582 57.0617 69.8528 57.102 69.9229 57.1723C69.9931 57.2426 70.0333 57.3374 70.0353 57.4368C70.0353 57.5368 69.9956 57.6327 69.9251 57.7034C69.8545 57.7741 69.7588 57.8138 69.659 57.8138Z" fill="#231F20"/>
<path d="M68.2216 60.3329C68.1333 60.3314 68.0483 60.2994 67.9808 60.2424C67.9044 60.1791 67.856 60.0881 67.8462 59.9893C67.8363 59.8905 67.8657 59.7917 67.9281 59.7145L69.7642 57.4523L67.7701 55.1222C67.7351 55.0878 67.7072 55.0467 67.6882 55.0014C67.6692 54.9561 67.6594 54.9074 67.6594 54.8583C67.6594 54.8091 67.6692 54.7604 67.6882 54.7151C67.7072 54.6698 67.7351 54.6288 67.7701 54.5943C67.8417 54.5248 67.9375 54.4859 68.0372 54.4859C68.137 54.4859 68.2328 54.5248 68.3044 54.5943L70.5017 57.1657C70.5566 57.2341 70.5866 57.3193 70.5866 57.4071C70.5866 57.4948 70.5566 57.58 70.5017 57.6484L68.4699 60.1594C68.4421 60.2034 68.4058 60.2414 68.3632 60.2712C68.3205 60.301 68.2724 60.3219 68.2216 60.3329Z" fill="#231F20"/>
<path d="M217.277 112.771C216.433 112.771 215.614 112.477 214.962 111.941C214.309 111.404 213.863 110.657 213.698 109.827C213.534 108.997 213.661 108.135 214.059 107.389C214.458 106.643 215.102 106.058 215.882 105.735C216.662 105.411 217.53 105.369 218.338 105.614C219.146 105.86 219.844 106.379 220.313 107.083C220.782 107.786 220.993 108.631 220.91 109.473C220.827 110.315 220.455 111.102 219.858 111.7C219.52 112.041 219.117 112.31 218.674 112.494C218.231 112.678 217.756 112.772 217.277 112.771ZM217.277 106.226C216.705 106.224 216.145 106.392 215.669 106.71C215.193 107.028 214.822 107.48 214.604 108.01C214.385 108.539 214.328 109.122 214.441 109.684C214.554 110.246 214.832 110.761 215.238 111.165C215.787 111.694 216.519 111.989 217.281 111.989C218.042 111.989 218.774 111.694 219.324 111.165C219.727 110.76 220.001 110.244 220.111 109.682C220.222 109.121 220.164 108.539 219.945 108.011C219.726 107.482 219.356 107.031 218.881 106.713C218.406 106.395 217.848 106.226 217.277 106.226Z" fill="#231F20"/>
<path d="M223.304 115.531C223.203 115.531 223.105 115.49 223.033 115.418L219.324 111.7C219.288 111.665 219.26 111.624 219.241 111.578C219.222 111.532 219.212 111.483 219.212 111.433C219.212 111.383 219.222 111.334 219.241 111.288C219.26 111.242 219.288 111.2 219.324 111.165C219.395 111.095 219.491 111.057 219.591 111.057C219.69 111.057 219.786 111.095 219.858 111.165L223.568 114.883C223.637 114.954 223.676 115.05 223.676 115.15C223.676 115.25 223.637 115.346 223.568 115.418C223.498 115.489 223.404 115.53 223.304 115.531Z" fill="#231F20"/>
<path d="M144.254 110.879H84.9422C84.843 110.877 84.7484 110.836 84.6783 110.766C84.6081 110.696 84.5678 110.601 84.5659 110.502C84.5659 110.402 84.6056 110.306 84.6761 110.235C84.7467 110.164 84.8424 110.125 84.9422 110.125H144.254C144.354 110.125 144.45 110.164 144.52 110.235C144.591 110.306 144.63 110.402 144.63 110.502C144.63 110.602 144.591 110.698 144.52 110.768C144.45 110.839 144.354 110.879 144.254 110.879Z" fill="#D1D3D4"/>
<path d="M92.7688 112.098L89.0547 107.132L82.2262 112.261L85.9404 117.227L92.7688 112.098Z" fill="white"/>
<path d="M85.9354 117.597C85.8768 117.599 85.8188 117.586 85.7663 117.559C85.7139 117.533 85.6686 117.494 85.6344 117.447L81.9171 112.485C81.8591 112.404 81.8346 112.304 81.8486 112.206C81.8626 112.107 81.9141 112.018 81.9923 111.957L88.825 106.829C88.9049 106.769 89.0052 106.743 89.104 106.758C89.2028 106.772 89.2919 106.825 89.3518 106.905L93.0616 111.866C93.0918 111.906 93.114 111.95 93.127 111.998C93.1399 112.046 93.1432 112.096 93.1368 112.145C93.1303 112.195 93.1136 112.243 93.0877 112.286C93.0617 112.328 93.0273 112.365 92.9863 112.394L86.1612 117.522C86.0963 117.571 86.0169 117.598 85.9354 117.597ZM82.7448 112.319L86.0107 116.685L92.2338 112.01L88.9755 107.636L82.7448 112.319Z" fill="#231F20"/>
<path d="M85.298 116.371L82.8521 113.1L74.5062 119.368L76.9522 122.639L85.298 116.371Z" fill="#231F20"/>
<path d="M76.9582 122.982C76.9056 122.982 76.8535 122.97 76.8064 122.947C76.7593 122.923 76.7185 122.888 76.6873 122.846L74.2417 119.573C74.215 119.538 74.1958 119.498 74.1854 119.455C74.175 119.412 74.1737 119.368 74.1815 119.324C74.1936 119.237 74.2396 119.159 74.3094 119.106L82.6547 112.839C82.6896 112.813 82.7295 112.793 82.772 112.782C82.8145 112.772 82.8587 112.769 82.9021 112.775C82.9455 112.782 82.9872 112.797 83.0248 112.819C83.0625 112.842 83.0952 112.872 83.1212 112.907L85.5668 116.18C85.5936 116.215 85.6128 116.255 85.6232 116.298C85.6335 116.341 85.6348 116.385 85.627 116.429C85.6228 116.472 85.6092 116.514 85.5871 116.552C85.565 116.59 85.535 116.622 85.4991 116.647L77.1539 122.914C77.0979 122.957 77.0291 122.981 76.9582 122.982ZM74.9716 119.437L77.0184 122.182L84.8369 116.308L82.7751 113.571L74.9716 119.437Z" fill="#231F20"/>
<path d="M91.1053 109.182C89.4826 107.014 88.5379 104.412 88.3909 101.706C88.2439 98.9996 88.9011 96.3104 90.2794 93.9785C91.6577 91.6466 93.6951 89.7767 96.134 88.6053C98.5729 87.4339 101.304 87.0137 103.981 87.3977C106.658 87.7817 109.162 88.9528 111.175 90.7627C113.188 92.5727 114.62 94.9403 115.29 97.566C115.96 100.192 115.838 102.958 114.94 105.514C114.041 108.07 112.406 110.302 110.241 111.927C108.805 113.006 107.171 113.791 105.432 114.238C103.693 114.684 101.883 114.782 100.106 114.527C98.3287 114.273 96.6192 113.669 95.0748 112.752C93.5305 111.835 92.1816 110.622 91.1053 109.182ZM115.599 90.7825C113.589 88.0944 110.829 86.064 107.667 84.9481C104.506 83.8323 101.085 83.6811 97.8373 84.5136C94.59 85.3462 91.6619 87.1251 89.4235 89.6254C87.1851 92.1257 85.737 95.2351 85.2622 98.5602C84.7874 101.885 85.3073 105.277 86.7562 108.306C88.2051 111.335 90.5179 113.865 93.402 115.577C96.2861 117.289 99.612 118.105 102.959 117.922C106.306 117.74 109.524 116.566 112.205 114.551C113.986 113.214 115.486 111.538 116.621 109.62C117.755 107.702 118.501 105.579 118.816 103.371C119.131 101.164 119.009 98.9162 118.457 96.7562C117.905 94.5962 116.934 92.5663 115.599 90.7825Z" fill="#F14736"/>
<path d="M102.077 118.329C101.243 118.328 100.411 118.268 99.586 118.148C95.1786 117.503 91.1927 115.17 88.467 111.64C85.7413 108.11 84.4882 103.658 84.9715 99.2204C85.4547 94.7833 87.6366 90.707 91.058 87.8492C94.4794 84.9913 98.8736 83.5748 103.316 83.8976C107.759 84.2204 111.903 86.2573 114.877 89.5799C117.851 92.9024 119.424 97.2515 119.263 101.712C119.103 106.173 117.222 110.397 114.016 113.496C110.811 116.595 106.531 118.328 102.077 118.329ZM102.024 84.3954C98.296 84.4022 94.6794 85.6697 91.7598 87.9928C88.8401 90.3158 86.7884 93.5584 85.9368 97.1955C85.0852 100.833 85.4836 104.651 87.0675 108.033C88.6514 111.415 91.328 114.162 94.664 115.83C97.9999 117.498 101.8 117.988 105.449 117.222C109.098 116.456 112.382 114.478 114.769 111.609C117.157 108.74 118.508 105.147 118.604 101.412C118.7 97.6777 117.535 94.02 115.298 91.0313C113.755 88.9626 111.752 87.2835 109.448 86.1275C107.143 84.9716 104.601 84.3707 102.024 84.3728V84.3954ZM102.024 115.056C99.8351 115.066 97.6741 114.563 95.7141 113.586C93.7541 112.609 92.0495 111.186 90.7366 109.431C88.8337 106.894 87.8409 103.788 87.919 100.615C87.9971 97.4425 89.1414 94.3891 91.1667 91.9494C93.192 89.5096 95.9798 87.8262 99.0787 87.1717C102.178 86.5173 105.406 86.9301 108.242 88.3433C111.077 89.7565 113.354 92.0874 114.703 94.9586C116.052 97.8298 116.395 101.073 115.676 104.164C114.956 107.255 113.217 110.011 110.739 111.988C108.262 113.965 105.191 115.046 102.024 115.056ZM91.3687 108.978C92.9459 111.082 95.1095 112.67 97.5865 113.542C100.064 114.414 102.743 114.532 105.287 113.88C107.83 113.228 110.124 111.835 111.879 109.878C113.633 107.921 114.77 105.486 115.145 102.883C115.521 100.279 115.118 97.6214 113.988 95.2466C112.858 92.8717 111.051 90.8855 108.796 89.5387C106.54 88.1918 103.937 87.5445 101.315 87.6787C98.6931 87.8128 96.1694 88.7222 94.0626 90.2923C91.2458 92.4143 89.3836 95.5689 88.8843 99.0647C88.3849 102.56 89.2891 106.112 91.3988 108.941L91.3687 108.978Z" fill="#231F20"/>
<path d="M52.6072 139.948L51.1022 137.927C50.8108 137.538 50.6852 137.049 50.7529 136.567C50.8206 136.085 51.0761 135.649 51.4634 135.356L73.7449 118.623C74.1335 118.331 74.6216 118.205 75.1025 118.273C75.5835 118.341 76.018 118.597 76.311 118.985L77.816 121.013C77.9608 121.206 78.0662 121.426 78.1261 121.66C78.186 121.894 78.1992 122.137 78.1649 122.376C78.1306 122.615 78.0496 122.845 77.9264 123.052C77.8033 123.26 77.6404 123.441 77.4472 123.585L55.1732 140.318C54.9808 140.463 54.7616 140.569 54.5282 140.629C54.2949 140.689 54.052 140.702 53.8136 140.667C53.5752 140.633 53.3458 140.552 53.1388 140.428C52.9318 140.305 52.7511 140.142 52.6072 139.948Z" fill="white"/>
<path d="M54.0748 141.064H53.7588C53.4712 141.024 53.1945 140.927 52.9451 140.778C52.6956 140.629 52.4785 140.432 52.3064 140.197L50.8014 138.176C50.625 137.944 50.4969 137.679 50.4245 137.397C50.3521 137.115 50.337 136.821 50.38 136.532C50.4203 136.245 50.5168 135.969 50.664 135.719C50.8113 135.469 51.0063 135.251 51.2379 135.077L73.5495 118.344C73.7808 118.167 74.0452 118.039 74.327 117.966C74.6088 117.894 74.9022 117.879 75.1899 117.922C75.4766 117.962 75.7525 118.059 76.0017 118.206C76.2509 118.354 76.4686 118.549 76.6423 118.781L78.1473 120.81C78.3218 121.042 78.4487 121.307 78.5209 121.589C78.593 121.871 78.6089 122.164 78.5677 122.452C78.5264 122.74 78.4288 123.017 78.2805 123.267C78.1322 123.517 77.936 123.735 77.7033 123.909L55.3992 140.619C55.0158 140.904 54.5521 141.06 54.0748 141.064ZM74.8664 118.631C74.5509 118.629 74.2438 118.732 73.9935 118.925L51.6819 135.658C51.5291 135.772 51.4006 135.915 51.3037 136.08C51.2068 136.244 51.1435 136.426 51.1175 136.615C51.0864 136.806 51.0951 137.001 51.143 137.188C51.191 137.374 51.2771 137.549 51.3959 137.701L52.9009 139.722C53.0147 139.876 53.1577 140.006 53.3217 140.104C53.4857 140.202 53.6675 140.267 53.8566 140.295C54.2401 140.345 54.6282 140.245 54.9402 140.016L77.2443 123.283C77.3979 123.169 77.5275 123.025 77.6255 122.86C77.7234 122.695 77.7879 122.513 77.8152 122.323C77.8425 122.133 77.832 121.939 77.7844 121.753C77.7368 121.568 77.6529 121.393 77.5377 121.24L76.0327 119.211C75.9188 119.058 75.7756 118.929 75.6116 118.832C75.4475 118.735 75.2658 118.672 75.0771 118.646C75.0075 118.633 74.9369 118.628 74.8664 118.631Z" fill="#231F20"/>
<path d="M69.9824 128.32L74.1136 132.596C74.1136 132.596 79.9681 123.849 79.8552 122.831C79.7144 120.987 79.8617 119.132 80.2917 117.333C80.2963 117.278 80.312 117.224 80.3379 117.175C80.3637 117.125 80.3992 117.082 80.4422 117.047C80.6529 116.911 80.8786 117.198 80.9614 117.439C81.1495 118.012 81.1646 118.645 81.3376 119.196C82.2707 118.66 83.1737 118.012 84.0918 117.431C85.5968 116.474 85.1453 120.154 85.0174 120.659C84.6863 122.016 84.0542 123.607 82.8652 124.429C82.8652 124.429 75.8143 140.159 74.2867 139.986C72.7591 139.812 66.7617 133.011 66.7617 133.011L69.9824 128.32Z" fill="white"/>
<path d="M74.317 140.37H74.2718C72.6841 140.189 67.4993 134.428 66.4835 133.274C66.4322 133.207 66.4044 133.125 66.4044 133.041C66.4044 132.956 66.4322 132.874 66.4835 132.807L69.7343 128.109C69.7662 128.063 69.8075 128.024 69.8555 127.996C69.9036 127.967 69.9571 127.949 70.0127 127.943C70.1239 127.94 70.2318 127.981 70.3137 128.056L74.1213 132C76.8153 127.943 79.5243 123.509 79.5393 122.861C79.4018 120.979 79.5516 119.087 79.9833 117.25C79.996 117.145 80.0307 117.044 80.0851 116.953C80.1396 116.862 80.2126 116.783 80.2994 116.722C80.3755 116.673 80.4623 116.642 80.5526 116.633C80.6429 116.624 80.7341 116.637 80.8186 116.67C80.9517 116.732 81.0701 116.823 81.166 116.934C81.262 117.046 81.3333 117.177 81.3754 117.318C81.4767 117.638 81.5497 117.966 81.5937 118.298C81.5937 118.404 81.5937 118.51 81.6463 118.615C82.0828 118.344 82.5192 118.05 82.9482 117.771C83.3771 117.492 83.6104 117.326 83.949 117.115C84.1002 116.983 84.2906 116.905 84.4906 116.893C84.6906 116.88 84.889 116.934 85.0552 117.047C86.0259 117.74 85.454 120.719 85.4465 120.749C85.1598 122.269 84.3824 123.652 83.2341 124.685C80.5176 130.613 75.9123 140.37 74.317 140.37ZM67.2435 132.995C69.5612 135.589 73.3764 139.511 74.3546 139.616C75.2877 139.352 79.2684 131.608 82.5569 124.286C82.586 124.223 82.6299 124.169 82.6848 124.127C83.8135 123.328 84.393 121.752 84.6864 120.568C84.852 119.89 84.9498 117.914 84.5886 117.657C84.5886 117.657 84.4607 117.657 84.3177 117.748L83.3319 118.396C82.7525 118.781 82.158 119.151 81.556 119.528C81.505 119.55 81.4499 119.561 81.3942 119.561C81.3386 119.561 81.2835 119.55 81.2325 119.528C81.1798 119.506 81.1324 119.473 81.0935 119.431C81.0546 119.39 81.025 119.34 81.0067 119.286C80.9253 118.994 80.8625 118.697 80.8186 118.396C80.782 118.118 80.7242 117.844 80.6455 117.575C80.2579 119.277 80.1286 121.029 80.2617 122.77C80.3746 123.841 75.8446 130.703 74.46 132.784C74.4262 132.83 74.3834 132.868 74.3342 132.897C74.285 132.926 74.2305 132.944 74.174 132.95C74.1187 132.954 74.0633 132.946 74.0114 132.926C73.9595 132.907 73.9123 132.876 73.873 132.837L70.0654 128.893L67.2435 132.995Z" fill="#231F20"/>
<path d="M42.7871 189.604C42.7871 189.604 41.3874 193.601 41.9819 193.94C42.5764 194.279 55.3463 193.94 54.5863 193.186C53.8263 192.432 50.4174 189.83 50.4174 189.83" fill="white"/>
<path d="M45.0748 194.46C43.9773 194.519 42.8766 194.454 41.7939 194.264C41.1919 193.902 41.4101 192.296 42.4335 189.476C42.4706 189.383 42.5421 189.307 42.6331 189.265C42.7241 189.223 42.8277 189.217 42.9227 189.25C42.969 189.266 43.0116 189.292 43.0478 189.326C43.084 189.359 43.1132 189.4 43.1335 189.445C43.1539 189.49 43.165 189.538 43.1663 189.588C43.1675 189.637 43.1589 189.686 43.1409 189.732C42.5088 191.474 42.0949 193.209 42.2078 193.623C43.314 193.872 51.9903 193.623 53.9919 193.148C52.8933 192.191 50.2294 190.185 50.2294 190.132C50.1513 190.071 50.0997 189.982 50.0857 189.883C50.0717 189.785 50.0962 189.685 50.1542 189.604C50.1838 189.565 50.221 189.531 50.2635 189.506C50.306 189.481 50.3531 189.464 50.402 189.457C50.4509 189.45 50.5007 189.453 50.5486 189.465C50.5964 189.477 50.6414 189.499 50.6809 189.529C50.8239 189.634 54.1048 192.108 54.8799 192.877C54.9646 192.955 55.0164 193.062 55.0248 193.177C55.0332 193.292 54.9975 193.406 54.925 193.495C54.3983 194.159 48.8072 194.46 45.0748 194.46Z" fill="#231F20"/>
<path d="M51.9224 115.049C51.328 115.132 50.7184 115.132 50.0186 115.2C49.3188 115.267 48.5136 115.2 48.3782 114.528C48.2427 113.857 48.8447 113.412 48.6039 112.907C48.5291 112.774 48.4294 112.656 48.3104 112.56C47.176 111.497 46.4956 110.036 46.4114 108.481C46.3273 106.927 46.8459 105.4 47.8589 104.22C47.8147 104.238 47.7671 104.245 47.7196 104.243C47.6721 104.24 47.6256 104.227 47.5835 104.205C47.5414 104.183 47.5045 104.152 47.4754 104.114C47.4463 104.077 47.4257 104.033 47.415 103.986C47.3784 103.793 47.4189 103.593 47.5278 103.428C47.9102 102.819 48.4586 102.333 49.1081 102.026C51.1547 100.974 53.4702 100.564 55.7527 100.85C57.506 101.038 59.7334 102.003 59.8764 104.054C59.915 104.422 59.8261 104.793 59.6248 105.103C59.4234 105.413 59.1216 105.645 58.7702 105.759C58.7702 107.976 57.9274 109.65 56.7911 111.467C56.0359 112.709 54.9865 113.745 53.736 114.483C53.1732 114.786 52.5575 114.978 51.9224 115.049Z" fill="white"/>
<path d="M49.6649 115.592C48.7394 115.592 48.1223 115.237 48.0019 114.604C47.9665 114.283 48.0212 113.96 48.1599 113.669C48.2653 113.397 48.318 113.224 48.2653 113.103C48.214 113.023 48.1505 112.952 48.0772 112.892C46.9326 111.828 46.2153 110.382 46.0601 108.825C45.9049 107.268 46.3225 105.709 47.2344 104.439C47.1473 104.351 47.085 104.242 47.0538 104.122C47.0207 103.98 47.0163 103.833 47.0408 103.689C47.0654 103.545 47.1184 103.408 47.1967 103.285C47.6148 102.613 48.2151 102.074 48.9275 101.732C51.0423 100.639 53.4351 100.206 55.7978 100.487C57.9048 100.714 60.1021 101.905 60.2526 104.039C60.2854 104.445 60.1979 104.852 60.0012 105.209C59.8044 105.566 59.5071 105.857 59.1464 106.045C59.0088 108.076 58.3048 110.028 57.1147 111.678C56.3244 112.973 55.2255 114.051 53.9166 114.815C53.3188 115.157 52.6586 115.375 51.9751 115.456C51.6139 115.509 51.2226 115.531 50.8765 115.554C50.6131 115.554 50.3422 115.554 50.0562 115.614L49.6649 115.592ZM47.8589 103.866C47.9154 103.866 47.9709 103.88 48.0216 103.905C48.0724 103.929 48.117 103.965 48.1524 104.009C48.2087 104.077 48.2396 104.162 48.2396 104.25C48.2396 104.338 48.2087 104.424 48.1524 104.492C47.2009 105.596 46.7132 107.026 46.7918 108.483C46.8704 109.939 47.5091 111.309 48.5738 112.304C48.7265 112.433 48.854 112.589 48.9501 112.764C49.0177 112.951 49.046 113.15 49.033 113.349C49.0201 113.547 48.9662 113.741 48.8748 113.918C48.7877 114.09 48.7463 114.282 48.7544 114.476C48.8297 114.853 49.5671 114.883 49.9885 114.845C50.2895 114.845 50.5679 114.8 50.8388 114.785C51.1097 114.77 51.5387 114.739 51.8773 114.694C52.4677 114.625 53.0383 114.438 53.5554 114.144C54.7536 113.441 55.7593 112.451 56.4826 111.263C57.7092 109.295 58.4165 107.764 58.4015 105.758C58.3975 105.67 58.4248 105.583 58.4785 105.513C58.5321 105.442 58.6088 105.393 58.6949 105.374C58.9581 105.279 59.1815 105.098 59.329 104.859C59.4765 104.621 59.5395 104.34 59.5076 104.062C59.3722 102.116 57.0695 101.355 55.7451 101.211C53.5269 100.933 51.2764 101.332 49.2887 102.358C48.6997 102.625 48.2023 103.06 47.8589 103.609C47.8086 103.683 47.7799 103.769 47.7762 103.858L47.8589 103.866Z" fill="#231F20"/>
<path d="M44.6836 127.242C44.6836 127.242 39.9729 136.804 40.3567 139.737C40.7405 142.67 50.4176 141.517 50.4176 141.517L49.9135 126.978L44.6836 127.242Z" fill="white"/>
<path d="M46.4518 142.127C43.5848 142.127 40.2362 141.705 39.9803 139.782C39.589 136.766 44.1492 127.461 44.3448 127.069C44.374 127.007 44.4197 126.954 44.4768 126.917C44.534 126.88 44.6003 126.859 44.6684 126.857L49.8832 126.601C49.9327 126.597 49.9824 126.604 50.0291 126.621C50.0758 126.638 50.1184 126.665 50.1541 126.699C50.1913 126.732 50.2212 126.773 50.2419 126.818C50.2626 126.864 50.2737 126.913 50.2745 126.963L50.7862 141.502C50.7907 141.597 50.7591 141.69 50.6976 141.763C50.6362 141.836 50.5496 141.882 50.4551 141.894C49.1258 142.043 47.7895 142.121 46.4518 142.127ZM44.9468 127.596C44.2771 128.976 40.4318 137.12 40.7479 139.662C40.9887 141.471 46.4368 141.547 50.0488 141.17L49.5597 127.355L44.9468 127.596Z" fill="#231F20"/>
<path d="M63.3982 187.734L63.6465 193.94C63.6465 193.94 75.2726 194.03 74.5954 193.186C73.9181 192.341 68.6582 188.593 68.6582 188.593L67.8078 184.001L63.3982 187.734Z" fill="white"/>
<path d="M65.2643 194.355H63.6464C63.5492 194.355 63.4557 194.317 63.3855 194.25C63.3154 194.182 63.274 194.09 63.2702 193.993L63.0218 187.787C63.018 187.73 63.0275 187.673 63.0498 187.621C63.072 187.568 63.1063 187.522 63.1498 187.485L67.5669 183.715C67.6163 183.671 67.6768 183.641 67.7418 183.629C67.8068 183.617 67.8739 183.623 67.9357 183.647C67.9972 183.67 68.0518 183.708 68.0941 183.758C68.1363 183.808 68.1647 183.869 68.1765 183.934L68.9967 188.375C69.9223 189.031 74.2642 192.145 74.8888 192.952C74.9468 193.021 74.984 193.106 74.996 193.195C75.008 193.285 74.9943 193.376 74.9565 193.458C74.8436 193.669 74.4975 194.355 65.2643 194.355ZM64.0076 193.601C68.2592 193.601 72.7818 193.473 74.0384 193.179C72.9925 192.191 69.7417 189.83 68.4775 188.895C68.4374 188.867 68.4034 188.832 68.3776 188.79C68.3517 188.749 68.3345 188.702 68.327 188.654L67.5745 184.703L63.812 187.9L64.0076 193.601Z" fill="#231F20"/>
<path d="M65.4675 144.096L69.9825 189.438L62.8337 188.971L55.9484 157.578L51.2753 189.83L42.6216 189.408C42.6216 189.408 43.3741 168.701 44.1793 161.839C44.9844 154.977 44.9995 145.785 44.9995 145.785L65.4675 144.096Z" fill="#231F20"/>
<path d="M59.9065 108.76C59.9065 108.76 61.8931 111.022 61.6297 111.572C61.3663 112.123 60.1849 111.957 60.1849 111.957" fill="white"/>
<path d="M60.5989 112.364C60.4426 112.364 60.2866 112.351 60.1323 112.326C60.0325 112.311 59.9428 112.257 59.8828 112.176C59.8228 112.095 59.7975 111.993 59.8125 111.893C59.8275 111.793 59.8815 111.703 59.9626 111.643C60.0438 111.583 60.1454 111.557 60.2452 111.572C60.6215 111.633 61.2009 111.572 61.2912 111.406C60.8751 110.517 60.3129 109.704 59.6281 109.001C59.5673 108.925 59.538 108.829 59.5463 108.732C59.5546 108.635 59.5998 108.546 59.6726 108.481C59.7454 108.417 59.8401 108.384 59.9369 108.388C60.0338 108.392 60.1254 108.433 60.1925 108.503C61.1708 109.612 62.277 111.075 61.9684 111.731C61.8199 111.952 61.6137 112.128 61.3721 112.24C61.1306 112.351 60.8632 112.394 60.5989 112.364Z" fill="#231F20"/>
<path d="M59.1013 105.525C60.2601 106.233 60.2075 108.081 60.3655 109.25C60.5862 110.904 60.7668 112.56 60.9073 114.219C60.9976 115.275 58.3036 115.675 57.7844 115.433L58.7852 119.498L52.7652 118.118L52.2761 113.329C52.8894 113.183 53.4508 112.871 53.8993 112.426C54.3478 111.982 54.6661 111.424 54.8196 110.811C55.5721 108.549 55.0679 105.261 55.0679 105.261C55.0679 105.261 57.9424 104.838 59.1013 105.525Z" fill="white"/>
<path d="M58.7852 119.874H58.6949L52.6749 118.494C52.5978 118.476 52.5282 118.435 52.4757 118.375C52.4231 118.316 52.3902 118.242 52.3814 118.163L51.9224 113.367C51.9154 113.27 51.9446 113.173 52.0044 113.097C52.0642 113.02 52.1503 112.969 52.246 112.952C52.7961 112.825 53.2995 112.546 53.6987 112.145C54.0979 111.745 54.3768 111.241 54.5035 110.69C55.256 108.526 54.7518 105.351 54.7443 105.321C54.736 105.272 54.7377 105.222 54.7494 105.174C54.761 105.126 54.7823 105.081 54.812 105.042C54.8414 105.001 54.8784 104.967 54.9211 104.941C54.9637 104.915 55.011 104.898 55.0603 104.891C55.3689 104.846 58.0703 104.469 59.2969 105.208C60.5235 105.947 60.5686 107.379 60.6815 108.571C60.6815 108.797 60.7191 109.008 60.7492 109.204C60.9675 110.848 61.1481 112.53 61.291 114.189C61.3019 114.395 61.2548 114.601 61.155 114.782C61.0553 114.963 60.9069 115.113 60.7267 115.214C59.9887 115.646 59.1504 115.874 58.2961 115.878L59.169 119.407C59.1828 119.463 59.1836 119.521 59.1715 119.577C59.1593 119.633 59.1345 119.686 59.0989 119.731C59.0633 119.776 59.0179 119.813 58.9662 119.837C58.9144 119.862 58.8576 119.875 58.8003 119.874H58.7852ZM53.149 117.816L58.2735 118.992L57.4157 115.523C57.4001 115.454 57.404 115.382 57.4269 115.315C57.4497 115.248 57.4907 115.188 57.5452 115.143C57.5998 115.098 57.6657 115.068 57.7358 115.058C57.8059 115.048 57.8774 115.058 57.9424 115.086C58.7627 115.174 59.5899 115 60.3053 114.588C60.4708 114.468 60.5461 114.355 60.5385 114.249C60.3956 112.605 60.2074 110.939 59.9967 109.302C59.9967 109.099 59.9441 108.88 59.9215 108.646C59.8237 107.621 59.7033 106.339 58.9056 105.849C58.108 105.358 56.4675 105.487 55.5269 105.592C55.7723 107.375 55.6649 109.189 55.2108 110.931C55.0412 111.546 54.7263 112.111 54.2928 112.578C53.8592 113.046 53.3198 113.401 52.7201 113.616L53.149 117.816Z" fill="#231F20"/>
<path d="M71.1564 128.69C71.1564 128.69 64.4817 121.624 61.8404 118.947C59.3873 116.481 52.2536 114.242 49.0103 117.771C49.0103 117.771 43.6676 125.236 42.6442 129.572L45.767 131.48C45.0815 136.622 44.6771 141.797 44.5555 146.984C50.4175 151.674 65.4675 144.095 65.4675 144.095L64.1055 133.463L66.5436 135.899L71.1564 128.69Z" fill="#F14736"/>
<path d="M60.6967 112.997C60.5517 113.127 60.3805 113.224 60.1949 113.281C60.0092 113.339 59.8133 113.356 59.6206 113.331C59.4279 113.306 59.2428 113.239 59.0779 113.136C58.913 113.033 58.7721 112.896 58.6649 112.733" fill="white"/>
<path d="M59.7259 113.737H59.5227C59.2872 113.701 59.0621 113.615 58.8623 113.485C58.6624 113.355 58.4925 113.183 58.3639 112.983C58.3067 112.901 58.2834 112.8 58.2988 112.702C58.3143 112.603 58.3673 112.515 58.4466 112.455C58.5295 112.4 58.63 112.379 58.7278 112.396C58.8256 112.413 58.9134 112.466 58.9734 112.545C59.0432 112.663 59.1369 112.765 59.2484 112.844C59.3598 112.923 59.4866 112.978 59.6206 113.005C59.9226 113.019 60.2194 112.923 60.4558 112.734C60.5348 112.673 60.6341 112.644 60.7334 112.654C60.8327 112.664 60.9246 112.711 60.9901 112.787C61.0525 112.864 61.0819 112.962 61.0721 113.061C61.0622 113.16 61.0138 113.251 60.9374 113.314C60.5884 113.58 60.1642 113.728 59.7259 113.737Z" fill="#231F20"/>
<path d="M56.9041 110.26C56.795 109.856 56.5793 109.489 56.2795 109.197C56.0845 108.938 55.8481 108.714 55.5797 108.533C55.4461 108.441 55.2938 108.38 55.1338 108.354C54.9738 108.328 54.81 108.338 54.6541 108.382C54.522 108.437 54.4029 108.519 54.3044 108.623C54.2059 108.727 54.1302 108.851 54.0822 108.986C53.9886 109.259 53.9577 109.551 53.9919 109.838C54.0507 110.462 54.273 111.059 54.6365 111.569C54.9999 112.079 55.4915 112.483 56.0613 112.741L55.956 112.658" fill="white"/>
<path d="M56.0613 113.118C56.0118 113.13 55.9603 113.13 55.9108 113.118C55.2848 112.829 54.7462 112.378 54.3498 111.813C53.9534 111.247 53.7131 110.587 53.6533 109.898C53.618 109.555 53.6565 109.208 53.7662 108.88C53.833 108.694 53.9388 108.525 54.0763 108.383C54.2139 108.241 54.3801 108.131 54.5638 108.058C54.7727 107.996 54.9926 107.98 55.2082 108.011C55.4239 108.043 55.6303 108.12 55.813 108.239C56.1002 108.451 56.3539 108.706 56.5655 108.993C56.9139 109.339 57.1589 109.775 57.2728 110.253C57.2803 110.302 57.2781 110.352 57.2662 110.4C57.2544 110.448 57.2332 110.493 57.2038 110.533C57.1744 110.573 57.1375 110.607 57.0951 110.633C57.0527 110.658 57.0057 110.675 56.9568 110.683C56.8586 110.694 56.7598 110.667 56.6802 110.609C56.6007 110.55 56.5462 110.463 56.5279 110.366C56.4339 110.03 56.2489 109.728 55.9936 109.491C55.8215 109.263 55.616 109.062 55.3841 108.895C55.2972 108.835 55.1988 108.794 55.0951 108.775C54.9913 108.755 54.8847 108.758 54.7821 108.782C54.7006 108.818 54.6276 108.871 54.568 108.938C54.5083 109.004 54.4633 109.082 54.4359 109.167C54.3639 109.385 54.3408 109.617 54.3682 109.846C54.4191 110.358 54.5919 110.851 54.8721 111.282C55.1523 111.714 55.5317 112.072 55.9785 112.327C56.0577 112.333 56.1335 112.361 56.1968 112.409L56.3021 112.5C56.3649 112.548 56.4108 112.614 56.4331 112.69C56.4554 112.766 56.4529 112.847 56.426 112.921C56.3991 112.995 56.3491 113.059 56.2835 113.102C56.2179 113.146 56.14 113.167 56.0613 113.164V113.118Z" fill="#231F20"/>
<path d="M64.3239 134.36C64.2741 134.36 64.2249 134.348 64.1796 134.328C64.1343 134.307 64.0937 134.277 64.0605 134.24C62.359 132.485 60.7562 130.638 59.2596 128.705C59.1997 128.625 59.174 128.524 59.1881 128.425C59.2022 128.326 59.255 128.237 59.3348 128.177C59.4153 128.119 59.5152 128.094 59.6134 128.108C59.7116 128.122 59.8005 128.174 59.8616 128.252C61.3399 130.159 62.9199 131.984 64.5948 133.719C64.6298 133.754 64.6577 133.795 64.6767 133.84C64.6957 133.885 64.7055 133.934 64.7055 133.983C64.7055 134.032 64.6957 134.081 64.6767 134.126C64.6577 134.172 64.6298 134.213 64.5948 134.247C64.5604 134.284 64.5183 134.314 64.4716 134.333C64.4249 134.353 64.3745 134.362 64.3239 134.36Z" fill="#231F20"/>
<path d="M59.0438 107.766C59.0529 107.437 58.9559 107.168 58.8271 107.164C58.6983 107.161 58.5865 107.424 58.5774 107.753C58.5683 108.082 58.6653 108.352 58.7941 108.355C58.9229 108.359 59.0347 108.095 59.0438 107.766Z" fill="#231F20"/>
<path d="M45.6993 130.349H45.6391C45.541 130.33 45.4539 130.274 45.3963 130.193C45.3387 130.111 45.3151 130.01 45.3305 129.911C45.3832 129.587 46.6323 121.911 48.047 119.354C48.0706 119.311 48.1026 119.272 48.1414 119.241C48.1801 119.21 48.2247 119.187 48.2725 119.174C48.3203 119.16 48.3702 119.157 48.4194 119.163C48.4686 119.17 48.516 119.186 48.5587 119.211C48.6022 119.234 48.6405 119.265 48.6714 119.303C48.7023 119.342 48.7252 119.386 48.7386 119.433C48.7519 119.48 48.7556 119.53 48.7492 119.578C48.7429 119.627 48.7267 119.674 48.7017 119.716C47.3548 122.182 46.083 129.979 46.0755 130.055C46.0564 130.14 46.0084 130.216 45.9398 130.269C45.8712 130.323 45.7862 130.351 45.6993 130.349Z" fill="#231F20"/>
<path d="M243.208 153.635C243.282 152.574 243.058 151.513 242.561 150.573C242.147 149.887 241.522 149.344 241.184 148.628C240.604 147.383 241.011 145.913 240.875 144.548C240.752 143.41 240.248 142.347 239.446 141.532C238.731 140.778 237.813 140.31 237.128 139.564C236.007 138.319 235.691 136.585 235.051 135.039C234.152 132.852 232.588 131.005 230.581 129.761C231.8 132.219 229.023 135.341 230.28 137.784C230.679 138.538 231.446 139.119 231.74 139.933C232.44 141.916 230.092 144.058 230.844 146.019C231.221 146.999 232.267 147.527 232.756 148.492C233.41 149.744 232.891 151.267 232.944 152.677C233.019 154.63 234.208 156.372 235.615 157.722C236.488 158.566 237.466 159.29 238.407 160.052C239.543 160.964 240.025 161.915 241.018 160.459C242.396 158.447 243.157 156.075 243.208 153.635Z" fill="#231F20"/>
<path d="M244.472 154.743C244.111 153.235 243.848 151.599 244.472 150.174C245.165 148.567 246.895 147.429 247.098 145.687C247.234 144.541 246.654 143.387 246.88 142.256C247.106 141.125 248.024 140.363 248.784 139.533C250.527 137.611 251.564 135.151 251.726 132.558C252.891 133.951 253.835 135.515 254.526 137.196C254.86 138.042 254.997 138.953 254.926 139.86C254.856 140.766 254.58 141.645 254.119 142.429C253.827 142.783 253.586 143.176 253.404 143.598C253.066 144.706 254.014 145.747 254.503 146.795C254.793 147.396 254.913 148.064 254.852 148.729C254.791 149.393 254.551 150.028 254.157 150.566C253.164 151.81 251.245 152.292 250.756 153.808C250.63 154.372 250.571 154.949 250.583 155.527C250.478 156.528 250.077 157.475 249.433 158.246C248.788 159.017 247.928 159.578 246.963 159.856C245.782 160.142 245.804 159.675 245.593 158.68C245.315 157.405 244.796 156.078 244.472 154.743Z" fill="#231F20"/>
<path d="M240.725 143.892C239.889 140.989 239.558 137.965 238.67 135.077C237.92 132.821 237.007 130.624 235.939 128.501L239.528 130.009C240.68 130.492 241.921 131.065 242.463 132.196C243.411 134.157 241.711 136.668 242.704 138.606C243.133 139.239 243.608 139.838 244.126 140.4C245.18 141.908 245.022 143.929 244.442 145.679C244.194 146.433 243.103 150.271 242.132 149.2C241.741 148.778 241.711 147.179 241.545 146.599C241.297 145.686 240.988 144.797 240.725 143.892Z" fill="#231F20"/>
<path d="M242.621 182.418C241.906 177.682 239.664 160.979 239.611 160.806L240.364 160.708C240.364 160.874 242.621 177.576 243.374 182.305L242.621 182.418Z" fill="#231F20"/>
<path d="M243.599 186.882H242.847C242.847 181.249 245.24 159.735 246.609 158.227L247.166 158.74C246.12 159.878 243.644 180.653 243.599 186.882Z" fill="#231F20"/>
<path d="M244.811 185.811H244.058C244.593 173.686 242.027 148.213 242.004 147.956L242.757 147.881C242.779 148.107 245.353 173.633 244.811 185.811Z" fill="#231F20"/>
<path d="M236.541 168.829H249.898L248.965 184.032C248.799 186.663 246.858 188.707 244.51 188.707H241.929C239.581 188.707 237.64 186.663 237.474 184.032L236.541 168.829Z" fill="white"/>
<path d="M244.51 189.076H241.929C239.385 189.076 237.263 186.867 237.09 184.039L236.15 168.837C236.145 168.731 236.183 168.628 236.255 168.55C236.291 168.511 236.335 168.479 236.385 168.456C236.434 168.434 236.487 168.423 236.541 168.422H249.898C249.952 168.423 250.005 168.434 250.054 168.456C250.103 168.479 250.147 168.511 250.184 168.55C250.255 168.628 250.293 168.731 250.289 168.837L249.348 184.039C249.175 186.882 247.053 189.076 244.51 189.076ZM236.985 169.207L237.895 183.994C238.038 186.407 239.829 188.3 241.959 188.3H244.54C246.67 188.3 248.46 186.407 248.603 183.994L249.514 169.207H236.985Z" fill="#231F20"/>
<path d="M169.305 133.984H131.499C129.301 133.984 127.519 135.769 127.519 137.973V140.898C127.519 143.102 129.301 144.887 131.499 144.887H169.305C171.503 144.887 173.286 143.102 173.286 140.898V137.973C173.286 135.769 171.503 133.984 169.305 133.984Z" fill="#F14736"/>
</svg>
