<svg width="472" height="356" viewBox="0 0 472 356" fill="none" xmlns="http://www.w3.org/2000/svg">
<path d="M232.861 287.064C150.945 287.064 84.2991 240.822 84.2991 183.999C84.2991 127.177 150.945 80.9227 232.861 80.9227C314.777 80.9227 381.435 127.224 381.435 183.999C381.435 201.558 374.945 218.893 362.685 234.15C364.289 256.432 366.095 283.096 366.118 283.368C366.129 283.502 366.092 283.635 366.014 283.745C365.937 283.855 365.823 283.934 365.694 283.97C365.564 284.008 365.426 284.001 365.302 283.949C365.177 283.897 365.074 283.805 365.009 283.686L347.144 249.867C318.8 273.507 277.205 287.064 232.861 287.064ZM232.861 82.1035C151.594 82.1035 85.4791 127.814 85.4791 183.999C85.4791 240.184 151.559 285.883 232.861 285.883C277.217 285.883 318.8 272.256 346.944 248.485C347.085 248.378 347.263 248.332 347.439 248.355C347.526 248.374 347.608 248.41 347.679 248.463C347.751 248.516 347.81 248.584 347.852 248.662L364.75 280.734C364.242 273.271 362.803 252.181 361.481 234.067C361.469 233.918 361.516 233.77 361.611 233.654C373.812 218.563 380.255 201.417 380.255 184.058C380.255 127.814 314.139 82.1035 232.861 82.1035Z" fill="#D1D3D4"/>
<path d="M133.942 75.9865C133.942 75.9865 136.679 70.9325 141.022 63.9537C141.022 63.9537 154.969 74.3806 154.851 73.802C154.733 73.2233 133.942 75.9865 133.942 75.9865Z" fill="#231F20"/>
<path d="M133.942 76.5773C133.839 76.5776 133.738 76.5511 133.649 76.5005C133.56 76.4499 133.485 76.3769 133.433 76.2886C133.38 76.2004 133.352 76.1001 133.35 75.9974C133.348 75.8948 133.373 75.7935 133.422 75.7035C133.422 75.7035 136.219 70.555 140.561 63.6352C140.653 63.5014 140.792 63.4083 140.951 63.3754C141.031 63.3597 141.113 63.3611 141.192 63.3794C141.272 63.3977 141.346 63.4326 141.411 63.4817C146.249 67.0951 154.214 72.9285 155.028 73.2591C155.418 73.3536 155.441 73.5071 155.477 73.6842C155.499 73.8054 155.485 73.9306 155.437 74.0441C155.389 74.1575 155.308 74.2542 155.205 74.3219C155.087 74.3927 154.981 74.4636 154.639 74.3219C153.329 74.1448 141.352 75.5972 134.012 76.5773H133.942ZM141.222 64.7688C138.201 69.5985 135.995 73.4599 135.015 75.2075C145.128 73.885 150.202 73.33 152.715 73.1883C150.934 71.9838 147.559 69.5394 141.222 64.8042V64.7688Z" fill="#231F20"/>
<path d="M318.741 286.591L325.703 274.972L316.075 266.257L318.741 286.591Z" fill="#231F20"/>
<path d="M318.741 287.181H318.6C318.478 287.159 318.367 287.097 318.284 287.005C318.201 286.913 318.15 286.797 318.14 286.674L315.461 266.351C315.445 266.23 315.468 266.107 315.525 265.999C315.582 265.892 315.671 265.804 315.78 265.749C315.884 265.691 316.005 265.668 316.123 265.683C316.242 265.698 316.353 265.75 316.44 265.832L326.081 274.546C326.182 274.639 326.248 274.763 326.268 274.899C326.287 275.035 326.259 275.173 326.187 275.29L319.225 286.91C319.173 286.991 319.102 287.059 319.017 287.106C318.933 287.153 318.838 287.179 318.741 287.181ZM316.865 267.745L319.107 284.808L324.948 275.066L316.865 267.745Z" fill="#231F20"/>
<path d="M314.234 289L202.134 304.977C199.835 305.276 197.505 304.749 195.56 303.487C193.614 302.226 192.18 300.314 191.514 298.092L133.54 80.9696C132.36 76.4706 135.228 72.5147 139.983 72.125L254.278 62.9026C256.539 62.793 258.771 63.4455 260.617 64.7558C262.463 66.066 263.817 67.9581 264.461 70.1294L320.087 280.073C320.375 281.047 320.448 282.073 320.301 283.079C320.153 284.084 319.787 285.045 319.23 285.895C318.673 286.745 317.937 287.463 317.074 287.999C316.211 288.536 315.242 288.877 314.234 289Z" fill="#231F20"/>
<path d="M200.895 305.697C198.665 305.688 196.497 304.962 194.711 303.627C192.924 302.292 191.613 300.418 190.971 298.282L132.974 81.1705C132.656 80.0993 132.582 78.9704 132.758 77.8669C132.933 76.7634 133.354 75.7133 133.989 74.7939C134.674 73.8562 135.559 73.0819 136.579 72.5266C137.599 71.9712 138.729 71.6487 139.889 71.582L254.231 62.2769C256.63 62.1581 259 62.8505 260.958 64.2427C262.917 65.635 264.35 67.6461 265.028 69.9525L320.653 279.884C320.961 280.953 321.034 282.076 320.87 283.176C320.705 284.277 320.305 285.329 319.697 286.26C319.091 287.168 318.297 287.934 317.368 288.507C316.44 289.08 315.399 289.445 314.316 289.579L202.216 305.567C201.779 305.639 201.338 305.682 200.895 305.697ZM254.974 63.4578H254.325L140.03 72.6802C139.034 72.7266 138.061 72.9944 137.181 73.4642C136.302 73.934 135.538 74.594 134.945 75.3962C134.415 76.1778 134.065 77.0672 133.92 78.0003C133.775 78.9334 133.839 79.8871 134.107 80.7927L192.116 297.975C192.741 300.058 194.086 301.851 195.91 303.034C197.734 304.217 199.919 304.713 202.075 304.434L314.175 288.445C315.091 288.332 315.973 288.024 316.761 287.541C317.549 287.058 318.224 286.412 318.741 285.646C319.252 284.852 319.588 283.958 319.726 283.023C319.865 282.088 319.803 281.135 319.544 280.226L263.883 70.2831C263.312 68.3481 262.141 66.6445 260.54 65.418C258.939 64.1914 256.99 63.505 254.974 63.4578Z" fill="#231F20"/>
<path d="M321.526 277.05L209.426 293.027C207.127 293.331 204.795 292.806 202.848 291.544C200.902 290.282 199.469 288.367 198.806 286.143L140.833 68.9843C139.653 64.4853 142.52 60.5294 147.276 60.1397L261.582 50.9173C263.841 50.8083 266.072 51.4613 267.916 52.7716C269.76 54.0819 271.112 55.9738 271.754 58.1441L327.379 268.087C327.674 269.064 327.752 270.094 327.607 271.103C327.462 272.113 327.098 273.079 326.54 273.934C325.982 274.788 325.244 275.509 324.378 276.048C323.512 276.586 322.539 276.928 321.526 277.05Z" fill="white"/>
<path d="M208.187 293.723C205.958 293.712 203.791 292.986 202.005 291.651C200.219 290.316 198.907 288.443 198.264 286.308L140.267 69.1376C139.951 68.0661 139.879 66.9377 140.054 65.8346C140.23 64.7315 140.649 63.6815 141.281 62.761C141.969 61.825 142.854 61.052 143.874 60.4969C144.893 59.9418 146.023 59.6182 147.181 59.5491L261.488 50.3267C263.885 50.2105 266.252 50.9042 268.208 52.2962C270.164 53.6882 271.596 55.6979 272.273 58.0022L327.91 267.934C328.215 269.003 328.287 270.126 328.122 271.225C327.957 272.325 327.559 273.377 326.954 274.31C326.346 275.218 325.55 275.984 324.619 276.557C323.689 277.13 322.646 277.495 321.562 277.628L209.462 293.617C209.04 293.679 208.614 293.714 208.187 293.723ZM262.267 51.4839H261.63L147.323 60.7063C146.329 60.7528 145.357 61.0207 144.479 61.4905C143.602 61.9604 142.84 62.6203 142.249 63.4223C141.714 64.2015 141.361 65.0906 141.214 66.0243C141.067 66.958 141.13 67.9128 141.399 68.8188L199.42 285.989C200.048 288.071 201.393 289.863 203.216 291.045C205.04 292.228 207.224 292.725 209.379 292.448L321.479 276.459C322.396 276.346 323.278 276.038 324.066 275.555C324.853 275.073 325.529 274.427 326.046 273.661C326.56 272.867 326.897 271.973 327.036 271.038C327.174 270.103 327.11 269.149 326.848 268.241L271.188 58.2974C270.612 56.3636 269.438 54.6623 267.835 53.4381C266.232 52.2139 264.283 51.5297 262.267 51.4839Z" fill="#231F20"/>
<path d="M151.901 83.2722L268.922 73.1287L313.821 242.533L198.523 257.873L151.901 83.2722Z" fill="#F14736"/>
<path d="M275.199 275.786L253.334 278.868C251.945 279.039 250.54 278.711 249.37 277.94C248.201 277.17 247.343 276.009 246.95 274.664L244.779 266.564C244.597 265.945 244.554 265.294 244.652 264.656C244.75 264.019 244.987 263.411 245.346 262.876C245.706 262.34 246.178 261.891 246.731 261.559C247.283 261.227 247.902 261.021 248.543 260.955L270.456 257.979C271.832 257.829 273.217 258.167 274.369 258.936C275.521 259.704 276.367 260.854 276.757 262.183L278.905 270.272C279.076 270.88 279.114 271.519 279.014 272.143C278.914 272.767 278.68 273.363 278.328 273.887C277.975 274.412 277.513 274.854 276.973 275.182C276.432 275.51 275.827 275.716 275.199 275.786Z" fill="white"/>
<path d="M252.591 279.553C251.186 279.54 249.823 279.072 248.705 278.221C247.587 277.37 246.773 276.181 246.384 274.83L244.26 266.659C244.062 265.962 244.016 265.232 244.126 264.517C244.236 263.801 244.499 263.118 244.897 262.514C245.307 261.905 245.845 261.392 246.472 261.01C247.1 260.629 247.802 260.389 248.532 260.306L270.432 257.342C271.95 257.169 273.48 257.539 274.752 258.386C276.024 259.233 276.955 260.503 277.383 261.971L279.542 270.059C279.744 270.753 279.793 271.483 279.684 272.198C279.574 272.912 279.311 273.594 278.91 274.196C278.51 274.798 277.983 275.305 277.367 275.682C276.75 276.058 276.059 276.296 275.341 276.377L253.476 279.447C253.185 279.509 252.888 279.545 252.591 279.553ZM271.164 258.511C270.952 258.493 270.739 258.493 270.527 258.511L248.626 261.475C248.065 261.54 247.524 261.724 247.039 262.015C246.555 262.306 246.138 262.698 245.818 263.163C245.513 263.629 245.314 264.155 245.232 264.706C245.151 265.256 245.189 265.818 245.346 266.351L247.517 274.511C247.873 275.716 248.645 276.756 249.695 277.446C250.745 278.135 252.005 278.43 253.252 278.278L275.117 275.208L275.2 275.786L275.117 275.208C275.669 275.144 276.201 274.961 276.675 274.671C277.15 274.382 277.556 273.993 277.866 273.531C278.171 273.07 278.371 272.548 278.452 272.001C278.534 271.454 278.495 270.896 278.338 270.366L276.191 262.278C275.87 261.188 275.209 260.229 274.305 259.543C273.4 258.856 272.299 258.478 271.164 258.463V258.511Z" fill="#E6E7E8"/>
<path d="M186.523 68.7125C186.366 68.7125 186.216 68.6503 186.105 68.5396C185.995 68.4289 185.933 68.2787 185.933 68.1221C185.933 67.9655 185.995 67.8153 186.105 67.7046C186.216 67.5939 186.366 67.5317 186.523 67.5317L219.952 64.7449C220.029 64.7367 220.107 64.7441 220.181 64.7666C220.255 64.7891 220.323 64.8262 220.383 64.8758C220.442 64.9253 220.491 64.9863 220.527 65.0551C220.562 65.1239 220.583 65.1991 220.589 65.2762C220.596 65.3538 220.587 65.4319 220.563 65.506C220.539 65.5802 220.501 65.6488 220.45 65.7081C220.4 65.7674 220.338 65.816 220.269 65.8514C220.2 65.8867 220.124 65.908 220.046 65.9139L186.617 68.7125H186.523Z" fill="#E6E7E8"/>
<path d="M224.589 65.5244C224.433 65.5244 224.283 65.4622 224.172 65.3515C224.061 65.2408 223.999 65.0906 223.999 64.934C223.999 64.7774 224.061 64.6272 224.172 64.5165C224.283 64.4058 224.433 64.3436 224.589 64.3436L229.026 63.9657C229.182 63.9532 229.337 64.0034 229.457 64.1052C229.576 64.2071 229.651 64.3523 229.663 64.5089C229.676 64.6655 229.625 64.8206 229.524 64.9402C229.422 65.0598 229.277 65.134 229.12 65.1465L224.695 65.5126L224.589 65.5244Z" fill="#E6E7E8"/>
<path d="M193.768 165.011C193.646 165.01 193.526 164.973 193.425 164.905C193.3 164.814 193.215 164.679 193.186 164.528C193.158 164.376 193.188 164.219 193.272 164.09L246.219 86.7324C246.306 86.6024 246.442 86.5126 246.596 86.4827C246.749 86.4528 246.909 86.4853 247.039 86.5729C247.169 86.6606 247.258 86.7964 247.288 86.9503C247.318 87.1042 247.286 87.2637 247.198 87.3936L194.251 164.751C194.196 164.829 194.124 164.893 194.04 164.938C193.956 164.983 193.863 165.008 193.768 165.011Z" fill="white"/>
<path d="M236.767 230.395C236.645 230.394 236.526 230.357 236.425 230.288C236.361 230.244 236.307 230.187 236.265 230.121C236.223 230.055 236.195 229.981 236.182 229.905C236.169 229.828 236.171 229.749 236.188 229.673C236.206 229.597 236.238 229.525 236.283 229.462L268.143 183.657C268.236 183.537 268.371 183.458 268.52 183.435C268.669 183.412 268.822 183.447 268.946 183.533C269.07 183.62 269.156 183.751 269.187 183.899C269.218 184.047 269.19 184.201 269.111 184.33L237.251 230.147C237.195 230.223 237.122 230.285 237.038 230.328C236.954 230.371 236.861 230.394 236.767 230.395Z" fill="white"/>
<path d="M228.035 186.998C227.917 186.996 227.802 186.959 227.704 186.892C227.64 186.849 227.585 186.794 227.542 186.729C227.5 186.665 227.47 186.593 227.456 186.517C227.442 186.441 227.443 186.363 227.459 186.287C227.475 186.212 227.507 186.14 227.551 186.077L240 167.549C240.087 167.42 240.221 167.33 240.373 167.299C240.526 167.268 240.684 167.298 240.814 167.384C240.944 167.473 241.035 167.609 241.065 167.763C241.096 167.918 241.065 168.079 240.979 168.211L228.53 186.738C228.474 186.818 228.4 186.883 228.314 186.928C228.228 186.973 228.132 186.997 228.035 186.998Z" fill="white"/>
<path d="M187.962 135.088L129.245 139.906C128.195 139.912 127.176 139.553 126.362 138.889C125.548 138.226 124.99 137.299 124.785 136.269L116.136 96.8283C115.992 96.3778 115.952 95.9006 116.018 95.4324C116.084 94.9641 116.256 94.5169 116.519 94.1241C116.782 93.7313 117.13 93.4031 117.538 93.1639C117.946 92.9246 118.402 92.7806 118.873 92.7426L177.437 89.2C178.441 89.2258 179.408 89.5893 180.18 90.2319C180.953 90.8746 181.487 91.759 181.696 92.7426L190.487 130.99C190.971 133.128 189.838 134.934 187.962 135.088Z" fill="white"/>
<path d="M177.625 89.2002C178.594 89.2742 179.514 89.6588 180.247 90.2969C180.98 90.935 181.489 91.7927 181.696 92.7427L190.487 130.99C190.971 133.092 189.838 134.923 187.962 135.076L129.245 139.894H128.974C127.973 139.834 127.02 139.445 126.263 138.787C125.505 138.129 124.986 137.24 124.785 136.257L116.136 96.8166C115.992 96.3661 115.952 95.8889 116.018 95.4207C116.084 94.9525 116.256 94.5053 116.519 94.1125C116.782 93.7197 117.13 93.3914 117.538 93.1522C117.946 92.913 118.402 92.769 118.873 92.7309L177.437 89.1884H177.625V89.2002ZM177.625 88.0075H177.366L118.802 91.5501C118.204 91.5794 117.619 91.7395 117.089 92.0189C116.559 92.2984 116.097 92.6905 115.734 93.1678C115.332 93.725 115.056 94.3635 114.925 95.0386C114.795 95.7137 114.813 96.4092 114.979 97.0764L123.628 136.517C123.887 137.763 124.552 138.887 125.52 139.713C126.488 140.538 127.703 141.017 128.974 141.075H129.34L188.057 136.269C188.623 136.223 189.174 136.057 189.671 135.779C190.168 135.502 190.599 135.122 190.936 134.663C191.324 134.097 191.586 133.454 191.706 132.778C191.826 132.102 191.801 131.408 191.632 130.742L182.9 92.4829C182.64 91.2694 181.989 90.1749 181.047 89.3683C180.104 88.5617 178.923 88.0877 177.684 88.0193L177.625 88.0075Z" fill="#231F20"/>
<path d="M155.595 122.937C155.47 122.939 155.349 122.897 155.252 122.819L116.312 94.4787C116.188 94.3847 116.105 94.2459 116.081 94.0917C116.056 93.9375 116.093 93.7799 116.183 93.6522C116.227 93.5879 116.284 93.5334 116.35 93.4918C116.417 93.4503 116.491 93.4226 116.568 93.4105C116.645 93.3983 116.724 93.402 116.8 93.4212C116.875 93.4404 116.946 93.4748 117.009 93.5223L155.488 121.567L179.537 89.7672C179.632 89.6419 179.773 89.5597 179.929 89.5386C180.085 89.5176 180.243 89.5595 180.369 89.655C180.494 89.7505 180.576 89.8919 180.597 90.048C180.618 90.2041 180.576 90.3622 180.481 90.4875L156.078 122.736C156.018 122.804 155.943 122.858 155.859 122.892C155.776 122.927 155.685 122.942 155.595 122.937Z" fill="#D1D3D4"/>
<path d="M189.98 134.486C189.862 134.483 189.747 134.446 189.649 134.379L161.211 114.966C161.147 114.923 161.092 114.868 161.049 114.804C161.006 114.739 160.977 114.667 160.963 114.591C160.949 114.515 160.95 114.437 160.966 114.362C160.982 114.286 161.014 114.215 161.058 114.151C161.147 114.021 161.283 113.931 161.437 113.9C161.592 113.869 161.752 113.9 161.884 113.986L190.357 133.411C190.46 133.483 190.537 133.585 190.578 133.703C190.618 133.821 190.62 133.949 190.584 134.069C190.547 134.188 190.473 134.293 190.373 134.368C190.273 134.443 190.152 134.484 190.027 134.486H189.98Z" fill="#D1D3D4"/>
<path d="M126.59 139.646C126.454 139.643 126.322 139.598 126.213 139.517C126.094 139.414 126.02 139.268 126.007 139.112C125.993 138.955 126.042 138.799 126.142 138.678L145.848 115.191C145.948 115.07 146.092 114.995 146.248 114.98C146.404 114.966 146.559 115.014 146.68 115.114C146.8 115.215 146.876 115.359 146.89 115.515C146.905 115.671 146.857 115.826 146.756 115.947L127.05 139.434C126.994 139.501 126.924 139.555 126.844 139.592C126.765 139.629 126.678 139.647 126.59 139.646Z" fill="#D1D3D4"/>
<path d="M309.667 81.6545L248.307 85.6694C247.465 85.7168 246.643 85.9476 245.9 86.3458C245.156 86.7439 244.508 87.2998 244.001 87.9745C243.494 88.6492 243.141 89.4265 242.965 90.2522C242.79 91.0778 242.797 91.9318 242.985 92.7545L252.779 129.928C253.172 131.737 254.203 133.344 255.683 134.454C257.163 135.564 258.994 136.104 260.839 135.974L263.765 135.69L264.945 150.073L273.335 134.722L321.526 131.829C322.367 131.765 323.183 131.515 323.916 131.099C324.649 130.682 325.281 130.109 325.767 129.42C326.252 128.73 326.58 127.942 326.726 127.111C326.872 126.281 326.833 125.428 326.612 124.614L317.514 87.4643C317.076 85.7393 316.055 84.2188 314.625 83.1602C313.195 82.1015 311.444 81.5696 309.667 81.6545Z" fill="white"/>
<path d="M265.04 150.64H264.922C264.797 150.617 264.683 150.554 264.598 150.46C264.513 150.366 264.461 150.247 264.45 150.121L263.27 136.34L260.91 136.553C258.919 136.703 256.942 136.126 255.343 134.93C253.744 133.734 252.632 131.999 252.213 130.046L242.431 92.9084C242.223 91.9991 242.217 91.0553 242.412 90.1433C242.608 89.2312 243 88.3731 243.563 87.6292C244.125 86.8853 244.843 86.2736 245.667 85.8372C246.491 85.4007 247.4 85.1501 248.331 85.1029L309.691 81.0881C311.627 80.9804 313.54 81.551 315.101 82.7018C316.663 83.8525 317.774 85.5116 318.246 87.3938L327.344 124.532C327.573 125.448 327.602 126.404 327.429 127.333C327.256 128.263 326.885 129.143 326.341 129.916C325.804 130.651 325.115 131.26 324.321 131.703C323.526 132.145 322.645 132.41 321.739 132.479L273.76 135.324L265.5 150.333C265.453 150.417 265.387 150.489 265.307 150.543C265.227 150.596 265.135 150.629 265.04 150.64ZM263.86 135.077C263.999 135.075 264.134 135.125 264.237 135.218C264.297 135.268 264.347 135.329 264.384 135.398C264.42 135.467 264.443 135.542 264.45 135.62L265.512 148.054L272.958 134.474C273.005 134.386 273.075 134.312 273.16 134.258C273.244 134.204 273.341 134.173 273.441 134.167L321.633 131.286C322.368 131.228 323.083 131.012 323.728 130.653C324.374 130.295 324.935 129.802 325.373 129.208C325.817 128.57 326.119 127.846 326.259 127.082C326.4 126.318 326.375 125.533 326.187 124.779L317.09 87.6418C316.697 86.0262 315.749 84.6003 314.411 83.6137C313.074 82.6271 311.432 82.1427 309.774 82.2453L248.414 86.2602C247.658 86.3032 246.922 86.5104 246.255 86.8674C245.588 87.2244 245.006 87.7226 244.552 88.3274C244.097 88.9321 243.779 89.6289 243.621 90.369C243.462 91.1092 243.467 91.875 243.635 92.6132L253.417 129.751C253.769 131.429 254.718 132.923 256.087 133.954C257.457 134.986 259.153 135.485 260.863 135.36L263.777 135.077H263.86Z" fill="#231F20"/>
<path d="M290.056 126.326C289.112 125.605 288.203 124.873 287.271 124.177L279.448 118.426C277.725 117.151 275.99 115.875 274.385 114.446C272.939 113.211 271.7 111.752 270.716 110.125C270.09 109.037 269.606 107.875 269.276 106.665C268.966 105.616 268.753 104.541 268.639 103.453C268.367 101.731 268.698 99.968 269.575 98.462C270.453 96.956 271.822 95.7991 273.453 95.1868C276.993 93.8642 280.533 94.6082 283.743 97.1942C284.48 97.7961 285.149 98.4772 285.737 99.2253L285.879 99.3788C285.879 99.3079 285.879 99.2371 285.973 99.178C286.735 97.4996 287.996 96.0974 289.584 95.1632C291.037 94.314 292.705 93.9039 294.386 93.9823C296.491 94.0699 298.52 94.7938 300.205 96.0587C301.891 97.3235 303.153 99.0699 303.826 101.067C304.16 102.113 304.362 103.196 304.428 104.291C304.564 105.425 304.564 106.57 304.428 107.704C304.192 109.393 303.579 111.007 302.635 112.427C301.64 113.917 300.51 115.312 299.26 116.596C297.454 118.497 295.614 120.362 293.82 122.275C292.581 123.586 291.377 124.932 290.162 126.267L290.056 126.326Z" fill="#D1D3D4"/>
<path d="M197.461 189.809L195.632 189.938L195.301 176.949C195.301 176.949 190.841 185.534 188.009 190.493L131.369 194.733C128.301 194.957 126.177 197.283 126.649 199.94L134 241.766C134.354 243.219 135.231 244.49 136.464 245.335C137.696 246.181 139.198 246.541 140.679 246.348L209.119 239.605C209.779 239.585 210.426 239.419 211.014 239.119C211.602 238.819 212.116 238.392 212.518 237.869C212.921 237.346 213.203 236.74 213.344 236.095C213.485 235.45 213.481 234.781 213.332 234.138L203.774 193.989C203.357 192.675 202.503 191.544 201.355 190.784C200.206 190.023 198.832 189.679 197.461 189.809Z" fill="white"/>
<path d="M140.042 246.95C138.521 246.99 137.032 246.505 135.826 245.576C134.621 244.647 133.772 243.331 133.422 241.849L126.071 200.023C125.958 199.372 125.982 198.705 126.143 198.064C126.303 197.423 126.596 196.823 127.003 196.303C127.536 195.657 128.197 195.13 128.945 194.754C129.692 194.378 130.51 194.161 131.346 194.119L187.62 189.915C190.416 184.979 194.7 176.736 194.7 176.654C194.759 176.538 194.855 176.446 194.972 176.39C195.09 176.335 195.222 176.319 195.349 176.347C195.477 176.378 195.591 176.45 195.674 176.552C195.758 176.655 195.805 176.782 195.809 176.914L196.128 189.265L197.308 189.183C198.819 189.059 200.328 189.454 201.587 190.301C202.846 191.149 203.779 192.399 204.234 193.847L213.78 233.996C213.955 234.677 213.979 235.388 213.851 236.08C213.722 236.771 213.445 237.426 213.037 237.999C212.567 238.628 211.968 239.15 211.28 239.529C210.592 239.907 209.831 240.135 209.049 240.195L140.609 246.938C140.42 246.95 140.231 246.954 140.042 246.95ZM194.771 179.181C193.272 182.027 190.487 187.281 188.528 190.73C188.481 190.815 188.413 190.886 188.33 190.938C188.248 190.989 188.153 191.019 188.056 191.025L131.416 195.264C130.737 195.288 130.071 195.455 129.461 195.754C128.851 196.053 128.311 196.478 127.876 197C127.569 197.386 127.348 197.833 127.228 198.312C127.108 198.791 127.092 199.289 127.18 199.775L134.52 241.601C134.845 242.91 135.641 244.053 136.756 244.811C137.87 245.569 139.225 245.889 140.561 245.71L209.001 238.955C209.616 238.915 210.215 238.743 210.757 238.449C211.299 238.156 211.77 237.748 212.14 237.255C212.446 236.817 212.654 236.318 212.749 235.792C212.845 235.267 212.826 234.726 212.695 234.208L203.149 194.06C202.767 192.878 201.995 191.862 200.959 191.179C199.922 190.497 198.684 190.188 197.449 190.304L195.632 190.434C195.553 190.44 195.473 190.429 195.398 190.402C195.323 190.376 195.254 190.335 195.195 190.281C195.132 190.23 195.081 190.165 195.047 190.091C195.012 190.018 194.994 189.937 194.995 189.856L194.771 179.181Z" fill="#231F20"/>
<path d="M160.409 234.374L152.373 235.13L148.326 213.969L156.267 213.296L160.409 234.374Z" fill="#D1D3D4"/>
<path d="M152.373 235.307C152.33 235.308 152.288 235.295 152.254 235.269C152.22 235.243 152.195 235.206 152.184 235.165L148.149 213.992C148.146 213.967 148.147 213.942 148.154 213.918C148.16 213.894 148.172 213.871 148.187 213.851C148.202 213.832 148.222 213.815 148.243 213.803C148.265 213.791 148.289 213.783 148.314 213.78L156.244 213.107C156.29 213.103 156.336 213.117 156.373 213.145C156.41 213.173 156.436 213.214 156.444 213.26L160.598 234.338C160.601 234.363 160.599 234.388 160.593 234.413C160.586 234.437 160.575 234.459 160.56 234.479C160.544 234.499 160.525 234.516 160.503 234.528C160.482 234.54 160.458 234.548 160.433 234.551L152.385 235.307H152.373ZM148.55 214.134L152.515 234.929L160.197 234.208L156.114 213.496L148.55 214.134Z" fill="#D1D3D4"/>
<path d="M159.595 214.76C159.595 214.76 166.097 212.576 168.126 208.643C170.156 204.711 169.306 198.205 170.333 197.768C171.216 197.528 172.152 197.571 173.009 197.891C173.866 198.211 174.601 198.791 175.112 199.551C176.528 201.535 177.083 207.557 175.549 211.678C175.549 211.678 184.163 210.863 188.045 210.497C191.927 210.131 193.39 213.461 191.443 215.02C191.443 215.02 194.594 215.126 194.086 217.972C193.579 220.818 192.458 221.019 190.747 221.172C191.329 221.251 191.86 221.544 192.237 221.994C192.615 222.443 192.811 223.018 192.788 223.605C192.6 225.718 190.015 226.486 190.015 226.486C190.015 226.486 192.729 227.442 191.443 229.899C190.157 232.355 185.944 232.544 176.021 232.863C166.097 233.181 162.899 231.257 162.899 231.257L159.595 214.76Z" fill="#D1D3D4"/>
<path d="M173.79 233.122C165.601 233.122 162.911 231.528 162.793 231.457C162.752 231.429 162.723 231.387 162.71 231.339L159.418 214.807C159.409 214.764 159.417 214.718 159.438 214.679C159.46 214.641 159.494 214.611 159.536 214.595C159.607 214.595 165.99 212.386 167.961 208.572C169.141 206.364 169.33 203.247 169.507 200.968C169.684 198.689 169.766 197.827 170.262 197.614C171.183 197.351 172.165 197.387 173.064 197.718C173.963 198.049 174.734 198.658 175.265 199.456C176.717 201.487 177.236 207.356 175.82 211.477C177.366 211.324 184.587 210.651 188.033 210.296C190.487 210.107 191.868 211.288 192.304 212.375C192.478 212.79 192.529 213.247 192.451 213.69C192.374 214.134 192.172 214.546 191.868 214.878C192.62 214.968 193.314 215.324 193.827 215.882C194.053 216.179 194.21 216.523 194.286 216.889C194.361 217.255 194.354 217.633 194.263 217.996C193.827 220.452 192.953 221.03 191.608 221.243C192.063 221.433 192.443 221.766 192.69 222.193C192.938 222.619 193.038 223.115 192.977 223.605C192.862 224.264 192.571 224.88 192.135 225.387C191.699 225.894 191.134 226.274 190.499 226.486C191.09 226.784 191.56 227.276 191.832 227.879C191.953 228.222 191.995 228.588 191.956 228.95C191.918 229.311 191.799 229.66 191.608 229.969C190.239 232.579 185.791 232.721 176.032 233.04L173.79 233.122ZM163.064 231.138C163.571 231.398 166.982 232.98 176.044 232.685C185.649 232.366 190.039 232.225 191.301 229.816C191.464 229.55 191.568 229.252 191.604 228.942C191.641 228.632 191.61 228.318 191.514 228.021C191.193 227.39 190.645 226.904 189.98 226.663C189.944 226.65 189.913 226.625 189.891 226.594C189.869 226.562 189.857 226.524 189.857 226.486C189.857 226.447 189.869 226.41 189.891 226.378C189.913 226.346 189.944 226.322 189.98 226.309C189.98 226.309 192.434 225.553 192.611 223.581C192.648 223.038 192.473 222.503 192.123 222.086C191.773 221.67 191.276 221.406 190.735 221.349C190.69 221.343 190.649 221.32 190.621 221.285C190.592 221.25 190.578 221.205 190.582 221.16C190.582 221.115 190.599 221.072 190.629 221.039C190.66 221.006 190.702 220.986 190.747 220.983C192.352 220.841 193.414 220.747 193.909 217.948C193.99 217.638 193.999 217.314 193.938 216.999C193.877 216.684 193.746 216.387 193.555 216.13C192.991 215.57 192.237 215.241 191.443 215.209C191.405 215.208 191.369 215.194 191.339 215.171C191.309 215.148 191.288 215.115 191.278 215.079C191.259 215.049 191.249 215.014 191.249 214.978C191.249 214.943 191.259 214.908 191.278 214.878C191.631 214.611 191.885 214.234 192 213.806C192.116 213.379 192.086 212.925 191.915 212.516C191.526 211.548 190.263 210.462 188.009 210.674C184.174 210.993 175.607 211.855 175.525 211.855C175.493 211.86 175.461 211.857 175.432 211.844C175.402 211.832 175.377 211.811 175.36 211.784C175.345 211.757 175.338 211.727 175.338 211.696C175.338 211.665 175.345 211.634 175.36 211.607C176.823 207.651 176.351 201.629 174.947 199.657C174.458 198.934 173.758 198.381 172.942 198.072C172.127 197.763 171.236 197.715 170.392 197.933C170.073 198.075 169.955 199.551 169.849 200.979C169.684 203.341 169.436 206.459 168.268 208.726C166.368 212.386 160.81 214.524 159.784 214.89L163.064 231.138Z" fill="#D1D3D4"/>
<path d="M328.748 227.289L270.834 232.898C268.693 233.015 266.578 232.381 264.855 231.105C263.131 229.829 261.907 227.99 261.394 225.907L252.921 191.367C251.859 187.034 254.373 183.101 258.538 182.653L316.688 176.323C318.876 176.166 321.048 176.792 322.816 178.09C324.584 179.388 325.834 181.273 326.341 183.409L334.601 218.61C334.886 219.569 334.955 220.58 334.803 221.57C334.651 222.559 334.282 223.503 333.723 224.333C333.163 225.162 332.427 225.858 331.567 226.369C330.706 226.88 329.744 227.194 328.748 227.289Z" fill="white"/>
<path d="M270.102 233.5C267.96 233.421 265.901 232.65 264.234 231.303C262.566 229.955 261.379 228.104 260.851 226.025L252.39 191.474C252.096 190.381 252.039 189.239 252.222 188.123C252.405 187.007 252.824 185.943 253.452 185.002C254.031 184.171 254.783 183.475 255.657 182.963C256.531 182.451 257.506 182.136 258.514 182.039L316.653 175.709C318.988 175.542 321.307 176.212 323.194 177.599C325.081 178.985 326.414 180.999 326.954 183.278L335.214 218.48C335.491 219.568 335.529 220.704 335.325 221.809C335.121 222.914 334.681 223.961 334.034 224.88C333.423 225.726 332.637 226.43 331.728 226.944C330.82 227.458 329.811 227.769 328.771 227.855L270.892 233.5C270.633 233.5 270.361 233.5 270.102 233.5ZM317.609 176.819C317.334 176.802 317.058 176.802 316.783 176.819L258.644 183.137C257.804 183.222 256.993 183.486 256.264 183.912C255.535 184.338 254.906 184.915 254.42 185.605C253.883 186.408 253.526 187.317 253.374 188.271C253.221 189.225 253.276 190.2 253.535 191.131L261.96 225.765C262.44 227.703 263.576 229.414 265.174 230.609C266.772 231.804 268.734 232.408 270.727 232.319L328.642 226.71C329.515 226.637 330.362 226.377 331.125 225.947C331.889 225.517 332.551 224.927 333.067 224.218C333.606 223.433 333.97 222.539 334.133 221.6C334.296 220.66 334.254 219.697 334.011 218.775L325.751 183.574C325.315 181.713 324.284 180.047 322.814 178.827C321.344 177.608 319.516 176.903 317.609 176.819Z" fill="#231F20"/>
<path d="M310.399 204.297L289.619 220.51C288.132 221.691 285.713 220.605 285.218 218.586L278.586 191.166C278.463 190.73 278.469 190.268 278.601 189.834C278.734 189.401 278.988 189.015 279.334 188.723C279.68 188.43 280.103 188.243 280.552 188.185C281.001 188.126 281.457 188.198 281.866 188.391L309.29 199.574C311.331 200.436 311.956 203.081 310.399 204.297Z" fill="#D1D3D4"/>
<path d="M349.28 176.819C349.176 176.82 349.073 176.792 348.985 176.737C348.865 176.665 348.775 176.554 348.729 176.422C348.684 176.29 348.687 176.147 348.737 176.016L353.882 162.26C347.156 157.241 343.321 150.168 343.321 142.776C343.321 128.157 358.035 116.277 376.125 116.277C394.214 116.277 408.929 128.157 408.929 142.776C408.929 157.394 394.214 169.286 376.125 169.286C370.318 169.311 364.58 168.032 359.333 165.542L349.728 176.619C349.671 176.681 349.602 176.731 349.525 176.766C349.448 176.8 349.364 176.819 349.28 176.819ZM376.125 117.458C358.684 117.458 344.501 128.818 344.501 142.776C344.501 149.92 348.3 156.769 354.932 161.563C355.035 161.64 355.11 161.748 355.148 161.871C355.187 161.994 355.185 162.126 355.144 162.248L350.979 173.371L358.743 164.432C358.828 164.332 358.944 164.263 359.073 164.237C359.201 164.212 359.335 164.23 359.451 164.291C364.642 166.83 370.348 168.135 376.125 168.105C393.553 168.105 407.749 156.745 407.749 142.776C407.749 128.806 393.506 117.505 376.078 117.505L376.125 117.458Z" fill="#D1D3D4"/>
<path d="M107.946 207.521C107.815 207.524 107.686 207.482 107.58 207.403C103.68 204.376 100.001 201.073 96.5711 197.52C96.0991 197.52 95.6271 197.52 95.1551 197.52C77.4551 197.52 63.1181 188.002 63.1181 176.264C63.1181 164.527 77.4905 155.009 95.1551 155.009C112.82 155.009 127.18 164.527 127.18 176.264C127.18 184.955 119.062 192.796 106.92 196.02L108.56 206.813C108.58 206.929 108.563 207.047 108.512 207.153C108.461 207.259 108.379 207.346 108.277 207.403C108.182 207.477 108.066 207.519 107.946 207.521ZM96.7599 196.303C96.8391 196.302 96.9179 196.316 96.9911 196.347C97.0642 196.377 97.1302 196.423 97.1847 196.48C100.292 199.705 103.603 202.726 107.097 205.526L105.681 195.713C105.656 195.568 105.687 195.419 105.768 195.296C105.849 195.173 105.974 195.086 106.117 195.052C118.012 192.1 126 184.566 126 176.312C126 165.247 112.159 156.237 95.1551 156.237C78.1513 156.237 64.2981 165.223 64.2981 176.312C64.2981 187.4 78.1395 196.386 95.1551 196.386H96.7835L96.7599 196.303Z" fill="#D1D3D4"/>
</svg>
