<svg width="474" height="358" viewBox="0 0 474 358" fill="none" xmlns="http://www.w3.org/2000/svg">
<path d="M405.91 53.3169H68.0782V94.7838H405.91V53.3169Z" fill="#F14736"/>
<path d="M405.922 95.3659H68.0782C67.921 95.3659 67.7703 95.3033 67.6592 95.192C67.5481 95.0806 67.4857 94.9296 67.4857 94.7721V53.3171C67.4857 53.1596 67.5481 53.0086 67.6592 52.8972C67.7703 52.7859 67.921 52.7233 68.0782 52.7233H405.922C406.079 52.7233 406.23 52.7859 406.341 52.8972C406.452 53.0086 406.514 53.1596 406.514 53.3171V94.7721C406.514 94.9296 406.452 95.0806 406.341 95.192C406.23 95.3033 406.079 95.3659 405.922 95.3659ZM68.7299 94.1784H405.388V53.9108H68.7299V94.1784Z" fill="#231F20"/>
<path d="M405.91 94.7718H68.0782V304.683H405.91V94.7718Z" fill="white"/>
<path d="M405.922 305.277H68.0782C67.921 305.277 67.7703 305.215 67.6592 305.103C67.5481 304.992 67.4857 304.841 67.4857 304.684V94.772C67.4887 94.6155 67.5521 94.4663 67.6625 94.3556C67.773 94.2449 67.922 94.1813 68.0782 94.1783H405.922C406.078 94.1813 406.227 94.2449 406.337 94.3556C406.448 94.4663 406.511 94.6155 406.514 94.772V304.684C406.514 304.841 406.452 304.992 406.341 305.103C406.23 305.215 406.079 305.277 405.922 305.277ZM68.6707 304.09H405.329V95.3658H68.7299L68.6707 304.09Z" fill="#231F20"/>
<path d="M96.459 77.0668H99.8362C99.9784 77.0668 100.026 77.0668 100.026 77.2568V87.8372H104.529V77.2449C104.529 77.1024 104.529 77.0668 104.707 77.0668H108.06C108.214 77.0668 108.262 77.0668 108.273 76.8886L108.487 75.1668C108.57 74.5849 108.641 73.9793 108.712 73.4331C108.712 73.1956 108.771 72.9581 108.807 72.6968H104.73C104.529 72.6968 104.529 72.6968 104.529 72.4949C104.529 71.5212 104.529 70.5356 104.529 69.55C104.536 69.2846 104.592 69.0229 104.695 68.7781C104.795 68.5415 104.959 68.3374 105.168 68.1885C105.377 68.0397 105.624 67.9519 105.88 67.935C106.099 67.8937 106.321 67.8699 106.543 67.8638H108.783C108.937 67.8638 108.984 67.8638 108.984 67.6738C108.984 66.4863 108.984 65.2988 108.984 64.1113C108.984 63.9807 108.984 63.9094 108.795 63.9094C108.202 63.9094 107.61 63.8144 107.029 63.7907C106.449 63.7669 105.844 63.7907 105.275 63.7907C104.112 63.8012 102.982 64.1748 102.04 64.8594C101.169 65.536 100.548 66.4846 100.275 67.555C100.12 68.132 100.04 68.7268 100.038 69.3244V72.5306C100.038 72.6849 100.038 72.7206 99.8481 72.7206H96.4827C96.2812 72.7206 96.2812 72.7206 96.2812 72.9106V76.8768C96.2812 77.0311 96.3168 77.0668 96.459 77.0668Z" fill="white"/>
<path d="M300.682 67.3766H135.339C131.805 67.3766 128.94 70.2475 128.94 73.789C128.94 77.3305 131.805 80.2014 135.339 80.2014H300.682C304.216 80.2014 307.081 77.3305 307.081 73.789C307.081 70.2475 304.216 67.3766 300.682 67.3766Z" fill="white"/>
<path d="M331.883 81.2942C336.202 81.2942 339.704 77.7852 339.704 73.4568C339.704 69.1283 336.202 65.6194 331.883 65.6194C327.564 65.6194 324.062 69.1283 324.062 73.4568C324.062 77.7852 327.564 81.2942 331.883 81.2942Z" fill="white"/>
<path d="M355.132 81.2942C359.452 81.2942 362.954 77.7852 362.954 73.4568C362.954 69.1283 359.452 65.6194 355.132 65.6194C350.813 65.6194 347.311 69.1283 347.311 73.4568C347.311 77.7852 350.813 81.2942 355.132 81.2942Z" fill="white"/>
<path d="M378.394 81.2942C382.714 81.2942 386.215 77.7852 386.215 73.4568C386.215 69.1283 382.714 65.6194 378.394 65.6194C374.075 65.6194 370.573 69.1283 370.573 73.4568C370.573 77.7852 374.075 81.2942 378.394 81.2942Z" fill="white"/>
<path d="M300.362 165.083H170.77C168.833 165.083 166.975 164.313 165.604 162.941C164.234 161.57 163.462 159.709 163.459 157.768V119.033C163.462 117.09 164.233 115.229 165.604 113.855C166.974 112.482 168.832 111.709 170.77 111.706H300.362C302.3 111.709 304.158 112.482 305.528 113.855C306.899 115.229 307.67 117.09 307.673 119.033V157.768C307.67 159.709 306.898 161.57 305.528 162.941C304.157 164.313 302.299 165.083 300.362 165.083ZM170.77 112.893C169.146 112.896 167.59 113.544 166.442 114.695C165.293 115.846 164.647 117.405 164.644 119.033V157.768C164.647 159.394 165.294 160.953 166.442 162.102C167.591 163.251 169.147 163.896 170.77 163.896H300.362C301.985 163.896 303.541 163.251 304.69 162.102C305.838 160.953 306.485 159.394 306.488 157.768V119.033C306.485 117.405 305.839 115.846 304.69 114.695C303.542 113.544 301.986 112.896 300.362 112.893H170.77Z" fill="#D1D3D4"/>
<path d="M295.728 140.775H176.565C175.936 140.775 175.334 140.525 174.889 140.08C174.445 139.634 174.195 139.03 174.195 138.4C174.195 137.77 174.445 137.166 174.889 136.721C175.334 136.276 175.936 136.025 176.565 136.025H295.728C296.357 136.025 296.96 136.276 297.404 136.721C297.849 137.166 298.098 137.77 298.098 138.4C298.098 139.03 297.849 139.634 297.404 140.08C296.96 140.525 296.357 140.775 295.728 140.775Z" fill="#D1D3D4"/>
<path d="M286.936 153.743H176.565C175.936 153.743 175.334 153.492 174.889 153.047C174.445 152.602 174.195 151.998 174.195 151.368C174.195 150.738 174.445 150.134 174.889 149.688C175.334 149.243 175.936 148.993 176.565 148.993H286.971C287.6 148.993 288.203 149.243 288.647 149.688C289.092 150.134 289.341 150.738 289.341 151.368C289.341 151.998 289.092 152.602 288.647 153.047C288.203 153.492 287.6 153.743 286.971 153.743H286.936Z" fill="#D1D3D4"/>
<path d="M300.362 228.269H170.77C168.832 228.266 166.974 227.493 165.604 226.12C164.233 224.746 163.462 222.885 163.459 220.942V182.207C163.462 180.266 164.234 178.405 165.604 177.034C166.975 175.662 168.833 174.892 170.77 174.892H300.362C302.299 174.892 304.157 175.662 305.528 177.034C306.898 178.405 307.67 180.266 307.673 182.207V220.942C307.67 222.885 306.899 224.746 305.528 226.12C304.158 227.493 302.3 228.266 300.362 228.269ZM170.77 176.02C169.147 176.02 167.591 176.665 166.442 177.814C165.294 178.963 164.647 180.521 164.644 182.147V220.883C164.647 222.51 165.293 224.07 166.442 225.221C167.59 226.371 169.146 227.019 170.77 227.022H300.362C301.986 227.019 303.542 226.371 304.69 225.221C305.839 224.07 306.485 222.51 306.488 220.883V182.207C306.485 180.581 305.838 179.022 304.69 177.873C303.541 176.724 301.985 176.079 300.362 176.079L170.77 176.02Z" fill="#D1D3D4"/>
<path d="M295.728 203.938H176.565C175.936 203.938 175.334 203.687 174.889 203.242C174.445 202.797 174.195 202.193 174.195 201.563C174.195 200.933 174.445 200.329 174.889 199.883C175.334 199.438 175.936 199.188 176.565 199.188H295.728C296.357 199.188 296.96 199.438 297.404 199.883C297.849 200.329 298.098 200.933 298.098 201.563C298.098 202.193 297.849 202.797 297.404 203.242C296.96 203.687 296.357 203.938 295.728 203.938Z" fill="#D1D3D4"/>
<path d="M286.936 216.917H176.565C175.936 216.917 175.334 216.666 174.889 216.221C174.445 215.776 174.195 215.172 174.195 214.542C174.195 213.912 174.445 213.308 174.889 212.862C175.334 212.417 175.936 212.167 176.565 212.167H286.971C287.6 212.167 288.203 212.417 288.647 212.862C289.092 213.308 289.341 213.912 289.341 214.542C289.341 215.172 289.092 215.776 288.647 216.221C288.203 216.666 287.6 216.917 286.971 216.917H286.936Z" fill="#D1D3D4"/>
<path d="M300.362 291.443H170.77C168.833 291.443 166.975 290.673 165.604 289.301C164.234 287.93 163.462 286.069 163.459 284.128V245.392C163.462 243.45 164.233 241.588 165.604 240.215C166.974 238.842 168.832 238.069 170.77 238.066H300.362C302.3 238.069 304.158 238.842 305.528 240.215C306.899 241.588 307.67 243.45 307.673 245.392V284.128C307.67 286.069 306.898 287.93 305.528 289.301C304.157 290.673 302.299 291.443 300.362 291.443ZM170.77 239.253C169.146 239.256 167.59 239.904 166.442 241.055C165.293 242.205 164.647 243.765 164.644 245.392V284.128C164.647 285.754 165.294 287.313 166.442 288.462C167.591 289.61 169.147 290.256 170.77 290.256H300.362C301.985 290.256 303.541 289.61 304.69 288.462C305.838 287.313 306.485 285.754 306.488 284.128V245.392C306.485 243.765 305.839 242.205 304.69 241.055C303.542 239.904 301.986 239.256 300.362 239.253H170.77Z" fill="#D1D3D4"/>
<path d="M295.728 267.136H176.565C175.936 267.136 175.334 266.886 174.889 266.44C174.445 265.995 174.195 265.391 174.195 264.761C174.195 264.131 174.445 263.527 174.889 263.081C175.334 262.636 175.936 262.386 176.565 262.386H295.728C296.357 262.386 296.96 262.636 297.404 263.081C297.849 263.527 298.098 264.131 298.098 264.761C298.098 265.391 297.849 265.995 297.404 266.44C296.96 266.886 296.357 267.136 295.728 267.136Z" fill="#D1D3D4"/>
<path d="M286.936 280.103H176.565C175.936 280.103 175.334 279.852 174.889 279.407C174.445 278.962 174.195 278.358 174.195 277.728C174.195 277.098 174.445 276.494 174.889 276.048C175.334 275.603 175.936 275.353 176.565 275.353H286.971C287.6 275.353 288.203 275.603 288.647 276.048C289.092 276.494 289.341 277.098 289.341 277.728C289.341 278.358 289.092 278.962 288.647 279.407C288.203 279.852 287.6 280.103 286.971 280.103H286.936Z" fill="#D1D3D4"/>
<path d="M91.3279 211.466C90.1865 211.466 89.0708 211.127 88.1217 210.491C87.1727 209.856 86.433 208.953 85.9962 207.896C85.5594 206.839 85.4452 205.677 85.6678 204.555C85.8905 203.433 86.4401 202.403 87.2472 201.594C88.0543 200.785 89.0826 200.234 90.202 200.011C91.3215 199.788 92.4818 199.902 93.5364 200.34C94.5909 200.778 95.4922 201.519 96.1263 202.47C96.7604 203.421 97.0989 204.539 97.0989 205.683C97.0989 207.217 96.4908 208.688 95.4086 209.772C94.3263 210.857 92.8585 211.466 91.3279 211.466ZM91.3279 201.087C90.4209 201.087 89.5342 201.357 88.7801 201.862C88.0259 202.367 87.4381 203.085 87.091 203.924C86.7439 204.764 86.6531 205.688 86.8301 206.58C87.007 207.471 87.4438 208.29 88.0851 208.933C88.7265 209.575 89.5436 210.013 90.4332 210.19C91.3228 210.368 92.2449 210.277 93.0829 209.929C93.9208 209.581 94.6371 208.992 95.141 208.236C95.6449 207.48 95.9139 206.592 95.9139 205.683C95.9139 204.464 95.4307 203.295 94.5707 202.433C93.7106 201.572 92.5442 201.087 91.3279 201.087Z" fill="#D1D3D4"/>
<path d="M145.482 208.058H103.794C103.165 208.058 102.563 207.808 102.118 207.363C101.674 206.917 101.424 206.313 101.424 205.683C101.424 205.053 101.674 204.449 102.118 204.004C102.563 203.558 103.165 203.308 103.794 203.308H145.482C146.111 203.308 146.714 203.558 147.158 204.004C147.602 204.449 147.852 205.053 147.852 205.683C147.852 206.313 147.602 206.917 147.158 207.363C146.714 207.808 146.111 208.058 145.482 208.058Z" fill="#D1D3D4"/>
<path d="M91.3278 231.57C90.1836 231.573 89.0644 231.235 88.1118 230.599C87.1593 229.964 86.4162 229.06 85.9767 228.001C85.5372 226.943 85.421 225.777 85.6428 224.652C85.8646 223.527 86.4144 222.494 87.2227 221.682C88.031 220.87 89.0613 220.317 90.1834 220.093C91.3055 219.868 92.4688 219.982 93.5262 220.42C94.5835 220.859 95.4874 221.601 96.1233 222.555C96.7593 223.508 97.0987 224.629 97.0987 225.775C97.0988 227.31 96.4911 228.782 95.4092 229.869C94.3273 230.955 92.8594 231.567 91.3278 231.57ZM91.3278 221.18C90.4174 221.178 89.5269 221.446 88.7689 221.951C88.011 222.457 87.4199 223.176 87.0704 224.019C86.7209 224.861 86.6289 225.788 86.8059 226.683C86.983 227.578 87.4211 228.4 88.0648 229.045C88.7085 229.69 89.5289 230.129 90.4219 230.307C91.3149 230.484 92.2403 230.392 93.0809 230.042C93.9215 229.692 94.6395 229.099 95.1438 228.34C95.6481 227.58 95.9161 226.688 95.9137 225.775C95.9137 224.557 95.4306 223.388 94.5706 222.526C93.7105 221.664 92.5441 221.18 91.3278 221.18Z" fill="#D1D3D4"/>
<path d="M145.482 228.15H103.794C103.165 228.15 102.563 227.9 102.118 227.455C101.674 227.009 101.424 226.405 101.424 225.775C101.424 225.145 101.674 224.541 102.118 224.096C102.563 223.651 103.165 223.4 103.794 223.4H145.482C146.111 223.4 146.714 223.651 147.158 224.096C147.602 224.541 147.852 225.145 147.852 225.775C147.852 226.405 147.602 227.009 147.158 227.455C146.714 227.9 146.111 228.15 145.482 228.15Z" fill="#D1D3D4"/>
<path d="M91.3279 251.662C90.1865 251.662 89.0708 251.323 88.1217 250.687C87.1727 250.052 86.433 249.149 85.9962 248.092C85.5594 247.035 85.4452 245.873 85.6678 244.751C85.8905 243.629 86.4401 242.599 87.2472 241.79C88.0543 240.981 89.0826 240.43 90.202 240.207C91.3215 239.984 92.4818 240.098 93.5364 240.536C94.5909 240.974 95.4922 241.715 96.1263 242.666C96.7604 243.617 97.0989 244.735 97.0989 245.879C97.0957 247.412 96.4867 248.881 95.4051 249.965C94.3235 251.049 92.8575 251.659 91.3279 251.662ZM91.3279 241.283C90.4209 241.283 89.5342 241.553 88.7801 242.058C88.0259 242.563 87.4381 243.281 87.091 244.12C86.7439 244.96 86.6531 245.884 86.8301 246.776C87.007 247.667 87.4438 248.486 88.0851 249.129C88.7265 249.771 89.5436 250.209 90.4332 250.386C91.3228 250.564 92.2449 250.473 93.0829 250.125C93.9208 249.777 94.6371 249.188 95.141 248.432C95.6449 247.676 95.9139 246.788 95.9139 245.879C95.9139 244.66 95.4307 243.491 94.5707 242.629C93.7106 241.768 92.5442 241.283 91.3279 241.283Z" fill="#D1D3D4"/>
<path d="M145.482 248.254H103.794C103.165 248.254 102.563 248.004 102.118 247.559C101.674 247.113 101.424 246.509 101.424 245.879C101.424 245.249 101.674 244.645 102.118 244.2C102.563 243.755 103.165 243.504 103.794 243.504H145.482C146.111 243.504 146.714 243.755 147.158 244.2C147.602 244.645 147.852 245.249 147.852 245.879C147.852 246.509 147.602 247.113 147.158 247.559C146.714 248.004 146.111 248.254 145.482 248.254Z" fill="#D1D3D4"/>
<path d="M380.397 112.299H327.913C322.226 112.299 317.615 116.919 317.615 122.619V171.65C317.615 177.349 322.226 181.969 327.913 181.969H380.397C386.084 181.969 390.694 177.349 390.694 171.65V122.619C390.694 116.919 386.084 112.299 380.397 112.299Z" fill="#F14736"/>
<path d="M380.397 195.376H327.913C322.226 195.376 317.615 199.996 317.615 205.695V254.726C317.615 260.426 322.226 265.046 327.913 265.046H380.397C386.084 265.046 390.694 260.426 390.694 254.726V205.695C390.694 199.996 386.084 195.376 380.397 195.376Z" fill="white"/>
<path d="M380.385 265.687H327.889C325.004 265.684 322.238 264.535 320.196 262.491C318.155 260.448 317.005 257.677 316.999 254.786V205.743C317.002 202.849 318.151 200.076 320.192 198.03C322.234 195.984 325.002 194.833 327.889 194.83H380.385C383.271 194.833 386.038 195.984 388.078 198.03C390.117 200.077 391.263 202.851 391.263 205.743V254.786C391.26 257.676 390.113 260.447 388.074 262.491C386.034 264.534 383.269 265.684 380.385 265.687ZM327.889 196.017C325.316 196.02 322.85 197.046 321.03 198.869C319.211 200.693 318.187 203.164 318.184 205.743V254.786C318.19 257.362 319.215 259.831 321.034 261.652C322.853 263.472 325.318 264.496 327.889 264.5H380.385C382.955 264.496 385.418 263.472 387.236 261.651C389.053 259.83 390.075 257.361 390.078 254.786V205.743C390.078 203.166 389.057 200.694 387.24 198.87C385.422 197.047 382.957 196.02 380.385 196.017H327.889Z" fill="#231F20"/>
<path d="M331.136 136.417H338.246L346.02 157.863H338.709L337.666 154.717H331.314L330.319 157.863H323.209L331.136 136.417ZM334.608 143.899L332.985 149.195H336.232L334.608 143.899Z" fill="white"/>
<path d="M347.478 157.863V136.417H354.931C356.458 136.41 357.981 136.578 359.47 136.916C360.844 137.223 362.14 137.813 363.274 138.649C364.404 139.504 365.311 140.62 365.916 141.903C367.196 145.109 367.196 148.684 365.916 151.89C365.334 153.194 364.467 154.35 363.38 155.274C362.309 156.159 361.072 156.821 359.742 157.222C358.353 157.651 356.907 157.867 355.453 157.863H347.478ZM353.948 142.532V151.688H355.192C356.498 151.776 357.792 151.383 358.83 150.584C359.285 150.117 359.634 149.556 359.853 148.942C360.072 148.327 360.156 147.671 360.098 147.021C360.132 146.421 360.037 145.821 359.818 145.261C359.599 144.702 359.262 144.196 358.83 143.779C357.894 142.963 356.681 142.538 355.441 142.592L353.948 142.532Z" fill="white"/>
<path d="M376.285 158.469C375.49 158.465 374.697 158.389 373.915 158.243C373.146 158.09 372.392 157.867 371.663 157.578C370.953 157.296 370.267 156.954 369.613 156.557C368.992 156.181 368.412 155.739 367.883 155.239L371.983 150.489C372.515 151.084 373.149 151.579 373.856 151.95C374.581 152.354 375.396 152.571 376.226 152.579C376.579 152.582 376.93 152.514 377.257 152.377C377.405 152.307 377.529 152.194 377.612 152.052C377.694 151.91 377.732 151.746 377.719 151.582C377.726 151.399 377.671 151.219 377.565 151.071C377.418 150.885 377.232 150.735 377.02 150.632C376.67 150.437 376.305 150.27 375.929 150.133C375.467 149.943 374.887 149.729 374.199 149.492C373.528 149.249 372.875 148.959 372.244 148.625C371.638 148.314 371.083 147.914 370.597 147.437C370.091 146.939 369.688 146.346 369.412 145.692C369.114 144.912 368.973 144.08 368.997 143.245C368.959 142.067 369.22 140.899 369.756 139.849C370.237 138.954 370.903 138.173 371.711 137.557C372.534 136.947 373.468 136.504 374.46 136.251C375.425 135.985 376.421 135.849 377.422 135.847C378.805 135.86 380.173 136.138 381.451 136.667C382.785 137.208 383.995 138.016 385.006 139.042L380.835 143.614C380.419 143.008 379.856 142.518 379.2 142.189C378.649 141.905 378.042 141.747 377.422 141.725C377.015 141.708 376.61 141.785 376.237 141.951C376.097 142.013 375.978 142.117 375.898 142.249C375.817 142.38 375.779 142.533 375.787 142.687C375.784 142.84 375.826 142.991 375.908 143.12C375.991 143.249 376.109 143.35 376.249 143.412C376.74 143.649 377.247 143.851 377.766 144.017C378.477 144.267 379.236 144.552 380.018 144.872C380.804 145.186 381.542 145.609 382.21 146.131C382.879 146.644 383.439 147.286 383.857 148.019C384.32 148.874 384.545 149.838 384.509 150.81C384.537 151.975 384.289 153.131 383.786 154.182C383.34 155.103 382.696 155.914 381.902 156.557C381.121 157.199 380.224 157.682 379.259 157.982C378.3 158.3 377.296 158.465 376.285 158.469Z" fill="white"/>
<path d="M331.136 219.493H338.246L346.02 240.927H338.708L337.725 237.781H331.373L330.378 240.927H323.268L331.136 219.493ZM334.608 226.974L332.985 232.271H336.232L334.608 226.974Z" fill="#231F20"/>
<path d="M347.478 240.927V219.493H354.931C356.458 219.487 357.981 219.654 359.47 219.992C360.842 220.3 362.136 220.886 363.274 221.714C364.405 222.573 365.311 223.693 365.916 224.98C367.196 228.185 367.196 231.761 365.916 234.966C365.334 236.267 364.467 237.419 363.38 238.339C362.309 239.227 361.073 239.893 359.742 240.298C358.351 240.718 356.906 240.93 355.453 240.927H347.478ZM353.948 225.609V234.729H355.192C356.498 234.816 357.792 234.424 358.83 233.624C359.285 233.157 359.634 232.597 359.853 231.982C360.072 231.367 360.156 230.712 360.098 230.062C360.135 229.462 360.04 228.861 359.821 228.301C359.602 227.741 359.264 227.235 358.83 226.82C357.894 226.004 356.681 225.579 355.441 225.633L353.948 225.609Z" fill="#231F20"/>
<path d="M376.285 241.533C375.489 241.535 374.696 241.459 373.915 241.307C373.143 241.165 372.389 240.942 371.663 240.642C370.951 240.364 370.265 240.023 369.613 239.621C368.995 239.245 368.415 238.807 367.883 238.315L371.983 233.565C372.515 234.16 373.149 234.655 373.856 235.026C374.583 235.425 375.396 235.641 376.226 235.655C376.581 235.66 376.933 235.587 377.257 235.441C377.405 235.375 377.53 235.264 377.613 235.123C377.696 234.983 377.733 234.82 377.719 234.657C377.726 234.471 377.671 234.288 377.565 234.135C377.415 233.952 377.23 233.803 377.02 233.696C376.665 233.511 376.301 233.344 375.929 233.197C375.467 233.019 374.887 232.805 374.199 232.567C373.528 232.325 372.875 232.035 372.244 231.701C371.639 231.39 371.084 230.989 370.597 230.513C370.091 230.015 369.688 229.422 369.412 228.768C369.121 228.01 368.98 227.204 368.997 226.393C368.952 225.294 369.175 224.202 369.649 223.211C370.122 222.219 370.83 221.359 371.711 220.704C372.521 220.105 373.438 219.665 374.413 219.41C375.379 219.153 376.375 219.021 377.375 219.018C378.758 219.031 380.126 219.309 381.404 219.838C382.738 220.379 383.948 221.187 384.959 222.213L380.788 226.784C380.391 226.167 379.845 225.661 379.2 225.312C378.651 225.02 378.043 224.857 377.422 224.837C377.016 224.826 376.612 224.903 376.237 225.063C376.1 225.13 375.984 225.235 375.903 225.365C375.822 225.495 375.779 225.645 375.779 225.799C375.779 225.952 375.822 226.103 375.903 226.233C375.984 226.363 376.1 226.468 376.237 226.535C376.728 226.772 377.235 226.975 377.754 227.141C378.465 227.378 379.224 227.663 380.006 227.984C380.788 228.306 381.525 228.729 382.198 229.242C382.865 229.762 383.425 230.408 383.845 231.142C384.307 231.993 384.532 232.953 384.497 233.921C384.526 235.091 384.279 236.251 383.774 237.306C383.322 238.222 382.679 239.032 381.89 239.68C381.106 240.318 380.21 240.801 379.247 241.105C378.287 241.397 377.288 241.541 376.285 241.533Z" fill="#231F20"/>
<path d="M140.624 186.992H93.0223C91.2887 186.995 89.5991 186.445 88.1976 185.423C86.7961 184.401 85.7551 182.958 85.2249 181.304C84.954 180.489 84.8179 179.634 84.8221 178.775V119.923C84.8221 117.744 85.686 115.654 87.2238 114.113C88.7617 112.572 90.8474 111.706 93.0223 111.706H140.624C141.701 111.706 142.767 111.918 143.762 112.331C144.757 112.744 145.661 113.35 146.422 114.113C147.184 114.876 147.788 115.782 148.2 116.779C148.612 117.776 148.824 118.844 148.824 119.923V178.775C148.821 180.953 147.956 183.042 146.419 184.582C144.881 186.122 142.798 186.989 140.624 186.992ZM93.0223 112.893C91.1627 112.896 89.3801 113.638 88.0652 114.956C86.7503 116.273 86.0102 118.06 86.0071 119.923V178.775C86.0065 179.509 86.1225 180.239 86.3507 180.936C86.8034 182.352 87.6937 183.587 88.8931 184.462C90.0925 185.337 91.5386 185.808 93.0223 185.805H140.624C142.483 185.802 144.266 185.06 145.581 183.742C146.896 182.425 147.636 180.638 147.639 178.775V119.923C147.636 118.06 146.896 116.273 145.581 114.956C144.266 113.638 142.483 112.896 140.624 112.893H93.0223Z" fill="#D1D3D4"/>
<path d="M148.232 176.744V178.775C148.232 180.796 147.43 182.736 146.003 184.165C144.577 185.595 142.642 186.398 140.624 186.398H93.0225C91.413 186.398 89.845 185.887 88.544 184.937C87.243 183.988 86.276 182.649 85.7821 181.114C88.0455 174.713 93.9468 165.938 109.34 163.563C112.175 163.131 115.04 162.92 117.907 162.934C120.331 162.928 122.753 163.071 125.16 163.361C138.42 164.952 144.985 171.08 148.232 176.744Z" fill="#F14736"/>
<path d="M131.096 142.747C131.096 142.747 131.689 126.359 131.096 125.172C130.504 123.984 101.471 118.249 101.779 118.997C102.088 119.745 103.095 122.001 103.095 122.001L99.2435 123.046L103.095 125.017L99.2554 126.751L104.386 129.209L104.754 143.186L131.096 142.747Z" fill="white"/>
<path d="M104.754 143.851C104.595 143.851 104.441 143.789 104.326 143.678C104.211 143.568 104.144 143.417 104.138 143.257L103.782 129.648L99.0422 127.357C98.9384 127.305 98.8511 127.226 98.7904 127.127C98.7296 127.028 98.6978 126.915 98.6986 126.799C98.6997 126.683 98.7337 126.57 98.7967 126.473C98.8597 126.377 98.949 126.3 99.0541 126.252L101.803 124.982L99.0067 123.533C98.8997 123.472 98.8126 123.381 98.7559 123.271C98.6991 123.162 98.6751 123.038 98.6867 122.915C98.6997 122.793 98.7498 122.677 98.8303 122.584C98.9108 122.49 99.0178 122.424 99.137 122.393L102.289 121.538C101.957 120.825 101.46 119.721 101.27 119.163C101.212 119.008 101.214 118.837 101.275 118.683C101.337 118.529 101.453 118.404 101.602 118.332C102.526 117.916 113.452 120.113 116.77 120.802C131.156 123.747 131.511 124.483 131.689 124.839C132.305 126.027 131.89 138.828 131.76 142.651C131.751 142.808 131.684 142.956 131.573 143.066C131.461 143.175 131.312 143.239 131.156 143.245L104.813 143.732L104.754 143.851ZM100.725 126.81L104.671 128.699C104.773 128.749 104.859 128.827 104.92 128.923C104.98 129.019 105.013 129.131 105.015 129.245L105.37 142.616L130.528 142.141C130.788 134.802 130.895 126.775 130.599 125.516C128.726 124.483 107.337 119.959 102.716 119.579C103.119 120.493 103.664 121.692 103.676 121.716C103.71 121.797 103.728 121.884 103.728 121.971C103.728 122.059 103.71 122.146 103.676 122.227C103.636 122.308 103.58 122.38 103.51 122.437C103.441 122.494 103.36 122.536 103.273 122.559L100.903 123.189L103.415 124.495C103.517 124.546 103.603 124.625 103.663 124.722C103.723 124.82 103.755 124.932 103.755 125.047C103.755 125.162 103.723 125.274 103.663 125.372C103.603 125.469 103.517 125.548 103.415 125.599L100.725 126.81Z" fill="#231F20"/>
<path d="M126.665 143.376C127.376 138.911 134.758 137.818 134.391 143.067C134.339 144.895 133.642 146.645 132.424 148.007C131.808 148.673 131.008 149.142 130.127 149.353C129.245 149.564 128.321 149.509 127.47 149.194" fill="white"/>
<path d="M129.011 150.097C128.395 150.101 127.786 149.976 127.221 149.729C127.075 149.661 126.961 149.539 126.903 149.388C126.845 149.237 126.849 149.069 126.913 148.921C126.981 148.774 127.103 148.66 127.253 148.602C127.404 148.544 127.571 148.548 127.719 148.612C128.453 148.878 129.249 148.922 130.007 148.738C130.766 148.554 131.453 148.151 131.985 147.579C133.103 146.324 133.741 144.713 133.786 143.031C133.853 142.708 133.851 142.374 133.781 142.051C133.711 141.728 133.575 141.423 133.381 141.156C133.187 140.889 132.939 140.665 132.654 140.5C132.369 140.334 132.052 140.229 131.724 140.193C130.71 140.095 129.694 140.375 128.872 140.98C128.051 141.584 127.48 142.471 127.269 143.471C127.24 143.629 127.151 143.771 127.021 143.866C126.891 143.961 126.729 144.002 126.57 143.981C126.489 143.97 126.411 143.942 126.341 143.9C126.271 143.857 126.21 143.801 126.163 143.734C126.115 143.668 126.081 143.592 126.064 143.512C126.046 143.432 126.045 143.349 126.06 143.269C126.314 141.956 127.05 140.785 128.123 139.989C129.196 139.194 130.527 138.83 131.855 138.97C132.34 139.019 132.81 139.167 133.236 139.405C133.662 139.643 134.034 139.967 134.33 140.356C134.626 140.744 134.838 141.19 134.955 141.664C135.071 142.139 135.089 142.633 135.007 143.114C134.936 145.085 134.177 146.967 132.862 148.434C132.361 148.953 131.763 149.366 131.102 149.652C130.441 149.937 129.731 150.088 129.011 150.097Z" fill="#231F20"/>
<path d="M108.25 143.376C107.539 138.911 100.156 137.818 100.524 143.067C100.576 144.895 101.273 146.645 102.491 148.007C103.108 148.672 103.907 149.139 104.788 149.351C105.669 149.562 106.593 149.508 107.444 149.194" fill="white"/>
<path d="M105.903 150.097C105.184 150.087 104.473 149.935 103.813 149.65C103.152 149.364 102.554 148.951 102.052 148.434C100.734 146.97 99.9746 145.086 99.9073 143.114C99.8253 142.63 99.8441 142.134 99.9627 141.657C100.081 141.18 100.297 140.733 100.597 140.344C100.896 139.954 101.272 139.631 101.702 139.395C102.132 139.159 102.607 139.014 103.095 138.97C104.422 138.83 105.754 139.194 106.827 139.989C107.9 140.785 108.636 141.955 108.89 143.269C108.905 143.348 108.904 143.43 108.887 143.51C108.87 143.589 108.838 143.664 108.791 143.731C108.745 143.797 108.686 143.853 108.617 143.897C108.548 143.94 108.472 143.968 108.392 143.981C108.23 144.005 108.066 143.966 107.933 143.87C107.8 143.775 107.71 143.632 107.681 143.471C107.473 142.472 106.904 141.585 106.084 140.981C105.264 140.376 104.251 140.096 103.237 140.193C102.908 140.228 102.591 140.331 102.304 140.496C102.017 140.661 101.768 140.885 101.573 141.152C101.378 141.419 101.24 141.725 101.17 142.048C101.099 142.372 101.097 142.707 101.163 143.031C101.218 144.711 101.855 146.319 102.965 147.579C103.496 148.151 104.184 148.554 104.943 148.738C105.701 148.922 106.497 148.878 107.231 148.612C107.304 148.58 107.383 148.562 107.463 148.559C107.543 148.557 107.623 148.571 107.697 148.6C107.772 148.628 107.841 148.671 107.899 148.727C107.957 148.782 108.004 148.848 108.036 148.921C108.069 148.994 108.087 149.073 108.089 149.154C108.091 149.234 108.078 149.314 108.049 149.389C108.021 149.464 107.978 149.532 107.923 149.591C107.867 149.649 107.801 149.696 107.728 149.729C107.154 149.982 106.531 150.107 105.903 150.097Z" fill="#231F20"/>
<path d="M109.233 165.653C110.001 167.042 111.142 168.187 112.527 168.959C113.911 169.732 115.484 170.1 117.066 170.023C118.694 170.069 120.305 169.69 121.743 168.924C123.18 168.158 124.394 167.031 125.266 165.653L124.484 148.518H110.015L109.233 165.653Z" fill="white"/>
<path d="M117.066 170.688C115.364 170.773 113.673 170.372 112.19 169.531C110.706 168.69 109.492 167.444 108.688 165.938C108.666 165.845 108.666 165.747 108.688 165.653L109.47 148.518C109.476 148.36 109.542 148.211 109.655 148.101C109.767 147.99 109.917 147.927 110.075 147.924H124.543C124.702 147.927 124.854 147.99 124.968 148.1C125.082 148.21 125.151 148.359 125.16 148.518L125.93 165.653C125.94 165.765 125.915 165.877 125.859 165.974C124.936 167.465 123.638 168.686 122.094 169.514C120.55 170.342 118.816 170.747 117.066 170.688ZM109.861 165.582C110.591 166.829 111.65 167.851 112.92 168.536C114.191 169.221 115.625 169.542 117.066 169.465C118.557 169.512 120.036 169.178 121.362 168.495C122.689 167.811 123.82 166.801 124.65 165.558L123.903 149.195H110.608L109.861 165.582Z" fill="#231F20"/>
<path d="M110.015 155.856C111.133 157.479 112.635 158.797 114.388 159.692C117.256 161.283 121.498 163.064 125.053 162.53L124.425 155.251C121.874 155.554 119.297 155.554 116.746 155.251C114.517 155.198 112.311 154.797 110.205 154.063C109.802 153.897 109.577 155.156 110.015 155.856Z" fill="#231F20"/>
<path d="M123.702 163.219C120.147 163.219 116.248 161.39 114.103 160.214C112.258 159.274 110.681 157.881 109.518 156.165C109.298 155.797 109.183 155.376 109.183 154.948C109.183 154.519 109.298 154.099 109.518 153.731C109.618 153.601 109.759 153.509 109.919 153.47C110.078 153.431 110.246 153.447 110.394 153.517C112.468 154.232 114.637 154.632 116.829 154.704C119.333 155 121.862 155 124.366 154.704C124.525 154.683 124.687 154.726 124.816 154.823C124.939 154.929 125.019 155.077 125.041 155.239L125.61 162.494C125.621 162.642 125.575 162.789 125.483 162.906C125.391 163.022 125.259 163.1 125.112 163.124C124.645 163.191 124.174 163.223 123.702 163.219ZM110.359 154.776C110.338 155.038 110.392 155.302 110.513 155.536C111.575 157.075 113.005 158.325 114.672 159.169C116.438 160.155 120.775 162.304 124.389 162.019L123.903 155.951C121.517 156.207 119.109 156.207 116.722 155.951C114.559 155.844 112.419 155.448 110.359 154.776Z" fill="#231F20"/>
<path d="M116.864 156.996H118.049C119.39 156.998 120.717 156.735 121.956 156.221C123.194 155.708 124.32 154.955 125.267 154.005C126.215 153.056 126.967 151.928 127.479 150.687C127.991 149.446 128.254 148.115 128.252 146.772V130.599H106.65V146.772C106.65 148.116 106.914 149.446 107.428 150.688C107.941 151.929 108.694 153.056 109.642 154.006C110.591 154.956 111.717 155.708 112.956 156.222C114.196 156.735 115.524 156.998 116.864 156.996Z" fill="white"/>
<path d="M128.252 130.598V146.772C128.254 148.115 127.991 149.445 127.479 150.686C126.967 151.927 126.215 153.055 125.268 154.005C124.32 154.955 123.194 155.708 121.956 156.221C120.717 156.734 119.39 156.998 118.05 156.996H116.865C115.524 156.998 114.196 156.734 112.957 156.221C111.717 155.708 110.591 154.955 109.642 154.006C108.694 153.056 107.941 151.928 107.428 150.687C106.914 149.446 106.65 148.115 106.65 146.772V130.598H128.241H128.252ZM128.241 129.411H106.65C106.336 129.411 106.034 129.536 105.812 129.759C105.59 129.981 105.465 130.283 105.465 130.598V146.772C105.468 149.807 106.673 152.717 108.814 154.863C110.956 157.009 113.86 158.216 116.888 158.219H118.073C121.102 158.216 124.006 157.009 126.147 154.863C128.289 152.717 129.494 149.807 129.497 146.772V130.598C129.497 130.283 129.372 129.981 129.15 129.759C128.927 129.536 128.626 129.411 128.312 129.411H128.241Z" fill="#231F20"/>
<path d="M117.623 147.223C117.12 147.225 116.617 147.193 116.118 147.128C115.966 147.112 115.82 147.059 115.692 146.974C115.564 146.889 115.458 146.775 115.383 146.641C114.589 145.323 116.248 140.633 116.995 138.673C117.053 138.516 117.171 138.388 117.324 138.318C117.476 138.248 117.65 138.241 117.807 138.299C117.964 138.357 118.092 138.476 118.162 138.628C118.232 138.781 118.238 138.955 118.18 139.113C116.995 142.176 116.248 145.204 116.438 145.929C117.328 146.022 118.226 146.022 119.116 145.929C119.2 145.905 119.288 145.899 119.374 145.912C119.46 145.925 119.542 145.957 119.615 146.004C119.688 146.052 119.749 146.115 119.795 146.189C119.842 146.263 119.871 146.346 119.883 146.433C119.894 146.519 119.886 146.607 119.86 146.69C119.835 146.774 119.791 146.85 119.733 146.915C119.675 146.98 119.603 147.032 119.524 147.066C119.444 147.101 119.357 147.118 119.27 147.116C118.724 147.191 118.174 147.227 117.623 147.223Z" fill="#231F20"/>
<path d="M103.095 187.004C102.943 187.002 102.798 186.944 102.686 186.841C102.575 186.738 102.505 186.597 102.491 186.446L101.495 175.58C101.487 175.501 101.495 175.42 101.518 175.344C101.541 175.267 101.579 175.196 101.629 175.134C101.68 175.072 101.742 175.021 101.813 174.984C101.883 174.946 101.961 174.923 102.04 174.915C102.203 174.902 102.365 174.953 102.491 175.057C102.617 175.161 102.698 175.311 102.716 175.474L103.711 186.339C103.724 186.501 103.673 186.662 103.569 186.786C103.465 186.911 103.316 186.989 103.154 187.004H103.095Z" fill="#231F20"/>
<path d="M134 187.004C133.838 186.989 133.689 186.911 133.585 186.786C133.481 186.662 133.43 186.501 133.443 186.339L134.438 175.474C134.453 175.312 134.531 175.162 134.656 175.058C134.78 174.953 134.94 174.902 135.102 174.915C135.182 174.921 135.261 174.943 135.333 174.98C135.405 175.017 135.468 175.068 135.52 175.13C135.572 175.192 135.611 175.264 135.635 175.341C135.659 175.419 135.667 175.5 135.659 175.58L134.663 186.446C134.648 186.608 134.57 186.757 134.446 186.862C134.322 186.966 134.161 187.017 134 187.004Z" fill="#231F20"/>
</svg>
