<svg width="301" height="228" viewBox="0 0 301 228" fill="none" xmlns="http://www.w3.org/2000/svg">
<g clip-path="url(#clip0)">
<circle cx="150" cy="112.733" r="92.7333" fill="white"/>
<path d="M148.142 182.291C96.1235 182.291 53.8016 152.927 53.8016 116.843C53.8016 80.7598 96.1235 51.3876 148.142 51.3876C200.16 51.3876 242.489 80.7898 242.489 116.843C242.489 127.994 238.368 139.002 230.582 148.69C231.601 162.84 232.748 179.772 232.763 179.944C232.769 180.03 232.746 180.114 232.697 180.184C232.648 180.254 232.576 180.304 232.493 180.327C232.411 180.351 232.323 180.346 232.244 180.314C232.165 180.281 232.1 180.222 232.059 180.147L220.714 158.671C202.715 173.683 176.301 182.291 148.142 182.291ZM148.142 52.1374C96.5356 52.1374 54.551 81.1647 54.551 116.843C54.551 152.522 96.5132 181.542 148.142 181.542C176.309 181.542 202.715 172.888 220.586 157.793C220.676 157.725 220.789 157.696 220.901 157.711C220.956 157.722 221.008 157.746 221.054 157.779C221.099 157.813 221.136 157.856 221.163 157.906L231.894 178.272C231.571 173.533 230.657 160.14 229.818 148.637C229.811 148.543 229.84 148.449 229.901 148.375C237.649 138.792 241.74 127.904 241.74 116.881C241.74 81.1647 199.755 52.1374 148.142 52.1374Z" fill="#D1D3D4"/>
<path d="M85.3258 48.2531C85.3258 48.2531 87.0642 45.0436 89.8217 40.6119C89.8217 40.6119 98.6788 47.2332 98.6038 46.8658C98.5289 46.4984 85.3258 48.2531 85.3258 48.2531Z" fill="#231F20"/>
<path d="M85.3258 48.6282C85.2606 48.6283 85.1966 48.6115 85.1399 48.5794C85.0833 48.5472 85.036 48.5009 85.0027 48.4449C84.9694 48.3888 84.9513 48.3251 84.9501 48.2599C84.949 48.1948 84.9648 48.1304 84.9961 48.0733C84.9961 48.0733 86.772 44.8039 89.5295 40.4097C89.5875 40.3247 89.6761 40.2656 89.7767 40.2447C89.8275 40.2347 89.8797 40.2356 89.9301 40.2472C89.9804 40.2588 90.0278 40.281 90.069 40.3122C93.1412 42.6068 98.1992 46.3111 98.7162 46.521C98.9635 46.581 98.9784 46.6785 99.0009 46.791C99.0152 46.868 99.0065 46.9475 98.9759 47.0195C98.9452 47.0916 98.894 47.1529 98.8286 47.1959C98.7536 47.2409 98.6862 47.2859 98.4689 47.1959C97.6372 47.0834 90.0315 48.0058 85.3707 48.6282H85.3258ZM89.9491 41.1295C88.0308 44.1965 86.6296 46.6485 86.0076 47.7583C92.4293 46.9185 95.6514 46.566 97.2475 46.4761C96.116 45.7112 93.973 44.159 89.9491 41.152V41.1295Z" fill="#231F20"/>
<path d="M202.677 181.992L207.098 174.613L200.984 169.079L202.677 181.992Z" fill="#231F20"/>
<path d="M202.678 182.366H202.588C202.51 182.352 202.44 182.312 202.387 182.254C202.334 182.196 202.302 182.122 202.295 182.044L200.594 169.139C200.584 169.062 200.599 168.984 200.635 168.915C200.671 168.847 200.728 168.791 200.797 168.756C200.863 168.719 200.94 168.705 201.015 168.714C201.09 168.724 201.161 168.757 201.216 168.809L207.338 174.343C207.403 174.401 207.445 174.481 207.457 174.567C207.469 174.653 207.451 174.741 207.406 174.815L202.985 182.194C202.952 182.245 202.906 182.288 202.853 182.318C202.799 182.348 202.739 182.365 202.678 182.366ZM201.486 170.023L202.91 180.859L206.619 174.673L201.486 170.023Z" fill="#231F20"/>
<path d="M199.815 183.521L128.629 193.667C127.17 193.857 125.69 193.522 124.455 192.721C123.219 191.92 122.309 190.706 121.885 189.295L85.0711 51.4174C84.3217 48.5604 86.1426 46.0484 89.1624 45.8009L161.742 39.9445C163.178 39.8749 164.595 40.2893 165.767 41.1213C166.94 41.9533 167.799 43.1549 168.209 44.5337L203.532 177.852C203.715 178.471 203.762 179.122 203.668 179.761C203.574 180.399 203.342 181.01 202.988 181.55C202.634 182.089 202.167 182.545 201.619 182.886C201.071 183.226 200.455 183.443 199.815 183.521Z" fill="#231F20"/>
<path d="M127.842 194.124C126.427 194.118 125.05 193.658 123.915 192.81C122.781 191.962 121.948 190.772 121.541 189.415L84.7113 51.545C84.5094 50.8647 84.4625 50.1479 84.574 49.4471C84.6856 48.7463 84.9527 48.0795 85.3557 47.4957C85.7912 46.9002 86.3529 46.4085 87.0007 46.0559C87.6485 45.7032 88.3662 45.4984 89.1023 45.4561L161.712 39.5471C163.236 39.4717 164.74 39.9113 165.984 40.7955C167.228 41.6796 168.138 42.9567 168.568 44.4213L203.891 177.732C204.087 178.411 204.134 179.124 204.029 179.823C203.924 180.522 203.67 181.19 203.284 181.781C202.9 182.358 202.395 182.844 201.806 183.208C201.216 183.572 200.555 183.804 199.868 183.889L128.682 194.042C128.404 194.087 128.124 194.115 127.842 194.124ZM162.184 40.297H161.772L89.1923 46.1534C88.5597 46.1829 87.9417 46.353 87.3831 46.6513C86.8244 46.9496 86.3392 47.3687 85.9627 47.8781C85.6264 48.3745 85.4043 48.9393 85.3123 49.5318C85.2203 50.1244 85.2607 50.73 85.4306 51.305L122.267 189.22C122.665 190.543 123.519 191.682 124.677 192.433C125.835 193.184 127.223 193.499 128.592 193.322L199.778 183.169C200.36 183.097 200.92 182.901 201.42 182.595C201.92 182.288 202.349 181.878 202.677 181.391C203.002 180.887 203.215 180.319 203.303 179.726C203.391 179.132 203.351 178.527 203.187 177.95L167.841 44.6312C167.478 43.4024 166.735 42.3207 165.718 41.5418C164.702 40.7629 163.464 40.327 162.184 40.297Z" fill="#231F20"/>
<path d="M204.446 175.933L133.26 186.078C131.8 186.272 130.319 185.938 129.083 185.136C127.847 184.335 126.937 183.119 126.516 181.707L89.7018 43.8065C88.9525 40.9495 90.7733 38.4375 93.7931 38.19L166.38 32.3336C167.815 32.2644 169.231 32.679 170.402 33.5111C171.573 34.3432 172.432 35.5445 172.839 36.9227L208.163 170.241C208.35 170.861 208.399 171.515 208.307 172.156C208.215 172.798 207.984 173.411 207.63 173.954C207.275 174.496 206.807 174.954 206.257 175.296C205.707 175.638 205.089 175.855 204.446 175.933Z" fill="white"/>
<path d="M132.473 186.52C131.058 186.513 129.682 186.052 128.547 185.205C127.413 184.357 126.58 183.168 126.172 181.811L89.3422 43.9038C89.142 43.2234 89.0959 42.5068 89.2074 41.8063C89.3189 41.1058 89.5851 40.439 89.9866 39.8545C90.4232 39.2602 90.9852 38.7693 91.6328 38.4168C92.2803 38.0643 92.9974 37.8588 93.7333 37.8149L166.32 31.9585C167.843 31.8847 169.346 32.3252 170.588 33.2092C171.83 34.0931 172.739 35.3693 173.169 36.8326L208.5 170.143C208.693 170.823 208.739 171.535 208.634 172.234C208.53 172.932 208.277 173.6 207.893 174.193C207.507 174.769 207.001 175.256 206.41 175.619C205.819 175.983 205.157 176.215 204.468 176.3L133.283 186.453C133.015 186.492 132.744 186.515 132.473 186.52ZM166.815 32.6933H166.41L93.8232 38.5498C93.1917 38.5793 92.5748 38.7494 92.0174 39.0478C91.46 39.3461 90.9761 39.7652 90.6011 40.2745C90.2616 40.7693 90.037 41.3338 89.9437 41.9268C89.8503 42.5197 89.8906 43.126 90.0616 43.7013L126.906 181.609C127.304 182.931 128.159 184.069 129.317 184.82C130.475 185.571 131.861 185.887 133.23 185.711L204.416 175.557C204.998 175.486 205.558 175.29 206.058 174.983C206.559 174.677 206.987 174.267 207.316 173.78C207.642 173.277 207.856 172.709 207.944 172.115C208.032 171.521 207.992 170.915 207.825 170.338L172.48 37.02C172.114 35.7921 171.369 34.7117 170.351 33.9343C169.333 33.1569 168.095 32.7224 166.815 32.6933Z" fill="#231F20"/>
<path d="M96.7303 52.8796L171.041 46.4382L199.553 154.014L126.336 163.755L96.7303 52.8796Z" fill="#F14736"/>
<path d="M175.027 175.13L161.142 177.087C160.26 177.196 159.368 176.987 158.625 176.498C157.883 176.009 157.338 175.272 157.089 174.418L155.71 169.274C155.594 168.881 155.567 168.467 155.629 168.062C155.691 167.658 155.842 167.272 156.07 166.932C156.298 166.592 156.598 166.306 156.949 166.095C157.3 165.884 157.693 165.753 158.1 165.712L172.015 163.822C172.889 163.727 173.769 163.942 174.5 164.43C175.232 164.918 175.769 165.648 176.017 166.492L177.38 171.628C177.489 172.015 177.513 172.42 177.45 172.817C177.387 173.213 177.238 173.591 177.014 173.924C176.79 174.257 176.497 174.538 176.153 174.746C175.81 174.954 175.426 175.085 175.027 175.13Z" fill="white"/>
<path d="M160.67 177.522C159.778 177.513 158.913 177.217 158.203 176.676C157.493 176.136 156.976 175.381 156.729 174.523L155.38 169.334C155.254 168.892 155.225 168.428 155.295 167.974C155.365 167.519 155.532 167.086 155.785 166.702C156.045 166.315 156.386 165.989 156.785 165.747C157.183 165.505 157.63 165.352 158.093 165.299L172 163.417C172.964 163.308 173.936 163.543 174.743 164.081C175.551 164.619 176.142 165.425 176.414 166.357L177.785 171.493C177.913 171.934 177.944 172.397 177.875 172.851C177.806 173.305 177.638 173.738 177.384 174.12C177.13 174.503 176.795 174.824 176.404 175.064C176.012 175.303 175.573 175.454 175.117 175.505L161.232 177.455C161.047 177.494 160.859 177.517 160.67 177.522ZM172.465 164.16C172.33 164.149 172.195 164.149 172.06 164.16L158.153 166.042C157.796 166.083 157.453 166.2 157.145 166.385C156.837 166.57 156.573 166.819 156.369 167.114C156.176 167.41 156.049 167.744 155.997 168.094C155.946 168.443 155.97 168.8 156.069 169.139L157.448 174.32C157.675 175.086 158.165 175.746 158.831 176.184C159.498 176.622 160.298 176.809 161.09 176.712L174.975 174.763L175.027 175.13L174.975 174.763C175.326 174.722 175.663 174.606 175.965 174.422C176.266 174.238 176.524 173.991 176.721 173.698C176.914 173.405 177.041 173.073 177.093 172.726C177.145 172.379 177.12 172.025 177.021 171.688L175.657 166.552C175.453 165.86 175.034 165.251 174.459 164.815C173.885 164.379 173.186 164.139 172.465 164.13V164.16Z" fill="#E6E7E8"/>
<path d="M118.716 43.6339C118.616 43.6339 118.521 43.5944 118.451 43.5241C118.381 43.4538 118.341 43.3584 118.341 43.259C118.341 43.1595 118.381 43.0641 118.451 42.9938C118.521 42.9235 118.616 42.884 118.716 42.884L139.944 41.1143C139.993 41.1092 140.042 41.1139 140.089 41.1282C140.136 41.1424 140.18 41.166 140.218 41.1975C140.256 41.2289 140.287 41.2677 140.309 41.3113C140.332 41.355 140.345 41.4028 140.349 41.4518C140.353 41.501 140.347 41.5506 140.332 41.5977C140.317 41.6448 140.293 41.6884 140.261 41.726C140.229 41.7636 140.19 41.7946 140.145 41.817C140.101 41.8394 140.053 41.8529 140.004 41.8567L118.776 43.6339H118.716Z" fill="#E6E7E8"/>
<path d="M142.889 41.6094C142.789 41.6094 142.694 41.5699 142.624 41.4996C142.554 41.4292 142.514 41.3339 142.514 41.2344C142.514 41.135 142.554 41.0396 142.624 40.9693C142.694 40.899 142.789 40.8595 142.889 40.8595L145.706 40.6195C145.806 40.6116 145.904 40.6435 145.98 40.7082C146.056 40.7728 146.103 40.865 146.111 40.9645C146.119 41.0639 146.087 41.1624 146.022 41.2384C145.958 41.3143 145.866 41.3615 145.766 41.3694L142.956 41.6019L142.889 41.6094Z" fill="#E6E7E8"/>
<path d="M123.317 104.785C123.239 104.785 123.163 104.762 123.099 104.718C123.02 104.661 122.966 104.575 122.947 104.479C122.929 104.382 122.949 104.283 123.002 104.2L156.624 55.0769C156.68 54.9943 156.766 54.9373 156.863 54.9183C156.961 54.8993 157.062 54.92 157.145 54.9756C157.227 55.0313 157.284 55.1175 157.303 55.2153C157.322 55.313 157.302 55.4143 157.246 55.4968L123.624 104.62C123.589 104.67 123.543 104.711 123.49 104.739C123.436 104.768 123.377 104.784 123.317 104.785Z" fill="white"/>
<path d="M150.622 146.305C150.544 146.305 150.469 146.282 150.405 146.238C150.364 146.21 150.33 146.173 150.303 146.132C150.277 146.09 150.259 146.043 150.25 145.994C150.242 145.945 150.243 145.895 150.254 145.847C150.265 145.799 150.286 145.753 150.315 145.713L170.546 116.626C170.605 116.55 170.691 116.499 170.786 116.485C170.881 116.47 170.978 116.493 171.056 116.548C171.135 116.602 171.19 116.685 171.209 116.78C171.229 116.874 171.212 116.972 171.161 117.053L150.929 146.148C150.894 146.196 150.848 146.236 150.794 146.263C150.741 146.291 150.682 146.305 150.622 146.305Z" fill="white"/>
<path d="M145.077 118.748C145.002 118.746 144.929 118.723 144.867 118.68C144.826 118.653 144.791 118.618 144.764 118.577C144.737 118.536 144.718 118.49 144.709 118.442C144.7 118.394 144.701 118.344 144.711 118.296C144.722 118.248 144.742 118.203 144.77 118.163L152.675 106.397C152.73 106.315 152.815 106.258 152.912 106.238C153.009 106.219 153.11 106.238 153.192 106.292C153.275 106.349 153.332 106.435 153.352 106.533C153.371 106.631 153.352 106.733 153.297 106.817L145.392 118.583C145.356 118.633 145.309 118.674 145.254 118.703C145.199 118.732 145.139 118.747 145.077 118.748Z" fill="white"/>
<path d="M119.63 85.7836L82.3435 88.843C81.6768 88.8473 81.0295 88.619 80.5126 88.1976C79.9957 87.7761 79.6416 87.1878 79.5111 86.5335L74.0185 61.488C73.9273 61.2019 73.9018 60.8989 73.9439 60.6015C73.9861 60.3042 74.0948 60.0202 74.2619 59.7708C74.429 59.5213 74.6503 59.3129 74.9092 59.161C75.168 59.0091 75.4578 58.9176 75.757 58.8935L112.946 56.6439C113.584 56.6602 114.198 56.891 114.688 57.2992C115.179 57.7073 115.518 58.2689 115.651 58.8935L121.233 83.1816C121.541 84.5388 120.821 85.6861 119.63 85.7836Z" fill="white"/>
<path d="M113.066 56.644C113.681 56.691 114.265 56.9352 114.731 57.3404C115.196 57.7456 115.519 58.2903 115.651 58.8936L121.234 83.1817C121.541 84.5164 120.821 85.6787 119.63 85.7762L82.3436 88.8357H82.1712C81.5356 88.7974 80.9304 88.5503 80.4494 88.1327C79.9685 87.7151 79.6386 87.1504 79.5111 86.5261L74.0186 61.4806C73.9273 61.1945 73.9018 60.8915 73.944 60.5941C73.9861 60.2968 74.0948 60.0128 74.2619 59.7634C74.4291 59.5139 74.6503 59.3055 74.9092 59.1536C75.1681 59.0017 75.4579 58.9102 75.757 58.8861L112.946 56.6365H113.066V56.644ZM113.066 55.8866H112.901L75.712 58.1362C75.3321 58.1548 74.9608 58.2565 74.6242 58.4339C74.2877 58.6114 73.994 58.8604 73.7638 59.1635C73.5081 59.5174 73.3328 59.9228 73.2499 60.3515C73.1671 60.7802 73.1788 61.2218 73.2842 61.6456L78.7768 86.691C78.9408 87.4823 79.3635 88.1964 79.9782 88.7206C80.5929 89.2447 81.3645 89.549 82.1712 89.5855H82.4035L119.69 86.5336C120.05 86.5048 120.4 86.3988 120.715 86.2228C121.03 86.0468 121.304 85.805 121.518 85.5138C121.765 85.1541 121.931 84.746 122.008 84.3167C122.084 83.8874 122.068 83.4468 121.96 83.0242L116.415 58.7286C116.25 57.9579 115.837 57.263 115.238 56.7507C114.64 56.2385 113.89 55.9375 113.103 55.8941L113.066 55.8866Z" fill="#231F20"/>
<path d="M99.0758 78.0677C98.9969 78.069 98.92 78.0424 98.8586 77.9927L74.1308 59.996C74.0518 59.9362 73.999 59.8481 73.9836 59.7502C73.9683 59.6523 73.9915 59.5522 74.0484 59.4711C74.0767 59.4303 74.113 59.3956 74.155 59.3693C74.1971 59.3429 74.244 59.3253 74.293 59.3176C74.3421 59.3099 74.3921 59.3122 74.4402 59.3244C74.4883 59.3366 74.5335 59.3584 74.5729 59.3886L99.0084 77.1979L114.28 57.004C114.34 56.9245 114.43 56.8723 114.529 56.8589C114.628 56.8456 114.728 56.8721 114.808 56.9328C114.887 56.9934 114.94 57.0832 114.953 57.1824C114.966 57.2815 114.94 57.3819 114.879 57.4614L99.3831 77.9402C99.3448 77.9833 99.2972 78.0171 99.244 78.0392C99.1908 78.0613 99.1333 78.071 99.0758 78.0677Z" fill="#D1D3D4"/>
<path d="M120.911 85.4012C120.836 85.3998 120.763 85.3763 120.701 85.3337L102.643 73.0059C102.602 72.9788 102.567 72.9437 102.54 72.9028C102.512 72.8619 102.494 72.816 102.485 72.7678C102.476 72.7196 102.476 72.67 102.487 72.622C102.497 72.5741 102.517 72.5287 102.545 72.4885C102.601 72.4058 102.688 72.3485 102.786 72.3289C102.884 72.3092 102.986 72.3289 103.07 72.3835L121.151 84.7188C121.216 84.7642 121.265 84.8292 121.291 84.9042C121.317 84.9793 121.318 85.0607 121.295 85.1365C121.271 85.2124 121.224 85.2789 121.161 85.3265C121.097 85.3741 121.02 85.4002 120.941 85.4012H120.911Z" fill="#D1D3D4"/>
<path d="M80.6575 88.6784C80.5709 88.6763 80.4872 88.6475 80.4177 88.5959C80.3422 88.5306 80.2953 88.4384 80.2869 88.3389C80.2785 88.2394 80.3093 88.1406 80.3727 88.0635L92.8864 73.1487C92.95 73.0722 93.0414 73.024 93.1405 73.0149C93.2396 73.0058 93.3382 73.0364 93.4147 73.1C93.4912 73.1636 93.5393 73.2551 93.5485 73.3542C93.5576 73.4534 93.527 73.5521 93.4634 73.6287L80.9497 88.5434C80.9141 88.5863 80.8694 88.6206 80.8188 88.6439C80.7683 88.6673 80.7131 88.6791 80.6575 88.6784Z" fill="#D1D3D4"/>
<path d="M196.915 51.8523L157.95 54.4019C157.415 54.432 156.894 54.5785 156.421 54.8314C155.949 55.0842 155.538 55.4372 155.216 55.8657C154.894 56.2941 154.67 56.7877 154.558 57.312C154.447 57.8363 154.451 58.3786 154.571 58.901L160.79 82.5068C161.04 83.6556 161.694 84.676 162.634 85.3811C163.574 86.0862 164.736 86.4288 165.908 86.3461L167.766 86.1661L168.516 95.2995L173.843 85.5512L204.446 83.7141C204.98 83.6732 205.498 83.5149 205.963 83.2505C206.429 82.986 206.83 82.6219 207.139 82.1842C207.447 81.7464 207.655 81.2459 207.748 80.7184C207.841 80.1908 207.816 79.6493 207.675 79.1324L201.898 55.5417C201.62 54.4462 200.972 53.4807 200.064 52.8084C199.156 52.1362 198.043 51.7984 196.915 51.8523Z" fill="white"/>
<path d="M168.576 95.6596H168.501C168.422 95.6451 168.35 95.605 168.295 95.5453C168.241 95.4857 168.208 95.41 168.201 95.3297L167.452 86.5788L165.953 86.7137C164.689 86.8091 163.434 86.4431 162.418 85.6836C161.403 84.924 160.697 83.8222 160.431 82.582L154.219 58.9987C154.087 58.4213 154.083 57.822 154.207 57.2428C154.331 56.6637 154.58 56.1188 154.937 55.6464C155.295 55.174 155.751 54.7855 156.274 54.5084C156.797 54.2313 157.374 54.0721 157.965 54.0421L196.93 51.4926C198.16 51.4242 199.375 51.7866 200.366 52.5174C201.357 53.2481 202.064 54.3016 202.363 55.4969L208.14 79.0801C208.286 79.6624 208.304 80.2692 208.194 80.8593C208.085 81.4494 207.849 82.0088 207.503 82.4995C207.163 82.966 206.725 83.353 206.221 83.6339C205.716 83.9149 205.157 84.083 204.581 84.1267L174.113 85.9339L168.868 95.4647C168.839 95.5182 168.797 95.5638 168.746 95.5977C168.695 95.6316 168.637 95.6529 168.576 95.6596ZM167.827 85.7764C167.915 85.7752 168.001 85.8073 168.066 85.8664C168.105 85.8979 168.136 85.9366 168.159 85.9804C168.182 86.0241 168.197 86.072 168.201 86.1213L168.876 94.0174L173.604 85.394C173.634 85.338 173.679 85.2908 173.732 85.2567C173.786 85.2226 173.848 85.2027 173.911 85.199L204.514 83.3693C204.981 83.3323 205.435 83.1953 205.844 82.9676C206.254 82.7399 206.61 82.4269 206.889 82.0496C207.171 81.6449 207.362 81.1846 207.452 80.6996C207.541 80.2146 207.525 79.7161 207.406 79.2376L201.629 55.6544C201.379 54.6284 200.777 53.7229 199.928 53.0964C199.078 52.4699 198.036 52.1623 196.983 52.2275L158.018 54.777C157.538 54.8043 157.071 54.9359 156.647 55.1626C156.223 55.3893 155.854 55.7057 155.565 56.0897C155.277 56.4738 155.075 56.9162 154.974 57.3862C154.874 57.8562 154.877 58.3426 154.983 58.8113L161.195 82.3945C161.419 83.4603 162.021 84.4088 162.891 85.0638C163.76 85.7188 164.838 86.0359 165.923 85.9564L167.774 85.7764H167.827Z" fill="#231F20"/>
<path d="M184.462 80.2195C183.862 79.7621 183.285 79.2972 182.693 78.8548L177.725 75.2029C176.631 74.3931 175.53 73.5832 174.51 72.6759C173.592 71.8915 172.805 70.9649 172.18 69.9314C171.783 69.2411 171.476 68.5027 171.266 67.7343C171.069 67.0681 170.934 66.3854 170.861 65.6947C170.689 64.6012 170.899 63.4818 171.456 62.5255C172.013 61.5691 172.883 60.8345 173.919 60.4456C176.166 59.6058 178.414 60.0782 180.453 61.7204C180.921 62.1026 181.345 62.5351 181.719 63.0102L181.809 63.1076C181.809 63.0626 181.809 63.0177 181.869 62.9802C182.353 61.9143 183.153 61.0239 184.162 60.4306C185.085 59.8914 186.144 59.631 187.212 59.6808C188.548 59.7364 189.836 60.1961 190.907 60.9993C191.977 61.8025 192.779 62.9115 193.206 64.1799C193.418 64.8439 193.546 65.5315 193.588 66.2271C193.675 66.9469 193.675 67.6744 193.588 68.3942C193.438 69.4668 193.049 70.4918 192.449 71.3936C191.817 72.3398 191.1 73.2258 190.306 74.0407C189.16 75.2479 187.991 76.4327 186.852 77.6475C186.065 78.4799 185.301 79.3347 184.529 80.182L184.462 80.2195Z" fill="#D1D3D4"/>
<path d="M125.662 120.532L124.5 120.615L124.291 112.366C124.291 112.366 121.458 117.818 119.66 120.967L83.6922 123.659C81.744 123.802 80.3952 125.279 80.6949 126.966L85.3632 153.526C85.5878 154.449 86.1449 155.256 86.9276 155.793C87.7102 156.33 88.6634 156.559 89.6044 156.436L133.065 152.154C133.484 152.142 133.895 152.036 134.268 151.846C134.642 151.655 134.968 151.384 135.224 151.052C135.48 150.72 135.659 150.335 135.748 149.925C135.837 149.515 135.835 149.091 135.74 148.682L129.671 123.187C129.406 122.353 128.864 121.635 128.134 121.152C127.405 120.669 126.533 120.45 125.662 120.532Z" fill="white"/>
<path d="M89.1997 156.818C88.2337 156.844 87.2883 156.536 86.5226 155.946C85.757 155.356 85.2179 154.52 84.996 153.579L80.3277 127.019C80.2558 126.605 80.2714 126.182 80.3734 125.775C80.4753 125.368 80.6614 124.987 80.9197 124.657C81.258 124.247 81.6778 123.911 82.1526 123.673C82.6273 123.434 83.1465 123.296 83.6772 123.269L119.412 120.6C121.188 117.465 123.908 112.231 123.908 112.179C123.946 112.106 124.007 112.047 124.081 112.011C124.156 111.976 124.24 111.967 124.321 111.984C124.402 112.004 124.475 112.049 124.527 112.114C124.58 112.18 124.61 112.26 124.613 112.344L124.815 120.187L125.564 120.135C126.525 120.057 127.483 120.307 128.282 120.845C129.081 121.383 129.674 122.177 129.963 123.097L136.025 148.592C136.136 149.025 136.151 149.476 136.07 149.916C135.988 150.355 135.812 150.771 135.553 151.134C135.254 151.534 134.874 151.865 134.437 152.106C134 152.346 133.517 152.491 133.02 152.529L89.5594 156.811C89.4396 156.818 89.3197 156.821 89.1997 156.818ZM123.953 113.784C123.002 115.591 121.233 118.928 119.989 121.117C119.959 121.171 119.916 121.217 119.864 121.249C119.811 121.282 119.751 121.301 119.69 121.305L83.7221 123.997C83.291 124.012 82.8679 124.118 82.4806 124.308C82.0932 124.498 81.7502 124.767 81.4742 125.099C81.2792 125.344 81.1388 125.628 81.0626 125.932C80.9863 126.236 80.9759 126.553 81.0321 126.861L85.6929 153.421C85.8993 154.253 86.4048 154.979 87.1127 155.46C87.8206 155.942 88.6811 156.145 89.5294 156.031L132.99 151.742C133.381 151.716 133.761 151.607 134.105 151.42C134.449 151.234 134.749 150.975 134.983 150.662C135.178 150.384 135.31 150.067 135.37 149.733C135.431 149.399 135.419 149.056 135.336 148.727L129.274 123.232C129.032 122.482 128.541 121.836 127.883 121.403C127.225 120.969 126.439 120.773 125.654 120.847L124.5 120.93C124.45 120.933 124.399 120.926 124.352 120.909C124.304 120.893 124.26 120.866 124.223 120.832C124.183 120.8 124.151 120.759 124.129 120.712C124.107 120.665 124.095 120.614 124.096 120.562L123.953 113.784Z" fill="#231F20"/>
<path d="M102.133 148.832L97.0303 149.312L94.4601 135.875L99.503 135.447L102.133 148.832Z" fill="#D1D3D4"/>
<path d="M97.0302 149.425C97.003 149.426 96.9762 149.417 96.9545 149.401C96.9327 149.384 96.9171 149.361 96.9103 149.335L94.3476 135.89C94.3455 135.874 94.3466 135.858 94.3507 135.842C94.3549 135.827 94.362 135.813 94.3718 135.8C94.3816 135.788 94.3937 135.777 94.4076 135.769C94.4214 135.761 94.4367 135.757 94.4525 135.755L99.488 135.327C99.5175 135.325 99.5468 135.334 99.5703 135.352C99.5938 135.37 99.6099 135.396 99.6153 135.425L102.253 148.81C102.255 148.826 102.254 148.842 102.25 148.857C102.246 148.872 102.239 148.887 102.229 148.899C102.219 148.912 102.207 148.922 102.193 148.93C102.179 148.938 102.164 148.943 102.148 148.945L97.0377 149.425H97.0302ZM94.6024 135.98L97.1201 149.185L101.998 148.727L99.4055 135.575L94.6024 135.98Z" fill="#D1D3D4"/>
<path d="M101.616 136.377C101.616 136.377 105.745 134.99 107.034 132.493C108.323 129.996 107.783 125.864 108.435 125.587C108.996 125.434 109.59 125.462 110.134 125.665C110.679 125.868 111.146 126.237 111.47 126.719C112.369 127.979 112.721 131.803 111.747 134.42C111.747 134.42 117.217 133.903 119.683 133.67C122.148 133.438 123.077 135.552 121.841 136.542C121.841 136.542 123.841 136.61 123.519 138.417C123.197 140.224 122.485 140.351 121.399 140.449C121.768 140.499 122.105 140.685 122.345 140.971C122.585 141.256 122.709 141.621 122.695 141.994C122.575 143.336 120.934 143.823 120.934 143.823C120.934 143.823 122.657 144.431 121.841 145.99C121.024 147.55 118.349 147.67 112.047 147.873C105.745 148.075 103.714 146.853 103.714 146.853L101.616 136.377Z" fill="#D1D3D4"/>
<path d="M110.631 148.037C105.43 148.037 103.722 147.025 103.647 146.98C103.621 146.962 103.603 146.935 103.594 146.905L101.504 136.407C101.498 136.379 101.503 136.351 101.517 136.326C101.53 136.301 101.552 136.282 101.579 136.272C101.624 136.272 105.678 134.87 106.929 132.448C107.678 131.046 107.798 129.066 107.911 127.619C108.023 126.171 108.075 125.624 108.39 125.489C108.975 125.322 109.598 125.345 110.169 125.555C110.74 125.765 111.23 126.152 111.567 126.659C112.489 127.949 112.819 131.675 111.919 134.292C112.901 134.195 117.487 133.768 119.675 133.543C121.234 133.423 122.11 134.172 122.387 134.862C122.497 135.126 122.53 135.416 122.481 135.698C122.432 135.979 122.303 136.241 122.11 136.452C122.588 136.509 123.029 136.735 123.354 137.089C123.498 137.278 123.598 137.497 123.646 137.729C123.694 137.961 123.689 138.201 123.631 138.432C123.354 139.991 122.8 140.359 121.945 140.494C122.234 140.614 122.476 140.826 122.633 141.097C122.789 141.368 122.853 141.683 122.815 141.994C122.742 142.412 122.557 142.803 122.28 143.126C122.003 143.448 121.644 143.689 121.241 143.823C121.616 144.013 121.915 144.325 122.088 144.708C122.164 144.926 122.191 145.158 122.166 145.388C122.142 145.617 122.066 145.839 121.945 146.035C121.076 147.693 118.251 147.782 112.054 147.985L110.631 148.037ZM103.819 146.778C104.141 146.943 106.307 147.947 112.062 147.76C118.161 147.558 120.949 147.468 121.751 145.938C121.854 145.769 121.92 145.579 121.943 145.383C121.966 145.186 121.947 144.986 121.885 144.798C121.682 144.397 121.334 144.089 120.911 143.936C120.888 143.927 120.869 143.912 120.855 143.892C120.841 143.872 120.833 143.848 120.833 143.823C120.833 143.799 120.841 143.775 120.855 143.755C120.869 143.735 120.888 143.719 120.911 143.711C120.911 143.711 122.47 143.231 122.582 141.979C122.606 141.634 122.494 141.294 122.272 141.029C122.05 140.765 121.734 140.597 121.391 140.561C121.362 140.558 121.336 140.543 121.318 140.521C121.3 140.498 121.291 140.47 121.293 140.441C121.293 140.413 121.304 140.385 121.324 140.364C121.343 140.343 121.37 140.331 121.398 140.329C122.417 140.239 123.092 140.179 123.407 138.402C123.458 138.205 123.464 137.999 123.425 137.799C123.386 137.599 123.303 137.41 123.182 137.247C122.823 136.891 122.345 136.683 121.84 136.662C121.816 136.661 121.793 136.653 121.774 136.638C121.756 136.623 121.742 136.603 121.736 136.58C121.724 136.56 121.717 136.538 121.717 136.516C121.717 136.493 121.724 136.471 121.736 136.452C121.96 136.282 122.121 136.043 122.194 135.771C122.268 135.5 122.249 135.212 122.14 134.952C121.893 134.337 121.091 133.648 119.66 133.783C117.225 133.985 111.785 134.532 111.732 134.532C111.712 134.536 111.692 134.533 111.673 134.525C111.654 134.517 111.638 134.504 111.627 134.487C111.618 134.47 111.613 134.451 111.613 134.431C111.613 134.412 111.618 134.392 111.627 134.375C112.556 131.863 112.257 128.039 111.365 126.786C111.055 126.327 110.61 125.976 110.092 125.78C109.574 125.584 109.009 125.553 108.473 125.691C108.27 125.781 108.195 126.719 108.128 127.626C108.023 129.126 107.866 131.106 107.124 132.545C105.917 134.87 102.388 136.227 101.736 136.46L103.819 146.778Z" fill="#D1D3D4"/>
<path d="M209.032 144.333L172.255 147.895C170.896 147.97 169.553 147.567 168.458 146.757C167.364 145.946 166.587 144.779 166.26 143.456L160.88 121.522C160.206 118.77 161.802 116.273 164.447 115.988L201.374 111.969C202.763 111.869 204.142 112.267 205.265 113.091C206.388 113.915 207.181 115.112 207.503 116.468L212.749 138.822C212.93 139.431 212.973 140.073 212.877 140.701C212.781 141.33 212.546 141.929 212.191 142.456C211.836 142.983 211.368 143.425 210.822 143.749C210.276 144.074 209.664 144.273 209.032 144.333Z" fill="white"/>
<path d="M171.79 148.277C170.43 148.227 169.123 147.738 168.064 146.882C167.005 146.026 166.251 144.851 165.916 143.531L160.543 121.59C160.356 120.896 160.32 120.171 160.436 119.462C160.553 118.753 160.819 118.078 161.217 117.48C161.585 116.952 162.063 116.51 162.618 116.185C163.173 115.86 163.792 115.66 164.432 115.598L201.351 111.579C202.834 111.473 204.307 111.898 205.505 112.779C206.703 113.659 207.55 114.938 207.893 116.386L213.138 138.739C213.314 139.431 213.338 140.152 213.208 140.853C213.079 141.555 212.799 142.22 212.389 142.803C212.001 143.341 211.501 143.788 210.925 144.114C210.348 144.44 209.707 144.638 209.047 144.693L172.292 148.277C172.128 148.277 171.955 148.277 171.79 148.277ZM201.958 112.284C201.784 112.273 201.608 112.273 201.434 112.284L164.514 116.296C163.981 116.35 163.466 116.518 163.003 116.788C162.54 117.058 162.141 117.425 161.832 117.863C161.491 118.373 161.265 118.95 161.168 119.556C161.071 120.162 161.105 120.781 161.27 121.372L166.62 143.366C166.925 144.596 167.646 145.683 168.661 146.442C169.676 147.2 170.922 147.584 172.188 147.528L208.964 143.966C209.519 143.919 210.057 143.754 210.542 143.481C211.027 143.208 211.447 142.834 211.774 142.383C212.117 141.884 212.348 141.317 212.451 140.721C212.555 140.124 212.528 139.512 212.374 138.927L207.129 116.573C206.852 115.392 206.197 114.333 205.264 113.559C204.33 112.785 203.169 112.337 201.958 112.284Z" fill="#231F20"/>
<path d="M197.38 129.733L184.184 140.029C183.24 140.779 181.704 140.089 181.389 138.806L177.178 121.395C177.1 121.118 177.104 120.824 177.188 120.549C177.272 120.274 177.434 120.029 177.653 119.843C177.873 119.657 178.141 119.539 178.426 119.501C178.711 119.464 179.001 119.509 179.261 119.632L196.676 126.734C197.972 127.281 198.369 128.961 197.38 129.733Z" fill="#D1D3D4"/>
<path d="M222.07 112.284C222.004 112.285 221.939 112.266 221.883 112.232C221.807 112.186 221.749 112.115 221.72 112.032C221.692 111.948 221.693 111.857 221.725 111.774L224.992 103.038C220.721 99.8513 218.286 95.3596 218.286 90.6655C218.286 81.3821 227.63 73.8385 239.117 73.8385C250.604 73.8385 259.948 81.3821 259.948 90.6655C259.948 99.9488 250.604 107.5 239.117 107.5C235.43 107.516 231.786 106.704 228.454 105.123L222.355 112.157C222.319 112.196 222.275 112.228 222.226 112.25C222.177 112.272 222.124 112.284 222.07 112.284ZM239.117 74.5884C228.042 74.5884 219.035 81.8021 219.035 90.6655C219.035 95.2021 221.448 99.5514 225.659 102.596C225.725 102.645 225.773 102.713 225.797 102.792C225.821 102.87 225.82 102.953 225.794 103.031L223.149 110.094L228.08 104.418C228.133 104.354 228.207 104.31 228.289 104.294C228.37 104.278 228.455 104.29 228.529 104.328C231.825 105.94 235.449 106.769 239.117 106.75C250.185 106.75 259.199 99.5364 259.199 90.6655C259.199 81.7946 250.155 74.6184 239.087 74.6184L239.117 74.5884Z" fill="#D1D3D4"/>
<path d="M68.8182 131.78C68.7345 131.782 68.6528 131.756 68.5859 131.705C66.109 129.783 63.7726 127.685 61.5947 125.429C61.2949 125.429 60.9952 125.429 60.6955 125.429C49.4556 125.429 40.3513 119.385 40.3513 111.932C40.3513 104.478 49.4781 98.434 60.6955 98.434C71.9129 98.434 81.0322 104.478 81.0322 111.932C81.0322 117.451 75.8768 122.43 68.1663 124.477L69.2078 131.331C69.2203 131.404 69.2097 131.479 69.1775 131.547C69.1453 131.614 69.093 131.669 69.028 131.705C68.968 131.753 68.8944 131.779 68.8182 131.78ZM61.7146 124.657C61.7649 124.656 61.8149 124.665 61.8614 124.684C61.9078 124.704 61.9497 124.733 61.9843 124.769C63.9576 126.817 66.06 128.735 68.2787 130.513L67.3795 124.282C67.3636 124.19 67.3834 124.095 67.435 124.017C67.4865 123.939 67.5658 123.883 67.6567 123.862C75.2099 121.987 80.2828 117.203 80.2828 111.962C80.2828 104.935 71.4933 99.2138 60.6955 99.2138C49.8977 99.2138 41.1006 104.92 41.1006 111.962C41.1006 119.003 49.8902 124.709 60.6955 124.709H61.7296L61.7146 124.657Z" fill="#D1D3D4"/>
</g>
<defs>
<clipPath id="clip0">
<rect width="301" height="227.338" fill="white"/>
</clipPath>
</defs>
</svg>
