<svg width="301" height="228" viewBox="0 0 301 228" fill="none" xmlns="http://www.w3.org/2000/svg">
<circle cx="149.733" cy="113.733" r="92.7333" fill="white"/>
<path d="M257.761 33.3771H43.2313V59.7094H257.761V33.3771Z" fill="#F14736"/>
<path d="M257.769 60.0789H43.2312C43.1314 60.0789 43.0357 60.0392 42.9652 59.9685C42.8946 59.8978 42.855 59.8019 42.855 59.7019V33.377C42.855 33.277 42.8946 33.1811 42.9652 33.1104C43.0357 33.0397 43.1314 33 43.2312 33H257.769C257.869 33 257.964 33.0397 258.035 33.1104C258.106 33.1811 258.145 33.277 258.145 33.377V59.7019C258.145 59.8019 258.106 59.8978 258.035 59.9685C257.964 60.0392 257.869 60.0789 257.769 60.0789ZM43.6451 59.3248H257.43V33.7541H43.6451V59.3248Z" fill="#231F20"/>
<path d="M257.761 59.7017H43.2311V193H257.761V59.7017Z" fill="white"/>
<path d="M257.769 193.377H43.2312C43.1314 193.377 43.0357 193.337 42.9652 193.267C42.8946 193.196 42.855 193.1 42.855 193V59.7018C42.8569 59.6024 42.8972 59.5076 42.9673 59.4373C43.0375 59.367 43.132 59.3267 43.2312 59.3248H257.769C257.868 59.3267 257.963 59.367 258.033 59.4373C258.103 59.5076 258.143 59.6024 258.145 59.7018V193C258.145 193.1 258.106 193.196 258.035 193.267C257.964 193.337 257.869 193.377 257.769 193.377ZM43.6075 192.623H257.393V60.0788H43.6451L43.6075 192.623Z" fill="#231F20"/>
<path d="M61.2535 48.4586H63.3981C63.4884 48.4586 63.5185 48.4586 63.5185 48.5792V55.2981H66.378V48.5717C66.378 48.4812 66.378 48.4586 66.4909 48.4586H68.6205C68.7183 48.4586 68.7484 48.4586 68.7559 48.3455L68.8914 47.2521C68.9441 46.8826 68.9892 46.498 69.0343 46.1511C69.0343 46.0003 69.072 45.8495 69.0945 45.6836H66.5059C66.378 45.6836 66.378 45.6836 66.378 45.5554C66.378 44.937 66.378 44.3112 66.378 43.6853C66.3825 43.5168 66.4182 43.3505 66.4834 43.1951C66.5471 43.0448 66.6512 42.9152 66.784 42.8207C66.9169 42.7262 67.0733 42.6705 67.2359 42.6597C67.3749 42.6335 67.5158 42.6184 67.6573 42.6145H69.0795C69.1773 42.6145 69.2074 42.6145 69.2074 42.4938C69.2074 41.7398 69.2074 40.9857 69.2074 40.2316C69.2074 40.1487 69.2074 40.1034 69.087 40.1034C68.7108 40.1034 68.3345 40.0431 67.9658 40.028C67.5971 40.0129 67.2133 40.028 66.8521 40.028C66.1136 40.0347 65.3955 40.2719 64.7978 40.7067C64.2444 41.1363 63.8498 41.7387 63.6766 42.4184C63.578 42.7848 63.5274 43.1625 63.526 43.542V45.578C63.526 45.676 63.5261 45.6987 63.4057 45.6987H61.2685C61.1406 45.6987 61.1406 45.6987 61.1406 45.8193V48.3379C61.1406 48.436 61.1632 48.4586 61.2535 48.4586Z" fill="white"/>
<path d="M190.939 42.3051H85.9431C83.6989 42.3051 81.8796 44.1282 81.8796 46.3771C81.8796 48.626 83.6989 50.4492 85.9431 50.4492H190.939C193.184 50.4492 195.003 48.626 195.003 46.3771C195.003 44.1282 193.184 42.3051 190.939 42.3051Z" fill="white"/>
<path d="M210.753 51.1431C213.496 51.1431 215.719 48.9149 215.719 46.1662C215.719 43.4175 213.496 41.1893 210.753 41.1893C208.01 41.1893 205.786 43.4175 205.786 46.1662C205.786 48.9149 208.01 51.1431 210.753 51.1431Z" fill="white"/>
<path d="M225.517 51.1431C228.26 51.1431 230.483 48.9149 230.483 46.1662C230.483 43.4175 228.26 41.1893 225.517 41.1893C222.774 41.1893 220.55 43.4175 220.55 46.1662C220.55 48.9149 222.774 51.1431 225.517 51.1431Z" fill="white"/>
<path d="M240.288 51.1431C243.031 51.1431 245.255 48.9149 245.255 46.1662C245.255 43.4175 243.031 41.1893 240.288 41.1893C237.545 41.1893 235.322 43.4175 235.322 46.1662C235.322 48.9149 237.545 51.1431 240.288 51.1431Z" fill="white"/>
<path d="M190.736 104.351H108.443C107.213 104.351 106.033 103.862 105.162 102.991C104.292 102.12 103.802 100.938 103.8 99.7057V75.1077C103.802 73.8744 104.292 72.6921 105.162 71.82C106.032 70.9479 107.212 70.4571 108.443 70.4551H190.736C191.967 70.4571 193.147 70.9479 194.017 71.82C194.887 72.6921 195.377 73.8744 195.379 75.1077V99.7057C195.377 100.938 194.887 102.12 194.017 102.991C193.146 103.862 191.966 104.351 190.736 104.351ZM108.443 71.2092C107.412 71.2111 106.423 71.6225 105.694 72.3532C104.965 73.0839 104.554 74.0744 104.552 75.1077V99.7057C104.554 100.738 104.965 101.728 105.695 102.458C106.424 103.187 107.412 103.597 108.443 103.597H190.736C191.767 103.597 192.755 103.187 193.485 102.458C194.214 101.728 194.625 100.738 194.627 99.7057V75.1077C194.625 74.0744 194.214 73.0839 193.485 72.3532C192.756 71.6225 191.767 71.2111 190.736 71.2092H108.443Z" fill="#D1D3D4"/>
<path d="M187.794 88.9149H112.123C111.723 88.9149 111.341 88.756 111.058 88.4731C110.776 88.1903 110.618 87.8067 110.618 87.4067C110.618 87.0067 110.776 86.6231 111.058 86.3403C111.341 86.0575 111.723 85.8986 112.123 85.8986H187.794C188.193 85.8986 188.576 86.0575 188.858 86.3403C189.14 86.6231 189.299 87.0067 189.299 87.4067C189.299 87.8067 189.14 88.1903 188.858 88.4731C188.576 88.756 188.193 88.9149 187.794 88.9149Z" fill="#D1D3D4"/>
<path d="M182.21 97.1494H112.123C111.723 97.1494 111.341 96.9905 111.058 96.7077C110.776 96.4249 110.618 96.0413 110.618 95.6413C110.618 95.2413 110.776 94.8577 111.058 94.5748C111.341 94.292 111.723 94.1331 112.123 94.1331H182.233C182.632 94.1331 183.015 94.292 183.297 94.5748C183.579 94.8577 183.738 95.2413 183.738 95.6413C183.738 96.0413 183.579 96.4249 183.297 96.7077C183.015 96.9905 182.632 97.1494 182.233 97.1494H182.21Z" fill="#D1D3D4"/>
<path d="M190.736 144.475H108.443C107.212 144.473 106.032 143.982 105.162 143.11C104.292 142.238 103.802 141.056 103.8 139.823V115.225C103.802 113.992 104.292 112.811 105.162 111.94C106.033 111.069 107.213 110.58 108.443 110.58H190.736C191.966 110.58 193.146 111.069 194.017 111.94C194.887 112.811 195.377 113.992 195.379 115.225V139.823C195.377 141.056 194.887 142.238 194.017 143.11C193.147 143.982 191.967 144.473 190.736 144.475ZM108.443 111.296C107.412 111.296 106.424 111.706 105.695 112.435C104.965 113.165 104.554 114.154 104.552 115.187V139.785C104.554 140.818 104.965 141.809 105.694 142.539C106.423 143.27 107.412 143.682 108.443 143.684H190.736C191.767 143.682 192.756 143.27 193.485 142.539C194.214 141.809 194.625 140.818 194.627 139.785V115.225C194.625 114.192 194.214 113.202 193.485 112.473C192.755 111.743 191.767 111.334 190.736 111.334L108.443 111.296Z" fill="#D1D3D4"/>
<path d="M187.794 129.024H112.123C111.723 129.024 111.341 128.865 111.058 128.583C110.776 128.3 110.618 127.916 110.618 127.516C110.618 127.116 110.776 126.732 111.058 126.45C111.341 126.167 111.723 126.008 112.123 126.008H187.794C188.193 126.008 188.576 126.167 188.858 126.45C189.14 126.732 189.299 127.116 189.299 127.516C189.299 127.916 189.14 128.3 188.858 128.583C188.576 128.865 188.193 129.024 187.794 129.024Z" fill="#D1D3D4"/>
<path d="M182.21 137.266H112.123C111.723 137.266 111.341 137.107 111.058 136.824C110.776 136.542 110.618 136.158 110.618 135.758C110.618 135.358 110.776 134.974 111.058 134.692C111.341 134.409 111.723 134.25 112.123 134.25H182.233C182.632 134.25 183.015 134.409 183.297 134.692C183.579 134.974 183.738 135.358 183.738 135.758C183.738 136.158 183.579 136.542 183.297 136.824C183.015 137.107 182.632 137.266 182.233 137.266H182.21Z" fill="#D1D3D4"/>
<path d="M190.736 184.592H108.443C107.213 184.592 106.033 184.103 105.162 183.232C104.292 182.361 103.802 181.18 103.8 179.947V155.349C103.802 154.116 104.292 152.933 105.162 152.061C106.032 151.189 107.212 150.698 108.443 150.696H190.736C191.967 150.698 193.147 151.189 194.017 152.061C194.887 152.933 195.377 154.116 195.379 155.349V179.947C195.377 181.18 194.887 182.361 194.017 183.232C193.146 184.103 191.966 184.592 190.736 184.592ZM108.443 151.45C107.412 151.452 106.423 151.864 105.694 152.594C104.965 153.325 104.554 154.316 104.552 155.349V179.947C104.554 180.98 104.965 181.969 105.695 182.699C106.424 183.428 107.412 183.838 108.443 183.838H190.736C191.767 183.838 192.755 183.428 193.485 182.699C194.214 181.969 194.625 180.98 194.627 179.947V155.349C194.625 154.316 194.214 153.325 193.485 152.594C192.756 151.864 191.767 151.452 190.736 151.45H108.443Z" fill="#D1D3D4"/>
<path d="M187.794 169.156H112.123C111.723 169.156 111.341 168.998 111.058 168.715C110.776 168.432 110.618 168.048 110.618 167.648C110.618 167.248 110.776 166.865 111.058 166.582C111.341 166.299 111.723 166.14 112.123 166.14H187.794C188.193 166.14 188.576 166.299 188.858 166.582C189.14 166.865 189.299 167.248 189.299 167.648C189.299 168.048 189.14 168.432 188.858 168.715C188.576 168.998 188.193 169.156 187.794 169.156Z" fill="#D1D3D4"/>
<path d="M182.21 177.391H112.123C111.723 177.391 111.341 177.232 111.058 176.949C110.776 176.666 110.618 176.282 110.618 175.882C110.618 175.483 110.776 175.099 111.058 174.816C111.341 174.533 111.723 174.374 112.123 174.374H182.233C182.632 174.374 183.015 174.533 183.297 174.816C183.579 175.099 183.738 175.483 183.738 175.882C183.738 176.282 183.579 176.666 183.297 176.949C183.015 177.232 182.632 177.391 182.233 177.391H182.21Z" fill="#D1D3D4"/>
<path d="M57.9951 133.805C57.2703 133.805 56.5618 133.59 55.9591 133.186C55.3565 132.783 54.8868 132.209 54.6094 131.538C54.332 130.867 54.2595 130.129 54.4009 129.416C54.5423 128.704 54.8913 128.049 55.4038 127.536C55.9163 127.022 56.5693 126.672 57.2802 126.531C57.9911 126.389 58.7279 126.462 59.3975 126.74C60.0672 127.018 60.6395 127.488 61.0422 128.092C61.4449 128.696 61.6598 129.406 61.6598 130.133C61.6598 131.107 61.2737 132.041 60.5864 132.729C59.8992 133.418 58.9671 133.805 57.9951 133.805ZM57.9951 127.214C57.4191 127.214 56.8561 127.385 56.3772 127.706C55.8983 128.027 55.525 128.483 55.3046 129.016C55.0842 129.549 55.0265 130.136 55.1389 130.702C55.2513 131.268 55.5286 131.788 55.9359 132.196C56.3432 132.604 56.8621 132.882 57.427 132.995C57.9919 133.107 58.5774 133.05 59.1096 132.829C59.6417 132.608 60.0965 132.234 60.4165 131.754C60.7365 131.274 60.9073 130.71 60.9073 130.133C60.9073 129.359 60.6005 128.616 60.0543 128.069C59.5082 127.522 58.7675 127.214 57.9951 127.214Z" fill="#D1D3D4"/>
<path d="M92.3843 131.641H65.9114C65.5122 131.641 65.1294 131.482 64.8472 131.199C64.5649 130.916 64.4064 130.533 64.4064 130.133C64.4064 129.733 64.5649 129.349 64.8472 129.066C65.1294 128.783 65.5122 128.625 65.9114 128.625H92.3843C92.7835 128.625 93.1663 128.783 93.4485 129.066C93.7308 129.349 93.8893 129.733 93.8893 130.133C93.8893 130.533 93.7308 130.916 93.4485 131.199C93.1663 131.482 92.7835 131.641 92.3843 131.641Z" fill="#D1D3D4"/>
<path d="M57.995 146.572C57.2684 146.573 56.5577 146.359 55.9528 145.955C55.3479 145.552 54.8761 144.977 54.597 144.305C54.3179 143.633 54.2441 142.893 54.385 142.178C54.5258 141.464 54.8749 140.808 55.3882 140.292C55.9015 139.777 56.5558 139.426 57.2683 139.283C57.9809 139.14 58.7196 139.213 59.3911 139.491C60.0625 139.769 60.6365 140.241 61.0403 140.846C61.4441 141.452 61.6597 142.164 61.6597 142.892C61.6597 143.866 61.2739 144.801 60.5868 145.491C59.8998 146.181 58.9677 146.57 57.995 146.572ZM57.995 139.973C57.4169 139.972 56.8514 140.142 56.3701 140.463C55.8888 140.784 55.5134 141.241 55.2915 141.776C55.0696 142.311 55.0111 142.9 55.1236 143.468C55.236 144.036 55.5142 144.558 55.923 144.968C56.3318 145.378 56.8527 145.657 57.4198 145.769C57.9868 145.882 58.5745 145.823 59.1083 145.601C59.6421 145.378 60.098 145.002 60.4183 144.52C60.7385 144.038 60.9087 143.471 60.9072 142.892C60.9072 142.118 60.6004 141.375 60.0543 140.828C59.5081 140.281 58.7674 139.973 57.995 139.973Z" fill="#D1D3D4"/>
<path d="M92.3843 144.4H65.9114C65.5122 144.4 65.1294 144.241 64.8472 143.958C64.5649 143.675 64.4064 143.292 64.4064 142.892C64.4064 142.492 64.5649 142.108 64.8472 141.825C65.1294 141.542 65.5122 141.383 65.9114 141.383H92.3843C92.7835 141.383 93.1663 141.542 93.4485 141.825C93.7308 142.108 93.8893 142.492 93.8893 142.892C93.8893 143.292 93.7308 143.675 93.4485 143.958C93.1663 144.241 92.7835 144.4 92.3843 144.4Z" fill="#D1D3D4"/>
<path d="M57.9951 159.33C57.2703 159.33 56.5618 159.115 55.9591 158.711C55.3565 158.308 54.8868 157.734 54.6094 157.063C54.332 156.392 54.2595 155.654 54.4009 154.941C54.5423 154.229 54.8913 153.575 55.4038 153.061C55.9163 152.548 56.5693 152.198 57.2802 152.056C57.9911 151.914 58.7279 151.987 59.3975 152.265C60.0672 152.543 60.6395 153.014 61.0422 153.618C61.4449 154.222 61.6598 154.932 61.6598 155.658C61.6578 156.631 61.2711 157.564 60.5842 158.252C59.8974 158.941 58.9664 159.328 57.9951 159.33ZM57.9951 152.74C57.4191 152.74 56.8561 152.911 56.3772 153.231C55.8983 153.552 55.525 154.008 55.3046 154.541C55.0842 155.074 55.0265 155.661 55.1389 156.227C55.2513 156.793 55.5286 157.313 55.9359 157.721C56.3432 158.13 56.8621 158.407 57.427 158.52C57.9919 158.633 58.5774 158.575 59.1096 158.354C59.6417 158.133 60.0965 157.759 60.4165 157.279C60.7365 156.799 60.9073 156.235 60.9073 155.658C60.9073 154.884 60.6005 154.142 60.0543 153.594C59.5082 153.047 58.7675 152.74 57.9951 152.74Z" fill="#D1D3D4"/>
<path d="M92.3843 157.166H65.9114C65.5122 157.166 65.1294 157.007 64.8472 156.724C64.5649 156.442 64.4064 156.058 64.4064 155.658C64.4064 155.258 64.5649 154.874 64.8472 154.592C65.1294 154.309 65.5122 154.15 65.9114 154.15H92.3843C92.7835 154.15 93.1663 154.309 93.4485 154.592C93.7308 154.874 93.8893 155.258 93.8893 155.658C93.8893 156.058 93.7308 156.442 93.4485 156.724C93.1663 157.007 92.7835 157.166 92.3843 157.166Z" fill="#D1D3D4"/>
<path d="M241.56 70.832H208.232C204.62 70.832 201.693 73.7659 201.693 77.385V108.521C201.693 112.14 204.62 115.074 208.232 115.074H241.56C245.171 115.074 248.099 112.14 248.099 108.521V77.385C248.099 73.7659 245.171 70.832 241.56 70.832Z" fill="#F14736"/>
<path d="M241.56 123.587H208.232C204.62 123.587 201.693 126.521 201.693 130.14V161.276C201.693 164.895 204.62 167.829 208.232 167.829H241.56C245.171 167.829 248.099 164.895 248.099 161.276V130.14C248.099 126.521 245.171 123.587 241.56 123.587Z" fill="white"/>
<path d="M241.552 168.236H208.217C206.384 168.234 204.628 167.505 203.331 166.207C202.035 164.91 201.305 163.15 201.301 161.314V130.171C201.303 128.333 202.032 126.572 203.329 125.273C204.625 123.973 206.383 123.243 208.217 123.241H241.552C243.385 123.243 245.142 123.974 246.437 125.273C247.733 126.572 248.46 128.334 248.46 130.171V161.314C248.458 163.149 247.73 164.909 246.435 166.207C245.14 167.504 243.384 168.234 241.552 168.236ZM208.217 123.995C206.583 123.997 205.016 124.648 203.861 125.806C202.706 126.964 202.056 128.533 202.054 130.171V161.314C202.058 162.95 202.708 164.518 203.864 165.674C205.019 166.83 206.584 167.48 208.217 167.482H241.552C243.184 167.48 244.749 166.83 245.903 165.673C247.057 164.517 247.706 162.949 247.708 161.314V130.171C247.708 128.534 247.06 126.964 245.905 125.806C244.751 124.648 243.186 123.997 241.552 123.995H208.217Z" fill="#231F20"/>
<path d="M210.279 86.1475H214.794L219.73 99.7661H215.087L214.425 97.7678H210.391L209.759 99.7661H205.244L210.279 86.1475ZM212.483 90.8982L211.453 94.2614H213.514L212.483 90.8982Z" fill="white"/>
<path d="M220.656 99.7658V86.1472H225.389C226.358 86.143 227.325 86.2492 228.271 86.4639C229.144 86.6589 229.966 87.0339 230.686 87.5649C231.404 88.1075 231.98 88.8165 232.365 89.6311C233.177 91.6665 233.177 93.9373 232.365 95.9728C231.995 96.8008 231.444 97.5352 230.754 98.122C230.074 98.6839 229.288 99.1043 228.444 99.3586C227.562 99.6313 226.643 99.7686 225.72 99.7658H220.656ZM224.764 90.0307V95.8446H225.554C226.384 95.9004 227.205 95.651 227.865 95.1434C228.154 94.8468 228.375 94.4911 228.514 94.1006C228.653 93.7101 228.706 93.2941 228.67 92.8811C228.692 92.5001 228.631 92.1188 228.492 91.7635C228.353 91.4082 228.139 91.0872 227.865 90.8225C227.27 90.3043 226.5 90.0344 225.712 90.0684L224.764 90.0307Z" fill="white"/>
<path d="M238.949 100.151C238.444 100.148 237.94 100.1 237.444 100.007C236.956 99.91 236.477 99.7687 236.014 99.5851C235.563 99.4055 235.128 99.1886 234.712 98.9366C234.317 98.6975 233.949 98.4169 233.614 98.0996L236.217 95.0833C236.555 95.4612 236.958 95.7753 237.406 96.0108C237.867 96.2677 238.384 96.4051 238.911 96.4105C239.136 96.4125 239.359 96.3689 239.566 96.2823C239.66 96.238 239.739 96.166 239.792 96.0757C239.844 95.9854 239.868 95.8812 239.859 95.777C239.864 95.661 239.829 95.5469 239.762 95.4528C239.669 95.3348 239.55 95.2394 239.415 95.1738C239.193 95.0501 238.962 94.9442 238.723 94.8571C238.43 94.7364 238.061 94.6007 237.624 94.4499C237.198 94.2956 236.783 94.1117 236.383 93.8994C235.998 93.7022 235.646 93.448 235.337 93.1453C235.016 92.8291 234.76 92.4524 234.584 92.0368C234.395 91.5416 234.305 91.0136 234.321 90.4834C234.297 89.7353 234.463 88.9933 234.803 88.3268C235.108 87.7584 235.531 87.2622 236.044 86.8714C236.567 86.484 237.16 86.2023 237.79 86.0419C238.403 85.8727 239.036 85.7864 239.671 85.7855C240.549 85.7937 241.418 85.9703 242.23 86.3058C243.077 86.6493 243.845 87.1625 244.487 87.814L241.838 90.7172C241.574 90.3326 241.217 90.0213 240.8 89.8123C240.45 89.6324 240.065 89.532 239.671 89.5182C239.413 89.5072 239.155 89.5562 238.919 89.6615C238.829 89.7011 238.754 89.7671 238.703 89.8506C238.652 89.9341 238.627 90.0312 238.633 90.129C238.631 90.2262 238.657 90.3218 238.71 90.4037C238.762 90.4856 238.837 90.5501 238.926 90.589C239.238 90.7397 239.56 90.8682 239.889 90.9736C240.341 91.1319 240.823 91.3129 241.319 91.5165C241.819 91.7154 242.288 91.9846 242.711 92.3158C243.136 92.6414 243.492 93.0491 243.757 93.5148C244.051 94.0577 244.194 94.6697 244.171 95.2869C244.189 96.027 244.032 96.7609 243.712 97.4285C243.429 98.0131 243.02 98.528 242.516 98.9366C242.02 99.344 241.45 99.6513 240.838 99.8415C240.228 100.044 239.591 100.148 238.949 100.151Z" fill="white"/>
<path d="M210.279 138.902H214.794L219.73 152.514H215.087L214.462 150.515H210.429L209.797 152.514H205.282L210.279 138.902ZM212.483 143.653L211.452 147.016H213.514L212.483 143.653Z" fill="#231F20"/>
<path d="M220.656 152.514V138.902H225.389C226.358 138.898 227.325 139.004 228.271 139.219C229.142 139.415 229.964 139.787 230.686 140.313C231.405 140.858 231.98 141.569 232.365 142.386C233.177 144.422 233.177 146.693 232.365 148.728C231.995 149.554 231.444 150.286 230.754 150.87C230.074 151.434 229.289 151.857 228.444 152.114C227.561 152.38 226.643 152.515 225.72 152.514H220.656ZM224.764 142.786V148.577H225.554C226.384 148.633 227.205 148.384 227.865 147.876C228.154 147.579 228.375 147.224 228.514 146.833C228.653 146.443 228.706 146.027 228.67 145.614C228.693 145.233 228.633 144.851 228.494 144.495C228.355 144.14 228.14 143.819 227.865 143.555C227.27 143.037 226.5 142.767 225.712 142.801L224.764 142.786Z" fill="#231F20"/>
<path d="M238.949 152.898C238.444 152.899 237.94 152.851 237.444 152.755C236.954 152.665 236.475 152.523 236.014 152.333C235.562 152.156 235.126 151.939 234.712 151.684C234.319 151.445 233.951 151.167 233.614 150.855L236.217 147.838C236.555 148.216 236.958 148.53 237.406 148.766C237.868 149.019 238.385 149.157 238.911 149.165C239.137 149.169 239.36 149.122 239.566 149.03C239.66 148.988 239.74 148.917 239.792 148.828C239.845 148.739 239.868 148.635 239.859 148.532C239.864 148.414 239.829 148.297 239.762 148.2C239.667 148.084 239.549 147.989 239.415 147.921C239.19 147.804 238.959 147.698 238.723 147.604C238.43 147.491 238.061 147.356 237.624 147.205C237.198 147.051 236.783 146.867 236.383 146.654C235.999 146.457 235.646 146.203 235.337 145.9C235.016 145.584 234.76 145.207 234.584 144.792C234.4 144.311 234.31 143.799 234.321 143.284C234.292 142.586 234.434 141.893 234.735 141.263C235.035 140.633 235.485 140.087 236.044 139.672C236.559 139.291 237.141 139.012 237.76 138.85C238.374 138.686 239.006 138.603 239.641 138.601C240.519 138.609 241.388 138.786 242.2 139.121C243.047 139.465 243.815 139.978 244.457 140.629L241.808 143.532C241.556 143.141 241.209 142.819 240.8 142.597C240.452 142.412 240.066 142.309 239.671 142.296C239.413 142.289 239.156 142.337 238.919 142.439C238.831 142.482 238.758 142.548 238.706 142.631C238.655 142.714 238.627 142.809 238.627 142.907C238.627 143.004 238.655 143.099 238.706 143.182C238.758 143.265 238.831 143.331 238.919 143.374C239.23 143.525 239.552 143.653 239.882 143.759C240.333 143.909 240.815 144.09 241.312 144.294C241.808 144.499 242.276 144.768 242.704 145.093C243.128 145.424 243.483 145.833 243.75 146.3C244.043 146.84 244.186 147.45 244.164 148.064C244.182 148.807 244.025 149.544 243.705 150.214C243.417 150.796 243.009 151.31 242.508 151.722C242.011 152.126 241.441 152.433 240.83 152.627C240.22 152.812 239.586 152.903 238.949 152.898Z" fill="#231F20"/>
<path d="M89.299 118.264H59.0711C57.9703 118.265 56.8974 117.916 56.0074 117.267C55.1174 116.618 54.4563 115.702 54.1197 114.652C53.9476 114.134 53.8612 113.591 53.8638 113.045V75.6733C53.8638 74.2893 54.4125 72.9621 55.389 71.9835C56.3656 71.0048 57.6901 70.4551 59.0711 70.4551H89.299C89.9829 70.4551 90.66 70.59 91.2918 70.8523C91.9236 71.1145 92.4976 71.4989 92.9812 71.9835C93.4647 72.468 93.8483 73.0433 94.11 73.6764C94.3717 74.3095 94.5063 74.988 94.5063 75.6733V113.045C94.5044 114.429 93.9551 115.755 92.979 116.733C92.0028 117.711 90.6795 118.262 89.299 118.264ZM59.0711 71.2092C57.8903 71.2111 56.7583 71.6821 55.9233 72.5189C55.0883 73.3556 54.6183 74.4899 54.6163 75.6733V113.045C54.616 113.512 54.6897 113.975 54.8346 114.418C55.122 115.317 55.6874 116.101 56.449 116.657C57.2106 117.213 58.129 117.511 59.0711 117.509H89.299C90.4799 117.507 91.6119 117.037 92.4469 116.2C93.2819 115.363 93.7519 114.229 93.7538 113.045V75.6733C93.7519 74.4899 93.2819 73.3556 92.4469 72.5189C91.6119 71.6821 90.4799 71.2111 89.299 71.2092H59.0711Z" fill="#D1D3D4"/>
<path d="M94.1304 111.756V113.045C94.1304 114.329 93.6214 115.561 92.7154 116.468C91.8094 117.376 90.5806 117.886 89.2993 117.886H59.0714C58.0493 117.886 57.0536 117.561 56.2275 116.958C55.4013 116.355 54.7873 115.505 54.4736 114.531C55.9109 110.466 59.6584 104.894 69.4333 103.385C71.2338 103.111 73.0528 102.977 74.8739 102.986C76.4131 102.982 77.9511 103.073 79.4792 103.257C87.8997 104.268 92.0685 108.159 94.1304 111.756Z" fill="#F14736"/>
<path d="M83.249 90.1666C83.249 90.1666 83.6253 79.7603 83.249 79.0062C82.8728 78.2522 64.4365 74.61 64.6322 75.085C64.8278 75.5601 65.4675 76.9929 65.4675 76.9929L63.0219 77.6564L65.4675 78.9082L63.0294 80.0092L66.2877 81.5701L66.521 90.4456L83.249 90.1666Z" fill="white"/>
<path d="M66.5211 90.8678C66.4199 90.8679 66.3226 90.8287 66.2496 90.7584C66.1767 90.688 66.1337 90.5921 66.1298 90.4908L65.9041 81.8491L62.8941 80.3937C62.8282 80.3611 62.7727 80.3106 62.7341 80.2479C62.6955 80.1852 62.6753 80.1129 62.6758 80.0393C62.6765 79.9659 62.6981 79.8943 62.7381 79.8328C62.7781 79.7713 62.8349 79.7226 62.9016 79.6924L64.6474 78.8855L62.8715 77.9656C62.8036 77.9267 62.7483 77.8691 62.7122 77.7995C62.6762 77.73 62.6609 77.6515 62.6683 77.5734C62.6766 77.4955 62.7084 77.422 62.7595 77.3627C62.8106 77.3034 62.8786 77.2612 62.9543 77.2417L64.9559 76.6987C64.7452 76.2463 64.4292 75.545 64.3088 75.1906C64.272 75.0921 64.2732 74.9834 64.3122 74.8858C64.3512 74.7882 64.4251 74.7086 64.5195 74.6627C65.1064 74.3988 72.0445 75.7938 74.1515 76.2312C83.2868 78.1013 83.5126 78.5688 83.6254 78.795C84.0167 79.5491 83.7534 87.6781 83.6706 90.1062C83.665 90.2057 83.6226 90.2995 83.5516 90.3692C83.4806 90.439 83.3862 90.4796 83.2868 90.4832L66.5587 90.7924L66.5211 90.8678ZM63.9626 80.0468L66.4684 81.2458C66.5332 81.2778 66.5879 81.3271 66.6264 81.3884C66.6649 81.4496 66.6858 81.5203 66.6867 81.5927L66.9124 90.0836L82.888 89.7819C83.0535 85.1217 83.1213 80.0242 82.9331 79.2249C81.7442 78.5688 68.1616 75.6958 65.2268 75.4545C65.4827 76.0351 65.8288 76.7967 65.8363 76.8118C65.8585 76.863 65.8699 76.9182 65.8699 76.974C65.8699 77.0297 65.8585 77.0849 65.8363 77.1361C65.8113 77.1876 65.7755 77.2331 65.7313 77.2695C65.6872 77.306 65.6358 77.3325 65.5805 77.3472L64.0755 77.7469L65.6708 78.5764C65.7357 78.6089 65.7904 78.659 65.8286 78.7209C65.8667 78.7829 65.8869 78.8542 65.8869 78.927C65.8869 78.9998 65.8667 79.0712 65.8286 79.1331C65.7904 79.195 65.7357 79.2451 65.6708 79.2777L63.9626 80.0468Z" fill="#231F20"/>
<path d="M80.4347 90.5662C80.8862 87.7308 85.5743 87.0371 85.341 90.3701C85.308 91.5309 84.8654 92.6424 84.0918 93.5071C83.7006 93.9302 83.193 94.2277 82.6332 94.3619C82.0733 94.4961 81.4864 94.4611 80.9464 94.2612" fill="white"/>
<path d="M81.9246 94.8342C81.5337 94.8369 81.1466 94.7573 80.7884 94.6005C80.6953 94.5577 80.6226 94.48 80.586 94.3841C80.5495 94.2883 80.5519 94.1818 80.5927 94.0877C80.6354 93.9944 80.7129 93.9216 80.8086 93.885C80.9043 93.8483 81.0105 93.8507 81.1044 93.8916C81.5704 94.0603 82.0756 94.0881 82.5573 93.9714C83.0389 93.8548 83.4757 93.5989 83.8134 93.2356C84.5229 92.4384 84.9281 91.4153 84.9572 90.3475C84.9993 90.142 84.9981 89.9299 84.9538 89.7248C84.9094 89.5198 84.8229 89.3263 84.6996 89.1567C84.5764 88.987 84.4192 88.845 84.2381 88.7398C84.057 88.6345 83.856 88.5682 83.6479 88.5452C83.0034 88.483 82.3587 88.6608 81.8368 89.0447C81.3149 89.4287 80.9524 89.9917 80.8185 90.6265C80.8 90.7273 80.7437 90.8171 80.6611 90.8774C80.5784 90.9378 80.4759 90.964 80.3745 90.9507C80.3231 90.9435 80.2736 90.9259 80.2292 90.8989C80.1848 90.872 80.1463 90.8362 80.116 90.7939C80.0858 90.7516 80.0644 90.7036 80.0532 90.6528C80.042 90.602 80.0412 90.5494 80.0509 90.4983C80.212 89.6643 80.6794 88.9212 81.3607 88.4158C82.042 87.9104 82.8876 87.6794 83.7306 87.7685C84.0388 87.7993 84.3374 87.8933 84.6078 88.0446C84.8782 88.196 85.1147 88.4015 85.3024 88.6483C85.4902 88.8952 85.6252 89.1781 85.6992 89.4795C85.7731 89.7809 85.7844 90.0943 85.7323 90.4003C85.687 91.6514 85.205 92.847 84.3703 93.7785C84.0523 94.1076 83.6726 94.3703 83.2528 94.5515C82.833 94.7327 82.3816 94.8288 81.9246 94.8342Z" fill="#231F20"/>
<path d="M68.741 90.5662C68.2895 87.7308 63.6014 87.0371 63.8347 90.3701C63.8677 91.5309 64.3103 92.6424 65.0839 93.5071C65.4757 93.9294 65.9832 94.2263 66.5429 94.3604C67.1025 94.4946 67.6892 94.4601 68.2293 94.2612" fill="white"/>
<path d="M67.251 94.8342C66.7941 94.8279 66.3429 94.7315 65.9233 94.5503C65.5037 94.3692 65.1238 94.1069 64.8054 93.7785C63.9684 92.8484 63.4861 91.652 63.4433 90.4003C63.3912 90.0926 63.4032 89.7774 63.4785 89.4746C63.5538 89.1718 63.6909 88.8879 63.881 88.6407C64.0711 88.3935 64.3102 88.1884 64.5832 88.0383C64.8563 87.8883 65.1574 87.7964 65.4676 87.7685C66.3105 87.6794 67.1562 87.9104 67.8375 88.4158C68.5188 88.9212 68.9862 89.6643 69.1473 90.4983C69.157 90.5489 69.1565 90.6009 69.1457 90.6513C69.135 90.7017 69.1143 90.7494 69.0848 90.7916C69.0553 90.8338 69.0177 90.8696 68.9741 90.8969C68.9306 90.9243 68.882 90.9426 68.8312 90.9507C68.7287 90.9661 68.6242 90.9409 68.5399 90.8803C68.4556 90.8198 68.3982 90.7287 68.3797 90.6265C68.2475 89.9923 67.8864 89.4294 67.3658 89.0454C66.8451 88.6613 66.2014 88.4833 65.5579 88.5452C65.3491 88.5673 65.1472 88.6328 64.9652 88.7377C64.7832 88.8425 64.6252 88.9844 64.5011 89.1541C64.3771 89.3238 64.2899 89.5177 64.2451 89.7232C64.2003 89.9287 64.1989 90.1414 64.241 90.3475C64.2758 91.4141 64.6802 92.4353 65.3848 93.2356C65.7225 93.5989 66.1593 93.8548 66.6409 93.9714C67.1226 94.088 67.6278 94.0603 68.0938 93.8916C68.1402 93.8708 68.1903 93.8594 68.2411 93.858C68.292 93.8566 68.3426 93.8653 68.3901 93.8835C68.4377 93.9017 68.4811 93.9291 68.5181 93.9641C68.555 93.9992 68.5847 94.0411 68.6055 94.0877C68.6262 94.1342 68.6376 94.1844 68.639 94.2354C68.6404 94.2863 68.6318 94.3371 68.6136 94.3847C68.5955 94.4323 68.5681 94.4759 68.5331 94.5129C68.4982 94.5499 68.4563 94.5797 68.4098 94.6005C68.0448 94.7611 67.6495 94.8408 67.251 94.8342Z" fill="#231F20"/>
<path d="M69.3655 104.713C69.8533 105.595 70.5778 106.322 71.4569 106.812C72.336 107.303 73.3345 107.537 74.3395 107.488C75.373 107.517 76.3963 107.277 77.3092 106.79C78.222 106.304 78.9931 105.588 79.5468 104.713L79.0502 93.8315H69.8621L69.3655 104.713Z" fill="white"/>
<path d="M74.3394 107.91C73.2586 107.964 72.1847 107.709 71.2428 107.175C70.3009 106.641 69.5298 105.85 69.0192 104.894C69.0051 104.834 69.0051 104.772 69.0192 104.713L69.5159 93.8316C69.5197 93.7315 69.5616 93.6367 69.633 93.5666C69.7043 93.4965 69.7997 93.4564 69.8997 93.4545H79.0877C79.1884 93.4563 79.2846 93.4961 79.3572 93.566C79.4298 93.636 79.4733 93.7308 79.479 93.8316L79.9681 104.713C79.9748 104.784 79.959 104.855 79.923 104.917C79.3372 105.864 78.5126 106.639 77.5323 107.165C76.5519 107.69 75.4506 107.947 74.3394 107.91ZM69.7642 104.668C70.2279 105.46 70.9 106.108 71.7069 106.543C72.5138 106.978 73.4245 107.182 74.3394 107.133C75.2863 107.163 76.2251 106.951 77.0676 106.517C77.9101 106.083 78.6286 105.442 79.1554 104.653L78.6813 94.2614H70.2383L69.7642 104.668Z" fill="#231F20"/>
<path d="M69.8621 98.4917C70.5716 99.5219 71.5259 100.359 72.6389 100.927C74.4599 101.938 77.1539 103.069 79.4114 102.73L79.0125 98.1071C77.3928 98.2998 75.756 98.2998 74.1363 98.1071C72.7211 98.0733 71.3197 97.8189 69.9825 97.353C69.7267 97.2474 69.5837 98.0468 69.8621 98.4917Z" fill="#231F20"/>
<path d="M78.5534 103.167C76.2959 103.167 73.8201 102.005 72.4581 101.259C71.2864 100.662 70.2845 99.7772 69.5459 98.6876C69.4067 98.4539 69.3333 98.1868 69.3333 97.9146C69.3333 97.6425 69.4067 97.3754 69.5459 97.1417C69.6096 97.0591 69.6994 97.0007 69.8006 96.976C69.9018 96.9514 70.0084 96.9619 70.1028 97.006C71.4197 97.4598 72.797 97.714 74.1889 97.76C75.7787 97.9478 77.385 97.9478 78.9748 97.76C79.0762 97.7467 79.1789 97.7738 79.2607 97.8354C79.339 97.9029 79.3899 97.9968 79.4037 98.0994L79.7649 102.707C79.7717 102.801 79.743 102.894 79.6845 102.968C79.626 103.042 79.5419 103.092 79.4488 103.106C79.1523 103.149 78.8529 103.169 78.5534 103.167ZM70.0802 97.8053C70.0673 97.9721 70.1011 98.1393 70.178 98.2879C70.8526 99.2658 71.7606 100.059 72.8193 100.595C73.9405 101.221 76.6947 102.586 78.9898 102.405L78.6813 98.5518C77.1655 98.7142 75.6369 98.7142 74.1211 98.5518C72.7471 98.4835 71.3882 98.2325 70.0802 97.8053Z" fill="#231F20"/>
<path d="M74.2115 99.2156H74.964C75.8151 99.2166 76.6581 99.0493 77.4446 98.7234C78.2311 98.3975 78.9458 97.9193 79.5476 97.3162C80.1494 96.7131 80.6266 95.997 80.9519 95.2088C81.2771 94.4206 81.4441 93.5759 81.4431 92.723V82.4525H67.725V92.723C67.725 93.5763 67.8928 94.4211 68.2189 95.2094C68.545 95.9976 69.0229 96.7136 69.6253 97.3166C70.2277 97.9196 70.9429 98.3977 71.7298 98.7236C72.5167 99.0494 73.3601 99.2166 74.2115 99.2156Z" fill="white"/>
<path d="M81.4431 82.4522V92.7227C81.4441 93.5756 81.2772 94.4203 80.952 95.2085C80.6267 95.9967 80.1495 96.7128 79.5477 97.3159C78.9458 97.919 78.2312 98.3972 77.4447 98.7231C76.6582 99.0491 75.8152 99.2163 74.9641 99.2153H74.2116C73.3601 99.2163 72.5168 99.0491 71.7299 98.7233C70.9429 98.3974 70.2278 97.9193 69.6254 97.3164C69.0229 96.7134 68.545 95.9973 68.2189 95.2091C67.8929 94.4209 67.725 93.576 67.725 92.7227V82.4522H81.4356H81.4431ZM81.4356 81.6981H67.725C67.5255 81.6981 67.3341 81.7776 67.1929 81.919C67.0518 82.0604 66.9725 82.2522 66.9725 82.4522V92.7227C66.9745 94.6501 67.7394 96.4979 69.0994 97.8607C70.4594 99.2235 72.3033 99.99 74.2266 99.992H74.9791C76.9024 99.99 78.7464 99.2235 80.1064 97.8607C81.4663 96.4979 82.2313 94.6501 82.2332 92.7227V82.4522C82.2332 82.2522 82.154 82.0604 82.0128 81.919C81.8717 81.7776 81.6803 81.6981 81.4807 81.6981H81.4356Z" fill="#231F20"/>
<path d="M74.6931 93.0093C74.3736 93.0106 74.0543 92.9904 73.7374 92.949C73.6407 92.9385 73.5478 92.905 73.4667 92.8512C73.3855 92.7974 73.3184 92.7249 73.2709 92.6398C72.7667 91.8028 73.8202 88.8242 74.2943 87.58C74.3312 87.48 74.4062 87.3988 74.5029 87.3542C74.5996 87.3097 74.7099 87.3054 74.8097 87.3424C74.9095 87.3794 74.9906 87.4546 75.035 87.5515C75.0795 87.6484 75.0837 87.759 75.0468 87.859C74.2943 89.8045 73.8202 91.7274 73.9406 92.1874C74.5059 92.2466 75.0759 92.2466 75.6412 92.1874C75.6944 92.172 75.7502 92.1684 75.8048 92.1767C75.8595 92.185 75.9117 92.205 75.9579 92.2354C76.0041 92.2658 76.0432 92.3058 76.0726 92.3528C76.1019 92.3997 76.1208 92.4524 76.1279 92.5074C76.1351 92.5623 76.1303 92.6181 76.1139 92.671C76.0975 92.7239 76.0699 92.7726 76.0329 92.8139C75.996 92.8551 75.9506 92.8878 75.8999 92.9098C75.8492 92.9318 75.7943 92.9426 75.7391 92.9414C75.3925 92.989 75.0429 93.0116 74.6931 93.0093Z" fill="#231F20"/>
<path d="M65.4674 118.271C65.3711 118.27 65.2787 118.233 65.2079 118.167C65.1371 118.102 65.0928 118.013 65.0836 117.917L64.4515 111.017C64.4463 110.966 64.4511 110.915 64.4658 110.867C64.4804 110.818 64.5045 110.773 64.5367 110.733C64.5689 110.694 64.6085 110.662 64.6533 110.638C64.6981 110.614 64.7471 110.599 64.7976 110.595C64.9011 110.586 65.0038 110.618 65.0839 110.685C65.164 110.751 65.2152 110.846 65.2266 110.949L65.8587 117.849C65.867 117.952 65.8346 118.054 65.7684 118.133C65.7022 118.212 65.6075 118.262 65.505 118.271H65.4674Z" fill="#231F20"/>
<path d="M85.0926 118.271C84.9901 118.261 84.8955 118.212 84.8292 118.133C84.763 118.054 84.7306 117.952 84.739 117.849L85.3711 110.949C85.3806 110.846 85.4302 110.751 85.5091 110.685C85.588 110.619 85.6898 110.586 85.7925 110.595C85.8436 110.598 85.8935 110.612 85.9391 110.636C85.9848 110.659 86.0253 110.692 86.0583 110.731C86.0912 110.77 86.116 110.816 86.1311 110.865C86.1462 110.914 86.1513 110.966 86.1461 111.017L85.514 117.917C85.5045 118.019 85.4549 118.114 85.376 118.181C85.2971 118.247 85.1953 118.279 85.0926 118.271Z" fill="#231F20"/>
</svg>
