<svg width="474" height="358" viewBox="0 0 474 358" fill="none" xmlns="http://www.w3.org/2000/svg">
<path d="M341.695 76.4131C341.695 76.4131 338.934 71.3306 334.585 64.3126C334.585 64.3126 320.566 74.7981 320.685 74.2162C320.803 73.6344 341.695 76.4131 341.695 76.4131Z" fill="#231F20"/>
<path d="M341.695 77.0071H341.612C334.241 76.0214 322.19 74.5608 320.898 74.739C320.543 74.8815 320.448 74.8102 320.329 74.739C320.225 74.672 320.143 74.575 320.094 74.4606C320.045 74.3461 320.032 74.2197 320.057 74.0977C320.057 73.9315 320.128 73.7652 320.519 73.6702C321.336 73.3496 329.335 67.4716 334.194 63.8379C334.259 63.7885 334.334 63.7534 334.413 63.735C334.493 63.7166 334.576 63.7152 334.656 63.731C334.736 63.7441 334.812 63.7742 334.88 63.8193C334.947 63.8643 335.004 63.9233 335.047 63.9922C339.408 70.9509 342.157 76.0808 342.228 76.1283C342.286 76.2209 342.317 76.3279 342.317 76.4371C342.317 76.5463 342.286 76.6533 342.228 76.7458C342.17 76.8325 342.09 76.9023 341.996 76.9482C341.903 76.994 341.799 77.0144 341.695 77.0071ZM322.735 73.6346C325.318 73.7771 330.425 74.3352 340.569 75.6771C339.585 73.9077 337.37 70.0247 334.336 65.1797C328.008 69.9297 324.619 72.3877 322.77 73.6346H322.735Z" fill="#231F20"/>
<path d="M156.1 288.201L149.109 276.516L158.778 267.752L156.1 288.201Z" fill="#231F20"/>
<path d="M156.1 288.795C155.998 288.794 155.898 288.768 155.809 288.718C155.72 288.668 155.645 288.596 155.591 288.51L148.599 276.825C148.529 276.706 148.502 276.566 148.524 276.429C148.545 276.293 148.614 276.168 148.718 276.077L158.387 267.313C158.478 267.231 158.591 267.179 158.712 267.165C158.833 267.15 158.955 267.173 159.063 267.23C159.168 267.288 159.254 267.377 159.309 267.485C159.364 267.593 159.386 267.715 159.371 267.835L156.693 288.248C156.677 288.373 156.623 288.489 156.538 288.581C156.453 288.672 156.341 288.735 156.219 288.759L156.1 288.795ZM149.867 276.635L155.733 286.431L157.984 269.272L149.867 276.635Z" fill="#231F20"/>
<path d="M160.639 290.623L273.214 306.69C275.522 306.991 277.862 306.461 279.816 305.192C281.769 303.924 283.209 302.001 283.879 299.767L342.121 81.3888C343.306 76.8645 340.427 72.8864 335.651 72.4945L220.872 63.2203C218.602 63.1101 216.36 63.7663 214.506 65.0839C212.652 66.4014 211.293 68.3042 210.646 70.4877L154.749 281.646C154.459 282.627 154.386 283.659 154.535 284.671C154.685 285.683 155.052 286.651 155.613 287.505C156.174 288.36 156.914 289.082 157.782 289.621C158.65 290.159 159.625 290.501 160.639 290.623Z" fill="#231F20"/>
<path d="M274.458 307.414C274.002 307.412 273.547 307.381 273.095 307.319L160.52 291.241C159.431 291.107 158.384 290.739 157.45 290.163C156.515 289.588 155.716 288.817 155.105 287.904C154.497 286.966 154.097 285.908 153.932 284.802C153.766 283.696 153.839 282.567 154.145 281.492L210.041 70.3689C210.725 68.0496 212.164 66.0267 214.13 64.6232C216.095 63.2198 218.473 62.5168 220.884 62.6265L335.663 71.9007C336.837 71.9625 337.982 72.2841 339.017 72.8426C340.052 73.4011 340.95 74.1826 341.647 75.1307C342.279 76.0577 342.699 77.1136 342.875 78.2223C343.051 79.3311 342.98 80.4652 342.666 81.5431L284.4 299.957C283.758 302.103 282.446 303.986 280.656 305.328C278.866 306.671 276.693 307.402 274.458 307.414ZM160.698 290.065L273.273 306.144C275.429 306.412 277.61 305.907 279.43 304.719C281.25 303.53 282.591 301.733 283.215 299.648L341.517 81.2819C341.789 80.3716 341.855 79.412 341.709 78.473C341.564 77.5341 341.211 76.6397 340.676 75.8551C340.081 75.0471 339.314 74.3825 338.431 73.91C337.547 73.4374 336.569 73.1688 335.568 73.1238L220.789 63.814C218.656 63.7016 216.547 64.3149 214.804 65.5543C213.062 66.7937 211.789 68.5865 211.191 70.642L155.33 281.8C155.065 282.713 154.999 283.672 155.136 284.612C155.273 285.552 155.61 286.452 156.124 287.251C156.646 288.021 157.326 288.671 158.119 289.156C158.912 289.642 159.799 289.952 160.722 290.065H160.698Z" fill="#231F20"/>
<path d="M153.303 278.606L265.878 294.673C268.187 294.979 270.53 294.45 272.484 293.181C274.439 291.912 275.878 289.986 276.543 287.75L334.763 69.3713C335.948 64.847 333.068 60.869 328.292 60.4771L213.513 51.2028C211.243 51.0926 209.001 51.7488 207.147 53.0664C205.293 54.384 203.934 56.2868 203.287 58.4702L147.426 269.593C147.13 270.575 147.052 271.61 147.197 272.626C147.343 273.642 147.709 274.613 148.269 275.472C148.829 276.331 149.57 277.057 150.44 277.598C151.309 278.139 152.287 278.483 153.303 278.606Z" fill="white"/>
<path d="M267.123 295.373C266.671 295.371 266.22 295.339 265.772 295.278L153.197 279.2C152.11 279.065 151.064 278.698 150.132 278.122C149.199 277.546 148.402 276.776 147.793 275.863C147.183 274.926 146.781 273.868 146.616 272.762C146.45 271.655 146.524 270.526 146.833 269.451L202.718 58.3278C203.4 56.0096 204.84 53.9884 206.807 52.5886C208.773 51.1889 211.152 50.4918 213.561 50.6092L328.34 59.8834C329.504 59.9505 330.639 60.2748 331.663 60.8333C332.688 61.3917 333.576 62.1703 334.265 63.1134C334.902 64.0379 335.325 65.0939 335.501 66.2036C335.677 67.3133 335.603 68.4486 335.284 69.5258L277.041 287.904C276.399 290.046 275.09 291.927 273.306 293.271C271.521 294.615 269.355 295.351 267.123 295.373ZM212.814 51.7729C210.783 51.8097 208.817 52.4936 207.199 53.7255C205.582 54.9574 204.399 56.6734 203.82 58.6247L147.995 269.747C147.735 270.661 147.672 271.62 147.811 272.56C147.95 273.5 148.287 274.399 148.8 275.198C149.32 275.968 149.998 276.618 150.789 277.103C151.58 277.589 152.466 277.899 153.386 278.012L265.961 294.091C268.126 294.37 270.319 293.87 272.15 292.68C273.982 291.491 275.333 289.689 275.963 287.595L334.17 69.2289C334.439 68.3183 334.503 67.3593 334.357 66.4209C334.212 65.4825 333.86 64.5881 333.329 63.8021C332.733 62.996 331.965 62.3328 331.082 61.8604C330.198 61.388 329.221 61.1184 328.221 61.0709L213.442 51.7967L212.814 51.7729Z" fill="#231F20"/>
<path d="M199.827 277.335L221.796 280.435C223.19 280.604 224.598 280.272 225.77 279.498C226.942 278.723 227.801 277.557 228.195 276.207L230.388 268.002C230.57 267.379 230.614 266.723 230.514 266.081C230.415 265.439 230.176 264.827 229.814 264.289C229.452 263.75 228.976 263.298 228.42 262.965C227.863 262.632 227.241 262.426 226.596 262.361L204.602 259.369C203.218 259.215 201.824 259.554 200.665 260.327C199.505 261.1 198.655 262.257 198.262 263.596L196.106 271.731C195.923 272.346 195.878 272.995 195.973 273.63C196.068 274.265 196.301 274.871 196.656 275.406C197.011 275.941 197.479 276.391 198.027 276.724C198.575 277.058 199.189 277.266 199.827 277.335Z" fill="white"/>
<path d="M222.531 281.124C222.257 281.128 221.984 281.108 221.713 281.064L199.744 277.977C199.023 277.895 198.328 277.657 197.709 277.278C197.09 276.899 196.561 276.389 196.159 275.784C195.757 275.179 195.492 274.493 195.383 273.774C195.273 273.056 195.322 272.322 195.525 271.624L197.682 263.489C198.111 262.013 199.046 260.737 200.323 259.885C201.601 259.033 203.137 258.661 204.661 258.835L226.667 261.815C227.398 261.902 228.103 262.145 228.733 262.528C229.362 262.911 229.902 263.425 230.317 264.036C230.712 264.645 230.973 265.333 231.081 266.052C231.189 266.771 231.143 267.504 230.945 268.204L228.776 276.374C228.382 277.732 227.562 278.928 226.437 279.783C225.312 280.639 223.943 281.109 222.531 281.124ZM203.879 259.963C202.742 259.975 201.638 260.354 200.732 261.042C199.825 261.73 199.163 262.692 198.843 263.786L196.71 271.885C196.552 272.42 196.514 272.983 196.597 273.535C196.68 274.086 196.883 274.613 197.192 275.077C197.5 275.541 197.907 275.932 198.383 276.222C198.858 276.512 199.392 276.693 199.945 276.754L221.903 279.841C223.155 279.997 224.422 279.701 225.477 279.007C226.532 278.313 227.306 277.266 227.662 276.053L229.843 267.848C229.999 267.311 230.038 266.746 229.957 266.192C229.875 265.639 229.674 265.11 229.369 264.641C229.048 264.172 228.629 263.778 228.143 263.485C227.656 263.192 227.112 263.007 226.548 262.943L204.555 259.963C204.331 259.927 204.105 259.911 203.879 259.915V259.963Z" fill="#E6E7E8"/>
<path d="M288.879 69.0983L255.308 66.284C255.23 66.2777 255.155 66.2562 255.085 66.2206C255.016 66.185 254.954 66.136 254.903 66.0765C254.853 66.017 254.814 65.948 254.79 65.8736C254.766 65.7992 254.757 65.7207 254.763 65.6427C254.769 65.5648 254.791 65.4888 254.826 65.4191C254.862 65.3495 254.911 65.2875 254.97 65.2368C255.03 65.1861 255.098 65.1476 255.173 65.1235C255.247 65.0994 255.325 65.0903 255.403 65.0965L288.974 67.899C289.131 67.899 289.282 67.9615 289.393 68.0729C289.504 68.1842 289.567 68.3352 289.567 68.4927C289.567 68.6502 289.504 68.8012 289.393 68.9125C289.282 69.0239 289.131 69.0865 288.974 69.0865L288.879 69.0983Z" fill="#D1D3D4"/>
<path d="M250.651 65.892H250.592L246.148 65.5238C245.991 65.5112 245.845 65.4366 245.743 65.3164C245.641 65.1961 245.59 65.0401 245.603 64.8826C245.616 64.7251 245.69 64.5791 245.81 64.4767C245.93 64.3742 246.086 64.3238 246.243 64.3364L250.699 64.7164C250.856 64.7164 251.006 64.7789 251.118 64.8903C251.229 65.0016 251.291 65.1526 251.291 65.3101C251.291 65.4676 251.229 65.6186 251.118 65.7299C251.006 65.8413 250.856 65.9038 250.699 65.9038L250.651 65.892Z" fill="#D1D3D4"/>
<path d="M322.711 83.7637L277.574 258.431L160.378 244.466L205.787 73.5394L322.711 83.7637Z" fill="white"/>
<path d="M277.574 259.024H277.515L160.307 245.048C160.223 245.04 160.143 245.014 160.071 244.971C159.999 244.927 159.938 244.868 159.892 244.798C159.844 244.728 159.812 244.648 159.798 244.564C159.783 244.48 159.787 244.394 159.809 244.311L205.218 73.3851C205.254 73.2492 205.337 73.1305 205.452 73.05C205.567 72.9696 205.707 72.9326 205.846 72.9457L322.758 83.1699C322.845 83.1796 322.928 83.2067 323.003 83.2495C323.079 83.2924 323.144 83.3502 323.197 83.4193C323.245 83.4919 323.277 83.5738 323.292 83.6598C323.306 83.7457 323.302 83.8338 323.28 83.9181L278.155 258.561C278.125 258.693 278.052 258.811 277.946 258.895C277.84 258.979 277.709 259.025 277.574 259.024ZM161.16 243.955L277.171 257.789L321.964 84.298L206.19 74.1807L161.16 243.955Z" fill="#231F20"/>
<path d="M289.685 103.868L232.13 98.4886C231.422 98.4448 230.733 98.2426 230.114 97.8968C229.495 97.551 228.961 97.0704 228.552 96.4905C228.142 95.9105 227.868 95.2459 227.749 94.5457C227.63 93.8454 227.669 93.1274 227.864 92.4443C228.319 90.9194 229.277 89.5945 230.582 88.6863C231.886 87.7782 233.46 87.3405 235.045 87.445L292.6 92.658C293.331 92.6836 294.046 92.8758 294.692 93.2199C295.337 93.5641 295.896 94.0512 296.326 94.6442C296.755 95.2372 297.044 95.9205 297.171 96.6422C297.297 97.3639 297.258 98.105 297.056 98.8092C296.589 100.37 295.603 101.723 294.262 102.643C292.921 103.564 291.306 103.996 289.685 103.868Z" fill="#E6E7E8"/>
<path d="M312.733 106.623L300.433 105.435C300.348 105.428 300.266 105.401 300.192 105.358C300.118 105.315 300.055 105.256 300.006 105.186C299.957 105.116 299.922 105.037 299.906 104.953C299.89 104.869 299.891 104.782 299.912 104.699L302.625 94.2611C302.661 94.1252 302.744 94.0064 302.859 93.926C302.974 93.8455 303.114 93.8086 303.253 93.8217L315.542 94.9379C315.629 94.9454 315.713 94.9716 315.788 95.0146C315.864 95.0576 315.929 95.1165 315.98 95.1873C316.028 95.2577 316.06 95.3377 316.075 95.4217C316.089 95.5057 316.085 95.5918 316.063 95.6742L313.361 106.148C313.333 106.29 313.253 106.417 313.137 106.505C313.022 106.592 312.878 106.634 312.733 106.623ZM301.191 104.355L312.295 105.388L314.665 96.0898L303.561 95.0804L301.191 104.355Z" fill="#D1D3D4"/>
<path d="M309.569 102.11C309.466 102.11 309.365 102.082 309.275 102.03C309.186 101.978 309.112 101.903 309.06 101.813L307.164 98.6547C304.794 99.9609 302.234 101.374 301.831 101.707C301.758 101.798 301.66 101.867 301.548 101.905C301.437 101.943 301.317 101.948 301.203 101.92C301.053 101.879 300.925 101.779 300.847 101.644C300.77 101.508 300.749 101.347 300.789 101.196C300.86 100.899 300.931 100.662 307.105 97.3366C307.239 97.267 307.395 97.2516 307.54 97.2936C307.686 97.3355 307.81 97.4316 307.887 97.5622L310.079 101.208C310.158 101.344 310.182 101.505 310.144 101.658C310.106 101.811 310.011 101.944 309.878 102.027C309.783 102.078 309.677 102.107 309.569 102.11Z" fill="#D1D3D4"/>
<path d="M314.096 101.386C314.011 101.388 313.926 101.371 313.848 101.336C313.77 101.301 313.701 101.249 313.646 101.184L311.773 99.0584L309.178 100.804C309.048 100.892 308.888 100.925 308.733 100.895C308.579 100.865 308.443 100.774 308.355 100.644C308.267 100.513 308.234 100.353 308.264 100.198C308.294 100.043 308.384 99.9066 308.515 99.8184L311.536 97.776C311.658 97.6969 311.804 97.6642 311.947 97.6838C312.091 97.7034 312.223 97.774 312.319 97.8828L314.535 100.4C314.644 100.513 314.705 100.664 314.705 100.822C314.705 100.979 314.644 101.13 314.535 101.243C314.411 101.344 314.255 101.395 314.096 101.386Z" fill="#D1D3D4"/>
<path d="M217.91 127.534C217.344 129.453 216.139 131.119 214.496 132.256C212.853 133.392 210.871 133.931 208.88 133.781C207.982 133.728 207.107 133.471 206.323 133.029C205.539 132.587 204.865 131.972 204.354 131.23C203.842 130.488 203.506 129.64 203.37 128.748C203.235 127.857 203.303 126.946 203.571 126.086C204.136 124.174 205.335 122.512 206.971 121.376C208.607 120.24 210.58 119.698 212.565 119.84C213.467 119.887 214.345 120.141 215.134 120.58C215.922 121.02 216.6 121.635 217.116 122.377C217.631 123.119 217.971 123.97 218.108 124.864C218.246 125.757 218.178 126.671 217.91 127.534Z" fill="#F14736"/>
<path d="M202.078 187.431C201.524 189.352 200.32 191.019 198.672 192.146C197.024 193.273 195.035 193.79 193.048 193.606C192.145 193.524 191.272 193.241 190.491 192.778C189.711 192.315 189.044 191.683 188.537 190.929C188.031 190.175 187.699 189.317 187.565 188.419C187.431 187.52 187.499 186.602 187.763 185.733C188.314 183.815 189.515 182.15 191.158 181.023C192.802 179.896 194.786 179.378 196.769 179.558C197.675 179.635 198.553 179.914 199.337 180.375C200.122 180.836 200.793 181.468 201.302 182.223C201.811 182.978 202.145 183.837 202.279 184.739C202.414 185.64 202.345 186.56 202.078 187.431Z" fill="#E6E7E8"/>
<path d="M195.098 213.888C194.55 215.812 193.343 217.481 191.69 218.604C190.037 219.726 188.043 220.23 186.057 220.028C185.15 219.937 184.274 219.647 183.493 219.176C182.712 218.706 182.045 218.068 181.539 217.308C181.034 216.548 180.703 215.686 180.57 214.782C180.437 213.879 180.506 212.957 180.772 212.083C181.32 210.166 182.521 208.502 184.166 207.38C185.811 206.259 187.797 205.75 189.778 205.944C190.687 206.032 191.565 206.32 192.35 206.789C193.134 207.258 193.805 207.895 194.314 208.655C194.823 209.415 195.157 210.278 195.293 211.183C195.428 212.088 195.362 213.012 195.098 213.888Z" fill="#E6E7E8"/>
<path d="M273.854 129.957L225.043 125.064C224.965 125.057 224.89 125.034 224.821 124.997C224.752 124.96 224.69 124.91 224.641 124.849C224.591 124.789 224.554 124.719 224.532 124.643C224.509 124.568 224.502 124.489 224.51 124.411C224.528 124.256 224.607 124.113 224.729 124.015C224.851 123.918 225.006 123.872 225.162 123.889L273.972 128.769C274.129 128.777 274.277 128.847 274.382 128.964C274.488 129.081 274.543 129.235 274.535 129.393C274.527 129.55 274.457 129.698 274.34 129.804C274.224 129.91 274.07 129.965 273.913 129.957H273.854Z" fill="#D1D3D4"/>
<path d="M241.207 134.255H241.136L223.053 132.415C222.975 132.407 222.899 132.385 222.83 132.348C222.761 132.311 222.7 132.261 222.65 132.2C222.6 132.139 222.563 132.069 222.541 131.994C222.518 131.919 222.511 131.84 222.519 131.762C222.537 131.605 222.615 131.462 222.737 131.362C222.859 131.262 223.014 131.214 223.171 131.227L241.266 133.08C241.423 133.08 241.574 133.142 241.685 133.254C241.796 133.365 241.858 133.516 241.858 133.674C241.858 133.831 241.796 133.982 241.685 134.093C241.574 134.205 241.423 134.267 241.266 134.267L241.207 134.255Z" fill="#D1D3D4"/>
<path d="M291.51 149.182L203.986 139.991C203.908 139.984 203.832 139.961 203.763 139.924C203.694 139.887 203.633 139.837 203.583 139.776C203.534 139.715 203.497 139.645 203.474 139.57C203.452 139.495 203.444 139.416 203.453 139.338C203.471 139.182 203.549 139.04 203.671 138.942C203.793 138.844 203.949 138.799 204.104 138.816L291.629 148.007C291.784 148.025 291.926 148.103 292.023 148.226C292.121 148.348 292.167 148.504 292.15 148.66C292.143 148.736 292.12 148.811 292.084 148.878C292.048 148.946 291.998 149.006 291.939 149.055C291.879 149.103 291.811 149.14 291.737 149.162C291.664 149.183 291.586 149.19 291.51 149.182Z" fill="#D1D3D4"/>
<path d="M281.722 157.15H281.663L201.651 148.553C201.496 148.535 201.354 148.456 201.256 148.334C201.159 148.211 201.113 148.055 201.13 147.9C201.148 147.743 201.226 147.6 201.348 147.5C201.469 147.4 201.625 147.352 201.782 147.365L281.781 155.974C281.938 155.974 282.089 156.037 282.2 156.148C282.311 156.26 282.374 156.411 282.374 156.568C282.374 156.726 282.311 156.877 282.2 156.988C282.089 157.099 281.938 157.162 281.781 157.162L281.722 157.15Z" fill="#D1D3D4"/>
<path d="M269.54 237.317C269.176 237.317 268.811 237.293 268.45 237.246L178.236 225.466C177.268 225.361 176.334 225.047 175.499 224.544C174.664 224.042 173.948 223.364 173.401 222.557C172.857 221.727 172.498 220.789 172.351 219.807C172.204 218.825 172.271 217.822 172.548 216.869L198.523 119.02C199.121 117.005 200.385 115.253 202.108 114.053C203.831 112.853 205.91 112.277 208.003 112.418L298.336 121.217C299.364 121.29 300.365 121.588 301.266 122.091C302.167 122.593 302.946 123.288 303.55 124.126C304.104 124.938 304.475 125.861 304.634 126.832C304.794 127.802 304.739 128.796 304.474 129.743L278.404 230.679C277.832 232.592 276.662 234.27 275.066 235.465C273.47 236.66 271.533 237.31 269.54 237.317ZM268.604 236.07C270.489 236.289 272.391 235.832 273.972 234.78C275.554 233.728 276.712 232.149 277.243 230.323L303.313 129.446C303.535 128.665 303.584 127.844 303.455 127.041C303.326 126.239 303.022 125.475 302.566 124.803C302.055 124.116 301.402 123.548 300.651 123.138C299.9 122.729 299.07 122.486 298.217 122.428L207.873 113.641C206.057 113.517 204.253 114.016 202.758 115.056C201.264 116.097 200.167 117.616 199.649 119.365L173.662 217.213C173.429 218.008 173.371 218.845 173.491 219.665C173.612 220.485 173.909 221.269 174.361 221.963C174.816 222.624 175.409 223.179 176.098 223.589C176.788 223.999 177.557 224.254 178.354 224.338L268.604 236.07Z" fill="#D1D3D4"/>
<path d="M294.247 167.541H294.176L189.41 156.01C189.255 155.992 189.113 155.914 189.015 155.791C188.918 155.669 188.872 155.513 188.889 155.357C188.907 155.2 188.985 155.057 189.107 154.957C189.228 154.858 189.384 154.809 189.541 154.823L294.307 166.365C294.385 166.372 294.46 166.395 294.529 166.432C294.598 166.469 294.66 166.519 294.709 166.58C294.759 166.641 294.796 166.711 294.818 166.786C294.841 166.861 294.848 166.94 294.84 167.018C294.82 167.162 294.749 167.294 294.64 167.39C294.532 167.486 294.392 167.539 294.247 167.541Z" fill="#D1D3D4"/>
<path d="M290.029 183.869H289.958L185.204 171.875C185.047 171.858 184.903 171.779 184.804 171.655C184.705 171.531 184.659 171.373 184.676 171.216C184.694 171.059 184.773 170.914 184.896 170.815C185.019 170.716 185.177 170.67 185.334 170.688L290.088 182.717C290.245 182.725 290.393 182.795 290.498 182.912C290.604 183.029 290.659 183.183 290.651 183.34C290.643 183.498 290.573 183.646 290.456 183.751C290.34 183.857 290.186 183.912 290.029 183.904V183.869Z" fill="#D1D3D4"/>
<path d="M198.547 170.581H198.488L196.84 170.497C196.678 170.488 196.52 170.445 196.375 170.371C196.231 170.298 196.103 170.195 195.999 170.07C195.903 169.94 195.835 169.792 195.798 169.635C195.762 169.478 195.757 169.315 195.786 169.156L196.698 164.584C196.769 164.284 196.941 164.017 197.185 163.829C197.428 163.641 197.73 163.542 198.037 163.551L199.684 163.622C199.846 163.632 200.005 163.675 200.149 163.748C200.294 163.822 200.422 163.924 200.526 164.049C200.621 164.179 200.69 164.327 200.726 164.485C200.763 164.642 200.767 164.805 200.739 164.964L199.827 169.536C199.764 169.83 199.603 170.094 199.371 170.284C199.138 170.474 198.847 170.579 198.547 170.581ZM197.978 164.738C197.978 164.738 197.859 164.738 197.859 164.821L196.959 169.393H198.547C198.573 169.397 198.6 169.39 198.622 169.375C198.644 169.359 198.66 169.336 198.665 169.31L199.578 164.726L197.978 164.738Z" fill="#D1D3D4"/>
<path d="M207.648 171.032L200.632 170.688C200.547 170.681 200.463 170.657 200.388 170.616C200.312 170.575 200.246 170.519 200.194 170.45C200.142 170.384 200.106 170.307 200.087 170.225C200.069 170.142 200.069 170.057 200.087 169.975L201.023 165.225C201.05 165.113 201.107 165.01 201.189 164.928C201.829 164.251 202.517 163.408 203.18 162.553C205.005 160.309 206.095 159.05 207.114 159.347C207.258 159.386 207.39 159.458 207.501 159.557C207.612 159.656 207.699 159.779 207.754 159.917C208.086 160.713 207.434 162.292 206.865 163.42C207.875 163.431 208.875 163.608 209.828 163.943C210.243 164.156 211.191 164.655 208.216 170.688C208.168 170.796 208.088 170.888 207.986 170.949C207.884 171.011 207.766 171.04 207.648 171.032ZM201.343 169.5L207.268 169.797C208.084 168.257 208.694 166.616 209.081 164.916C208.02 164.672 206.935 164.548 205.846 164.548C205.742 164.55 205.64 164.523 205.55 164.471C205.46 164.419 205.387 164.343 205.337 164.251C205.285 164.163 205.257 164.063 205.257 163.96C205.257 163.858 205.285 163.758 205.337 163.67C205.929 162.692 206.361 161.626 206.617 160.511C205.653 161.328 204.79 162.257 204.045 163.278C203.417 164.061 202.754 164.869 202.114 165.558L201.343 169.5Z" fill="#D1D3D4"/>
<path d="M266.507 227.687L204.235 219.719C203.704 219.666 203.192 219.496 202.735 219.222C202.278 218.947 201.887 218.575 201.59 218.131C201.293 217.687 201.098 217.183 201.019 216.655C200.939 216.127 200.977 215.587 201.13 215.076C201.452 213.956 202.157 212.986 203.121 212.334C204.085 211.683 205.247 211.392 206.403 211.513L268.675 219.374C269.223 219.421 269.754 219.589 270.23 219.866C270.705 220.144 271.114 220.523 271.425 220.977C271.737 221.431 271.944 221.949 272.032 222.494C272.12 223.038 272.086 223.595 271.934 224.124C271.587 225.26 270.854 226.238 269.863 226.889C268.872 227.54 267.684 227.822 266.507 227.687Z" fill="#E6E7E8"/>
<path d="M253.732 203.106L213.762 198.249C212.758 198.168 211.786 197.862 210.915 197.356C210.044 196.849 209.297 196.153 208.729 195.32C208.161 194.487 207.786 193.537 207.632 192.54C207.478 191.542 207.548 190.523 207.837 189.557L208.572 186.778C209.187 184.661 210.518 182.825 212.336 181.583C214.154 180.342 216.347 179.773 218.538 179.974L258.52 184.617C259.541 184.695 260.531 185 261.42 185.51C262.308 186.019 263.073 186.721 263.657 187.563C264.241 188.406 264.631 189.368 264.798 190.381C264.965 191.393 264.905 192.43 264.622 193.416L263.888 196.242C263.26 198.394 261.901 200.258 260.047 201.511C258.192 202.765 255.958 203.329 253.732 203.106Z" fill="#F14736"/>
<path d="M268.13 221.607L268.438 220.419L263.698 219.814L263.402 221.001L262.466 220.882L261.281 225.336L267.928 226.179L269.113 221.714L268.13 221.607ZM264.966 224.326C264.785 224.316 264.609 224.265 264.452 224.177C264.294 224.089 264.158 223.965 264.055 223.816C263.952 223.667 263.885 223.497 263.858 223.317C263.831 223.138 263.845 222.955 263.899 222.782C264.011 222.408 264.249 222.084 264.574 221.867C264.899 221.65 265.289 221.554 265.677 221.595C265.859 221.604 266.036 221.655 266.195 221.744C266.354 221.833 266.491 221.958 266.594 222.109C266.697 222.259 266.764 222.431 266.79 222.612C266.816 222.793 266.8 222.977 266.743 223.151C266.634 223.526 266.395 223.85 266.07 224.065C265.744 224.28 265.353 224.373 264.966 224.326Z" fill="#231F20"/>
<path d="M218.147 203.569H218.04L207.375 202.263C207.219 202.242 207.077 202.161 206.979 202.036C206.882 201.912 206.837 201.755 206.854 201.598C206.877 201.442 206.959 201.302 207.082 201.205C207.205 201.108 207.361 201.061 207.517 201.075L218.182 202.381C218.339 202.391 218.486 202.462 218.591 202.581C218.695 202.699 218.749 202.853 218.739 203.011C218.73 203.168 218.658 203.316 218.54 203.42C218.423 203.525 218.268 203.578 218.111 203.569H218.147Z" fill="#D1D3D4"/>
<path d="M233.018 205.398H232.947L222.211 204.08C222.135 204.071 222.061 204.047 221.994 204.009C221.926 203.971 221.867 203.921 221.82 203.86C221.773 203.799 221.738 203.73 221.717 203.655C221.697 203.581 221.692 203.503 221.702 203.426C221.709 203.349 221.732 203.273 221.769 203.205C221.806 203.136 221.856 203.076 221.917 203.027C221.978 202.978 222.048 202.942 222.123 202.921C222.198 202.9 222.276 202.894 222.353 202.904L233.089 204.222C233.168 204.231 233.243 204.255 233.312 204.293C233.38 204.332 233.44 204.383 233.489 204.445C233.538 204.507 233.573 204.578 233.594 204.654C233.615 204.73 233.621 204.809 233.611 204.887C233.588 205.029 233.517 205.158 233.408 205.251C233.3 205.345 233.161 205.397 233.018 205.398Z" fill="#D1D3D4"/>
<path d="M257.346 191.884H257.275L217.874 187.229C217.718 187.208 217.576 187.127 217.478 187.003C217.381 186.879 217.336 186.721 217.353 186.564C217.373 186.408 217.454 186.265 217.578 186.168C217.702 186.07 217.86 186.025 218.016 186.042L257.418 190.697C257.575 190.706 257.722 190.778 257.826 190.896C257.931 191.014 257.984 191.169 257.974 191.326C257.965 191.483 257.894 191.631 257.776 191.735C257.658 191.84 257.504 191.894 257.346 191.884Z" fill="white"/>
<path d="M250.355 196.468H250.284L216.511 192.418C216.356 192.401 216.214 192.322 216.116 192.2C216.019 192.077 215.973 191.921 215.99 191.765C216.008 191.61 216.086 191.467 216.208 191.37C216.33 191.272 216.486 191.226 216.642 191.243L250.426 195.28C250.581 195.301 250.722 195.383 250.818 195.507C250.913 195.632 250.956 195.789 250.936 195.945C250.918 196.088 250.85 196.22 250.743 196.316C250.636 196.412 250.498 196.466 250.355 196.468Z" fill="white"/>
<path d="M241.124 176.435C240.792 176.435 240.531 176.09 239.334 174.155C238.92 174.155 238.517 174.155 238.149 174.155C237.168 174.093 236.211 173.821 235.342 173.358C234.473 172.895 233.714 172.252 233.113 171.471C232.778 171.008 232.55 170.475 232.445 169.913C232.341 169.35 232.362 168.771 232.509 168.217C233.244 165.439 236.81 163.586 240.626 164.014C241.613 164.072 242.575 164.34 243.45 164.801C244.324 165.262 245.091 165.904 245.698 166.686C246.032 167.149 246.26 167.682 246.365 168.244C246.469 168.807 246.448 169.386 246.302 169.939C246.001 170.83 245.489 171.634 244.81 172.283C244.131 172.933 243.305 173.408 242.404 173.668C242.024 175.093 241.835 175.841 241.811 175.96C241.788 176.081 241.732 176.194 241.648 176.284C241.564 176.374 241.456 176.439 241.337 176.47L241.124 176.435ZM239.654 172.956C239.755 172.955 239.855 172.979 239.944 173.027C240.033 173.075 240.109 173.144 240.164 173.229C240.484 173.763 240.733 174.167 240.934 174.416L241.325 172.944C241.351 172.849 241.4 172.762 241.469 172.691C241.537 172.621 241.622 172.569 241.716 172.54C242.487 172.358 243.202 171.988 243.797 171.464C244.392 170.941 244.849 170.278 245.129 169.536C245.229 169.147 245.243 168.742 245.169 168.348C245.096 167.954 244.936 167.581 244.702 167.256C244.187 166.622 243.546 166.102 242.82 165.728C242.094 165.354 241.299 165.134 240.484 165.083C237.261 164.726 234.203 166.27 233.635 168.419C233.534 168.807 233.521 169.213 233.594 169.607C233.668 170.001 233.827 170.374 234.061 170.699C234.573 171.331 235.21 171.85 235.932 172.222C236.654 172.594 237.446 172.812 238.256 172.861C238.713 172.903 239.173 172.903 239.631 172.861L239.654 172.956Z" fill="#D1D3D4"/>
<path d="M237.972 169.025C237.91 169.234 237.779 169.415 237.6 169.538C237.421 169.661 237.205 169.719 236.988 169.702C236.89 169.695 236.795 169.667 236.709 169.618C236.624 169.57 236.55 169.502 236.494 169.421C236.438 169.34 236.402 169.247 236.387 169.15C236.372 169.052 236.379 168.953 236.408 168.859C236.465 168.65 236.594 168.468 236.771 168.344C236.949 168.22 237.164 168.163 237.379 168.182C237.478 168.189 237.573 168.218 237.659 168.266C237.745 168.315 237.819 168.382 237.875 168.462C237.932 168.543 237.97 168.635 237.987 168.733C238.004 168.83 237.998 168.93 237.972 169.025Z" fill="#D1D3D4"/>
<path d="M240.377 169.298C240.32 169.509 240.189 169.693 240.009 169.817C239.829 169.941 239.611 169.997 239.394 169.975C239.295 169.967 239.2 169.937 239.114 169.887C239.029 169.837 238.955 169.768 238.9 169.686C238.844 169.605 238.807 169.511 238.792 169.413C238.777 169.315 238.784 169.215 238.813 169.12C238.875 168.912 239.007 168.733 239.186 168.612C239.366 168.49 239.581 168.435 239.797 168.455C239.895 168.462 239.99 168.49 240.076 168.539C240.161 168.587 240.235 168.655 240.291 168.736C240.346 168.817 240.383 168.91 240.398 169.007C240.413 169.104 240.406 169.204 240.377 169.298Z" fill="#D1D3D4"/>
<path d="M242.795 169.571C242.735 169.781 242.604 169.964 242.424 170.087C242.245 170.211 242.028 170.268 241.811 170.248C241.713 170.238 241.619 170.206 241.535 170.156C241.45 170.105 241.378 170.037 241.323 169.956C241.267 169.874 241.231 169.782 241.215 169.685C241.199 169.587 241.204 169.488 241.23 169.393C241.293 169.186 241.424 169.006 241.604 168.885C241.783 168.763 241.999 168.708 242.214 168.728C242.312 168.735 242.408 168.763 242.493 168.812C242.579 168.86 242.652 168.928 242.708 169.009C242.764 169.09 242.801 169.183 242.816 169.28C242.831 169.378 242.823 169.477 242.795 169.571Z" fill="#D1D3D4"/>
<path d="M273.071 177.195C272.929 177.194 272.79 177.144 272.68 177.052C272.577 176.961 272.508 176.836 272.487 176.7C272.465 176.563 272.492 176.423 272.562 176.304C273.989 174.057 275.989 172.232 278.357 171.02L277.93 170.034C277.883 169.947 277.859 169.849 277.859 169.749C277.859 169.65 277.883 169.552 277.93 169.464C277.985 169.38 278.061 169.312 278.15 169.266C278.24 169.221 278.339 169.199 278.439 169.203L283.867 169.381C283.965 169.386 284.06 169.414 284.145 169.464C284.229 169.513 284.301 169.583 284.353 169.666C284.399 169.752 284.424 169.848 284.424 169.945C284.424 170.043 284.399 170.139 284.353 170.224L282.125 174.974C282.083 175.069 282.018 175.15 281.934 175.211C281.851 175.271 281.753 175.309 281.651 175.319C281.55 175.33 281.448 175.315 281.355 175.276C281.261 175.236 281.18 175.173 281.118 175.093L280.146 173.834C277.725 174.546 275.433 175.64 273.356 177.076C273.273 177.14 273.175 177.181 273.071 177.195ZM279.387 170.426L279.672 171.068C279.736 171.211 279.741 171.374 279.685 171.521C279.63 171.668 279.518 171.786 279.376 171.851C278.067 172.47 276.867 173.296 275.821 174.297C277.283 173.608 278.797 173.033 280.347 172.576C280.46 172.543 280.58 172.545 280.692 172.581C280.804 172.617 280.902 172.685 280.975 172.777L281.603 173.597L283.037 170.545L279.387 170.426Z" fill="#D1D3D4"/>
<path d="M279.553 179.166L271.46 178.24C271.374 178.234 271.291 178.208 271.217 178.165C271.143 178.122 271.08 178.062 271.033 177.991C270.985 177.92 270.953 177.84 270.939 177.756C270.924 177.672 270.928 177.586 270.95 177.504L272.846 170.224C272.882 170.089 272.965 169.97 273.08 169.889C273.195 169.809 273.335 169.772 273.474 169.785L277.1 170.189C277.257 170.206 277.401 170.285 277.5 170.409C277.599 170.532 277.645 170.69 277.628 170.848C277.61 171.005 277.531 171.149 277.408 171.249C277.285 171.348 277.127 171.394 276.97 171.376L273.853 171.02L272.266 177.147L279.174 177.931L279.885 175.2C279.903 175.123 279.936 175.051 279.983 174.988C280.029 174.925 280.088 174.871 280.155 174.831C280.223 174.791 280.298 174.766 280.376 174.756C280.453 174.745 280.532 174.751 280.608 174.772C280.758 174.814 280.886 174.914 280.964 175.049C281.042 175.185 281.063 175.346 281.023 175.497L280.193 178.727C280.157 178.865 280.072 178.985 279.955 179.066C279.837 179.147 279.695 179.182 279.553 179.166Z" fill="#D1D3D4"/>
<path d="M313.575 113.57H313.515L199.637 102.704C199.56 102.698 199.484 102.677 199.415 102.641C199.346 102.605 199.285 102.556 199.235 102.496C199.185 102.437 199.148 102.367 199.126 102.293C199.103 102.219 199.096 102.14 199.104 102.063C199.11 101.985 199.131 101.91 199.167 101.84C199.202 101.771 199.251 101.71 199.311 101.66C199.371 101.61 199.44 101.573 199.514 101.55C199.588 101.528 199.666 101.52 199.744 101.528L313.622 112.382C313.7 112.389 313.776 112.412 313.845 112.449C313.914 112.486 313.975 112.536 314.025 112.597C314.074 112.658 314.111 112.728 314.134 112.803C314.156 112.878 314.164 112.957 314.155 113.035C314.143 113.181 314.077 113.317 313.969 113.416C313.862 113.515 313.721 113.57 313.575 113.57Z" fill="#D1D3D4"/>
<path d="M221.595 98.5123H221.476L217.447 98.2273C217.317 98.2273 217.305 98.2273 217.341 98.061C217.827 96.3273 218.301 94.5936 218.787 92.8599C218.787 92.6936 218.787 92.6936 218.988 92.7055L220.505 92.8361C220.611 92.8361 220.659 92.8361 220.706 92.7055C220.92 92.1711 221.133 91.6368 221.358 91.1024L221.524 90.7105C221.524 90.6037 221.524 90.568 221.441 90.5561L219.616 90.4137C219.498 90.4137 219.474 90.4137 219.509 90.2474C219.652 89.7605 219.782 89.2737 219.924 88.7868C219.987 88.5846 220.116 88.4093 220.29 88.2888C220.464 88.1683 220.673 88.1095 220.884 88.1218L222.128 88.2287C222.235 88.2287 222.282 88.2287 222.306 88.0862L222.804 86.2931C222.804 86.1981 222.804 86.1506 222.721 86.1387C222.057 86.1387 221.405 86.0081 220.73 85.9962C220.27 85.9971 219.817 86.1048 219.406 86.3109C218.994 86.5169 218.637 86.8157 218.36 87.1837C218.067 87.5294 217.853 87.9345 217.732 88.3712C217.578 88.9174 217.424 89.4755 217.282 90.0218C217.282 90.1405 217.199 90.1643 217.08 90.1524L215.528 90.0218C215.421 90.0218 215.386 90.0218 215.35 90.1524C215.172 90.8293 214.983 91.5061 214.793 92.183C214.793 92.3018 214.793 92.3255 214.888 92.3374L216.464 92.4561C216.571 92.4561 216.594 92.4561 216.559 92.6105L215.101 97.8592C215.101 97.9661 215.101 98.0017 214.935 97.9898L207.636 97.4554H207.517L211.487 82.9325L225.624 84.1912L221.595 98.5123Z" fill="#F14736"/>
<path d="M176.328 74.43L103.913 87.6229C102.166 87.9405 100.5 88.5998 99.0077 89.5631C97.5158 90.5264 96.2279 91.7749 95.2176 93.2372C94.2074 94.6995 93.4946 96.3469 93.12 98.0854C92.7454 99.8238 92.7163 101.619 93.0344 103.369L102.266 154.288C102.911 157.822 104.93 160.954 107.878 162.998C110.826 165.042 114.463 165.83 117.99 165.189L180.013 153.885L191.97 164.18L191.342 151.771C194.651 150.924 197.517 148.852 199.362 145.972C201.207 143.092 201.894 139.618 201.284 136.25L192.041 85.343C191.726 83.5919 191.069 81.9204 190.108 80.424C189.147 78.9276 187.902 77.6357 186.442 76.6221C184.983 75.6086 183.338 74.8933 181.603 74.5171C179.867 74.141 178.075 74.1114 176.328 74.43Z" fill="white"/>
<path d="M115.561 165.997C112.259 165.99 109.063 164.825 106.528 162.704C103.994 160.582 102.28 157.639 101.685 154.383L92.43 103.476C92.0968 101.648 92.127 99.7721 92.5188 97.9559C92.9106 96.1396 93.6563 94.4187 94.7132 92.8919C95.7701 91.365 97.1173 90.0623 98.6776 89.0583C100.238 88.0543 101.981 87.3688 103.806 87.0412L176.221 73.8482C179.896 73.1792 183.686 73.9971 186.76 76.1227C189.834 78.2484 191.942 81.5085 192.622 85.1887L201.865 136.096C202.49 139.534 201.826 143.082 200 146.058C198.173 149.035 195.314 151.23 191.97 152.222L192.574 164.097C192.578 164.211 192.549 164.324 192.49 164.423C192.431 164.521 192.345 164.599 192.242 164.65C192.139 164.7 192.024 164.719 191.911 164.705C191.797 164.692 191.69 164.645 191.603 164.572L179.871 154.466L118.133 165.724C117.286 165.893 116.425 165.984 115.561 165.997ZM176.435 75.012L104.019 88.2049C102.349 88.5082 100.755 89.1383 99.328 90.0593C97.901 90.9804 96.6692 92.1742 95.7029 93.5726C94.7366 94.971 94.0549 96.5466 93.6966 98.2092C93.3384 99.8718 93.3106 101.589 93.615 103.262L102.858 154.182C103.475 157.559 105.403 160.553 108.22 162.507C111.037 164.462 114.512 165.217 117.884 164.608L179.907 153.303C179.994 153.286 180.084 153.288 180.17 153.311C180.257 153.334 180.337 153.376 180.404 153.433L191.283 162.826L190.785 151.807C190.781 151.669 190.823 151.535 190.904 151.425C190.986 151.315 191.103 151.236 191.235 151.201C194.392 150.376 197.122 148.388 198.879 145.634C200.637 142.88 201.292 139.563 200.715 136.345L191.484 85.4381C190.867 82.0609 188.939 79.0668 186.122 77.1123C183.305 75.1578 179.83 74.4025 176.458 75.012H176.435Z" fill="#231F20"/>
<path d="M116.64 121.775L134.32 118.545L138.977 144.219L123.678 147.009L116.64 121.775Z" fill="#F14736"/>
<path d="M123.678 147.603C123.549 147.602 123.423 147.559 123.32 147.479C123.217 147.4 123.143 147.289 123.11 147.163L116.13 121.929C116.098 121.854 116.082 121.774 116.082 121.692C116.082 121.61 116.098 121.53 116.13 121.454C116.175 121.385 116.234 121.325 116.303 121.28C116.373 121.235 116.451 121.205 116.533 121.193L134.213 117.963C134.29 117.95 134.369 117.951 134.446 117.969C134.522 117.986 134.594 118.018 134.658 118.063C134.722 118.108 134.776 118.166 134.818 118.232C134.859 118.299 134.888 118.373 134.9 118.45L139.557 144.112C139.585 144.266 139.551 144.425 139.462 144.554C139.373 144.683 139.237 144.771 139.083 144.8L123.785 147.591L123.678 147.603ZM117.386 122.238L124.105 146.32L138.325 143.744L133.905 119.246L117.386 122.238Z" fill="#231F20"/>
<path d="M133.431 142.699C134.57 142.699 135.493 141.774 135.493 140.632C135.493 139.491 134.57 138.566 133.431 138.566C132.292 138.566 131.369 139.491 131.369 140.632C131.369 141.774 132.292 142.699 133.431 142.699Z" fill="#231F20"/>
<path d="M134.616 120.148C134.616 120.148 135.671 119.78 138.254 115.933C140.837 112.085 143.954 102.597 144.013 101.03C144.072 99.4621 142.366 93.3704 143.053 91.9454C143.741 90.5204 147.331 88.8223 149.405 90.7579C151.628 93.0701 153.255 95.8907 154.145 98.9753C154.524 101.077 154.643 109.793 154.643 109.793L172.418 106.563C175.013 106.1 175.973 107.834 176.127 109.876C176.281 111.919 174.408 114.709 174.408 114.709C174.408 114.709 176.778 115.125 176.601 118.189C176.574 119.055 176.346 119.904 175.935 120.667C175.523 121.43 174.94 122.086 174.231 122.582C174.768 122.884 175.185 123.361 175.414 123.933C175.643 124.506 175.668 125.14 175.487 125.729C175.384 126.434 175.144 127.111 174.78 127.722C174.416 128.333 173.935 128.867 173.366 129.292C174.021 129.521 174.56 130 174.866 130.624C175.172 131.249 175.22 131.969 175.001 132.629C174.456 135.336 173.247 137.2 171.078 137.675C168.91 138.15 147.378 142.01 145.245 142.425C143.112 142.841 142.875 141.737 141.69 141.558C140.598 141.509 139.505 141.617 138.444 141.879L134.616 120.148Z" fill="white"/>
<path d="M144.463 143.019C143.767 143.022 143.086 142.815 142.508 142.425C142.262 142.253 141.984 142.132 141.691 142.069C140.678 142.026 139.664 142.13 138.681 142.378C138.603 142.399 138.522 142.403 138.442 142.391C138.363 142.379 138.286 142.35 138.218 142.307C138.15 142.263 138.092 142.206 138.047 142.138C138.002 142.071 137.972 141.995 137.958 141.915L134.024 120.255C134 120.119 134.023 119.979 134.09 119.858C134.157 119.737 134.263 119.642 134.391 119.59C134.474 119.59 135.469 119.008 137.756 115.6C140.351 111.741 143.373 102.348 143.421 101.006C143.344 99.9673 143.194 98.9355 142.97 97.9185C142.402 94.8904 142.046 92.6698 142.52 91.6842C142.922 91.0761 143.445 90.5584 144.057 90.1638C144.669 89.7693 145.356 89.5066 146.075 89.3923C146.727 89.244 147.405 89.2539 148.052 89.4212C148.699 89.5885 149.297 89.9084 149.796 90.3542C152.123 92.7486 153.824 95.6813 154.749 98.8922C155.069 100.685 155.199 106.979 155.235 109.116L172.275 106.005C172.767 105.882 173.28 105.867 173.779 105.959C174.277 106.051 174.751 106.249 175.167 106.54C175.635 106.953 176.012 107.461 176.273 108.029C176.535 108.598 176.674 109.215 176.684 109.841C176.65 111.472 176.157 113.061 175.262 114.424C175.918 114.801 176.449 115.364 176.786 116.042C177.123 116.721 177.253 117.484 177.158 118.236C177.105 119.882 176.411 121.442 175.226 122.582C175.633 123.013 175.926 123.538 176.079 124.11C176.232 124.682 176.24 125.284 176.103 125.86C175.89 127.097 175.307 128.24 174.432 129.137C174.965 129.542 175.363 130.099 175.574 130.735C175.786 131.371 175.801 132.056 175.617 132.7C174.977 135.859 173.508 137.711 171.244 138.21C169.514 138.59 155.484 141.107 148.729 142.318L145.388 142.924C145.083 142.981 144.774 143.013 144.463 143.019ZM141.205 140.858C141.425 140.839 141.647 140.839 141.868 140.858C142.294 140.939 142.698 141.109 143.053 141.357C143.352 141.565 143.692 141.705 144.051 141.766C144.409 141.828 144.776 141.81 145.127 141.713L148.481 141.119C155.211 139.932 169.23 137.39 170.996 137.01C172.761 136.63 173.922 135.122 174.468 132.427C174.66 131.918 174.644 131.354 174.422 130.857C174.199 130.361 173.79 129.973 173.283 129.779C173.175 129.744 173.079 129.681 173.006 129.595C172.932 129.509 172.885 129.404 172.868 129.292C172.857 129.179 172.876 129.066 172.924 128.963C172.972 128.861 173.047 128.773 173.14 128.71C174.144 127.963 174.813 126.849 175.001 125.611C175.333 123.746 174.207 123.164 174.077 123.105C173.98 123.057 173.897 122.985 173.837 122.896C173.776 122.806 173.741 122.702 173.733 122.594C173.727 122.488 173.75 122.381 173.8 122.287C173.85 122.193 173.926 122.114 174.017 122.06C174.633 121.604 175.135 121.012 175.487 120.331C175.838 119.649 176.029 118.896 176.044 118.129C176.15 115.754 174.527 115.303 174.337 115.268C174.241 115.244 174.152 115.198 174.076 115.134C174 115.071 173.939 114.99 173.899 114.899C173.855 114.813 173.832 114.717 173.832 114.62C173.832 114.523 173.855 114.428 173.899 114.341C174.396 113.617 175.664 111.396 175.51 109.912C175.517 109.449 175.428 108.989 175.249 108.561C175.069 108.134 174.803 107.749 174.468 107.43C174.179 107.245 173.855 107.123 173.516 107.072C173.177 107.021 172.831 107.042 172.5 107.133L154.726 110.363C154.64 110.375 154.553 110.369 154.469 110.347C154.386 110.324 154.308 110.286 154.24 110.233C154.173 110.178 154.119 110.109 154.082 110.031C154.045 109.953 154.026 109.868 154.026 109.781C154.026 109.698 153.908 101.089 153.541 99.0941C152.663 96.1335 151.086 93.4287 148.943 91.2092C148.582 90.8924 148.15 90.6668 147.684 90.5511C147.218 90.4354 146.732 90.433 146.265 90.5442C145.722 90.625 145.201 90.8124 144.731 91.0956C144.262 91.3789 143.852 91.7525 143.527 92.1948C143.184 92.8954 143.717 95.7573 144.072 97.6928C144.324 98.7937 144.483 99.914 144.546 101.042C144.475 102.716 141.299 112.346 138.621 116.253C137.684 117.813 136.513 119.219 135.149 120.421L138.894 141.083C139.656 140.938 140.429 140.863 141.205 140.858Z" fill="#231F20"/>
<path d="M168.981 224.504L184.208 215.301L168.27 218.472L167.749 214.054C167.618 212.92 167.265 211.822 166.71 210.824C166.156 209.826 165.41 208.947 164.517 208.238C163.623 207.529 162.599 207.003 161.502 206.691C160.406 206.379 159.259 206.286 158.126 206.419L105.465 212.558C104.333 212.689 103.237 213.043 102.241 213.599C101.245 214.154 100.369 214.901 99.6609 215.797C98.9532 216.692 98.4286 217.719 98.1171 218.818C97.8056 219.916 97.7133 221.066 97.8454 222.2L101.4 253.336C101.538 254.476 101.899 255.576 102.463 256.576C103.026 257.575 103.781 258.453 104.684 259.159C105.586 259.865 106.62 260.385 107.724 260.69C108.828 260.996 109.981 261.079 111.117 260.936L163.755 254.797C166.043 254.529 168.131 253.361 169.56 251.551C170.989 249.741 171.642 247.435 171.375 245.143L168.981 224.504Z" fill="white"/>
<path d="M110.11 261.625C107.837 261.621 105.644 260.782 103.945 259.268C102.247 257.755 101.16 255.67 100.891 253.408L97.3359 222.272C97.0586 219.826 97.7576 217.37 99.2805 215.439C100.803 213.508 103.027 212.259 105.465 211.964L158.115 205.825C160.557 205.544 163.012 206.245 164.94 207.774C166.868 209.303 168.112 211.536 168.4 213.983L168.839 217.771L184.137 214.719C184.275 214.689 184.419 214.709 184.544 214.775C184.669 214.842 184.765 214.951 184.817 215.083C184.868 215.215 184.871 215.361 184.825 215.494C184.778 215.628 184.686 215.741 184.564 215.812L169.656 224.813L172.026 245.119C172.31 247.568 171.612 250.029 170.085 251.962C168.559 253.894 166.329 255.141 163.886 255.426L111.248 261.566C110.87 261.612 110.49 261.631 110.11 261.625ZM159.146 207.001C158.834 206.983 158.521 206.983 158.209 207.001L105.56 213.14C104.504 213.262 103.482 213.592 102.554 214.11C101.625 214.628 100.807 215.324 100.147 216.159C99.4867 216.994 98.997 217.951 98.7058 218.975C98.4146 219.999 98.3276 221.071 98.4498 222.129L102.005 253.277C102.254 255.413 103.339 257.362 105.02 258.697C106.702 260.033 108.843 260.646 110.975 260.402L163.625 254.263C165.756 254.012 167.701 252.926 169.034 251.241C170.367 249.556 170.978 247.41 170.735 245.273L168.365 224.587C168.354 224.474 168.375 224.359 168.425 224.256C168.475 224.153 168.553 224.067 168.649 224.006L180.985 216.56L168.365 219.066C168.285 219.082 168.203 219.083 168.124 219.066C168.044 219.05 167.969 219.017 167.903 218.971C167.774 218.867 167.689 218.719 167.666 218.555L167.156 214.138C166.927 212.166 165.986 210.347 164.51 209.023C163.035 207.7 161.126 206.963 159.146 206.953V207.001Z" fill="#231F20"/>
<path d="M112.445 233.838L123.88 232.567L125.705 249.156L115.81 250.249L112.445 233.838Z" fill="#F14736"/>
<path d="M115.81 250.843C115.673 250.843 115.541 250.795 115.435 250.709C115.329 250.622 115.257 250.502 115.229 250.368L111.864 233.957C111.847 233.875 111.847 233.791 111.865 233.709C111.882 233.628 111.917 233.551 111.966 233.484C112.015 233.417 112.078 233.361 112.15 233.319C112.223 233.278 112.303 233.252 112.385 233.244L123.809 231.985C123.964 231.969 124.12 232.014 124.242 232.112C124.364 232.21 124.443 232.352 124.461 232.508L126.297 249.133C126.305 249.211 126.298 249.29 126.276 249.365C126.253 249.44 126.216 249.51 126.167 249.571C126.117 249.631 126.056 249.682 125.987 249.719C125.918 249.756 125.842 249.778 125.764 249.786L115.881 250.878L115.81 250.843ZM113.156 234.349L116.284 249.596L125.053 248.634L123.347 233.197L113.156 234.349Z" fill="#231F20"/>
<path d="M122.328 247.945C123.061 247.945 123.655 247.35 123.655 246.615C123.655 245.881 123.061 245.285 122.328 245.285C121.595 245.285 121 245.881 121 246.615C121 247.35 121.595 247.945 122.328 247.945Z" fill="#231F20"/>
<path d="M123.987 233.624C123.987 233.624 124.686 233.434 126.499 231.095C128.39 228.24 129.855 225.123 130.848 221.844C130.954 220.847 130.137 216.881 130.634 216.002C131.132 215.123 133.502 214.209 134.746 215.551C136.069 217.126 136.988 219.001 137.424 221.013C137.567 222.367 137.259 227.936 137.259 227.936L148.718 226.665C150.388 226.487 150.898 227.639 150.933 228.945C150.777 230.049 150.323 231.088 149.618 231.95C150.081 232.12 150.461 232.46 150.681 232.902C150.901 233.343 150.945 233.852 150.803 234.325C150.753 234.875 150.576 235.406 150.286 235.876C149.996 236.346 149.601 236.742 149.132 237.032C149.463 237.248 149.709 237.571 149.83 237.947C149.951 238.324 149.939 238.73 149.796 239.098C149.589 239.982 149.044 240.75 148.279 241.236C148.689 241.411 149.013 241.742 149.182 242.155C149.35 242.568 149.35 243.032 149.18 243.445C148.706 245.143 147.852 246.271 146.454 246.485C145.056 246.698 131.049 248.183 129.758 248.325C128.466 248.468 128.288 247.791 127.553 247.625C126.859 247.544 126.157 247.564 125.468 247.684L123.987 233.624Z" fill="white"/>
<path d="M129.461 248.86C128.901 248.868 128.355 248.689 127.909 248.349C127.787 248.24 127.641 248.162 127.482 248.123C126.866 248.029 126.238 248.029 125.622 248.123C125.464 248.148 125.302 248.109 125.172 248.017C125.107 247.967 125.054 247.904 125.015 247.833C124.976 247.761 124.953 247.682 124.946 247.601L123.406 233.624C123.388 233.492 123.418 233.357 123.49 233.244C123.561 233.131 123.67 233.047 123.797 233.007C124.688 232.365 125.448 231.559 126.037 230.632C127.858 227.862 129.278 224.847 130.255 221.678C130.251 221.026 130.199 220.375 130.101 219.731C129.864 217.676 129.746 216.275 130.101 215.598C130.403 215.198 130.787 214.866 131.226 214.625C131.665 214.383 132.15 214.238 132.649 214.197C133.103 214.128 133.566 214.168 134.001 214.315C134.436 214.461 134.83 214.71 135.149 215.04C136.562 216.706 137.539 218.697 137.993 220.835C138.112 221.939 137.993 225.585 137.863 227.164L148.623 225.977C148.972 225.917 149.329 225.931 149.673 226.019C150.016 226.107 150.336 226.267 150.613 226.487C150.918 226.8 151.154 227.172 151.307 227.581C151.46 227.99 151.527 228.426 151.502 228.862C151.423 229.878 151.066 230.851 150.471 231.677C150.851 231.98 151.142 232.381 151.311 232.837C151.48 233.293 151.522 233.787 151.431 234.265C151.322 235.298 150.842 236.256 150.08 236.961C150.291 237.272 150.43 237.627 150.487 237.998C150.545 238.37 150.519 238.75 150.412 239.11C150.225 239.856 149.84 240.537 149.298 241.082C149.584 241.397 149.781 241.784 149.866 242.202C149.952 242.62 149.923 243.053 149.784 243.457C149.215 245.523 148.137 246.698 146.573 246.924C145.388 247.102 136.287 248.112 131.902 248.563L129.852 248.777C129.724 248.815 129.594 248.842 129.461 248.86ZM126.913 246.888C127.192 246.88 127.47 246.903 127.743 246.96C128.052 247.032 128.339 247.174 128.584 247.375C128.748 247.508 128.94 247.602 129.145 247.651C129.35 247.701 129.563 247.704 129.769 247.66L131.819 247.435C135.86 246.995 145.328 245.986 146.442 245.82C147.556 245.653 148.255 244.798 148.694 243.195C149.002 242.067 148.243 241.747 148.161 241.711C148.056 241.669 147.964 241.599 147.895 241.51C147.826 241.42 147.783 241.313 147.769 241.2C147.763 241.086 147.788 240.972 147.843 240.872C147.897 240.771 147.979 240.687 148.078 240.63C148.381 240.43 148.641 240.172 148.845 239.87C149.048 239.568 149.19 239.23 149.263 238.873C149.535 237.816 148.907 237.484 148.907 237.472C148.81 237.424 148.727 237.349 148.67 237.257C148.612 237.165 148.582 237.058 148.582 236.949C148.582 236.84 148.612 236.734 148.67 236.641C148.727 236.549 148.81 236.475 148.907 236.427C149.287 236.18 149.607 235.849 149.841 235.461C150.075 235.072 150.217 234.635 150.258 234.182C150.412 232.852 149.618 232.544 149.452 232.496C149.357 232.47 149.271 232.421 149.2 232.352C149.13 232.284 149.078 232.198 149.049 232.104C149.02 232.012 149.013 231.915 149.029 231.819C149.046 231.724 149.085 231.634 149.144 231.558C149.774 230.81 150.184 229.902 150.329 228.934C150.363 228.402 150.189 227.878 149.843 227.473C149.69 227.361 149.514 227.282 149.329 227.241C149.143 227.2 148.951 227.198 148.765 227.236L137.306 228.506C137.22 228.511 137.134 228.499 137.052 228.471C136.971 228.442 136.896 228.398 136.832 228.34C136.771 228.28 136.724 228.207 136.694 228.127C136.663 228.048 136.649 227.962 136.654 227.877C136.761 225.965 136.939 222.082 136.82 221.049C136.395 219.167 135.53 217.412 134.296 215.931C134.1 215.739 133.861 215.597 133.6 215.514C133.339 215.432 133.062 215.412 132.791 215.456C132.157 215.506 131.567 215.799 131.144 216.275C131.02 217.411 131.059 218.559 131.262 219.683C131.382 220.413 131.434 221.152 131.416 221.892C130.42 225.266 128.918 228.47 126.961 231.392C126.287 232.323 125.49 233.158 124.591 233.874L126.025 246.936C126.309 246.912 126.617 246.888 126.913 246.888Z" fill="#231F20"/>
<path d="M379.994 259.143L371.521 202.025C371.384 201.086 371.062 200.183 370.576 199.369C370.09 198.554 369.448 197.843 368.688 197.278C367.927 196.712 367.063 196.302 366.144 196.071C365.225 195.841 364.27 195.794 363.333 195.933L291.794 206.621L274.15 193.558L281.556 208.236C279.972 208.792 278.631 209.886 277.765 211.328C276.9 212.769 276.564 214.469 276.816 216.132L285.289 273.262C285.428 274.2 285.75 275.102 286.237 275.915C286.724 276.728 287.366 277.438 288.126 278.002C288.886 278.567 289.75 278.976 290.669 279.206C291.587 279.436 292.541 279.482 293.477 279.342L373.986 267.349C375.866 267.053 377.552 266.024 378.678 264.487C379.804 262.95 380.277 261.029 379.994 259.143Z" fill="white"/>
<path d="M292.351 280.019C290.482 280.012 288.678 279.335 287.263 278.111C285.848 276.888 284.917 275.197 284.637 273.345L276.164 216.227C275.91 214.531 276.221 212.798 277.047 211.295C277.874 209.793 279.171 208.605 280.738 207.915L273.628 193.82C273.57 193.699 273.554 193.562 273.582 193.431C273.61 193.3 273.68 193.182 273.782 193.095C273.887 193.012 274.016 192.967 274.15 192.967C274.283 192.967 274.413 193.012 274.517 193.095L291.96 205.98L363.25 195.292C365.298 194.996 367.379 195.522 369.042 196.756C370.704 197.991 371.812 199.833 372.126 201.883L380.598 259.001C380.897 261.053 380.373 263.141 379.141 264.807C377.909 266.474 376.068 267.584 374.022 267.895L293.513 279.936C293.128 279.987 292.74 280.015 292.351 280.019ZM275.761 195.518L282.054 207.974C282.089 208.051 282.107 208.134 282.107 208.218C282.107 208.302 282.089 208.385 282.054 208.461C282.022 208.541 281.974 208.612 281.913 208.672C281.851 208.731 281.778 208.777 281.698 208.806C280.234 209.306 278.991 210.304 278.186 211.628C277.38 212.951 277.063 214.516 277.29 216.049L285.763 273.167C285.89 274.03 286.186 274.859 286.633 275.606C287.081 276.354 287.67 277.006 288.369 277.526C289.068 278.045 289.862 278.421 290.706 278.633C291.55 278.845 292.427 278.888 293.288 278.76L373.785 266.767C375.521 266.506 377.084 265.566 378.13 264.152C379.176 262.739 379.621 260.967 379.366 259.226L370.905 202.108C370.644 200.368 369.706 198.802 368.296 197.754C366.885 196.705 365.118 196.26 363.38 196.515L291.854 207.203C291.776 207.213 291.698 207.208 291.622 207.188C291.547 207.168 291.477 207.132 291.415 207.084L275.761 195.518Z" fill="#231F20"/>
<path d="M359.091 232.543L339.929 233.541L341.387 261.34L357.953 260.473L359.091 232.543Z" fill="#F14736"/>
<path d="M341.387 261.934C341.235 261.934 341.09 261.876 340.98 261.773C340.87 261.669 340.803 261.527 340.794 261.376L339.337 233.624C339.333 233.546 339.346 233.468 339.372 233.395C339.399 233.322 339.44 233.255 339.493 233.197C339.546 233.14 339.61 233.093 339.68 233.061C339.751 233.028 339.828 233.01 339.905 233.007L359.055 231.997C359.138 231.991 359.22 232.003 359.298 232.032C359.376 232.06 359.446 232.105 359.505 232.164C359.621 232.285 359.685 232.447 359.683 232.615L358.498 260.544C358.495 260.693 358.436 260.834 358.332 260.94C358.229 261.046 358.089 261.108 357.941 261.114L341.351 261.981L341.387 261.934ZM340.557 234.111L341.944 260.723L357.349 259.903L358.427 233.173L340.557 234.111Z" fill="#231F20"/>
<path d="M346.269 258.466C347.486 258.466 348.473 257.477 348.473 256.258C348.473 255.038 347.486 254.049 346.269 254.049C345.052 254.049 344.065 255.038 344.065 256.258C344.065 257.477 345.052 258.466 346.269 258.466Z" fill="#231F20"/>
<path d="M340.024 235.275C340.024 235.275 338.839 235.156 335.213 231.795C331.587 228.435 326.029 219.351 325.579 217.736C325.128 216.121 325.413 209.423 324.394 208.069C323.375 206.716 319.192 205.884 317.509 208.426C315.754 211.375 314.745 214.71 314.57 218.139C314.689 220.407 316.703 229.492 316.703 229.492L297.506 230.489C294.698 230.644 294.164 232.674 294.461 234.835C294.757 236.997 297.423 239.431 297.423 239.431C297.423 239.431 295.124 240.452 296.013 243.587C296.243 244.478 296.676 245.304 297.278 245.998C297.881 246.693 298.636 247.237 299.485 247.589C299.002 248.032 298.686 248.627 298.589 249.276C298.492 249.924 298.62 250.586 298.952 251.151C299.526 252.556 300.629 253.677 302.021 254.274C301.395 254.671 300.951 255.298 300.784 256.021C300.618 256.744 300.743 257.503 301.132 258.134C302.317 260.806 304.071 262.444 306.441 262.409C308.811 262.373 332.155 261.067 334.419 260.948C336.682 260.829 336.694 259.654 337.844 259.179C338.966 258.863 340.126 258.707 341.292 258.716L340.024 235.275Z" fill="white"/>
<path d="M306.323 263.014C303.893 263.014 301.95 261.459 300.54 258.395C300.195 257.77 300.045 257.055 300.111 256.343C300.176 255.632 300.454 254.956 300.907 254.405C299.772 253.687 298.883 252.639 298.359 251.401C298.072 250.836 297.933 250.208 297.953 249.574C297.974 248.941 298.155 248.323 298.478 247.779C297.723 247.344 297.062 246.763 296.533 246.07C296.004 245.377 295.618 244.585 295.397 243.741C295.11 242.987 295.056 242.163 295.242 241.378C295.428 240.592 295.845 239.881 296.44 239.336C295.173 238.139 294.269 236.608 293.833 234.918C293.689 234.273 293.681 233.606 293.81 232.957C293.938 232.309 294.2 231.695 294.579 231.154C294.936 230.753 295.375 230.433 295.865 230.216C296.356 229.999 296.887 229.89 297.423 229.895L315.933 228.934C315.447 226.76 314.025 220.11 313.93 218.163C314.096 214.605 315.142 211.144 316.976 208.093C317.376 207.518 317.908 207.047 318.526 206.719C319.144 206.391 319.831 206.215 320.531 206.205C321.302 206.142 322.078 206.242 322.809 206.497C323.539 206.753 324.208 207.159 324.773 207.689C325.496 208.592 325.674 210.979 325.828 214.256C325.841 215.37 325.936 216.481 326.112 217.581C326.503 218.959 331.942 227.984 335.592 231.356C338.886 234.408 340.048 234.669 340.095 234.681C340.231 234.698 340.357 234.764 340.448 234.867C340.54 234.969 340.591 235.101 340.593 235.239L341.778 258.704C341.783 258.785 341.771 258.866 341.742 258.941C341.713 259.017 341.669 259.086 341.612 259.143C341.499 259.257 341.345 259.321 341.185 259.321C340.1 259.303 339.017 259.447 337.974 259.749C337.681 259.884 337.419 260.078 337.204 260.319C336.838 260.704 336.396 261.008 335.907 261.213C335.417 261.417 334.89 261.517 334.36 261.506L330.603 261.708C323.351 262.112 308.23 262.896 306.346 262.967L306.323 263.014ZM320.874 207.393H320.625C320.105 207.391 319.591 207.514 319.127 207.752C318.663 207.989 318.263 208.334 317.959 208.758C316.281 211.601 315.305 214.806 315.115 218.104C315.222 220.3 317.213 229.266 317.236 229.361C317.254 229.445 317.254 229.532 317.235 229.616C317.217 229.7 317.181 229.779 317.13 229.848C317.078 229.916 317.012 229.973 316.936 230.014C316.86 230.055 316.777 230.079 316.691 230.085L297.494 231.083C297.122 231.072 296.751 231.139 296.406 231.28C296.061 231.421 295.75 231.633 295.492 231.902C295.224 232.331 295.048 232.812 294.975 233.312C294.901 233.813 294.932 234.323 295.065 234.812C295.278 236.415 297.139 238.374 297.838 239.039C297.91 239.106 297.965 239.19 297.998 239.283C298.031 239.376 298.041 239.476 298.028 239.573C298.01 239.672 297.969 239.765 297.907 239.844C297.845 239.923 297.764 239.985 297.672 240.025C297.494 240.108 295.871 240.939 296.594 243.468C296.8 244.261 297.186 244.995 297.723 245.613C298.26 246.231 298.932 246.716 299.687 247.031C299.791 247.063 299.884 247.125 299.953 247.209C300.023 247.294 300.066 247.397 300.078 247.506C300.095 247.612 300.084 247.722 300.044 247.822C300.004 247.923 299.938 248.01 299.852 248.076C299.479 248.442 299.241 248.926 299.179 249.446C299.116 249.966 299.233 250.493 299.509 250.938C300.009 252.191 300.985 253.195 302.222 253.728C302.331 253.765 302.426 253.833 302.496 253.924C302.567 254.014 302.61 254.123 302.62 254.238C302.63 254.352 302.607 254.467 302.553 254.568C302.499 254.669 302.417 254.753 302.317 254.809C302.072 254.97 301.86 255.178 301.695 255.421C301.53 255.664 301.414 255.937 301.355 256.225C301.295 256.513 301.293 256.81 301.348 257.099C301.404 257.388 301.516 257.663 301.677 257.908C302.862 260.58 304.474 261.898 306.417 261.839C308.361 261.779 323.375 260.984 330.627 260.58L334.371 260.378C334.766 260.39 335.158 260.316 335.52 260.16C335.882 260.004 336.206 259.77 336.469 259.476C336.804 259.124 337.207 258.845 337.654 258.656C338.639 258.339 339.665 258.171 340.699 258.157L339.514 235.714C337.789 234.813 336.22 233.638 334.869 232.235C331.196 228.839 325.543 219.624 325.069 217.902C324.862 216.725 324.751 215.534 324.737 214.339C324.643 212.261 324.489 209.126 323.943 208.402C323.09 207.68 321.989 207.318 320.874 207.393Z" fill="#231F20"/>
<path d="M375.064 112.097L315.103 98.4648C314.097 98.2347 313.054 98.2059 312.036 98.3799C311.018 98.5539 310.044 98.9273 309.171 99.4787C308.297 100.03 307.54 100.749 306.943 101.594C306.347 102.438 305.923 103.393 305.694 104.402L298.454 136.381L282.966 142.319L296.866 143.411L296.333 145.786C296.102 146.795 296.072 147.84 296.245 148.861C296.418 149.881 296.79 150.858 297.341 151.734C297.891 152.61 298.609 153.368 299.453 153.966C300.297 154.563 301.25 154.988 302.258 155.215L362.219 168.847C364.252 169.308 366.385 168.942 368.149 167.829C369.913 166.716 371.164 164.946 371.628 162.91L380.989 121.526C381.45 119.488 381.084 117.351 379.973 115.583C378.863 113.815 377.097 112.562 375.064 112.097Z" fill="white"/>
<path d="M363.973 169.642C363.339 169.642 362.707 169.57 362.089 169.429L302.175 155.796C299.988 155.298 298.088 153.95 296.893 152.048C295.697 150.147 295.304 147.847 295.8 145.655L296.179 143.945L282.966 142.912C282.888 142.923 282.809 142.919 282.733 142.899C282.657 142.879 282.586 142.845 282.523 142.797C282.46 142.75 282.407 142.69 282.368 142.623C282.328 142.555 282.302 142.48 282.291 142.402C282.28 142.324 282.284 142.244 282.304 142.168C282.324 142.092 282.358 142.02 282.406 141.957C282.453 141.895 282.512 141.842 282.58 141.802C282.648 141.762 282.722 141.736 282.8 141.725L297.992 135.918L305.161 104.236C305.67 102.068 307.009 100.188 308.889 99.0019C310.769 97.8154 313.04 97.4178 315.21 97.8947L375.171 111.515C377.356 112.016 379.254 113.365 380.449 115.266C381.644 117.167 382.039 119.465 381.546 121.656L372.185 163.04C371.757 164.921 370.702 166.6 369.194 167.801C367.686 169.001 365.815 169.65 363.89 169.642H363.973ZM285.585 141.927L296.866 142.817C296.951 142.825 297.032 142.851 297.106 142.893C297.179 142.935 297.244 142.992 297.294 143.06C297.344 143.129 297.379 143.207 297.398 143.29C297.416 143.373 297.417 143.458 297.4 143.542L296.854 145.917C296.433 147.8 296.774 149.773 297.803 151.405C298.831 153.036 300.463 154.193 302.341 154.621L362.349 168.313C363.28 168.525 364.243 168.552 365.184 168.391C366.125 168.23 367.025 167.885 367.833 167.376C368.641 166.866 369.34 166.202 369.892 165.422C370.443 164.641 370.836 163.759 371.047 162.826L380.385 121.395C380.807 119.51 380.466 117.535 379.438 115.902C378.409 114.268 376.777 113.11 374.899 112.679L314.973 99.0466C314.042 98.8342 313.078 98.8081 312.136 98.9696C311.195 99.1311 310.294 99.4771 309.486 99.9878C308.678 100.498 307.979 101.164 307.428 101.946C306.877 102.728 306.485 103.611 306.275 104.545L299.035 136.524C299.012 136.618 298.967 136.705 298.903 136.777C298.839 136.85 298.758 136.905 298.667 136.939L285.585 141.927Z" fill="#231F20"/>
<path d="M363.179 134.897L347.869 132.783L344.799 155.001L358.048 156.83L363.179 134.897Z" fill="#F14736"/>
<path d="M358.048 157.423H357.965L344.717 155.595C344.639 155.583 344.565 155.556 344.499 155.516C344.432 155.476 344.374 155.423 344.328 155.36C344.281 155.297 344.248 155.225 344.229 155.15C344.211 155.074 344.207 154.995 344.219 154.918L347.276 132.688C347.3 132.534 347.382 132.394 347.506 132.299C347.629 132.204 347.785 132.16 347.94 132.177L363.25 134.303C363.333 134.313 363.412 134.34 363.484 134.383C363.555 134.426 363.617 134.484 363.665 134.552C363.71 134.622 363.741 134.7 363.755 134.781C363.77 134.863 363.767 134.947 363.748 135.027L358.628 156.96C358.599 157.092 358.525 157.21 358.419 157.294C358.314 157.378 358.183 157.424 358.048 157.423ZM345.475 154.49L357.597 156.177L362.444 135.396L348.39 133.448L345.475 154.49Z" fill="#231F20"/>
<path d="M349.433 153.493C350.415 153.493 351.21 152.695 351.21 151.712C351.21 150.728 350.415 149.93 349.433 149.93C348.451 149.93 347.655 150.728 347.655 151.712C347.655 152.695 348.451 153.493 349.433 153.493Z" fill="#231F20"/>
<path d="M347.667 134.161C347.667 134.161 346.755 133.887 344.385 130.669C341.951 126.767 340.106 122.525 338.91 118.082C338.792 116.74 340.095 111.444 339.396 110.245C338.697 109.045 335.616 107.727 333.897 109.485C332.062 111.549 330.756 114.032 330.094 116.716C329.845 118.533 330.094 126.026 330.094 126.026L314.748 123.913C312.496 123.592 311.774 125.1 311.679 126.881C311.584 128.662 313.326 130.966 313.326 130.966C312.701 131.164 312.174 131.591 311.849 132.161C311.524 132.73 311.425 133.402 311.572 134.042C311.618 134.783 311.837 135.504 312.212 136.145C312.587 136.787 313.106 137.331 313.729 137.735C313.274 138.011 312.928 138.436 312.751 138.938C312.574 139.441 312.576 139.989 312.757 140.49C313.002 141.686 313.704 142.738 314.712 143.423C314.158 143.643 313.712 144.073 313.47 144.619C313.229 145.165 313.211 145.785 313.421 146.344C313.989 148.648 315.103 150.203 316.976 150.536C318.848 150.868 337.535 153.374 339.348 153.623C341.162 153.873 341.339 152.958 342.323 152.757C343.258 152.677 344.199 152.729 345.119 152.911L347.667 134.161Z" fill="white"/>
<path d="M339.894 154.265C339.673 154.281 339.451 154.281 339.23 154.265L336.445 153.885C330.52 153.089 318.35 151.438 316.833 151.165C314.843 150.809 313.48 149.253 312.816 146.534C312.635 145.987 312.616 145.399 312.764 144.842C312.911 144.286 313.218 143.784 313.646 143.399C312.891 142.654 312.368 141.705 312.141 140.668C312.004 140.178 311.987 139.663 312.09 139.165C312.193 138.667 312.414 138.201 312.733 137.806C311.696 136.854 311.061 135.542 310.956 134.137C310.846 133.495 310.924 132.835 311.181 132.236C311.437 131.638 311.861 131.127 312.402 130.764C311.605 129.627 311.138 128.292 311.051 126.905C311.028 126.356 311.122 125.809 311.327 125.299C311.531 124.789 311.841 124.329 312.236 123.948C312.59 123.676 312.999 123.482 313.434 123.382C313.87 123.282 314.322 123.276 314.76 123.366L329.43 125.349C329.43 123.426 329.276 118.224 329.489 116.633C330.164 113.823 331.524 111.224 333.447 109.069C333.867 108.659 334.379 108.355 334.939 108.184C335.5 108.012 336.094 107.978 336.67 108.083C337.309 108.153 337.926 108.355 338.481 108.679C339.036 109.002 339.517 109.438 339.894 109.96C340.356 110.815 340.131 112.667 339.751 115.386C339.598 116.261 339.507 117.146 339.479 118.035C340.665 122.364 342.469 126.5 344.835 130.313C346.944 133.175 347.809 133.579 347.845 133.591C347.974 133.634 348.084 133.723 348.154 133.84C348.223 133.958 348.248 134.097 348.224 134.232L345.641 152.982C345.631 153.062 345.604 153.139 345.564 153.208C345.523 153.278 345.469 153.338 345.404 153.386C345.338 153.433 345.262 153.466 345.183 153.483C345.103 153.499 345.021 153.498 344.942 153.481C344.097 153.304 343.23 153.252 342.37 153.327C342.133 153.387 341.911 153.496 341.718 153.647C341.192 154.044 340.552 154.26 339.894 154.265ZM314.155 124.459C313.73 124.429 313.309 124.556 312.97 124.815C312.452 125.389 312.176 126.143 312.2 126.917C312.358 128.266 312.887 129.545 313.729 130.61C313.788 130.691 313.826 130.785 313.841 130.885C313.855 130.984 313.845 131.085 313.812 131.18C313.778 131.273 313.721 131.355 313.646 131.419C313.571 131.484 313.482 131.528 313.385 131.548C313.243 131.548 311.916 131.976 312.093 133.994C312.138 134.638 312.327 135.263 312.647 135.822C312.967 136.382 313.41 136.861 313.942 137.224C314.036 137.275 314.115 137.351 314.169 137.443C314.224 137.535 314.253 137.64 314.253 137.747C314.253 137.854 314.224 137.959 314.169 138.051C314.115 138.143 314.036 138.218 313.942 138.269C313.847 138.269 312.959 138.839 313.302 140.359C313.51 141.394 314.109 142.309 314.973 142.912C315.072 142.968 315.151 143.052 315.202 143.154C315.253 143.255 315.272 143.37 315.257 143.482C315.246 143.594 315.203 143.7 315.134 143.788C315.065 143.877 314.972 143.943 314.866 143.981C314.661 144.067 314.475 144.192 314.318 144.35C314.161 144.509 314.038 144.697 313.954 144.903C313.87 145.11 313.828 145.331 313.83 145.554C313.832 145.776 313.878 145.997 313.966 146.202C314.523 148.458 315.53 149.681 317.047 149.954C318.564 150.227 330.733 151.866 336.599 152.662L339.396 153.042C339.691 153.111 339.997 153.112 340.292 153.047C340.588 152.981 340.865 152.849 341.102 152.662C341.427 152.43 341.793 152.265 342.181 152.175C342.966 152.059 343.765 152.059 344.551 152.175L346.992 134.362C345.784 133.38 344.733 132.219 343.875 130.919C341.383 126.924 339.494 122.583 338.27 118.035C338.279 117.054 338.374 116.077 338.555 115.113C338.768 113.57 339.135 110.993 338.827 110.363C338.233 109.645 337.383 109.189 336.457 109.093C336.065 109.017 335.661 109.036 335.278 109.148C334.895 109.259 334.544 109.46 334.253 109.734C332.509 111.71 331.262 114.076 330.615 116.633C330.366 118.379 330.615 125.777 330.615 125.848C330.616 125.935 330.598 126.021 330.564 126.101C330.529 126.181 330.478 126.253 330.414 126.311C330.348 126.366 330.273 126.407 330.191 126.431C330.11 126.456 330.024 126.463 329.94 126.454L314.594 124.328L314.155 124.459Z" fill="#231F20"/>
</svg>
