<svg width="301" height="226" viewBox="0 0 301 226" fill="none" xmlns="http://www.w3.org/2000/svg">
<path d="M216.983 57.524C216.983 57.524 215.23 54.2965 212.468 49.84C212.468 49.84 203.566 56.4984 203.642 56.129C203.717 55.7595 216.983 57.524 216.983 57.524Z" fill="#231F20"/>
<path d="M216.983 57.9011H216.931C212.25 57.2752 204.597 56.3477 203.777 56.4608C203.551 56.5513 203.491 56.5061 203.416 56.4608C203.349 56.4183 203.297 56.3567 203.266 56.284C203.236 56.2114 203.227 56.1311 203.243 56.0536C203.243 55.9481 203.288 55.8425 203.536 55.7822C204.055 55.5786 209.135 51.8459 212.22 49.5384C212.261 49.507 212.309 49.4848 212.36 49.4731C212.41 49.4614 212.463 49.4605 212.513 49.4705C212.564 49.4789 212.613 49.498 212.656 49.5266C212.698 49.5552 212.735 49.5926 212.762 49.6364C215.531 54.0553 217.277 57.3129 217.322 57.3431C217.359 57.4019 217.378 57.4698 217.378 57.5392C217.378 57.6085 217.359 57.6764 217.322 57.7352C217.285 57.7903 217.234 57.8346 217.175 57.8637C217.115 57.8928 217.049 57.9057 216.983 57.9011ZM204.943 55.7595C206.584 55.85 209.827 56.2044 216.268 57.0565C215.644 55.933 214.237 53.4671 212.31 50.3905C208.292 53.4068 206.14 54.9678 204.966 55.7595H204.943Z" fill="#231F20"/>
<path d="M99.1268 192.014L94.687 184.594L100.827 179.029L99.1268 192.014Z" fill="#231F20"/>
<path d="M99.1268 192.391C99.062 192.39 98.9984 192.374 98.9418 192.342C98.8852 192.31 98.8375 192.265 98.8032 192.21L94.3635 184.79C94.3189 184.714 94.302 184.625 94.3157 184.538C94.3294 184.452 94.3729 184.373 94.4387 184.315L100.579 178.749C100.637 178.698 100.709 178.665 100.785 178.655C100.862 178.646 100.94 178.66 101.008 178.697C101.075 178.734 101.13 178.79 101.165 178.859C101.2 178.927 101.213 179.005 101.204 179.081L99.5031 192.044C99.4934 192.123 99.4591 192.197 99.4051 192.255C99.351 192.313 99.2799 192.353 99.2021 192.368L99.1268 192.391ZM95.1687 184.669L98.8935 190.89L100.323 179.994L95.1687 184.669Z" fill="#231F20"/>
<path d="M102.009 193.552L173.496 203.755C174.962 203.946 176.448 203.609 177.689 202.804C178.929 201.998 179.844 200.777 180.269 199.358L217.254 60.6836C218.007 57.8106 216.178 55.2844 213.146 55.0356L140.258 49.1463C138.817 49.0763 137.393 49.493 136.216 50.3297C135.039 51.1664 134.175 52.3747 133.764 53.7612L98.269 187.851C98.0848 188.474 98.0384 189.13 98.1332 189.772C98.228 190.415 98.4616 191.029 98.8177 191.572C99.1738 192.115 99.6438 192.573 100.195 192.915C100.746 193.257 101.365 193.475 102.009 193.552Z" fill="#231F20"/>
<path d="M174.287 204.215C173.997 204.213 173.708 204.193 173.421 204.154L101.934 193.944C101.242 193.859 100.577 193.626 99.9839 193.26C99.3905 192.894 98.8826 192.405 98.4947 191.825C98.1091 191.229 97.8551 190.558 97.75 189.855C97.6449 189.153 97.691 188.436 97.8852 187.753L133.381 53.6858C133.815 52.213 134.729 50.9284 135.977 50.0372C137.225 49.146 138.735 48.6996 140.266 48.7693L213.153 54.6586C213.898 54.6978 214.626 54.9021 215.283 55.2567C215.94 55.6114 216.51 56.1076 216.953 56.7097C217.355 57.2984 217.621 57.9689 217.733 58.673C217.845 59.377 217.799 60.0972 217.6 60.7817L180.6 199.479C180.192 200.842 179.359 202.037 178.222 202.89C177.086 203.742 175.706 204.207 174.287 204.215ZM102.047 193.198L173.534 203.408C174.903 203.578 176.288 203.258 177.444 202.503C178.599 201.748 179.451 200.607 179.848 199.283L216.871 60.6158C217.043 60.0378 217.085 59.4284 216.993 58.8322C216.9 58.2359 216.676 57.6679 216.336 57.1697C215.959 56.6566 215.472 56.2346 214.911 55.9345C214.349 55.6344 213.728 55.4639 213.093 55.4353L140.206 49.5233C138.851 49.452 137.512 49.8414 136.405 50.6285C135.299 51.4155 134.49 52.554 134.111 53.8593L98.6377 187.949C98.4696 188.529 98.4276 189.138 98.5146 189.735C98.6016 190.332 98.8155 190.903 99.1419 191.41C99.4733 191.9 99.9052 192.312 100.409 192.621C100.912 192.929 101.476 193.126 102.062 193.198H102.047Z" fill="#231F20"/>
<path d="M97.3509 185.921L168.838 196.123C170.305 196.318 171.792 195.982 173.033 195.176C174.275 194.37 175.189 193.148 175.611 191.727L212.581 53.0523C213.334 50.1793 211.505 47.6531 208.473 47.4043L135.585 41.5149C134.144 41.445 132.72 41.8617 131.543 42.6983C130.366 43.535 129.502 44.7434 129.091 46.1299L93.6185 180.197C93.4305 180.821 93.3809 181.478 93.4734 182.123C93.5658 182.768 93.7981 183.385 94.1538 183.931C94.5095 184.476 94.98 184.937 95.5323 185.281C96.0846 185.624 96.7054 185.843 97.3509 185.921Z" fill="white"/>
<path d="M169.628 196.568C169.341 196.567 169.055 196.547 168.771 196.508L97.2831 186.298C96.5928 186.212 95.9289 185.979 95.3367 185.613C94.7446 185.248 94.2381 184.758 93.8517 184.179C93.4642 183.584 93.2092 182.912 93.1041 182.209C92.9989 181.507 93.046 180.79 93.2422 180.107L128.73 46.0394C129.163 44.5673 130.078 43.2838 131.327 42.3949C132.575 41.506 134.086 41.0633 135.615 41.1379L208.503 47.0273C209.242 47.0698 209.963 47.2758 210.613 47.6304C211.264 47.985 211.828 48.4795 212.265 49.0783C212.67 49.6654 212.938 50.336 213.05 51.0407C213.162 51.7454 213.115 52.4663 212.912 53.1504L175.927 191.825C175.519 193.186 174.688 194.38 173.555 195.233C172.422 196.086 171.046 196.554 169.628 196.568ZM135.141 41.8769C133.852 41.9002 132.603 42.3345 131.576 43.1168C130.549 43.8991 129.797 44.9888 129.43 46.2279L93.9796 180.295C93.8146 180.876 93.7749 181.484 93.8631 182.081C93.9513 182.678 94.1655 183.249 94.4913 183.757C94.8212 184.246 95.2518 184.658 95.7541 184.966C96.2565 185.275 96.8189 185.472 97.4035 185.544L168.891 195.754C170.266 195.931 171.658 195.613 172.821 194.858C173.984 194.103 174.842 192.959 175.242 191.629L212.205 52.9618C212.376 52.3836 212.416 51.7746 212.324 51.1787C212.231 50.5828 212.008 50.0148 211.671 49.5157C211.292 49.0038 210.805 48.5826 210.244 48.2827C209.683 47.9827 209.062 47.8115 208.427 47.7813L135.54 41.892L135.141 41.8769Z" fill="#231F20"/>
<path d="M126.894 185.114L140.845 187.082C141.73 187.189 142.624 186.979 143.369 186.487C144.113 185.995 144.659 185.255 144.909 184.398L146.301 179.187C146.417 178.791 146.445 178.375 146.382 177.967C146.319 177.56 146.167 177.171 145.937 176.829C145.707 176.487 145.405 176.2 145.051 175.988C144.698 175.777 144.303 175.646 143.893 175.605L129.927 173.705C129.048 173.607 128.163 173.822 127.426 174.313C126.69 174.804 126.15 175.539 125.901 176.389L124.531 181.555C124.415 181.946 124.386 182.357 124.447 182.761C124.507 183.164 124.656 183.549 124.881 183.889C125.106 184.228 125.404 184.514 125.751 184.726C126.099 184.938 126.489 185.07 126.894 185.114Z" fill="white"/>
<path d="M141.312 187.519C141.138 187.522 140.964 187.509 140.793 187.482L126.841 185.521C126.384 185.469 125.943 185.318 125.55 185.077C125.156 184.837 124.82 184.513 124.565 184.129C124.31 183.744 124.142 183.309 124.072 182.852C124.003 182.396 124.034 181.93 124.163 181.487L125.532 176.321C125.804 175.384 126.399 174.573 127.21 174.032C128.021 173.492 128.996 173.255 129.964 173.365L143.938 175.258C144.403 175.313 144.85 175.467 145.25 175.711C145.65 175.954 145.993 176.281 146.256 176.668C146.507 177.055 146.673 177.492 146.741 177.948C146.81 178.405 146.781 178.871 146.655 179.315L145.278 184.503C145.027 185.366 144.507 186.125 143.792 186.668C143.078 187.211 142.209 187.51 141.312 187.519ZM129.468 174.082C128.745 174.09 128.045 174.33 127.469 174.767C126.893 175.204 126.473 175.815 126.27 176.51L124.915 181.653C124.815 181.992 124.79 182.35 124.843 182.7C124.896 183.051 125.025 183.385 125.221 183.68C125.417 183.975 125.675 184.223 125.977 184.407C126.279 184.591 126.618 184.706 126.969 184.744L140.913 186.705C141.708 186.804 142.513 186.616 143.183 186.175C143.853 185.735 144.344 185.07 144.57 184.3L145.955 179.089C146.055 178.748 146.079 178.389 146.027 178.038C145.975 177.686 145.848 177.35 145.654 177.053C145.45 176.755 145.185 176.504 144.876 176.318C144.567 176.132 144.221 176.015 143.863 175.975L129.897 174.082C129.755 174.059 129.611 174.049 129.468 174.052V174.082Z" fill="#E6E7E8"/>
<path d="M183.444 52.8789L162.126 51.0918C162.077 51.0878 162.028 51.0741 161.984 51.0515C161.94 51.0289 161.901 50.9978 161.869 50.96C161.837 50.9222 161.812 50.8784 161.797 50.8311C161.782 50.7839 161.776 50.7341 161.78 50.6846C161.784 50.635 161.797 50.5868 161.82 50.5426C161.843 50.4983 161.874 50.459 161.911 50.4268C161.949 50.3946 161.993 50.3701 162.04 50.3548C162.087 50.3395 162.137 50.3337 162.186 50.3377L183.505 52.1173C183.604 52.1173 183.7 52.157 183.771 52.2277C183.841 52.2984 183.881 52.3943 183.881 52.4943C183.881 52.5943 183.841 52.6902 183.771 52.7609C183.7 52.8317 183.604 52.8714 183.505 52.8714L183.444 52.8789Z" fill="#D1D3D4"/>
<path d="M159.169 50.8429H159.131L156.309 50.6091C156.209 50.6011 156.117 50.5537 156.052 50.4774C155.987 50.401 155.955 50.3019 155.963 50.2019C155.971 50.1019 156.018 50.0092 156.095 49.9442C156.171 49.8791 156.27 49.8471 156.369 49.8551L159.199 50.0964C159.299 50.0964 159.394 50.1361 159.465 50.2068C159.535 50.2775 159.575 50.3734 159.575 50.4734C159.575 50.5734 159.535 50.6693 159.465 50.74C159.394 50.8107 159.299 50.8504 159.199 50.8504L159.169 50.8429Z" fill="#D1D3D4"/>
<path d="M204.928 62.1917L176.266 173.109L101.843 164.241L130.679 55.6991L204.928 62.1917Z" fill="white"/>
<path d="M176.266 173.486H176.228L101.798 164.611C101.745 164.606 101.694 164.589 101.648 164.561C101.603 164.534 101.564 164.497 101.535 164.452C101.504 164.407 101.484 164.357 101.475 164.303C101.466 164.25 101.468 164.195 101.482 164.143L130.318 55.6011C130.341 55.5148 130.393 55.4395 130.466 55.3884C130.539 55.3373 130.628 55.3138 130.717 55.3221L204.958 61.8147C205.013 61.8209 205.066 61.8381 205.114 61.8653C205.162 61.8925 205.203 61.9292 205.237 61.9731C205.267 62.0192 205.288 62.0712 205.297 62.1258C205.306 62.1804 205.303 62.2363 205.289 62.2898L176.634 173.192C176.615 173.276 176.569 173.351 176.502 173.404C176.435 173.457 176.351 173.486 176.266 173.486ZM102.34 163.917L176.01 172.702L204.454 62.5311L130.935 56.1064L102.34 163.917Z" fill="#231F20"/>
<path d="M183.956 74.9583L147.407 71.5423C146.958 71.5145 146.521 71.3861 146.127 71.1665C145.734 70.9469 145.395 70.6418 145.135 70.2735C144.875 69.9052 144.701 69.4832 144.625 69.0385C144.55 68.5938 144.575 68.1378 144.698 67.7041C144.987 66.7357 145.596 65.8944 146.424 65.3177C147.253 64.741 148.252 64.4631 149.258 64.5294L185.807 67.8398C186.271 67.856 186.726 67.9781 187.135 68.1966C187.545 68.4152 187.9 68.7245 188.173 69.101C188.446 69.4776 188.629 69.9115 188.71 70.3698C188.79 70.8281 188.765 71.2987 188.637 71.7459C188.34 72.7369 187.714 73.5962 186.863 74.1808C186.011 74.7653 184.985 75.0397 183.956 74.9583Z" fill="#E6E7E8"/>
<path d="M198.592 76.7077L190.781 75.9537C190.727 75.9489 190.675 75.9322 190.628 75.9048C190.581 75.8774 190.541 75.84 190.51 75.7953C190.479 75.7512 190.457 75.7007 190.447 75.6473C190.436 75.594 190.437 75.539 190.45 75.4861L192.173 68.8578C192.196 68.7715 192.249 68.6961 192.322 68.645C192.395 68.5939 192.484 68.5705 192.572 68.5788L200.376 69.2876C200.431 69.2924 200.484 69.309 200.532 69.3363C200.58 69.3637 200.622 69.4011 200.654 69.446C200.685 69.4907 200.705 69.5415 200.714 69.5948C200.723 69.6482 200.721 69.7029 200.707 69.7552L198.991 76.4061C198.973 76.4966 198.922 76.5773 198.849 76.6328C198.775 76.6884 198.684 76.7151 198.592 76.7077ZM191.263 75.2675L198.314 75.9235L199.819 70.0191L192.768 69.3781L191.263 75.2675Z" fill="#D1D3D4"/>
<path d="M196.583 73.8423C196.517 73.8419 196.453 73.8243 196.396 73.7912C196.339 73.7581 196.292 73.7107 196.26 73.6537L195.056 71.6479C193.551 72.4774 191.925 73.3747 191.669 73.5859C191.623 73.6443 191.56 73.6881 191.49 73.7121C191.419 73.7362 191.343 73.7395 191.27 73.7216C191.175 73.6951 191.094 73.632 191.044 73.5459C190.995 73.4597 190.982 73.3576 191.007 73.2616C191.052 73.0731 191.097 72.9223 195.018 70.8109C195.103 70.7667 195.202 70.7569 195.295 70.7835C195.387 70.8102 195.466 70.8712 195.515 70.9542L196.907 73.2692C196.957 73.3555 196.972 73.4582 196.948 73.5553C196.924 73.6525 196.863 73.7365 196.779 73.7895C196.718 73.822 196.651 73.84 196.583 73.8423Z" fill="#D1D3D4"/>
<path d="M199.458 73.3823C199.403 73.3838 199.35 73.3731 199.3 73.3509C199.251 73.3287 199.207 73.2956 199.172 73.2541L197.983 71.9043L196.335 73.0128C196.252 73.0688 196.15 73.0896 196.052 73.0705C195.954 73.0514 195.868 72.994 195.812 72.911C195.756 72.828 195.735 72.7262 195.754 72.6279C195.773 72.5296 195.831 72.4429 195.913 72.3869L197.832 71.0899C197.909 71.0397 198.002 71.0189 198.093 71.0314C198.184 71.0438 198.268 71.0887 198.329 71.1578L199.736 72.7564C199.805 72.8282 199.844 72.9242 199.844 73.0241C199.844 73.1241 199.805 73.2201 199.736 73.2918C199.658 73.3556 199.558 73.3879 199.458 73.3823Z" fill="#D1D3D4"/>
<path d="M138.377 89.9871C138.018 91.2054 137.253 92.2636 136.209 92.9853C135.166 93.707 133.907 94.0488 132.643 93.9535C132.073 93.92 131.518 93.7567 131.02 93.476C130.522 93.1954 130.094 92.8048 129.769 92.3338C129.444 91.8629 129.23 91.3239 129.144 90.7579C129.058 90.1919 129.102 89.6137 129.272 89.0671C129.631 87.8528 130.392 86.7977 131.431 86.0764C132.47 85.355 133.723 85.0108 134.983 85.1007C135.556 85.131 136.114 85.2919 136.614 85.5711C137.115 85.8504 137.546 86.2406 137.873 86.712C138.2 87.1834 138.416 87.7235 138.503 88.2911C138.591 88.8587 138.548 89.4388 138.377 89.9871Z" fill="#F14736"/>
<path d="M128.324 128.023C127.972 129.242 127.207 130.301 126.161 131.017C125.114 131.733 123.851 132.06 122.59 131.944C122.016 131.892 121.462 131.712 120.966 131.418C120.47 131.124 120.047 130.723 119.725 130.244C119.404 129.765 119.193 129.221 119.108 128.65C119.023 128.079 119.066 127.496 119.234 126.944C119.584 125.727 120.346 124.669 121.39 123.953C122.433 123.238 123.693 122.909 124.953 123.023C125.528 123.072 126.085 123.249 126.583 123.542C127.081 123.835 127.508 124.236 127.831 124.715C128.154 125.195 128.366 125.741 128.452 126.313C128.537 126.885 128.493 127.47 128.324 128.023Z" fill="#E6E7E8"/>
<path d="M123.892 144.824C123.543 146.045 122.777 147.105 121.727 147.818C120.678 148.531 119.411 148.851 118.15 148.722C117.574 148.665 117.018 148.48 116.522 148.182C116.026 147.883 115.602 147.478 115.281 146.995C114.96 146.513 114.75 145.965 114.666 145.391C114.581 144.817 114.625 144.232 114.794 143.677C115.142 142.46 115.904 141.403 116.949 140.691C117.994 139.979 119.255 139.656 120.513 139.779C121.09 139.834 121.648 140.018 122.146 140.315C122.644 140.613 123.07 141.018 123.393 141.5C123.716 141.983 123.929 142.531 124.015 143.106C124.101 143.68 124.059 144.267 123.892 144.824Z" fill="#E6E7E8"/>
<path d="M173.903 91.5254L142.907 88.4186C142.858 88.4139 142.81 88.3994 142.766 88.376C142.722 88.3525 142.683 88.3206 142.652 88.282C142.62 88.2434 142.597 88.199 142.582 88.1513C142.568 88.1035 142.563 88.0534 142.569 88.0039C142.58 87.905 142.63 87.8147 142.707 87.7525C142.785 87.6904 142.884 87.6615 142.982 87.6721L173.978 90.7713C174.078 90.7763 174.171 90.8209 174.238 90.8951C174.306 90.9693 174.34 91.0672 174.335 91.1672C174.33 91.2672 174.286 91.3611 174.212 91.4283C174.138 91.4955 174.04 91.5304 173.94 91.5254H173.903Z" fill="#D1D3D4"/>
<path d="M153.171 94.2551H153.126L141.643 93.0862C141.594 93.0815 141.545 93.067 141.502 93.0436C141.458 93.0202 141.419 92.9882 141.387 92.9497C141.356 92.9111 141.332 92.8666 141.318 92.8189C141.304 92.7712 141.299 92.7211 141.304 92.6715C141.316 92.5721 141.365 92.4811 141.443 92.4177C141.52 92.3544 141.619 92.3237 141.718 92.3322L153.209 93.5085C153.309 93.5085 153.404 93.5483 153.475 93.619C153.546 93.6897 153.585 93.7856 153.585 93.8856C153.585 93.9856 153.546 94.0815 153.475 94.1522C153.404 94.2229 153.309 94.2626 153.209 94.2626L153.171 94.2551Z" fill="#D1D3D4"/>
<path d="M185.115 103.734L129.535 97.8973C129.486 97.8926 129.438 97.8781 129.394 97.8547C129.35 97.8312 129.311 97.7993 129.28 97.7607C129.248 97.7221 129.225 97.6777 129.21 97.63C129.196 97.5822 129.192 97.5321 129.197 97.4826C129.208 97.3837 129.258 97.2934 129.336 97.2312C129.413 97.1691 129.512 97.1402 129.611 97.1508L185.19 102.987C185.289 102.999 185.379 103.049 185.441 103.126C185.503 103.204 185.532 103.303 185.521 103.402C185.517 103.451 185.502 103.498 185.479 103.541C185.456 103.584 185.425 103.622 185.387 103.653C185.349 103.684 185.306 103.707 185.259 103.721C185.213 103.735 185.163 103.739 185.115 103.734Z" fill="#D1D3D4"/>
<path d="M178.899 108.794H178.862L128.053 103.334C127.954 103.323 127.864 103.273 127.802 103.195C127.74 103.117 127.711 103.018 127.722 102.919C127.733 102.82 127.783 102.729 127.86 102.666C127.937 102.602 128.036 102.572 128.136 102.58L178.937 108.047C179.037 108.047 179.133 108.087 179.203 108.158C179.274 108.228 179.313 108.324 179.313 108.424C179.313 108.524 179.274 108.62 179.203 108.691C179.133 108.762 179.037 108.801 178.937 108.801L178.899 108.794Z" fill="#D1D3D4"/>
<path d="M171.164 159.702C170.932 159.701 170.701 159.686 170.471 159.656L113.183 152.176C112.569 152.109 111.976 151.91 111.446 151.591C110.915 151.272 110.461 150.841 110.113 150.328C109.768 149.801 109.54 149.206 109.447 148.582C109.353 147.958 109.396 147.322 109.571 146.716L126.066 84.5804C126.446 83.3006 127.249 82.1883 128.343 81.4264C129.437 80.6644 130.757 80.2981 132.086 80.3877L189.449 85.9754C190.103 86.0215 190.738 86.2109 191.31 86.5301C191.882 86.8494 192.377 87.2907 192.76 87.8229C193.113 88.3382 193.348 88.9247 193.449 89.541C193.551 90.1573 193.516 90.7883 193.347 91.3897L176.792 155.486C176.429 156.701 175.686 157.766 174.672 158.525C173.659 159.284 172.429 159.697 171.164 159.702ZM170.569 158.91C171.766 159.049 172.974 158.758 173.978 158.09C174.982 157.422 175.718 156.42 176.055 155.26L192.61 91.2012C192.751 90.7049 192.782 90.1836 192.7 89.6741C192.618 89.1646 192.425 88.6794 192.136 88.2527C191.811 87.8166 191.396 87.4559 190.92 87.1956C190.443 86.9353 189.916 86.7814 189.374 86.7446L132.003 81.1644C130.85 81.0857 129.705 81.4027 128.756 82.0633C127.807 82.724 127.11 83.6888 126.781 84.7991L110.279 146.935C110.131 147.44 110.094 147.971 110.171 148.492C110.247 149.013 110.436 149.511 110.723 149.951C111.012 150.371 111.388 150.723 111.826 150.984C112.264 151.244 112.752 151.406 113.259 151.459L170.569 158.91Z" fill="#D1D3D4"/>
<path d="M186.853 115.392H186.808L120.28 108.07C120.181 108.058 120.091 108.008 120.029 107.931C119.967 107.853 119.938 107.754 119.948 107.655C119.96 107.556 120.009 107.465 120.087 107.401C120.164 107.338 120.263 107.307 120.362 107.316L186.891 114.645C186.94 114.65 186.988 114.665 187.032 114.688C187.076 114.711 187.115 114.743 187.146 114.782C187.178 114.821 187.201 114.865 187.216 114.913C187.23 114.96 187.235 115.011 187.229 115.06C187.217 115.151 187.172 115.235 187.103 115.296C187.034 115.357 186.945 115.391 186.853 115.392Z" fill="#D1D3D4"/>
<path d="M184.174 125.76H184.129L117.608 118.144C117.508 118.133 117.417 118.083 117.354 118.005C117.291 117.926 117.262 117.826 117.273 117.726C117.284 117.626 117.334 117.534 117.413 117.471C117.491 117.408 117.591 117.379 117.691 117.39L184.212 125.029C184.312 125.034 184.405 125.079 184.472 125.153C184.539 125.227 184.574 125.325 184.569 125.425C184.564 125.525 184.52 125.619 184.446 125.686C184.372 125.753 184.274 125.788 184.174 125.783V125.76Z" fill="#D1D3D4"/>
<path d="M126.081 117.322H126.044L124.998 117.27C124.895 117.263 124.794 117.236 124.702 117.189C124.611 117.143 124.529 117.078 124.463 116.998C124.403 116.916 124.359 116.822 124.336 116.722C124.313 116.622 124.31 116.518 124.328 116.417L124.907 113.514C124.952 113.324 125.061 113.154 125.216 113.035C125.371 112.915 125.562 112.853 125.758 112.858L126.804 112.903C126.907 112.91 127.007 112.937 127.099 112.984C127.191 113.03 127.272 113.095 127.338 113.175C127.399 113.257 127.442 113.351 127.465 113.451C127.489 113.551 127.491 113.655 127.473 113.756L126.894 116.659C126.855 116.846 126.752 117.014 126.605 117.134C126.457 117.255 126.272 117.321 126.081 117.322ZM125.72 113.612C125.72 113.612 125.645 113.612 125.645 113.665L125.073 116.568H126.081C126.098 116.571 126.115 116.566 126.129 116.557C126.143 116.547 126.153 116.532 126.157 116.515L126.736 113.605L125.72 113.612Z" fill="#D1D3D4"/>
<path d="M131.861 117.609L127.406 117.39C127.351 117.386 127.298 117.371 127.25 117.345C127.202 117.319 127.16 117.283 127.127 117.239C127.095 117.197 127.071 117.148 127.06 117.096C127.048 117.044 127.048 116.99 127.06 116.938L127.654 113.922C127.671 113.85 127.707 113.785 127.759 113.733C128.166 113.303 128.602 112.768 129.024 112.225C130.182 110.8 130.875 110 131.522 110.189C131.613 110.214 131.697 110.259 131.768 110.322C131.838 110.385 131.893 110.463 131.928 110.551C132.139 111.056 131.725 112.059 131.364 112.775C132.005 112.783 132.64 112.895 133.245 113.107C133.509 113.243 134.111 113.56 132.222 117.39C132.191 117.459 132.14 117.517 132.075 117.557C132.011 117.596 131.936 117.614 131.861 117.609ZM127.857 116.636L131.62 116.825C132.138 115.847 132.525 114.805 132.771 113.725C132.097 113.57 131.408 113.492 130.717 113.492C130.651 113.493 130.586 113.476 130.529 113.443C130.472 113.409 130.425 113.361 130.393 113.303C130.36 113.247 130.343 113.183 130.343 113.118C130.343 113.053 130.36 112.99 130.393 112.934C130.769 112.313 131.044 111.636 131.206 110.928C130.594 111.447 130.046 112.036 129.573 112.685C129.174 113.183 128.753 113.695 128.346 114.133L127.857 116.636Z" fill="#D1D3D4"/>
<path d="M169.237 153.586L129.693 148.526C129.357 148.493 129.031 148.385 128.741 148.21C128.451 148.036 128.202 147.8 128.014 147.518C127.825 147.236 127.702 146.916 127.651 146.58C127.601 146.245 127.625 145.903 127.722 145.578C127.926 144.867 128.374 144.251 128.986 143.837C129.598 143.423 130.336 143.239 131.07 143.315L170.614 148.307C170.962 148.337 171.3 148.444 171.602 148.62C171.904 148.796 172.163 149.037 172.361 149.325C172.559 149.614 172.69 149.943 172.746 150.288C172.802 150.634 172.781 150.987 172.684 151.324C172.464 152.045 171.998 152.666 171.369 153.079C170.739 153.493 169.985 153.672 169.237 153.586Z" fill="#E6E7E8"/>
<path d="M161.125 137.977L135.743 134.892C135.106 134.841 134.488 134.647 133.935 134.325C133.382 134.003 132.908 133.562 132.547 133.032C132.187 132.503 131.949 131.9 131.851 131.267C131.753 130.633 131.797 129.986 131.981 129.372L132.448 127.608C132.838 126.264 133.683 125.097 134.838 124.309C135.992 123.521 137.385 123.159 138.776 123.287L164.165 126.236C164.814 126.285 165.443 126.479 166.007 126.803C166.571 127.126 167.057 127.572 167.428 128.107C167.799 128.642 168.046 129.253 168.152 129.896C168.258 130.539 168.22 131.197 168.041 131.823L167.574 133.618C167.176 134.984 166.313 136.168 165.135 136.964C163.957 137.76 162.539 138.118 161.125 137.977Z" fill="#F14736"/>
<path d="M170.268 149.725L170.464 148.971L167.454 148.586L167.266 149.341L166.671 149.265L165.919 152.093L170.14 152.628L170.893 149.793L170.268 149.725ZM168.259 151.452C168.144 151.446 168.033 151.413 167.932 151.357C167.832 151.301 167.746 151.223 167.681 151.128C167.615 151.034 167.572 150.925 167.555 150.811C167.538 150.698 167.547 150.581 167.582 150.472C167.652 150.234 167.804 150.028 168.01 149.89C168.216 149.752 168.464 149.691 168.71 149.718C168.826 149.723 168.939 149.756 169.04 149.812C169.141 149.869 169.227 149.948 169.293 150.044C169.358 150.139 169.401 150.249 169.417 150.363C169.434 150.478 169.424 150.595 169.388 150.705C169.318 150.944 169.167 151.149 168.96 151.286C168.753 151.423 168.505 151.482 168.259 151.452Z" fill="#231F20"/>
<path d="M138.528 138.271H138.46L131.688 137.441C131.588 137.428 131.498 137.376 131.436 137.297C131.374 137.219 131.346 137.119 131.356 137.019C131.371 136.92 131.423 136.831 131.502 136.769C131.58 136.708 131.679 136.678 131.778 136.687L138.55 137.516C138.65 137.522 138.743 137.568 138.81 137.643C138.876 137.718 138.91 137.816 138.904 137.916C138.898 138.016 138.853 138.11 138.778 138.176C138.703 138.243 138.605 138.277 138.505 138.271H138.528Z" fill="#D1D3D4"/>
<path d="M147.972 139.432H147.926L141.109 138.595C141.06 138.589 141.013 138.574 140.971 138.55C140.928 138.526 140.89 138.494 140.86 138.455C140.83 138.417 140.808 138.373 140.795 138.325C140.782 138.278 140.779 138.229 140.785 138.18C140.79 138.131 140.804 138.083 140.828 138.039C140.851 137.996 140.883 137.957 140.922 137.926C140.961 137.895 141.005 137.872 141.053 137.859C141.1 137.846 141.15 137.842 141.199 137.848L148.017 138.685C148.066 138.691 148.114 138.706 148.158 138.731C148.201 138.755 148.24 138.788 148.27 138.827C148.301 138.866 148.324 138.911 148.337 138.96C148.351 139.008 148.354 139.058 148.348 139.108C148.334 139.198 148.288 139.28 148.219 139.339C148.15 139.398 148.062 139.431 147.972 139.432Z" fill="#D1D3D4"/>
<path d="M163.42 130.85H163.375L138.355 127.894C138.255 127.881 138.165 127.83 138.103 127.751C138.042 127.672 138.013 127.572 138.024 127.472C138.037 127.373 138.088 127.282 138.167 127.22C138.246 127.158 138.345 127.13 138.445 127.14L163.466 130.096C163.565 130.102 163.659 130.148 163.725 130.223C163.791 130.298 163.825 130.396 163.819 130.496C163.813 130.596 163.768 130.69 163.693 130.756C163.618 130.822 163.52 130.856 163.42 130.85Z" fill="white"/>
<path d="M158.981 133.761H158.935L137.489 131.19C137.391 131.179 137.3 131.129 137.238 131.051C137.176 130.973 137.147 130.874 137.158 130.775C137.169 130.676 137.219 130.586 137.297 130.524C137.374 130.462 137.473 130.433 137.572 130.443L159.026 133.007C159.124 133.02 159.214 133.072 159.275 133.151C159.335 133.231 159.362 133.331 159.349 133.43C159.338 133.52 159.295 133.604 159.227 133.665C159.159 133.726 159.072 133.76 158.981 133.761Z" fill="white"/>
<path d="M153.119 121.04C152.908 121.04 152.742 120.821 151.982 119.592C151.719 119.592 151.463 119.592 151.23 119.592C150.607 119.553 149.999 119.38 149.447 119.086C148.896 118.792 148.413 118.384 148.032 117.888C147.819 117.594 147.674 117.255 147.608 116.898C147.541 116.541 147.555 116.173 147.648 115.822C148.115 114.057 150.38 112.881 152.803 113.152C153.429 113.189 154.04 113.36 154.596 113.652C155.151 113.945 155.638 114.353 156.023 114.849C156.236 115.144 156.38 115.482 156.447 115.839C156.513 116.196 156.5 116.564 156.407 116.915C156.216 117.481 155.89 117.991 155.459 118.404C155.028 118.816 154.504 119.118 153.931 119.283C153.691 120.188 153.57 120.663 153.555 120.738C153.541 120.815 153.505 120.887 153.451 120.944C153.398 121.001 153.33 121.043 153.254 121.063L153.119 121.04ZM152.186 118.83C152.25 118.83 152.313 118.846 152.369 118.876C152.426 118.906 152.474 118.95 152.509 119.004C152.712 119.343 152.87 119.6 152.998 119.758L153.247 118.823C153.263 118.763 153.294 118.708 153.338 118.663C153.381 118.618 153.435 118.585 153.495 118.567C153.985 118.451 154.438 118.216 154.816 117.884C155.194 117.551 155.485 117.13 155.662 116.659C155.726 116.412 155.735 116.155 155.688 115.905C155.641 115.654 155.54 115.418 155.391 115.211C155.064 114.808 154.657 114.478 154.196 114.241C153.735 114.003 153.23 113.864 152.712 113.831C150.666 113.605 148.724 114.585 148.363 115.95C148.299 116.196 148.291 116.454 148.337 116.704C148.384 116.954 148.485 117.191 148.634 117.398C148.959 117.799 149.363 118.128 149.822 118.365C150.28 118.601 150.783 118.739 151.298 118.77C151.588 118.797 151.88 118.797 152.171 118.77L152.186 118.83Z" fill="#D1D3D4"/>
<path d="M151.116 116.334C151.077 116.466 150.994 116.581 150.88 116.659C150.766 116.738 150.629 116.774 150.492 116.763C150.43 116.759 150.369 116.741 150.315 116.71C150.261 116.68 150.214 116.637 150.179 116.585C150.143 116.534 150.12 116.475 150.11 116.413C150.101 116.351 150.105 116.288 150.124 116.229C150.16 116.096 150.242 115.98 150.354 115.902C150.467 115.824 150.604 115.787 150.74 115.799C150.803 115.803 150.863 115.822 150.918 115.853C150.972 115.883 151.019 115.926 151.055 115.977C151.091 116.028 151.115 116.087 151.126 116.149C151.136 116.21 151.133 116.274 151.116 116.334Z" fill="#D1D3D4"/>
<path d="M152.644 116.508C152.607 116.641 152.524 116.758 152.41 116.837C152.296 116.915 152.158 116.951 152.02 116.937C151.957 116.932 151.897 116.913 151.842 116.881C151.788 116.849 151.742 116.806 151.706 116.754C151.671 116.702 151.648 116.643 151.638 116.58C151.629 116.518 151.633 116.455 151.651 116.394C151.691 116.263 151.774 116.149 151.888 116.072C152.002 115.995 152.139 115.96 152.275 115.973C152.338 115.977 152.398 115.995 152.452 116.026C152.507 116.057 152.553 116.099 152.589 116.151C152.624 116.202 152.647 116.261 152.657 116.323C152.667 116.385 152.662 116.448 152.644 116.508Z" fill="#D1D3D4"/>
<path d="M154.179 116.681C154.141 116.814 154.058 116.93 153.944 117.008C153.83 117.087 153.692 117.123 153.555 117.11C153.493 117.104 153.433 117.084 153.379 117.052C153.326 117.02 153.28 116.976 153.245 116.925C153.21 116.873 153.186 116.814 153.176 116.753C153.166 116.691 153.17 116.628 153.186 116.568C153.226 116.436 153.309 116.322 153.423 116.245C153.537 116.168 153.674 116.133 153.81 116.146C153.873 116.15 153.933 116.168 153.987 116.199C154.042 116.23 154.088 116.273 154.124 116.324C154.159 116.376 154.183 116.434 154.192 116.496C154.202 116.558 154.197 116.621 154.179 116.681Z" fill="#D1D3D4"/>
<path d="M173.406 121.523C173.315 121.522 173.228 121.49 173.158 121.432C173.092 121.374 173.049 121.295 173.035 121.208C173.021 121.121 173.038 121.033 173.083 120.957C173.989 119.53 175.259 118.371 176.762 117.601L176.491 116.976C176.462 116.92 176.446 116.858 176.446 116.795C176.446 116.731 176.462 116.669 176.491 116.614C176.526 116.56 176.575 116.517 176.631 116.488C176.688 116.459 176.751 116.445 176.815 116.448L180.261 116.561C180.324 116.564 180.384 116.582 180.438 116.613C180.492 116.645 180.537 116.689 180.57 116.742C180.6 116.796 180.615 116.857 180.615 116.919C180.615 116.981 180.6 117.042 180.57 117.096L179.155 120.112C179.129 120.172 179.087 120.224 179.034 120.263C178.981 120.301 178.919 120.325 178.854 120.331C178.79 120.338 178.726 120.329 178.666 120.304C178.607 120.279 178.555 120.239 178.516 120.188L177.899 119.389C176.361 119.84 174.906 120.535 173.587 121.447C173.534 121.488 173.472 121.514 173.406 121.523ZM177.417 117.224L177.598 117.632C177.638 117.723 177.641 117.826 177.606 117.919C177.571 118.013 177.5 118.088 177.409 118.129C176.579 118.522 175.816 119.047 175.152 119.683C176.081 119.245 177.042 118.879 178.027 118.589C178.098 118.569 178.174 118.57 178.245 118.593C178.316 118.615 178.379 118.659 178.425 118.717L178.824 119.238L179.735 117.3L177.417 117.224Z" fill="#D1D3D4"/>
<path d="M177.522 122.774L172.383 122.186C172.328 122.182 172.276 122.166 172.229 122.139C172.182 122.111 172.142 122.073 172.112 122.028C172.081 121.983 172.061 121.932 172.052 121.879C172.043 121.826 172.045 121.771 172.059 121.719L173.263 117.096C173.286 117.01 173.338 116.934 173.411 116.883C173.484 116.832 173.573 116.809 173.662 116.817L175.964 117.073C176.064 117.084 176.156 117.135 176.218 117.213C176.281 117.292 176.31 117.392 176.299 117.492C176.288 117.592 176.238 117.684 176.16 117.746C176.082 117.809 175.981 117.839 175.882 117.828L173.903 117.601L172.894 121.492L177.281 121.99L177.733 120.256C177.744 120.207 177.765 120.161 177.795 120.121C177.824 120.081 177.862 120.047 177.904 120.022C177.947 119.996 177.995 119.98 178.044 119.973C178.094 119.967 178.144 119.971 178.192 119.984C178.287 120.011 178.369 120.074 178.418 120.16C178.467 120.246 178.481 120.348 178.455 120.444L177.929 122.495C177.906 122.583 177.852 122.659 177.777 122.711C177.703 122.762 177.612 122.785 177.522 122.774Z" fill="#D1D3D4"/>
<path d="M199.127 81.1191H199.089L126.774 74.2193C126.724 74.2155 126.677 74.2019 126.633 74.1793C126.589 74.1566 126.55 74.1254 126.518 74.0874C126.487 74.0494 126.463 74.0055 126.449 73.9582C126.435 73.9109 126.43 73.8612 126.435 73.8121C126.439 73.7628 126.452 73.7148 126.475 73.6708C126.498 73.6269 126.529 73.588 126.567 73.5563C126.605 73.5247 126.648 73.501 126.696 73.4866C126.743 73.4723 126.792 73.4676 126.841 73.4727L199.157 80.365C199.206 80.3697 199.254 80.3842 199.298 80.4077C199.342 80.4311 199.381 80.463 199.412 80.5016C199.444 80.5402 199.467 80.5846 199.482 80.6323C199.496 80.6801 199.5 80.7302 199.495 80.7797C199.488 80.8724 199.445 80.9588 199.377 81.0217C199.309 81.0846 199.219 81.1194 199.127 81.1191Z" fill="#D1D3D4"/>
<path d="M140.717 71.5575H140.642L138.084 71.3765C138.001 71.3765 137.993 71.3765 138.016 71.271C138.324 70.17 138.625 69.069 138.934 67.9681C138.934 67.8625 138.934 67.8625 139.062 67.8701L140.025 67.953C140.093 67.953 140.123 67.953 140.153 67.8701C140.288 67.5307 140.424 67.1914 140.567 66.8521L140.672 66.6032C140.672 66.5353 140.672 66.5127 140.62 66.5052L139.461 66.4147C139.385 66.4147 139.37 66.4147 139.393 66.3091C139.483 66 139.566 65.6908 139.656 65.3816C139.696 65.2532 139.778 65.1419 139.889 65.0653C139.999 64.9888 140.132 64.9515 140.266 64.9593L141.056 65.0272C141.124 65.0272 141.154 65.0272 141.169 64.9367L141.485 63.798C141.485 63.7377 141.485 63.7076 141.432 63.7C141.011 63.7 140.597 63.6171 140.168 63.6095C139.876 63.6101 139.588 63.6785 139.327 63.8093C139.066 63.9402 138.839 64.1299 138.663 64.3636C138.477 64.5831 138.341 64.8404 138.264 65.1177C138.166 65.4646 138.069 65.819 137.978 66.1658C137.978 66.2413 137.926 66.2563 137.85 66.2488L136.865 66.1658C136.797 66.1658 136.774 66.1658 136.752 66.2488C136.639 66.6786 136.518 67.1084 136.398 67.5383C136.398 67.6137 136.398 67.6288 136.458 67.6363L137.459 67.7117C137.527 67.7117 137.542 67.7117 137.519 67.8097L136.594 71.1428C136.594 71.2106 136.594 71.2332 136.488 71.2257L131.853 70.8864H131.778L134.299 61.664L143.276 62.4633L140.717 71.5575Z" fill="#F14736"/>
<path d="M111.972 56.2647L65.9867 64.6425C64.8777 64.8442 63.8193 65.2628 62.8719 65.8745C61.9245 66.4863 61.1067 67.2791 60.4651 68.2077C59.8236 69.1363 59.371 70.1824 59.1331 71.2864C58.8952 72.3903 58.8767 73.5305 59.0787 74.6416L64.9407 106.976C65.3507 109.22 66.6325 111.21 68.5047 112.507C70.3768 113.805 72.6864 114.306 74.9264 113.899L114.312 106.72L121.905 113.258L121.506 105.378C123.608 104.84 125.428 103.524 126.599 101.695C127.771 99.8665 128.207 97.6604 127.82 95.522L121.95 63.1947C121.75 62.0827 121.333 61.0213 120.723 60.0711C120.112 59.1208 119.321 58.3004 118.395 57.6568C117.468 57.0131 116.424 56.5589 115.322 56.32C114.22 56.0812 113.081 56.0624 111.972 56.2647Z" fill="white"/>
<path d="M73.3837 114.412C71.2866 114.407 69.2572 113.667 67.6476 112.32C66.038 110.973 64.9499 109.104 64.5719 107.037L58.6949 74.7095C58.4833 73.5487 58.5025 72.3574 58.7513 71.2041C59.0001 70.0507 59.4737 68.9579 60.1448 67.9884C60.8159 67.0188 61.6714 66.1915 62.6623 65.5539C63.6531 64.9164 64.7598 64.4811 65.9189 64.273L111.904 55.8952C114.238 55.4704 116.644 55.9898 118.596 57.3396C120.548 58.6894 121.887 60.7597 122.319 63.0967L128.188 95.424C128.586 97.6069 128.164 99.86 127.004 101.75C125.844 103.64 124.028 105.034 121.905 105.664L122.289 113.205C122.291 113.278 122.272 113.35 122.235 113.412C122.197 113.474 122.143 113.524 122.078 113.556C122.012 113.588 121.939 113.6 121.867 113.591C121.795 113.583 121.727 113.553 121.672 113.507L114.222 107.09L75.0166 114.238C74.4787 114.345 73.9321 114.403 73.3837 114.412ZM112.04 56.6342L66.0544 65.012C64.9938 65.2046 63.9815 65.6048 63.0753 66.1896C62.1691 66.7745 61.3869 67.5326 60.7733 68.4206C60.1597 69.3087 59.7267 70.3092 59.4992 71.3649C59.2717 72.4207 59.2541 73.5111 59.4474 74.5737L65.3169 106.909C65.7087 109.053 66.9332 110.954 68.7219 112.196C70.5107 113.437 72.7175 113.916 74.8586 113.529L114.244 106.351C114.3 106.34 114.357 106.341 114.412 106.356C114.467 106.37 114.517 106.397 114.561 106.433L121.468 112.398L121.152 105.4C121.15 105.313 121.176 105.228 121.228 105.158C121.28 105.088 121.354 105.038 121.438 105.016C123.443 104.492 125.176 103.23 126.292 101.481C127.408 99.7319 127.825 97.6255 127.458 95.5823L121.596 63.255C121.205 61.1105 119.98 59.2091 118.191 57.968C116.403 56.7268 114.196 56.2472 112.055 56.6342H112.04Z" fill="#231F20"/>
<path d="M74.0686 86.3298L85.2959 84.2787L88.2532 100.582L78.5385 102.354L74.0686 86.3298Z" fill="#F14736"/>
<path d="M78.5385 102.731C78.4561 102.731 78.3762 102.703 78.3109 102.653C78.2457 102.602 78.1987 102.532 78.1773 102.452L73.7451 86.4279C73.7248 86.3802 73.7144 86.3289 73.7144 86.2771C73.7144 86.2252 73.7248 86.1739 73.7451 86.1263C73.7735 86.0819 73.811 86.0442 73.8551 86.0156C73.8992 85.987 73.949 85.9681 74.0009 85.9604L85.2282 83.9093C85.2772 83.9006 85.3273 83.9018 85.3758 83.9127C85.4243 83.9235 85.4702 83.9439 85.5108 83.9727C85.5514 84.0014 85.5858 84.038 85.6123 84.0801C85.6387 84.1223 85.6565 84.1693 85.6647 84.2184L88.622 100.514C88.6396 100.612 88.6178 100.713 88.5615 100.795C88.5051 100.877 88.4186 100.933 88.321 100.951L78.6062 102.723L78.5385 102.731ZM74.5427 86.6239L78.8094 101.917L87.8394 100.28L85.0326 84.7237L74.5427 86.6239Z" fill="#231F20"/>
<path d="M84.7313 99.6166C85.4545 99.6166 86.0407 99.0292 86.0407 98.3046C86.0407 97.5799 85.4545 96.9925 84.7313 96.9925C84.0082 96.9925 83.422 97.5799 83.422 98.3046C83.422 99.0292 84.0082 99.6166 84.7313 99.6166Z" fill="#231F20"/>
<path d="M85.484 85.2966C85.484 85.2966 86.1537 85.0629 87.7942 82.6196C89.4346 80.1764 91.4137 74.1514 91.4513 73.156C91.489 72.1606 90.4054 68.2922 90.8418 67.3873C91.2783 66.4824 93.5583 65.4041 94.8752 66.6332C96.287 68.1015 97.3201 69.8927 97.8852 71.8514C98.126 73.1861 98.2013 78.7211 98.2013 78.7211L109.489 76.67C111.137 76.3759 111.746 77.4768 111.844 78.7739C111.942 80.0709 110.753 81.843 110.753 81.843C110.753 81.843 112.258 82.1069 112.145 84.0524C112.128 84.6028 111.983 85.1416 111.722 85.626C111.461 86.1104 111.09 86.5269 110.64 86.8425C110.981 87.0338 111.246 87.3366 111.392 87.7003C111.537 88.064 111.553 88.4665 111.438 88.8408C111.373 89.2881 111.22 89.7181 110.989 90.1063C110.758 90.4945 110.453 90.8332 110.091 91.103C110.507 91.2487 110.849 91.5527 111.043 91.9492C111.238 92.3457 111.269 92.8029 111.129 93.222C110.783 94.9413 110.016 96.1252 108.638 96.4268C107.261 96.7284 93.5884 99.1792 92.2339 99.4431C90.8794 99.707 90.7289 99.0057 89.9764 98.8926C89.283 98.8614 88.5886 98.93 87.9146 99.0962L85.484 85.2966Z" fill="white"/>
<path d="M91.7374 99.8202C91.2952 99.8221 90.8626 99.6907 90.4958 99.4431C90.3394 99.334 90.1629 99.2571 89.9766 99.2169C89.3333 99.1894 88.6895 99.2555 88.0652 99.413C88.0158 99.4262 87.9643 99.429 87.9137 99.4212C87.8632 99.4135 87.8149 99.3952 87.7717 99.3677C87.7284 99.3401 87.6912 99.3037 87.6627 99.2608C87.6342 99.218 87.615 99.1696 87.6062 99.1189L85.1079 85.3645C85.0928 85.278 85.1078 85.1889 85.1502 85.1121C85.1926 85.0353 85.26 84.9754 85.3412 84.9422C85.3938 84.9422 86.0259 84.5727 87.4783 82.4085C89.1262 79.9578 91.0451 73.993 91.0752 73.1409C91.0268 72.4814 90.9313 71.8262 90.7893 71.1803C90.4281 69.2574 90.2023 67.8473 90.5033 67.2214C90.7584 66.8353 91.0908 66.5065 91.4794 66.256C91.868 66.0054 92.3044 65.8386 92.7608 65.7661C93.1747 65.6719 93.6051 65.6781 94.0161 65.7844C94.4271 65.8906 94.8069 66.0938 95.1237 66.3769C96.6012 67.8974 97.6816 69.7597 98.2691 71.7987C98.4723 72.9373 98.5551 76.9339 98.5776 78.2913L109.399 76.3156C109.711 76.2376 110.037 76.2276 110.353 76.2861C110.67 76.3447 110.97 76.4704 111.235 76.6549C111.532 76.9177 111.772 77.24 111.937 77.601C112.103 77.962 112.192 78.3538 112.198 78.7513C112.177 79.7874 111.864 80.7964 111.295 81.662C111.712 81.9011 112.049 82.2586 112.263 82.6894C112.477 83.1202 112.559 83.605 112.499 84.0826C112.465 85.1278 112.025 86.1183 111.272 86.8425C111.531 87.1156 111.717 87.449 111.814 87.8124C111.911 88.1758 111.916 88.5578 111.829 88.9238C111.694 89.7091 111.324 90.4349 110.768 91.005C111.106 91.2622 111.359 91.6158 111.494 92.0195C111.628 92.4232 111.637 92.8581 111.521 93.2672C111.114 95.2731 110.181 96.4494 108.744 96.7662C107.645 97.0075 98.7357 98.6061 94.4464 99.3753L92.3244 99.7598C92.1307 99.796 91.9344 99.8162 91.7374 99.8202ZM89.668 98.4477C89.8082 98.4357 89.9492 98.4357 90.0894 98.4477C90.3597 98.4991 90.6161 98.607 90.8419 98.7645C91.0314 98.8967 91.2476 98.9856 91.4752 99.0247C91.7028 99.0638 91.9362 99.0522 92.1588 98.9907L94.2884 98.6136C98.5626 97.8596 107.465 96.2458 108.586 96.0045C109.707 95.7632 110.445 94.8055 110.791 93.0938C110.913 92.7708 110.903 92.4123 110.761 92.0971C110.62 91.7818 110.36 91.5355 110.038 91.4122C109.97 91.3905 109.909 91.35 109.862 91.2953C109.816 91.2407 109.786 91.1741 109.775 91.103C109.768 91.0315 109.78 90.9595 109.811 90.8945C109.841 90.8295 109.889 90.7739 109.948 90.7335C110.585 90.2593 111.01 89.5519 111.129 88.7654C111.34 87.5815 110.625 87.212 110.542 87.1743C110.481 87.1441 110.428 87.0983 110.39 87.0414C110.352 86.9845 110.329 86.9185 110.324 86.85C110.32 86.7823 110.335 86.7148 110.367 86.655C110.399 86.5951 110.446 86.5452 110.505 86.5107C110.896 86.2211 111.215 85.8455 111.438 85.4127C111.661 84.98 111.782 84.5017 111.792 84.0147C111.859 82.5066 110.828 82.22 110.708 82.1974C110.647 82.1822 110.59 82.1533 110.542 82.1127C110.494 82.0722 110.455 82.0212 110.43 81.9636C110.402 81.9087 110.387 81.848 110.387 81.7864C110.387 81.7248 110.402 81.6641 110.43 81.6092C110.746 81.1492 111.551 79.7391 111.453 78.7965C111.457 78.5022 111.401 78.2101 111.287 77.9388C111.173 77.6676 111.004 77.4229 110.791 77.2205C110.607 77.1029 110.401 77.0254 110.186 76.9929C109.971 76.9604 109.751 76.9737 109.542 77.032L98.2541 79.083C98.1997 79.0904 98.1445 79.0868 98.0915 79.0726C98.0385 79.0584 97.9889 79.0337 97.9455 79.0001C97.9032 78.9654 97.869 78.9217 97.8456 78.8721C97.8221 78.8226 97.81 78.7684 97.8101 78.7135C97.8101 78.6608 97.7348 73.1937 97.5016 71.9269C96.9443 70.0468 95.9428 68.3292 94.5819 66.9198C94.3525 66.7186 94.0785 66.5753 93.7827 66.5019C93.4868 66.4284 93.1777 66.4269 92.8812 66.4975C92.5368 66.5488 92.206 66.6678 91.9076 66.8477C91.6093 67.0276 91.3494 67.2648 91.1429 67.5457C90.9247 67.9906 91.2633 69.8079 91.4891 71.037C91.6489 71.7361 91.7496 72.4475 91.7901 73.1635C91.7449 74.2268 89.7282 80.3424 88.0276 82.8233C87.4326 83.8137 86.689 84.7065 85.8228 85.4701L88.2007 98.591C88.6844 98.4988 89.1756 98.4508 89.668 98.4477Z" fill="#231F20"/>
<path d="M107.307 151.565L116.976 145.721L106.855 147.734L106.524 144.929C106.441 144.209 106.217 143.511 105.865 142.878C105.512 142.244 105.039 141.686 104.472 141.236C103.904 140.785 103.254 140.451 102.557 140.253C101.861 140.055 101.133 139.996 100.414 140.08L66.9725 143.979C66.2534 144.062 65.5578 144.287 64.9254 144.64C64.293 144.993 63.7361 145.467 63.2868 146.036C62.8374 146.604 62.5043 147.256 62.3065 147.954C62.1087 148.652 62.05 149.382 62.1339 150.102L64.3914 169.874C64.4789 170.597 64.7081 171.297 65.0659 171.931C65.4237 172.566 65.903 173.123 66.4763 173.571C67.0496 174.02 67.7057 174.35 68.4068 174.544C69.1079 174.738 69.8403 174.791 70.5619 174.7L103.988 170.801C105.441 170.631 106.767 169.89 107.674 168.74C108.582 167.591 108.996 166.127 108.827 164.671L107.307 151.565Z" fill="white"/>
<path d="M69.9222 175.138C68.4786 175.135 67.086 174.602 66.0074 173.641C64.9288 172.68 64.2388 171.356 64.0678 169.919L61.8103 150.147C61.6341 148.594 62.078 147.035 63.0451 145.809C64.0122 144.582 65.424 143.789 66.9724 143.602L100.406 139.703C101.957 139.525 103.516 139.97 104.74 140.941C105.964 141.912 106.755 143.33 106.938 144.884L107.216 147.289L116.931 145.351C117.018 145.332 117.11 145.345 117.189 145.387C117.268 145.429 117.33 145.499 117.362 145.582C117.395 145.666 117.397 145.759 117.367 145.843C117.338 145.928 117.279 146 117.202 146.045L107.735 151.761L109.24 164.656C109.42 166.211 108.977 167.774 108.008 169.001C107.038 170.228 105.622 171.02 104.071 171.201L70.6446 175.1C70.405 175.129 70.1636 175.142 69.9222 175.138ZM101.061 140.45C100.863 140.439 100.664 140.439 100.466 140.45L67.0326 144.349C66.3621 144.426 65.7135 144.636 65.1237 144.964C64.5339 145.293 64.0145 145.736 63.5953 146.266C63.176 146.796 62.8651 147.403 62.6802 148.054C62.4952 148.704 62.44 149.385 62.5176 150.057L64.7751 169.836C64.9336 171.192 65.6223 172.43 66.6901 173.278C67.7579 174.127 69.1178 174.516 70.4715 174.361L103.905 170.462C105.258 170.303 106.494 169.613 107.34 168.543C108.186 167.473 108.575 166.11 108.42 164.754L106.915 151.618C106.908 151.546 106.921 151.473 106.953 151.407C106.985 151.342 107.034 151.287 107.096 151.248L114.929 146.52L106.915 148.111C106.865 148.122 106.813 148.122 106.762 148.112C106.712 148.101 106.664 148.081 106.622 148.051C106.54 147.985 106.486 147.891 106.471 147.787L106.148 144.982C106.002 143.73 105.405 142.575 104.467 141.734C103.53 140.894 102.318 140.426 101.061 140.42V140.45Z" fill="#231F20"/>
<path d="M71.4047 157.492L78.6663 156.685L79.8251 167.22L73.5418 167.913L71.4047 157.492Z" fill="#F14736"/>
<path d="M73.5418 168.29C73.455 168.29 73.3709 168.26 73.3038 168.205C73.2366 168.15 73.1904 168.074 73.173 167.989L71.0359 157.567C71.0251 157.516 71.0253 157.462 71.0365 157.41C71.0476 157.359 71.0696 157.31 71.1008 157.267C71.132 157.224 71.1719 157.189 71.2177 157.163C71.2636 157.136 71.3145 157.12 71.367 157.115L78.6211 156.316C78.7199 156.305 78.8187 156.334 78.8963 156.396C78.9738 156.458 79.0237 156.549 79.035 156.647L80.2014 167.204C80.2066 167.254 80.2019 167.304 80.1877 167.352C80.1734 167.4 80.1499 167.444 80.1184 167.483C80.0869 167.521 80.0481 167.553 80.0042 167.577C79.9603 167.6 79.9123 167.615 79.8628 167.619L73.5869 168.313L73.5418 168.29ZM71.8562 157.816L73.8428 167.499L79.4113 166.888L78.3277 157.085L71.8562 157.816Z" fill="#231F20"/>
<path d="M77.6804 166.451C78.1459 166.451 78.5232 166.072 78.5232 165.606C78.5232 165.14 78.1459 164.761 77.6804 164.761C77.215 164.761 76.8376 165.14 76.8376 165.606C76.8376 166.072 77.215 166.451 77.6804 166.451Z" fill="#231F20"/>
<path d="M78.734 157.356C78.734 157.356 79.178 157.236 80.3293 155.75C81.5302 153.937 82.4606 151.958 83.091 149.876C83.1587 149.242 82.6395 146.724 82.9555 146.166C83.2716 145.608 84.7766 145.027 85.5667 145.879C86.4064 146.88 86.9901 148.071 87.2674 149.348C87.3577 150.208 87.162 153.744 87.162 153.744L94.4387 152.937C95.4997 152.824 95.8233 153.556 95.8459 154.385C95.7468 155.086 95.4579 155.746 95.0106 156.293C95.3042 156.401 95.5457 156.617 95.6856 156.897C95.8255 157.178 95.8532 157.501 95.7631 157.801C95.7314 158.151 95.619 158.488 95.4349 158.786C95.2507 159.085 94.9998 159.336 94.702 159.521C94.9119 159.658 95.0683 159.863 95.1451 160.102C95.2218 160.341 95.2142 160.599 95.1235 160.833C94.9921 161.394 94.6463 161.881 94.1602 162.19C94.4205 162.301 94.6264 162.511 94.7334 162.774C94.8405 163.036 94.84 163.33 94.7322 163.593C94.4312 164.671 93.8893 165.387 93.0014 165.523C92.1135 165.659 83.2189 166.601 82.3987 166.692C81.5785 166.782 81.4656 166.352 80.999 166.247C80.558 166.196 80.112 166.209 79.6746 166.285L78.734 157.356Z" fill="white"/>
<path d="M82.2106 167.031C81.855 167.037 81.5079 166.923 81.2248 166.707C81.1476 166.638 81.0545 166.588 80.9539 166.564C80.5623 166.504 80.164 166.504 79.7725 166.564C79.672 166.579 79.5694 166.555 79.4865 166.496C79.4456 166.464 79.4117 166.424 79.3871 166.379C79.3624 166.334 79.3476 166.283 79.3435 166.232L78.3653 157.356C78.3542 157.272 78.373 157.187 78.4184 157.115C78.4638 157.043 78.5329 156.99 78.6136 156.964C79.1793 156.557 79.662 156.045 80.0358 155.456C81.1923 153.697 82.0942 151.783 82.7147 149.77C82.712 149.356 82.6793 148.943 82.6169 148.534C82.4664 147.229 82.3912 146.339 82.6169 145.909C82.8088 145.655 83.0521 145.445 83.331 145.291C83.6098 145.138 83.9178 145.045 84.2348 145.02C84.5229 144.976 84.8173 145.001 85.0934 145.094C85.3696 145.188 85.6196 145.345 85.8226 145.555C86.7197 146.613 87.3404 147.877 87.6285 149.235C87.7038 149.936 87.6285 152.251 87.5458 153.254L94.3785 152.5C94.6001 152.462 94.8273 152.471 95.0452 152.527C95.263 152.583 95.4667 152.684 95.6427 152.824C95.836 153.023 95.986 153.259 96.0832 153.519C96.1804 153.779 96.2225 154.056 96.207 154.332C96.1567 154.977 95.9302 155.595 95.5524 156.12C95.7937 156.312 95.9781 156.567 96.0855 156.857C96.1929 157.146 96.2193 157.46 96.1619 157.764C96.0923 158.419 95.7875 159.028 95.304 159.475C95.4378 159.673 95.526 159.898 95.5625 160.134C95.5989 160.37 95.5826 160.611 95.5147 160.84C95.3959 161.314 95.1515 161.746 94.8074 162.092C94.9892 162.292 95.1139 162.538 95.1682 162.804C95.2224 163.069 95.2044 163.344 95.1159 163.6C94.7547 164.912 94.0699 165.659 93.0766 165.802C92.3241 165.915 86.5449 166.556 83.7607 166.843L82.4589 166.978C82.3776 167.003 82.2946 167.02 82.2106 167.031ZM80.5927 165.779C80.7694 165.774 80.9462 165.789 81.1194 165.825C81.3154 165.87 81.4982 165.961 81.6537 166.089C81.7579 166.173 81.8795 166.233 82.0096 166.264C82.1398 166.295 82.2752 166.297 82.4062 166.27L83.708 166.126C86.274 165.847 92.2865 165.206 92.9939 165.101C93.7012 164.995 94.1452 164.452 94.4236 163.434C94.6193 162.718 94.1377 162.514 94.085 162.492C94.0183 162.465 93.96 162.421 93.9163 162.364C93.8726 162.307 93.8451 162.239 93.8367 162.167C93.8326 162.095 93.8487 162.022 93.8833 161.959C93.9178 161.895 93.9694 161.842 94.0323 161.805C94.2248 161.678 94.3904 161.514 94.5195 161.322C94.6487 161.131 94.7388 160.916 94.7848 160.689C94.9579 160.018 94.5591 159.807 94.5591 159.8C94.4971 159.769 94.445 159.722 94.4085 159.663C94.372 159.605 94.3526 159.537 94.3526 159.468C94.3526 159.399 94.372 159.331 94.4085 159.272C94.445 159.214 94.4971 159.166 94.5591 159.136C94.8006 158.979 95.0034 158.769 95.152 158.522C95.3006 158.276 95.3912 157.998 95.4169 157.711C95.5147 156.866 95.0106 156.67 94.9052 156.64C94.8451 156.624 94.79 156.592 94.7453 156.549C94.7005 156.505 94.6675 156.451 94.6494 156.391C94.6305 156.333 94.6261 156.271 94.6366 156.21C94.6471 156.15 94.6721 156.093 94.7096 156.044C95.1096 155.569 95.3701 154.992 95.4621 154.378C95.4839 154.04 95.3732 153.707 95.1535 153.45C95.056 153.379 94.9448 153.329 94.8269 153.303C94.7091 153.277 94.5871 153.276 94.4688 153.299L87.1921 154.106C87.1375 154.109 87.0827 154.102 87.031 154.084C86.9794 154.066 86.9318 154.037 86.8911 154.001C86.8526 153.962 86.8227 153.916 86.8032 153.866C86.7838 153.815 86.7753 153.761 86.7782 153.707C86.846 152.493 86.9588 150.027 86.8836 149.371C86.6137 148.175 86.0643 147.061 85.2808 146.121C85.156 145.999 85.0046 145.908 84.8387 145.856C84.6727 145.804 84.4968 145.791 84.3251 145.819C83.9225 145.851 83.5477 146.037 83.2791 146.339C83.2001 147.061 83.2255 147.789 83.3543 148.503C83.4305 148.967 83.4632 149.436 83.4522 149.906C82.8193 152.049 81.8653 154.083 80.6228 155.939C80.195 156.53 79.6887 157.06 79.1178 157.515L80.0283 165.81C80.2089 165.794 80.4046 165.779 80.5927 165.779Z" fill="#231F20"/>
<path d="M241.304 173.561L235.924 137.29C235.836 136.694 235.632 136.121 235.324 135.603C235.015 135.086 234.607 134.635 234.124 134.276C233.641 133.916 233.092 133.656 232.509 133.509C231.925 133.363 231.319 133.333 230.724 133.422L185.296 140.209L174.091 131.914L178.794 141.234C177.788 141.588 176.936 142.282 176.387 143.198C175.837 144.113 175.624 145.192 175.784 146.249L181.164 182.527C181.253 183.123 181.457 183.696 181.766 184.212C182.076 184.728 182.483 185.179 182.966 185.537C183.449 185.896 183.998 186.156 184.581 186.302C185.164 186.448 185.77 186.477 186.364 186.388L237.489 178.772C238.683 178.584 239.754 177.931 240.468 176.955C241.183 175.979 241.484 174.759 241.304 173.561Z" fill="white"/>
<path d="M185.649 186.818C184.462 186.814 183.316 186.384 182.418 185.607C181.52 184.83 180.928 183.756 180.751 182.58L175.37 146.309C175.209 145.232 175.406 144.131 175.931 143.177C176.456 142.223 177.28 141.469 178.275 141.031L173.76 132.08C173.723 132.003 173.713 131.916 173.73 131.833C173.748 131.75 173.793 131.675 173.858 131.62C173.924 131.567 174.006 131.538 174.091 131.538C174.176 131.538 174.258 131.567 174.324 131.62L185.401 139.801L230.671 133.015C231.972 132.827 233.294 133.161 234.349 133.945C235.405 134.728 236.109 135.898 236.308 137.2L241.688 173.471C241.878 174.774 241.545 176.1 240.763 177.158C239.98 178.217 238.811 178.922 237.512 179.119L186.387 186.765C186.142 186.798 185.896 186.815 185.649 186.818ZM175.114 133.158L179.11 141.068C179.132 141.117 179.144 141.169 179.144 141.223C179.144 141.276 179.132 141.329 179.11 141.377C179.09 141.428 179.059 141.473 179.021 141.511C178.982 141.549 178.935 141.578 178.884 141.596C177.954 141.914 177.165 142.548 176.654 143.388C176.142 144.229 175.941 145.222 176.085 146.196L181.465 182.467C181.546 183.015 181.734 183.541 182.018 184.016C182.302 184.491 182.677 184.905 183.12 185.235C183.564 185.565 184.068 185.804 184.604 185.938C185.14 186.073 185.697 186.1 186.244 186.019L237.361 178.403C238.464 178.237 239.456 177.64 240.12 176.742C240.785 175.845 241.067 174.72 240.905 173.614L235.532 137.343C235.367 136.238 234.771 135.244 233.876 134.578C232.98 133.912 231.857 133.629 230.754 133.791L185.333 140.578C185.284 140.585 185.234 140.582 185.186 140.569C185.139 140.556 185.094 140.533 185.055 140.503L175.114 133.158Z" fill="#231F20"/>
<path d="M228.03 156.67L215.862 157.303L216.788 174.956L227.308 174.406L228.03 156.67Z" fill="#F14736"/>
<path d="M216.788 175.334C216.692 175.334 216.599 175.297 216.529 175.231C216.459 175.165 216.417 175.075 216.411 174.979L215.486 157.356C215.484 157.307 215.492 157.257 215.509 157.211C215.526 157.164 215.552 157.122 215.585 157.085C215.619 157.049 215.659 157.019 215.704 156.999C215.749 156.978 215.798 156.966 215.847 156.964L228.008 156.323C228.06 156.319 228.113 156.327 228.162 156.345C228.211 156.363 228.256 156.392 228.293 156.429C228.367 156.506 228.408 156.609 228.406 156.715L227.654 174.451C227.652 174.545 227.614 174.635 227.549 174.703C227.483 174.77 227.394 174.809 227.3 174.813L216.765 175.364L216.788 175.334ZM216.261 157.666L217.141 174.564L226.924 174.044L227.609 157.07L216.261 157.666Z" fill="#231F20"/>
<path d="M219.888 173.132C220.661 173.132 221.288 172.504 221.288 171.729C221.288 170.954 220.661 170.326 219.888 170.326C219.115 170.326 218.488 170.954 218.488 171.729C218.488 172.504 219.115 173.132 219.888 173.132Z" fill="#231F20"/>
<path d="M215.922 158.404C215.922 158.404 215.17 158.329 212.867 156.195C210.565 154.061 207.035 148.292 206.749 147.267C206.463 146.241 206.644 141.988 205.997 141.129C205.35 140.269 202.693 139.741 201.625 141.355C200.511 143.228 199.87 145.345 199.759 147.523C199.834 148.963 201.113 154.732 201.113 154.732L188.923 155.366C187.139 155.464 186.801 156.753 186.989 158.125C187.177 159.498 188.87 161.044 188.87 161.044C188.87 161.044 187.41 161.692 187.975 163.683C188.12 164.249 188.395 164.773 188.778 165.214C189.161 165.655 189.64 166.001 190.179 166.224C189.873 166.505 189.672 166.883 189.61 167.295C189.549 167.707 189.63 168.128 189.841 168.486C190.205 169.378 190.905 170.091 191.79 170.47C191.392 170.721 191.11 171.12 191.004 171.579C190.899 172.038 190.978 172.52 191.225 172.92C191.978 174.617 193.092 175.658 194.597 175.635C196.102 175.613 210.926 174.783 212.363 174.708C213.8 174.632 213.808 173.886 214.538 173.584C215.25 173.384 215.987 173.285 216.728 173.29L215.922 158.404Z" fill="white"/>
<path d="M194.521 176.02C192.979 176.02 191.745 175.032 190.849 173.086C190.63 172.689 190.535 172.235 190.577 171.783C190.618 171.332 190.794 170.903 191.082 170.553C190.362 170.097 189.797 169.431 189.464 168.645C189.282 168.286 189.194 167.887 189.207 167.485C189.22 167.083 189.334 166.691 189.54 166.345C189.06 166.069 188.641 165.7 188.305 165.259C187.969 164.819 187.724 164.317 187.583 163.781C187.401 163.302 187.367 162.779 187.485 162.28C187.603 161.781 187.868 161.329 188.245 160.983C187.441 160.223 186.867 159.251 186.59 158.178C186.499 157.769 186.494 157.344 186.575 156.933C186.657 156.521 186.823 156.131 187.064 155.788C187.291 155.533 187.569 155.33 187.881 155.192C188.192 155.054 188.529 154.985 188.87 154.988L200.624 154.378C200.316 152.998 199.413 148.775 199.352 147.538C199.457 145.279 200.122 143.081 201.286 141.144C201.541 140.779 201.878 140.479 202.271 140.271C202.663 140.062 203.1 139.951 203.544 139.945C204.034 139.905 204.526 139.968 204.99 140.13C205.454 140.293 205.879 140.55 206.238 140.887C206.697 141.46 206.81 142.976 206.907 145.057C206.916 145.765 206.976 146.47 207.088 147.169C207.336 148.043 210.79 153.774 213.108 155.916C215.2 157.854 215.937 158.02 215.968 158.027C216.054 158.038 216.134 158.08 216.192 158.145C216.25 158.21 216.282 158.294 216.284 158.382L217.036 173.282C217.039 173.334 217.032 173.385 217.013 173.433C216.995 173.481 216.967 173.525 216.931 173.561C216.859 173.634 216.762 173.674 216.66 173.674C215.97 173.663 215.283 173.755 214.621 173.946C214.435 174.032 214.268 174.155 214.131 174.308C213.899 174.552 213.619 174.746 213.308 174.876C212.997 175.006 212.662 175.069 212.325 175.062L209.94 175.19C205.335 175.447 195.733 175.944 194.536 175.989L194.521 176.02ZM203.762 140.699H203.604C203.273 140.698 202.947 140.776 202.653 140.927C202.358 141.078 202.104 141.297 201.911 141.566C200.845 143.371 200.226 145.406 200.105 147.5C200.173 148.895 201.437 154.589 201.452 154.649C201.463 154.702 201.463 154.758 201.451 154.811C201.439 154.864 201.417 154.914 201.384 154.958C201.351 155.002 201.309 155.038 201.261 155.064C201.213 155.09 201.16 155.105 201.106 155.109L188.915 155.742C188.679 155.735 188.443 155.778 188.224 155.868C188.005 155.957 187.807 156.092 187.643 156.263C187.474 156.535 187.362 156.84 187.315 157.158C187.269 157.476 187.288 157.8 187.373 158.11C187.508 159.128 188.689 160.373 189.133 160.795C189.179 160.838 189.214 160.891 189.235 160.95C189.256 161.009 189.262 161.072 189.254 161.134C189.243 161.197 189.216 161.256 189.177 161.306C189.138 161.356 189.086 161.395 189.028 161.421C188.915 161.473 187.884 162.001 188.343 163.608C188.474 164.111 188.72 164.577 189.06 164.97C189.401 165.362 189.828 165.67 190.307 165.87C190.374 165.89 190.433 165.93 190.477 165.983C190.521 166.037 190.548 166.102 190.556 166.171C190.567 166.239 190.56 166.308 190.534 166.372C190.509 166.436 190.467 166.492 190.413 166.533C190.175 166.766 190.025 167.073 189.985 167.404C189.945 167.734 190.019 168.068 190.194 168.351C190.512 169.147 191.132 169.784 191.918 170.123C191.986 170.146 192.047 170.19 192.092 170.247C192.136 170.304 192.164 170.374 192.17 170.446C192.176 170.519 192.162 170.592 192.128 170.656C192.093 170.721 192.041 170.774 191.978 170.809C191.822 170.911 191.688 171.043 191.583 171.198C191.478 171.352 191.404 171.526 191.366 171.708C191.329 171.891 191.327 172.08 191.363 172.263C191.398 172.447 191.469 172.621 191.571 172.777C192.324 174.474 193.347 175.311 194.581 175.273C195.816 175.235 205.35 174.73 209.955 174.474L212.333 174.346C212.583 174.353 212.832 174.306 213.062 174.207C213.292 174.108 213.498 173.96 213.665 173.772C213.878 173.549 214.134 173.372 214.417 173.252C215.043 173.051 215.695 172.944 216.351 172.935L215.599 158.683C214.503 158.111 213.507 157.365 212.649 156.474C210.316 154.317 206.727 148.466 206.426 147.372C206.294 146.625 206.224 145.869 206.215 145.11C206.155 143.79 206.057 141.8 205.711 141.34C205.169 140.881 204.47 140.651 203.762 140.699Z" fill="#231F20"/>
<path d="M238.174 80.1841L200.097 71.5273C199.458 71.3812 198.796 71.3629 198.15 71.4733C197.503 71.5838 196.885 71.8209 196.33 72.1711C195.775 72.5213 195.294 72.9777 194.915 73.5142C194.537 74.0507 194.267 74.6567 194.122 75.2976L189.525 95.6049L179.689 99.3753L188.516 100.069L188.178 101.577C188.031 102.218 188.012 102.882 188.122 103.53C188.231 104.178 188.468 104.798 188.818 105.354C189.167 105.911 189.623 106.392 190.159 106.772C190.695 107.151 191.3 107.42 191.94 107.565L230.017 116.221C231.308 116.514 232.662 116.282 233.782 115.575C234.903 114.868 235.697 113.744 235.991 112.451L241.936 86.1714C242.229 84.8776 241.997 83.5203 241.291 82.3977C240.586 81.2751 239.464 80.479 238.174 80.1841Z" fill="white"/>
<path d="M231.13 116.727C230.728 116.726 230.326 116.681 229.934 116.591L191.887 107.934C190.499 107.618 189.292 106.761 188.533 105.554C187.774 104.346 187.524 102.886 187.839 101.494L188.08 100.408L179.689 99.7523C179.64 99.7593 179.59 99.7564 179.541 99.7438C179.493 99.7313 179.448 99.7093 179.408 99.6792C179.368 99.6491 179.335 99.6114 179.309 99.5683C179.284 99.5252 179.267 99.4776 179.261 99.4281C179.254 99.3786 179.256 99.3282 179.269 99.2798C179.282 99.2314 179.303 99.1859 179.333 99.146C179.364 99.1061 179.401 99.0725 179.444 99.0471C179.487 99.0218 179.535 99.0052 179.584 98.9982L189.231 95.3108L193.784 75.192C194.107 73.8156 194.957 72.6218 196.151 71.8684C197.345 71.1149 198.787 70.8624 200.165 71.1653L238.241 79.8145C239.629 80.1329 240.834 80.9893 241.593 82.1964C242.352 83.4034 242.603 84.8626 242.29 86.2543L236.345 112.534C236.073 113.729 235.403 114.795 234.446 115.557C233.488 116.319 232.3 116.732 231.078 116.727H231.13ZM181.352 99.1264L188.516 99.692C188.57 99.6972 188.622 99.7137 188.668 99.7403C188.715 99.7669 188.756 99.8031 188.788 99.8464C188.82 99.8898 188.842 99.9394 188.854 99.9921C188.865 100.045 188.866 100.099 188.855 100.152L188.509 101.66C188.241 102.856 188.458 104.109 189.111 105.145C189.764 106.181 190.8 106.916 191.993 107.188L230.099 115.882C230.69 116.017 231.302 116.034 231.9 115.932C232.497 115.83 233.069 115.611 233.582 115.287C234.095 114.964 234.539 114.542 234.889 114.046C235.239 113.551 235.489 112.991 235.623 112.398L241.552 86.0884C241.82 84.8917 241.604 83.6374 240.951 82.6001C240.298 81.5628 239.261 80.827 238.068 80.5535L200.014 71.8967C199.423 71.7619 198.811 71.7453 198.213 71.8478C197.615 71.9504 197.043 72.1701 196.53 72.4944C196.017 72.8187 195.573 73.2412 195.223 73.7377C194.873 74.2343 194.624 74.7951 194.491 75.3881L189.893 95.6954C189.879 95.7551 189.85 95.8104 189.809 95.8564C189.769 95.9024 189.717 95.9377 189.66 95.9593L181.352 99.1264Z" fill="#231F20"/>
<path d="M230.626 94.6624L220.904 93.3201L218.955 107.429L227.368 108.59L230.626 94.6624Z" fill="#F14736"/>
<path d="M227.368 108.967H227.315L218.902 107.806C218.853 107.799 218.806 107.782 218.764 107.756C218.722 107.73 218.685 107.697 218.655 107.657C218.626 107.617 218.605 107.571 218.593 107.523C218.581 107.475 218.579 107.425 218.586 107.376L220.528 93.2598C220.543 93.1617 220.595 93.0732 220.673 93.0128C220.752 92.9523 220.851 92.9247 220.949 92.9355L230.671 94.2853C230.724 94.2917 230.775 94.3091 230.82 94.3364C230.865 94.3636 230.904 94.4002 230.935 94.4437C230.964 94.4877 230.983 94.5371 230.992 94.589C231.001 94.6409 231 94.6941 230.987 94.7453L227.737 108.673C227.718 108.757 227.671 108.832 227.604 108.885C227.537 108.939 227.454 108.968 227.368 108.967ZM219.384 107.105L227.082 108.175L230.16 94.9791L221.235 93.7424L219.384 107.105Z" fill="#231F20"/>
<path d="M221.897 106.471C222.521 106.471 223.026 105.965 223.026 105.34C223.026 104.715 222.521 104.209 221.897 104.209C221.274 104.209 220.768 104.715 220.768 105.34C220.768 105.965 221.274 106.471 221.897 106.471Z" fill="#231F20"/>
<path d="M220.776 94.1949C220.776 94.1949 220.197 94.0214 218.692 91.9779C217.146 89.4996 215.975 86.8061 215.215 83.9846C215.14 83.1325 215.967 79.7694 215.523 79.0077C215.08 78.2461 213.123 77.4091 212.032 78.5251C210.866 79.8363 210.037 81.4126 209.616 83.1175C209.458 84.2712 209.616 89.0294 209.616 89.0294L199.871 87.6872C198.442 87.4836 197.983 88.4412 197.923 89.5724C197.862 90.7035 198.968 92.1664 198.968 92.1664C198.572 92.2922 198.237 92.563 198.031 92.9249C197.825 93.2868 197.762 93.7132 197.855 94.1194C197.884 94.5905 198.023 95.048 198.261 95.4553C198.499 95.8626 198.829 96.2083 199.224 96.4646C198.935 96.6398 198.716 96.9098 198.604 97.2288C198.491 97.5478 198.492 97.896 198.607 98.2141C198.763 98.9735 199.208 99.6419 199.849 100.077C199.497 100.216 199.214 100.489 199.06 100.836C198.907 101.183 198.896 101.576 199.029 101.932C199.39 103.395 200.097 104.382 201.286 104.594C202.475 104.805 214.342 106.396 215.493 106.554C216.645 106.713 216.758 106.132 217.382 106.004C217.976 105.953 218.574 105.986 219.158 106.102L220.776 94.1949Z" fill="white"/>
<path d="M215.839 106.961C215.699 106.972 215.558 106.972 215.418 106.961L213.65 106.72C209.887 106.215 202.159 105.167 201.196 104.993C199.932 104.767 199.066 103.779 198.645 102.052C198.53 101.705 198.518 101.332 198.612 100.978C198.705 100.624 198.9 100.306 199.172 100.062C198.692 99.5883 198.36 98.9858 198.216 98.3271C198.129 98.0161 198.118 97.6888 198.184 97.3726C198.249 97.0564 198.389 96.7606 198.592 96.5098C197.934 95.9055 197.53 95.0721 197.463 94.1797C197.394 93.772 197.443 93.3528 197.606 92.9728C197.769 92.5928 198.038 92.2681 198.381 92.0381C197.876 91.316 197.579 90.4679 197.524 89.5874C197.509 89.2389 197.569 88.8913 197.699 88.5676C197.829 88.244 198.025 87.9516 198.276 87.7097C198.501 87.5366 198.761 87.414 199.037 87.3502C199.314 87.2865 199.601 87.2831 199.879 87.3402L209.195 88.5995C209.195 87.3779 209.097 84.0751 209.233 83.0646C209.661 81.2798 210.525 79.6294 211.746 78.2611C212.012 78.0007 212.337 77.808 212.693 77.6991C213.05 77.5902 213.426 77.5683 213.793 77.6353C214.198 77.6792 214.59 77.8079 214.942 78.0132C215.295 78.2184 215.601 78.4956 215.839 78.8267C216.133 79.3696 215.99 80.546 215.749 82.2728C215.652 82.8285 215.594 83.3905 215.576 83.9544C216.329 86.704 217.475 89.3302 218.977 91.7516C220.317 93.5689 220.866 93.8253 220.889 93.8328C220.971 93.8604 221.041 93.9168 221.085 93.9915C221.129 94.0663 221.145 94.1545 221.13 94.24L219.489 106.147C219.483 106.198 219.466 106.247 219.44 106.291C219.414 106.335 219.38 106.373 219.339 106.403C219.297 106.433 219.249 106.454 219.198 106.465C219.148 106.475 219.096 106.475 219.045 106.464C218.509 106.351 217.958 106.318 217.412 106.366C217.262 106.404 217.121 106.473 216.998 106.569C216.664 106.821 216.258 106.959 215.839 106.961ZM199.495 88.034C199.225 88.0153 198.958 88.0957 198.743 88.2602C198.413 88.6249 198.238 89.1034 198.254 89.5949C198.354 90.4517 198.69 91.2637 199.224 91.9401C199.262 91.9916 199.286 92.0515 199.295 92.1146C199.304 92.1776 199.298 92.242 199.277 92.3021C199.255 92.3609 199.219 92.4132 199.172 92.454C199.124 92.4949 199.067 92.5231 199.006 92.5358C198.916 92.5358 198.073 92.8073 198.186 94.0892C198.214 94.4978 198.334 94.8947 198.538 95.25C198.741 95.6053 199.022 95.9097 199.36 96.1403C199.419 96.1726 199.469 96.2205 199.504 96.2789C199.539 96.3373 199.557 96.4041 199.557 96.4721C199.557 96.5401 199.539 96.6069 199.504 96.6653C199.469 96.7237 199.419 96.7716 199.36 96.8039C199.3 96.8039 198.735 97.1659 198.953 98.1311C199.085 98.7883 199.465 99.3691 200.014 99.7523C200.077 99.7878 200.128 99.8412 200.16 99.9057C200.192 99.9702 200.204 100.043 200.195 100.114C200.188 100.185 200.161 100.253 200.117 100.309C200.073 100.365 200.014 100.407 199.947 100.431C199.816 100.485 199.698 100.565 199.598 100.666C199.499 100.766 199.42 100.885 199.367 101.017C199.314 101.148 199.287 101.288 199.289 101.43C199.29 101.571 199.319 101.711 199.375 101.841C199.728 103.274 200.368 104.051 201.331 104.224C202.294 104.397 210.023 105.438 213.748 105.943L215.523 106.185C215.711 106.229 215.905 106.23 216.093 106.188C216.28 106.146 216.456 106.063 216.607 105.943C216.813 105.796 217.046 105.691 217.292 105.634C217.791 105.561 218.298 105.561 218.797 105.634L220.347 94.323C219.58 93.6991 218.913 92.9617 218.368 92.1362C216.785 89.5996 215.586 86.8426 214.809 83.9544C214.814 83.332 214.875 82.7112 214.989 82.0994C215.125 81.1191 215.358 79.4827 215.162 79.0831C214.785 78.6271 214.245 78.3374 213.657 78.2762C213.408 78.2284 213.152 78.2404 212.909 78.3112C212.665 78.382 212.442 78.5095 212.258 78.6834C211.15 79.9385 210.358 81.4406 209.947 83.0646C209.789 84.1731 209.947 88.871 209.947 88.9163C209.948 88.9715 209.937 89.0263 209.915 89.077C209.893 89.1277 209.86 89.1731 209.819 89.2103C209.778 89.2451 209.73 89.271 209.678 89.2866C209.626 89.3021 209.572 89.307 209.518 89.3008L199.774 87.951L199.495 88.034Z" fill="#231F20"/>
</svg>
