<svg width="474" height="358" viewBox="0 0 474 358" fill="none" xmlns="http://www.w3.org/2000/svg">
<path d="M413.897 300H353.103C353.076 300 353.05 299.789 353.03 299.414C353.011 299.039 353 298.53 353 298C353 297.47 353.011 296.961 353.03 296.586C353.05 296.211 353.076 296 353.103 296H413.897C413.924 296 413.951 296.211 413.97 296.586C413.989 296.961 414 297.47 414 298C414 298.53 413.989 299.039 413.97 299.414C413.951 299.789 413.924 300 413.897 300Z" fill="#D1D3D4"/>
<path d="M134.88 308H64.1202C64.0884 308 64.0578 307.737 64.0353 307.268C64.0128 306.799 64.0002 306.163 64.0002 305.5C64.0002 304.837 64.0128 304.201 64.0353 303.732C64.0578 303.263 64.0884 303 64.1202 303H134.88C134.912 303 134.943 303.263 134.965 303.732C134.988 304.201 135 304.837 135 305.5C135 306.163 134.988 306.799 134.965 307.268C134.943 307.737 134.912 308 134.88 308Z" fill="#D1D3D4"/>
<path d="M393.55 65.7373V242.197C393.552 243.954 393.208 245.694 392.538 247.318C391.868 248.942 390.886 250.417 389.646 251.66C388.407 252.903 386.936 253.889 385.316 254.561C383.696 255.234 381.96 255.58 380.207 255.58H93.7927C92.0395 255.58 90.3034 255.234 88.6838 254.561C87.0642 253.889 85.5927 252.903 84.3535 251.66C83.1144 250.417 82.1318 248.942 81.4619 247.318C80.792 245.694 80.4481 243.954 80.4496 242.197V65.7373C80.4496 62.19 81.855 58.7878 84.357 56.2783C86.859 53.7689 90.2528 52.3575 93.7927 52.3544H380.207C383.747 52.3575 387.141 53.7689 389.643 56.2783C392.145 58.7878 393.55 62.19 393.55 65.7373Z" fill="white"/>
<path d="M380.207 256.186H93.7927C90.0957 256.183 86.5511 254.709 83.938 252.088C81.3249 249.467 79.8571 245.914 79.8571 242.209V65.7375C79.8571 62.0327 81.3249 58.4795 83.938 55.8587C86.5511 53.2379 90.0957 51.764 93.7927 51.7608H380.207C383.904 51.764 387.449 53.2379 390.062 55.8587C392.675 58.4795 394.143 62.0327 394.143 65.7375V242.198C394.144 244.033 393.785 245.851 393.086 247.547C392.386 249.243 391.36 250.785 390.066 252.084C388.772 253.383 387.235 254.414 385.544 255.118C383.852 255.821 382.039 256.185 380.207 256.186ZM93.7927 52.9483C90.4109 52.9546 87.1696 54.3044 84.7794 56.7018C82.3892 59.0992 81.0452 62.3486 81.0421 65.7375V242.198C81.0421 245.588 82.3847 248.841 84.7752 251.241C87.1658 253.641 90.4089 254.992 93.7927 254.999H380.207C383.589 254.992 386.83 253.642 389.221 251.245C391.611 248.848 392.955 245.598 392.958 242.209V65.7375C392.955 62.3486 391.611 59.0992 389.221 56.7018C386.83 54.3044 383.589 52.9546 380.207 52.9483H93.7927Z" fill="#231F20"/>
<path d="M393.55 65.7373V75.2966H80.4496V65.7373C80.4496 62.19 81.8551 58.7878 84.357 56.2783C86.859 53.7689 90.2528 52.3575 93.7927 52.3544H380.207C383.747 52.3575 387.141 53.7689 389.643 56.2783C392.145 58.7878 393.55 62.19 393.55 65.7373Z" fill="#231F20"/>
<path d="M393.55 75.8196H80.4496C80.3113 75.8196 80.1787 75.7646 80.0809 75.6666C79.9832 75.5686 79.9282 75.4357 79.9282 75.2971V65.7379C79.9314 62.053 81.3927 58.5197 83.9918 55.9129C86.5909 53.3062 90.1155 51.8387 93.7927 51.8325H380.207C383.884 51.8387 387.409 53.3062 390.008 55.9129C392.607 58.5197 394.069 62.053 394.072 65.7379V75.2971C394.072 75.4357 394.017 75.5686 393.919 75.6666C393.821 75.7646 393.689 75.8196 393.55 75.8196ZM80.971 74.7746H393.029V65.7379C393.026 62.3301 391.674 59.0626 389.271 56.6518C386.867 54.2411 383.608 52.8837 380.207 52.8774H93.7927C90.3921 52.8837 87.1327 54.2411 84.7292 56.6518C82.3256 59.0626 80.9742 62.3301 80.971 65.7379V74.7746Z" fill="#231F20"/>
<path d="M207.908 75.2965L196.603 56.8549H136.311L123.655 75.2965H80.4496V103.416H393.55V75.2965H207.908Z" fill="#F14736"/>
<path d="M393.55 104.01H80.4496C80.2925 104.01 80.1418 103.948 80.0307 103.836C79.9195 103.725 79.8571 103.574 79.8571 103.416V75.2967C79.8571 75.1392 79.9195 74.9882 80.0307 74.8769C80.1418 74.7655 80.2925 74.703 80.4496 74.703H123.347L135.825 56.5226C135.878 56.4421 135.95 56.3761 136.035 56.3305C136.119 56.2849 136.214 56.2611 136.311 56.2614H196.603C196.706 56.2608 196.806 56.2867 196.896 56.3366C196.985 56.3866 197.06 56.4588 197.113 56.5464L208.24 74.703H393.55C393.707 74.703 393.858 74.7655 393.969 74.8769C394.08 74.9882 394.143 75.1392 394.143 75.2967V103.416C394.143 103.574 394.08 103.725 393.969 103.836C393.858 103.948 393.707 104.01 393.55 104.01ZM81.0421 102.823H392.958V75.8905H207.908C207.806 75.8888 207.707 75.862 207.618 75.8122C207.529 75.7625 207.454 75.6915 207.399 75.6055L196.272 57.4488H136.619L124.141 75.6886C124.088 75.7691 124.015 75.8351 123.931 75.8807C123.846 75.9263 123.751 75.9501 123.655 75.9498H80.9947L81.0421 102.823Z" fill="#231F20"/>
<path d="M94.9422 67.0316C96.7092 67.0316 98.1417 65.5961 98.1417 63.8254C98.1417 62.0547 96.7092 60.6192 94.9422 60.6192C93.1751 60.6192 91.7427 62.0547 91.7427 63.8254C91.7427 65.5961 93.1751 67.0316 94.9422 67.0316Z" fill="#F14736"/>
<path d="M105.702 67.0316C107.469 67.0316 108.902 65.5961 108.902 63.8254C108.902 62.0547 107.469 60.6192 105.702 60.6192C103.935 60.6192 102.503 62.0547 102.503 63.8254C102.503 65.5961 103.935 67.0316 105.702 67.0316Z" fill="white"/>
<path d="M116.462 67.0316C118.229 67.0316 119.661 65.5961 119.661 63.8254C119.661 62.0547 118.229 60.6192 116.462 60.6192C114.695 60.6192 113.262 62.0547 113.262 63.8254C113.262 65.5961 114.695 67.0316 116.462 67.0316Z" fill="white"/>
<path d="M359.398 160.879H122.15V187.134H359.398V160.879Z" fill="white"/>
<path d="M359.399 187.728H122.15C121.993 187.728 121.842 187.665 121.731 187.554C121.62 187.443 121.557 187.292 121.557 187.134V160.879C121.557 160.721 121.62 160.57 121.731 160.459C121.842 160.348 121.993 160.285 122.15 160.285H359.399C359.556 160.285 359.706 160.348 359.818 160.459C359.929 160.57 359.991 160.721 359.991 160.879V187.134C359.991 187.292 359.929 187.443 359.818 187.554C359.706 187.665 359.556 187.728 359.399 187.728ZM122.742 186.54H358.806V161.473H122.742V186.54Z" fill="#231F20"/>
<path d="M202.254 131.625C199.605 130.862 197.674 129.927 196.462 128.82C195.261 127.703 194.661 126.327 194.661 124.693C194.661 122.845 195.395 121.319 196.865 120.115C198.345 118.901 200.264 118.293 202.624 118.293C204.232 118.293 205.664 118.605 206.919 119.228C208.185 119.852 209.16 120.711 209.847 121.808C210.544 122.904 210.893 124.102 210.893 125.403H207.788C207.788 123.984 207.337 122.872 206.436 122.066C205.536 121.249 204.265 120.84 202.624 120.84C201.101 120.84 199.91 121.179 199.052 121.856C198.205 122.522 197.782 123.452 197.782 124.645C197.782 125.601 198.184 126.413 198.988 127.079C199.803 127.735 201.181 128.337 203.122 128.885C205.074 129.433 206.597 130.04 207.691 130.706C208.796 131.362 209.611 132.13 210.136 133.012C210.673 133.893 210.941 134.93 210.941 136.123C210.941 138.025 210.201 139.551 208.721 140.701C207.241 141.841 205.262 142.41 202.785 142.41C201.176 142.41 199.674 142.104 198.28 141.491C196.886 140.868 195.808 140.019 195.047 138.944C194.296 137.869 193.921 136.65 193.921 135.285H197.025C197.025 136.703 197.546 137.826 198.586 138.654C199.637 139.471 201.036 139.879 202.785 139.879C204.415 139.879 205.664 139.546 206.533 138.88C207.402 138.213 207.836 137.305 207.836 136.155C207.836 135.005 207.434 134.119 206.629 133.495C205.825 132.861 204.367 132.238 202.254 131.625Z" fill="black"/>
<path d="M221.671 142.41C219.311 142.41 217.392 141.636 215.912 140.089C214.432 138.53 213.692 136.451 213.692 133.85V133.302C213.692 131.572 214.019 130.029 214.673 128.675C215.338 127.31 216.26 126.246 217.44 125.483C218.63 124.709 219.917 124.323 221.301 124.323C223.564 124.323 225.323 125.069 226.578 126.563C227.832 128.057 228.46 130.196 228.46 132.979V134.221H216.668C216.711 135.94 217.209 137.332 218.164 138.396C219.129 139.449 220.352 139.976 221.832 139.976C222.883 139.976 223.773 139.761 224.502 139.331C225.232 138.901 225.87 138.332 226.417 137.622L228.235 139.041C226.776 141.287 224.588 142.41 221.671 142.41ZM221.301 126.773C220.1 126.773 219.092 127.214 218.277 128.095C217.461 128.965 216.957 130.191 216.764 131.77H225.484V131.545C225.398 130.029 224.99 128.858 224.261 128.03C223.532 127.192 222.545 126.773 221.301 126.773Z" fill="black"/>
<path d="M242.665 142.088C242.493 141.744 242.354 141.131 242.246 140.25C240.863 141.69 239.211 142.41 237.292 142.41C235.576 142.41 234.165 141.927 233.061 140.959C231.967 139.981 231.42 138.745 231.42 137.251C231.42 135.435 232.106 134.027 233.479 133.028C234.862 132.018 236.804 131.512 239.302 131.512H242.198V130.142C242.198 129.1 241.887 128.272 241.265 127.66C240.643 127.036 239.726 126.725 238.514 126.725C237.452 126.725 236.562 126.993 235.844 127.531C235.125 128.068 234.766 128.718 234.766 129.481H231.774C231.774 128.611 232.079 127.772 232.691 126.966C233.313 126.15 234.149 125.505 235.2 125.032C236.262 124.559 237.426 124.323 238.691 124.323C240.697 124.323 242.268 124.828 243.405 125.838C244.542 126.837 245.131 128.218 245.174 129.981V138.009C245.174 139.61 245.378 140.884 245.786 141.83V142.088H242.665ZM237.726 139.815C238.659 139.815 239.544 139.573 240.38 139.089C241.217 138.606 241.823 137.977 242.198 137.203V133.624H239.866C236.219 133.624 234.396 134.694 234.396 136.832C234.396 137.767 234.707 138.498 235.329 139.025C235.951 139.551 236.75 139.815 237.726 139.815Z" fill="black"/>
<path d="M258.253 127.321C257.803 127.246 257.315 127.208 256.789 127.208C254.837 127.208 253.513 128.041 252.816 129.707V142.088H249.84V124.645H252.735L252.784 126.66C253.759 125.102 255.143 124.323 256.934 124.323C257.513 124.323 257.953 124.398 258.253 124.548V127.321Z" fill="black"/>
<path d="M267.664 139.976C268.726 139.976 269.654 139.653 270.447 139.009C271.241 138.364 271.681 137.558 271.766 136.591H274.582C274.528 137.59 274.185 138.541 273.552 139.444C272.919 140.347 272.072 141.067 271.01 141.604C269.959 142.141 268.844 142.41 267.664 142.41C265.294 142.41 263.406 141.62 262.001 140.04C260.607 138.45 259.91 136.279 259.91 133.528V133.028C259.91 131.33 260.221 129.82 260.843 128.498C261.465 127.176 262.355 126.15 263.514 125.419C264.683 124.688 266.061 124.323 267.648 124.323C269.6 124.323 271.219 124.908 272.506 126.08C273.804 127.251 274.496 128.772 274.582 130.642H271.766C271.681 129.513 271.252 128.589 270.479 127.869C269.718 127.138 268.774 126.773 267.648 126.773C266.136 126.773 264.961 127.321 264.125 128.417C263.299 129.503 262.886 131.077 262.886 133.141V133.705C262.886 135.715 263.299 137.262 264.125 138.348C264.951 139.433 266.13 139.976 267.664 139.976Z" fill="black"/>
<path d="M280.904 126.757C282.223 125.134 283.939 124.323 286.052 124.323C289.73 124.323 291.586 126.402 291.618 130.561V142.088H288.642V130.545C288.631 129.288 288.341 128.358 287.773 127.756C287.215 127.154 286.341 126.853 285.151 126.853C284.186 126.853 283.338 127.111 282.609 127.627C281.88 128.143 281.311 128.82 280.904 129.659V142.088H277.928V117.326H280.904V126.757Z" fill="black"/>
<path d="M328.399 187.728C328.32 187.728 328.242 187.712 328.169 187.682C328.097 187.651 328.031 187.606 327.976 187.55C327.921 187.493 327.877 187.426 327.848 187.353C327.819 187.28 327.805 187.201 327.806 187.122C327.925 177.325 328.032 162.458 327.806 161.104C327.794 161.03 327.794 160.954 327.806 160.879C327.816 160.765 327.856 160.656 327.924 160.564C327.991 160.471 328.083 160.4 328.188 160.357C328.294 160.314 328.409 160.301 328.522 160.32C328.634 160.338 328.74 160.388 328.826 160.463C329.051 160.689 329.3 160.95 328.991 187.146C328.991 187.223 328.976 187.3 328.946 187.371C328.916 187.443 328.872 187.507 328.817 187.562C328.762 187.616 328.697 187.658 328.625 187.687C328.553 187.716 328.476 187.729 328.399 187.728Z" fill="#231F20"/>
<path d="M360.655 81.9113H129.212C125.312 81.9113 122.15 85.08 122.15 88.9887V90.0931C122.15 94.0018 125.312 97.1705 129.212 97.1705H360.655C364.555 97.1705 367.717 94.0018 367.717 90.0931V88.9887C367.717 85.08 364.555 81.9113 360.655 81.9113Z" fill="white"/>
<path d="M356.685 92.9661C356.558 92.9672 356.434 92.93 356.329 92.8593C356.241 92.7933 356.171 92.7041 356.13 92.6015C356.088 92.4989 356.075 92.3868 356.092 92.2774L356.531 89.7243L354.682 87.9075C354.602 87.8316 354.544 87.7344 354.517 87.6271C354.49 87.5199 354.494 87.407 354.528 87.3018C354.564 87.1962 354.629 87.1026 354.714 87.0314C354.8 86.9601 354.904 86.914 355.014 86.8981L357.574 86.53L358.759 84.155C358.809 84.0559 358.885 83.9725 358.979 83.9139C359.073 83.8553 359.181 83.8236 359.292 83.8225C359.403 83.8236 359.511 83.8553 359.605 83.9139C359.699 83.9725 359.775 84.0559 359.825 84.155L361.01 86.53L363.57 86.8981C363.68 86.914 363.784 86.9601 363.869 87.0314C363.955 87.1026 364.02 87.1962 364.056 87.3018C364.09 87.407 364.094 87.5199 364.067 87.6271C364.039 87.7344 363.982 87.8316 363.902 87.9075L362.053 89.7243L362.491 92.2774C362.509 92.3868 362.496 92.4989 362.454 92.6015C362.412 92.7041 362.343 92.7933 362.254 92.8593C362.159 92.9145 362.051 92.9436 361.94 92.9436C361.83 92.9436 361.722 92.9145 361.626 92.8593L359.339 91.6718L357.052 92.8593C356.942 92.9284 356.815 92.9654 356.685 92.9661ZM356.365 87.8956L357.55 89.0831C357.619 89.1516 357.671 89.2362 357.7 89.3294C357.729 89.4226 357.734 89.5216 357.716 89.6174L357.431 91.2918L358.936 90.4962C359.021 90.4551 359.115 90.4338 359.209 90.4338C359.303 90.4338 359.396 90.4551 359.481 90.4962L360.986 91.2918L360.702 89.6174C360.684 89.5216 360.689 89.4226 360.718 89.3294C360.747 89.2362 360.799 89.1516 360.868 89.0831L362.053 87.8956L360.37 87.6581C360.275 87.6404 360.185 87.6013 360.107 87.5437C360.029 87.4862 359.965 87.4116 359.92 87.3256L359.173 85.8056L358.427 87.3256C358.382 87.4116 358.318 87.4862 358.24 87.5437C358.162 87.6013 358.072 87.6404 357.977 87.6581L356.365 87.8956Z" fill="#D1D3D4"/>
<path d="M386.215 85.0582H377.328C377.171 85.0582 377.02 84.9957 376.909 84.8843C376.798 84.773 376.735 84.6219 376.735 84.4645C376.735 84.307 376.798 84.156 376.909 84.0446C377.02 83.9333 377.171 83.8707 377.328 83.8707H386.215C386.372 83.8707 386.523 83.9333 386.634 84.0446C386.745 84.156 386.808 84.307 386.808 84.4645C386.808 84.6219 386.745 84.773 386.634 84.8843C386.523 84.9957 386.372 85.0582 386.215 85.0582Z" fill="#231F20"/>
<path d="M386.215 89.0121H377.328C377.171 89.0121 377.02 88.9495 376.909 88.8382C376.798 88.7268 376.735 88.5758 376.735 88.4183C376.738 88.2618 376.802 88.1125 376.912 88.0018C377.023 87.8912 377.172 87.8276 377.328 87.8246H386.215C386.372 87.8246 386.523 87.8871 386.634 87.9985C386.745 88.1098 386.808 88.2609 386.808 88.4183C386.808 88.5758 386.745 88.7268 386.634 88.8382C386.523 88.9495 386.372 89.0121 386.215 89.0121Z" fill="#231F20"/>
<path d="M386.215 92.9665H377.328C377.171 92.9665 377.02 92.904 376.909 92.7926C376.798 92.6813 376.735 92.5303 376.735 92.3728C376.738 92.2163 376.802 92.067 376.912 91.9563C377.023 91.8456 377.172 91.7821 377.328 91.7791H386.215C386.372 91.7791 386.523 91.8416 386.634 91.953C386.745 92.0643 386.808 92.2153 386.808 92.3728C386.808 92.5303 386.745 92.6813 386.634 92.7926C386.523 92.904 386.372 92.9665 386.215 92.9665Z" fill="#231F20"/>
<path d="M217.815 71.093C217.658 71.093 217.507 71.0304 217.396 70.9191C217.285 70.8077 217.222 70.6567 217.222 70.4992V61.13C217.222 60.9725 217.285 60.8215 217.396 60.7102C217.507 60.5988 217.658 60.5363 217.815 60.5363C217.972 60.5363 218.123 60.5988 218.234 60.7102C218.345 60.8215 218.407 60.9725 218.407 61.13V70.4992C218.407 70.6567 218.345 70.8077 218.234 70.9191C218.123 71.0304 217.972 71.093 217.815 71.093Z" fill="#D1D3D4"/>
<path d="M222.496 66.4145H213.134C212.977 66.4145 212.826 66.3519 212.715 66.2406C212.604 66.1292 212.542 65.9782 212.542 65.8207C212.542 65.6633 212.604 65.5122 212.715 65.4009C212.826 65.2895 212.977 65.227 213.134 65.227H222.496C222.653 65.227 222.804 65.2895 222.915 65.4009C223.026 65.5122 223.088 65.6633 223.088 65.8207C223.085 65.9773 223.022 66.1265 222.911 66.2372C222.801 66.3479 222.652 66.4114 222.496 66.4145Z" fill="#D1D3D4"/>
<path d="M96.6722 91.0423H88.2468C88.0897 91.0423 87.939 90.9798 87.8279 90.8684C87.7168 90.7571 87.6543 90.6061 87.6543 90.4486C87.6543 90.2911 87.7168 90.1401 87.8279 90.0288C87.939 89.9174 88.0897 89.8549 88.2468 89.8549H96.6722C96.8284 89.8579 96.9773 89.9214 97.0878 90.0321C97.1982 90.1428 97.2617 90.2921 97.2647 90.4486C97.2647 90.6061 97.2023 90.7571 97.0911 90.8684C96.98 90.9798 96.8293 91.0423 96.6722 91.0423Z" fill="#231F20"/>
<path d="M90.5103 95.0091C90.4215 95.0078 90.334 94.987 90.2541 94.948C90.1742 94.909 90.1039 94.8528 90.0482 94.7835L86.8487 90.8292C86.76 90.7225 86.7114 90.588 86.7114 90.4492C86.7114 90.3103 86.76 90.1759 86.8487 90.0692L90.3089 86.0198C90.411 85.9002 90.5564 85.8261 90.7131 85.8138C90.7907 85.8077 90.8687 85.8171 90.9427 85.8412C91.0166 85.8653 91.0852 85.9039 91.1443 85.9545C91.2034 86.0052 91.252 86.0671 91.2873 86.1366C91.3226 86.2061 91.3438 86.2819 91.3499 86.3596C91.3559 86.4373 91.3467 86.5155 91.3226 86.5897C91.2985 86.6638 91.26 86.7325 91.2095 86.7917L88.0692 90.461L90.9606 94.0235C91.0101 94.0838 91.047 94.1534 91.0691 94.2283C91.0911 94.3031 91.098 94.3817 91.0891 94.4593C91.0803 94.5368 91.0559 94.6118 91.0176 94.6797C90.9792 94.7477 90.9276 94.8072 90.8658 94.8547C90.7696 94.9472 90.6434 95.0019 90.5103 95.0091Z" fill="#231F20"/>
<path d="M109.696 91.0423H101.27C101.113 91.0423 100.962 90.9798 100.851 90.8684C100.74 90.7571 100.678 90.6061 100.678 90.4486C100.678 90.2911 100.74 90.1401 100.851 90.0288C100.962 89.9174 101.113 89.8549 101.27 89.8549H109.696C109.852 89.8579 110.001 89.9214 110.111 90.0321C110.222 90.1428 110.285 90.2921 110.288 90.4486C110.288 90.6061 110.226 90.7571 110.115 90.8684C110.003 90.9798 109.853 91.0423 109.696 91.0423Z" fill="#231F20"/>
<path d="M107.432 95.0092C107.293 95.0068 107.159 94.9565 107.053 94.8667C106.933 94.767 106.856 94.6238 106.841 94.4682C106.825 94.3125 106.872 94.157 106.97 94.0354L109.861 90.473L106.721 86.8037C106.666 86.7495 106.622 86.6848 106.592 86.6135C106.562 86.5421 106.547 86.4655 106.547 86.3881C106.547 86.3107 106.562 86.234 106.592 86.1626C106.622 86.0913 106.666 86.0266 106.721 85.9724C106.834 85.8629 106.985 85.8016 107.142 85.8016C107.299 85.8016 107.45 85.8629 107.562 85.9724L111.023 90.0218C111.109 90.1294 111.156 90.2635 111.156 90.4018C111.156 90.54 111.109 90.6741 111.023 90.7817L107.823 94.7361C107.779 94.8053 107.722 94.8652 107.655 94.9121C107.588 94.9589 107.512 94.992 107.432 95.0092Z" fill="#231F20"/>
<path d="M342.157 177.586C340.827 177.586 339.539 177.124 338.511 176.278C337.484 175.433 336.78 174.257 336.521 172.95C336.262 171.643 336.463 170.286 337.09 169.111C337.717 167.936 338.731 167.016 339.96 166.506C341.188 165.996 342.555 165.929 343.828 166.316C345.1 166.703 346.199 167.52 346.937 168.628C347.676 169.736 348.008 171.067 347.878 172.393C347.747 173.719 347.162 174.958 346.222 175.9C345.689 176.436 345.055 176.861 344.357 177.15C343.66 177.44 342.912 177.588 342.157 177.586ZM342.157 167.279C341.256 167.276 340.375 167.541 339.625 168.042C338.876 168.542 338.291 169.254 337.947 170.088C337.603 170.922 337.514 171.84 337.692 172.725C337.869 173.61 338.306 174.422 338.946 175.057C339.811 175.89 340.964 176.354 342.163 176.354C343.362 176.354 344.515 175.89 345.38 175.057C346.015 174.419 346.446 173.606 346.621 172.722C346.795 171.838 346.704 170.922 346.359 170.09C346.014 169.258 345.431 168.547 344.683 168.047C343.935 167.546 343.056 167.279 342.157 167.279Z" fill="#231F20"/>
<path d="M351.649 181.933C351.489 181.932 351.335 181.868 351.222 181.755L345.38 175.9C345.324 175.845 345.28 175.779 345.25 175.707C345.22 175.635 345.205 175.557 345.205 175.479C345.205 175.4 345.22 175.323 345.25 175.25C345.28 175.178 345.324 175.112 345.38 175.057C345.493 174.948 345.644 174.886 345.801 174.886C345.958 174.886 346.109 174.948 346.221 175.057L352.064 180.911C352.173 181.024 352.234 181.176 352.234 181.333C352.234 181.49 352.173 181.642 352.064 181.755C351.954 181.866 351.805 181.93 351.649 181.933Z" fill="#231F20"/>
<path d="M227.164 174.606H133.763C133.606 174.603 133.457 174.54 133.347 174.429C133.237 174.318 133.173 174.169 133.17 174.012C133.17 173.855 133.233 173.704 133.344 173.593C133.455 173.481 133.605 173.419 133.763 173.419H227.164C227.321 173.419 227.472 173.481 227.583 173.593C227.694 173.704 227.757 173.855 227.757 174.012C227.757 174.17 227.694 174.321 227.583 174.432C227.472 174.544 227.321 174.606 227.164 174.606Z" fill="#D1D3D4"/>
<path d="M146.088 176.527L140.239 168.707L129.486 176.782L135.335 184.603L146.088 176.527Z" fill="white"/>
<path d="M135.327 185.186C135.235 185.188 135.143 185.168 135.061 185.126C134.978 185.085 134.907 185.024 134.853 184.949L128.999 177.135C128.908 177.008 128.869 176.851 128.891 176.696C128.913 176.541 128.994 176.4 129.118 176.304L139.877 168.229C140.003 168.135 140.161 168.094 140.317 168.116C140.472 168.139 140.613 168.222 140.707 168.348L146.549 176.162C146.597 176.223 146.632 176.294 146.652 176.369C146.672 176.445 146.677 176.524 146.667 176.601C146.657 176.679 146.631 176.754 146.59 176.822C146.549 176.889 146.495 176.948 146.43 176.993L135.682 185.068C135.58 185.146 135.455 185.187 135.327 185.186ZM130.303 176.874L135.445 183.75L145.245 176.387L140.114 169.5L130.303 176.874Z" fill="#231F20"/>
<path d="M134.323 183.255L130.471 178.105L117.329 187.975L121.18 193.125L134.323 183.255Z" fill="#231F20"/>
<path d="M121.19 193.665C121.107 193.666 121.025 193.647 120.951 193.61C120.877 193.573 120.812 193.519 120.763 193.452L116.912 188.298C116.87 188.243 116.84 188.18 116.823 188.112C116.807 188.045 116.805 187.974 116.817 187.906C116.836 187.769 116.909 187.645 117.019 187.562L130.16 177.694C130.215 177.652 130.278 177.622 130.345 177.604C130.412 177.587 130.482 177.583 130.55 177.593C130.618 177.603 130.684 177.627 130.743 177.662C130.803 177.698 130.854 177.745 130.895 177.801L134.746 182.954C134.789 183.009 134.819 183.073 134.835 183.14C134.851 183.208 134.853 183.278 134.841 183.346C134.835 183.415 134.813 183.481 134.778 183.541C134.744 183.6 134.696 183.651 134.64 183.691L121.498 193.558C121.41 193.627 121.302 193.665 121.19 193.665ZM118.062 188.084L121.285 192.407L133.597 183.156L130.35 178.846L118.062 188.084Z" fill="#231F20"/>
<path d="M143.468 171.934C140.913 168.52 139.425 164.423 139.194 160.161C138.962 155.9 139.997 151.665 142.167 147.993C144.338 144.321 147.546 141.376 151.387 139.531C155.228 137.687 159.528 137.025 163.744 137.629C167.96 138.234 171.902 140.078 175.072 142.929C178.243 145.779 180.498 149.507 181.553 153.642C182.608 157.777 182.416 162.133 181.001 166.158C179.586 170.183 177.011 173.698 173.603 176.257C171.341 177.957 168.767 179.193 166.029 179.896C163.29 180.598 160.44 180.754 157.642 180.352C154.843 179.951 152.151 179.001 149.719 177.556C147.287 176.112 145.163 174.202 143.468 171.934ZM182.04 142.96C178.874 138.727 174.528 135.529 169.549 133.772C164.57 132.015 159.183 131.777 154.069 133.088C148.955 134.399 144.344 137.2 140.82 141.138C137.295 145.075 135.014 149.971 134.267 155.208C133.519 160.444 134.338 165.785 136.619 170.555C138.901 175.325 142.543 179.309 147.085 182.005C151.626 184.7 156.864 185.986 162.135 185.698C167.405 185.41 172.473 183.563 176.695 180.389C179.499 178.284 181.862 175.645 183.648 172.624C185.435 169.604 186.609 166.26 187.106 162.784C187.602 159.308 187.41 155.768 186.541 152.367C185.672 148.965 184.142 145.769 182.04 142.96Z" fill="#F14736"/>
<path d="M160.745 186.338C159.433 186.337 158.122 186.242 156.823 186.053C149.882 185.038 143.606 181.364 139.313 175.805C135.021 170.246 133.048 163.235 133.809 156.247C134.57 149.26 138.006 142.841 143.394 138.341C148.781 133.84 155.701 131.609 162.697 132.118C169.693 132.626 176.219 135.834 180.903 141.066C185.586 146.298 188.062 153.147 187.81 160.171C187.557 167.195 184.595 173.848 179.547 178.728C174.499 183.608 167.759 186.337 160.745 186.338ZM160.662 132.902C154.792 132.912 149.096 134.908 144.499 138.567C139.901 142.225 136.67 147.331 135.329 153.059C133.988 158.786 134.615 164.8 137.11 170.125C139.604 175.451 143.819 179.777 149.072 182.403C154.325 185.03 160.31 185.802 166.056 184.596C171.802 183.389 176.973 180.275 180.733 175.756C184.492 171.238 186.62 165.58 186.771 159.699C186.922 153.818 185.088 148.058 181.566 143.352C179.136 140.094 175.982 137.45 172.353 135.629C168.724 133.809 164.721 132.863 160.662 132.866V132.902ZM160.662 181.185C157.215 181.2 153.812 180.407 150.726 178.869C147.639 177.331 144.955 175.09 142.887 172.326C139.891 168.331 138.327 163.44 138.45 158.444C138.573 153.448 140.375 148.639 143.565 144.797C146.754 140.955 151.144 138.304 156.024 137.274C160.904 136.243 165.988 136.893 170.454 139.119C174.919 141.344 178.504 145.015 180.629 149.536C182.753 154.058 183.293 159.165 182.16 164.032C181.027 168.899 178.288 173.241 174.387 176.354C170.485 179.466 165.65 181.169 160.662 181.185ZM143.883 171.614C146.367 174.926 149.774 177.427 153.674 178.8C157.575 180.174 161.794 180.359 165.8 179.332C169.805 178.305 173.418 176.112 176.181 173.03C178.944 169.948 180.734 166.115 181.325 162.014C181.916 157.914 181.282 153.729 179.502 149.99C177.723 146.25 174.878 143.122 171.326 141.001C167.774 138.88 163.675 137.861 159.546 138.072C155.417 138.283 151.443 139.715 148.125 142.188C143.689 145.529 140.757 150.497 139.97 156.002C139.184 161.507 140.608 167.1 143.93 171.554L143.883 171.614Z" fill="#231F20"/>
<path d="M82.8431 220.384L80.4731 217.201C80.0143 216.588 79.8165 215.818 79.9231 215.059C80.0297 214.3 80.432 213.614 81.0419 213.152L116.13 186.802C116.742 186.342 117.51 186.144 118.268 186.25C119.025 186.357 119.709 186.76 120.171 187.372L122.541 190.566C122.769 190.87 122.935 191.216 123.029 191.584C123.123 191.952 123.144 192.335 123.09 192.711C123.036 193.088 122.909 193.45 122.715 193.776C122.521 194.103 122.264 194.388 121.96 194.615L86.884 220.965C86.5809 221.194 86.2357 221.36 85.8683 221.455C85.5008 221.549 85.1184 221.57 84.7429 221.516C84.3674 221.462 84.0063 221.334 83.6803 221.14C83.3542 220.945 83.0698 220.688 82.8431 220.384Z" fill="white"/>
<path d="M85.1543 222.141H84.6566C84.2037 222.078 83.768 221.925 83.3752 221.69C82.9824 221.456 82.6404 221.145 82.3695 220.775L79.9995 217.593C79.7217 217.228 79.5199 216.811 79.4059 216.366C79.2919 215.921 79.2681 215.458 79.3359 215.004C79.3993 214.552 79.5513 214.117 79.7832 213.723C80.015 213.33 80.3221 212.986 80.6868 212.712L115.822 186.362C116.186 186.084 116.603 185.882 117.046 185.767C117.49 185.653 117.952 185.629 118.405 185.697C118.857 185.761 119.291 185.913 119.684 186.145C120.076 186.378 120.419 186.685 120.692 187.051L123.062 190.245C123.337 190.611 123.537 191.028 123.651 191.472C123.764 191.916 123.789 192.378 123.724 192.831C123.659 193.285 123.506 193.721 123.272 194.114C123.039 194.508 122.73 194.852 122.363 195.126L87.2399 221.441C86.636 221.889 85.9059 222.134 85.1543 222.141ZM117.896 186.813C117.399 186.811 116.915 186.974 116.521 187.277L81.386 213.627C81.1455 213.807 80.943 214.033 80.7905 214.291C80.6379 214.55 80.5382 214.837 80.4972 215.135C80.4483 215.435 80.462 215.742 80.5375 216.036C80.6129 216.33 80.7485 216.606 80.9357 216.845L83.3057 220.027C83.4849 220.27 83.7101 220.474 83.9684 220.629C84.2266 220.784 84.5128 220.886 84.8106 220.93C85.4146 221.009 86.0257 220.851 86.517 220.491L121.64 194.14C121.882 193.96 122.086 193.733 122.241 193.474C122.395 193.214 122.497 192.927 122.539 192.628C122.582 192.328 122.566 192.024 122.491 191.731C122.416 191.438 122.284 191.163 122.103 190.922L119.733 187.728C119.553 187.487 119.328 187.284 119.069 187.131C118.811 186.978 118.525 186.878 118.228 186.837C118.118 186.818 118.007 186.81 117.896 186.813Z" fill="#231F20"/>
<path d="M110.205 202.072L116.711 208.805C116.711 208.805 125.93 195.03 125.752 193.427C125.53 190.524 125.762 187.603 126.439 184.771C126.447 184.683 126.471 184.598 126.512 184.521C126.553 184.443 126.609 184.375 126.676 184.319C127.008 184.106 127.364 184.557 127.494 184.937C127.79 185.839 127.814 186.837 128.087 187.704C129.556 186.861 130.978 185.839 132.424 184.925C134.794 183.417 134.083 189.212 133.881 190.007C133.36 192.145 132.364 194.65 130.492 195.945C130.492 195.945 119.389 220.716 116.983 220.443C114.578 220.17 105.133 209.458 105.133 209.458L110.205 202.072Z" fill="white"/>
<path d="M117.031 221.048H116.959C114.459 220.763 106.294 211.691 104.695 209.874C104.614 209.768 104.57 209.639 104.57 209.506C104.57 209.373 104.614 209.243 104.695 209.138L109.814 201.74C109.864 201.667 109.929 201.606 110.005 201.561C110.081 201.516 110.165 201.488 110.252 201.478C110.427 201.474 110.597 201.538 110.726 201.657L116.722 207.867C120.965 201.478 125.231 194.496 125.254 193.475C125.038 190.511 125.274 187.532 125.954 184.64C125.974 184.474 126.028 184.314 126.114 184.171C126.2 184.028 126.315 183.904 126.451 183.809C126.571 183.731 126.708 183.683 126.85 183.668C126.992 183.654 127.136 183.673 127.269 183.726C127.479 183.824 127.665 183.966 127.816 184.142C127.967 184.318 128.08 184.524 128.146 184.747C128.305 185.25 128.42 185.767 128.49 186.291C128.49 186.457 128.49 186.623 128.572 186.789C129.26 186.362 129.947 185.899 130.623 185.459C131.298 185.02 131.665 184.759 132.199 184.426C132.437 184.219 132.737 184.096 133.051 184.077C133.366 184.057 133.679 184.143 133.941 184.319C135.469 185.412 134.569 190.102 134.557 190.15C134.105 192.543 132.881 194.721 131.073 196.348C126.795 205.682 119.543 221.048 117.031 221.048ZM105.892 209.435C109.541 213.519 115.549 219.694 117.09 219.861C118.559 219.445 124.828 207.25 130.006 195.719C130.052 195.621 130.121 195.535 130.208 195.47C131.985 194.211 132.898 191.729 133.36 189.865C133.621 188.796 133.775 185.685 133.206 185.281C133.206 185.281 133.004 185.281 132.779 185.424L131.227 186.445C130.314 187.05 129.378 187.632 128.43 188.226C128.35 188.261 128.263 188.279 128.176 188.279C128.088 188.279 128.001 188.261 127.921 188.226C127.838 188.192 127.763 188.14 127.702 188.075C127.641 188.009 127.594 187.931 127.565 187.846C127.437 187.386 127.338 186.918 127.269 186.445C127.211 186.007 127.12 185.574 126.996 185.151C126.386 187.832 126.182 190.59 126.392 193.332C126.57 195.019 119.436 205.825 117.256 209.102C117.203 209.174 117.135 209.235 117.058 209.28C116.98 209.325 116.894 209.353 116.805 209.363C116.718 209.369 116.631 209.356 116.549 209.325C116.468 209.295 116.393 209.247 116.331 209.185L110.335 202.975L105.892 209.435Z" fill="#231F20"/>
<path d="M67.3789 298.579C67.3789 298.579 65.1748 304.873 66.1109 305.407C67.0471 305.942 87.1565 305.407 85.9597 304.22C84.7628 303.032 79.3948 298.935 79.3948 298.935" fill="white"/>
<path d="M70.9815 306.227C69.2532 306.32 67.52 306.216 65.8149 305.918C64.8669 305.348 65.2106 302.819 66.8222 298.377C66.8806 298.23 66.9931 298.112 67.1364 298.045C67.2797 297.979 67.443 297.97 67.5924 298.021C67.6655 298.047 67.7325 298.088 67.7895 298.141C67.8465 298.194 67.8924 298.257 67.9245 298.328C67.9565 298.399 67.974 298.476 67.976 298.554C67.978 298.631 67.9645 298.709 67.9361 298.781C66.9407 301.524 66.2889 304.255 66.4667 304.908C68.2086 305.3 81.8717 304.908 85.0238 304.16C83.2937 302.652 79.0988 299.494 79.0988 299.41C78.9757 299.314 78.8945 299.174 78.8725 299.019C78.8504 298.864 78.889 298.706 78.9803 298.579C79.027 298.517 79.0855 298.464 79.1524 298.425C79.2194 298.385 79.2935 298.359 79.3705 298.348C79.4475 298.337 79.526 298.341 79.6013 298.36C79.6767 298.38 79.7476 298.414 79.8098 298.46C80.0349 298.627 85.2016 302.522 86.4221 303.733C86.5554 303.856 86.637 304.025 86.6502 304.206C86.6635 304.387 86.6073 304.566 86.4932 304.707C85.6637 305.752 76.8591 306.227 70.9815 306.227Z" fill="#231F20"/>
<path d="M81.7648 181.173C80.8287 181.304 79.8688 181.304 78.7668 181.411C77.6647 181.517 76.3968 181.411 76.1835 180.354C75.9702 179.297 76.9182 178.596 76.539 177.801C76.4211 177.591 76.2642 177.405 76.0768 177.254C74.2904 175.58 73.2189 173.278 73.0864 170.831C72.9539 168.383 73.7706 165.979 75.3658 164.121C75.2961 164.148 75.2213 164.161 75.1464 164.156C75.0716 164.152 74.9985 164.132 74.9321 164.097C74.8657 164.062 74.8077 164.013 74.7619 163.954C74.7161 163.895 74.6836 163.826 74.6667 163.753C74.6091 163.448 74.6729 163.132 74.8444 162.874C75.4466 161.915 76.3101 161.148 77.3329 160.665C80.5558 159.008 84.2021 158.363 87.7965 158.813C90.5575 159.11 94.0651 160.63 94.2903 163.86C94.3511 164.439 94.2112 165.022 93.8941 165.511C93.5769 166 93.1018 166.364 92.5483 166.543C92.5483 170.035 91.2211 172.671 89.4318 175.533C88.2426 177.488 86.59 179.12 84.6207 180.283C83.7344 180.76 82.7649 181.062 81.7648 181.173Z" fill="white"/>
<path d="M78.2099 182.028C76.7523 182.028 75.7806 181.47 75.591 180.472C75.5352 179.968 75.6214 179.458 75.8399 179C76.0058 178.572 76.0887 178.299 76.0058 178.109C75.925 177.983 75.825 177.871 75.7095 177.777C73.9071 176.101 72.7775 173.824 72.5331 171.372C72.2887 168.921 72.9463 166.465 74.3823 164.465C74.2453 164.327 74.1471 164.155 74.0979 163.966C74.0458 163.743 74.0389 163.511 74.0776 163.284C74.1162 163.058 74.1997 162.842 74.3231 162.648C74.9814 161.59 75.9267 160.741 77.0486 160.202C80.3789 158.481 84.1469 157.799 87.8676 158.243C91.1856 158.599 94.6458 160.475 94.8828 163.836C94.9344 164.475 94.7966 165.116 94.4868 165.678C94.177 166.24 93.7089 166.698 93.1409 166.994C92.9241 170.193 91.8155 173.266 89.9414 175.865C88.6969 177.904 86.9663 179.602 84.9051 180.805C83.9637 181.343 82.9241 181.686 81.8478 181.814C81.279 181.897 80.6628 181.933 80.1177 181.969C79.703 181.969 79.2764 181.969 78.8261 182.064L78.2099 182.028ZM75.3659 163.563C75.4547 163.564 75.5422 163.585 75.6221 163.624C75.7019 163.663 75.7723 163.719 75.828 163.788C75.9167 163.895 75.9652 164.029 75.9652 164.168C75.9652 164.307 75.9167 164.441 75.828 164.548C74.3296 166.287 73.5617 168.539 73.6854 170.833C73.8091 173.127 74.8149 175.284 76.4916 176.85C76.732 177.053 76.9329 177.299 77.0841 177.575C77.1907 177.869 77.2352 178.183 77.2148 178.496C77.1944 178.808 77.1095 179.113 76.9656 179.392C76.8285 179.664 76.7632 179.966 76.776 180.27C76.8945 180.864 78.0558 180.912 78.7194 180.852C79.1934 180.852 79.6319 180.781 80.0585 180.757C80.4851 180.734 81.1605 180.686 81.6938 180.615C82.6235 180.505 83.522 180.211 84.3363 179.748C86.2232 178.641 87.8069 177.082 88.946 175.212C90.8775 172.112 91.9914 169.702 91.9677 166.543C91.9615 166.404 92.0045 166.267 92.089 166.156C92.1735 166.045 92.2941 165.968 92.4299 165.937C92.8442 165.788 93.1961 165.502 93.4284 165.127C93.6606 164.752 93.7598 164.31 93.7097 163.871C93.4964 160.808 89.8703 159.608 87.7847 159.383C84.2915 158.944 80.7475 159.573 77.6174 161.188C76.6898 161.609 75.9066 162.294 75.3659 163.159C75.2866 163.275 75.2414 163.41 75.2355 163.551L75.3659 163.563Z" fill="#231F20"/>
<path d="M70.3653 200.374C70.3653 200.374 62.9472 215.432 63.5516 220.051C64.1559 224.67 79.395 222.853 79.395 222.853L78.6011 199.959L70.3653 200.374Z" fill="white"/>
<path d="M73.1501 223.815C68.6352 223.815 63.362 223.15 62.9591 220.122C62.3429 215.372 69.524 200.719 69.8321 200.101C69.878 200.004 69.95 199.922 70.0399 199.863C70.1299 199.804 70.2343 199.772 70.3416 199.769L78.5537 199.365C78.6316 199.359 78.7099 199.37 78.7833 199.397C78.8568 199.423 78.9239 199.465 78.9803 199.519C79.0388 199.572 79.0858 199.636 79.1184 199.707C79.1511 199.779 79.1686 199.856 79.1699 199.935L79.9757 222.83C79.9827 222.98 79.9328 223.127 79.8361 223.241C79.7394 223.356 79.603 223.429 79.4543 223.447C77.3609 223.682 75.2565 223.805 73.1501 223.815ZM70.7801 200.932C69.7254 203.106 63.6701 215.93 64.1678 219.932C64.547 222.782 73.1264 222.901 78.8144 222.307L78.0441 200.552L70.7801 200.932Z" fill="#231F20"/>
<path d="M99.8364 295.634L100.227 305.407C100.227 305.407 118.536 305.55 117.469 304.22C116.403 302.89 108.12 296.988 108.12 296.988L106.78 289.756L99.8364 295.634Z" fill="white"/>
<path d="M102.775 306.061H100.227C100.074 306.061 99.9269 306.001 99.8165 305.895C99.706 305.789 99.6409 305.644 99.6348 305.491L99.2437 295.718C99.2376 295.628 99.2527 295.538 99.2877 295.456C99.3227 295.373 99.3767 295.3 99.4452 295.243L106.401 289.305C106.479 289.236 106.574 289.189 106.677 289.17C106.779 289.151 106.884 289.161 106.982 289.198C107.079 289.234 107.165 289.294 107.231 289.373C107.298 289.452 107.342 289.548 107.361 289.649L108.653 296.644C110.11 297.677 116.948 302.581 117.931 303.852C118.023 303.961 118.081 304.093 118.1 304.234C118.119 304.375 118.097 304.518 118.038 304.647C117.86 304.98 117.315 306.061 102.775 306.061ZM100.796 304.873C107.491 304.873 114.613 304.671 116.592 304.208C114.945 302.652 109.826 298.936 107.835 297.463C107.772 297.419 107.718 297.363 107.678 297.297C107.637 297.232 107.61 297.159 107.598 297.083L106.413 290.861L100.488 295.896L100.796 304.873Z" fill="#231F20"/>
<path d="M103.095 226.915L110.205 298.318L98.9475 297.582L88.1047 248.147L80.7458 298.936L67.1183 298.271C67.1183 298.271 68.3033 265.662 69.5713 254.856C70.8392 244.05 70.8629 229.575 70.8629 229.575L103.095 226.915Z" fill="#231F20"/>
<path d="M94.3378 171.269C94.3378 171.269 97.4662 174.832 97.0515 175.698C96.6367 176.565 94.7763 176.304 94.7763 176.304" fill="white"/>
<path d="M95.428 176.945C95.1819 176.945 94.9363 176.925 94.6933 176.886C94.5362 176.862 94.3948 176.777 94.3004 176.649C94.206 176.521 94.1661 176.361 94.1897 176.203C94.2133 176.046 94.2983 175.904 94.4261 175.81C94.5539 175.715 94.7139 175.675 94.8711 175.699C95.4636 175.794 96.376 175.699 96.5182 175.437C95.863 174.037 94.9777 172.756 93.8994 171.649C93.8036 171.53 93.7574 171.379 93.7705 171.226C93.7835 171.074 93.8548 170.932 93.9694 170.831C94.084 170.73 94.2331 170.677 94.3857 170.684C94.5382 170.69 94.6824 170.755 94.7881 170.866C96.3286 172.611 98.0706 174.915 97.5847 175.948C97.3509 176.296 97.0261 176.573 96.6457 176.749C96.2654 176.925 95.8442 176.993 95.428 176.945Z" fill="#231F20"/>
<path d="M93.0698 166.175C94.8947 167.291 94.8117 170.201 95.0606 172.041C95.4082 174.646 95.6926 177.254 95.9138 179.867C96.056 181.529 91.8137 182.159 90.996 181.779L92.5721 188.179L83.0921 186.006L82.3218 178.466C83.2876 178.235 84.1717 177.743 84.8779 177.044C85.5841 176.344 86.0854 175.464 86.3271 174.499C87.5121 170.937 86.7182 165.759 86.7182 165.759C86.7182 165.759 91.2449 165.094 93.0698 166.175Z" fill="white"/>
<path d="M92.5721 188.772H92.4299L82.9499 186.599C82.8284 186.57 82.7188 186.505 82.6361 186.411C82.5533 186.318 82.5015 186.201 82.4877 186.077L81.7649 178.524C81.7538 178.371 81.7998 178.22 81.894 178.099C81.9882 177.979 82.1238 177.897 82.2744 177.871C83.1407 177.671 83.9334 177.231 84.5621 176.601C85.1907 175.971 85.6298 175.177 85.8294 174.309C87.0144 170.901 86.2205 165.901 86.2086 165.854C86.1955 165.777 86.1983 165.699 86.2166 165.623C86.2349 165.548 86.2685 165.477 86.3153 165.414C86.3615 165.351 86.4199 165.297 86.487 165.256C86.5541 165.216 86.6287 165.189 86.7063 165.177C87.1922 165.106 91.4463 164.512 93.3779 165.676C95.3094 166.839 95.3805 169.096 95.5583 170.972C95.5583 171.328 95.6175 171.661 95.6649 171.969C96.0086 174.558 96.293 177.206 96.5181 179.819C96.5352 180.144 96.461 180.468 96.3039 180.753C96.1469 181.039 95.9132 181.274 95.6294 181.434C94.4673 182.113 93.1471 182.473 91.8018 182.479L93.1764 188.036C93.1981 188.124 93.1994 188.216 93.1803 188.304C93.1612 188.393 93.1221 188.476 93.0661 188.547C93.01 188.618 92.9385 188.675 92.857 188.714C92.7755 188.753 92.6861 188.773 92.5958 188.772H92.5721ZM83.6964 185.53L91.7663 187.383L90.4154 181.92C90.3909 181.811 90.397 181.698 90.433 181.592C90.469 181.486 90.5335 181.393 90.6194 181.321C90.7053 181.25 90.8091 181.204 90.9195 181.188C91.0299 181.172 91.1425 181.187 91.2449 181.232C92.5366 181.371 93.8392 181.097 94.9658 180.448C95.2265 180.258 95.345 180.08 95.3331 179.914C95.108 177.325 94.8117 174.701 94.4799 172.124C94.4799 171.803 94.397 171.459 94.3614 171.091C94.2074 169.476 94.0178 167.457 92.7617 166.685C91.5056 165.913 88.9223 166.115 87.441 166.281C87.8275 169.089 87.6584 171.946 86.9433 174.689C86.6762 175.657 86.1803 176.547 85.4976 177.283C84.8149 178.018 83.9654 178.579 83.021 178.916L83.6964 185.53Z" fill="#231F20"/>
<path d="M112.054 202.654C112.054 202.654 101.543 191.527 97.3832 187.312C93.5201 183.429 82.2863 179.902 77.179 185.459C77.179 185.459 68.7655 197.215 67.1539 204.044L72.0716 207.048C70.9921 215.145 70.3552 223.296 70.1638 231.463C79.3949 238.849 103.095 226.914 103.095 226.914L100.95 210.171L104.789 214.007L112.054 202.654Z" fill="#F14736"/>
<path d="M95.5821 177.942C95.3538 178.147 95.0843 178.299 94.7919 178.39C94.4995 178.48 94.1911 178.507 93.8876 178.468C93.5841 178.428 93.2926 178.324 93.0329 178.161C92.7732 177.999 92.5514 177.783 92.3826 177.527" fill="white"/>
<path d="M94.0534 179.107H93.7335C93.3626 179.05 93.008 178.915 92.6934 178.71C92.3787 178.505 92.1112 178.236 91.9086 177.919C91.8186 177.791 91.7818 177.632 91.8062 177.477C91.8305 177.322 91.9139 177.183 92.0389 177.088C92.1694 177.002 92.3277 176.969 92.4817 176.995C92.6357 177.022 92.7739 177.106 92.8684 177.231C92.9784 177.416 93.1259 177.576 93.3014 177.701C93.4769 177.826 93.6766 177.912 93.8875 177.955C94.3631 177.977 94.8305 177.825 95.2029 177.527C95.3272 177.431 95.4836 177.386 95.64 177.402C95.7964 177.417 95.941 177.492 96.0442 177.611C96.1424 177.732 96.1888 177.888 96.1733 178.043C96.1578 178.199 96.0816 178.342 95.9613 178.442C95.4117 178.86 94.7436 179.093 94.0534 179.107Z" fill="#231F20"/>
<path d="M89.6097 173.632C89.438 172.996 89.0982 172.417 88.6262 171.958C88.3191 171.551 87.9467 171.198 87.5241 170.913C87.3137 170.768 87.0739 170.671 86.8219 170.63C86.5699 170.589 86.312 170.605 86.0666 170.675C85.8585 170.762 85.6709 170.891 85.5158 171.055C85.3607 171.218 85.2415 171.413 85.166 171.625C85.0185 172.056 84.9699 172.515 85.0238 172.967C85.1162 173.95 85.4664 174.89 86.0387 175.693C86.6111 176.496 87.3852 177.133 88.2825 177.539L88.1166 177.408" fill="white"/>
<path d="M88.2825 178.133C88.2045 178.151 88.1235 178.151 88.0455 178.133C87.0596 177.677 86.2116 176.968 85.5873 176.077C84.963 175.187 84.5846 174.147 84.4905 173.063C84.435 172.522 84.4956 171.975 84.6682 171.459C84.7735 171.166 84.94 170.899 85.1566 170.676C85.3733 170.453 85.635 170.279 85.9243 170.165C86.2533 170.067 86.5995 170.042 86.9391 170.091C87.2788 170.14 87.6037 170.263 87.8914 170.45C88.3437 170.784 88.7432 171.184 89.0764 171.638C89.6251 172.182 90.011 172.868 90.1903 173.621C90.2021 173.698 90.1986 173.777 90.1799 173.852C90.1613 173.928 90.1279 174 90.0816 174.063C90.0354 174.125 89.9772 174.179 89.9105 174.219C89.8437 174.259 89.7697 174.286 89.6926 174.298C89.538 174.315 89.3824 174.274 89.2571 174.181C89.1318 174.089 89.0461 173.952 89.0172 173.799C88.8692 173.271 88.5779 172.794 88.1758 172.421C87.9048 172.062 87.5812 171.746 87.216 171.483C87.0793 171.389 86.9242 171.324 86.7609 171.293C86.5976 171.262 86.4296 171.267 86.268 171.305C86.1397 171.362 86.0248 171.445 85.9309 171.55C85.8369 171.654 85.766 171.777 85.7229 171.911C85.6095 172.255 85.5731 172.62 85.6162 172.979C85.6964 173.786 85.9685 174.562 86.4097 175.242C86.851 175.922 87.4485 176.486 88.1521 176.886C88.2768 176.896 88.3961 176.941 88.4958 177.017L88.6617 177.159C88.7606 177.234 88.8329 177.339 88.868 177.459C88.9031 177.578 88.8992 177.705 88.8568 177.822C88.8144 177.939 88.7357 178.039 88.6324 178.108C88.529 178.177 88.4064 178.21 88.2825 178.204V178.133Z" fill="#231F20"/>
<path d="M101.294 211.584C101.215 211.583 101.138 211.565 101.067 211.533C100.995 211.5 100.931 211.453 100.879 211.394C98.1997 208.631 95.6757 205.722 93.3189 202.678C93.2246 202.552 93.1841 202.394 93.2063 202.238C93.2285 202.082 93.3116 201.941 93.4374 201.847C93.5641 201.755 93.7213 201.716 93.876 201.739C94.0306 201.761 94.1707 201.842 94.2669 201.965C96.5948 204.968 99.0829 207.842 101.72 210.575C101.776 210.629 101.82 210.694 101.849 210.765C101.879 210.836 101.895 210.913 101.895 210.99C101.895 211.068 101.879 211.144 101.849 211.216C101.82 211.287 101.776 211.352 101.72 211.406C101.666 211.465 101.6 211.511 101.527 211.541C101.453 211.572 101.374 211.587 101.294 211.584Z" fill="#231F20"/>
<path d="M92.9793 169.705C92.9936 169.187 92.8408 168.763 92.638 168.757C92.4352 168.751 92.2592 169.167 92.2448 169.685C92.2305 170.202 92.3833 170.627 92.5861 170.633C92.7889 170.638 92.9649 170.223 92.9793 169.705Z" fill="#231F20"/>
<path d="M71.965 205.267H71.8702C71.7157 205.238 71.5786 205.15 71.4879 205.021C71.3972 204.892 71.3601 204.734 71.3843 204.578C71.4673 204.067 73.4344 191.979 75.6622 187.953C75.6992 187.884 75.7497 187.824 75.8107 187.775C75.8717 187.726 75.9419 187.69 76.0172 187.669C76.0924 187.648 76.1711 187.642 76.2486 187.652C76.326 187.662 76.4006 187.688 76.468 187.728C76.5363 187.764 76.5967 187.813 76.6454 187.873C76.6941 187.933 76.73 188.003 76.7511 188.077C76.7722 188.151 76.7779 188.229 76.7679 188.306C76.758 188.383 76.7325 188.457 76.6931 188.523C74.572 192.406 72.5693 204.685 72.5575 204.804C72.5274 204.938 72.4519 205.057 72.3438 205.141C72.2358 205.226 72.1019 205.27 71.965 205.267Z" fill="#231F20"/>
<path d="M382.992 241.936C383.108 240.266 382.755 238.595 381.973 237.115C381.321 236.035 380.338 235.18 379.804 234.052C378.892 232.092 379.532 229.777 379.319 227.627C379.124 225.835 378.331 224.161 377.067 222.877C375.941 221.69 374.496 220.954 373.417 219.778C371.652 217.819 371.154 215.087 370.147 212.653C368.732 209.209 366.269 206.3 363.108 204.341C365.027 208.212 360.655 213.128 362.634 216.976C363.262 218.163 364.47 219.077 364.933 220.36C366.035 223.483 362.337 226.855 363.522 229.943C364.115 231.487 365.762 232.318 366.532 233.838C367.563 235.809 366.746 238.208 366.829 240.428C366.947 243.504 368.819 246.247 371.035 248.373C372.41 249.703 373.95 250.843 375.432 252.042C377.221 253.479 377.979 254.975 379.544 252.683C381.713 249.514 382.912 245.779 382.992 241.936Z" fill="#231F20"/>
<path d="M384.983 243.682C384.414 241.307 383.999 238.73 384.983 236.486C386.073 233.956 388.799 232.163 389.118 229.42C389.332 227.615 388.419 225.798 388.775 224.017C389.13 222.236 390.576 221.037 391.773 219.73C394.517 216.702 396.151 212.829 396.406 208.746C398.241 210.94 399.728 213.403 400.814 216.049C401.34 217.381 401.556 218.816 401.445 220.244C401.334 221.672 400.9 223.056 400.175 224.29C399.714 224.847 399.335 225.467 399.049 226.131C398.516 227.877 400.009 229.515 400.779 231.166C401.235 232.112 401.425 233.164 401.329 234.21C401.233 235.256 400.854 236.257 400.234 237.103C398.67 239.063 395.648 239.823 394.878 242.209C394.679 243.098 394.588 244.007 394.605 244.917C394.44 246.493 393.81 247.983 392.794 249.198C391.779 250.412 390.425 251.295 388.905 251.733C387.045 252.184 387.08 251.448 386.748 249.881C386.31 247.874 385.492 245.784 384.983 243.682Z" fill="#231F20"/>
<path d="M379.081 226.594C377.766 222.022 377.245 217.26 375.846 212.712C374.665 209.16 373.227 205.7 371.545 202.357L377.197 204.732C379.01 205.492 380.966 206.395 381.819 208.176C383.312 211.263 380.634 215.218 382.198 218.269C382.873 219.266 383.622 220.211 384.438 221.096C386.097 223.471 385.848 226.653 384.935 229.408C384.544 230.595 382.826 236.64 381.297 234.953C380.681 234.288 380.634 231.771 380.373 230.857C379.982 229.42 379.496 228.019 379.081 226.594Z" fill="#231F20"/>
<path d="M382.068 287.262C380.942 279.805 377.411 253.502 377.328 253.229L378.513 253.075C378.513 253.336 382.068 279.639 383.253 287.084L382.068 287.262Z" fill="#231F20"/>
<path d="M383.608 294.292H382.423C382.423 285.422 386.191 251.543 388.348 249.168L389.225 249.975C387.578 251.769 383.679 284.484 383.608 294.292Z" fill="#231F20"/>
<path d="M385.516 292.606H384.331C385.172 273.511 381.132 233.398 381.096 232.994L382.281 232.876C382.317 233.232 386.369 273.428 385.516 292.606Z" fill="#231F20"/>
<path d="M372.493 265.864H393.527L392.057 289.804C391.797 293.948 388.739 297.166 385.042 297.166H380.977C377.28 297.166 374.223 293.948 373.962 289.804L372.493 265.864Z" fill="white"/>
<path d="M385.042 297.748H380.977C376.972 297.748 373.63 294.269 373.358 289.816L371.877 265.876C371.87 265.71 371.93 265.547 372.042 265.425C372.1 265.362 372.169 265.312 372.247 265.277C372.324 265.242 372.408 265.224 372.493 265.223H393.527C393.611 265.224 393.695 265.242 393.773 265.277C393.85 265.312 393.92 265.362 393.977 265.425C394.09 265.547 394.149 265.71 394.143 265.876L392.661 289.816C392.389 294.293 389.047 297.748 385.042 297.748ZM373.192 266.458L374.626 289.745C374.851 293.545 377.671 296.525 381.025 296.525H385.089C388.443 296.525 391.263 293.545 391.488 289.745L392.922 266.458H373.192Z" fill="#231F20"/>
<path d="M266.613 210.991H207.079C203.617 210.991 200.81 213.803 200.81 217.272V221.88C200.81 225.349 203.617 228.162 207.079 228.162H266.613C270.075 228.162 272.882 225.349 272.882 221.88V217.272C272.882 213.803 270.075 210.991 266.613 210.991Z" fill="#F14736"/>
</svg>
