<svg width="120" height="120" viewBox="0 0 120 120" fill="none" xmlns="http://www.w3.org/2000/svg">
<path fill-rule="evenodd" clip-rule="evenodd" d="M12 0H108C114.628 0 120 5.37216 120 12V108C120 114.628 114.628 120 108 120H12C5.37216 120 0 114.628 0 108V12C0 5.37216 5.37216 0 12 0Z" fill="#010101"/>
<path fill-rule="evenodd" clip-rule="evenodd" d="M75.3506 110.399C79.002 110.399 81.9621 107.463 81.9621 103.842C81.9621 100.22 79.002 97.2834 75.3506 97.2834H74.3546C78.006 97.2834 80.9661 100.22 80.9661 103.842C80.9661 107.463 78.006 110.399 74.3546 110.399H75.3506Z" fill="#EE1D51"/>
<path fill-rule="evenodd" clip-rule="evenodd" d="M74.2643 97.2834H73.2683C69.6169 97.2834 66.6563 100.22 66.6563 103.842C66.6563 107.463 69.6169 110.399 73.2683 110.399H74.2643C70.6124 110.399 67.6523 107.463 67.6523 103.842C67.6523 100.22 70.6124 97.2834 74.2643 97.2834Z" fill="#66C8CF"/>
<path d="M74.3092 107.031C76.0851 107.031 77.5247 105.603 77.5247 103.842C77.5247 102.081 76.0851 100.653 74.3092 100.653C72.5333 100.653 71.0937 102.081 71.0937 103.842C71.0937 105.603 72.5333 107.031 74.3092 107.031Z" fill="#010101"/>
<path fill-rule="evenodd" clip-rule="evenodd" d="M24 94.3198V97.6438H27.8937V110.31H31.7889V97.7336H34.9584L36.0451 94.3198H24ZM55.8792 94.3198V97.6438H59.7729V110.31H63.6681V97.7336H66.8376L67.9243 94.3198H55.8792ZM36.7704 96.2062C36.7704 95.1646 37.6205 94.3198 38.6707 94.3198C39.7219 94.3198 40.5729 95.1646 40.5729 96.2062C40.5729 97.2478 39.7224 98.0926 38.6707 98.0926C37.6205 98.0921 36.7704 97.2478 36.7704 96.2062ZM36.7704 99.4405H40.5729V110.31H36.7704V99.4405ZM42.2035 94.3198V110.31H46.0075V106.178L47.1849 105.099L50.8977 110.4H54.9729L49.6291 102.674L54.4291 98.0024H49.8105L46.0075 101.775V94.3198H42.2035ZM83.2291 94.3198V110.31H87.0336V106.178L88.2105 105.099L91.9243 110.4H96L90.6561 102.674L95.4561 98.0024H90.8376L87.0336 101.775V94.3198H83.2291Z" fill="white"/>
<path fill-rule="evenodd" clip-rule="evenodd" d="M77.3601 38.9689C82.6132 42.722 89.049 44.9305 95.9994 44.9305V31.562C94.6839 31.5625 93.372 31.4253 92.085 31.1526V41.6756C85.1351 41.6756 78.7002 39.4671 73.4457 35.714V62.9948C73.4457 76.6422 62.3769 87.7047 48.7233 87.7047C43.629 87.7047 38.8938 86.1654 34.9602 83.5254C39.4497 88.1132 45.7103 90.9596 52.6367 90.9596C66.2913 90.9596 77.3606 79.897 77.3606 66.2492V38.9689H77.3601ZM82.1889 25.4818C79.5042 22.5505 77.7417 18.7618 77.3601 14.5734V12.854H73.6506C74.5842 18.1772 77.769 22.7252 82.1889 25.4818ZM43.5959 73.0532C42.0961 71.0876 41.2854 68.6828 41.289 66.2103C41.289 59.9684 46.3521 54.9078 52.5983 54.9078C53.7622 54.907 54.9193 55.0855 56.0289 55.4372V41.7702C54.7325 41.5926 53.4241 41.5173 52.1159 41.545V52.1828C51.0059 51.8311 49.8483 51.6526 48.6839 51.6534C42.4377 51.6534 37.3751 56.714 37.3751 62.9564C37.3751 67.37 39.9057 71.1918 43.5959 73.0532Z" fill="#EE1D52"/>
<path fill-rule="evenodd" clip-rule="evenodd" d="M73.4459 35.714C78.7004 39.4671 85.1353 41.6756 92.0852 41.6756V31.1526C88.2059 30.327 84.7715 28.3004 82.1891 25.4819C77.7692 22.7252 74.5844 18.1772 73.6508 12.854H63.9073V66.2488C63.8852 72.4734 58.8308 77.5134 52.598 77.5134C48.9251 77.5134 45.662 75.7638 43.5956 73.0532C39.9054 71.1918 37.3748 67.37 37.3748 62.9564C37.3748 56.714 42.4374 51.6534 48.6836 51.6534C49.8803 51.6534 51.0337 51.8396 52.1156 52.1828V41.5451C38.702 41.822 27.914 52.7766 27.914 66.2492C27.914 72.9745 30.6006 79.0715 34.9604 83.5259C38.894 86.1659 43.6292 87.7052 48.7235 87.7052C62.3771 87.7052 73.4459 76.6422 73.4459 62.9953V35.714Z" fill="white"/>
<path fill-rule="evenodd" clip-rule="evenodd" d="M92.0851 31.1526V28.3071C88.5866 28.3124 85.1572 27.3332 82.1889 25.4814C84.8163 28.3565 88.2761 30.3392 92.0851 31.1526ZM73.6507 12.854C73.5615 12.3453 73.4931 11.8332 73.4457 11.319V9.59961H59.9923V62.9948C59.9707 69.2189 54.9168 74.2589 48.6835 74.2589C46.8533 74.2589 45.1257 73.825 43.5955 73.0532C45.6619 75.7637 48.9249 77.5133 52.5979 77.5133C58.8302 77.5133 63.8851 72.4733 63.9072 66.2487V12.854H73.6507ZM52.116 41.545V38.5158C50.9918 38.3621 49.8584 38.2852 48.7238 38.2858C35.0688 38.2858 24 49.3489 24 62.9948C24 71.5503 28.3502 79.0901 34.9608 83.5253C30.6009 79.0709 27.9144 72.974 27.9144 66.2487C27.9144 52.7765 38.7019 41.822 52.116 41.545Z" fill="#69C9D0"/>
<path fill-rule="evenodd" clip-rule="evenodd" d="M74.3536 110.399C78.005 110.399 80.9656 107.463 80.9656 103.842C80.9656 100.22 78.005 97.2834 74.3536 97.2834H74.2634C70.612 97.2834 67.6519 100.22 67.6519 103.842C67.6519 107.463 70.612 110.399 74.2634 110.399H74.3536ZM71.0935 103.842C71.0935 102.08 72.5335 100.653 74.3095 100.653C76.084 100.653 77.524 102.08 77.524 103.842C77.524 105.603 76.084 107.031 74.3095 107.031C72.5335 107.031 71.0935 105.603 71.0935 103.842Z" fill="white"/>
</svg>
