<svg width="120" height="120" viewBox="0 0 120 120" fill="none" xmlns="http://www.w3.org/2000/svg">
<g clip-path="url(#clip0)">
<path d="M60 120C93.1371 120 120 93.1371 120 60C120 26.8629 93.1371 0 60 0C26.8629 0 3.05176e-05 26.8629 3.05176e-05 60C3.05176e-05 93.1371 26.8629 120 60 120Z" fill="#3C5A9A"/>
<path d="M79.5094 18.4167H66.2179C58.3303 18.4167 49.5571 21.7342 49.5571 33.1676C49.5956 37.1514 49.5571 40.9668 49.5571 45.2607H40.4322V59.7811H49.8394V101.583H67.1257V59.5052H78.5353L79.5676 45.2199H66.8279C66.8279 45.2199 66.8564 38.8652 66.8279 37.0198C66.8279 32.5016 71.5293 32.7603 71.8121 32.7603C74.0493 32.7603 78.3992 32.7668 79.5159 32.7603V18.4167H79.5094Z" fill="white"/>
</g>
<defs>
<clipPath id="clip0">
<rect width="120" height="120" fill="white"/>
</clipPath>
</defs>
</svg>
