<svg width="230" height="174" viewBox="0 0 230 174" fill="none" xmlns="http://www.w3.org/2000/svg">
<path d="M48.1852 144.979C48.109 144.979 48.036 144.949 47.9822 144.895C47.9283 144.842 47.8981 144.769 47.8981 144.692V55.844C47.8981 55.7678 47.9283 55.6948 47.9822 55.641C48.036 55.5871 48.109 55.5569 48.1852 55.5569C48.2613 55.5569 48.3343 55.5871 48.3882 55.641C48.442 55.6948 48.4723 55.7678 48.4723 55.844V144.692C48.4723 144.769 48.442 144.842 48.3882 144.895C48.3343 144.949 48.2613 144.979 48.1852 144.979Z" fill="#D1D3D4"/>
<path d="M82.6818 144.979C82.6057 144.979 82.5326 144.949 82.4788 144.895C82.425 144.842 82.3947 144.769 82.3947 144.692V55.844C82.3947 55.7678 82.425 55.6948 82.4788 55.641C82.5326 55.5871 82.6057 55.5569 82.6818 55.5569C82.7579 55.5569 82.831 55.5871 82.8848 55.641C82.9386 55.6948 82.9689 55.7678 82.9689 55.844V144.692C82.9689 144.769 82.9386 144.842 82.8848 144.895C82.831 144.949 82.7579 144.979 82.6818 144.979Z" fill="#D1D3D4"/>
<path d="M117.132 144.979C117.056 144.979 116.983 144.949 116.929 144.895C116.876 144.842 116.845 144.769 116.845 144.692V55.844C116.845 55.7678 116.876 55.6948 116.929 55.641C116.983 55.5871 117.056 55.5569 117.132 55.5569C117.209 55.5569 117.282 55.5871 117.335 55.641C117.389 55.6948 117.42 55.7678 117.42 55.844V144.692C117.42 144.769 117.389 144.842 117.335 144.895C117.282 144.949 117.209 144.979 117.132 144.979Z" fill="#D1D3D4"/>
<path d="M151.641 144.979C151.564 144.979 151.491 144.949 151.438 144.895C151.384 144.842 151.354 144.769 151.354 144.692V55.844C151.354 55.7678 151.384 55.6948 151.438 55.641C151.491 55.5871 151.564 55.5569 151.641 55.5569C151.717 55.5569 151.79 55.5871 151.844 55.641C151.897 55.6948 151.928 55.7678 151.928 55.844V144.692C151.928 144.769 151.897 144.842 151.844 144.895C151.79 144.949 151.717 144.979 151.641 144.979Z" fill="#D1D3D4"/>
<path d="M186.126 144.979C186.05 144.979 185.977 144.949 185.923 144.895C185.869 144.842 185.839 144.769 185.839 144.692V55.844C185.839 55.7678 185.869 55.6948 185.923 55.641C185.977 55.5871 186.05 55.5569 186.126 55.5569C186.202 55.5569 186.275 55.5871 186.329 55.641C186.383 55.6948 186.413 55.7678 186.413 55.844V144.692C186.413 144.769 186.383 144.842 186.329 144.895C186.275 144.949 186.202 144.979 186.126 144.979Z" fill="#D1D3D4"/>
<path d="M186.126 56.1197H48.1852C48.109 56.1197 48.036 56.0895 47.9822 56.0356C47.9283 55.9818 47.8981 55.9088 47.8981 55.8326C47.8981 55.7565 47.9283 55.6835 47.9822 55.6296C48.036 55.5758 48.109 55.5455 48.1852 55.5455H186.126C186.202 55.5455 186.275 55.5758 186.329 55.6296C186.383 55.6835 186.413 55.7565 186.413 55.8326C186.413 55.9088 186.383 55.9818 186.329 56.0356C186.275 56.0895 186.202 56.1197 186.126 56.1197Z" fill="#D1D3D4"/>
<path d="M186.126 85.5061H48.1852C48.109 85.5061 48.036 85.4758 47.9822 85.422C47.9283 85.3681 47.8981 85.2951 47.8981 85.219C47.8981 85.1428 47.9283 85.0698 47.9822 85.016C48.036 84.9621 48.109 84.9319 48.1852 84.9319H186.126C186.202 84.9319 186.275 84.9621 186.329 85.016C186.383 85.0698 186.413 85.1428 186.413 85.219C186.413 85.2951 186.383 85.3681 186.329 85.422C186.275 85.4758 186.202 85.5061 186.126 85.5061Z" fill="#D1D3D4"/>
<path d="M186.126 114.881H48.1852C48.109 114.881 48.036 114.851 47.9822 114.797C47.9283 114.743 47.8981 114.67 47.8981 114.594C47.8981 114.518 47.9283 114.445 47.9822 114.391C48.036 114.337 48.109 114.307 48.1852 114.307H186.126C186.202 114.307 186.275 114.337 186.329 114.391C186.383 114.445 186.413 114.518 186.413 114.594C186.413 114.67 186.383 114.743 186.329 114.797C186.275 114.851 186.202 114.881 186.126 114.881Z" fill="#D1D3D4"/>
<path d="M193.998 145.232H35.6737C35.5976 145.232 35.5246 145.202 35.4707 145.148C35.4169 145.094 35.3867 145.021 35.3867 144.945C35.3881 144.869 35.4188 144.797 35.4724 144.744C35.5259 144.69 35.5981 144.659 35.6737 144.658H193.998C194.073 144.659 194.146 144.69 194.199 144.744C194.253 144.797 194.283 144.869 194.285 144.945C194.285 145.021 194.255 145.094 194.201 145.148C194.147 145.202 194.074 145.232 193.998 145.232Z" fill="#D1D3D4"/>
<path d="M60.6275 142.155V148.436C60.6275 150.819 67.4258 152.748 75.8145 152.748C84.2033 152.748 91.0073 150.819 91.0073 148.436V142.155H60.6275Z" fill="white"/>
<path d="M75.7917 153.035C68.1838 153.035 60.3176 151.313 60.3176 148.442V142.155C60.3176 142.078 60.3478 142.005 60.4017 141.952C60.4555 141.898 60.5285 141.867 60.6047 141.867H91.0074C91.0836 141.867 91.1566 141.898 91.2104 141.952C91.2643 142.005 91.2945 142.078 91.2945 142.155V148.436C91.2945 151.313 83.4225 153.035 75.7917 153.035ZM60.8917 142.442V148.436C60.8917 150.383 66.8804 152.455 75.7917 152.455C84.7029 152.455 90.7203 150.377 90.7203 148.436V142.442H60.8917Z" fill="#231F20"/>
<path d="M75.8145 146.461C84.2021 146.461 91.0016 144.533 91.0016 142.155C91.0016 139.776 84.2021 137.848 75.8145 137.848C67.427 137.848 60.6275 139.776 60.6275 142.155C60.6275 144.533 67.427 146.461 75.8145 146.461Z" fill="#231F20"/>
<path d="M75.7918 146.714C67.1332 146.714 60.3522 144.71 60.3522 142.155C60.3522 139.599 67.1332 137.561 75.7918 137.561C84.4505 137.561 91.2372 139.565 91.2372 142.155C91.2372 144.744 84.4734 146.714 75.7918 146.714ZM75.7918 138.101C66.8576 138.101 60.8632 140.202 60.8632 142.16C60.8632 144.118 66.8634 146.214 75.7918 146.214C84.7203 146.214 90.7205 144.118 90.7205 142.16C90.7205 140.202 84.749 138.095 75.7918 138.095V138.101Z" fill="#231F20"/>
<path d="M57.5212 132.549V138.836C57.5212 141.213 64.3195 143.142 72.7083 143.142C81.097 143.142 87.901 141.213 87.901 138.836V132.549H57.5212Z" fill="white"/>
<path d="M72.7084 143.429C65.1006 143.429 57.2343 141.707 57.2343 138.836V132.549C57.2343 132.472 57.2646 132.399 57.3184 132.346C57.3722 132.292 57.4453 132.261 57.5214 132.261H87.9012C87.9773 132.261 88.0504 132.292 88.1042 132.346C88.158 132.399 88.1883 132.472 88.1883 132.549V138.836C88.1883 141.712 80.3163 143.429 72.7084 143.429ZM57.8085 132.836V138.836C57.8085 140.777 63.7972 142.855 72.7084 142.855C81.6197 142.855 87.6371 140.777 87.6371 138.836V132.836H57.8085Z" fill="#231F20"/>
<path d="M72.7083 136.855C81.0958 136.855 87.8953 134.927 87.8953 132.549C87.8953 130.17 81.0958 128.242 72.7083 128.242C64.3207 128.242 57.5212 130.17 57.5212 132.549C57.5212 134.927 64.3207 136.855 72.7083 136.855Z" fill="white"/>
<path d="M72.7084 137.142C65.1006 137.142 57.2343 135.419 57.2343 132.549C57.2343 129.678 65.1006 127.955 72.7084 127.955C80.3163 127.955 88.2113 129.678 88.2113 132.549C88.2113 135.419 80.3163 137.142 72.7084 137.142ZM72.7084 128.529C63.7972 128.529 57.8085 130.608 57.8085 132.549C57.8085 134.489 63.7972 136.568 72.7084 136.568C81.6197 136.568 87.6371 134.489 87.6371 132.549C87.6371 130.608 81.6254 128.529 72.7084 128.529Z" fill="#231F20"/>
<path d="M72.7083 135.448C66.2373 135.448 59.6802 134.455 59.6802 132.577C59.6802 130.7 66.2373 129.678 72.7083 129.678C79.1793 129.678 85.7364 130.671 85.7364 132.577C85.7364 134.483 79.185 135.448 72.7083 135.448ZM72.7083 130.223C64.9913 130.223 60.2544 131.578 60.2544 132.549C60.2544 133.519 64.9913 134.845 72.7083 134.845C80.4253 134.845 85.1622 133.49 85.1622 132.549C85.1622 131.607 80.4253 130.223 72.7083 130.223Z" fill="#D1D3D4"/>
<path d="M96.2956 143.286V149.567C96.2956 151.95 103.1 153.879 111.488 153.879C119.877 153.879 126.675 151.95 126.675 149.567V143.286H96.2956Z" fill="white"/>
<path d="M111.488 154.166C103.88 154.166 95.9855 152.444 95.9855 149.573V143.286C95.9855 143.21 96.0157 143.137 96.0696 143.083C96.1234 143.029 96.1964 142.999 96.2726 142.999H126.652C126.729 142.999 126.802 143.029 126.855 143.083C126.909 143.137 126.939 143.21 126.939 143.286V149.567C126.962 152.444 119.096 154.166 111.488 154.166ZM96.5597 143.573V149.567C96.5597 151.508 102.548 153.587 111.488 153.587C120.428 153.587 126.417 151.502 126.417 149.567V143.573H96.5597Z" fill="#231F20"/>
<path d="M111.488 147.592C119.876 147.592 126.675 145.664 126.675 143.286C126.675 140.907 119.876 138.979 111.488 138.979C103.101 138.979 96.3013 140.907 96.3013 143.286C96.3013 145.664 103.101 147.592 111.488 147.592Z" fill="#231F20"/>
<path d="M111.488 147.845C102.83 147.845 96.0429 145.841 96.0429 143.286C96.0429 140.731 102.83 138.721 111.488 138.721C120.147 138.721 126.928 140.725 126.928 143.286C126.928 145.847 120.147 147.845 111.488 147.845ZM111.488 139.232C102.554 139.232 96.5597 141.328 96.5597 143.291C96.5597 145.255 102.56 147.345 111.488 147.345C120.417 147.345 126.417 145.249 126.417 143.291C126.417 141.333 120.423 139.226 111.488 139.226V139.232Z" fill="#231F20"/>
<path d="M98.7589 134.208V140.524C98.7589 142.901 105.557 144.83 113.946 144.83C122.335 144.83 129.139 142.901 129.139 140.524V134.208H98.7589Z" fill="white"/>
<path d="M113.934 145.117C106.326 145.117 98.4315 143.395 98.4315 140.524V134.208C98.4315 134.132 98.4617 134.059 98.5155 134.005C98.5694 133.951 98.6424 133.921 98.7185 133.921H129.098C129.174 133.921 129.248 133.951 129.301 134.005C129.355 134.059 129.385 134.132 129.385 134.208V140.524C129.414 143.395 121.542 145.117 113.934 145.117ZM99.0056 134.524V140.524C99.0056 142.465 104.994 144.543 113.934 144.543C122.874 144.543 128.863 142.465 128.863 140.524V134.495L99.0056 134.524Z" fill="#231F20"/>
<path d="M113.934 138.514C122.322 138.514 129.121 136.586 129.121 134.208C129.121 131.83 122.322 129.902 113.934 129.902C105.547 129.902 98.7473 131.83 98.7473 134.208C98.7473 136.586 105.547 138.514 113.934 138.514Z" fill="#231F20"/>
<path d="M113.934 138.767C105.276 138.767 98.4946 136.763 98.4946 134.208C98.4946 131.653 105.276 129.649 113.934 129.649C122.593 129.649 129.38 131.647 129.38 134.208C129.38 136.769 122.593 138.767 113.934 138.767ZM113.934 130.154C105 130.154 99.0056 132.25 99.0056 134.208C99.0056 136.166 105.006 138.262 113.934 138.262C122.863 138.262 128.863 136.166 128.863 134.208C128.863 132.25 122.874 130.154 113.934 130.154Z" fill="#231F20"/>
<path d="M96.2956 125.096V131.412C96.2956 133.789 103.1 135.718 111.488 135.718C119.877 135.718 126.675 133.789 126.675 131.412V125.096H96.2956Z" fill="white"/>
<path d="M111.488 135.976C103.88 135.976 95.9855 134.254 95.9855 131.383V125.067C95.9869 124.991 96.0177 124.919 96.0712 124.866C96.1247 124.812 96.1969 124.781 96.2726 124.78H126.652C126.729 124.78 126.802 124.81 126.855 124.864C126.909 124.918 126.939 124.991 126.939 125.067V131.383C126.962 134.26 119.096 135.976 111.488 135.976ZM96.5597 125.383V131.383C96.5597 133.324 102.548 135.402 111.488 135.402C120.428 135.402 126.417 133.324 126.417 131.383V125.383H96.5597Z" fill="#231F20"/>
<path d="M111.488 129.402C119.876 129.402 126.675 127.474 126.675 125.096C126.675 122.717 119.876 120.789 111.488 120.789C103.101 120.789 96.3013 122.717 96.3013 125.096C96.3013 127.474 103.101 129.402 111.488 129.402Z" fill="#231F20"/>
<path d="M111.488 129.66C102.83 129.66 96.0429 127.657 96.0429 125.067C96.0429 122.477 102.83 120.508 111.488 120.508C120.147 120.508 126.928 122.512 126.928 125.067C126.928 127.622 120.147 129.66 111.488 129.66ZM111.488 121.048C102.554 121.048 96.5597 123.144 96.5597 125.101C96.5597 127.059 102.56 129.155 111.488 129.155C120.417 129.155 126.417 127.059 126.417 125.101C126.417 123.144 120.423 121.042 111.488 121.042V121.048Z" fill="#231F20"/>
<path d="M101.193 117.649V123.93C101.193 126.313 107.997 128.242 116.386 128.242C124.775 128.242 131.573 126.313 131.573 123.93V117.649H101.193Z" fill="white"/>
<path d="M116.386 128.529C108.778 128.529 100.883 126.807 100.883 123.936V117.649C100.883 117.572 100.913 117.499 100.967 117.446C101.021 117.392 101.094 117.361 101.17 117.361H131.55C131.626 117.361 131.699 117.392 131.753 117.446C131.807 117.499 131.837 117.572 131.837 117.649V123.93C131.86 126.807 124.023 128.529 116.386 128.529ZM101.457 117.936V123.93C101.457 125.871 107.446 127.949 116.386 127.949C125.326 127.949 131.315 125.865 131.315 123.93V117.936H101.457Z" fill="#231F20"/>
<path d="M116.386 121.955C124.774 121.955 131.573 120.027 131.573 117.649C131.573 115.27 124.774 113.342 116.386 113.342C107.999 113.342 101.199 115.27 101.199 117.649C101.199 120.027 107.999 121.955 116.386 121.955Z" fill="#231F20"/>
<path d="M116.386 122.208C107.722 122.208 100.941 120.204 100.941 117.649C100.941 115.093 107.722 113.084 116.386 113.084C125.05 113.084 131.826 115.088 131.826 117.649C131.826 120.209 125.045 122.208 116.386 122.208ZM116.386 113.595C107.446 113.595 101.457 115.696 101.457 117.654C101.457 119.612 107.458 121.708 116.386 121.708C125.314 121.708 131.315 119.612 131.315 117.654C131.315 115.696 125.32 113.589 116.386 113.589V113.595Z" fill="#231F20"/>
<path d="M97.8631 110.196V116.483C97.8631 118.86 104.661 120.789 113.05 120.789C121.439 120.789 128.243 118.86 128.243 116.483V110.196H97.8631Z" fill="white"/>
<path d="M113.05 121.076C105.442 121.076 97.5759 119.354 97.5759 116.483V110.196C97.5759 110.12 97.6062 110.047 97.66 109.993C97.7138 109.939 97.7869 109.909 97.863 109.909H128.243C128.319 109.909 128.392 109.939 128.446 109.993C128.5 110.047 128.53 110.12 128.53 110.196V116.483C128.53 119.36 120.658 121.076 113.05 121.076ZM98.1501 110.483V116.483C98.1501 118.424 104.139 120.502 113.05 120.502C121.961 120.502 127.979 118.424 127.979 116.483V110.483H98.1501Z" fill="#231F20"/>
<path d="M113.05 114.502C121.438 114.502 128.237 112.574 128.237 110.196C128.237 107.817 121.438 105.889 113.05 105.889C104.663 105.889 97.8631 107.817 97.8631 110.196C97.8631 112.574 104.663 114.502 113.05 114.502Z" fill="white"/>
<path d="M113.05 114.789C105.442 114.789 97.5759 113.067 97.5759 110.196C97.5759 107.325 105.442 105.602 113.05 105.602C120.658 105.602 128.553 107.325 128.553 110.196C128.553 113.067 120.658 114.789 113.05 114.789ZM113.05 106.177C104.139 106.177 98.1501 108.255 98.1501 110.196C98.1501 112.137 104.139 114.215 113.05 114.215C121.961 114.215 127.979 112.137 127.979 110.196C127.979 108.255 121.967 106.177 113.05 106.177Z" fill="#231F20"/>
<path d="M113.05 113.095C106.579 113.095 100.022 112.102 100.022 110.224C100.022 108.347 106.579 107.325 113.05 107.325C119.521 107.325 126.078 108.318 126.078 110.224C126.078 112.131 119.527 113.095 113.05 113.095ZM113.05 107.87C105.333 107.87 100.596 109.225 100.596 110.196C100.596 111.166 105.333 112.492 113.05 112.492C120.767 112.492 125.504 111.137 125.504 110.196C125.504 109.254 120.767 107.87 113.05 107.87Z" fill="#D1D3D4"/>
<path d="M172.621 139.823V146.111C172.621 148.488 165.823 150.417 157.434 150.417C149.045 150.417 142.241 148.488 142.241 146.111V139.823H172.621Z" fill="white"/>
<path d="M157.434 150.704C149.826 150.704 141.931 148.981 141.931 146.111V139.823C141.931 139.747 141.962 139.674 142.016 139.62C142.069 139.567 142.142 139.536 142.219 139.536H172.598C172.674 139.536 172.748 139.567 172.801 139.62C172.855 139.674 172.885 139.747 172.885 139.823V146.111C172.908 148.981 165.042 150.704 157.434 150.704ZM142.506 140.11V146.111C142.506 148.051 148.494 150.13 157.434 150.13C166.374 150.13 172.334 148.051 172.334 146.111V140.11H142.506Z" fill="#231F20"/>
<path d="M157.434 144.13C165.822 144.13 172.621 142.202 172.621 139.823C172.621 137.445 165.822 135.517 157.434 135.517C149.047 135.517 142.247 137.445 142.247 139.823C142.247 142.202 149.047 144.13 157.434 144.13Z" fill="#231F20"/>
<path d="M157.434 144.382C148.776 144.382 141.989 142.378 141.989 139.823C141.989 137.268 148.776 135.259 157.434 135.259C166.093 135.259 172.874 137.263 172.874 139.823C172.874 142.384 166.093 144.382 157.434 144.382ZM157.434 135.77C148.5 135.77 142.505 137.865 142.505 139.823C142.505 141.781 148.511 143.877 157.434 143.877C166.357 143.877 172.363 141.781 172.363 139.823C172.363 137.865 166.368 135.77 157.434 135.77Z" fill="#231F20"/>
<path d="M167.729 132.371V138.658C167.729 141.035 160.925 142.964 152.536 142.964C144.148 142.964 137.349 141.035 137.349 138.658V132.371H167.729Z" fill="white"/>
<path d="M152.537 143.251C144.929 143.251 137.034 141.529 137.034 138.658V132.371C137.034 132.294 137.064 132.221 137.118 132.168C137.172 132.114 137.245 132.083 137.321 132.083H167.701C167.777 132.083 167.85 132.114 167.904 132.168C167.957 132.221 167.988 132.294 167.988 132.371V138.658C168.016 141.534 160.144 143.251 152.537 143.251ZM137.608 132.658V138.658C137.608 140.599 143.597 142.677 152.537 142.677C161.476 142.677 167.465 140.599 167.465 138.658V132.658H137.608Z" fill="#231F20"/>
<path d="M152.536 136.677C160.924 136.677 167.723 134.749 167.723 132.371C167.723 129.992 160.924 128.064 152.536 128.064C144.149 128.064 137.349 129.992 137.349 132.371C137.349 134.749 144.149 136.677 152.536 136.677Z" fill="#231F20"/>
<path d="M152.537 136.935C143.878 136.935 137.097 134.931 137.097 132.371C137.097 129.81 143.878 127.812 152.537 127.812C161.195 127.812 167.982 129.816 167.982 132.371C167.982 134.926 161.195 136.935 152.537 136.935ZM152.537 128.323C143.602 128.323 137.608 130.418 137.608 132.376C137.608 134.334 143.608 136.43 152.537 136.43C161.465 136.43 167.465 134.334 167.465 132.376C167.465 130.418 161.471 128.317 152.537 128.317V128.323Z" fill="#231F20"/>
<path d="M171.06 124.918V131.234C171.06 133.617 164.261 135.546 155.872 135.546C147.484 135.546 140.674 133.588 140.674 131.205V124.889L171.06 124.918Z" fill="white"/>
<path d="M155.867 135.798C148.265 135.798 140.393 134.076 140.393 131.205V124.889C140.393 124.813 140.423 124.74 140.477 124.686C140.53 124.632 140.603 124.602 140.68 124.602H171.059C171.136 124.602 171.209 124.632 171.262 124.686C171.316 124.74 171.347 124.813 171.347 124.889V131.205C171.347 134.082 163.475 135.798 155.867 135.798ZM140.967 125.205V131.205C140.967 133.146 146.955 135.224 155.867 135.224C164.778 135.224 170.795 133.146 170.795 131.205V125.205H140.967Z" fill="#231F20"/>
<path d="M155.872 129.224C164.26 129.224 171.059 127.296 171.059 124.918C171.059 122.539 164.26 120.611 155.872 120.611C147.485 120.611 140.685 122.539 140.685 124.918C140.685 127.296 147.485 129.224 155.872 129.224Z" fill="#231F20"/>
<path d="M155.867 129.482C147.208 129.482 140.427 127.479 140.427 124.889C140.427 122.3 147.208 120.33 155.867 120.33C164.525 120.33 171.312 122.334 171.312 124.889C171.312 127.444 164.531 129.482 155.867 129.482ZM155.867 120.87C146.932 120.87 140.938 122.966 140.938 124.924C140.938 126.881 146.938 128.983 155.867 128.983C164.795 128.983 170.795 126.887 170.795 124.924C170.795 122.96 164.789 120.864 155.867 120.864V120.87Z" fill="#231F20"/>
<path d="M171.593 116.483V122.765C171.593 125.147 164.795 127.077 156.406 127.077C148.018 127.077 141.214 125.147 141.214 122.765V116.483H171.593Z" fill="white"/>
<path d="M156.407 127.364C148.799 127.364 140.904 125.641 140.904 122.77V116.483C140.904 116.407 140.934 116.334 140.988 116.28C141.042 116.226 141.115 116.196 141.191 116.196H171.571C171.647 116.196 171.72 116.226 171.774 116.28C171.827 116.334 171.858 116.407 171.858 116.483V122.765C171.881 125.641 164.009 127.364 156.407 127.364ZM141.478 116.77V122.765C141.478 124.711 147.467 126.784 156.407 126.784C165.346 126.784 171.335 124.705 171.335 122.765V116.77H141.478Z" fill="#231F20"/>
<path d="M156.406 120.789C164.794 120.789 171.593 118.861 171.593 116.483C171.593 114.105 164.794 112.177 156.406 112.177C148.019 112.177 141.219 114.105 141.219 116.483C141.219 118.861 148.019 120.789 156.406 120.789Z" fill="#231F20"/>
<path d="M156.406 121.042C147.742 121.042 140.961 119.038 140.961 116.483C140.961 113.928 147.742 111.918 156.406 111.918C165.071 111.918 171.846 113.922 171.846 116.483C171.846 119.044 165.065 121.042 156.406 121.042ZM156.406 112.429C147.467 112.429 141.478 114.531 141.478 116.489C141.478 118.447 147.478 120.543 156.406 120.543C165.335 120.543 171.335 118.447 171.335 116.489C171.335 114.531 165.364 112.424 156.406 112.424V112.429Z" fill="#231F20"/>
<path d="M168.613 108.255V114.537C168.613 116.919 161.809 118.849 153.421 118.849C145.032 118.849 138.234 116.919 138.234 114.537V108.255H168.613Z" fill="white"/>
<path d="M153.421 119.136C145.813 119.136 137.946 117.413 137.946 114.542V108.255C137.946 108.179 137.977 108.106 138.031 108.052C138.084 107.998 138.157 107.968 138.234 107.968H168.613C168.69 107.968 168.763 107.998 168.816 108.052C168.87 108.106 168.9 108.179 168.9 108.255V114.537C168.9 117.413 161.028 119.136 153.421 119.136ZM138.521 108.542V114.537C138.521 116.483 144.509 118.556 153.421 118.556C162.332 118.556 168.349 116.477 168.349 114.537V108.542H138.521Z" fill="#231F20"/>
<path d="M153.421 112.561C161.808 112.561 168.608 110.633 168.608 108.255C168.608 105.877 161.808 103.949 153.421 103.949C145.033 103.949 138.234 105.877 138.234 108.255C138.234 110.633 145.033 112.561 153.421 112.561Z" fill="#231F20"/>
<path d="M153.421 112.814C144.762 112.814 137.981 110.81 137.981 108.255C137.981 105.7 144.762 103.662 153.421 103.662C162.079 103.662 168.866 105.666 168.866 108.255C168.866 110.845 162.079 112.814 153.421 112.814ZM153.421 104.201C144.486 104.201 138.492 106.303 138.492 108.261C138.492 110.219 144.492 112.314 153.421 112.314C162.349 112.314 168.349 110.219 168.349 108.261C168.349 106.303 162.355 104.196 153.421 104.196V104.201Z" fill="#231F20"/>
<path d="M172.621 99.8147V106.073C172.621 108.456 165.823 110.385 157.434 110.385C149.045 110.385 142.241 108.456 142.241 106.073V99.8147H172.621Z" fill="white"/>
<path d="M157.434 110.695C149.826 110.695 141.931 108.973 141.931 106.102V99.8147C141.931 99.7385 141.962 99.6655 142.016 99.6117C142.069 99.5578 142.142 99.5276 142.219 99.5276H172.598C172.674 99.5276 172.748 99.5578 172.801 99.6117C172.855 99.6655 172.885 99.7385 172.885 99.8147V106.073C172.908 108.973 165.042 110.695 157.434 110.695ZM142.506 100.102V106.073C142.506 108.02 148.494 110.092 157.434 110.092C166.374 110.092 172.334 108.014 172.334 106.073V100.102H142.506Z" fill="#231F20"/>
<path d="M157.434 104.121C165.822 104.121 172.621 102.193 172.621 99.8146C172.621 97.4363 165.822 95.5083 157.434 95.5083C149.047 95.5083 142.247 97.4363 142.247 99.8146C142.247 102.193 149.047 104.121 157.434 104.121Z" fill="white"/>
<path d="M157.434 104.408C149.826 104.408 141.931 102.686 141.931 99.8146C141.931 96.9437 149.803 95.2212 157.434 95.2212C165.065 95.2212 172.908 96.9437 172.908 99.8146C172.908 102.686 165.042 104.408 157.434 104.408ZM157.434 95.7954C148.517 95.7954 142.506 97.8796 142.506 99.8146C142.506 101.75 148.494 103.834 157.434 103.834C166.374 103.834 172.334 101.755 172.334 99.8146C172.334 97.8739 166.346 95.7896 157.434 95.7896V95.7954Z" fill="#231F20"/>
<path d="M157.434 102.714C150.957 102.714 144.406 101.715 144.406 99.8146C144.406 97.9141 150.957 96.9437 157.434 96.9437C163.911 96.9437 170.462 97.9371 170.462 99.8146C170.462 101.692 163.905 102.714 157.434 102.714ZM157.434 97.4892C149.717 97.4892 144.98 98.8443 144.98 99.7859C144.98 100.728 149.717 102.111 157.434 102.111C165.151 102.111 169.888 100.756 169.888 99.7859C169.888 98.8155 165.151 97.4892 157.434 97.4892Z" fill="#D1D3D4"/>
<path d="M86.2361 79.2647C86.2361 79.2647 84.4217 77.3067 84.3069 76.6005C84.192 75.8943 84.0542 73.4483 83.4571 73.8789C82.8599 74.3095 83.0035 76.0608 83.0035 76.0608C83.0035 76.0608 80.5288 73.098 79.7996 73.7641C79.0703 74.4301 78.7718 75.0215 78.7258 76.3134C78.6799 77.6053 84.904 83.0198 84.904 83.0198" fill="white"/>
<path d="M84.9039 83.2782C84.8345 83.2789 84.7672 83.2545 84.7144 83.2093C83.6579 82.2906 78.3985 77.6341 78.4387 76.2733C78.4046 75.7564 78.4906 75.2387 78.6898 74.7606C78.889 74.2825 79.1961 73.857 79.587 73.5172C79.6586 73.4585 79.7412 73.4146 79.8299 73.3879C79.9186 73.3613 80.0117 73.3526 80.1038 73.3622C80.8502 73.4196 81.9928 74.5392 82.6818 75.2857C82.7105 74.7115 82.8369 73.9536 83.256 73.6435C83.3242 73.5901 83.4055 73.5561 83.4914 73.545C83.5773 73.5339 83.6645 73.5461 83.7441 73.5804C84.1632 73.7641 84.3182 74.522 84.502 76.0493C84.502 76.256 84.5422 76.434 84.5651 76.5546C84.634 76.9852 85.7135 78.2771 86.4197 79.0695C86.4727 79.1241 86.5023 79.1972 86.5023 79.2733C86.5023 79.3494 86.4727 79.4225 86.4197 79.4772C86.3931 79.5041 86.3613 79.5254 86.3263 79.54C86.2913 79.5546 86.2538 79.5621 86.2159 79.5621C86.178 79.5621 86.1405 79.5546 86.1055 79.54C86.0705 79.5254 86.0388 79.5041 86.0121 79.4772C85.702 79.1384 84.1345 77.4159 84.0139 76.6637C84.0139 76.5374 83.9737 76.3479 83.945 76.1355C83.8997 75.4678 83.7724 74.8083 83.5661 74.1718C83.2847 74.4761 83.2273 75.4292 83.2732 76.0551C83.28 76.1152 83.2668 76.1759 83.2357 76.2278C83.2046 76.2797 83.1572 76.3199 83.101 76.3422C83.0444 76.3673 82.981 76.373 82.9208 76.3585C82.8606 76.344 82.8069 76.31 82.768 76.2618C82.0445 75.3948 80.6665 73.9995 80.0693 73.9651C80.0004 73.9651 79.9889 73.9651 79.9775 73.9651C79.2827 74.5737 79.0415 75.1421 79.0014 76.3077C78.9726 77.0312 82.0675 80.1662 85.0819 82.7902C85.1086 82.8164 85.1299 82.8477 85.1444 82.8822C85.1589 82.9167 85.1664 82.9537 85.1664 82.9912C85.1664 83.0286 85.1589 83.0656 85.1444 83.1001C85.1299 83.1347 85.1086 83.1659 85.0819 83.1921C85.0363 83.2433 84.9723 83.2743 84.9039 83.2782Z" fill="#231F20"/>
<path d="M82.8312 78.8456C82.775 78.8465 82.7198 78.8306 82.6727 78.7999C82.6257 78.7692 82.5889 78.7251 82.5671 78.6733C82.3656 78.2302 82.2784 77.7437 82.3135 77.2582C82.3486 76.7727 82.5049 76.3038 82.768 75.8943C82.8138 75.834 82.8808 75.7933 82.9554 75.7805C83.03 75.7677 83.1067 75.7838 83.17 75.8254C83.2305 75.8711 83.271 75.9386 83.2828 76.0136C83.2945 76.0886 83.2767 76.1652 83.2331 76.2273C83.0292 76.5555 82.9094 76.929 82.8843 77.3146C82.8593 77.7002 82.9298 78.0861 83.0896 78.4379C83.1058 78.4721 83.1149 78.5092 83.1164 78.547C83.1179 78.5848 83.1118 78.6225 83.0984 78.6579C83.085 78.6933 83.0646 78.7256 83.0384 78.7529C83.0122 78.7802 82.9808 78.802 82.946 78.8169C82.91 78.8339 82.871 78.8436 82.8312 78.8456Z" fill="#231F20"/>
<path d="M115.41 136.418C115.364 137.153 115.364 137.889 115.41 138.623C115.502 138.905 116.065 140.306 115.984 140.731C115.904 141.155 111.219 148.591 110.047 147.414C108.876 146.237 111.873 140.811 111.873 140.248C111.873 139.686 111.5 136.407 111.5 136.407L115.41 136.418Z" fill="white"/>
<path d="M110.357 147.833C110.263 147.835 110.169 147.817 110.081 147.782C109.993 147.746 109.913 147.693 109.846 147.626C108.933 146.713 109.91 144.222 111.075 141.529C111.274 141.116 111.445 140.69 111.586 140.254C111.586 139.829 111.345 137.584 111.213 136.453C111.209 136.413 111.213 136.372 111.226 136.333C111.239 136.295 111.259 136.259 111.286 136.229C111.313 136.199 111.346 136.175 111.383 136.158C111.42 136.141 111.46 136.132 111.5 136.131H115.41C115.449 136.131 115.488 136.139 115.523 136.155C115.559 136.171 115.591 136.194 115.617 136.223C115.645 136.251 115.667 136.284 115.681 136.321C115.694 136.357 115.7 136.397 115.697 136.436C115.647 137.133 115.647 137.834 115.697 138.531C115.697 138.572 115.737 138.646 115.766 138.738C116.122 139.708 116.34 140.426 116.266 140.788C116.145 141.316 112.401 147.276 110.622 147.793C110.536 147.818 110.447 147.831 110.357 147.833ZM111.822 136.706C111.919 137.555 112.16 139.789 112.16 140.26C112.038 140.783 111.845 141.287 111.586 141.758C110.92 143.303 109.525 146.513 110.237 147.219C110.237 147.219 110.294 147.276 110.421 147.247C111.873 146.914 115.531 141.144 115.703 140.65C115.632 140.055 115.472 139.474 115.226 138.928C115.194 138.855 115.167 138.78 115.146 138.704C115.084 138.037 115.084 137.366 115.146 136.7L111.822 136.706Z" fill="#231F20"/>
<path d="M105.075 136.924C105.075 136.924 104.885 140.059 105.075 140.759C105.264 141.46 105.591 142.258 105.494 142.683C105.396 143.108 99.6429 148.16 99.3616 147.276C99.0802 146.392 101.423 142.792 101.469 142.154C101.515 141.517 100.722 136.602 100.722 136.602L105.075 136.924Z" fill="white"/>
<path d="M99.5455 147.661C99.4484 147.667 99.3522 147.64 99.2721 147.585C99.192 147.53 99.1326 147.449 99.1033 147.357C98.9081 146.742 99.534 145.462 100.441 143.728C100.737 143.216 100.989 142.68 101.193 142.126C101.228 141.684 100.768 138.606 100.447 136.642C100.441 136.599 100.445 136.555 100.458 136.514C100.471 136.472 100.493 136.434 100.522 136.401C100.551 136.37 100.587 136.346 100.626 136.33C100.666 136.314 100.709 136.307 100.751 136.309L105.109 136.637C105.184 136.643 105.254 136.678 105.304 136.735C105.353 136.792 105.378 136.866 105.373 136.941C105.276 138.189 105.276 139.442 105.373 140.69C105.425 140.874 105.482 141.064 105.54 141.265C105.739 141.736 105.828 142.247 105.798 142.757C105.689 143.251 100.728 147.621 99.5857 147.672L99.5455 147.661ZM101.056 136.907C101.251 138.112 101.791 141.598 101.75 142.172C101.563 142.815 101.289 143.429 100.935 143.998C100.43 144.957 99.6144 146.518 99.6144 147.075C100.579 146.857 104.943 143.09 105.224 142.579C105.197 142.186 105.11 141.799 104.966 141.431C104.901 141.236 104.843 141.044 104.793 140.857C104.689 139.644 104.689 138.424 104.793 137.211L101.056 136.907Z" fill="#231F20"/>
<path d="M142.615 81.3835C142.615 81.3835 144.498 79.4944 144.641 78.7939C144.785 78.0934 145.02 75.6531 145.6 76.1067C146.18 76.5603 145.968 78.3059 145.968 78.3059C145.968 78.3059 148.557 75.435 149.252 76.1067C149.947 76.7785 150.234 77.4044 150.234 78.6906C150.234 79.9767 143.803 85.1558 143.803 85.1558" fill="white"/>
<path d="M143.803 85.4028C143.761 85.4033 143.718 85.3943 143.68 85.3764C143.641 85.3585 143.607 85.3323 143.579 85.2995C143.531 85.2398 143.509 85.1636 143.516 85.0874C143.524 85.0112 143.561 84.941 143.619 84.8918C146.732 82.3941 149.935 79.3739 149.935 78.6505C149.935 77.5021 149.717 76.9279 149.045 76.2734C149.045 76.2734 149.045 76.2734 148.959 76.2734C148.356 76.2734 146.933 77.6399 146.169 78.4782C146.128 78.5245 146.074 78.5562 146.014 78.5687C145.954 78.5811 145.891 78.5736 145.836 78.5471C145.781 78.5214 145.736 78.4795 145.706 78.4271C145.676 78.3746 145.664 78.3143 145.669 78.2543C145.744 77.6284 145.727 76.6638 145.457 76.3595C145.226 76.9876 145.072 77.6411 144.998 78.306C144.963 78.5242 144.934 78.7079 144.911 78.8342C144.762 79.5806 143.131 81.24 142.804 81.5673C142.777 81.5942 142.746 81.6156 142.711 81.6301C142.676 81.6447 142.638 81.6522 142.6 81.6522C142.562 81.6522 142.525 81.6447 142.49 81.6301C142.455 81.6156 142.423 81.5942 142.396 81.5673C142.344 81.5127 142.314 81.4396 142.314 81.3635C142.314 81.2874 142.344 81.2143 142.396 81.1596C143.154 80.4017 144.263 79.1443 144.349 78.7194C144.349 78.5988 144.4 78.4266 144.429 78.2198C144.67 76.6983 144.854 75.9231 145.279 75.7796C145.36 75.7464 145.448 75.7363 145.534 75.7505C145.62 75.7647 145.701 75.8026 145.767 75.86C146.18 76.1873 146.278 76.9337 146.284 77.5251C147.001 76.8074 148.19 75.7279 148.936 75.6992C149.028 75.6919 149.121 75.704 149.208 75.7347C149.295 75.7653 149.375 75.8139 149.442 75.8772C149.824 76.229 150.119 76.6646 150.304 77.1498C150.49 77.635 150.56 78.1565 150.51 78.6734C150.51 80.0342 145.061 84.4841 143.97 85.3626C143.92 85.3946 143.862 85.4087 143.803 85.4028Z" fill="#231F20"/>
<path d="M107.865 101.411L126.239 102.37C126.239 102.37 127.387 107.4 124.241 109.897C121.094 112.395 114.755 114.979 114.376 116.787C113.998 118.596 116.277 134.426 116.03 138.17L110.386 139.508C110.386 139.508 105.517 120.611 105.637 117.494C105.758 114.376 107.389 112.9 107.389 112.9C107.389 112.9 102.893 116.753 102.767 117.626C102.64 118.498 105.993 138.549 105.993 138.549C105.993 138.549 100.034 138.784 99.9129 138.405C99.7924 138.026 94.2802 119.503 95.6525 115.507C97.0248 111.511 107.865 101.411 107.865 101.411Z" fill="#231F20"/>
<path d="M110.363 139.783C110.307 139.784 110.252 139.765 110.207 139.731C110.162 139.697 110.13 139.648 110.116 139.594C109.921 138.824 105.241 120.646 105.362 117.505C105.396 116.429 105.64 115.37 106.08 114.387C104.443 115.874 103.048 117.298 102.996 117.677C102.922 118.355 104.885 130.51 106.223 138.514C106.228 138.551 106.226 138.588 106.216 138.624C106.206 138.659 106.189 138.692 106.166 138.721C106.118 138.774 106.053 138.806 105.982 138.813C99.8325 139.054 99.712 138.692 99.666 138.497C99.6201 138.302 93.9817 119.549 95.4056 115.432C96.7837 111.413 107.262 101.652 107.71 101.221C107.735 101.199 107.764 101.181 107.796 101.17C107.827 101.16 107.861 101.155 107.894 101.158L126.268 102.117C126.323 102.122 126.376 102.143 126.418 102.179C126.46 102.216 126.49 102.264 126.503 102.318C126.549 102.53 127.623 107.532 124.419 110.098C122.916 111.206 121.337 112.205 119.693 113.09C117.311 114.456 114.847 115.869 114.646 116.856C114.468 117.706 114.933 122.081 115.381 126.307C115.892 131.199 116.426 136.258 116.3 138.21C116.296 138.264 116.276 138.316 116.24 138.357C116.205 138.398 116.158 138.427 116.105 138.44L110.461 139.777L110.363 139.783ZM107.372 112.659C107.407 112.659 107.443 112.667 107.476 112.682C107.508 112.696 107.537 112.718 107.561 112.745C107.607 112.793 107.632 112.857 107.632 112.923C107.632 112.989 107.607 113.053 107.561 113.101C107.561 113.101 106.011 114.56 105.89 117.522C105.781 120.393 110.007 137.044 110.57 139.226L115.783 137.992C115.869 135.942 115.335 130.86 114.859 126.359C114.365 121.702 113.94 117.683 114.13 116.759C114.382 115.541 116.719 114.204 119.429 112.648C121.048 111.776 122.604 110.792 124.086 109.702C126.716 107.595 126.187 103.535 126.027 102.617L107.946 101.669C106.964 102.588 97.1339 111.884 95.8592 115.599C94.5501 119.4 99.689 136.924 100.091 138.262C100.585 138.405 103.203 138.405 105.66 138.319C105.155 135.264 102.359 118.458 102.485 117.603C102.612 116.747 106.424 113.377 107.188 112.722C107.239 112.679 107.304 112.656 107.372 112.659Z" fill="#231F20"/>
<path d="M127.054 102.829C127.054 102.829 125.963 94.8825 124.93 90.7714C124.93 90.7714 127.985 96.0997 131.636 96.3983C135.288 96.6969 146.042 84.3061 146.042 84.3061L143.034 80.0342C143.034 80.0342 135.506 85.977 131.165 87.8545C130.017 85.2305 123.374 75.7968 119.538 73.9077C115.703 72.0187 110.799 73.5058 108.175 75.6303C106.906 76.6753 103.582 78.5873 97.8401 83.864C93.704 82.4023 89.7909 80.3733 86.213 77.8351L83.256 82.0209C83.256 82.0209 95.3137 93.1599 98.6267 91.5006L106.298 87.6478L105.89 102.657L127.054 102.829Z" fill="#F14736"/>
<path d="M111.46 61.7811C111.46 61.7811 108.348 70.6866 106.958 72.5469L115.037 75.5729L116.553 61.2184L111.46 61.7811Z" fill="white"/>
<path d="M115.037 75.8598C115.003 75.8653 114.968 75.8653 114.933 75.8598L106.855 72.8339C106.814 72.8171 106.777 72.7913 106.747 72.7586C106.718 72.7258 106.695 72.6868 106.683 72.6444C106.668 72.6019 106.665 72.5563 106.673 72.5121C106.681 72.4679 106.7 72.4265 106.728 72.3918C108.072 70.5888 111.155 61.7924 111.19 61.7006C111.207 61.6499 111.238 61.6051 111.28 61.5715C111.322 61.538 111.372 61.517 111.425 61.5111L116.524 60.9369C116.567 60.9314 116.61 60.9357 116.651 60.9497C116.692 60.9636 116.729 60.9867 116.759 61.0173C116.79 61.048 116.812 61.0851 116.826 61.1258C116.84 61.1666 116.845 61.2099 116.84 61.2527L115.318 75.6072C115.315 75.6506 115.301 75.6926 115.278 75.7296C115.255 75.7666 115.224 75.7975 115.186 75.8196C115.141 75.8464 115.089 75.8603 115.037 75.8598ZM107.4 72.4147L114.79 75.1823L116.231 61.5398L111.672 62.0566C111.242 63.2623 108.767 70.2042 107.4 72.4033V72.4147Z" fill="#231F20"/>
<path d="M113.033 72.6847L112.12 76.6638C112.12 76.6638 111.638 79.1614 114.296 78.9318C115.081 78.856 115.839 78.6065 116.515 78.2013C117.192 77.7961 117.769 77.2454 118.206 76.5891L119.274 69.3545C119.32 69.0502 119.757 66.0587 120.302 63.4347C117.247 62.8031 114.56 62.028 114.56 62.028C114.807 62.3839 113.705 62.2232 113.705 62.2289C113.215 62.1291 112.713 62.1097 112.218 62.1715C111.707 63.894 110.874 65.7429 110.581 67.4999C110.39 68.5512 110.296 69.618 110.3 70.6866C110.334 72.7134 113.033 72.6847 113.033 72.6847Z" fill="white"/>
<path d="M113.963 79.2074C113.661 79.2281 113.358 79.1835 113.074 79.0764C112.791 78.9694 112.534 78.8026 112.321 78.5873C112.112 78.309 111.963 77.9901 111.884 77.651C111.805 77.3119 111.797 76.96 111.862 76.6178L112.706 72.9373C111.644 72.857 110.065 72.323 110.036 70.6866C110.028 69.6045 110.122 68.5241 110.317 67.4597C110.554 66.2687 110.894 65.1006 111.333 63.9687C111.552 63.3486 111.776 62.7112 111.959 62.0968C111.973 62.049 112.001 62.0062 112.038 61.9736C112.076 61.941 112.122 61.92 112.172 61.9131C112.696 61.8476 113.227 61.865 113.745 61.9648C113.936 61.984 114.128 61.984 114.319 61.9648C114.326 61.9236 114.342 61.8844 114.365 61.8499C114.396 61.8073 114.438 61.7747 114.487 61.7563C114.536 61.7379 114.59 61.7345 114.641 61.7466C114.669 61.7466 117.357 62.5275 120.383 63.1476C120.417 63.1527 120.45 63.1658 120.479 63.1857C120.508 63.2056 120.532 63.2318 120.549 63.2624C120.568 63.2907 120.582 63.3225 120.589 63.356C120.596 63.3895 120.596 63.4241 120.589 63.4576C120.113 65.7544 119.722 68.3152 119.573 69.32C119.573 69.32 119.573 69.32 118.493 76.6006C118.491 76.6338 118.479 76.6657 118.459 76.6925C118.004 77.3874 117.398 77.9704 116.686 78.398C115.974 78.8256 115.175 79.0866 114.348 79.1614L113.963 79.2074ZM112.373 76.7269C112.327 76.9889 112.335 77.2573 112.394 77.5165C112.453 77.7757 112.563 78.0206 112.717 78.237C112.924 78.4264 113.173 78.5641 113.444 78.6389C113.714 78.7137 113.998 78.7236 114.273 78.6676C115.008 78.5952 115.717 78.3634 116.353 77.9886C116.989 77.6137 117.535 77.1048 117.954 76.4972C118.057 75.8312 119.004 69.3889 119.016 69.32C119.165 68.298 119.538 65.8749 119.992 63.6356C117.626 63.1418 115.502 62.5677 114.761 62.361C114.669 62.4586 114.44 62.5906 113.665 62.4873C113.253 62.4039 112.832 62.3788 112.413 62.4126C112.235 62.9868 112.028 63.561 111.839 64.1352C111.403 65.2412 111.061 66.3821 110.817 67.5458C110.627 68.5799 110.535 69.6295 110.541 70.6808C110.576 72.4034 112.912 72.4034 113.016 72.4034C113.056 72.4018 113.095 72.4098 113.131 72.4268C113.167 72.4438 113.198 72.4692 113.223 72.501C113.247 72.5323 113.264 72.5687 113.272 72.6076C113.28 72.6464 113.278 72.6865 113.268 72.7249L112.356 76.704L112.373 76.7269Z" fill="#231F20"/>
<path d="M114.537 66.5123C114.537 66.5123 112.815 68.2349 113.079 68.6598C113.343 69.0846 114.262 69.0043 114.262 69.0043" fill="white"/>
<path d="M114.107 69.3256C113.768 69.3256 113.102 69.2682 112.838 68.8376C112.574 68.4069 113.096 67.6031 114.331 66.3399C114.357 66.3127 114.388 66.2911 114.423 66.2761C114.458 66.2611 114.495 66.2531 114.533 66.2526C114.571 66.2521 114.609 66.259 114.644 66.273C114.679 66.287 114.711 66.3078 114.738 66.3342C114.765 66.3605 114.787 66.392 114.802 66.4268C114.817 66.4616 114.825 66.4989 114.826 66.5368C114.826 66.5747 114.819 66.6122 114.805 66.6474C114.791 66.6826 114.77 66.7147 114.744 66.7418C114.165 67.2626 113.69 67.8879 113.343 68.5849C113.429 68.7055 113.917 68.7629 114.244 68.7457C114.319 68.7424 114.393 68.768 114.449 68.8171C114.506 68.8662 114.542 68.9352 114.549 69.0098C114.552 69.048 114.547 69.0864 114.535 69.1228C114.523 69.1592 114.504 69.1928 114.479 69.2217C114.454 69.2506 114.423 69.2742 114.389 69.291C114.355 69.3079 114.317 69.3177 114.279 69.3199L114.107 69.3256Z" fill="#231F20"/>
<path d="M113.267 65.8158C113.321 65.5809 113.262 65.3669 113.135 65.3377C113.008 65.3086 112.862 65.4754 112.808 65.7103C112.754 65.9452 112.813 66.1592 112.939 66.1883C113.066 66.2175 113.213 66.0506 113.267 65.8158Z" fill="#231F20"/>
<path d="M116.52 66.7357C116.574 66.5008 116.515 66.2868 116.388 66.2577C116.262 66.2286 116.115 66.3954 116.061 66.6303C116.007 66.8651 116.066 67.0791 116.193 67.1083C116.32 67.1374 116.466 66.9706 116.52 66.7357Z" fill="#231F20"/>
<path d="M113.779 64.7323L114.21 63.9055L114.514 64.8816L117.081 65.6453L117.793 64.5831L117.718 66.0185L119.068 66.1563C119.068 66.1563 116.524 72.4723 116.622 76.4341C116.622 76.4341 124.247 78.5413 126.222 77.1805C126.222 77.1805 124.057 69.3775 124.155 66.2711C124.252 63.1648 124.069 60.4949 120.36 59.0595C116.65 57.624 113.975 58.0776 112.028 59.7714C111.45 60.2985 110.986 60.9381 110.664 61.651C110.342 62.3638 110.17 63.135 110.156 63.917C110.156 63.917 113.004 64.6807 113.779 64.7323Z" fill="white"/>
<path d="M123.937 77.9384C120.957 77.9384 116.777 76.79 116.547 76.7326C116.486 76.7193 116.431 76.6851 116.392 76.6358C116.354 76.5866 116.333 76.5254 116.335 76.4627C116.248 73.0177 118.126 67.8501 118.631 66.4261L117.655 66.3285C117.583 66.3212 117.516 66.286 117.468 66.2303C117.421 66.1746 117.398 66.1027 117.403 66.0299V65.628L117.27 65.829C117.237 65.8795 117.188 65.918 117.132 65.9387C117.075 65.9594 117.013 65.9612 116.955 65.9438L114.388 65.1801C114.343 65.1667 114.301 65.1424 114.267 65.1094C114.233 65.0764 114.208 65.0357 114.193 64.9907L114.095 64.6806L113.986 64.8873C113.961 64.9388 113.92 64.9812 113.87 65.0089C113.819 65.0366 113.762 65.0483 113.705 65.0423C112.918 64.9677 110.151 64.2327 110.036 64.1983C109.976 64.1831 109.922 64.1484 109.884 64.0995C109.845 64.0507 109.824 63.9905 109.823 63.9284C109.832 63.1031 110.013 62.2886 110.353 61.5365C110.693 60.7844 111.185 60.111 111.799 59.5589C113.957 57.6756 116.857 57.4172 120.411 58.7953C124.264 60.2881 124.494 63.0729 124.39 66.2596C124.293 69.3085 126.429 77.0254 126.452 77.1001C126.466 77.1582 126.462 77.2191 126.442 77.2753C126.421 77.3314 126.385 77.3803 126.337 77.4159C125.599 77.8047 124.769 77.9853 123.937 77.9384ZM116.903 76.2159C119.062 76.79 124.201 77.881 125.889 77.0427C125.533 75.745 123.776 69.1247 123.868 66.2424C123.965 63.1475 123.759 60.6671 120.256 59.312C116.863 57.9972 114.233 58.2096 112.218 59.9723C111.169 60.932 110.534 62.2623 110.449 63.6815C111.069 63.8423 112.844 64.3016 113.619 64.4222L113.957 63.7734C113.983 63.7229 114.022 63.6811 114.071 63.6535C114.121 63.6259 114.177 63.6136 114.233 63.6184C114.29 63.6234 114.345 63.6452 114.39 63.6809C114.434 63.7166 114.468 63.7648 114.486 63.8193L114.744 64.6519L116.96 65.3065L117.535 64.4222C117.569 64.37 117.62 64.3305 117.679 64.3098C117.738 64.2891 117.802 64.2882 117.862 64.3074C117.922 64.3263 117.975 64.3648 118.011 64.4167C118.048 64.4686 118.066 64.5311 118.063 64.5945L118 65.7428L119.079 65.8519C119.122 65.8579 119.164 65.8734 119.201 65.8972C119.237 65.921 119.268 65.9526 119.292 65.9897C119.313 66.0295 119.324 66.0739 119.324 66.1189C119.324 66.164 119.313 66.2083 119.292 66.2481C119.309 66.3457 116.903 72.3918 116.903 76.2159Z" fill="#231F20"/>
<path d="M111.678 69.4118C111.678 69.4118 113.624 71.7487 115.548 69.3027L111.678 69.4118Z" fill="white"/>
<path d="M113.636 70.7096C113.217 70.6778 112.809 70.563 112.436 70.3717C112.062 70.1805 111.73 69.9166 111.46 69.5957C111.43 69.5679 111.407 69.5342 111.392 69.4968C111.376 69.4595 111.369 69.4192 111.37 69.3788C111.371 69.3384 111.381 69.2987 111.398 69.2622C111.416 69.2258 111.441 69.1935 111.472 69.1675C111.503 69.1414 111.539 69.1222 111.578 69.1111C111.617 69.1 111.658 69.0972 111.698 69.1029C111.738 69.1086 111.776 69.1228 111.81 69.1443C111.845 69.1659 111.874 69.1945 111.896 69.2282C112.335 69.7375 112.95 70.0617 113.619 70.1354H113.688C114.022 70.1028 114.344 69.9949 114.63 69.8199C114.917 69.6449 115.16 69.4072 115.341 69.1248C115.388 69.0647 115.458 69.0258 115.533 69.0166C115.609 69.0074 115.686 69.0288 115.746 69.076C115.806 69.1232 115.845 69.1924 115.854 69.2683C115.863 69.3442 115.842 69.4207 115.795 69.4808C115.561 69.832 115.25 70.1252 114.886 70.3381C114.522 70.551 114.114 70.6781 113.693 70.7096H113.636Z" fill="#231F20"/>
<path d="M113.033 72.6847C113.033 72.6847 115.163 72.633 116.07 72.076C116.07 72.076 114.761 74.8608 112.333 75.7336L113.033 72.6847Z" fill="#231F20"/>
<path d="M112.333 76.0207C112.263 76.0214 112.196 75.9969 112.143 75.9518C112.104 75.9176 112.074 75.8734 112.058 75.8238C112.042 75.7743 112.039 75.7212 112.051 75.6704L112.752 72.6215C112.766 72.5593 112.801 72.5037 112.851 72.4641C112.901 72.4244 112.963 72.403 113.027 72.4033C113.027 72.4033 115.089 72.3402 115.898 71.8292C115.951 71.7976 116.012 71.7838 116.073 71.7898C116.135 71.7958 116.192 71.8212 116.238 71.8623C116.283 71.9034 116.315 71.9581 116.327 72.0183C116.339 72.0784 116.332 72.141 116.306 72.1966C116.254 72.3115 114.922 75.0675 112.407 75.9977C112.383 76.0086 112.358 76.0164 112.333 76.0207ZM113.263 72.966L112.734 75.2627C113.84 74.6432 114.766 73.7469 115.422 72.6617C114.714 72.8334 113.991 72.9353 113.263 72.966Z" fill="#231F20"/>
<path d="M146.043 81.0677C146.001 81.0784 145.958 81.0784 145.916 81.0677C145.882 81.0511 145.852 81.0281 145.827 80.9998C145.802 80.9715 145.783 80.9385 145.77 80.9027C145.758 80.867 145.753 80.8292 145.755 80.7915C145.758 80.7538 145.768 80.7169 145.784 80.683C145.959 80.3378 146.046 79.9545 146.036 79.5676C146.026 79.1806 145.92 78.8023 145.727 78.4667C145.686 78.4027 145.672 78.325 145.688 78.2508C145.704 78.1765 145.749 78.1117 145.813 78.0705C145.844 78.0494 145.88 78.0349 145.917 78.0278C145.954 78.0207 145.992 78.0212 146.029 78.0292C146.066 78.0373 146.101 78.0527 146.132 78.0746C146.163 78.0965 146.189 78.1244 146.209 78.1566C146.459 78.5741 146.598 79.0482 146.614 79.5342C146.63 80.0203 146.522 80.5025 146.301 80.9356C146.274 80.979 146.236 81.0143 146.19 81.0375C146.145 81.0608 146.094 81.0712 146.043 81.0677Z" fill="#231F20"/>
<path d="M126.05 92.2526C126.05 92.2526 122.604 87.8602 120.411 85.1328L126.05 92.2526Z" fill="white"/>
<path d="M126.049 92.5398C126.005 92.5405 125.962 92.531 125.922 92.5121C125.882 92.4931 125.847 92.4653 125.82 92.4307C125.785 92.3905 122.375 88.0095 120.187 85.3166C120.139 85.2572 120.117 85.1812 120.125 85.1053C120.133 85.0294 120.171 84.9598 120.23 84.9118C120.29 84.8639 120.366 84.8414 120.441 84.8495C120.517 84.8576 120.587 84.8955 120.635 84.9549C122.811 87.6535 126.239 92.0345 126.273 92.0804C126.32 92.1407 126.34 92.2168 126.331 92.2921C126.321 92.3674 126.282 92.4358 126.222 92.4824C126.172 92.52 126.112 92.5402 126.049 92.5398Z" fill="#231F20"/>
<path d="M105.948 101.089C105.91 101.088 105.873 101.079 105.839 101.063C105.804 101.047 105.774 101.025 105.748 100.997C105.722 100.969 105.702 100.937 105.689 100.902C105.676 100.866 105.671 100.828 105.672 100.791L106.131 82.5032C106.131 82.427 106.162 82.354 106.215 82.3002C106.269 82.2463 106.342 82.2161 106.418 82.2161C106.495 82.2161 106.568 82.2463 106.621 82.3002C106.675 82.354 106.706 82.427 106.706 82.5032L106.246 100.791C106.247 100.83 106.24 100.869 106.225 100.906C106.21 100.943 106.188 100.976 106.161 101.004C106.133 101.031 106.099 101.053 106.063 101.068C106.026 101.083 105.987 101.09 105.948 101.089Z" fill="#231F20"/>
<path d="M140.53 59.4095C151.626 59.4095 160.621 50.4147 160.621 39.319C160.621 28.2233 151.626 19.2285 140.53 19.2285C129.435 19.2285 120.44 28.2233 120.44 39.319C120.44 50.4147 129.435 59.4095 140.53 59.4095Z" fill="#F14736"/>
<path d="M147.42 33.3189L149.826 30.4136C148.932 29.4232 147.833 28.6394 146.605 28.1169C145.27 27.5395 143.82 27.2736 142.367 27.3392C140.914 27.4049 139.494 27.8004 138.216 28.4958C135.483 29.8509 133.899 32.1821 133.003 35.03C132.71 35.9544 132.716 35.9544 131.728 35.9602H129.001V38.6645H132.383V40.0426H129.007V42.7584H132.687C133.835 47.283 136.31 50.418 141.087 51.1931C142.779 51.5284 144.53 51.393 146.15 50.8018C147.77 50.2105 149.196 49.186 150.274 47.8399L147.88 45.015C146.795 46.1289 145.646 47.0763 144.096 47.3117C143.354 47.4674 142.588 47.4708 141.845 47.3218C141.102 47.1728 140.397 46.8744 139.772 46.4447C138.551 45.5219 137.69 44.202 137.338 42.7125H146.008V40.0024H136.97V38.6186H146.008V35.92H137.395C138.038 33.8701 139.158 32.2739 141.196 31.5677C143.608 30.7236 145.658 31.4643 147.42 33.3189Z" fill="white"/>
<path d="M140.53 56.6019C137.112 56.6019 133.771 55.5883 130.928 53.6893C128.086 51.7902 125.871 49.091 124.563 45.933C123.255 42.775 122.913 39.3 123.58 35.9475C124.246 32.5949 125.892 29.5154 128.31 27.0984C130.727 24.6814 133.806 23.0353 137.159 22.3685C140.511 21.7016 143.986 22.0439 147.144 23.352C150.302 24.66 153.001 26.8752 154.9 29.7174C156.799 32.5595 157.813 35.901 157.813 39.3192C157.805 43.9005 155.982 48.292 152.743 51.5315C149.503 54.7711 145.112 56.5944 140.53 56.6019ZM140.53 22.6106C137.226 22.6106 133.995 23.5905 131.247 25.4265C128.5 27.2624 126.358 29.872 125.094 32.9251C123.829 35.9782 123.498 39.3377 124.143 42.5789C124.787 45.82 126.379 48.7972 128.716 51.1339C131.052 53.4707 134.029 55.062 137.271 55.7067C140.512 56.3514 143.871 56.0205 146.924 54.7559C149.977 53.4913 152.587 51.3497 154.423 48.602C156.259 45.8543 157.239 42.6238 157.239 39.3192C157.233 34.8896 155.471 30.6433 152.338 27.5111C149.206 24.379 144.96 22.6166 140.53 22.6106Z" fill="white"/>
<path d="M89.1414 59.4095C100.237 59.4095 109.232 50.4147 109.232 39.319C109.232 28.2233 100.237 19.2285 89.1414 19.2285C78.0457 19.2285 69.0508 28.2233 69.0508 39.319C69.0508 50.4147 78.0457 59.4095 89.1414 59.4095Z" fill="#F14736"/>
<path d="M87.1661 45.727C87.5659 44.9686 87.8086 44.1373 87.8797 43.2829C87.9507 42.4285 87.8486 41.5686 87.5796 40.7546H90.772V38.1019C89.5145 38.1019 88.2915 38.0559 87.0743 38.1019C86.8293 38.1408 86.5785 38.0902 86.3676 37.9595C86.1568 37.8288 86 37.6266 85.9259 37.3899C84.9268 35.3056 85.191 33.2041 86.747 31.6481C88.303 30.0921 90.7662 29.7763 92.4027 31.7974C92.9455 32.5326 93.444 33.2995 93.8955 34.0941C94.0448 34.3353 94.1539 34.5936 94.2917 34.8578L97.7368 33.3534C97.2889 32.5496 96.887 31.7629 96.4334 31.0165C95.6289 29.581 94.4345 28.4025 92.9883 27.6174C90.1576 26.1991 87.4245 26.5437 84.9498 28.3983C83.7354 29.2457 82.7857 30.4196 82.2106 31.7843C81.6355 33.1489 81.4584 34.6484 81.7 36.1095C81.7803 36.7526 81.9698 37.3842 82.1249 38.0732H79.6501V40.7316C80.8502 40.7316 82.0158 40.7316 83.1813 40.7316C83.3134 40.7316 83.5258 40.7661 83.566 40.8522C83.922 41.5757 84.3182 42.3163 84.1058 43.1489C83.8814 44.1208 83.4261 45.0244 82.7784 45.783C82.1308 46.5416 81.3098 47.1329 80.3851 47.5069L80.1439 47.6332L81.3669 50.952C81.5679 50.8774 81.7287 50.8314 81.8722 50.7683C82.521 50.4697 83.1526 50.1309 83.8129 49.8668C85.4149 49.2295 87.0456 49.0055 88.6877 49.7405C89.1011 49.9242 89.5203 50.0907 89.9394 50.2687C92.4314 51.331 94.642 50.5673 96.8296 49.2524C96.2611 48.0811 95.7444 46.9327 95.2219 45.7844C94.9348 45.9566 94.7051 46.1117 94.464 46.238C93.4017 46.8122 92.2821 47.2313 91.082 46.8122C89.882 46.393 88.5958 45.7844 87.1661 45.727Z" fill="white"/>
<path d="M89.1413 56.6019C85.7233 56.6008 82.3825 55.5862 79.5411 53.6865C76.6997 51.7867 74.4854 49.0871 73.1782 45.929C71.871 42.7709 71.5295 39.2961 72.1971 35.9439C72.8646 32.5918 74.511 29.5128 76.9283 27.0964C79.3456 24.6799 82.4251 23.0344 85.7775 22.368C89.1298 21.7017 92.6045 22.0442 95.7622 23.3525C98.9199 24.6608 101.619 26.8759 103.518 29.718C105.416 32.56 106.43 35.9012 106.43 39.3192C106.424 43.902 104.6 48.2953 101.359 51.5353C98.118 54.7752 93.7241 56.5974 89.1413 56.6019ZM89.1413 22.6106C85.8369 22.6117 82.607 23.5926 79.8601 25.4293C77.1131 27.2659 74.9724 29.8758 73.7087 32.929C72.4449 35.9822 72.1148 39.3416 72.7602 42.5824C73.4055 45.8231 74.9973 48.7998 77.3343 51.136C79.6713 53.4721 82.6485 55.0629 85.8895 55.7071C89.1305 56.3514 92.4897 56.0202 95.5425 54.7554C98.5952 53.4905 101.204 51.349 103.04 48.6014C104.876 45.8538 105.856 42.6236 105.856 39.3192C105.851 34.8882 104.088 30.6401 100.955 27.5074C97.821 24.3748 93.5723 22.6136 89.1413 22.6106Z" fill="white"/>
<path d="M52.5489 91.5005C63.6446 91.5005 72.6394 82.5057 72.6394 71.41C72.6394 60.3143 63.6446 51.3195 52.5489 51.3195C41.4532 51.3195 32.4584 60.3143 32.4584 71.41C32.4584 82.5057 41.4532 91.5005 52.5489 91.5005Z" fill="#F14736"/>
<path d="M57.5559 71.2377C56.643 70.7449 55.7059 70.2984 54.7481 69.8999C54.6532 69.8723 54.5709 69.8125 54.5154 69.7307C54.4598 69.649 54.4345 69.5504 54.4438 69.452C54.4438 67.8042 54.4438 66.1563 54.4438 64.5084C54.4515 64.437 54.463 64.3661 54.4783 64.2959C55.6782 64.6763 56.7559 65.3677 57.6018 66.2998C58.4114 65.3639 59.1693 64.4739 59.9444 63.5725C58.5865 62.049 56.7749 61.0023 54.7768 60.5867C54.4897 60.5236 54.3979 60.4202 54.4094 60.1274C54.4094 59.5532 54.4094 58.979 54.4094 58.3302H51.4236V60.3685C50.6435 60.5928 49.8766 60.8612 49.1269 61.1724C47.0139 62.2174 45.6818 63.8538 45.5727 66.2998C45.4637 68.7458 46.6235 70.3937 48.6331 71.5535C49.4519 71.9954 50.2933 72.3941 51.1538 72.7478C51.2499 72.7734 51.3336 72.8327 51.3894 72.915C51.4453 72.9973 51.4697 73.0969 51.4581 73.1957C51.4581 74.5622 51.4581 75.9173 51.4581 77.2781V79.0293C49.8766 78.7193 48.4256 77.9388 47.2953 76.79L44.723 79.6035C46.5238 81.4031 48.895 82.5196 51.4294 82.7615V84.484H54.4438V82.6524L54.8744 82.5433C55.7827 82.3305 56.6511 81.9739 57.4468 81.4868C61.2306 79.1671 61.4373 73.5517 57.5559 71.2377ZM51.4064 68.3668C50.9148 68.2505 50.4743 67.9776 50.1512 67.5893C49.8282 67.201 49.64 66.7182 49.615 66.2137C49.6283 65.7265 49.8167 65.2603 50.1457 64.9007C50.4747 64.5411 50.9223 64.3122 51.4064 64.2557V68.3668ZM54.4725 78.771C54.4725 78.6906 54.4438 78.6102 54.4438 78.5298V74.2407C54.9615 74.36 55.4227 74.653 55.7507 75.0708C56.0787 75.4887 56.2537 76.0062 56.2467 76.5374C56.25 77.0581 56.0761 77.5645 55.7538 77.9735C55.4314 78.3825 54.9796 78.6697 54.4725 78.7882V78.771Z" fill="white"/>
<path d="M52.5489 88.6928C49.1307 88.6928 45.7892 87.6792 42.9471 85.7801C40.105 83.881 37.8898 81.1818 36.5817 78.0238C35.2736 74.8658 34.9313 71.3908 35.5982 68.0383C36.2651 64.6858 37.9111 61.6063 40.3281 59.1892C42.7452 56.7722 45.8247 55.1261 49.1772 54.4593C52.5297 53.7924 56.0047 54.1347 59.1627 55.4428C62.3208 56.7509 65.02 58.966 66.919 61.8082C68.8181 64.6503 69.8317 67.9918 69.8317 71.41C69.8256 75.9918 68.0028 80.3842 64.763 83.624C61.5231 86.8639 57.1307 88.6867 52.5489 88.6928ZM52.5489 54.7014C49.2443 54.7014 46.0138 55.6813 43.2661 57.5173C40.5184 59.3533 38.3768 61.9628 37.1122 65.0159C35.8475 68.069 35.5166 71.4285 36.1614 74.6697C36.8061 77.9108 38.3974 80.888 40.7341 83.2248C43.0709 85.5615 46.0481 87.1528 49.2892 87.7975C52.5304 88.4422 55.8899 88.1114 58.943 86.8467C61.9961 85.5821 64.6056 83.4405 66.4416 80.6928C68.2776 77.9451 69.2575 74.7146 69.2575 71.41C69.2529 66.98 67.4911 62.7327 64.3586 59.6003C61.2262 56.4678 56.9789 54.7059 52.5489 54.7014Z" fill="white"/>
<path d="M177.123 91.5005C188.218 91.5005 197.213 82.5057 197.213 71.41C197.213 60.3143 188.218 51.3195 177.123 51.3195C166.027 51.3195 157.032 60.3143 157.032 71.41C157.032 82.5057 166.027 91.5005 177.123 91.5005Z" fill="#F14736"/>
<path d="M186.223 61.0518L180.367 71.9267H185.19V74.4933H179.632V75.7794H185.184V78.346H179.62V84.4266H174.659V78.392H169.078V75.8196H174.631V74.4933H169.084V71.9382H173.902C171.926 68.2807 169.991 64.6863 168.028 61.0288H170.393C171.272 61.0288 172.15 61.0288 173.029 61.0288C173.127 61.0144 173.227 61.0369 173.31 61.092C173.393 61.1472 173.452 61.231 173.477 61.3274C174.625 64.0069 175.783 66.6711 176.95 69.3199C176.996 69.429 177.054 69.5266 177.146 69.7104C177.249 69.4979 177.318 69.3716 177.375 69.2395C178.547 66.6098 179.72 63.982 180.895 61.3561C180.958 61.224 181.125 61.046 181.245 61.0403C182.882 61.046 184.512 61.0518 186.223 61.0518Z" fill="white"/>
<path d="M177.123 88.6928C173.705 88.6928 170.363 87.6792 167.521 85.7801C164.679 83.881 162.464 81.1818 161.156 78.0238C159.847 74.8658 159.505 71.3908 160.172 68.0383C160.839 64.6858 162.485 61.6063 164.902 59.1892C167.319 56.7722 170.399 55.1261 173.751 54.4593C177.104 53.7924 180.579 54.1347 183.737 55.4428C186.895 56.7509 189.594 58.966 191.493 61.8082C193.392 64.6503 194.406 67.9918 194.406 71.41C194.399 75.9918 192.577 80.3842 189.337 83.624C186.097 86.8639 181.705 88.6867 177.123 88.6928ZM177.123 54.7014C173.818 54.7014 170.588 55.6813 167.84 57.5173C165.092 59.3533 162.951 61.9628 161.686 65.0159C160.421 68.069 160.09 71.4285 160.735 74.6697C161.38 77.9108 162.971 80.888 165.308 83.2248C167.645 85.5615 170.622 87.1528 173.863 87.7975C177.104 88.4422 180.464 88.1114 183.517 86.8467C186.57 85.5821 189.179 83.4405 191.015 80.6928C192.851 77.9451 193.831 74.7146 193.831 71.41C193.827 66.98 192.065 62.7327 188.932 59.6003C185.8 56.4678 181.553 54.7059 177.123 54.7014Z" fill="white"/>
</svg>
