<svg width="230" height="174" viewBox="0 0 230 174" fill="none" xmlns="http://www.w3.org/2000/svg">
<path d="M201.181 121.478H30.6496C30.5734 121.478 30.5004 121.448 30.4466 121.394C30.3927 121.34 30.3625 121.267 30.3625 121.191C30.3625 121.115 30.3927 121.042 30.4466 120.988C30.5004 120.934 30.5734 120.904 30.6496 120.904H201.181C201.257 120.904 201.33 120.934 201.384 120.988C201.438 121.042 201.468 121.115 201.468 121.191C201.468 121.267 201.438 121.34 201.384 121.394C201.33 121.448 201.257 121.478 201.181 121.478Z" fill="#D1D3D4"/>
<path d="M133.497 134.099C133.39 134.099 133.285 134.08 133.186 134.041L117.109 127.823L101.032 134.041C100.819 134.124 100.582 134.118 100.373 134.025C100.164 133.933 100.001 133.761 99.9185 133.548C99.8363 133.334 99.8421 133.097 99.9347 132.888C100.027 132.679 100.199 132.516 100.412 132.434L116.558 126.169C116.896 126.037 117.271 126.037 117.609 126.169L133.784 132.434C133.971 132.506 134.128 132.642 134.226 132.817C134.324 132.993 134.358 133.197 134.321 133.395C134.284 133.593 134.179 133.772 134.025 133.9C133.87 134.029 133.675 134.099 133.474 134.099H133.497Z" fill="#231F20"/>
<path d="M115.915 96.4556H118.453V124.544C118.453 124.697 118.393 124.843 118.285 124.95C118.177 125.058 118.031 125.119 117.879 125.119H116.535C116.383 125.119 116.237 125.058 116.129 124.95C116.022 124.843 115.961 124.697 115.961 124.544V96.4556H115.915Z" fill="white"/>
<path d="M117.85 125.429H116.507C116.273 125.427 116.05 125.333 115.885 125.168C115.72 125.002 115.628 124.778 115.628 124.544V96.4557C115.628 96.3795 115.658 96.3065 115.712 96.2527C115.766 96.1988 115.839 96.1686 115.915 96.1686H118.447C118.523 96.1686 118.596 96.1988 118.65 96.2527C118.704 96.3065 118.734 96.3795 118.734 96.4557V124.544C118.734 124.779 118.641 125.004 118.475 125.17C118.31 125.336 118.085 125.429 117.85 125.429ZM116.202 96.7198V124.522C116.202 124.603 116.234 124.681 116.291 124.739C116.348 124.797 116.425 124.83 116.507 124.832H117.85C117.932 124.832 118.011 124.799 118.069 124.741C118.127 124.683 118.16 124.604 118.16 124.522V96.7428L116.202 96.7198Z" fill="#231F20"/>
<path d="M117.672 125.142H116.684C115.787 125.142 115.06 125.868 115.06 126.764C115.06 127.659 115.787 128.386 116.684 128.386H117.672C118.569 128.386 119.297 127.659 119.297 126.764C119.297 125.868 118.569 125.142 117.672 125.142Z" fill="white"/>
<path d="M117.707 128.673H116.713C116.454 128.687 116.194 128.648 115.95 128.559C115.706 128.469 115.483 128.331 115.294 128.152C115.105 127.974 114.955 127.758 114.852 127.52C114.749 127.281 114.696 127.024 114.696 126.764C114.696 126.504 114.749 126.247 114.852 126.008C114.955 125.769 115.105 125.554 115.294 125.375C115.483 125.196 115.706 125.058 115.95 124.969C116.194 124.879 116.454 124.84 116.713 124.855H117.707C118.195 124.881 118.654 125.094 118.99 125.449C119.326 125.804 119.514 126.275 119.514 126.764C119.514 127.253 119.326 127.723 118.99 128.078C118.654 128.433 118.195 128.646 117.707 128.673ZM116.713 125.429C116.531 125.417 116.347 125.442 116.175 125.504C116.003 125.566 115.845 125.662 115.711 125.787C115.577 125.912 115.471 126.064 115.398 126.232C115.325 126.4 115.288 126.581 115.288 126.764C115.288 126.947 115.325 127.128 115.398 127.296C115.471 127.464 115.577 127.615 115.711 127.74C115.845 127.865 116.003 127.962 116.175 128.023C116.347 128.085 116.531 128.111 116.713 128.099H117.707C118.045 128.076 118.363 127.926 118.595 127.678C118.828 127.43 118.957 127.103 118.957 126.764C118.957 126.424 118.828 126.097 118.595 125.849C118.363 125.601 118.045 125.451 117.707 125.429H116.713Z" fill="#231F20"/>
<path d="M163.377 34.0424H68.4879V95.3474H163.377V34.0424Z" fill="white"/>
<path d="M163.371 95.6346H68.488C68.4119 95.6346 68.3389 95.6044 68.285 95.5505C68.2312 95.4967 68.2009 95.4237 68.2009 95.3475V34.0425C68.2009 33.9663 68.2312 33.8933 68.285 33.8395C68.3389 33.7856 68.4119 33.7554 68.488 33.7554H163.371C163.447 33.7554 163.52 33.7856 163.574 33.8395C163.628 33.8933 163.658 33.9663 163.658 34.0425V95.3475C163.658 95.4237 163.628 95.4967 163.574 95.5505C163.52 95.6044 163.447 95.6346 163.371 95.6346ZM68.7751 95.0604H163.067V34.3295H68.7751V95.0604Z" fill="#231F20"/>
<path d="M165.754 31.1772H66.0764V34.0424H165.754V31.1772Z" fill="white"/>
<path d="M165.748 34.3295H66.0763C66.0002 34.3295 65.9272 34.2992 65.8733 34.2454C65.8195 34.1915 65.7892 34.1185 65.7892 34.0424V31.1715C65.7892 31.0953 65.8195 31.0223 65.8733 30.9685C65.9272 30.9146 66.0002 30.8844 66.0763 30.8844H165.748C165.824 30.8844 165.897 30.9146 165.951 30.9685C166.005 31.0223 166.035 31.0953 166.035 31.1715V34.0424C166.035 34.1185 166.005 34.1915 165.951 34.2454C165.897 34.2992 165.824 34.3295 165.748 34.3295ZM66.3634 33.7553H165.461V31.4586H66.3634V33.7553Z" fill="#231F20"/>
<path d="M165.754 95.3474H66.0764V98.2126H165.754V95.3474Z" fill="white"/>
<path d="M165.748 98.4996H66.0763C66.0002 98.4996 65.9272 98.4694 65.8733 98.4156C65.8195 98.3617 65.7892 98.2887 65.7892 98.2125V95.3417C65.7892 95.2655 65.8195 95.1925 65.8733 95.1387C65.9272 95.0848 66.0002 95.0546 66.0763 95.0546H165.748C165.824 95.0546 165.897 95.0848 165.951 95.1387C166.005 95.1925 166.035 95.2655 166.035 95.3417V98.2125C166.035 98.2887 166.005 98.3617 165.951 98.4156C165.897 98.4694 165.824 98.4996 165.748 98.4996ZM66.3634 97.9255H165.461V95.6287H66.3634V97.9255Z" fill="#231F20"/>
<path d="M117.178 134.099C116.95 134.099 116.731 134.008 116.569 133.847C116.408 133.685 116.317 133.466 116.317 133.238V126.744C116.317 126.515 116.408 126.296 116.569 126.135C116.731 125.973 116.95 125.882 117.178 125.882C117.407 125.882 117.626 125.973 117.787 126.135C117.949 126.296 118.04 126.515 118.04 126.744V133.215C118.043 133.33 118.023 133.444 117.981 133.551C117.939 133.658 117.876 133.756 117.796 133.838C117.715 133.921 117.619 133.986 117.513 134.031C117.407 134.076 117.293 134.099 117.178 134.099Z" fill="#231F20"/>
<path d="M46.2902 34.1285C44.632 34.3624 43.1101 35.1756 41.994 36.4241C40.8779 37.6726 40.2397 39.2758 40.1924 40.9497C40.112 42.5861 40.5024 44.3948 39.6182 45.7556C38.9177 46.8465 37.5971 47.3575 36.6899 48.282C36.1482 48.8398 35.7624 49.5301 35.571 50.2837C35.3795 51.0374 35.3892 51.8281 35.599 52.5768C35.8229 53.3175 36.242 54.0238 36.2076 54.7932C36.1617 55.9013 35.2315 56.7281 34.5884 57.6296C32.3261 60.8048 33.7903 65.6107 36.9425 67.9017C40.0948 70.1926 44.338 70.4223 48.162 69.6931C51.5569 69.1062 54.7531 67.6857 57.4637 65.559C59.0197 64.2958 60.4552 62.3895 59.9441 60.4488C59.4331 58.5081 57.2914 57.4574 56.7689 55.5683C56.3785 54.1616 56.9871 52.6974 57.3431 51.2964C58.2962 47.5068 57.4178 43.4876 56.2694 39.7439C55.6952 37.8779 55.2761 35.5639 53.3066 34.8806C52.4626 34.5936 51.4291 35.2596 51.4291 35.2596C51.0271 34.0538 47.5763 33.9045 46.2902 34.1285Z" fill="white"/>
<path d="M44.4069 70.3248C41.6954 70.4132 39.0256 69.6392 36.7818 68.1142C33.6698 65.8175 31.9128 60.9197 34.3703 57.4804C34.5253 57.2622 34.6976 57.044 34.8756 56.8259C35.4038 56.1655 35.9091 55.5397 35.9435 54.7818C35.926 54.2869 35.8089 53.8006 35.599 53.3521C35.5072 53.1167 35.421 52.887 35.3521 52.6516C35.1242 51.8588 35.1104 51.0199 35.3121 50.22C35.5138 49.4202 35.9239 48.6882 36.5005 48.0983C36.8973 47.7194 37.3278 47.3773 37.7866 47.0763C38.4088 46.6945 38.9525 46.1976 39.3886 45.6121C39.9915 44.6705 39.9628 43.5164 39.9283 42.2934C39.9283 41.8455 39.9283 41.3804 39.9283 40.9326C39.9846 39.2012 40.6482 37.5449 41.8029 36.2536C42.9577 34.9624 44.53 34.1187 46.2443 33.8702C47.3065 33.6864 50.6884 33.6807 51.5382 34.898C52.1021 34.5763 52.7674 34.4818 53.3986 34.6338C55.2474 35.2712 55.8101 37.2176 56.3097 38.9344C56.3843 39.1813 56.4532 39.4282 56.5278 39.6694C57.6303 43.2006 58.6178 47.3519 57.6016 51.3597C57.5327 51.641 57.4523 51.9338 57.3719 52.198C57.0561 53.3004 56.7345 54.4373 57.0274 55.4938C57.3547 56.3657 57.8772 57.1513 58.5547 57.7905C59.3019 58.5015 59.8671 59.3818 60.2026 60.357C60.8457 62.8088 58.6236 64.9505 57.636 65.7428C54.8939 67.8963 51.6638 69.3417 48.231 69.9516C46.971 70.1973 45.6906 70.3223 44.4069 70.3248ZM46.3362 34.3869C44.7399 34.6198 43.276 35.4054 42.1995 36.6068C41.123 37.8082 40.5021 39.3492 40.4451 40.9613C40.4451 41.3862 40.4451 41.8398 40.4451 42.2762C40.4795 43.5279 40.514 44.8198 39.825 45.8992C39.3495 46.5423 38.755 47.0881 38.0737 47.5069C37.6418 47.7894 37.2363 48.1103 36.8622 48.4658C36.3603 48.9911 36.003 49.6373 35.8249 50.3416C35.6468 51.0459 35.654 51.7844 35.8459 52.4851C35.9148 52.709 35.9952 52.9272 36.0813 53.1454C36.322 53.6602 36.453 54.2194 36.466 54.7875C36.4258 55.7177 35.8459 56.4412 35.2832 57.1416C35.111 57.3484 34.9445 57.5551 34.7952 57.7675C32.9693 60.3283 33.4573 65.0309 37.0919 67.6721C39.7848 69.6415 43.7007 70.2559 48.1104 69.3946C51.4628 68.8166 54.6193 67.4159 57.2972 65.318C58.2044 64.5773 60.2543 62.6308 59.6916 60.4719C59.3717 59.5798 58.8465 58.7753 58.1585 58.1235C57.424 57.4189 56.8621 56.5544 56.5164 55.5971C56.1833 54.3971 56.5164 53.1856 56.8609 52.0142C56.9412 51.7386 57.0216 51.4401 57.0905 51.1932C58.0666 47.3117 57.0905 43.2465 56.0226 39.7842L55.7986 39.0435C55.3163 37.3669 54.811 35.6387 53.2263 35.0932C52.6532 34.9953 52.0643 35.1184 51.5784 35.4377C51.545 35.4601 51.5068 35.4743 51.467 35.4794C51.4271 35.4844 51.3866 35.48 51.3487 35.4666C51.3107 35.4533 51.2765 35.4312 51.2486 35.4023C51.2207 35.3733 51.1999 35.3383 51.188 35.2999C50.8779 34.3697 47.7888 34.0941 46.3419 34.3468L46.3362 34.3869Z" fill="#231F20"/>
<path d="M52.5831 132.158L53.1573 138.853C53.1573 138.853 62.9183 140.575 65.439 140.575C67.9596 140.575 67.7357 139.06 63.8542 136.746C62.2142 135.713 60.3821 135.024 58.4684 134.719L58.1641 131.601L52.5831 132.158Z" fill="white"/>
<path d="M65.4104 140.851C62.8898 140.851 53.479 139.18 53.0828 139.129C53.0255 139.117 52.9736 139.087 52.9343 139.044C52.8951 139 52.8707 138.946 52.8646 138.887L52.3249 132.193C52.32 132.124 52.3419 132.057 52.3858 132.004C52.4297 131.952 52.4922 131.918 52.5603 131.911L58.1069 131.371C58.1413 131.367 58.1761 131.37 58.2093 131.38C58.2426 131.39 58.2735 131.406 58.3003 131.428C58.3271 131.45 58.3492 131.477 58.3652 131.508C58.3813 131.539 58.3911 131.572 58.3939 131.607L58.681 134.512C60.5509 134.859 62.3401 135.55 63.9577 136.551C65.6458 137.555 67.598 138.979 67.3052 140.053C67.1789 140.576 66.5186 140.851 65.4104 140.851ZM53.3986 138.629C54.7996 138.876 63.1596 140.352 65.4563 140.352C66.2545 140.352 66.7712 140.191 66.8459 139.921C66.9607 139.496 66.2143 138.486 63.7338 137.01C62.1293 135.997 60.3363 135.319 58.4628 135.017C58.4029 135.01 58.3472 134.983 58.3045 134.94C58.2618 134.898 58.2347 134.842 58.2274 134.782L57.9461 131.911L52.9163 132.405L53.3986 138.629Z" fill="#231F20"/>
<path d="M39.2795 132.261C38.9561 133.661 38.8458 135.101 38.9522 136.533C39.1991 138.376 39.3254 140.857 38.8891 142.344C38.4527 143.831 36.5521 145.399 35.065 144.411C33.5779 143.423 33.664 138.709 33.9167 137.469C34.1693 136.229 34.8239 133.008 34.7435 131.268L39.2795 132.261Z" fill="white"/>
<path d="M36.0756 144.985C35.666 144.983 35.2663 144.859 34.9272 144.629C33.2047 143.481 33.4688 138.371 33.6583 137.417V137.28C33.9167 135.976 34.5311 132.927 34.4507 131.285C34.4489 131.245 34.4562 131.205 34.4721 131.168C34.488 131.132 34.5121 131.099 34.5425 131.073C34.5735 131.046 34.6105 131.026 34.6504 131.016C34.6904 131.006 34.7321 131.006 34.7722 131.015L39.314 132.009C39.3479 132.016 39.3801 132.03 39.4087 132.05C39.4372 132.069 39.4616 132.094 39.4805 132.124C39.5002 132.153 39.5135 132.186 39.5194 132.22C39.5254 132.255 39.5238 132.291 39.5149 132.325C39.1982 133.692 39.0879 135.099 39.1876 136.499C39.3082 137.412 39.67 140.518 39.1187 142.419C38.9456 142.959 38.6558 143.456 38.2698 143.872C37.8839 144.289 37.4112 144.616 36.8852 144.83C36.6262 144.928 36.3523 144.98 36.0756 144.985ZM35.0249 131.595C34.9113 133.544 34.6386 135.479 34.2095 137.383V137.521C33.9511 138.79 33.9224 143.303 35.2545 144.193C35.476 144.337 35.729 144.425 35.9919 144.45C36.2549 144.475 36.52 144.436 36.7646 144.336C37.2143 144.151 37.6183 143.871 37.9485 143.514C38.2787 143.157 38.5272 142.732 38.6766 142.269C39.1991 140.484 38.8489 137.452 38.7283 136.568C38.6161 135.193 38.7109 133.809 39.0097 132.462L35.0249 131.595Z" fill="#231F20"/>
<path d="M45.5207 75.3317C46.3705 74.7977 58.7268 74.413 58.7268 74.413C58.7268 74.413 59.5594 115.518 58.5029 133.318H52.3247C52.3247 133.318 46.1581 106.728 47.2203 97.3399C47.2203 97.3399 40.4105 123.752 40.1694 134.145H33.1472C33.1472 134.145 32.1136 109.869 34.6687 99.1199C37.2238 88.3713 45.5207 75.3317 45.5207 75.3317Z" fill="#231F20"/>
<path d="M40.1924 134.397H33.1472C33.0821 134.397 33.0195 134.372 32.9725 134.327C32.9254 134.283 32.8975 134.221 32.8946 134.156C32.8946 133.915 31.8897 109.719 34.4219 99.0623C36.954 88.4056 45.2222 75.3258 45.3313 75.1937C45.3551 75.1642 45.3821 75.1372 45.4116 75.1133C46.2787 74.5736 56.6656 74.2291 58.7383 74.1602C58.7726 74.1581 58.8069 74.1638 58.8387 74.1767C58.8705 74.1896 58.899 74.2095 58.9221 74.2349C58.9474 74.257 58.9677 74.2844 58.9816 74.3151C58.9955 74.3458 59.0026 74.3792 59.0025 74.4129C59.0025 74.8205 59.8235 115.725 58.7785 133.329C58.7742 133.394 58.7459 133.454 58.6991 133.499C58.6524 133.544 58.5905 133.569 58.5259 133.57H52.3248C52.2679 133.57 52.2128 133.55 52.1682 133.515C52.1235 133.48 52.0918 133.43 52.0779 133.375C52.0262 133.128 46.8528 110.724 46.8471 99.8719C45.1648 106.687 40.6173 125.79 40.422 134.15C40.4209 134.213 40.3968 134.272 40.3544 134.318C40.312 134.363 40.2543 134.392 40.1924 134.397ZM33.4171 133.892H39.9225C40.2613 123.448 46.9103 97.535 46.9734 97.2766C46.9791 97.2438 46.9911 97.2125 47.0089 97.1843C47.0267 97.1562 47.0498 97.1318 47.077 97.1127C47.1042 97.0935 47.1349 97.0798 47.1674 97.0725C47.1999 97.0652 47.2334 97.0643 47.2662 97.07C47.299 97.0756 47.3304 97.0877 47.3586 97.1054C47.3867 97.1232 47.411 97.1464 47.4302 97.1736C47.4494 97.2007 47.4631 97.2314 47.4704 97.2639C47.4777 97.2964 47.4786 97.33 47.473 97.3628C46.4739 106.182 51.9688 130.619 52.5315 133.059H58.2733C59.2551 116.087 58.5546 78.168 58.4914 74.677C53.8234 74.8263 46.5485 75.1765 45.7102 75.521C45.0959 76.4741 37.3215 88.9625 34.9099 99.1829C32.5328 109.197 33.3022 131.337 33.3941 133.892H33.4171Z" fill="#231F20"/>
<path d="M49.5171 52.8123C49.5171 52.8123 55.4828 56.1655 56.6369 61.9417C57.791 67.7179 56.4933 80.6944 56.4933 80.6944L41.7369 80.08C41.7369 80.08 43.1781 63.7217 41.7369 59.134C40.2958 54.5463 40.5541 55.6889 41.9551 55.2525C43.3561 54.8161 46.9218 49.9356 49.5171 52.8123Z" fill="#231F20"/>
<path d="M56.4934 80.9528L41.737 80.3385C41.7021 80.3376 41.6677 80.3295 41.6361 80.3147C41.6045 80.2998 41.5763 80.2786 41.5533 80.2523C41.5314 80.2263 41.5151 80.196 41.5052 80.1635C41.4954 80.1309 41.4922 80.0967 41.4959 80.0629C41.4959 79.9021 42.9141 63.7045 41.4959 59.2144L41.2432 58.4163C40.537 56.1943 40.3934 55.7349 40.6059 55.4076C40.6824 55.3194 40.778 55.2498 40.8855 55.204C40.9929 55.1583 41.1094 55.1376 41.226 55.1435C41.4466 55.128 41.6645 55.0856 41.8748 55.0172C42.4166 54.7326 42.917 54.3752 43.3619 53.955C45.0845 52.5367 47.6338 50.395 49.6779 52.6171C50.2521 52.9329 55.7527 56.2459 56.8838 61.9016C58.0322 67.6434 56.7575 80.5969 56.746 80.7289C56.739 80.7908 56.7093 80.8479 56.6626 80.8893C56.616 80.9306 56.5557 80.9532 56.4934 80.9528ZM42.0069 79.8389L56.2637 80.4131C56.4302 78.6217 57.4408 67.207 56.3901 61.9705C55.2704 56.3952 49.4482 53.065 49.3793 53.0305C49.3546 53.0184 49.3329 53.0007 49.3162 52.9789C47.5936 51.0726 45.2969 52.9789 43.672 54.3397C43.1861 54.8062 42.6301 55.1937 42.0241 55.488C41.7788 55.5619 41.5269 55.6119 41.2719 55.6373C41.1822 55.6407 41.0934 55.6562 41.0078 55.6832C40.9504 55.8325 41.2375 56.7455 41.714 58.2556L41.9667 59.0537C43.3332 63.3772 42.1964 77.6398 42.0069 79.8389Z" fill="#231F20"/>
<path d="M49.3448 50.8773C49.3448 50.8773 50.4931 50.8773 51.5554 53.174C52.5487 55.0401 53.7545 102.054 53.7545 102.054H63.8715C63.8715 102.054 59.7145 66.7247 58.7039 61.6547C58.264 59.1799 57.1613 56.8708 55.5133 54.973C53.8652 53.0752 51.7334 51.6598 49.3448 50.8773Z" fill="#F14736"/>
<path d="M51.0214 51.5261C51.0214 51.5261 55.8388 53.3003 57.7738 55.1033C59.7087 56.9062 68.0803 72.5181 68.0803 72.5181L62.6198 75.389L55.9881 67.3505" fill="#F14736"/>
<path d="M60.6618 72.7708C60.4034 72.7708 59.8637 72.7248 58.0034 59.9149C57.9951 59.8459 58.0137 59.7763 58.0554 59.7207C58.0971 59.665 58.1587 59.6277 58.2273 59.6163C58.2963 59.608 58.3659 59.6266 58.4215 59.6684C58.4772 59.7101 58.5145 59.7717 58.5259 59.8403C59.1403 64.1007 60.2484 70.8875 60.7307 72.1334C60.763 72.1275 60.7961 72.1275 60.8283 72.1334C60.8618 72.14 60.8936 72.1536 60.9216 72.1731C60.9496 72.1926 60.9733 72.2177 60.9911 72.2469C61.0089 72.276 61.0205 72.3085 61.0251 72.3424C61.0297 72.3762 61.0272 72.4106 61.0178 72.4435C60.9259 72.7363 60.7652 72.7708 60.6618 72.7708Z" fill="#231F20"/>
<path d="M51.7679 50.4753V54.9884C51.7679 54.9884 51.3086 57.509 48.564 56.7109C47.7546 56.476 47.0076 56.0642 46.377 55.5051C45.7464 54.946 45.2481 54.2537 44.918 53.4783L45.228 45.6637C45.5864 44.2968 45.7392 42.8841 45.6816 41.4722C49.0463 41.4492 51.676 38.9343 51.676 38.9343C51.676 38.9343 52.8244 40.6569 53.3182 41.1966C53.7159 41.6072 54.0629 42.0641 54.3517 42.5574C54.7339 43.4791 54.88 44.4817 54.7766 45.4742C54.7643 46.615 54.6509 47.7525 54.4378 48.8734C53.9728 50.9978 51.7679 50.4753 51.7679 50.4753Z" fill="white"/>
<path d="M49.5687 57.1473C49.2149 57.1436 48.8633 57.0914 48.5237 56.9923C47.6717 56.7496 46.8855 56.318 46.2234 55.7295C45.5613 55.141 45.0405 54.4108 44.6996 53.5931C44.6937 53.5609 44.6937 53.5278 44.6996 53.4955C44.6996 53.4955 45.0097 45.7384 45.0154 45.6809C45.0273 45.5425 45.0543 45.4058 45.0958 45.2733C45.4016 44.0424 45.5254 42.7734 45.4633 41.5067C45.4617 41.472 45.4673 41.4375 45.4796 41.4051C45.492 41.3727 45.5108 41.3432 45.5351 41.3184C45.5593 41.2937 45.5884 41.2741 45.6205 41.2611C45.6526 41.248 45.687 41.2417 45.7217 41.2425C48.9199 41.1909 51.4635 38.7678 51.5037 38.7449C51.5316 38.7179 51.5651 38.6972 51.6017 38.6843C51.6384 38.6714 51.6774 38.6666 51.7161 38.6702C51.7537 38.6759 51.7898 38.6889 51.8224 38.7086C51.8549 38.7283 51.8832 38.7543 51.9056 38.7851C51.9056 38.7851 53.0539 40.5076 53.5248 41.0244C53.9408 41.4466 54.2998 41.9215 54.5927 42.4368C54.9977 43.3969 55.1537 44.4436 55.0463 45.48C55.039 46.6366 54.9236 47.7899 54.7018 48.9251C54.6539 49.2289 54.5435 49.5195 54.3774 49.7785C54.2114 50.0374 53.9934 50.2591 53.7372 50.4294C53.2266 50.7241 52.6348 50.8468 52.0491 50.7796V54.9884C51.9179 55.7168 51.5054 56.3644 50.9008 56.7913C50.5007 57.0368 50.0379 57.1605 49.5687 57.1473ZM45.2107 53.4611C45.5315 54.1848 46.0058 54.8303 46.6006 55.3527C47.1954 55.8752 47.8966 56.2622 48.6557 56.487C48.9433 56.6149 49.2563 56.6752 49.5708 56.6634C49.8852 56.6516 50.1928 56.5679 50.47 56.4188C50.7471 56.2697 50.9864 56.0591 51.1696 55.8032C51.3528 55.5473 51.4749 55.2529 51.5266 54.9424L51.4922 50.4753C51.4919 50.4358 51.5006 50.3967 51.5175 50.3609C51.5344 50.3251 51.5591 50.2936 51.5898 50.2686C51.6206 50.2433 51.6568 50.2255 51.6957 50.2165C51.7345 50.2076 51.7749 50.2077 51.8137 50.217C52.3637 50.3333 52.937 50.252 53.4329 49.9873C53.626 49.8554 53.7903 49.6856 53.9157 49.4881C54.041 49.2907 54.1249 49.0698 54.1621 48.8389C54.3744 47.7355 54.4858 46.6151 54.4951 45.4915C54.5998 44.5452 54.4655 43.5877 54.1047 42.7067C53.826 42.2329 53.4926 41.7935 53.1114 41.3976C52.7152 40.9669 51.963 39.853 51.607 39.3535C50.0249 40.7219 48.0565 41.5646 45.9743 41.765C46.0167 42.9946 45.8853 44.224 45.5839 45.4168C45.554 45.5143 45.5329 45.6142 45.5207 45.7154C45.5207 45.7154 45.515 45.8417 45.2107 53.4611Z" fill="#231F20"/>
<path d="M51.7392 52.6746C50.6258 52.6935 49.5481 52.2821 48.7305 51.5262C48.3957 51.2145 48.1325 50.8339 47.959 50.4106C47.7856 49.9873 47.7059 49.5315 47.7257 49.0745C48.9326 49.8555 50.3126 50.3287 51.7449 50.4525L51.7392 52.6746Z" fill="#231F20"/>
<path d="M51.676 52.9443C50.5194 52.952 49.4037 52.5164 48.5583 51.727C48.1954 51.3887 47.9116 50.9746 47.727 50.5141C47.5425 50.0536 47.4616 49.5581 47.4903 49.0629C47.4965 49.0203 47.5135 48.98 47.5396 48.9459C47.5657 48.9117 47.6001 48.8848 47.6396 48.8676C47.6767 48.848 47.7181 48.8378 47.7601 48.8378C47.8022 48.8378 47.8436 48.848 47.8807 48.8676C49.0551 49.6214 50.395 50.0786 51.7851 50.1997C51.8511 50.2012 51.9139 50.2285 51.9601 50.2757C52.0062 50.3229 52.0321 50.3863 52.032 50.4524V52.6687C52.0328 52.7011 52.0272 52.7334 52.0155 52.7636C52.0037 52.7939 51.9862 52.8215 51.9638 52.845C51.9414 52.8684 51.9146 52.8873 51.8849 52.9004C51.8553 52.9135 51.8233 52.9206 51.7909 52.9213L51.676 52.9443ZM48.0013 49.5566C48.1015 50.2483 48.4263 50.8879 48.9257 51.3768C49.6291 52.029 50.545 52.4043 51.5038 52.4333V50.7107C50.264 50.5791 49.0663 50.1857 47.9898 49.5566H48.0013Z" fill="#231F20"/>
<path d="M50.677 43.746C50.677 43.746 52.1297 45.9164 51.7852 46.2953C51.4407 46.6743 50.476 46.4216 50.476 46.4216" fill="white"/>
<path d="M51.1017 46.7547C50.8659 46.7509 50.631 46.722 50.4012 46.6685C50.3363 46.651 50.2807 46.6088 50.2464 46.5508C50.2121 46.4929 50.2017 46.4239 50.2175 46.3585C50.2255 46.3259 50.24 46.2953 50.26 46.2683C50.28 46.2414 50.3052 46.2187 50.334 46.2016C50.3629 46.1845 50.3949 46.1733 50.4281 46.1687C50.4613 46.1641 50.4951 46.1662 50.5276 46.1748C50.8549 46.2609 51.4233 46.3011 51.5898 46.1231C51.6357 45.9279 51.1132 44.8714 50.4414 43.8895C50.4075 43.8339 50.3963 43.7674 50.4102 43.7037C50.4241 43.6401 50.4621 43.5843 50.5162 43.548C50.5703 43.5117 50.6363 43.4977 50.7005 43.5089C50.7647 43.5201 50.822 43.5557 50.8606 43.6082C51.5726 44.6704 52.342 46.0312 51.9458 46.4791C51.8304 46.5787 51.6964 46.6544 51.5515 46.7017C51.4066 46.7491 51.2537 46.7671 51.1017 46.7547Z" fill="#231F20"/>
<path d="M52.5096 43.7476C52.6458 43.7423 52.748 43.5273 52.7378 43.2675C52.7276 43.0077 52.6089 42.8014 52.4726 42.8067C52.3364 42.8121 52.2342 43.027 52.2444 43.2869C52.2546 43.5467 52.3733 43.753 52.5096 43.7476Z" fill="#231F20"/>
<path d="M49.2702 43.0705C49.2779 42.8106 49.1736 42.5966 49.0373 42.5926C48.901 42.5885 48.7843 42.796 48.7766 43.0559C48.7689 43.3158 48.8731 43.5298 49.0094 43.5338C49.1457 43.5379 49.2624 43.3304 49.2702 43.0705Z" fill="#231F20"/>
<path d="M46.7667 43.3785C46.598 42.8172 46.3145 42.2972 45.9342 41.8512C45.7382 41.6314 45.4801 41.4764 45.194 41.4067C44.9079 41.3369 44.6073 41.3558 44.3322 41.4608C44.0638 41.643 43.85 41.8947 43.7135 42.1889C43.5769 42.4832 43.5229 42.809 43.5571 43.1316C43.5798 43.869 43.7133 44.5987 43.9533 45.2963C44.0558 45.7268 44.2697 46.1228 44.5734 46.4446C44.7257 46.5991 44.9246 46.699 45.1395 46.7291C45.3543 46.7592 45.573 46.7178 45.7619 46.6111" fill="white"/>
<path d="M45.314 46.9843C44.9688 46.9778 44.6379 46.845 44.3838 46.6111C44.0494 46.2675 43.8117 45.8416 43.6948 45.3766C43.4386 44.6552 43.301 43.897 43.2872 43.1316C43.2872 42.6952 43.3733 41.633 44.2058 41.2253C44.5296 41.0975 44.8845 41.0708 45.2238 41.1487C45.5631 41.2266 45.8708 41.4054 46.1064 41.6617C46.5173 42.1342 46.8244 42.6878 47.0078 43.2866C47.0207 43.3182 47.027 43.3521 47.0264 43.3862C47.0257 43.4203 47.0182 43.4539 47.0043 43.485C46.9903 43.5161 46.9702 43.5441 46.9452 43.5672C46.9201 43.5904 46.8907 43.6082 46.8585 43.6196C46.827 43.6348 46.7927 43.6435 46.7578 43.645C46.7228 43.6466 46.6879 43.641 46.6551 43.6287C46.6224 43.6163 46.5925 43.5975 46.5672 43.5732C46.542 43.5489 46.5219 43.5198 46.5083 43.4876C46.3473 42.9602 46.0796 42.4716 45.7217 42.0521C45.5632 41.8735 45.3553 41.746 45.1243 41.6857C44.8933 41.6254 44.6496 41.635 44.424 41.7134C43.8499 42.0004 43.7982 42.8617 43.7982 43.1488C43.8276 43.8533 43.9671 44.5488 44.2116 45.2101C44.3132 45.5906 44.5109 45.9386 44.7858 46.2207C44.8954 46.3329 45.0376 46.4078 45.1923 46.4346C45.3469 46.4614 45.506 46.4387 45.647 46.3699C45.6751 46.3493 45.707 46.3345 45.7409 46.3264C45.7747 46.3184 45.8099 46.3173 45.8442 46.3232C45.8786 46.3291 45.9113 46.3419 45.9406 46.3608C45.9699 46.3796 45.995 46.4043 46.0145 46.4331C46.0341 46.4617 46.0479 46.494 46.0551 46.528C46.0623 46.5619 46.0627 46.597 46.0563 46.6311C46.0499 46.6653 46.0368 46.6978 46.0178 46.7269C45.9988 46.7559 45.9743 46.781 45.9456 46.8006C45.7603 46.9282 45.5388 46.9927 45.314 46.9843Z" fill="#231F20"/>
<path d="M44.602 52.0543C44.602 52.0543 44.9523 62.579 44.9523 68.9122C44.9523 76.1985 43.8556 101.543 43.8556 101.543L30.4313 100.096C30.4313 100.096 32.9921 87.3721 33.7443 78.9202C34.2209 73.5745 36.2592 61.8957 36.041 58.1004C35.8228 54.3051 44.602 52.0543 44.602 52.0543Z" fill="#F14736"/>
<path d="M59.4791 69.8195L52.1411 86.2697H66.3922L73.5407 70.1869L59.4791 69.8195Z" fill="white"/>
<path d="M66.3865 86.5511H52.1412C52.0972 86.5523 52.0536 86.5422 52.0145 86.5218C51.9755 86.5014 51.9423 86.4714 51.9182 86.4346C51.894 86.3978 51.8797 86.3554 51.8765 86.3115C51.8733 86.2675 51.8814 86.2235 51.9 86.1836L59.238 69.7277C59.2606 69.6813 59.2957 69.6422 59.3393 69.6148C59.3829 69.5874 59.4334 69.5728 59.4849 69.5726L73.5466 69.9458C73.5902 69.9454 73.6333 69.9562 73.6716 69.9774C73.7098 69.9985 73.7419 70.0292 73.7647 70.0664C73.7844 70.1046 73.7946 70.1469 73.7946 70.1899C73.7946 70.2328 73.7844 70.2751 73.7647 70.3133L66.6047 86.3788C66.5886 86.4254 66.5594 86.4663 66.5208 86.4968C66.4821 86.5273 66.4356 86.5462 66.3865 86.5511ZM52.5431 86.0229H66.22L73.1446 70.4569L59.6457 70.1009L52.5431 86.0229Z" fill="#231F20"/>
<path d="M46.6864 83.8812C49.6836 83.9903 52.8301 83.261 55.6665 84.3577L57.6072 85.1042C57.5948 84.8847 57.5245 84.6724 57.4035 84.4889C57.2825 84.3053 57.1151 84.1571 56.9182 84.0592C56.5237 83.8705 56.1487 83.6436 55.7986 83.3816L57.4465 84.1683C57.7623 84.3233 58.2331 84.4381 58.4053 84.1223C57.7628 83.4901 57.0456 82.9386 56.2694 82.4802C56.8619 82.7668 57.4717 83.016 58.0953 83.2266C58.4915 83.3644 58.9968 83.4563 59.2436 83.1405C58.5744 82.6246 57.8232 82.2248 57.0216 81.9577L58.5661 82.4227C58.748 82.4963 58.9457 82.522 59.1403 82.4974C59.2344 82.4841 59.3208 82.4384 59.3848 82.3682C59.4487 82.2979 59.4861 82.2076 59.4905 82.1127C59.4731 82.0347 59.4396 81.9613 59.3921 81.897C59.3447 81.8327 59.2843 81.7791 59.2149 81.7395C58.1697 80.9373 56.9567 80.3818 55.6665 80.1145C55.7871 79.7815 56.4359 78.036 56.2005 77.7317C55.9651 77.4274 55.0981 79.0408 53.7373 79.2016C52.3765 79.3624 47.7601 79.5748 47.7601 79.5748" fill="white"/>
<path d="M57.6073 85.3683C57.575 85.3742 57.542 85.3742 57.5097 85.3683L55.5747 84.6161C53.6799 83.8869 51.5555 83.996 49.5573 84.0993C48.6099 84.1453 47.6338 84.197 46.6864 84.1625C46.6174 84.1595 46.5523 84.1296 46.505 84.0791C46.4578 84.0287 46.4322 83.9617 46.4338 83.8926C46.4345 83.8577 46.4423 83.8233 46.4567 83.7914C46.4711 83.7596 46.4918 83.731 46.5175 83.7073C46.5433 83.6837 46.5736 83.6656 46.6066 83.654C46.6395 83.6424 46.6745 83.6377 46.7094 83.64C47.6396 83.6745 48.6042 83.64 49.5401 83.5769C51.6244 83.4678 53.7718 83.3587 55.7699 84.151L57.2226 84.7252C57.1052 84.5689 56.959 84.4364 56.792 84.3348C56.6657 84.2544 56.5393 84.1912 56.4073 84.1223C56.1268 83.9929 55.8659 83.8247 55.6321 83.6228C55.5854 83.5808 55.5556 83.5233 55.5482 83.461C55.5408 83.3986 55.5563 83.3357 55.5919 83.284C55.6279 83.2322 55.681 83.1946 55.7418 83.1778C55.8027 83.161 55.8675 83.1661 55.925 83.1921L57.5671 83.9845C57.693 84.044 57.8262 84.0865 57.9633 84.1108C57.4136 83.5947 56.809 83.1403 56.1604 82.7558C56.1034 82.7201 56.0618 82.6643 56.0437 82.5995C56.0257 82.5348 56.0325 82.4656 56.0628 82.4055C56.0957 82.3455 56.1502 82.3003 56.2152 82.279C56.2803 82.2577 56.351 82.2619 56.413 82.2907C56.9947 82.5777 57.5952 82.8252 58.2102 83.0314C58.3924 83.1057 58.5876 83.1427 58.7844 83.1405C58.2205 82.7504 57.6037 82.4429 56.9527 82.2275C56.9154 82.2215 56.8798 82.2075 56.8484 82.1865C56.8169 82.1655 56.7903 82.1381 56.7704 82.1059C56.7505 82.0738 56.7377 82.0377 56.7329 82.0002C56.7281 81.9627 56.7315 81.9246 56.7427 81.8885C56.7539 81.8524 56.7727 81.8191 56.7979 81.7909C56.8231 81.7627 56.854 81.7402 56.8886 81.725C56.9232 81.7098 56.9607 81.7022 56.9985 81.7027C57.0363 81.7032 57.0736 81.7118 57.1078 81.728L58.6523 82.1988C58.7916 82.2511 58.9401 82.2746 59.0887 82.2677C59.1691 82.2677 59.2322 82.1873 59.2265 82.1586C59.2208 82.1299 59.1691 82.0553 59.0542 81.9691C58.0391 81.1907 56.8616 80.651 55.6092 80.3902C55.5723 80.3827 55.5375 80.3675 55.5068 80.3458C55.4762 80.324 55.4504 80.2961 55.4312 80.2638C55.4025 80.1939 55.4025 80.1155 55.4312 80.0456C55.6922 79.4214 55.8848 78.7707 56.0054 78.1049L55.7986 78.3001C55.2781 78.903 54.5741 79.3185 53.7948 79.483C52.4397 79.6437 47.9841 79.8504 47.7946 79.8619C47.7598 79.866 47.7246 79.8626 47.6913 79.852C47.6579 79.8415 47.6272 79.8239 47.6011 79.8006C47.5751 79.7772 47.5543 79.7486 47.5401 79.7166C47.5259 79.6846 47.5188 79.65 47.519 79.615C47.5174 79.5803 47.5228 79.5457 47.5346 79.513C47.5465 79.4804 47.5647 79.4504 47.5882 79.4248C47.6116 79.3992 47.6399 79.3785 47.6714 79.3638C47.7029 79.3492 47.7369 79.3409 47.7716 79.3394C47.8176 79.3394 52.3651 79.1212 53.7316 78.9662C54.4034 78.8125 55.0075 78.446 55.4541 77.9212C55.7699 77.6169 55.9364 77.4389 56.1891 77.4561C56.2402 77.459 56.29 77.4733 56.3348 77.4982C56.3795 77.5231 56.418 77.5578 56.4475 77.5996C56.5451 77.7202 56.7518 77.9958 56.057 79.9423C57.2751 80.242 58.4185 80.7893 59.416 81.55C59.5156 81.6135 59.6004 81.6976 59.6648 81.7966C59.7292 81.8957 59.7716 82.0074 59.7892 82.1242C59.7906 82.2853 59.7329 82.4415 59.6272 82.5631C59.5214 82.6847 59.3748 82.7635 59.215 82.7845L59.4849 82.9912C59.5131 83.012 59.5365 83.0387 59.5533 83.0694C59.5702 83.1001 59.5801 83.1342 59.5825 83.1692C59.5863 83.2039 59.5832 83.239 59.5733 83.2725C59.5635 83.3061 59.5471 83.3373 59.5251 83.3644C59.2495 83.6917 58.7959 83.7606 58.1757 83.5711C58.3308 83.7089 58.4801 83.8467 58.6293 83.996C58.6683 84.0365 58.6937 84.0881 58.7019 84.1437C58.7102 84.1993 58.7009 84.256 58.6753 84.3061C58.5846 84.4499 58.4475 84.5585 58.2867 84.6138C58.1259 84.6692 57.9511 84.668 57.791 84.6104C57.8798 84.7881 57.9195 84.9863 57.9059 85.1845C57.903 85.226 57.8907 85.2661 57.8698 85.302C57.8488 85.3378 57.8199 85.3684 57.7853 85.3912C57.725 85.4024 57.6628 85.3944 57.6073 85.3683Z" fill="#231F20"/>
<path d="M36.2937 56.1195C36.2937 56.1195 22.2551 83.2437 26.3604 84.6447C28.037 85.2189 49.5573 86.2639 49.5573 86.2639L49.9994 78.8972L40.7149 77.6512L36.2937 56.1195Z" fill="#F14736"/>
<path d="M37.1895 77.5881C37.1204 77.5822 37.0564 77.5494 37.0113 77.4968C36.9662 77.4442 36.9436 77.3759 36.9483 77.3067L38.5044 59.5072C38.5116 59.4392 38.545 59.3766 38.5975 59.3327C38.65 59.2888 38.7174 59.2669 38.7857 59.2718C38.8202 59.2739 38.8539 59.283 38.8848 59.2984C38.9157 59.3138 38.9432 59.3353 38.9657 59.3615C38.9882 59.3877 39.0052 59.4182 39.0157 59.4511C39.0262 59.484 39.03 59.5187 39.0269 59.5531L37.4708 77.3527C37.4636 77.4207 37.4302 77.4833 37.3777 77.5272C37.3252 77.5711 37.2577 77.5929 37.1895 77.5881Z" fill="#231F20"/>
<path d="M46.9964 87.0103L32.9233 85.9768C32.8538 85.971 32.7892 85.9384 32.7432 85.8859C32.6971 85.8335 32.6732 85.7652 32.6764 85.6955C32.6786 85.661 32.6876 85.6273 32.7031 85.5964C32.7185 85.5654 32.7399 85.5379 32.7662 85.5155C32.7924 85.493 32.8229 85.476 32.8558 85.4655C32.8887 85.455 32.9234 85.4512 32.9578 85.4543L47.0194 86.4821C47.082 86.4914 47.1392 86.5229 47.1806 86.5709C47.222 86.6188 47.2447 86.68 47.2447 86.7434C47.2447 86.8067 47.222 86.8679 47.1806 86.9158C47.1392 86.9638 47.082 86.9953 47.0194 87.0046L46.9964 87.0103Z" fill="#231F20"/>
<path d="M70.0096 81.3833C69.9235 81.6417 69.8144 81.8944 69.734 82.1183C69.5793 82.6544 69.2999 83.1463 68.9187 83.5537C68.4469 83.9506 67.8668 84.1967 67.2536 84.26C66.576 84.3748 65.9043 84.4954 65.2325 84.6217C64.8951 84.7269 64.5306 84.7023 64.2104 84.5528C64.1467 84.5162 64.0995 84.4566 64.0784 84.3863C64.0781 84.3358 64.09 84.286 64.113 84.241C64.1359 84.1961 64.1694 84.1573 64.2104 84.1279C64.9569 83.4504 66.1224 83.5193 66.9722 82.9796C66.2743 83.1751 65.5469 83.2432 64.8248 83.1805C64.6417 83.1873 64.4597 83.1502 64.2939 83.0723C64.1281 82.9944 63.9833 82.8779 63.8717 82.7327C64.7674 82.1011 66.0248 82.3307 67.0182 81.8714C66.149 82.0371 65.25 81.935 64.4401 81.5786C64.2966 81.5154 64.1415 81.3432 64.2506 81.2398C64.2969 81.2051 64.3535 81.1869 64.4114 81.1881L67.5923 80.9929C66.9801 80.9882 66.3764 80.849 65.8239 80.5852C65.531 80.4417 65.2497 80.2178 65.198 79.8962C65.1931 79.8672 65.1942 79.8375 65.2011 79.8089C65.208 79.7802 65.2206 79.7533 65.2382 79.7297C65.2761 79.6986 65.321 79.6772 65.369 79.6672C65.417 79.6572 65.4667 79.659 65.5138 79.6723C65.9157 79.7355 67.5866 79.9709 68.023 80.0512C68.2053 80.1072 68.3971 80.1254 68.5866 80.1047C68.7762 80.084 68.9595 80.0247 69.1254 79.9307C69.2785 79.7993 69.4018 79.6369 69.4871 79.4541C69.6725 79.5959 69.8271 79.7738 69.9416 79.9771C70.0561 80.1805 70.1281 80.4049 70.1532 80.6369C70.1497 80.8922 70.1011 81.1449 70.0096 81.3833Z" fill="white"/>
<path d="M64.7098 84.9261C64.4831 84.9335 64.2593 84.8735 64.0667 84.7539C64.0054 84.7176 63.952 84.6695 63.9096 84.6123C63.8672 84.5551 63.8367 84.49 63.8198 84.4209C63.8109 84.3251 63.8263 84.2287 63.8644 84.1404C63.9025 84.0521 63.9622 83.9748 64.038 83.9156C64.2707 83.7066 64.5417 83.5447 64.8361 83.439H64.8016C64.5775 83.4468 64.355 83.3983 64.1544 83.298C63.9538 83.1977 63.7816 83.0488 63.6533 82.8648C63.6237 82.8091 63.6155 82.7444 63.6303 82.6831C63.6451 82.6217 63.6819 82.5679 63.7337 82.5318C64.107 82.2837 64.5305 82.121 64.9739 82.0552C64.7598 81.9969 64.5505 81.922 64.348 81.8313C64.2574 81.7923 64.1767 81.7333 64.1121 81.6587C64.0475 81.5842 64.0005 81.496 63.9748 81.4007C63.9634 81.3396 63.9673 81.2766 63.9864 81.2175C64.0054 81.1583 64.039 81.1048 64.0839 81.0619C64.1735 80.9813 64.2907 80.9381 64.4112 80.9413L65.7777 80.8552H65.7261C65.1519 80.5624 64.9739 80.2006 64.9509 79.948C64.9378 79.8204 64.9749 79.6928 65.0543 79.592C65.1222 79.5278 65.2048 79.4812 65.2949 79.4562C65.3849 79.4312 65.4797 79.4285 65.571 79.4485L65.9902 79.5116C66.6447 79.6035 67.7127 79.7643 68.0917 79.8274C68.388 79.9207 68.7088 79.896 68.9874 79.7585C69.106 79.6447 69.2032 79.5105 69.2745 79.3623C69.2928 79.3288 69.3182 79.2995 69.349 79.2767C69.3797 79.2539 69.415 79.2381 69.4525 79.2303C69.4908 79.2232 69.5303 79.2246 69.568 79.2345C69.6057 79.2445 69.6408 79.2626 69.6707 79.2877C69.8852 79.4532 70.0636 79.6608 70.1949 79.8978C70.3263 80.1348 70.4077 80.3961 70.4343 80.6657C70.4301 80.9487 70.3757 81.2286 70.2736 81.4926C70.2219 81.6418 70.1645 81.7911 70.1128 81.9347L69.998 82.2275C69.8319 82.8031 69.5307 83.3307 69.1195 83.7663C68.6077 84.1997 67.9776 84.4698 67.3108 84.5414C66.6371 84.6563 65.9653 84.7769 65.2954 84.9032C65.1013 84.9288 64.9053 84.9365 64.7098 84.9261ZM64.371 84.3175C64.6328 84.4108 64.9188 84.4108 65.1806 84.3175C65.8581 84.1912 66.5299 84.0706 67.2074 83.9558C67.7701 83.899 68.3034 83.6772 68.7405 83.3184C69.088 82.9352 69.3433 82.4776 69.4869 81.9806C69.5214 81.8811 69.5616 81.7777 69.6075 81.6705L69.7625 81.2571C69.8404 81.0491 69.8849 80.8302 69.8946 80.6083C69.865 80.3193 69.7397 80.0485 69.5386 79.8389C69.4683 79.941 69.3832 80.032 69.286 80.1088C69.0913 80.2259 68.8743 80.3012 68.6489 80.3299C68.4235 80.3585 68.1947 80.3399 67.9768 80.2753C67.6381 80.2121 66.5471 80.0514 65.8983 79.9595L65.4792 79.9021C65.5745 80.093 65.7386 80.2407 65.9385 80.3155C66.4569 80.5642 67.023 80.6974 67.5979 80.7059C67.6605 80.7152 67.7177 80.7467 67.7591 80.7947C67.8004 80.8426 67.8232 80.9039 67.8232 80.9672C67.8232 81.0305 67.8004 81.0917 67.7591 81.1397C67.7177 81.1876 67.6605 81.2191 67.5979 81.2284L64.727 81.4007C65.4315 81.6617 66.1939 81.7252 66.9318 81.5844C66.9973 81.5639 67.0683 81.5702 67.1291 81.6019C67.19 81.6337 67.2357 81.6883 67.2562 81.7538C67.2768 81.8193 67.2705 81.8903 67.2387 81.9511C67.207 82.0119 67.1523 82.0577 67.0869 82.0782C66.6096 82.2713 66.1067 82.3932 65.594 82.4399C65.1352 82.4806 64.6847 82.5869 64.2562 82.7557C64.4364 82.839 64.6319 82.884 64.8303 82.8878C65.5214 82.9515 66.2182 82.8873 66.8859 82.6983C66.9461 82.6844 67.0092 82.6921 67.0643 82.7199C67.1194 82.7477 67.163 82.794 67.1876 82.8506C67.2121 82.9072 67.2161 82.9707 67.1987 83.0299C67.1814 83.0892 67.1438 83.1405 67.0926 83.1749C66.6775 83.4059 66.2306 83.5742 65.7663 83.6744C65.2592 83.7627 64.7807 83.9714 64.371 84.2831V84.3175Z" fill="#231F20"/>
<path d="M49.9994 79.1786L35.6449 77.5881C35.6104 77.5853 35.5768 77.5755 35.5461 77.5594C35.5155 77.5433 35.4883 77.5212 35.4664 77.4945C35.4444 77.4677 35.4281 77.4367 35.4183 77.4035C35.4085 77.3703 35.4055 77.3354 35.4095 77.301C35.4181 77.2314 35.4535 77.1679 35.5082 77.124C35.5629 77.0801 35.6325 77.0591 35.7023 77.0656L50.0568 78.6561C50.1194 78.6654 50.1766 78.6969 50.218 78.7449C50.2593 78.7928 50.2821 78.854 50.2821 78.9173C50.2821 78.9807 50.2593 79.0419 50.218 79.0898C50.1766 79.1378 50.1194 79.1693 50.0568 79.1786H49.9994Z" fill="#231F20"/>
<path d="M51.1018 48.4083C51.0119 48.414 50.9218 48.414 50.8319 48.4083C49.3563 48.2418 48.3285 46.726 48.2883 46.6571C48.2511 46.6015 48.2374 46.5334 48.2503 46.4677C48.2632 46.4021 48.3017 46.3442 48.3572 46.3068C48.4141 46.2707 48.4827 46.2577 48.5489 46.2706C48.6151 46.2834 48.6739 46.321 48.7132 46.3757C48.7132 46.3757 49.6491 47.7653 50.8951 47.9031C51.2226 47.9253 51.5508 47.8739 51.8559 47.7526C52.1609 47.6314 52.4349 47.4435 52.6578 47.2026C52.6813 47.1768 52.7098 47.1562 52.7417 47.142C52.7735 47.1278 52.8079 47.1203 52.8428 47.1201C52.8776 47.1198 52.9121 47.1268 52.9442 47.1405C52.9762 47.1543 53.0051 47.1745 53.0289 47.1999C53.0527 47.2253 53.071 47.2554 53.0827 47.2883C53.0943 47.3211 53.0991 47.356 53.0966 47.3908C53.0941 47.4255 53.0844 47.4594 53.0682 47.4903C53.052 47.5211 53.0295 47.5483 53.0023 47.57C52.5027 48.0872 51.8205 48.3881 51.1018 48.4083Z" fill="#231F20"/>
<path d="M174.005 137.079L172.483 144.285C172.483 144.285 162.636 144.813 162.981 143.9C163.721 141.948 166.581 141.029 166.581 141.029L167.729 134.311" fill="white"/>
<path d="M167.252 144.715C165.059 144.715 163.078 144.595 162.768 144.141C162.726 144.086 162.699 144.021 162.69 143.953C162.681 143.884 162.69 143.815 162.716 143.751C163.394 141.954 165.679 141.006 166.328 140.771L167.425 134.219C167.437 134.143 167.479 134.075 167.541 134.03C167.604 133.985 167.682 133.966 167.758 133.978C167.834 133.99 167.902 134.032 167.947 134.095C167.992 134.157 168.011 134.235 167.999 134.311L166.85 141.029C166.842 141.082 166.82 141.131 166.785 141.172C166.751 141.212 166.706 141.242 166.655 141.259C166.655 141.259 164.037 142.12 163.291 143.837C164.031 144.17 168.286 144.17 172.236 143.963L173.712 136.975C173.73 136.901 173.775 136.836 173.84 136.795C173.904 136.753 173.981 136.738 174.056 136.752C174.093 136.76 174.129 136.775 174.16 136.797C174.191 136.819 174.217 136.846 174.237 136.878C174.258 136.91 174.271 136.946 174.278 136.983C174.284 137.021 174.283 137.059 174.275 137.096L172.753 144.296C172.741 144.359 172.709 144.415 172.661 144.457C172.613 144.499 172.552 144.523 172.489 144.526C171.231 144.624 169.159 144.715 167.252 144.715Z" fill="#231F20"/>
<path d="M196.025 135.356L196.076 143.257C196.076 143.257 188.692 146.972 187.199 145.485C187.314 143.223 189.852 141.374 189.852 141.374L188.658 134.61" fill="white"/>
<path d="M188.376 146.093C187.878 146.138 187.382 145.988 186.993 145.674C186.965 145.646 186.943 145.611 186.929 145.574C186.915 145.536 186.909 145.496 186.912 145.456C187.021 143.372 188.979 141.678 189.542 141.236L188.394 134.644C188.386 134.607 188.386 134.569 188.394 134.532C188.402 134.495 188.417 134.46 188.438 134.429C188.459 134.398 188.487 134.371 188.519 134.351C188.551 134.331 188.586 134.317 188.623 134.311C188.698 134.298 188.775 134.314 188.837 134.357C188.9 134.4 188.942 134.466 188.956 134.541L190.151 141.305C190.161 141.357 190.156 141.411 190.137 141.461C190.118 141.511 190.085 141.554 190.042 141.586C190.013 141.586 187.716 143.309 187.509 145.341C188.658 146.116 193.085 144.411 195.806 143.044L195.737 135.356C195.737 135.28 195.768 135.207 195.822 135.153C195.875 135.099 195.948 135.069 196.025 135.069C196.062 135.068 196.099 135.075 196.134 135.089C196.169 135.103 196.2 135.123 196.227 135.149C196.254 135.176 196.275 135.207 196.29 135.241C196.304 135.276 196.312 135.313 196.312 135.35L196.363 143.251C196.363 143.305 196.348 143.358 196.32 143.403C196.292 143.449 196.251 143.486 196.203 143.51C195.577 143.814 190.949 146.093 188.376 146.093Z" fill="#231F20"/>
<path d="M173.126 84.2544L166.236 137.314L175.59 137.699L183.559 98.7466C183.559 98.7466 187.349 138.285 187.911 138.089C188.474 137.894 197.627 137.59 197.627 137.59L194.756 83.6802L173.126 84.2544Z" fill="#231F20"/>
<path d="M187.9 138.365C187.839 138.366 187.78 138.35 187.728 138.319C187.154 137.952 185.115 118.079 183.439 100.664L175.848 137.751C175.836 137.817 175.8 137.877 175.747 137.919C175.694 137.961 175.628 137.983 175.561 137.98L166.207 137.596C166.168 137.594 166.129 137.583 166.093 137.566C166.058 137.548 166.026 137.523 166.001 137.492C165.975 137.462 165.957 137.428 165.946 137.39C165.935 137.352 165.932 137.313 165.938 137.274L172.828 84.2084C172.836 84.1409 172.869 84.0787 172.919 84.0333C172.97 83.9879 173.035 83.9624 173.103 83.9615L194.738 83.3873C194.776 83.3841 194.813 83.3888 194.849 83.4009C194.884 83.413 194.917 83.4324 194.944 83.4578C194.972 83.4831 194.994 83.514 195.009 83.5483C195.024 83.5827 195.031 83.6197 195.031 83.6572L197.902 137.573C197.904 137.61 197.899 137.648 197.886 137.684C197.873 137.719 197.853 137.752 197.827 137.779C197.802 137.808 197.771 137.83 197.737 137.846C197.702 137.862 197.665 137.871 197.627 137.871C194.141 137.986 188.44 138.216 187.998 138.353L187.9 138.365ZM183.542 98.4538C183.61 98.4577 183.674 98.4861 183.722 98.5335C183.771 98.581 183.801 98.6445 183.806 98.7122C185.224 113.451 187.469 135.5 188.049 137.756C189.45 137.573 195.427 137.366 197.293 137.303L194.474 83.9615L173.362 84.5357L166.529 137.044L175.325 137.406L183.243 98.6892C183.256 98.6203 183.293 98.5583 183.348 98.515C183.403 98.4716 183.472 98.4499 183.542 98.4538Z" fill="#231F20"/>
<path d="M197.07 65.8805L202.777 63.8479C202.524 63.4747 199.544 55.1893 196.26 53.5644C193.389 51.6581 188.055 52.0141 182.032 52.416C180.1 52.5032 178.194 52.8906 176.382 53.5644C169.589 56.263 168.619 65.2087 168.619 65.2087L174.866 67.3619C174.866 67.3619 172.363 78.9201 171.421 85.2763C171.421 85.2763 180.734 90.4841 197.799 87.6534C197.787 87.6993 197.098 67.649 197.07 65.8805Z" fill="#F14736"/>
<path d="M181.986 56.0334L179.603 89.7664L187.94 91.1042L189.289 55.373L181.986 56.0334Z" fill="#231F20"/>
<path d="M187.94 91.3913H187.894L179.557 90.0535C179.486 90.0435 179.421 90.0063 179.376 89.9496C179.331 89.8929 179.309 89.8212 179.316 89.7492L181.699 56.0219C181.704 55.9539 181.732 55.8897 181.779 55.8404C181.827 55.7912 181.889 55.7599 181.957 55.752L189.261 55.0975C189.301 55.0912 189.343 55.0948 189.382 55.1077C189.421 55.1207 189.456 55.1428 189.485 55.1721C189.514 55.2001 189.538 55.234 189.554 55.2715C189.569 55.3091 189.577 55.3496 189.577 55.3903L188.222 91.1444C188.221 91.1852 188.211 91.2253 188.193 91.262C188.175 91.2987 188.15 91.3311 188.118 91.3569C188.064 91.3869 188.002 91.399 187.94 91.3913ZM179.902 89.5252L187.665 90.7712L188.991 55.6889L182.25 56.2975L179.902 89.5252Z" fill="#231F20"/>
<path d="M183.645 59.5301L184.65 60.2191L182.864 74.1257L184.983 75.9573L187.222 73.3276L185.684 60.3282L186.924 59.6794L185.27 58.043L183.645 59.5301Z" fill="white"/>
<path d="M184.983 76.2445C184.914 76.2452 184.846 76.2207 184.794 76.1756L182.675 74.3382C182.639 74.3074 182.612 74.2681 182.596 74.2239C182.58 74.1796 182.576 74.132 182.583 74.0856L184.34 60.357L183.485 59.7828C183.449 59.7586 183.419 59.7266 183.397 59.6893C183.376 59.6519 183.363 59.6102 183.359 59.5672C183.356 59.5241 183.363 59.4809 183.378 59.4407C183.394 59.4005 183.419 59.3643 183.45 59.3349L185.075 57.8421C185.129 57.7924 185.2 57.7649 185.273 57.7649C185.347 57.7649 185.417 57.7924 185.471 57.8421L187.125 59.4785C187.156 59.5108 187.179 59.5499 187.193 59.5926C187.207 59.6354 187.21 59.6807 187.204 59.7251C187.197 59.7695 187.18 59.8118 187.155 59.8487C187.129 59.8856 187.095 59.9161 187.056 59.9378L185.994 60.512L187.504 73.3162C187.51 73.3558 187.507 73.3963 187.496 73.4348C187.485 73.4734 187.466 73.5093 187.441 73.5401L185.201 76.1698C185.15 76.2277 185.078 76.2628 185 76.2675L184.983 76.2445ZM183.169 74.0052L184.949 75.5555L186.924 73.2588L185.397 60.3857C185.389 60.3276 185.4 60.2688 185.428 60.2174C185.456 60.1659 185.499 60.1244 185.552 60.0986L186.442 59.6335L185.259 58.4851L184.11 59.5474L184.817 60.0297C184.861 60.0581 184.896 60.0987 184.917 60.1466C184.939 60.1946 184.946 60.2477 184.937 60.2995L183.169 74.0052Z" fill="#231F20"/>
<path d="M190.243 46.7776C190.922 45.1518 191.329 43.4254 191.448 41.6674C191.632 38.7965 189.289 38.1477 189.289 38.1477C189.289 38.1477 189.203 36.1094 186.47 35.317C183.737 34.5247 180.097 34.9897 178.753 36.7582C175.814 40.6339 180.062 41.633 180.062 41.633C180.062 41.633 178.73 45.9049 181.113 47.2886C183.496 48.6724 190.243 46.7776 190.243 46.7776Z" fill="white"/>
<path d="M183.772 48.081C182.807 48.1356 181.845 47.9501 180.97 47.5413C178.759 46.2609 179.448 42.8445 179.712 41.8339C179.243 41.7031 178.807 41.4714 178.436 41.1551C178.065 40.8387 177.768 40.4454 177.565 40.0023C177.215 39.0377 177.565 37.8893 178.524 36.5917C180.011 34.628 183.852 34.2605 186.562 35.0471C188.985 35.7476 189.467 37.3726 189.565 37.918C190.292 38.2145 190.9 38.743 191.294 39.4213C191.689 40.0995 191.848 40.8893 191.747 41.6674C191.629 43.4613 191.213 45.2231 190.518 46.881C190.501 46.9196 190.476 46.9541 190.444 46.9819C190.413 47.0096 190.375 47.0301 190.334 47.0417C188.193 47.6358 185.992 47.9845 183.772 48.081ZM183.737 35.2309C181.796 35.2309 179.873 35.7706 178.994 36.9534C178.116 38.1362 177.846 39.0492 178.116 39.8243C178.529 40.9727 180.126 41.3746 180.143 41.3803C180.181 41.3897 180.217 41.4068 180.249 41.4305C180.28 41.4542 180.307 41.484 180.327 41.5181C180.342 41.5534 180.35 41.5915 180.35 41.6301C180.35 41.6687 180.342 41.7068 180.327 41.7421C180.327 41.7823 179.092 45.813 181.245 47.059C183.398 48.3049 189.077 46.8121 190.024 46.5594C190.658 45 191.045 43.3516 191.173 41.6732C191.339 39.0721 189.312 38.4693 189.226 38.4463C189.168 38.4297 189.116 38.3954 189.078 38.3481C189.04 38.3008 189.018 38.2428 189.014 38.1822C189.014 38.1075 188.888 36.3391 186.401 35.6156C185.535 35.3649 184.639 35.2355 183.737 35.2309Z" fill="#231F20"/>
<path d="M182.589 51.5261L182.015 56.0334C182.015 56.0334 183.599 58.7779 186.522 57.8535C189.444 56.9291 189.783 54.6324 189.783 54.6324L189.703 45.8762C189.703 45.8762 187.406 44.8541 187.733 40.0253C185.377 41.2399 182.737 41.7954 180.091 41.633C180.091 41.633 179.104 46.9154 179.626 49.1892C180.149 51.4629 182.589 51.5261 182.589 51.5261Z" fill="white"/>
<path d="M185.322 58.3301C183.025 58.3301 181.75 56.2057 181.733 56.177C181.705 56.1202 181.693 56.0565 181.699 55.9932L182.273 51.7558C181.578 51.6968 180.919 51.4213 180.388 50.9681C179.858 50.5149 179.483 49.9068 179.316 49.2294C178.788 46.9327 179.741 41.7651 179.781 41.5584C179.792 41.4889 179.829 41.4262 179.884 41.3826C179.94 41.339 180.009 41.3177 180.08 41.323C182.663 41.4752 185.24 40.934 187.544 39.7555C187.588 39.7286 187.639 39.7144 187.69 39.7144C187.742 39.7144 187.793 39.7286 187.837 39.7555C187.881 39.7817 187.918 39.8197 187.942 39.8653C187.966 39.9109 187.977 39.9623 187.975 40.0138C187.682 44.5498 189.754 45.5719 189.777 45.5834C189.826 45.6068 189.868 45.6433 189.897 45.689C189.927 45.7346 189.943 45.7875 189.944 45.8417L190.053 54.6267C190.053 54.776 189.645 57.1588 186.608 58.1292C186.193 58.2644 185.759 58.3323 185.322 58.3301ZM182.284 55.9703C182.566 56.4066 184.007 58.3474 186.407 57.5837C189.106 56.7282 189.456 54.6726 189.473 54.5865L189.387 46.0427C188.859 45.7039 187.28 44.3776 187.395 40.5134C185.174 41.5447 182.739 42.0309 180.292 41.9316C180.108 42.9938 179.425 47.2083 179.861 49.1261C180.326 51.1472 182.503 51.2103 182.594 51.2161C182.635 51.2154 182.675 51.2238 182.712 51.2407C182.749 51.2576 182.781 51.2825 182.807 51.3137C182.834 51.3434 182.855 51.379 182.867 51.4178C182.879 51.4565 182.882 51.4975 182.876 51.5376L182.284 55.9703Z" fill="#231F20"/>
<path d="M188.233 48.0466C188.828 48.257 189.481 48.2261 190.053 47.9604C190.441 47.7593 190.771 47.4621 191.011 47.0972C191.251 46.7323 191.394 46.3119 191.425 45.8762C191.475 45.5554 191.451 45.2277 191.357 44.9173C191.307 44.7625 191.225 44.62 191.116 44.4992C191.007 44.3785 190.874 44.2822 190.725 44.2168C190.344 44.1191 189.941 44.1473 189.577 44.2972C189.002 44.458 188.962 44.745 188.589 45.1183C188.629 45.0838 188.675 44.9805 188.71 44.946" fill="white"/>
<path d="M189.037 48.4715C188.73 48.4714 188.425 48.419 188.135 48.3165C188.099 48.3045 188.065 48.2853 188.036 48.26C188.007 48.2347 187.984 48.2039 187.967 48.1694C187.95 48.1349 187.941 48.0973 187.939 48.059C187.937 48.0207 187.942 47.9823 187.955 47.9462C187.968 47.9101 187.989 47.877 188.015 47.8489C188.041 47.8207 188.072 47.798 188.107 47.7822C188.142 47.7664 188.18 47.7578 188.218 47.7569C188.257 47.7559 188.295 47.7627 188.331 47.7768C188.852 47.9594 189.424 47.9326 189.927 47.7021C190.271 47.5205 190.563 47.2545 190.776 46.9291C190.988 46.6037 191.115 46.2296 191.144 45.8418C191.184 45.5633 191.164 45.2797 191.087 45.0092C191.049 44.8951 190.988 44.7899 190.908 44.7C190.828 44.6102 190.731 44.5376 190.622 44.4867C190.301 44.413 189.965 44.4431 189.663 44.5729C189.425 44.6374 189.22 44.7891 189.089 44.9978C189.004 45.1039 188.914 45.2055 188.819 45.3021L188.784 45.3365C188.727 45.3824 188.655 45.4047 188.582 45.3989C188.509 45.3931 188.441 45.3596 188.392 45.3054C188.343 45.2511 188.316 45.1801 188.317 45.1069C188.319 45.0338 188.348 44.9639 188.4 44.9116C188.428 44.8455 188.471 44.7866 188.526 44.7394C188.543 44.7246 188.562 44.7129 188.583 44.7049L188.629 44.6533C188.833 44.3513 189.139 44.1331 189.49 44.0389C189.912 43.8672 190.38 43.8429 190.817 43.97C191.004 44.0495 191.172 44.1679 191.309 44.3174C191.447 44.4669 191.551 44.6441 191.615 44.837C191.728 45.189 191.758 45.5625 191.701 45.9279C191.662 46.4104 191.5 46.8748 191.231 47.2769C190.962 47.679 190.594 48.0053 190.162 48.2246C189.809 48.3872 189.425 48.4714 189.037 48.4715Z" fill="#231F20"/>
<path d="M182.279 53.886C182.797 53.9502 183.323 53.8871 183.811 53.702C184.3 53.5168 184.735 53.2154 185.081 52.8238C186.298 51.4745 186.126 50.4237 186.126 50.4237C185.133 51.2331 183.866 51.628 182.589 51.5261L182.279 53.886Z" fill="#231F20"/>
<path d="M182.664 54.1962C182.518 54.1958 182.372 54.1863 182.227 54.1675C182.155 54.1472 182.093 54.1005 182.054 54.0367C182.014 53.9729 182 53.8966 182.015 53.8229L182.342 51.4401C182.353 51.3654 182.393 51.298 182.453 51.252C182.513 51.206 182.588 51.1849 182.664 51.1932C183.851 51.291 185.031 50.9292 185.959 50.1827C185.998 50.1497 186.046 50.1276 186.096 50.1185C186.146 50.1095 186.198 50.1138 186.246 50.131C186.293 50.1482 186.335 50.1774 186.367 50.2156C186.399 50.2539 186.421 50.2999 186.43 50.3492C186.43 50.4008 186.614 51.5549 185.316 52.9961C184.985 53.3741 184.578 53.6768 184.12 53.8838C183.662 54.0908 183.166 54.1973 182.664 54.1962ZM182.6 53.622C183.032 53.6344 183.462 53.5519 183.859 53.3802C184.256 53.2086 184.61 52.9521 184.897 52.6287C185.336 52.1727 185.654 51.6141 185.821 51.0037C184.945 51.5676 183.917 51.8483 182.876 51.8076L182.6 53.622Z" fill="#231F20"/>
<path d="M183.651 44.3145C183.651 44.3145 182.17 46.6915 182.554 47.0877C182.939 47.4839 183.967 47.1739 183.967 47.1739" fill="white"/>
<path d="M183.215 47.5758C183.059 47.589 182.902 47.5703 182.754 47.521C182.606 47.4716 182.47 47.3926 182.353 47.2887C181.992 46.9212 182.353 45.8705 183.41 44.1652C183.429 44.1326 183.455 44.1042 183.486 44.0817C183.516 44.0591 183.551 44.0428 183.588 44.0337C183.624 44.0246 183.663 44.023 183.7 44.0288C183.738 44.0346 183.774 44.0478 183.806 44.0676C183.87 44.1088 183.915 44.1732 183.932 44.2471C183.949 44.321 183.937 44.3987 183.898 44.4637C183.232 45.5317 182.709 46.6801 182.784 46.9155C182.859 47.1509 183.536 47.0016 183.886 46.9155C183.959 46.8957 184.037 46.905 184.104 46.9414C184.17 46.9778 184.22 47.0385 184.242 47.1107C184.254 47.1469 184.258 47.185 184.254 47.2227C184.25 47.2605 184.239 47.2971 184.221 47.3303C184.202 47.3636 184.178 47.3928 184.148 47.4162C184.118 47.4397 184.084 47.4568 184.047 47.4667C183.776 47.5412 183.496 47.5779 183.215 47.5758Z" fill="#231F20"/>
<path d="M185.584 44.6336C185.795 44.6084 185.937 44.3454 185.901 44.0463C185.865 43.7472 185.665 43.5252 185.454 43.5504C185.243 43.5756 185.101 43.8386 185.137 44.1377C185.173 44.4368 185.373 44.6588 185.584 44.6336Z" fill="#231F20"/>
<path d="M182.255 44.302C182.309 44.0056 182.183 43.7345 181.974 43.6965C181.765 43.6584 181.552 43.8679 181.498 44.1643C181.444 44.4606 181.57 44.7318 181.779 44.7698C181.988 44.8078 182.201 44.5984 182.255 44.302Z" fill="#231F20"/>
<path d="M183.077 50.7395C182.875 50.7463 182.674 50.7121 182.485 50.6391C182.297 50.5661 182.125 50.4557 181.98 50.3146C181.228 49.505 181.435 48.0983 181.446 48.0179C181.458 47.9523 181.492 47.8927 181.542 47.8489C181.592 47.8051 181.655 47.7796 181.722 47.7767C185.305 47.6963 185.322 47.7193 185.437 47.8399C185.49 47.9041 185.517 47.9863 185.511 48.0696C185.455 48.6286 185.271 49.1672 184.972 49.6428C184.784 49.9398 184.531 50.1905 184.233 50.3764C183.935 50.5623 183.598 50.6786 183.249 50.7165L183.077 50.7395ZM182.015 48.3624C181.951 48.913 182.094 49.4676 182.417 49.9184C182.524 50.014 182.651 50.0851 182.789 50.1268C182.927 50.1684 183.072 50.1796 183.215 50.1596C183.479 50.1287 183.734 50.0389 183.959 49.8968C184.185 49.7547 184.376 49.564 184.518 49.3385C184.715 49.0286 184.849 48.6834 184.914 48.3222C184.311 48.3222 182.979 48.3452 182.015 48.3624Z" fill="#231F20"/>
<path d="M184.731 49.4993C183.996 50.6075 182.686 50.6477 182.187 50.1195C182.277 49.8914 182.418 49.687 182.599 49.5218C182.78 49.3566 182.997 49.235 183.232 49.1663C183.755 49.0993 184.285 49.2171 184.731 49.4993Z" fill="#231F20"/>
<path d="M183.077 50.7337C182.875 50.7416 182.674 50.7085 182.485 50.6365C182.297 50.5644 182.125 50.4549 181.98 50.3146C181.94 50.2714 181.914 50.2168 181.905 50.1582C181.897 50.0996 181.907 50.0399 181.934 49.9873C182.038 49.7197 182.203 49.4804 182.416 49.2888C182.63 49.0972 182.886 48.9588 183.163 48.8849C183.762 48.7998 184.373 48.93 184.885 49.2523C184.918 49.2728 184.947 49.2997 184.97 49.3314C184.992 49.3631 185.008 49.399 185.017 49.4369C185.025 49.4749 185.026 49.5141 185.02 49.5524C185.013 49.5907 184.998 49.6273 184.977 49.66C184.789 49.9562 184.536 50.2061 184.238 50.391C183.94 50.5759 183.604 50.6911 183.255 50.728L183.077 50.7337ZM182.56 50.0447C182.755 50.1445 182.974 50.1844 183.192 50.1595C183.619 50.1153 184.013 49.91 184.294 49.5854C183.979 49.4389 183.628 49.387 183.283 49.4361C183.133 49.4857 182.994 49.5652 182.874 49.6698C182.755 49.7743 182.658 49.9018 182.589 50.0447H182.56Z" fill="#231F20"/>
<path d="M176.847 57.1646C176.847 57.4402 174.883 67.3849 174.883 67.3849L176.847 57.1646Z" fill="#231F20"/>
<path d="M174.866 67.672H174.809C174.735 67.6555 174.67 67.6109 174.628 67.5478C174.587 67.4846 174.571 67.4077 174.585 67.3333C175.366 63.4576 176.525 57.5722 176.543 57.1703C176.539 57.1339 176.542 57.0972 176.553 57.0622C176.564 57.0272 176.581 56.9948 176.605 56.9668C176.629 56.9389 176.658 56.9161 176.69 56.8997C176.723 56.8834 176.759 56.8739 176.795 56.8717C176.872 56.8653 176.948 56.8895 177.007 56.9389C177.067 56.9884 177.104 57.0591 177.111 57.1359C177.146 57.4172 175.894 63.7159 175.147 67.4711C175.129 67.5306 175.091 67.5824 175.04 67.6187C174.99 67.6549 174.928 67.6737 174.866 67.672Z" fill="#231F20"/>
<path d="M168.619 65.2318C168.619 65.272 167.321 71.6626 167.321 71.6626L156.613 64.451C155.556 62.315 155.401 61.2758 154.678 61.3906C153.817 61.5227 154.351 63.2567 154.425 63.561C153.851 63.0557 151.876 60.6097 151.17 61.0001C150.822 61.1663 150.516 61.4069 150.272 61.705C150.029 62.003 149.854 62.3511 149.76 62.7245C149.666 63.0979 149.656 63.4874 149.73 63.8652C149.804 64.243 149.96 64.5998 150.188 64.9103C150.705 65.5419 154.115 68.2118 154.115 68.2118C154.115 68.2118 164.984 80.2064 170.766 82.5663C172.386 83.2266 174.855 67.3621 174.855 67.3621L168.619 65.2318Z" fill="white"/>
<path d="M170.881 82.8936C170.809 82.8938 170.736 82.8801 170.669 82.8534C164.984 80.5222 154.626 69.2167 153.92 68.4243C153.627 68.1946 150.475 65.7257 149.964 65.0941C149.721 64.787 149.547 64.4308 149.455 64.0502C149.363 63.6696 149.354 63.2735 149.43 62.8892C149.521 62.4362 149.712 62.0092 149.989 61.6396C150.266 61.27 150.622 60.9671 151.032 60.7533C151.698 60.3801 152.697 61.3275 153.937 62.6481C153.851 62.2445 153.904 61.8237 154.087 61.4538C154.147 61.3592 154.226 61.2789 154.321 61.2184C154.415 61.1579 154.521 61.1187 154.632 61.1035C155.373 60.9887 155.66 61.6375 156.171 62.8261C156.349 63.228 156.561 63.7103 156.837 64.273L167.126 71.2033L168.338 65.1917C168.346 65.1514 168.362 65.1133 168.386 65.0797C168.41 65.0461 168.44 65.0177 168.475 64.9965C168.512 64.9794 168.553 64.9706 168.593 64.9706C168.634 64.9706 168.674 64.9794 168.711 64.9965L174.958 67.1496C175.022 67.1717 175.075 67.2154 175.11 67.2731C175.145 67.3309 175.158 67.3989 175.147 67.4654C174.774 69.8712 172.851 81.9175 171.18 82.8477C171.085 82.8863 170.983 82.902 170.881 82.8936ZM151.359 61.2356C151.337 61.2297 151.313 61.2297 151.29 61.2356C150.958 61.4082 150.668 61.652 150.44 61.9498C150.213 62.2476 150.054 62.5919 149.975 62.9581C149.918 63.2581 149.925 63.567 149.996 63.864C150.068 64.161 150.201 64.4395 150.389 64.6807C150.802 65.1744 153.334 67.1956 154.27 67.9305C154.414 68.0855 165.18 79.9423 170.87 82.285C171.725 82.1185 173.425 74.5508 174.527 67.5458L168.808 65.6108L167.58 71.7201C167.571 71.7664 167.551 71.8097 167.521 71.8459C167.49 71.8821 167.451 71.9099 167.407 71.9268C167.366 71.9505 167.32 71.9629 167.273 71.9629C167.225 71.9629 167.179 71.9505 167.138 71.9268L156.429 64.7151C156.388 64.6874 156.355 64.6499 156.332 64.606C156.033 64.0318 155.809 63.4921 155.625 63.0672C155.155 61.9992 154.971 61.6547 154.695 61.7007C154.665 61.7041 154.636 61.7141 154.61 61.73C154.585 61.7459 154.563 61.7672 154.546 61.7925C154.443 61.959 154.374 62.3667 154.661 63.4404V63.5151C154.679 63.5755 154.677 63.6403 154.655 63.6994C154.632 63.7585 154.591 63.8086 154.538 63.8419C154.484 63.8753 154.421 63.89 154.358 63.8839C154.295 63.8777 154.236 63.851 154.19 63.8079C154.046 63.6758 153.84 63.4577 153.576 63.1763C152.427 61.8614 151.675 61.2356 151.376 61.2356H151.359Z" fill="#231F20"/>
<path d="M195.261 66.0529L195.709 73.5172L183.496 76.79C182.319 75.9115 179.752 74.1086 179.678 74.9469C179.58 76.0436 180.677 77.2436 180.677 77.2436C180.677 77.2436 175.113 76.1527 174.866 77.2436C174.619 78.3346 175.389 79.3279 175.848 80.2236C176.307 81.1193 185.31 81.5672 185.31 81.5672C188.865 81.8543 199.171 82.5663 202.358 81.4638C206.228 80.1203 202.306 63.8423 202.306 63.8423" fill="white"/>
<path d="M195.881 82.3252C192.034 82.3252 187.676 82.0208 185.287 81.8314C182.537 81.6936 176.072 81.2572 175.59 80.327C175.503 80.1605 175.406 79.9825 175.302 79.8045C174.86 79.0236 174.361 78.1451 174.585 77.1575C174.832 76.0781 178.03 76.4628 179.999 76.8016C179.599 76.2536 179.385 75.5912 179.391 74.9125C179.395 74.8207 179.425 74.732 179.476 74.656C179.528 74.58 179.6 74.5198 179.683 74.4819C179.89 74.39 180.43 74.1488 183.559 76.4628L195.404 73.345L194.974 66.0816C194.972 66.0439 194.977 66.0061 194.989 65.9704C195.001 65.9347 195.021 65.9017 195.046 65.8735C195.071 65.8452 195.101 65.8221 195.135 65.8056C195.169 65.7891 195.206 65.7795 195.244 65.7773C195.319 65.7755 195.392 65.8024 195.449 65.8524C195.505 65.9025 195.541 65.9721 195.548 66.0472L195.996 73.5115C196 73.578 195.981 73.6439 195.942 73.6981C195.904 73.7524 195.848 73.7919 195.783 73.8101L183.571 77.037C183.529 77.0481 183.485 77.0498 183.442 77.0418C183.399 77.0339 183.359 77.0165 183.324 76.991C181.199 75.4063 180.229 74.9929 179.959 74.9872C179.913 75.9345 180.884 76.9968 180.889 77.0083C180.931 77.0521 180.957 77.1082 180.964 77.1681C180.972 77.2281 180.959 77.2888 180.929 77.3413C180.9 77.3942 180.855 77.4365 180.801 77.4623C180.746 77.4881 180.684 77.496 180.625 77.4848C177.599 76.9107 175.234 76.8819 175.147 77.2666C174.969 78.036 175.394 78.7825 175.802 79.5059C175.911 79.6897 176.014 79.8734 176.101 80.0801C176.485 80.5509 181.096 81.0562 185.322 81.2687C188.503 81.5271 199.102 82.2735 202.266 81.1768C205.234 80.149 203.098 68.3554 202.03 63.8998C202.021 63.8636 202.019 63.8258 202.024 63.7888C202.03 63.7518 202.042 63.7162 202.062 63.6841C202.081 63.652 202.106 63.6241 202.136 63.602C202.167 63.5799 202.201 63.564 202.237 63.5553C202.274 63.5458 202.313 63.5439 202.35 63.5495C202.388 63.5552 202.424 63.5682 202.457 63.588C202.489 63.6078 202.518 63.6339 202.54 63.6647C202.563 63.6956 202.579 63.7306 202.587 63.7677C203.222 66.5198 203.717 69.3024 204.069 72.1048C204.746 77.881 204.201 81.1136 202.45 81.7223C201.123 82.1701 198.631 82.3252 195.881 82.3252Z" fill="#231F20"/>
<path d="M195.261 66.34C195.189 66.3403 195.12 66.3141 195.067 66.2663C195.014 66.2185 194.981 66.1526 194.974 66.0816L194.279 58.0718C194.276 58.0341 194.28 57.9961 194.292 57.9601C194.303 57.924 194.322 57.8906 194.347 57.8618C194.371 57.833 194.401 57.8093 194.435 57.7921C194.469 57.775 194.505 57.7646 194.543 57.7617C194.618 57.7568 194.692 57.7809 194.75 57.829C194.807 57.8771 194.844 57.9455 194.853 58.0201L195.548 66.0586C195.551 66.0963 195.547 66.1343 195.535 66.1704C195.524 66.2064 195.505 66.2398 195.48 66.2686C195.456 66.2974 195.426 66.3211 195.392 66.3383C195.358 66.3554 195.322 66.3658 195.284 66.3687L195.261 66.34Z" fill="#231F20"/>
<path d="M153.828 65.1972C153.769 65.1972 153.712 65.179 153.663 65.1451C153.615 65.1112 153.578 65.0632 153.558 65.0078C153.474 64.8191 153.435 64.6131 153.445 64.4066C153.455 64.2001 153.513 63.9989 153.616 63.8192C153.718 63.6853 153.848 63.5745 153.996 63.4944C154.145 63.4142 154.309 63.3664 154.477 63.3541C154.553 63.3541 154.626 63.3844 154.68 63.4382C154.734 63.4921 154.764 63.5651 154.764 63.6412C154.764 63.7174 154.734 63.7904 154.68 63.8442C154.626 63.8981 154.553 63.9283 154.477 63.9283C154.397 63.9336 154.318 63.9558 154.247 63.9934C154.176 64.031 154.113 64.0832 154.064 64.1465C154.015 64.2519 153.991 64.3665 153.991 64.4824C153.991 64.5983 154.015 64.7128 154.064 64.8183C154.086 64.8914 154.079 64.9703 154.045 65.0386C154.011 65.107 153.952 65.1597 153.88 65.1858C153.863 65.1914 153.846 65.1952 153.828 65.1972Z" fill="#231F20"/>
<path d="M141.03 76.5775C140.973 76.5744 140.918 76.5548 140.872 76.5212C140.826 76.4875 140.791 76.4413 140.771 76.388L128.254 41.5238L114.422 68.4413C114.399 68.4838 114.367 68.5201 114.327 68.5471C114.287 68.5741 114.241 68.591 114.193 68.5964C114.145 68.6019 114.096 68.5948 114.052 68.5756C114.007 68.5565 113.969 68.526 113.94 68.4873L100.28 50.6418L91.6676 64.4565C91.6481 64.4891 91.6224 64.5175 91.5919 64.5401C91.5613 64.5626 91.5267 64.5789 91.4898 64.588C91.453 64.5971 91.4147 64.5987 91.3772 64.5929C91.3397 64.5871 91.3038 64.574 91.2714 64.5542L84.0654 60.2134C84.0325 60.195 84.0036 60.1701 83.9806 60.1402C83.9577 60.1102 83.9411 60.0759 83.932 60.0393C83.9228 60.0027 83.9213 59.9646 83.9274 59.9274C83.9336 59.8902 83.9474 59.8546 83.9678 59.8229C83.9867 59.7905 84.0119 59.7623 84.0419 59.7398C84.0719 59.7173 84.1061 59.701 84.1425 59.6919C84.1789 59.6828 84.2167 59.6811 84.2538 59.6868C84.2908 59.6926 84.3263 59.7057 84.3583 59.7253L91.3288 63.9168L100.016 49.9872C100.041 49.948 100.075 49.9151 100.115 49.8911C100.155 49.8672 100.199 49.8529 100.246 49.8494C100.293 49.8472 100.34 49.8564 100.383 49.8764C100.426 49.8964 100.464 49.9266 100.493 49.9643L114.112 67.7638L128.042 40.6741C128.068 40.6241 128.107 40.5827 128.156 40.5552C128.205 40.5276 128.261 40.5151 128.317 40.519C128.373 40.5225 128.427 40.5422 128.472 40.5759C128.517 40.6096 128.551 40.6557 128.57 40.7085L141.076 75.5439L147.26 62.4354C147.292 62.3673 147.35 62.3146 147.421 62.2888C147.492 62.263 147.57 62.2662 147.639 62.2976C147.673 62.3137 147.704 62.3364 147.73 62.3644C147.755 62.3925 147.775 62.4254 147.788 62.4612C147.801 62.497 147.806 62.5349 147.804 62.5729C147.802 62.6109 147.793 62.6481 147.776 62.6823L141.294 76.4052C141.271 76.4561 141.234 76.4994 141.187 76.5299C141.14 76.5604 141.086 76.5769 141.03 76.5775Z" fill="#D1D3D4"/>
<path d="M91.415 65.984C92.36 65.984 93.126 65.2179 93.126 64.2729C93.126 63.328 92.36 62.5619 91.415 62.5619C90.47 62.5619 89.7039 63.328 89.7039 64.2729C89.7039 65.2179 90.47 65.984 91.415 65.984Z" fill="white"/>
<path d="M91.4149 66.2653C91.0195 66.2653 90.6329 66.148 90.3042 65.9282C89.9755 65.7084 89.7194 65.396 89.5683 65.0305C89.4173 64.6651 89.378 64.263 89.4556 63.8753C89.5332 63.4875 89.724 63.1315 90.0041 62.8523C90.2841 62.573 90.6406 62.3832 91.0286 62.3067C91.4166 62.2303 91.8185 62.2707 92.1835 62.4228C92.5486 62.5749 92.8602 62.8319 93.0791 63.1613C93.298 63.4906 93.4142 63.8775 93.4131 64.2729C93.4115 64.8019 93.2003 65.3086 92.8258 65.6821C92.4512 66.0556 91.9439 66.2653 91.4149 66.2653ZM91.4149 62.8203C91.1333 62.8203 90.858 62.9038 90.6238 63.0602C90.3896 63.2167 90.2071 63.4391 90.0993 63.6993C89.9916 63.9595 89.9634 64.2458 90.0183 64.522C90.0732 64.7982 90.2089 65.052 90.408 65.2511C90.6072 65.4503 90.8609 65.5859 91.1371 65.6408C91.4133 65.6958 91.6996 65.6676 91.9598 65.5598C92.22 65.452 92.4424 65.2695 92.5989 65.0353C92.7554 64.8012 92.8389 64.5259 92.8389 64.2442C92.8314 63.8716 92.678 63.5167 92.4118 63.2558C92.1456 62.995 91.7877 62.8489 91.4149 62.849V62.8203Z" fill="#D1D3D4"/>
<path d="M100.257 51.8476C101.202 51.8476 101.968 51.0816 101.968 50.1366C101.968 49.1916 101.202 48.4255 100.257 48.4255C99.3122 48.4255 98.5462 49.1916 98.5462 50.1366C98.5462 51.0816 99.3122 51.8476 100.257 51.8476Z" fill="white"/>
<path d="M100.257 52.1347C99.8619 52.1358 99.475 52.0196 99.1456 51.8007C98.8163 51.5819 98.5593 51.2702 98.4072 50.9052C98.255 50.5402 98.2147 50.1383 98.2911 49.7503C98.3676 49.3623 98.5574 49.0057 98.8366 48.7257C99.1158 48.4457 99.4719 48.2548 99.8596 48.1772C100.247 48.0997 100.649 48.1389 101.015 48.29C101.38 48.441 101.693 48.6971 101.913 49.0259C102.132 49.3546 102.25 49.7411 102.25 50.1366C102.25 50.6655 102.04 51.1729 101.666 51.5474C101.293 51.922 100.786 52.1332 100.257 52.1347ZM100.257 48.6896C99.9752 48.6885 99.6991 48.7712 99.464 48.9272C99.229 49.0832 99.0456 49.3056 98.9371 49.566C98.8286 49.8264 98.7999 50.1132 98.8547 50.39C98.9094 50.6667 99.0452 50.921 99.2447 51.1205C99.4442 51.32 99.6984 51.4557 99.9752 51.5105C100.252 51.5652 100.539 51.5365 100.799 51.4281C101.06 51.3196 101.282 51.1362 101.438 50.9011C101.594 50.6661 101.677 50.39 101.676 50.1079C101.667 49.7372 101.513 49.3846 101.249 49.1252C100.984 48.8657 100.628 48.7197 100.257 48.7183V48.6896Z" fill="#D1D3D4"/>
<path d="M128.294 42.5172C129.239 42.5172 130.005 41.7511 130.005 40.8061C130.005 39.8612 129.239 39.0951 128.294 39.0951C127.349 39.0951 126.583 39.8612 126.583 40.8061C126.583 41.7511 127.349 42.5172 128.294 42.5172Z" fill="white"/>
<path d="M128.294 42.7986C127.899 42.7998 127.512 42.6834 127.182 42.4643C126.853 42.2452 126.596 41.9332 126.444 41.5678C126.292 41.2025 126.252 40.8002 126.329 40.4121C126.406 40.024 126.596 39.6674 126.876 39.3876C127.156 39.1078 127.512 38.9174 127.9 38.8405C128.288 38.7636 128.691 38.8036 129.056 38.9556C129.421 39.1075 129.733 39.3645 129.952 39.694C130.172 40.0235 130.288 40.4106 130.287 40.8062C130.285 41.3342 130.075 41.8401 129.702 42.2134C129.328 42.5867 128.822 42.7971 128.294 42.7986ZM128.294 39.3536C128.013 39.3524 127.737 39.435 127.502 39.5908C127.267 39.7465 127.083 39.9685 126.975 40.2286C126.866 40.4887 126.837 40.7752 126.891 41.0518C126.946 41.3284 127.081 41.5827 127.28 41.7824C127.479 41.9821 127.732 42.1183 128.009 42.1737C128.285 42.2291 128.572 42.2013 128.832 42.0936C129.093 41.986 129.316 41.8035 129.472 41.5692C129.629 41.335 129.713 41.0594 129.713 40.7775C129.705 40.4059 129.553 40.0519 129.288 39.7912C129.023 39.5304 128.666 39.3837 128.294 39.3823V39.3536Z" fill="#D1D3D4"/>
<path d="M141.03 78.0015C141.975 78.0015 142.741 77.2354 142.741 76.2904C142.741 75.3454 141.975 74.5793 141.03 74.5793C140.085 74.5793 139.319 75.3454 139.319 76.2904C139.319 77.2354 140.085 78.0015 141.03 78.0015Z" fill="white"/>
<path d="M141.03 78.2829C140.634 78.2829 140.248 78.1656 139.919 77.9458C139.59 77.7259 139.334 77.4135 139.183 77.0481C139.032 76.6826 138.993 76.2806 139.07 75.8928C139.148 75.5051 139.339 75.149 139.619 74.8698C139.899 74.5906 140.256 74.4008 140.643 74.3243C141.031 74.2479 141.433 74.2883 141.798 74.4404C142.163 74.5925 142.475 74.8495 142.694 75.1788C142.913 75.5082 143.029 75.8951 143.028 76.2905C143.026 76.8195 142.815 77.3262 142.441 77.6997C142.066 78.0732 141.559 78.2829 141.03 78.2829ZM141.03 74.8665C140.748 74.8665 140.473 74.9501 140.239 75.1065C140.005 75.263 139.822 75.4854 139.714 75.7456C139.606 76.0058 139.578 76.2921 139.633 76.5683C139.688 76.8445 139.824 77.0983 140.023 77.2974C140.222 77.4965 140.476 77.6322 140.752 77.6871C141.028 77.7421 141.315 77.7138 141.575 77.6061C141.835 77.4983 142.057 77.3158 142.214 77.0816C142.37 76.8474 142.454 76.5721 142.454 76.2905C142.454 75.9128 142.304 75.5507 142.037 75.2836C141.77 75.0166 141.407 74.8665 141.03 74.8665Z" fill="#D1D3D4"/>
<path d="M114.152 70.0204C115.097 70.0204 115.864 69.2543 115.864 68.3093C115.864 67.3643 115.097 66.5983 114.152 66.5983C113.207 66.5983 112.441 67.3643 112.441 68.3093C112.441 69.2543 113.207 70.0204 114.152 70.0204Z" fill="white"/>
<path d="M114.152 70.3076C113.757 70.3076 113.371 70.1904 113.042 69.9708C112.714 69.7513 112.458 69.4392 112.306 69.0741C112.155 68.709 112.116 68.3072 112.193 67.9196C112.27 67.532 112.46 67.176 112.74 66.8965C113.019 66.6171 113.375 66.4268 113.763 66.3497C114.15 66.2726 114.552 66.3121 114.917 66.4634C115.282 66.6146 115.594 66.8707 115.814 67.1993C116.033 67.5279 116.151 67.9142 116.151 68.3094C116.151 68.8394 115.94 69.3476 115.565 69.7223C115.191 70.097 114.682 70.3076 114.152 70.3076ZM114.152 66.8912C113.871 66.8912 113.595 66.9749 113.361 67.1316C113.126 67.2883 112.944 67.511 112.836 67.7716C112.729 68.0321 112.701 68.3187 112.756 68.5951C112.812 68.8715 112.948 69.1252 113.148 69.3241C113.347 69.523 113.602 69.6582 113.878 69.7125C114.155 69.7668 114.441 69.7377 114.701 69.6291C114.961 69.5204 115.183 69.337 115.339 69.1021C115.495 68.8672 115.578 68.5913 115.576 68.3094C115.575 67.9328 115.424 67.572 115.157 67.3062C114.89 67.0404 114.529 66.8912 114.152 66.8912Z" fill="#D1D3D4"/>
<path d="M94.1652 42.1728H86.2243C86.1482 42.1728 86.0752 42.1426 86.0213 42.0887C85.9675 42.0349 85.9372 41.9619 85.9372 41.8857C85.9372 41.8096 85.9675 41.7366 86.0213 41.6827C86.0752 41.6289 86.1482 41.5986 86.2243 41.5986H94.1652C94.2414 41.5986 94.3144 41.6289 94.3682 41.6827C94.4221 41.7366 94.4523 41.8096 94.4523 41.8857C94.4523 41.9619 94.4221 42.0349 94.3682 42.0887C94.3144 42.1426 94.2414 42.1728 94.1652 42.1728Z" fill="#D1D3D4"/>
<path d="M94.1652 44.2226H86.2243C86.1482 44.2226 86.0752 44.1924 86.0213 44.1385C85.9675 44.0847 85.9372 44.0117 85.9372 43.9355C85.9372 43.8594 85.9675 43.7864 86.0213 43.7325C86.0752 43.6787 86.1482 43.6484 86.2243 43.6484H94.1652C94.2414 43.6484 94.3144 43.6787 94.3682 43.7325C94.4221 43.7864 94.4523 43.8594 94.4523 43.9355C94.4508 44.0112 94.4201 44.0834 94.3666 44.1369C94.3131 44.1904 94.2409 44.2211 94.1652 44.2226Z" fill="#D1D3D4"/>
<path d="M94.1652 46.2724H86.2243C86.1482 46.2724 86.0752 46.2422 86.0213 46.1883C85.9675 46.1345 85.9372 46.0615 85.9372 45.9853C85.9372 45.9092 85.9675 45.8362 86.0213 45.7823C86.0752 45.7285 86.1482 45.6982 86.2243 45.6982H94.1652C94.2414 45.6982 94.3144 45.7285 94.3682 45.7823C94.4221 45.8362 94.4523 45.9092 94.4523 45.9853C94.4508 46.061 94.4201 46.1332 94.3666 46.1867C94.3131 46.2402 94.2409 46.271 94.1652 46.2724Z" fill="#D1D3D4"/>
<path d="M91.3575 48.3165H86.2243C86.1482 48.3165 86.0752 48.2862 86.0213 48.2324C85.9675 48.1786 85.9372 48.1055 85.9372 48.0294C85.9372 47.9533 85.9675 47.8802 86.0213 47.8264C86.0752 47.7726 86.1482 47.7423 86.2243 47.7423H91.3575C91.4336 47.7423 91.5066 47.7726 91.5605 47.8264C91.6143 47.8802 91.6446 47.9533 91.6446 48.0294C91.6446 48.1055 91.6143 48.1786 91.5605 48.2324C91.5066 48.2862 91.4336 48.3165 91.3575 48.3165Z" fill="#D1D3D4"/>
<path d="M147.615 50.0849H139.698C139.621 50.0849 139.548 50.0547 139.495 50.0008C139.441 49.947 139.41 49.874 139.41 49.7978C139.41 49.7217 139.441 49.6487 139.495 49.5948C139.548 49.541 139.621 49.5107 139.698 49.5107H147.615C147.692 49.5107 147.765 49.541 147.818 49.5948C147.872 49.6487 147.903 49.7217 147.903 49.7978C147.903 49.874 147.872 49.947 147.818 50.0008C147.765 50.0547 147.692 50.0849 147.615 50.0849Z" fill="#D1D3D4"/>
<path d="M147.615 52.1347H139.698C139.622 52.1333 139.55 52.1025 139.496 52.049C139.443 51.9955 139.412 51.9233 139.41 51.8476C139.41 51.7715 139.441 51.6985 139.495 51.6446C139.548 51.5908 139.621 51.5605 139.698 51.5605H147.615C147.692 51.5605 147.765 51.5908 147.818 51.6446C147.872 51.6985 147.903 51.7715 147.903 51.8476C147.903 51.8853 147.895 51.9227 147.881 51.9575C147.866 51.9923 147.845 52.024 147.818 52.0506C147.792 52.0773 147.76 52.0984 147.725 52.1129C147.69 52.1273 147.653 52.1347 147.615 52.1347Z" fill="#D1D3D4"/>
<path d="M144.951 54.1789H139.698C139.621 54.1789 139.548 54.1487 139.495 54.0948C139.441 54.041 139.41 53.968 139.41 53.8918C139.412 53.8161 139.443 53.744 139.496 53.6904C139.55 53.6369 139.622 53.6062 139.698 53.6047H144.951C145.027 53.6047 145.1 53.635 145.154 53.6888C145.208 53.7427 145.238 53.8157 145.238 53.8918C145.238 53.968 145.208 54.041 145.154 54.0948C145.1 54.1487 145.027 54.1789 144.951 54.1789Z" fill="#D1D3D4"/>
<path d="M149.809 82.8361H82.0156C81.9395 82.8361 81.8665 82.8059 81.8126 82.7521C81.7588 82.6982 81.7285 82.6252 81.7285 82.5491C81.7285 82.4729 81.7588 82.3999 81.8126 82.3461C81.8665 82.2922 81.9395 82.262 82.0156 82.262H149.809C149.885 82.262 149.958 82.2922 150.012 82.3461C150.066 82.3999 150.096 82.4729 150.096 82.5491C150.096 82.6252 150.066 82.6982 150.012 82.7521C149.958 82.8059 149.885 82.8361 149.809 82.8361Z" fill="#D1D3D4"/>
<path d="M149.809 86.752H82.0156C81.9395 86.752 81.8665 86.7218 81.8126 86.6679C81.7588 86.6141 81.7285 86.5411 81.7285 86.4649C81.7285 86.3888 81.7588 86.3158 81.8126 86.2619C81.8665 86.2081 81.9395 86.1779 82.0156 86.1779H149.809C149.885 86.1779 149.958 86.2081 150.012 86.2619C150.066 86.3158 150.096 86.3888 150.096 86.4649C150.096 86.5411 150.066 86.6141 150.012 86.6679C149.958 86.7218 149.885 86.752 149.809 86.752Z" fill="#D1D3D4"/>
<path d="M138.63 90.6679H82.0156C81.9395 90.6679 81.8665 90.6377 81.8126 90.5838C81.7588 90.53 81.7285 90.457 81.7285 90.3808C81.7285 90.3047 81.7588 90.2317 81.8126 90.1778C81.8665 90.124 81.9395 90.0938 82.0156 90.0938H138.63C138.706 90.0938 138.779 90.124 138.833 90.1778C138.886 90.2317 138.917 90.3047 138.917 90.3808C138.917 90.457 138.886 90.53 138.833 90.5838C138.779 90.6377 138.706 90.6679 138.63 90.6679Z" fill="#D1D3D4"/>
<path d="M141.081 115.214C140.087 114.323 138.962 113.589 137.745 113.038C137.642 116.609 139.095 119.894 140.433 122.139H144.785" fill="white"/>
<path d="M144.785 122.426H140.433C140.383 122.426 140.334 122.413 140.291 122.389C140.248 122.365 140.211 122.33 140.186 122.288C138.882 120.1 137.355 116.718 137.458 113.032C137.459 112.985 137.471 112.939 137.494 112.898C137.517 112.856 137.55 112.822 137.59 112.797C137.631 112.776 137.676 112.765 137.722 112.765C137.768 112.765 137.814 112.776 137.854 112.797C139.102 113.357 140.255 114.108 141.271 115.025C141.328 115.075 141.363 115.146 141.368 115.223C141.373 115.299 141.349 115.374 141.3 115.432C141.245 115.485 141.172 115.515 141.096 115.515C141.02 115.515 140.947 115.485 140.892 115.432C140.023 114.662 139.058 114.008 138.021 113.486C138.05 116.793 139.399 119.802 140.593 121.852H144.779C144.855 121.852 144.928 121.882 144.982 121.936C145.036 121.989 145.066 122.062 145.066 122.139C145.066 122.214 145.037 122.286 144.984 122.34C144.932 122.393 144.86 122.424 144.785 122.426Z" fill="#231F20"/>
<path d="M147.323 116.179C146.255 110.592 141.879 107.084 141.879 107.084C141.065 109.712 140.794 112.478 141.081 115.214C141.306 117.578 141.813 119.907 142.591 122.15H147.271" fill="white"/>
<path d="M147.271 122.426H142.592C142.532 122.427 142.473 122.409 142.423 122.375C142.374 122.341 142.336 122.293 142.316 122.236C141.539 119.978 141.029 117.637 140.794 115.26C140.499 112.485 140.775 109.679 141.604 107.015C141.619 106.97 141.644 106.929 141.678 106.896C141.712 106.863 141.754 106.839 141.799 106.825C141.843 106.814 141.89 106.812 141.934 106.821C141.979 106.83 142.021 106.849 142.058 106.877C142.241 107.026 146.525 110.517 147.604 116.138C147.611 116.176 147.611 116.215 147.603 116.253C147.595 116.29 147.58 116.326 147.559 116.357C147.537 116.389 147.509 116.416 147.477 116.437C147.445 116.458 147.409 116.473 147.372 116.48C147.334 116.487 147.295 116.487 147.258 116.479C147.22 116.471 147.184 116.456 147.153 116.435C147.121 116.413 147.094 116.385 147.073 116.353C147.052 116.321 147.037 116.285 147.03 116.248C146.163 111.717 143.011 108.542 142.012 107.606C141.313 110.076 141.09 112.656 141.357 115.208C141.574 117.476 142.054 119.712 142.787 121.869H147.26C147.336 121.869 147.409 121.899 147.463 121.953C147.516 122.007 147.547 122.08 147.547 122.156C147.542 122.227 147.512 122.294 147.461 122.344C147.41 122.394 147.342 122.423 147.271 122.426Z" fill="#231F20"/>
<path d="M149.637 122.15H145.491C145.451 120.927 145.726 119.067 147.059 116.655L147.323 116.19C149.728 112.125 151.916 112.171 151.916 112.171C152.852 116.437 150.888 120.25 149.637 122.15Z" fill="white"/>
<path d="M149.637 122.426H145.491C145.417 122.426 145.345 122.397 145.292 122.346C145.238 122.294 145.207 122.224 145.204 122.15C145.164 120.973 145.411 119.032 146.806 116.506L147.076 116.035C149.539 111.867 151.847 111.872 151.928 111.867C151.992 111.869 152.055 111.893 152.105 111.934C152.155 111.976 152.189 112.033 152.203 112.096C153.156 116.483 151.152 120.37 149.878 122.299C149.851 122.338 149.815 122.37 149.773 122.392C149.731 122.414 149.684 122.426 149.637 122.426ZM145.772 121.852H149.482C150.687 120.003 152.456 116.454 151.698 112.475C151.124 112.596 149.401 113.222 147.57 116.322L147.311 116.782C146.386 118.318 145.857 120.06 145.772 121.852Z" fill="#231F20"/>
<path d="M148.879 128.719H140.748L139.439 122.144H150.194L148.879 128.719Z" fill="#231F20"/>
</svg>
