<svg width="230" height="174" viewBox="0 0 230 174" fill="none" xmlns="http://www.w3.org/2000/svg">
<path d="M94.6018 118.59C89.0609 118.59 83.7785 119.245 79.7076 117.35C79.1548 117.093 78.7266 116.628 78.5172 116.055C78.3077 115.483 78.3342 114.851 78.5908 114.298C78.8474 113.745 79.3131 113.317 79.8854 113.108C80.4577 112.898 81.0898 112.925 81.6426 113.182C89.8246 116.983 104.288 116.908 113.389 110.144C119.469 105.631 121.95 99.1026 120.756 90.7426C120.587 89.5942 120.426 88.4861 120.273 87.4181C117.672 69.6186 116.696 62.9581 135.713 54.8736C147.771 49.7405 179.925 43.815 181.286 43.6886C181.895 43.6323 182.501 43.8202 182.972 44.2111C183.442 44.602 183.738 45.1638 183.795 45.7729C183.851 46.382 183.663 46.9886 183.272 47.4592C182.881 47.9297 182.32 48.2257 181.71 48.2821C181.383 48.3108 148.925 52.5367 137.499 57.3943C121.743 64.095 121.123 69.452 123.661 86.775C123.818 87.8353 123.979 88.9473 124.143 90.111C125.952 102.743 121.301 108.284 116.105 112.131C110.041 116.632 102.083 118.59 94.6018 118.59Z" fill="white"/>
<path d="M88.0273 118.987C84.9383 118.987 82.0501 118.751 79.5869 117.608C79.2707 117.471 78.9852 117.272 78.7473 117.022C78.5093 116.773 78.3236 116.479 78.2012 116.156C78.0788 115.834 78.0221 115.491 78.0344 115.146C78.0468 114.802 78.128 114.463 78.2732 114.15C78.4184 113.838 78.6247 113.557 78.88 113.326C79.1352 113.094 79.4343 112.916 79.7595 112.801C80.0847 112.687 80.4295 112.639 80.7736 112.66C81.1177 112.681 81.4541 112.77 81.763 112.923C89.8704 116.69 104.202 116.609 113.222 109.914C119.211 105.47 121.651 99.0051 120.474 90.7829C120.306 89.6345 120.145 88.5282 119.992 87.4641C117.362 69.5038 116.38 62.7744 135.604 54.6096C147.983 49.3444 180.154 43.4877 181.257 43.4016C181.942 43.3377 182.625 43.5485 183.154 43.9879C183.684 44.4272 184.018 45.059 184.082 45.7443C184.146 46.4295 183.935 47.1121 183.495 47.6419C183.056 48.1717 182.424 48.5053 181.739 48.5692C181.44 48.5979 148.959 52.8354 137.625 57.6585C122.3 64.1582 121.358 68.9641 123.954 86.7177V86.7751C124.109 87.8201 124.264 88.911 124.43 90.0536C126.273 102.996 121.353 108.582 116.288 112.343C110.616 116.558 102.904 118.877 94.5902 118.877C93.4418 118.877 92.2935 118.877 91.1911 118.935C90.0886 118.992 89.0666 118.987 88.0273 118.987ZM80.6778 113.245C80.296 113.243 79.9216 113.351 79.5983 113.554C79.2751 113.757 79.0162 114.048 78.852 114.393C78.6288 114.877 78.6062 115.429 78.7891 115.929C78.972 116.43 79.3455 116.837 79.8281 117.063C82.9975 118.539 86.9766 118.441 91.1911 118.338C92.2992 118.309 93.4476 118.28 94.6017 118.28C102.795 118.28 110.38 115.984 115.961 111.861C120.882 108.203 125.676 102.754 123.873 90.1111C123.707 88.9627 123.552 87.8833 123.397 86.8325V86.7751C120.796 68.9755 121.829 63.7161 137.412 57.09C148.896 52.2038 181.4 47.9836 181.693 47.9549C182.226 47.9054 182.718 47.6462 183.059 47.2343C183.401 46.8224 183.566 46.2916 183.516 45.7586C183.467 45.2256 183.207 44.7341 182.796 44.3923C182.384 44.0504 181.853 43.8861 181.32 43.9356C180.258 44.0332 147.851 49.9817 135.839 55.0976C117.023 63.096 117.988 69.699 120.572 87.3378C120.729 88.3981 120.89 89.5063 121.054 90.6623C122.26 99.1314 119.745 105.752 113.59 110.339C104.403 117.161 89.8073 117.23 81.5506 113.4C81.2739 113.288 80.9758 113.239 80.6778 113.256V113.245Z" fill="#231F20"/>
<path d="M167.586 50.5157C167.586 50.5157 177.444 53.5875 179.999 51.2047C182.554 48.8218 185.121 44.0619 185.121 44.0619C185.121 44.0619 188.44 47.9778 188.101 48.4888C187.762 48.9998 181.067 60.8107 173.58 59.4499C166.093 58.0891 162.9 59.4499 162.9 59.4499L167.586 50.5157Z" fill="#F14736"/>
<path d="M186.149 35.0702L177.559 40.4503L178.323 53.0248L187.498 57.3369L198.408 56.6766L197.058 34.4042L186.149 35.0702Z" fill="white"/>
<path d="M187.498 57.624C187.454 57.6234 187.411 57.6137 187.372 57.5953L178.185 53.289C178.137 53.267 178.096 53.2323 178.067 53.1888C178.038 53.1453 178.021 53.0945 178.018 53.0421L177.255 40.4675C177.252 40.4161 177.264 40.3649 177.288 40.3195C177.312 40.274 177.348 40.2359 177.392 40.2092L185.976 34.8234C186.018 34.798 186.066 34.7842 186.114 34.7832L197.024 34.1171C197.061 34.1148 197.099 34.1199 197.135 34.1322C197.171 34.1446 197.204 34.1638 197.232 34.1889C197.26 34.2139 197.283 34.2443 197.3 34.2783C197.316 34.3123 197.326 34.3493 197.328 34.387L198.677 56.6594C198.68 56.6971 198.674 56.7349 198.662 56.7706C198.65 56.8064 198.631 56.8393 198.606 56.8676C198.58 56.8958 198.55 56.9189 198.516 56.9354C198.482 56.9519 198.445 56.9615 198.407 56.9637L187.498 57.624ZM178.598 52.8411L187.55 57.0441L198.092 56.4067L196.777 34.7085L186.218 35.3516L177.858 40.6168L178.598 52.8411Z" fill="#231F20"/>
<path d="M197.25 37.4207L204.54 36.9786C204.861 36.9592 205.176 37.0679 205.417 37.2809C205.657 37.494 205.803 37.7938 205.823 38.1146C205.842 38.4353 205.733 38.7506 205.52 38.9911C205.307 39.2317 205.007 39.3777 204.687 39.3972L197.397 39.8392L197.25 37.4207Z" fill="#231F20"/>
<path d="M197.391 40.0885C197.33 40.0883 197.271 40.0659 197.225 40.0253C197.199 40.0046 197.178 39.9784 197.163 39.9487C197.148 39.9189 197.14 39.8863 197.139 39.8531L196.989 37.4358C196.987 37.4021 196.991 37.3684 197.002 37.3364C197.013 37.3045 197.031 37.2751 197.053 37.25C197.076 37.2248 197.103 37.2044 197.133 37.19C197.164 37.1756 197.197 37.1674 197.231 37.1659L204.517 36.7238C204.71 36.7091 204.905 36.7331 205.089 36.7942C205.273 36.8554 205.444 36.9526 205.59 37.0802C205.736 37.2078 205.856 37.3632 205.941 37.5373C206.027 37.7115 206.077 37.901 206.089 38.0948C206.101 38.2885 206.074 38.4827 206.01 38.666C205.946 38.8493 205.846 39.018 205.717 39.1624C205.587 39.3068 205.43 39.4239 205.254 39.507C205.079 39.5901 204.889 39.6375 204.695 39.6464L197.403 40.0885H197.391ZM197.512 37.654L197.627 39.566L204.666 39.1411C204.792 39.1348 204.916 39.1031 205.029 39.0478C205.143 38.9925 205.244 38.9149 205.326 38.8196C205.409 38.7259 205.473 38.6168 205.513 38.4986C205.553 38.3803 205.57 38.2552 205.562 38.1305C205.546 37.8777 205.43 37.6414 205.241 37.4727C205.052 37.304 204.804 37.2165 204.551 37.2291L197.512 37.654Z" fill="#231F20"/>
<path d="M198.084 51.234L205.375 50.792C205.695 50.7725 206.011 50.8813 206.251 51.0943C206.492 51.3073 206.638 51.6072 206.657 51.9279C206.677 52.2486 206.568 52.564 206.355 52.8045C206.142 53.045 205.842 53.1911 205.521 53.2105L198.231 53.6526L198.084 51.234Z" fill="#231F20"/>
<path d="M198.229 53.9148C198.167 53.914 198.106 53.8917 198.057 53.8516C198.009 53.8069 197.98 53.7451 197.977 53.6794L197.828 51.2621C197.825 51.2284 197.83 51.1947 197.841 51.1627C197.852 51.1308 197.869 51.1014 197.891 51.0763C197.914 51.0511 197.941 51.0307 197.971 51.0163C198.002 51.0019 198.035 50.9937 198.069 50.9922L205.355 50.5501C205.549 50.5354 205.743 50.5593 205.927 50.6205C206.112 50.6817 206.282 50.7789 206.428 50.9065C206.574 51.0341 206.694 51.1895 206.78 51.3636C206.865 51.5378 206.916 51.7273 206.927 51.921C206.939 52.1148 206.912 52.309 206.848 52.4923C206.784 52.6755 206.685 52.8443 206.555 52.9887C206.425 53.1331 206.268 53.2502 206.093 53.3333C205.917 53.4164 205.727 53.4638 205.533 53.4727L198.241 53.9148H198.229ZM198.35 51.4803L198.465 53.3923L205.504 52.9674C205.756 52.9497 205.991 52.8339 206.159 52.645C206.326 52.4561 206.413 52.209 206.4 51.9568C206.393 51.8306 206.362 51.7069 206.307 51.593C206.252 51.479 206.175 51.3772 206.081 51.2933C205.986 51.2094 205.876 51.1451 205.756 51.1043C205.636 51.0635 205.51 51.0468 205.384 51.0554L198.35 51.4803Z" fill="#231F20"/>
<path d="M177.723 43.0885L169.51 43.5865L169.952 50.871L178.165 50.373L177.723 43.0885Z" fill="white"/>
<path d="M169.957 51.1645C169.888 51.1652 169.82 51.1407 169.768 51.0956C169.71 51.0441 169.675 50.9719 169.67 50.8946L169.228 43.614C169.225 43.5382 169.251 43.4642 169.301 43.4074C169.352 43.3506 169.422 43.3156 169.498 43.3097L177.714 42.8102C177.79 42.807 177.864 42.8333 177.921 42.8837C177.978 42.934 178.013 43.0044 178.018 43.0801L178.449 50.3779C178.451 50.4533 178.424 50.5266 178.374 50.5831C178.324 50.6395 178.254 50.675 178.179 50.6822L169.957 51.1645ZM169.819 43.8667L170.227 50.5731L177.869 50.1138L177.462 43.4016L169.819 43.8667Z" fill="#231F20"/>
<path d="M187.98 49.775C189.994 49.775 191.626 48.1426 191.626 46.1289C191.626 44.1153 189.994 42.4829 187.98 42.4829C185.967 42.4829 184.334 44.1153 184.334 46.1289C184.334 48.1426 185.967 49.775 187.98 49.775Z" fill="#D1D3D4"/>
<path d="M167.086 35.7879C166.408 35.033 165.527 34.4889 164.548 34.2204C163.704 34.0482 163.216 34.3812 162.481 34.6568C162.194 34.7659 162.137 35.231 161.827 35.2884C161.517 35.3458 160.925 35.0472 160.586 35.0185C159.545 34.9234 158.498 35.1388 157.578 35.6374C156.659 36.136 155.907 36.8956 155.419 37.8205C154.207 40.0541 153.754 42.2819 152.054 44.2456C150.495 46.108 149.192 48.1703 148.178 50.3778C146.651 53.4669 145.101 56.6134 144.59 60.0183C144.079 63.4232 144.774 67.1955 147.22 69.6243C149.666 72.0531 153.713 72.7593 157.118 71.7832C160.523 70.8071 163.394 68.4415 165.61 65.6797C170.589 59.4843 173.322 50.8716 171.272 43.2235C170.559 40.4183 169.115 37.8525 167.086 35.7879Z" fill="white"/>
<path d="M153.995 72.524C151.399 72.5825 148.883 71.6196 146.99 69.8426C144.693 67.5459 143.7 63.8884 144.285 59.9897C144.802 56.5102 146.375 53.335 147.903 50.2631C148.932 48.0291 150.257 45.9434 151.842 44.062C152.793 42.8698 153.542 41.5294 154.058 40.0944C154.391 39.3078 154.73 38.4982 155.172 37.6828C155.691 36.7087 156.486 35.9095 157.457 35.3855C158.429 34.8615 159.533 34.636 160.632 34.7373C160.829 34.7602 161.022 34.8084 161.207 34.8808C161.389 34.9562 161.583 35.0008 161.781 35.0129C161.838 35.0129 161.901 34.9038 161.959 34.8119C162.061 34.6254 162.22 34.4765 162.412 34.3871L162.797 34.232C163.36 33.9332 164.006 33.8301 164.634 33.9392C165.666 34.2243 166.595 34.7956 167.316 35.5871C169.373 37.6926 170.835 40.3059 171.553 43.1605C173.488 50.3722 171.295 59.071 165.84 65.8693C163.291 69.0445 160.305 71.1862 157.227 72.0704C156.177 72.3727 155.088 72.5254 153.995 72.524ZM160.127 35.2885C159.212 35.2788 158.312 35.5226 157.526 35.9928C156.741 36.463 156.101 37.1413 155.677 37.9527C155.247 38.7451 154.914 39.5432 154.586 40.3183C154.05 41.8064 153.274 43.1969 152.29 44.4352C150.741 46.2794 149.448 48.3248 148.448 50.5157C146.944 53.5474 145.394 56.6824 144.883 60.0758C144.308 63.7965 145.279 67.2932 147.432 69.4349C149.729 71.7316 153.501 72.5355 157.049 71.5249C160.041 70.6694 162.923 68.5909 165.398 65.5133C170.744 58.8528 172.862 50.3492 171.008 43.3098C170.305 40.5629 168.891 38.0497 166.908 36.0235C166.276 35.2994 165.442 34.7797 164.514 34.5306C163.999 34.444 163.471 34.5352 163.015 34.789L162.608 34.9555C162.55 34.9555 162.493 35.0646 162.43 35.1565C162.324 35.3616 162.143 35.5179 161.924 35.5928C161.612 35.6324 161.296 35.5826 161.011 35.4493C160.874 35.3975 160.731 35.359 160.586 35.3344L160.127 35.2885Z" fill="#231F20"/>
<path d="M163.308 139.594C181.345 139.594 195.967 137.411 195.967 134.719C195.967 132.027 181.345 129.844 163.308 129.844C145.271 129.844 130.649 132.027 130.649 134.719C130.649 137.411 145.271 139.594 163.308 139.594Z" fill="#D1D3D4"/>
<path d="M66.7655 130.998C84.6537 130.998 99.155 129.574 99.155 127.817C99.155 126.061 84.6537 124.636 66.7655 124.636C48.8773 124.636 34.3761 126.061 34.3761 127.817C34.3761 129.574 48.8773 130.998 66.7655 130.998Z" fill="#D1D3D4"/>
<path d="M95.9166 75.6417C98.8453 71.4147 100.561 66.4667 100.878 61.334C101.196 56.2014 100.102 51.0798 97.7162 46.5242C95.3304 41.9687 91.7433 38.1531 87.3436 35.4908C82.944 32.8284 77.8996 31.421 72.7571 31.421C67.6147 31.421 62.5703 32.8284 58.1706 35.4908C53.7709 38.1531 50.1838 41.9687 47.798 46.5242C45.4122 51.0798 44.3186 56.2014 44.6358 61.334C44.953 66.4667 46.669 71.4147 49.5976 75.6417L49.6263 75.6762C50.3412 76.7084 51.1259 77.6907 51.9747 78.616C53.1518 80.2466 56.35 82.3137 56.9127 84.2314C57.8858 87.2746 59.0558 90.2513 60.4151 93.1427H85.1048C86.4597 90.2579 87.6277 87.289 88.6016 84.2544C89.1758 82.3366 92.3625 80.2696 93.5395 78.6389C94.3848 77.712 95.1674 76.7299 95.8822 75.6991L95.9166 75.6417Z" fill="#F14736"/>
<path d="M75.4701 95.1638C75.4324 95.1616 75.3955 95.152 75.3615 95.1355C75.3275 95.119 75.2971 95.096 75.272 95.0677C75.2469 95.0394 75.2277 95.0065 75.2154 94.9708C75.2031 94.935 75.1979 94.8972 75.2003 94.8595C75.2462 93.9408 76.1362 77.6341 78.0367 66.4893C74.4027 66.7114 70.7577 66.6845 67.1273 66.4089C67.6556 68.7937 68.1072 71.5077 68.4824 74.5508C69.2501 81.1913 69.6335 87.8705 69.6307 94.5552C69.6293 94.6309 69.5985 94.703 69.545 94.7566C69.4915 94.8101 69.4193 94.8408 69.3436 94.8423C69.3054 94.8423 69.2676 94.8347 69.2324 94.8199C69.1972 94.8051 69.1653 94.7835 69.1386 94.7562C69.1118 94.7289 69.0908 94.6966 69.0767 94.6611C69.0626 94.6256 69.0558 94.5876 69.0565 94.5494C69.0565 94.2968 69.1829 78.105 66.5416 66.3688C57.3663 65.6453 54.3403 60.7533 54.5471 57.6068C54.6963 55.2354 56.5222 53.6737 58.9969 53.8287C62.4765 54.0354 65.1406 58.0604 66.9493 65.8061C70.6656 66.0914 74.3971 66.1183 78.1171 65.8864C78.7602 62.2404 79.5123 59.2088 80.4138 57.5379C82.3373 53.8631 85.2484 51.7559 87.6542 52.2956C89.6294 52.732 90.8409 54.8048 90.9787 57.98C91.0476 58.8922 90.9151 59.8083 90.5906 60.6636C90.2662 61.5189 89.7577 62.2924 89.1011 62.9294C87.1604 64.8242 83.7039 65.9783 78.6396 66.4147C76.7104 77.7088 75.7687 94.6413 75.7687 94.871C75.7687 94.9099 75.7609 94.9485 75.7459 94.9844C75.7308 95.0203 75.7087 95.0528 75.6809 95.0801C75.6531 95.1074 75.6201 95.1288 75.584 95.1432C75.5478 95.1576 75.5091 95.1646 75.4701 95.1638ZM86.8561 52.8067C84.835 52.8067 82.521 54.7302 80.8961 57.825C80.0636 59.4155 79.3401 62.3323 78.7142 65.8635C83.5488 65.4328 86.8446 64.3304 88.6762 62.539C89.28 61.9627 89.7478 61.2592 90.0457 60.4796C90.3437 59.6999 90.4643 58.8637 90.3988 58.0317C90.2725 55.1321 89.2504 53.2545 87.5279 52.8641C87.3075 52.8134 87.0822 52.7864 86.8561 52.7837V52.8067ZM58.6697 54.3971C58.2216 54.37 57.7726 54.4333 57.3494 54.5832C56.9263 54.7332 56.5376 54.9667 56.2066 55.2699C55.8755 55.5731 55.6088 55.9398 55.4224 56.3482C55.2359 56.7565 55.1335 57.1982 55.1212 57.647C54.9375 60.5179 57.7854 65.0424 66.3579 65.7601C64.8823 59.4844 62.5856 54.6153 58.9625 54.3971H58.6697Z" fill="white"/>
<path d="M84.3298 93.1599H61.1616C60.3276 93.1599 59.6516 93.836 59.6516 94.67V95.6978C59.6516 96.5318 60.3276 97.2079 61.1616 97.2079H84.3298C85.1638 97.2079 85.8398 96.5318 85.8398 95.6978V94.67C85.8398 93.836 85.1638 93.1599 84.3298 93.1599Z" fill="white"/>
<path d="M84.3297 97.4949H61.1674C60.6902 97.4949 60.2325 97.3058 59.8945 96.9689C59.5566 96.632 59.366 96.1749 59.3644 95.6978V94.6757C59.366 94.198 59.5564 93.7403 59.8942 93.4025C60.232 93.0648 60.6897 92.8743 61.1674 92.8728H84.3297C84.8069 92.8743 85.264 93.0649 85.6009 93.4029C85.9378 93.7408 86.1269 94.1986 86.1269 94.6757V95.6978C86.1254 96.1739 85.9356 96.6302 85.5989 96.9669C85.2622 97.3036 84.8059 97.4934 84.3297 97.4949ZM61.1674 93.4412C60.8415 93.4412 60.5289 93.5707 60.2985 93.8011C60.0681 94.0316 59.9386 94.3441 59.9386 94.67V95.692C59.9401 96.0169 60.0703 96.328 60.3005 96.5572C60.5308 96.7864 60.8425 96.915 61.1674 96.915H84.3297C84.6536 96.9135 84.9638 96.7842 85.1929 96.5551C85.4219 96.3261 85.5512 96.0159 85.5527 95.692V94.67C85.5527 94.3451 85.4241 94.0334 85.1949 93.8032C84.9657 93.5729 84.6546 93.4428 84.3297 93.4412H61.1674Z" fill="#231F20"/>
<path d="M84.3298 97.2079H61.1616C60.3276 97.2079 59.6516 97.884 59.6516 98.718V99.7458C59.6516 100.58 60.3276 101.256 61.1616 101.256H84.3298C85.1638 101.256 85.8398 100.58 85.8398 99.7458V98.718C85.8398 97.884 85.1638 97.2079 84.3298 97.2079Z" fill="white"/>
<path d="M84.3297 101.543H61.1674C60.6897 101.541 60.232 101.351 59.8942 101.013C59.5564 100.675 59.366 100.218 59.3644 99.74V98.718C59.366 98.2408 59.5566 97.7837 59.8945 97.4468C60.2325 97.1099 60.6902 96.9208 61.1674 96.9208H84.3297C84.8059 96.9223 85.2622 97.1121 85.5989 97.4488C85.9356 97.7855 86.1254 98.2418 86.1269 98.718V99.7572C86.1224 100.231 85.9312 100.685 85.5948 101.019C85.2585 101.353 84.8039 101.541 84.3297 101.543ZM61.1674 97.495C60.8425 97.495 60.5308 97.6236 60.3005 97.8528C60.0703 98.082 59.9401 98.3931 59.9386 98.718V99.7572C59.9386 100.083 60.0681 100.396 60.2985 100.626C60.5289 100.857 60.8415 100.986 61.1674 100.986H84.3297C84.6546 100.984 84.9657 100.854 85.1949 100.624C85.4241 100.394 85.5527 100.082 85.5527 99.7572V98.7352C85.5512 98.4113 85.4219 98.1011 85.1929 97.8721C84.9638 97.643 84.6536 97.5137 84.3297 97.5122L61.1674 97.495Z" fill="#231F20"/>
<path d="M84.3298 101.256H61.1616C60.3276 101.256 59.6516 101.932 59.6516 102.766V103.794C59.6516 104.628 60.3276 105.304 61.1616 105.304H84.3298C85.1638 105.304 85.8398 104.628 85.8398 103.794V102.766C85.8398 101.932 85.1638 101.256 84.3298 101.256Z" fill="white"/>
<path d="M84.3297 105.585H61.1674C60.6902 105.585 60.2325 105.396 59.8945 105.059C59.5566 104.722 59.366 104.265 59.3644 103.788V102.766C59.366 102.289 59.5566 101.832 59.8945 101.495C60.2325 101.158 60.6902 100.969 61.1674 100.969H84.3297C84.8064 100.969 85.2635 101.158 85.6005 101.495C85.9376 101.832 86.1269 102.289 86.1269 102.766V103.776C86.1284 104.013 86.0831 104.248 85.9934 104.468C85.9038 104.687 85.7716 104.887 85.6046 105.055C85.4376 105.223 85.2389 105.356 85.0201 105.447C84.8013 105.538 84.5667 105.585 84.3297 105.585ZM61.1674 101.566C61.0063 101.565 60.8466 101.596 60.6976 101.657C60.5485 101.718 60.413 101.808 60.2989 101.922C60.1847 102.036 60.0941 102.171 60.0323 102.32C59.9704 102.468 59.9386 102.628 59.9386 102.789V103.776C59.9386 103.938 59.9704 104.097 60.0323 104.246C60.0941 104.395 60.1847 104.53 60.2989 104.643C60.413 104.757 60.5485 104.847 60.6976 104.908C60.8466 104.969 61.0063 105 61.1674 104.999H84.3297C84.6541 104.999 84.9652 104.871 85.1945 104.641C85.4239 104.412 85.5527 104.101 85.5527 103.776V102.754C85.5527 102.43 85.4239 102.119 85.1945 101.89C84.9652 101.66 84.6541 101.531 84.3297 101.531L61.1674 101.566Z" fill="#231F20"/>
<path d="M84.3298 105.298H61.1616C60.3276 105.298 59.6516 105.974 59.6516 106.808V107.836C59.6516 108.67 60.3276 109.346 61.1616 109.346H84.3298C85.1638 109.346 85.8398 108.67 85.8398 107.836V106.808C85.8398 105.974 85.1638 105.298 84.3298 105.298Z" fill="white"/>
<path d="M84.3297 109.633H61.1674C60.6902 109.633 60.2325 109.444 59.8945 109.107C59.5566 108.77 59.366 108.313 59.3644 107.836V106.814C59.366 106.336 59.5564 105.879 59.8942 105.541C60.232 105.203 60.6897 105.013 61.1674 105.011H84.3297C84.8069 105.013 85.264 105.203 85.6009 105.541C85.9378 105.879 86.1269 106.337 86.1269 106.814V107.836C86.1254 108.312 85.9356 108.768 85.5989 109.105C85.2622 109.442 84.8059 109.632 84.3297 109.633ZM61.1674 105.614C60.8415 105.614 60.5289 105.743 60.2985 105.974C60.0681 106.204 59.9386 106.517 59.9386 106.843V107.865C59.9401 108.19 60.0703 108.501 60.3005 108.73C60.5308 108.959 60.8425 109.088 61.1674 109.088H84.3297C84.6536 109.086 84.9638 108.957 85.1929 108.728C85.4219 108.499 85.5512 108.189 85.5527 107.865V106.843C85.5527 106.518 85.4241 106.206 85.1949 105.976C84.9657 105.746 84.6546 105.615 84.3297 105.614H61.1674Z" fill="#231F20"/>
<path d="M76.2165 114.784H69.2747C68.4067 114.781 67.549 114.596 66.7575 114.24C65.966 113.884 65.2585 113.365 64.6812 112.717L61.684 109.346H83.8301L80.8329 112.717C80.253 113.368 79.5418 113.888 78.7461 114.245C77.9504 114.601 77.0883 114.785 76.2165 114.784Z" fill="#231F20"/>
<path d="M76.2166 115.071H69.2747C68.3635 115.071 67.4625 114.878 66.6312 114.505C65.7998 114.132 65.057 113.587 64.4516 112.906L61.4372 109.518C61.3995 109.478 61.3748 109.428 61.3666 109.373C61.3584 109.319 61.367 109.263 61.3913 109.214C61.4127 109.163 61.4486 109.12 61.4945 109.089C61.5405 109.058 61.5944 109.042 61.6497 109.042H83.8302C83.8861 109.042 83.9406 109.059 83.9874 109.089C84.0342 109.12 84.0713 109.163 84.0943 109.214C84.117 109.264 84.1248 109.319 84.1166 109.373C84.1085 109.427 84.0848 109.478 84.0484 109.518L81.0454 112.889C80.441 113.574 79.698 114.122 78.8655 114.499C78.033 114.875 77.1301 115.07 76.2166 115.071ZM62.31 109.633L64.8823 112.504C65.4343 113.123 66.111 113.619 66.868 113.958C67.6249 114.298 68.4451 114.473 69.2747 114.473H76.2166C77.047 114.473 77.8681 114.298 78.626 113.959C79.384 113.619 80.0617 113.124 80.6148 112.504L83.1871 109.633H62.31Z" fill="#231F20"/>
<path d="M87.4762 107.055H58.2447C55.378 107.055 53.0541 109.379 53.0541 112.246V123.649C53.0541 126.515 55.378 128.839 58.2447 128.839H87.4762C90.3428 128.839 92.6667 126.515 92.6667 123.649V112.246C92.6667 109.379 90.3428 107.055 87.4762 107.055Z" fill="white"/>
<path d="M87.4761 129.126H58.2447C56.7924 129.125 55.4 128.547 54.3731 127.52C53.3461 126.493 52.7685 125.101 52.767 123.649V112.246C52.7685 110.793 53.3461 109.401 54.3731 108.374C55.4 107.347 56.7924 106.769 58.2447 106.768H87.4761C88.9284 106.769 90.3208 107.347 91.3478 108.374C92.3747 109.401 92.9523 110.793 92.9538 112.246V123.649C92.9523 125.101 92.3747 126.493 91.3478 127.52C90.3208 128.547 88.9284 129.125 87.4761 129.126ZM58.2447 107.342C56.9447 107.344 55.6983 107.861 54.7791 108.78C53.8598 109.699 53.3427 110.946 53.3412 112.246V123.649C53.3427 124.949 53.8598 126.195 54.7791 127.114C55.6983 128.034 56.9447 128.551 58.2447 128.552H87.4761C88.7762 128.551 90.0225 128.034 90.9417 127.114C91.861 126.195 92.3781 124.949 92.3796 123.649V112.246C92.3781 110.946 91.861 109.699 90.9417 108.78C90.0225 107.861 88.7762 107.344 87.4761 107.342H58.2447Z" fill="#231F20"/>
<path d="M61.667 122.77C64.3307 122.77 66.4901 120.611 66.4901 117.947C66.4901 115.284 64.3307 113.124 61.667 113.124C59.0032 113.124 56.8439 115.284 56.8439 117.947C56.8439 120.611 59.0032 122.77 61.667 122.77Z" fill="white"/>
<path d="M61.6669 123.057C60.6562 123.057 59.6682 122.758 58.8278 122.196C57.9875 121.635 57.3325 120.837 56.9457 119.903C56.5589 118.969 56.4577 117.942 56.6549 116.95C56.8521 115.959 57.3388 115.048 58.0534 114.334C58.7681 113.619 59.6787 113.132 60.6699 112.935C61.6612 112.738 62.6887 112.839 63.6225 113.226C64.5562 113.613 65.3543 114.268 65.9159 115.108C66.4774 115.949 66.7771 116.937 66.7771 117.947C66.7756 119.302 66.2367 120.601 65.2787 121.559C64.3207 122.517 63.0217 123.056 61.6669 123.057ZM61.6669 113.411C60.7698 113.411 59.8928 113.677 59.1468 114.176C58.4009 114.674 57.8195 115.383 57.4762 116.211C57.1328 117.04 57.043 117.952 57.218 118.832C57.3931 119.712 57.8251 120.52 58.4594 121.155C59.0938 121.789 59.9021 122.221 60.782 122.396C61.6619 122.571 62.5739 122.481 63.4028 122.138C64.2316 121.795 64.94 121.213 65.4385 120.467C65.9369 119.721 66.2029 118.844 66.2029 117.947C66.2014 116.745 65.723 115.592 64.8727 114.741C64.0223 113.891 62.8695 113.413 61.6669 113.411Z" fill="#D1D3D4"/>
<path d="M85.8399 113.411H70.6241C70.548 113.411 70.475 113.381 70.4211 113.327C70.3673 113.273 70.337 113.2 70.337 113.124C70.337 113.048 70.3673 112.975 70.4211 112.921C70.475 112.867 70.548 112.837 70.6241 112.837H85.8399C85.916 112.837 85.989 112.867 86.0429 112.921C86.0967 112.975 86.127 113.048 86.127 113.124C86.127 113.2 86.0967 113.273 86.0429 113.327C85.989 113.381 85.916 113.411 85.8399 113.411Z" fill="#D1D3D4"/>
<path d="M85.8399 118.039H70.6241C70.548 118.039 70.475 118.009 70.4211 117.955C70.3673 117.901 70.337 117.828 70.337 117.752C70.337 117.676 70.3673 117.603 70.4211 117.549C70.475 117.495 70.548 117.465 70.6241 117.465H85.8399C85.916 117.465 85.989 117.495 86.0429 117.549C86.0967 117.603 86.127 117.676 86.127 117.752C86.127 117.828 86.0967 117.901 86.0429 117.955C85.989 118.009 85.916 118.039 85.8399 118.039Z" fill="#D1D3D4"/>
<path d="M80.5 122.673H70.6241C70.548 122.673 70.475 122.642 70.4211 122.589C70.3673 122.535 70.337 122.462 70.337 122.386C70.337 122.309 70.3673 122.236 70.4211 122.183C70.475 122.129 70.548 122.099 70.6241 122.099H80.5C80.5761 122.099 80.6492 122.129 80.703 122.183C80.7568 122.236 80.7871 122.309 80.7871 122.386C80.7871 122.462 80.7568 122.535 80.703 122.589C80.6492 122.642 80.5761 122.673 80.5 122.673Z" fill="#D1D3D4"/>
<path d="M188.445 57.2681C189.117 56.8105 189.613 56.1383 189.852 55.3618C190.086 54.5898 190.38 53.8373 190.731 53.111C190.813 52.935 190.947 52.7886 191.115 52.6919C191.202 52.6471 191.303 52.6382 191.397 52.6672C191.49 52.6962 191.569 52.7607 191.615 52.8469C191.641 52.9408 191.641 53.04 191.615 53.134C191.523 53.7541 191.391 54.3857 191.339 55.0058C191.729 54.5642 192.058 54.0716 192.315 53.5416L193.464 51.8191C193.549 51.666 193.665 51.5314 193.803 51.4229C193.874 51.3705 193.958 51.339 194.047 51.3319C194.135 51.3248 194.223 51.3424 194.302 51.3827C194.376 51.446 194.433 51.5273 194.467 51.6187C194.502 51.7101 194.512 51.8087 194.497 51.9052C194.466 52.0949 194.454 52.2873 194.463 52.4794C194.577 52.3339 194.717 52.2112 194.876 52.1177C194.957 52.0763 195.047 52.0548 195.137 52.0548C195.228 52.0548 195.318 52.0763 195.399 52.1177C195.697 52.3072 195.611 52.7608 195.456 53.0823C195.483 53.0457 195.517 53.0149 195.557 52.992C195.596 52.9691 195.64 52.9546 195.685 52.9492C195.73 52.9438 195.776 52.9477 195.82 52.9608C195.863 52.9738 195.904 52.9956 195.938 53.0249C196.005 53.0894 196.055 53.1691 196.084 53.2571C196.113 53.3451 196.12 53.4387 196.105 53.5302C196.065 53.7109 195.995 53.8836 195.898 54.0412C195.898 53.8747 196.197 53.8632 196.294 54.0067C196.33 54.0831 196.349 54.1664 196.349 54.2508C196.349 54.3351 196.33 54.4184 196.294 54.4948C195.944 55.5972 195.094 56.3838 194.314 57.1992C193.395 58.158 192.436 59.0882 191.443 59.9724" fill="white"/>
<path d="M191.454 60.248C191.417 60.2481 191.38 60.2398 191.346 60.224C191.313 60.2081 191.283 60.1849 191.259 60.1561C191.235 60.1321 191.215 60.1035 191.202 60.072C191.189 60.0404 191.182 60.0066 191.182 59.9724C191.182 59.9382 191.189 59.9044 191.202 59.8728C191.215 59.8413 191.235 59.8127 191.259 59.7887C192.241 58.9159 193.205 57.9857 194.13 57.0269L194.382 56.7685C195.114 56.1285 195.687 55.3263 196.053 54.4258C196.075 54.3629 196.086 54.2971 196.088 54.2306C196.05 54.2707 196 54.2978 195.945 54.308C195.891 54.3182 195.835 54.3111 195.785 54.2876C195.734 54.2641 195.693 54.2255 195.666 54.1771C195.639 54.1288 195.628 54.0732 195.634 54.0182C195.645 53.9447 195.674 53.8754 195.72 53.8172C195.778 53.7199 195.817 53.6128 195.835 53.5014C195.848 53.459 195.851 53.4142 195.844 53.3705C195.837 53.3267 195.82 53.2851 195.795 53.2488C195.781 53.2421 195.765 53.2386 195.749 53.2386C195.733 53.2386 195.717 53.2421 195.703 53.2488C195.67 53.3097 195.615 53.3551 195.549 53.375C195.482 53.3949 195.411 53.3877 195.35 53.355C195.289 53.3222 195.244 53.2667 195.224 53.2004C195.204 53.1342 195.211 53.0628 195.244 53.0019C195.359 52.7607 195.41 52.4277 195.278 52.3703C195.238 52.3496 195.194 52.3389 195.149 52.3389C195.104 52.3389 195.06 52.3496 195.02 52.3703C194.876 52.4454 194.749 52.549 194.647 52.6746C194.612 52.7095 194.569 52.7348 194.522 52.7479C194.474 52.761 194.424 52.7614 194.377 52.7492C194.328 52.7349 194.285 52.7066 194.252 52.6678C194.219 52.629 194.199 52.5814 194.193 52.531C194.173 52.3805 194.173 52.228 194.193 52.0774C194.193 52.02 194.193 51.9569 194.193 51.8994C194.193 51.842 194.193 51.6525 194.113 51.6181C194.078 51.6065 194.041 51.6036 194.005 51.6097C193.969 51.6157 193.935 51.6304 193.906 51.6525C193.797 51.7422 193.705 51.8512 193.636 51.9741L192.488 53.6966C192.396 53.8287 192.31 53.9895 192.212 54.1617C192.031 54.5583 191.775 54.9168 191.46 55.2182C191.417 55.2446 191.367 55.2585 191.316 55.2585C191.266 55.2585 191.216 55.2446 191.173 55.2182C191.128 55.1934 191.092 55.1565 191.067 55.1118C191.043 55.0671 191.032 55.0164 191.035 54.9656C191.069 54.5234 191.144 54.0813 191.219 53.6507C191.247 53.4555 191.282 53.266 191.311 53.0765C191.319 53.0271 191.319 52.9767 191.311 52.9272C191.287 52.9164 191.262 52.9108 191.236 52.9108C191.21 52.9108 191.185 52.9164 191.161 52.9272C191.045 53.004 190.951 53.1112 190.891 53.2373C190.652 53.7091 190.46 54.2033 190.317 54.7129C190.231 54.9598 190.151 55.2067 190.059 55.4479C189.804 56.2834 189.266 57.0041 188.537 57.4862C188.478 57.5201 188.407 57.5295 188.341 57.5124C188.274 57.4952 188.217 57.4529 188.181 57.3943C188.147 57.3338 188.138 57.2624 188.155 57.195C188.172 57.1276 188.214 57.0694 188.273 57.0326C188.896 56.6082 189.352 55.9813 189.565 55.2584C189.657 55.023 189.737 54.7876 189.818 54.5464C189.98 54.004 190.195 53.4789 190.461 52.9789C190.569 52.7516 190.748 52.566 190.972 52.4507C191.056 52.4151 191.147 52.3968 191.239 52.3968C191.331 52.3968 191.421 52.4151 191.506 52.4507C191.576 52.4771 191.639 52.5179 191.693 52.5702C191.746 52.6226 191.788 52.6855 191.816 52.755C191.858 52.8935 191.858 53.0413 191.816 53.1799C191.787 53.3751 191.758 53.5703 191.724 53.754C191.724 53.8402 191.724 53.9263 191.678 54.0124C191.701 53.9754 191.722 53.937 191.741 53.8976C191.845 53.7138 191.942 53.5359 192.04 53.3923L193.188 51.6698C193.295 51.4896 193.435 51.3317 193.602 51.2047C193.714 51.1236 193.847 51.0763 193.985 51.0682C194.124 51.06 194.261 51.0914 194.382 51.1588C194.496 51.2407 194.586 51.3514 194.642 51.4796C194.699 51.6078 194.72 51.7488 194.704 51.888C194.822 51.8216 194.956 51.7867 195.092 51.7867C195.227 51.7867 195.361 51.8216 195.479 51.888C195.605 51.9762 195.701 52.0997 195.756 52.2428C195.811 52.3859 195.823 52.5422 195.789 52.6918C195.884 52.7125 195.973 52.7558 196.048 52.8181C196.151 52.9101 196.229 53.027 196.274 53.1577C196.319 53.2884 196.33 53.4284 196.306 53.5646C196.3 53.6092 196.29 53.6534 196.277 53.6966C196.345 53.7336 196.403 53.7845 196.45 53.8459C196.511 53.9551 196.548 54.0767 196.557 54.2018C196.566 54.327 196.547 54.4525 196.501 54.5694C196.109 55.5474 195.493 56.4203 194.704 57.1187L194.457 57.3714C193.533 58.3417 192.557 59.2776 191.586 60.1619C191.552 60.2031 191.506 60.2331 191.454 60.248Z" fill="#231F20"/>
<path d="M146.795 105.849L143.171 113.733L128.851 106.492C128.851 106.492 123.827 114.33 124.832 114.456C125.837 114.583 129.328 113.342 129.328 113.342C129.328 113.342 147.087 124.826 148.994 122.879C150.9 120.933 157.899 104.879 157.899 104.879" fill="white"/>
<path d="M148.299 123.368C147.082 123.368 144.446 122.501 138.343 119.073C134.111 116.696 130.029 114.095 129.317 113.635C128.622 113.876 125.808 114.841 124.821 114.72C124.751 114.713 124.685 114.687 124.629 114.645C124.572 114.604 124.528 114.549 124.499 114.485C124.086 113.601 127.25 108.502 128.628 106.349C128.664 106.296 128.718 106.257 128.78 106.24C128.842 106.224 128.908 106.229 128.966 106.257L143.045 113.377L146.554 105.74C146.585 105.678 146.638 105.631 146.703 105.607C146.769 105.584 146.84 105.586 146.904 105.614C146.935 105.628 146.963 105.648 146.986 105.673C147.009 105.698 147.027 105.728 147.039 105.76C147.05 105.792 147.056 105.826 147.054 105.86C147.053 105.894 147.045 105.928 147.03 105.958L143.413 113.842C143.381 113.906 143.325 113.955 143.258 113.98C143.191 114.005 143.118 114.005 143.051 113.98L128.943 106.848C126.928 110.006 124.97 113.497 124.97 114.215H125.028C125.958 114.215 128.364 113.429 129.265 113.113C129.301 113.096 129.34 113.087 129.38 113.087C129.42 113.087 129.459 113.096 129.495 113.113C136.287 117.505 147.547 124.022 148.827 122.684C150.676 120.789 157.578 104.925 157.652 104.764C157.666 104.733 157.686 104.705 157.71 104.681C157.735 104.657 157.764 104.638 157.795 104.626C157.827 104.613 157.861 104.607 157.895 104.608C157.929 104.608 157.963 104.616 157.994 104.629C158.025 104.643 158.054 104.662 158.077 104.687C158.101 104.711 158.12 104.74 158.132 104.772C158.145 104.804 158.151 104.838 158.15 104.872C158.15 104.906 158.143 104.94 158.129 104.971C157.848 105.631 151.118 121.082 149.201 123.046C149.082 123.161 148.94 123.25 148.785 123.305C148.629 123.361 148.464 123.382 148.299 123.368Z" fill="#231F20"/>
<path d="M180.172 102.192L188.842 129.287C188.842 129.287 197.42 129.155 196.576 129.764C195.732 130.372 182.841 133.157 182.841 133.157L167.586 98.6089" fill="white"/>
<path d="M182.842 133.421C182.791 133.421 182.741 133.407 182.698 133.379C182.655 133.352 182.621 133.313 182.6 133.266L167.35 98.7065C167.322 98.6433 167.32 98.5715 167.345 98.5069C167.37 98.4423 167.419 98.3901 167.482 98.362C167.545 98.3338 167.617 98.3319 167.682 98.3566C167.747 98.3814 167.799 98.4308 167.827 98.494L182.997 132.859C187.59 131.86 194.222 130.338 196.002 129.729C193.62 129.538 191.23 129.479 188.842 129.551C188.785 129.553 188.729 129.537 188.684 129.503C188.638 129.47 188.605 129.422 188.589 129.368L179.925 102.272C179.903 102.206 179.908 102.134 179.939 102.071C179.971 102.009 180.025 101.961 180.091 101.939C180.158 101.919 180.23 101.926 180.293 101.958C180.355 101.99 180.402 102.045 180.424 102.111L189.037 129.023C196.674 128.914 196.817 129.379 196.886 129.597C196.908 129.671 196.905 129.75 196.877 129.822C196.849 129.894 196.797 129.954 196.731 129.993C195.87 130.614 184.231 133.146 182.905 133.439L182.842 133.421Z" fill="#231F20"/>
<path d="M155.35 53.955C151.744 58.7781 153.168 67.5229 153.903 74.1374L176.084 73.0292C176.084 73.0292 173.098 57.3369 172.179 51.6353C167.19 49.8496 158.95 49.1319 155.35 53.955Z" fill="#F14736"/>
<path d="M176.084 71.9785C176.021 71.9791 175.96 71.9566 175.912 71.9154C175.864 71.8742 175.834 71.817 175.825 71.7546C174.878 65.8405 172.317 54.0125 172.294 53.8919C172.29 53.8287 172.309 53.7661 172.347 53.7156C172.385 53.6652 172.44 53.6301 172.502 53.6169C172.564 53.6037 172.629 53.6132 172.685 53.6436C172.74 53.6741 172.783 53.7234 172.805 53.7828C172.805 53.9034 175.395 65.7429 176.342 71.6742C176.348 71.7082 176.347 71.743 176.339 71.7765C176.331 71.81 176.316 71.8416 176.296 71.8694C176.275 71.8973 176.25 71.9207 176.22 71.9385C176.191 71.9562 176.158 71.9679 176.124 71.9728L176.084 71.9785Z" fill="#231F20"/>
<path d="M153.725 74.0225C153.725 74.0225 150.326 80.3901 141.328 107.583C141.328 107.583 171.036 115.335 185.288 111.47L175.946 73.0636L153.725 74.0225Z" fill="#231F20"/>
<path d="M175.337 112.791C160.495 112.791 141.501 107.893 141.265 107.83C141.231 107.822 141.199 107.806 141.172 107.784C141.144 107.762 141.121 107.735 141.104 107.704C141.09 107.672 141.083 107.638 141.083 107.603C141.083 107.569 141.09 107.535 141.104 107.503C150.01 80.5969 153.484 73.9651 153.518 73.902C153.539 73.863 153.569 73.8303 153.607 73.807C153.644 73.7838 153.687 73.771 153.731 73.7699L175.951 72.811C176.01 72.8093 176.068 72.8276 176.115 72.8631C176.162 72.8986 176.195 72.9491 176.21 73.0063L185.552 111.407C185.568 111.471 185.558 111.539 185.525 111.596C185.491 111.653 185.437 111.694 185.374 111.712C182.088 112.5 178.715 112.863 175.337 112.791ZM141.656 107.405C144.607 108.152 171.588 114.761 184.983 111.287L175.745 73.345L153.88 74.2694C153.375 75.2915 149.815 82.7616 141.656 107.405Z" fill="#231F20"/>
<path d="M182.463 131.992C182.463 132.055 189.307 130.304 189.307 130.304C189.307 130.304 189.72 128.581 190.289 128.374C190.857 128.168 197.914 128.466 198.138 129.523C198.362 130.579 182.549 134.69 182.549 134.69L182.463 131.992Z" fill="#231F20"/>
<path d="M182.549 134.972C182.493 134.972 182.438 134.954 182.394 134.92C182.363 134.898 182.338 134.868 182.321 134.834C182.304 134.8 182.295 134.763 182.296 134.725L182.21 132.003C182.208 131.942 182.227 131.883 182.265 131.835C182.303 131.788 182.357 131.756 182.417 131.745H182.474C182.853 131.693 186.562 130.751 189.094 130.097C189.238 129.523 189.617 128.346 190.202 128.139C190.788 127.932 196.444 128.139 197.948 129C198.053 129.048 198.147 129.117 198.222 129.205C198.298 129.292 198.353 129.395 198.385 129.505C198.459 129.867 198.574 130.413 190.495 132.79C186.614 133.938 182.646 134.96 182.612 134.972H182.549ZM182.721 132.187L182.79 134.397C189.772 132.583 197.265 130.327 197.874 129.569C197.826 129.517 197.77 129.474 197.707 129.442C196.409 128.679 190.817 128.46 190.369 128.615C190.111 128.702 189.737 129.592 189.554 130.338C189.542 130.382 189.519 130.422 189.487 130.455C189.454 130.487 189.414 130.51 189.37 130.522C185.081 131.647 183.404 132.084 182.721 132.187Z" fill="#231F20"/>
<path d="M129.92 106.601L126.394 112.745L127.686 114.106C127.686 114.106 122.817 117.551 121.87 116.896C120.922 116.242 127.468 105.499 127.468 105.499L129.92 106.601Z" fill="#231F20"/>
<path d="M122.18 117.224C122.019 117.234 121.86 117.192 121.726 117.103C121.204 116.742 121.726 114.405 127.238 105.338C127.271 105.285 127.321 105.246 127.38 105.228C127.44 105.21 127.503 105.215 127.56 105.241L130.023 106.389C130.087 106.419 130.136 106.473 130.161 106.538C130.175 106.571 130.182 106.606 130.182 106.642C130.182 106.677 130.175 106.712 130.161 106.745L126.716 112.722L127.864 113.951C127.888 113.978 127.907 114.01 127.918 114.045C127.928 114.079 127.932 114.116 127.927 114.152C127.925 114.188 127.915 114.222 127.897 114.253C127.879 114.284 127.854 114.31 127.824 114.33C126.79 115.053 123.604 117.224 122.18 117.224ZM127.554 105.798C124.591 110.69 121.743 116.064 122.036 116.707C122.484 117.011 125.074 115.605 127.301 114.06L126.21 112.912C126.172 112.873 126.147 112.823 126.141 112.768C126.135 112.714 126.147 112.659 126.176 112.613L129.558 106.711L127.554 105.798Z" fill="#231F20"/>
<path d="M159.564 62.1599C159.564 62.1599 172.426 69.8826 180.384 70.4051C187.567 69.6415 193.079 59.5532 193.079 59.5532L188.486 55.7291C188.486 55.7291 180.367 61.5972 177.84 62.1083C174.97 61.6432 162.544 56.6134 162.544 56.6134" fill="#F14736"/>
<path d="M180.384 70.6694H180.344C173.752 69.4346 167.348 67.3502 161.293 64.4683C161.262 64.4536 161.234 64.4329 161.211 64.4075C161.188 64.3821 161.171 64.3524 161.159 64.3201C161.148 64.2879 161.143 64.2537 161.144 64.2195C161.146 64.1853 161.155 64.1518 161.169 64.1209C161.184 64.09 161.205 64.0623 161.23 64.0393C161.256 64.0164 161.285 63.9987 161.317 63.9872C161.35 63.9758 161.384 63.9708 161.418 63.9725C161.452 63.9743 161.486 63.9827 161.517 63.9974C167.528 66.8552 173.883 68.9241 180.424 70.1526C180.487 70.1656 180.543 70.2011 180.582 70.2524C180.621 70.3038 180.639 70.3675 180.635 70.4316C180.63 70.4957 180.601 70.5558 180.555 70.6006C180.509 70.6455 180.448 70.672 180.384 70.6751V70.6694Z" fill="#231F20"/>
<path d="M176.681 62.3667C176.654 62.372 176.627 62.372 176.6 62.3667C176.147 62.2117 165.519 58.5255 161.241 55.2584C161.185 55.2157 161.149 55.1528 161.14 55.0833C161.131 55.0139 161.149 54.9436 161.192 54.888C161.235 54.8325 161.298 54.7961 161.367 54.7869C161.437 54.7778 161.507 54.7966 161.562 54.8392C165.771 58.0546 176.658 61.8327 176.767 61.8729C176.827 61.8913 176.878 61.9309 176.911 61.9844C176.944 62.0378 176.957 62.1015 176.946 62.1635C176.935 62.2254 176.903 62.2814 176.854 62.3209C176.805 62.3604 176.743 62.3808 176.681 62.3782V62.3667Z" fill="#231F20"/>
<path d="M166.65 48.9424L167.603 52.6745C167.603 52.6745 167.551 54.5119 164.893 54.5693C162.234 54.6268 161.413 52.9961 161.413 52.9961L159.886 45.9337C159.886 45.9337 163.262 42.8216 161.654 38.9402C162.39 39.7434 163.355 40.3005 164.418 40.5358C165.482 40.7711 166.592 40.673 167.597 40.2551C168.113 42.0949 168.515 43.9644 168.803 45.8533C169.01 47.8859 166.65 48.9424 166.65 48.9424Z" fill="white"/>
<path d="M164.789 54.8737C162.091 54.8737 161.218 53.2143 161.183 53.1511C161.179 53.1284 161.179 53.105 161.183 53.0822L159.622 46.0141C159.612 45.9646 159.615 45.9135 159.63 45.8654C159.645 45.8173 159.672 45.7737 159.708 45.7385C159.742 45.7385 162.917 42.7126 161.43 39.0665C161.404 39.0035 161.401 38.933 161.421 38.8678C161.442 38.8026 161.486 38.747 161.544 38.711C161.602 38.6749 161.671 38.6609 161.739 38.6713C161.806 38.6818 161.868 38.7161 161.913 38.768C162.606 39.5307 163.519 40.0596 164.526 40.2817C165.533 40.5038 166.584 40.4082 167.534 40.0082C167.571 39.9912 167.611 39.9824 167.652 39.9824C167.692 39.9824 167.732 39.9912 167.769 40.0082C167.805 40.0261 167.837 40.0511 167.862 40.0817C167.888 40.1124 167.907 40.1479 167.919 40.1862C168.439 42.0404 168.841 43.9255 169.124 45.8304C169.314 47.6677 167.643 48.7472 167.029 49.0802L167.919 52.6114C167.924 52.6379 167.924 52.6653 167.919 52.6918C167.919 52.6918 167.827 54.799 164.927 54.8622L164.789 54.8737ZM161.712 52.91C161.832 53.1167 162.642 54.3569 164.916 54.2995C167.08 54.2536 167.316 52.9559 167.339 52.7205L166.403 49.0113C166.377 48.9485 166.373 48.8787 166.393 48.8137C166.413 48.7488 166.455 48.6928 166.512 48.6553C166.512 48.6553 168.676 47.6562 168.493 45.8763C168.232 44.1053 167.86 42.3525 167.379 40.6283C166.519 40.9376 165.596 41.0266 164.693 40.8872C163.791 40.7478 162.937 40.3844 162.211 39.8302C162.9 42.9595 160.713 45.4571 160.173 46.0198L161.712 52.91Z" fill="#231F20"/>
<path d="M161.017 45.4399C159.96 43.4992 156.791 44.837 158.387 46.8983C158.554 47.1234 158.764 47.3133 159.005 47.4571C159.246 47.6009 159.512 47.6958 159.79 47.7363C160.067 47.7768 160.35 47.7622 160.621 47.6933C160.893 47.6244 161.148 47.5025 161.373 47.3347" fill="white"/>
<path d="M160.138 48.0812C160.045 48.0869 159.951 48.0869 159.857 48.0812C159.52 48.0449 159.193 47.9407 158.897 47.7749C158.601 47.6092 158.342 47.3852 158.135 47.1165C157.895 46.871 157.733 46.5608 157.667 46.2241C157.602 45.8874 157.637 45.539 157.767 45.2217C157.922 44.9289 158.155 44.6842 158.439 44.5142C158.724 44.3441 159.049 44.2552 159.381 44.2571C159.761 44.2475 160.138 44.3445 160.466 44.5373C160.795 44.7301 161.063 45.0109 161.241 45.3481C161.259 45.3812 161.27 45.4177 161.274 45.4552C161.278 45.4928 161.275 45.5308 161.264 45.5671C161.254 45.6033 161.236 45.6371 161.212 45.6665C161.188 45.696 161.159 45.7204 161.126 45.7385C161.093 45.7566 161.056 45.768 161.019 45.772C160.981 45.776 160.943 45.7726 160.907 45.762C160.871 45.7513 160.837 45.7336 160.808 45.7099C160.778 45.6861 160.754 45.6569 160.736 45.6237C160.613 45.3761 160.422 45.1694 160.184 45.0288C159.947 44.8881 159.674 44.8195 159.398 44.8313C159.173 44.8284 158.951 44.8853 158.755 44.9963C158.56 45.1073 158.397 45.2683 158.284 45.4629C158.207 45.6868 158.194 45.9279 158.248 46.1584C158.302 46.389 158.42 46.5997 158.588 46.7663C158.746 46.9708 158.944 47.142 159.168 47.2701C159.393 47.3982 159.641 47.4806 159.897 47.5127C160.351 47.567 160.807 47.4389 161.166 47.1567C161.226 47.1098 161.301 47.0883 161.377 47.0969C161.452 47.1055 161.521 47.1435 161.568 47.2027C161.592 47.2318 161.61 47.2655 161.621 47.3017C161.631 47.3379 161.635 47.3759 161.63 47.4134C161.626 47.4509 161.614 47.4871 161.596 47.52C161.577 47.5528 161.552 47.5816 161.522 47.6046C161.128 47.9155 160.64 48.0836 160.138 48.0812Z" fill="#231F20"/>
<path d="M165.105 43.103C165.105 43.103 166.983 44.6533 166.776 45.0782C166.569 45.5031 165.628 45.549 165.628 45.549" fill="white"/>
<path d="M165.639 45.8362C165.563 45.8362 165.49 45.806 165.436 45.7521C165.382 45.6983 165.352 45.6253 165.352 45.5491C165.352 45.473 165.382 45.4 165.436 45.3461C165.49 45.2923 165.563 45.262 165.639 45.262C165.955 45.262 166.443 45.1357 166.529 44.9577C166.082 44.3371 165.544 43.7874 164.933 43.327C164.899 43.3049 164.871 43.276 164.849 43.2421C164.828 43.2083 164.813 43.1703 164.807 43.1306C164.801 43.0909 164.804 43.0504 164.814 43.0117C164.825 42.973 164.844 42.9369 164.869 42.9058C164.895 42.8748 164.926 42.8494 164.962 42.8313C164.998 42.8132 165.037 42.8029 165.077 42.8009C165.117 42.7989 165.157 42.8054 165.195 42.8199C165.232 42.8343 165.266 42.8565 165.295 42.8849C166.661 44.0333 167.247 44.7855 167.046 45.1816C166.776 45.7558 165.846 45.8018 165.662 45.8132L165.639 45.8362Z" fill="#231F20"/>
<path d="M163.188 42.8182C163.363 42.7616 163.44 42.5151 163.36 42.2677C163.279 42.0203 163.073 41.8656 162.898 41.9223C162.723 41.9789 162.646 42.2253 162.726 42.4727C162.806 42.7201 163.013 42.8748 163.188 42.8182Z" fill="#231F20"/>
<path d="M166.162 42.6349C166.337 42.5783 166.414 42.3319 166.334 42.0845C166.254 41.8371 166.047 41.6824 165.872 41.739C165.697 41.7956 165.62 42.0421 165.7 42.2895C165.78 42.5369 165.987 42.6916 166.162 42.6349Z" fill="#231F20"/>
<path d="M165.57 47.507C165.439 47.5075 165.308 47.4941 165.18 47.4668C164.812 47.3823 164.467 47.2181 164.17 46.986C163.872 46.7539 163.629 46.4594 163.457 46.1232C163.418 46.0578 163.406 45.9792 163.424 45.9049C163.442 45.8306 163.489 45.7666 163.555 45.7271C163.62 45.6875 163.699 45.6755 163.773 45.6938C163.847 45.7121 163.911 45.7592 163.951 45.8247C164.08 46.0895 164.265 46.3232 164.493 46.5096C164.721 46.696 164.986 46.8306 165.272 46.9041C165.825 46.9681 166.382 46.8181 166.828 46.485C166.888 46.4378 166.964 46.4164 167.04 46.4255C167.116 46.4347 167.185 46.4736 167.233 46.5338C167.28 46.5939 167.301 46.6704 167.292 46.7463C167.283 46.8222 167.244 46.8914 167.184 46.9386C166.716 47.2876 166.153 47.4859 165.57 47.507Z" fill="#231F20"/>
<path d="M166.65 48.9425C166.65 48.9425 164.692 49.3904 163.658 49.0688C163.658 49.0688 164.927 51.1301 167.189 51.2048L166.65 48.9425Z" fill="#231F20"/>
<path d="M167.189 51.4917C164.807 51.4113 163.48 49.3098 163.429 49.195C163.398 49.1454 163.384 49.0878 163.387 49.0298C163.39 48.9717 163.411 48.916 163.446 48.8699C163.481 48.8239 163.53 48.7897 163.585 48.7718C163.641 48.754 163.7 48.7534 163.756 48.7701C164.698 49.0687 166.581 48.6438 166.598 48.6381C166.672 48.6223 166.749 48.6356 166.813 48.6752C166.877 48.7147 166.924 48.7775 166.943 48.8505L167.477 51.1472C167.486 51.1889 167.486 51.2321 167.477 51.2737C167.467 51.3154 167.449 51.3544 167.422 51.3879C167.396 51.4215 167.362 51.4487 167.324 51.4677C167.286 51.4866 167.244 51.4968 167.201 51.4975L167.189 51.4917ZM164.319 49.4649C164.96 50.2094 165.838 50.7119 166.805 50.8888L166.426 49.2754C165.736 49.416 165.034 49.4796 164.33 49.4649H164.319Z" fill="#231F20"/>
<path d="M45.8942 114.072C46.9051 113.163 48.0496 112.416 49.2876 111.855C49.3909 115.484 47.9153 118.82 46.5545 121.105H42.1333" fill="white"/>
<path d="M46.5546 121.392H42.1334C42.0573 121.392 41.9842 121.362 41.9304 121.308C41.8766 121.254 41.8463 121.181 41.8463 121.105C41.8463 121.029 41.8766 120.956 41.9304 120.902C41.9842 120.848 42.0573 120.818 42.1334 120.818H46.3938C47.6053 118.751 48.9834 115.65 49.0063 112.303C47.9514 112.836 46.9692 113.501 46.0838 114.284C46.0261 114.33 45.9528 114.353 45.8791 114.346C45.8054 114.34 45.737 114.306 45.6881 114.25C45.6393 114.194 45.6137 114.122 45.6168 114.048C45.6199 113.974 45.6514 113.905 45.7048 113.853C46.7392 112.925 47.9109 112.162 49.1786 111.591C49.2194 111.57 49.2647 111.559 49.3106 111.559C49.3566 111.559 49.4019 111.57 49.4427 111.591C49.4827 111.616 49.5157 111.651 49.5388 111.692C49.5619 111.733 49.5742 111.779 49.5748 111.826C49.6839 115.576 48.1278 119.009 46.8015 121.231C46.7787 121.278 46.7437 121.318 46.7002 121.346C46.6568 121.374 46.6064 121.39 46.5546 121.392Z" fill="#D1D3D4"/>
<path d="M39.5553 115.042C40.6405 109.369 45.0846 105.803 45.0846 105.803C45.9143 108.476 46.1898 111.289 45.8942 114.072C45.6662 116.468 45.1535 118.83 44.3669 121.105H39.6185" fill="white"/>
<path d="M44.3668 121.392H39.6184C39.5422 121.392 39.4692 121.362 39.4153 121.308C39.3615 121.254 39.3313 121.181 39.3313 121.105C39.3327 121.03 39.3635 120.957 39.417 120.904C39.4705 120.85 39.5427 120.82 39.6184 120.818H44.1773C44.9188 118.623 45.4043 116.349 45.6243 114.043C45.9005 111.446 45.6763 108.821 44.964 106.309C43.9304 107.25 40.738 110.483 39.8538 115.099C39.8372 115.174 39.7929 115.239 39.7299 115.281C39.667 115.324 39.5901 115.341 39.515 115.329C39.4401 115.314 39.3741 115.27 39.3312 115.206C39.2882 115.143 39.2718 115.065 39.2853 114.99C40.382 109.277 44.74 105.729 44.9238 105.579C44.9604 105.55 45.0036 105.53 45.0495 105.521C45.0955 105.512 45.1429 105.515 45.1879 105.528C45.2314 105.542 45.2712 105.566 45.304 105.598C45.3369 105.629 45.362 105.668 45.3774 105.711C46.2158 108.427 46.4893 111.286 46.1812 114.112C45.9456 116.533 45.4272 118.919 44.6367 121.22C44.6139 121.272 44.576 121.317 44.528 121.347C44.4799 121.378 44.4238 121.394 44.3668 121.392Z" fill="#D1D3D4"/>
<path d="M37.2011 121.111H41.4156C41.4558 119.859 41.1745 117.97 39.8194 115.518C39.7275 115.358 39.6414 115.197 39.5495 115.048C37.1093 110.914 34.8757 110.954 34.8757 110.954C33.9283 115.306 35.9265 119.187 37.2011 121.111Z" fill="white"/>
<path d="M41.4156 121.398H37.2012C37.1533 121.397 37.1064 121.384 37.0645 121.361C37.0225 121.338 36.9867 121.306 36.96 121.266C35.6624 119.308 33.624 115.352 34.5944 110.896C34.6084 110.833 34.643 110.776 34.6929 110.734C34.7428 110.693 34.8051 110.669 34.87 110.667C34.9619 110.667 37.2988 110.667 39.7964 114.898C39.8883 115.051 39.9802 115.212 40.0721 115.381C41.4903 117.953 41.7429 119.922 41.7027 121.122C41.6984 121.196 41.6664 121.265 41.6132 121.316C41.56 121.368 41.4894 121.397 41.4156 121.398ZM37.3562 120.824H41.1343C41.0483 118.998 40.5096 117.222 39.5668 115.656C39.4806 115.495 39.3888 115.34 39.3026 115.191C37.4366 112.033 35.7083 111.402 35.1054 111.275C34.3303 115.329 36.1332 118.935 37.3562 120.824Z" fill="#D1D3D4"/>
<path d="M37.9705 127.794H46.233L47.565 121.111H36.6384L37.9705 127.794Z" fill="white"/>
<path d="M46.233 128.081H37.9705C37.9032 128.082 37.8378 128.059 37.7862 128.016C37.7346 127.973 37.7002 127.912 37.6892 127.846L36.3571 121.168C36.3492 121.126 36.3503 121.083 36.3601 121.042C36.37 121 36.3886 120.961 36.4145 120.927C36.4418 120.894 36.4761 120.868 36.5148 120.85C36.5536 120.832 36.5958 120.823 36.6385 120.824H47.5478C47.5905 120.823 47.6327 120.832 47.6715 120.85C47.7102 120.868 47.7445 120.894 47.7718 120.927C47.7977 120.961 47.8163 121 47.8262 121.042C47.836 121.083 47.8371 121.126 47.8292 121.168L46.5086 127.846C46.4978 127.912 46.4642 127.971 46.4137 128.014C46.3633 128.057 46.2993 128.081 46.233 128.081ZM38.1945 127.507H45.9976L47.2148 121.398H36.9887L38.1945 127.507Z" fill="#D1D3D4"/>
</svg>
