<svg width="230" height="174" viewBox="0 0 230 174" fill="none" xmlns="http://www.w3.org/2000/svg">
<path d="M85.966 121.863C70.7503 129.614 71.0891 144.543 71.0891 144.543L154.569 159.328C154.569 159.328 153.168 151.531 133.324 137.222C116.375 125.021 95.5031 117.011 85.966 121.863Z" fill="#F14736"/>
<path d="M148.85 86.2468C148.85 86.2468 156.343 100.814 154.178 103.426C152.014 106.039 146.042 103.495 146.042 103.495" fill="white"/>
<path d="M151.009 104.925C149.255 104.842 147.53 104.454 145.91 103.776C145.843 103.745 145.791 103.689 145.764 103.619C145.738 103.55 145.739 103.473 145.768 103.405C145.797 103.336 145.851 103.282 145.92 103.253C145.988 103.224 146.065 103.222 146.134 103.248C146.197 103.248 151.933 105.677 153.937 103.248C155.62 101.221 150.636 90.3866 148.574 86.3846C148.555 86.3491 148.543 86.31 148.54 86.2697C148.536 86.2295 148.541 86.1889 148.554 86.1506C148.567 86.1123 148.588 86.0771 148.615 86.0472C148.642 86.0173 148.675 85.9934 148.712 85.9769C148.78 85.9429 148.859 85.9371 148.931 85.9607C149.003 85.9844 149.063 86.0357 149.097 86.1033C149.872 87.6076 156.619 100.917 154.391 103.598C153.593 104.575 152.335 104.925 151.009 104.925Z" fill="black"/>
<path d="M95.5491 71.6511C93.0514 85.041 101.997 109.093 101.997 109.093L101.733 133.243C101.733 133.243 103.857 137.636 114.365 142.298C124.872 146.96 128.472 142.97 128.472 142.97L128.628 120.123C131.056 122.116 145.853 123.614 146.806 117.93C148.276 108.973 149.539 99.9773 150.596 90.9435C151.256 85.2994 153.466 77.1116 150.412 71.6282L95.5491 71.6511Z" fill="white"/>
<path d="M123.385 144.859C121.18 144.859 118.218 144.285 114.267 142.562C103.766 137.906 101.566 133.553 101.475 133.375C101.466 133.334 101.466 133.291 101.475 133.249L101.739 109.134C101.521 108.559 99.4018 102.697 97.5874 95.4508C95.8247 88.4114 93.9988 78.5528 95.2907 71.588C95.3028 71.5221 95.3375 71.4624 95.3889 71.4195C95.4402 71.3765 95.505 71.3528 95.572 71.3525H150.435C150.486 71.3522 150.536 71.3659 150.579 71.3923C150.623 71.4187 150.658 71.4566 150.682 71.5018C153.197 76.0206 152.203 82.4112 151.405 87.5157C151.21 88.7502 151.026 89.9157 150.9 90.9895C149.849 99.9639 148.603 109.036 147.116 117.976C146.875 119.452 145.778 120.571 143.855 121.295C139.416 122.965 131.55 122.098 128.926 120.652L128.783 142.97C128.778 143.039 128.752 143.106 128.708 143.159C128.616 143.268 127.112 144.859 123.385 144.859ZM102.02 133.174C102.313 133.691 104.857 137.768 114.503 142.04C123.879 146.197 127.651 143.343 128.208 142.849L128.358 120.123C128.357 120.069 128.372 120.015 128.402 119.969C128.431 119.923 128.474 119.887 128.524 119.865C128.573 119.842 128.627 119.833 128.681 119.839C128.735 119.845 128.786 119.866 128.828 119.899C130.517 121.289 138.94 122.529 143.642 120.755C145.365 120.112 146.335 119.141 146.542 117.884C148.006 108.967 149.275 99.9007 150.326 90.932C150.452 89.8468 150.636 88.6755 150.831 87.4353C151.606 82.4629 152.554 76.279 150.257 71.9325H95.7902C93.4935 85.1386 102.175 108.749 102.267 108.99C102.273 109.024 102.273 109.059 102.267 109.093L102.02 133.174Z" fill="black"/>
<path d="M148.333 86.5511H107.423C107.347 86.5511 107.274 86.5209 107.22 86.467C107.166 86.4132 107.136 86.3402 107.136 86.264C107.136 86.1879 107.166 86.1149 107.22 86.061C107.274 86.0072 107.347 85.9769 107.423 85.9769H148.333C148.409 85.9769 148.482 86.0072 148.536 86.061C148.59 86.1149 148.62 86.1879 148.62 86.264C148.62 86.3017 148.613 86.3391 148.599 86.3739C148.584 86.4087 148.563 86.4404 148.536 86.467C148.51 86.4937 148.478 86.5148 148.443 86.5293C148.408 86.5437 148.371 86.5511 148.333 86.5511Z" fill="black"/>
<path d="M145.038 85.3396C145.593 85.3396 146.042 84.0465 146.042 82.4515C146.042 80.8564 145.593 79.5634 145.038 79.5634C144.483 79.5634 144.033 80.8564 144.033 82.4515C144.033 84.0465 144.483 85.3396 145.038 85.3396Z" fill="black"/>
<path d="M147.346 111.178C147.346 111.178 139.881 114.72 136.947 107.078L147.346 111.178Z" fill="white"/>
<path d="M143.51 112.292C142.587 112.3 141.671 112.13 140.812 111.792C138.963 111.051 137.568 109.495 136.678 107.199C136.656 107.129 136.662 107.055 136.694 106.989C136.726 106.924 136.781 106.874 136.849 106.847C136.916 106.821 136.991 106.822 137.058 106.848C137.126 106.875 137.18 106.926 137.212 106.992C138.044 109.157 139.325 110.598 141.024 111.275C143.958 112.452 147.191 110.954 147.219 110.936C147.289 110.905 147.368 110.901 147.44 110.927C147.512 110.953 147.571 111.006 147.604 111.074C147.621 111.109 147.63 111.146 147.632 111.184C147.634 111.222 147.628 111.26 147.616 111.295C147.603 111.331 147.583 111.364 147.557 111.392C147.532 111.42 147.501 111.443 147.466 111.459C146.217 112 144.872 112.283 143.51 112.292Z" fill="black"/>
<path d="M128.645 120.123C123.651 118.869 118.852 116.937 114.382 114.382C114.382 114.382 116.851 129.569 128.116 131.372L128.645 120.123Z" fill="black"/>
<path d="M128.117 131.653H128.071C116.736 129.844 114.124 114.577 114.101 114.428C114.092 114.374 114.099 114.318 114.12 114.268C114.142 114.218 114.177 114.174 114.223 114.144C114.268 114.113 114.321 114.096 114.376 114.094C114.43 114.093 114.485 114.107 114.531 114.135C118.976 116.674 123.745 118.598 128.708 119.853C128.774 119.868 128.832 119.906 128.873 119.959C128.914 120.013 128.935 120.079 128.932 120.146L128.404 131.389C128.401 131.429 128.391 131.469 128.373 131.505C128.356 131.542 128.331 131.574 128.3 131.601C128.246 131.638 128.182 131.656 128.117 131.653ZM114.79 114.944C115.398 117.752 118.453 129.299 127.847 131.021L128.346 120.342C123.618 119.122 119.063 117.309 114.79 114.944Z" fill="black"/>
<path d="M95.5491 71.6512L56.8437 42.7356C56.8437 42.7356 44.6653 60.4949 59.2897 74.4934C73.914 88.4919 95.5491 71.6512 95.5491 71.6512Z" fill="black"/>
<path d="M73.1964 80.304C70.5914 80.3471 68.0037 79.8741 65.5824 78.9123C63.1611 77.9505 60.9542 76.5189 59.0888 74.7C44.4645 60.6958 56.4763 42.7527 56.5969 42.546C56.642 42.4827 56.7099 42.4394 56.7864 42.4254C56.8243 42.4179 56.8635 42.4186 56.9011 42.4276C56.9387 42.4365 56.974 42.4534 57.0046 42.4771L95.7215 71.3928C95.756 71.4196 95.784 71.454 95.8033 71.4933C95.8225 71.5326 95.8325 71.5758 95.8325 71.6196C95.8325 71.6633 95.8225 71.7065 95.8033 71.7458C95.784 71.7851 95.756 71.8195 95.7215 71.8464C95.5722 71.9957 84.7144 80.304 73.1964 80.304ZM56.907 43.1489C55.5289 45.3538 46.1468 61.5226 59.485 74.2866C72.8232 87.0506 92.4027 73.5976 95.0841 71.6511L56.907 43.1489Z" fill="black"/>
<path d="M101.997 109.093C101.997 109.093 109.513 93.7398 113.555 92.1838C117.598 90.6277 122.874 71.6511 122.874 71.6511H95.5492C95.5492 71.6511 89.038 89.2956 101.997 109.093Z" fill="black"/>
<path d="M101.997 109.38C101.95 109.381 101.903 109.37 101.861 109.348C101.819 109.326 101.783 109.293 101.756 109.254C88.8715 89.5598 95.2161 71.7315 95.285 71.5535C95.3041 71.4985 95.3397 71.4507 95.387 71.4168C95.4343 71.3829 95.4909 71.3644 95.5492 71.3641H122.874C122.919 71.3631 122.963 71.3731 123.003 71.3931C123.043 71.4131 123.078 71.4426 123.104 71.4789C123.132 71.5128 123.151 71.5532 123.159 71.5964C123.167 71.6396 123.164 71.6841 123.15 71.7258C122.932 72.5067 117.776 90.8632 113.647 92.4479C109.754 93.9465 102.319 109.07 102.244 109.22C102.222 109.265 102.188 109.304 102.145 109.333C102.103 109.361 102.054 109.377 102.003 109.38H101.997ZM95.7559 71.9383C95.1243 73.8732 90.2954 90.312 101.963 108.513C103.266 105.907 109.697 93.3551 113.446 91.9139C117.006 90.5416 121.743 74.568 122.501 71.9383H95.7559Z" fill="black"/>
<path d="M119.51 91.225C119.722 88.9627 118.677 86.7923 117.655 84.7597C116.947 83.142 115.996 81.6415 114.836 80.3098C113.613 79.0351 111.89 78.1222 110.133 78.2944C109.359 78.4016 108.616 78.6721 107.954 79.0878C107.292 79.5035 106.725 80.0551 106.292 80.706C105.434 82.0173 104.88 83.5046 104.673 85.0583C104.153 88.4359 104.532 91.8907 105.771 95.0756C107.009 98.2605 109.065 101.063 111.73 103.202" fill="white"/>
<path d="M111.729 103.489C111.665 103.491 111.603 103.47 111.551 103.432C108.854 101.254 106.774 98.4073 105.518 95.1759C104.262 91.9444 103.873 88.4404 104.391 85.0123C104.602 83.4147 105.171 81.8855 106.057 80.5394C106.516 79.8558 107.115 79.2769 107.813 78.8405C108.512 78.4042 109.294 78.1202 110.11 78.0073C111.038 77.9633 111.963 78.1295 112.817 78.4934C113.671 78.8573 114.432 79.4095 115.042 80.1088C116.224 81.4625 117.192 82.9881 117.913 84.6333C118.855 86.5051 120.021 88.8363 119.791 91.2536C119.788 91.2911 119.778 91.3277 119.76 91.3611C119.743 91.3946 119.719 91.4242 119.691 91.4483C119.662 91.4724 119.628 91.4904 119.592 91.5014C119.556 91.5123 119.518 91.5159 119.481 91.512C119.406 91.5047 119.336 91.468 119.288 91.41C119.24 91.352 119.216 91.2772 119.223 91.2019C119.435 88.9454 118.304 86.6946 117.402 84.8859C116.7 83.2961 115.766 81.8196 114.629 80.505C114.073 79.8734 113.384 79.3729 112.612 79.0393C111.84 78.7057 111.003 78.5474 110.162 78.5757C109.429 78.6809 108.726 78.9399 108.099 79.3357C107.473 79.7315 106.937 80.2552 106.527 80.8724C105.689 82.1455 105.151 83.5925 104.954 85.1041C104.452 88.4312 104.83 91.8317 106.05 94.9674C107.27 98.1032 109.289 100.865 111.907 102.978C111.937 103.001 111.962 103.03 111.981 103.063C112 103.096 112.011 103.132 112.016 103.17C112.02 103.207 112.017 103.245 112.006 103.281C111.995 103.317 111.977 103.351 111.953 103.38C111.928 103.415 111.894 103.443 111.855 103.462C111.816 103.481 111.773 103.49 111.729 103.489Z" fill="black"/>
<path d="M152.002 94.5035C149.786 94.5035 148.046 90.8747 148.046 86.2468C148.046 81.6189 149.769 77.9844 152.002 77.9844C154.236 77.9844 155.953 81.6132 155.953 86.2468C155.953 90.8804 154.213 94.5035 152.002 94.5035ZM152.002 78.5586C150.171 78.5586 148.62 82.0783 148.62 86.2468C148.62 90.4153 150.171 93.9293 152.002 93.9293C153.834 93.9293 155.379 90.4096 155.379 86.2468C155.379 82.084 153.828 78.5586 152.002 78.5586Z" fill="black"/>
<path d="M79.7477 43.057C79.9372 42.4828 80.121 41.9546 80.3219 41.4034C80.4253 41.1163 80.5401 40.8292 80.6549 40.5536C80.721 40.3809 80.8442 40.236 81.004 40.143C81.1638 40.0501 81.3507 40.0146 81.5334 40.0425C81.9813 40.0885 82.4234 40.1861 82.8713 40.255C83.1075 40.3068 83.3475 40.3395 83.589 40.3526C83.7687 40.356 83.9445 40.2994 84.0885 40.1918C84.5996 39.7038 85.0876 39.1928 85.5757 38.676C85.6564 38.5795 85.7122 38.4646 85.7383 38.3415C85.7643 38.2183 85.7597 38.0907 85.7249 37.9698C85.6101 37.43 85.478 36.8961 85.3689 36.3563C85.3186 36.1459 85.2993 35.9293 85.3115 35.7132C85.3162 35.6348 85.337 35.5581 85.3726 35.488C85.4081 35.4178 85.4577 35.3558 85.5182 35.3056C86.3439 34.7676 87.2459 34.3573 88.1939 34.0883C88.3328 34.042 88.4833 34.044 88.6209 34.0941C88.7585 34.1441 88.8751 34.2392 88.9518 34.3639C89.2963 34.829 89.6523 35.2883 89.9796 35.7649C90.0856 35.9462 90.2417 36.0929 90.4291 36.1877C90.6165 36.2824 90.8273 36.321 91.0361 36.2989C91.6103 36.253 92.2189 36.2415 92.8103 36.2128C92.9188 36.2068 93.0242 36.1744 93.1172 36.1183C93.2103 36.0623 93.2883 35.9843 93.3443 35.8912C93.5567 35.5812 93.752 35.2596 93.9587 34.9438C94.1654 34.628 94.3147 34.4041 94.4984 34.14C94.5815 34.0052 94.7088 33.9035 94.8585 33.8522C95.0083 33.8009 95.1712 33.8032 95.3195 33.8586C96.1348 34.14 96.9559 34.4328 97.7655 34.7429C97.9185 34.8047 98.0458 34.917 98.1262 35.0611C98.2066 35.2053 98.2353 35.3726 98.2076 35.5352C98.1617 35.9888 98.0583 36.4367 97.9837 36.8846C97.9837 37.097 97.9205 37.3152 97.9033 37.5276C97.8872 37.6658 97.9038 37.8059 97.9517 37.9365C97.9995 38.0671 98.0774 38.1847 98.1789 38.2798C98.6095 38.6875 99.0459 39.0894 99.4593 39.5086C99.5797 39.638 99.7332 39.7321 99.9032 39.7807C100.073 39.8293 100.253 39.8305 100.424 39.7842C100.998 39.6579 101.572 39.5143 102.175 39.388C102.367 39.3229 102.577 39.335 102.76 39.4218C102.943 39.5086 103.086 39.6632 103.157 39.8531C103.49 40.5536 103.812 41.2541 104.122 41.966C104.179 42.061 104.216 42.1664 104.232 42.2761C104.248 42.3858 104.241 42.4976 104.213 42.6047C104.184 42.7118 104.135 42.8121 104.067 42.8997C103.999 42.9873 103.914 43.0603 103.817 43.1144C103.519 43.3556 103.191 43.5623 102.881 43.7919C102.663 43.9527 102.445 44.125 102.238 44.3087C102.153 44.3779 102.083 44.4653 102.036 44.5646C101.988 44.664 101.963 44.7727 101.963 44.8829C101.963 45.4972 101.963 46.1116 102.014 46.7202C102.018 46.8875 102.065 47.051 102.152 47.1941C102.239 47.3372 102.362 47.455 102.508 47.5356L103.513 48.1098C103.722 48.2337 103.923 48.3698 104.116 48.5174C104.257 48.6091 104.361 48.7469 104.411 48.9072C104.462 49.0675 104.455 49.2403 104.391 49.3959C104.122 50.1309 103.846 50.8716 103.565 51.6065C103.514 51.716 103.453 51.8199 103.381 51.9166C103.315 52.0363 103.213 52.1322 103.089 52.1909C102.965 52.2496 102.827 52.2682 102.692 52.2438L101.101 51.9797H100.981C100.758 51.9212 100.523 51.931 100.306 52.0078C100.089 52.0846 99.9 52.2248 99.7636 52.4104C99.465 52.7606 99.1263 53.0822 98.799 53.4209C98.6504 53.5676 98.5446 53.7521 98.493 53.9544C98.4414 54.1567 98.446 54.3693 98.5062 54.5693C98.6382 55.0803 98.7645 55.5971 98.8679 56.1196C98.9102 56.2196 98.9307 56.3276 98.928 56.4362C98.9253 56.5448 98.8994 56.6516 98.8522 56.7494C98.8049 56.8473 98.7373 56.9339 98.6538 57.0035C98.5704 57.0731 98.4731 57.1241 98.3684 57.1531C97.6506 57.4976 96.9157 57.8249 96.1807 58.1349C96.0174 58.2249 95.8257 58.2488 95.6452 58.2019C95.4648 58.1549 95.3091 58.0405 95.2104 57.8823C94.9233 57.5263 94.6362 57.1473 94.4008 56.7741C93.8266 55.9703 93.6831 55.9014 92.6783 55.9473L91.5299 56.0162C91.3464 56.0175 91.1664 56.0664 91.0075 56.1579C90.8485 56.2495 90.7159 56.3807 90.6227 56.5387C90.393 56.9291 90.1691 57.3196 89.9222 57.6871C89.7943 57.8927 89.6461 58.085 89.4801 58.2612C89.4046 58.3434 89.3069 58.4018 89.1988 58.4294C89.0907 58.4569 88.977 58.4523 88.8714 58.4163L86.5747 57.5493C86.4691 57.5031 86.369 57.4453 86.2762 57.377C86.1575 57.3111 86.0623 57.2099 86.0036 57.0875C85.945 56.9651 85.9259 56.8275 85.9489 56.6937L86.2073 55.1147C86.2073 54.954 86.2417 54.7932 86.2532 54.6324C86.2683 54.5013 86.2523 54.3685 86.2064 54.2448C86.1605 54.1211 86.086 54.01 85.9891 53.9205C85.5642 53.5377 85.145 53.1549 84.7316 52.7721C84.6125 52.656 84.4644 52.5741 84.3029 52.5347C84.1413 52.4953 83.9721 52.5 83.8129 52.5482C83.2962 52.6745 82.7794 52.7893 82.2626 52.9099H82.2052C81.522 53.0362 81.3038 52.9501 81.0109 52.3357C80.7181 51.7213 80.3851 50.9519 80.0865 50.217C80.0371 50.1335 80.0056 50.0407 79.994 49.9444C79.9823 49.8481 79.9908 49.7505 80.0189 49.6576C80.047 49.5648 80.094 49.4788 80.157 49.4051C80.2201 49.3314 80.2977 49.2715 80.3851 49.2294C80.7985 48.9194 81.2176 48.615 81.654 48.3337C81.8657 48.2128 82.0372 48.0326 82.1474 47.8152C82.2577 47.5978 82.3017 47.3529 82.2741 47.1107C82.2397 46.5365 82.2224 46.0025 82.1937 45.4513C82.1923 45.3364 82.1621 45.2236 82.106 45.1234C82.0498 45.0231 81.9694 44.9384 81.8722 44.8771C81.4129 44.5843 80.9478 44.303 80.4942 43.9986C80.1693 43.8399 79.9111 43.5714 79.765 43.2407L79.7477 43.057ZM97.3061 46.1403C97.3077 45.4483 97.172 44.7628 96.907 44.1235C96.642 43.4843 96.253 42.9038 95.7623 42.4158C95.2716 41.9278 94.6891 41.5419 94.0484 41.2804C93.4076 41.0189 92.7214 40.887 92.0294 40.8923C90.6567 40.9322 89.3524 41.5012 88.3894 42.4803C87.4263 43.4594 86.879 44.7728 86.8618 46.1461C86.8693 47.5235 87.4186 48.8426 88.391 49.8183C89.3634 50.7939 90.6807 51.3476 92.0581 51.3596C92.7479 51.3704 93.4328 51.2429 94.0725 50.9848C94.7122 50.7267 95.2937 50.3431 95.7828 49.8567C96.2719 49.3703 96.6587 48.7908 96.9203 48.1526C97.1819 47.5143 97.3131 46.8301 97.3061 46.1403Z" fill="white"/>
<path d="M89.0839 58.7608C88.9818 58.7584 88.8809 58.739 88.7853 58.7034L88.1365 58.4622L86.4599 57.8421C86.3478 57.7957 86.2418 57.7359 86.1441 57.6641C85.9706 57.5687 85.8307 57.4221 85.7434 57.2444C85.6561 57.0667 85.6256 56.8664 85.656 56.6708L85.7651 55.976C85.8168 55.6832 85.8627 55.4019 85.9087 55.0976C85.9325 54.9454 85.9478 54.7921 85.9546 54.6382C85.9652 54.55 85.9551 54.4605 85.9252 54.3768C85.8953 54.2931 85.8464 54.2175 85.7823 54.1559C85.3976 53.8057 85.0244 53.4554 84.634 53.0994L84.5134 52.9846C84.4285 52.9019 84.3228 52.8438 84.2076 52.8165C84.0923 52.7892 83.9718 52.7937 83.8588 52.8295C83.4914 52.9214 83.1181 53.0018 82.7449 53.0879L82.3028 53.1913H82.2282C81.4071 53.3406 81.0798 53.1913 80.7296 52.4391C80.4425 51.8649 80.1554 51.1817 79.8109 50.3146C79.6918 50.0905 79.6642 49.829 79.7338 49.5849C79.8034 49.3408 79.9647 49.1332 80.1841 49.0055C80.6664 48.6438 81.0741 48.351 81.4703 48.0983C81.6381 48.0041 81.7741 47.862 81.861 47.6903C81.948 47.5185 81.9818 47.3248 81.9583 47.1337C81.9583 46.7892 81.9239 46.4447 81.9066 46.1002C81.9066 45.8935 81.9066 45.681 81.9066 45.4743C81.9076 45.4046 81.8907 45.3358 81.8576 45.2745C81.8244 45.2132 81.7761 45.1614 81.7172 45.1241L81.143 44.7681L80.3219 44.2456C79.9431 44.0529 79.6458 43.7311 79.4836 43.3384C79.4776 43.308 79.4776 43.2768 79.4836 43.2465V43.0455C79.4781 43.0152 79.4781 42.984 79.4836 42.9537L79.6444 42.4771L80.052 41.2943C80.1554 41.0015 80.2702 40.7201 80.3908 40.433C80.4752 40.2032 80.6342 40.0082 80.8423 39.8792C81.0504 39.7502 81.2957 39.6945 81.5392 39.721C81.8435 39.7555 82.142 39.8072 82.4406 39.8646L82.8885 39.9392L83.0722 39.9737C83.2311 40.0059 83.3925 40.0251 83.5545 40.0311C83.6615 40.0332 83.7669 40.0053 83.8588 39.9507C84.3986 39.4397 84.9038 38.9057 85.3345 38.4464C85.3842 38.3843 85.4175 38.3109 85.4316 38.2326C85.4456 38.1544 85.4399 38.0739 85.4149 37.9985C85.3632 37.7574 85.3115 37.5162 85.2541 37.275C85.1967 37.0339 85.122 36.7009 85.0589 36.3793C85.0048 36.1402 84.9835 35.8949 84.9957 35.6501C85.0069 35.5285 85.0433 35.4105 85.1026 35.3037C85.1619 35.197 85.2428 35.1037 85.3402 35.03C86.1886 34.4764 87.1158 34.0543 88.0905 33.7783C88.2857 33.7189 88.4947 33.7236 88.687 33.7918C88.8792 33.86 89.0445 33.9881 89.1585 34.1573C89.2791 34.3238 89.3997 34.4903 89.526 34.651C89.7499 34.9554 89.9738 35.2597 90.1863 35.5697C90.2638 35.7092 90.3811 35.8225 90.5233 35.8951C90.6654 35.9677 90.8259 35.9964 90.9844 35.9774C91.3748 35.9774 91.7595 35.9315 92.1328 35.92L92.7471 35.8913C92.8115 35.8893 92.8742 35.8701 92.9287 35.8358C92.9832 35.8015 93.0276 35.7532 93.0572 35.6961C93.1835 35.5123 93.3041 35.3286 93.4247 35.1219L93.7634 34.5994C93.9127 34.3697 94.062 34.14 94.2228 33.9218C94.3407 33.7354 94.5193 33.5953 94.7285 33.5252C94.9377 33.4552 95.1647 33.4594 95.3711 33.5371C96.3645 33.8816 97.0937 34.1515 97.8286 34.4214C98.04 34.5048 98.2166 34.6577 98.3293 34.855C98.4421 35.0523 98.4842 35.2821 98.4487 35.5066C98.4487 35.8224 98.3626 36.1324 98.3109 36.431C98.2822 36.5803 98.2535 36.7296 98.2305 36.8789C98.2076 37.0281 98.1674 37.2923 98.1501 37.499C98.1373 37.5944 98.1472 37.6915 98.1791 37.7823C98.2111 37.8732 98.2641 37.9551 98.3339 38.0215L98.621 38.2856C98.9597 38.6071 99.2985 38.9229 99.6258 39.256C99.7118 39.3501 99.8225 39.4183 99.9453 39.4528C100.068 39.4873 100.198 39.4867 100.321 39.4512L101.159 39.2617C101.461 39.189 101.766 39.1201 102.072 39.055C102.327 38.9779 102.602 38.9987 102.843 39.1134C103.084 39.228 103.274 39.4283 103.375 39.6751C103.708 40.3756 104.035 41.0876 104.34 41.7996C104.487 42.0504 104.529 42.3492 104.457 42.631C104.385 42.9127 104.205 43.1546 103.955 43.3039C103.771 43.4532 103.582 43.5853 103.381 43.7173L103.002 43.9872C102.79 44.148 102.577 44.3145 102.37 44.4867C102.315 44.5342 102.271 44.5933 102.241 44.6598C102.211 44.7263 102.197 44.7986 102.198 44.8714V45.2446C102.198 45.7327 102.198 46.215 102.238 46.7031C102.24 46.8219 102.275 46.9381 102.337 47.0391C102.4 47.1402 102.489 47.2225 102.594 47.2772L103.008 47.5241L103.582 47.8801C103.8 48.0084 104.011 48.1483 104.213 48.2993C104.401 48.4296 104.54 48.6195 104.607 48.8383C104.673 49.0571 104.664 49.292 104.581 49.5051C104.305 50.2457 104.007 50.9807 103.748 51.7214C103.699 51.8434 103.636 51.9591 103.559 52.0659C103.464 52.2391 103.317 52.3779 103.139 52.4625C102.96 52.5471 102.76 52.573 102.566 52.5367L101.055 52.307H100.918C100.746 52.26 100.565 52.2667 100.397 52.3262C100.23 52.3858 100.085 52.4953 99.9818 52.6401C99.7636 52.8984 99.5224 53.1396 99.2928 53.3693L99.0057 53.6621C98.891 53.7749 98.8094 53.917 98.77 54.0729C98.7305 54.2288 98.7345 54.3926 98.7817 54.5463C98.9081 55.0459 99.0401 55.5799 99.1492 56.1138C99.197 56.2453 99.2179 56.385 99.2107 56.5246C99.2035 56.6643 99.1683 56.8011 99.1073 56.9269C99.0463 57.0528 98.9606 57.1651 98.8553 57.2572C98.7501 57.3493 98.6275 57.4193 98.4947 57.4632C97.8286 57.779 97.1051 58.1062 96.2898 58.4508C96.0694 58.567 95.8136 58.5967 95.5725 58.534C95.3313 58.4713 95.1223 58.3208 94.9864 58.112C94.751 57.8134 94.5271 57.5034 94.3089 57.1933L94.1653 56.9923C93.6486 56.2689 93.5912 56.2459 92.7127 56.2861L91.5643 56.355C91.4284 56.3546 91.2949 56.39 91.177 56.4575C91.059 56.525 90.961 56.6223 90.8925 56.7397L90.6629 57.1244C90.5078 57.3885 90.3528 57.6526 90.1863 57.9053C90.0475 58.1125 89.8878 58.3049 89.7097 58.4795C89.6312 58.5679 89.5348 58.6386 89.4269 58.6871C89.319 58.7356 89.2021 58.7607 89.0839 58.7608ZM84.0885 52.2209C84.3978 52.2214 84.6946 52.343 84.9153 52.5597L85.0359 52.6745C85.4149 53.0248 85.7881 53.3808 86.1843 53.7253C86.3123 53.8443 86.4114 53.9911 86.4741 54.1542C86.5367 54.3174 86.5613 54.4928 86.546 54.6669C86.5376 54.838 86.5203 55.0086 86.4943 55.1779C86.4484 55.4708 86.4024 55.7521 86.3508 56.0622L86.2359 56.7512C86.2212 56.8309 86.2329 56.9133 86.2692 56.9858C86.3054 57.0583 86.3643 57.117 86.4369 57.1531C86.5131 57.2076 86.5938 57.2556 86.6781 57.2967L88.3547 57.9225L89.0035 58.1637C89.0557 58.1846 89.1135 58.1875 89.1676 58.1719C89.2217 58.1563 89.269 58.1231 89.3021 58.0775C89.455 57.9236 89.5916 57.7543 89.7097 57.5723C89.8705 57.3196 90.0255 57.067 90.1748 56.8086L90.4102 56.4239C90.5284 56.2237 90.6961 56.0573 90.8972 55.9406C91.0984 55.824 91.3261 55.761 91.5586 55.7579L92.7069 55.689C93.7921 55.6373 94.0275 55.7521 94.6534 56.6364L94.8027 56.8373C95.0151 57.1416 95.2276 57.4459 95.4572 57.733C95.4864 57.7869 95.5262 57.8342 95.5743 57.872C95.6224 57.9098 95.6778 57.9374 95.737 57.953C95.7962 57.9686 95.8579 57.9719 95.9185 57.9627C95.979 57.9535 96.037 57.932 96.0889 57.8995C96.8984 57.555 97.6104 57.2392 98.265 56.9234C98.6439 56.7397 98.6956 56.6306 98.6095 56.2057C98.5061 55.6832 98.3741 55.155 98.2478 54.6669C98.1755 54.4184 98.1715 54.1551 98.2362 53.9045C98.3009 53.654 98.4318 53.4255 98.6152 53.243L98.9081 52.9444C99.132 52.7147 99.3617 52.4908 99.5684 52.2439C99.7391 52.0191 99.9723 51.8496 100.239 51.7567C100.505 51.6638 100.793 51.6515 101.067 51.7214H101.17L102.761 51.9855C102.841 52.002 102.924 51.9919 102.998 51.9566C103.071 51.9214 103.131 51.8629 103.168 51.7903C103.226 51.7088 103.276 51.6223 103.318 51.5319C103.601 50.797 103.877 50.062 104.145 49.3271C104.191 49.2263 104.199 49.1118 104.166 49.0057C104.133 48.8996 104.062 48.8095 103.967 48.7529C103.782 48.6143 103.591 48.4858 103.392 48.3682C103.203 48.2476 103.008 48.1385 102.818 48.0237L102.393 47.771C102.208 47.6653 102.052 47.5137 101.941 47.3308C101.831 47.1478 101.769 46.9396 101.762 46.726C101.762 46.2322 101.733 45.7442 101.722 45.2504V44.8772C101.717 44.72 101.748 44.5639 101.813 44.4206C101.877 44.2774 101.974 44.1507 102.095 44.0504C102.308 43.8631 102.53 43.6868 102.761 43.5221C102.887 43.4245 103.019 43.3326 103.151 43.2408C103.283 43.1489 103.513 42.9881 103.685 42.8503C103.757 42.8136 103.82 42.7621 103.871 42.6993C103.922 42.6364 103.958 42.5636 103.979 42.4856C104 42.4076 104.003 42.3261 103.99 42.2465C103.977 42.1669 103.948 42.0909 103.903 42.0235C103.593 41.3173 103.272 40.611 102.945 39.922C102.923 39.8567 102.888 39.7966 102.842 39.7453C102.796 39.6939 102.741 39.6525 102.678 39.6234C102.616 39.5944 102.548 39.5784 102.48 39.5764C102.411 39.5745 102.342 39.5865 102.278 39.6119L101.377 39.8129L100.481 40.0426C100.264 40.0981 100.036 40.0944 99.8211 40.0318C99.606 39.9692 99.4116 39.85 99.2583 39.6866C98.9368 39.3593 98.598 39.0493 98.265 38.7335L97.9779 38.4636C97.8441 38.3403 97.7416 38.187 97.6787 38.0163C97.6158 37.8456 97.5944 37.6624 97.6162 37.4817C97.6162 37.2578 97.6678 37.0396 97.7023 36.8157C97.7367 36.5918 97.754 36.5114 97.7827 36.3564C97.8401 36.052 97.8918 35.7822 97.9205 35.4836C97.9417 35.3841 97.9276 35.2803 97.8804 35.1901C97.8332 35.0999 97.756 35.0291 97.6621 34.9898C96.9616 34.7199 96.2094 34.4501 95.2218 34.1056C95.1314 34.0744 95.0328 34.077 94.9441 34.1129C94.8555 34.1488 94.7828 34.2155 94.7395 34.3008C94.5845 34.519 94.441 34.7372 94.2974 34.9611L93.9586 35.4779C93.8381 35.6673 93.7117 35.8626 93.5854 36.052C93.5063 36.1838 93.3955 36.2938 93.2632 36.372C93.1309 36.4502 92.9811 36.4942 92.8275 36.4999L92.2074 36.5286C91.8227 36.5286 91.4437 36.5286 91.059 36.5803C90.8011 36.6072 90.5409 36.56 90.309 36.444C90.077 36.328 89.8831 36.1482 89.7499 35.9257C89.5432 35.6214 89.3193 35.3515 89.1011 35.03L88.7279 34.5305C88.6824 34.4538 88.6118 34.3953 88.528 34.3649C88.4443 34.3346 88.3525 34.3342 88.2685 34.364C87.3511 34.6267 86.4783 35.0254 85.679 35.5468C85.6371 35.604 85.6113 35.6714 85.6043 35.742C85.5943 35.9349 85.6117 36.1282 85.656 36.3162C85.7192 36.609 85.7823 36.8903 85.8512 37.2004C85.9201 37.5105 85.9603 37.6885 86.012 37.9296C86.0579 38.0954 86.0615 38.2701 86.0223 38.4376C85.9832 38.6051 85.9027 38.7602 85.7881 38.8885C85.3517 39.3536 84.8349 39.899 84.2895 40.4158C84.0921 40.569 83.8502 40.6537 83.6005 40.657C83.4074 40.6507 83.2153 40.6276 83.0263 40.5881H82.854L82.3947 40.5077C82.1076 40.456 81.8205 40.4043 81.5334 40.3756C81.4105 40.3589 81.2855 40.3859 81.1806 40.4521C81.0756 40.5182 80.9972 40.6192 80.9592 40.7373C80.8444 41.0129 80.7353 41.2886 80.6319 41.5642C80.4941 41.9546 80.3621 42.3508 80.23 42.7125L80.0807 43.1432V43.2522C80.2077 43.4987 80.4084 43.6994 80.6549 43.8264L81.4703 44.3489L82.0444 44.7107C82.1816 44.7957 82.295 44.9139 82.3743 45.0544C82.4536 45.1949 82.4962 45.3532 82.498 45.5145C82.498 45.7212 82.498 45.9337 82.498 46.1461C82.498 46.4849 82.5267 46.8236 82.5497 47.1624C82.5811 47.4564 82.5268 47.7532 82.3933 48.0171C82.2599 48.281 82.053 48.5006 81.7975 48.6495C81.4186 48.8964 81.0167 49.1778 80.5458 49.5338C80.2645 49.7462 80.2358 49.861 80.3563 50.1711C80.7066 51.0266 80.9879 51.6754 81.2635 52.2669C81.499 52.7549 81.5794 52.8008 82.1478 52.6917L82.6358 52.5826C83.0033 52.4965 83.3765 52.4161 83.7383 52.3243C83.8505 52.2761 83.9681 52.2414 84.0885 52.2209ZM92.0753 51.6467C90.6204 51.6392 89.2275 51.0567 88.2003 50.0262C87.1731 48.9958 86.5949 47.6011 86.5919 46.1461C86.592 45.4223 86.7362 44.7058 87.0161 44.0384C87.2961 43.371 87.7062 42.7661 88.2226 42.2589C89.2356 41.246 90.5975 40.6585 92.0294 40.6168C92.7592 40.6069 93.4838 40.7422 94.1609 41.0148C94.8379 41.2875 95.4541 41.692 95.9734 42.2049C96.4927 42.7178 96.9049 43.3289 97.1859 44.0025C97.4669 44.6762 97.6112 45.399 97.6104 46.1289C97.6307 46.828 97.5105 47.5241 97.2571 48.176C97.0036 48.8279 96.622 49.4224 96.1348 49.9242C95.6138 50.4761 94.9841 50.9141 94.2854 51.2106C93.5868 51.507 92.8343 51.6555 92.0753 51.6467ZM92.0064 41.1909C90.726 41.231 89.5104 41.7637 88.613 42.6781C88.1509 43.132 87.784 43.6736 87.5336 44.271C87.2832 44.8684 87.1543 45.5098 87.1546 46.1576C87.1561 47.4607 87.6733 48.7103 88.5931 49.6334C89.513 50.5564 90.7607 51.078 92.0639 51.084C92.7416 51.09 93.4132 50.9559 94.0367 50.6901C94.6601 50.4243 95.2219 50.0326 95.6869 49.5395C96.122 49.0951 96.4631 48.5676 96.69 47.9886C96.9169 47.4095 97.0249 46.7907 97.0075 46.1691C97.0129 45.5138 96.8878 44.8641 96.6395 44.2577C96.3912 43.6513 96.0247 43.1004 95.5614 42.6371C95.0981 42.1737 94.5472 41.8073 93.9408 41.559C93.3344 41.3107 92.6846 41.1856 92.0294 41.1909H92.0064Z" fill="black"/>
<path d="M121.577 61.3217C120.727 61.3217 119.854 61.2815 119.022 61.3217C118.419 61.4098 117.805 61.2584 117.313 60.9C116.82 60.5415 116.488 60.0046 116.386 59.4039C115.835 57.4339 114.854 55.6104 113.515 54.0641C111.625 51.7559 110.721 48.7951 111 45.8246C111.574 39.6752 116.501 35.9487 122.817 36.5631C132.136 37.4588 134.788 47.1108 129.914 53.7885C128.599 55.5971 127.336 57.3599 126.779 59.5647C126.469 60.7934 125.556 61.3447 124.275 61.2872C123.368 61.2872 122.472 61.3217 121.577 61.3217Z" fill="white"/>
<path d="M118.821 61.6202C118.184 61.6566 117.557 61.4579 117.057 61.0621C116.557 60.6662 116.221 60.1006 116.11 59.4728C115.557 57.5465 114.591 55.7637 113.28 54.2478C111.344 51.8739 110.418 48.8344 110.702 45.7844C110.795 44.4081 111.164 43.0645 111.785 41.8329C112.406 40.6012 113.268 39.5064 114.319 38.6129C115.513 37.6788 116.88 36.9903 118.342 36.5872C119.803 36.1842 121.33 36.0745 122.834 36.2645C126.922 36.6607 130.143 38.8196 131.659 42.19C133.319 45.8763 132.733 50.3893 130.132 53.9664C128.892 55.689 127.605 57.446 127.043 59.6508C126.71 60.9599 125.716 61.6432 124.252 61.5973C123.649 61.5973 123.035 61.5973 122.432 61.5973H121.577H120.79C120.216 61.5973 119.613 61.5973 119.033 61.5973L118.821 61.6202ZM121.49 36.787C119.024 36.7342 116.616 37.5467 114.686 39.0837C113.692 39.9272 112.877 40.9624 112.291 42.1274C111.706 43.2924 111.36 44.5634 111.276 45.8648C111.137 47.3004 111.283 48.7493 111.704 50.1287C112.126 51.508 112.815 52.7907 113.733 53.9033C115.096 55.4847 116.097 57.3442 116.667 59.3522C116.707 59.6189 116.8 59.8752 116.939 60.1062C117.078 60.3372 117.261 60.5385 117.478 60.6985C117.695 60.8585 117.942 60.9741 118.204 61.0387C118.466 61.1033 118.738 61.1155 119.004 61.0748C119.578 61.0748 120.21 61.0748 120.796 61.0748H121.577H122.432C123.035 61.0748 123.655 61.0748 124.275 61.0748C125.475 61.1207 126.222 60.6097 126.486 59.5589C127.06 57.2622 128.392 55.4363 129.667 53.6851C132.147 50.2745 132.71 45.9796 131.137 42.4771C129.684 39.2502 126.715 37.2693 122.777 36.8846C122.346 36.81 121.915 36.787 121.49 36.787Z" fill="black"/>
<path d="M124.999 61.3331H118.114C117.496 61.3331 116.995 61.8344 116.995 62.4528V62.803C116.995 63.4214 117.496 63.9227 118.114 63.9227H124.999C125.617 63.9227 126.118 63.4214 126.118 62.803V62.4528C126.118 61.8344 125.617 61.3331 124.999 61.3331Z" fill="white"/>
<path d="M125.004 64.2099H118.114C117.742 64.2099 117.385 64.0625 117.122 63.7999C116.858 63.5373 116.709 63.181 116.708 62.8089V62.4357C116.709 62.0636 116.858 61.7072 117.122 61.4447C117.385 61.1821 117.742 61.0347 118.114 61.0347H125.004C125.377 61.0347 125.734 61.1821 125.997 61.4447C126.261 61.7072 126.41 62.0636 126.411 62.4357V62.7974C126.412 62.9826 126.376 63.1662 126.306 63.3375C126.235 63.5088 126.132 63.6646 126.001 63.7958C125.871 63.9271 125.715 64.0312 125.544 64.1022C125.373 64.1733 125.19 64.2099 125.004 64.2099ZM118.114 61.6203C117.895 61.6203 117.684 61.7073 117.528 61.8621C117.372 62.017 117.283 62.2273 117.282 62.4471V62.8089C117.282 62.9179 117.303 63.0259 117.345 63.1266C117.387 63.2273 117.449 63.3187 117.526 63.3956C117.603 63.4724 117.695 63.5332 117.796 63.5744C117.897 63.6156 118.005 63.6365 118.114 63.6357H125.004C125.114 63.6365 125.222 63.6156 125.323 63.5744C125.424 63.5332 125.515 63.4724 125.593 63.3956C125.67 63.3187 125.732 63.2273 125.774 63.1266C125.815 63.0259 125.837 62.9179 125.837 62.8089V62.4357C125.836 62.2159 125.747 62.0056 125.591 61.8507C125.435 61.6958 125.224 61.6088 125.004 61.6088L118.114 61.6203Z" fill="black"/>
<path d="M124.999 63.9227H118.114C117.496 63.9227 116.995 64.424 116.995 65.0424V65.3926C116.995 66.011 117.496 66.5123 118.114 66.5123H124.999C125.617 66.5123 126.118 66.011 126.118 65.3926V65.0424C126.118 64.424 125.617 63.9227 124.999 63.9227Z" fill="white"/>
<path d="M125.004 66.8051H118.114C117.741 66.8051 117.383 66.6569 117.12 66.3931C116.856 66.1292 116.708 65.7714 116.708 65.3984V65.0424C116.708 64.6693 116.856 64.3115 117.12 64.0476C117.383 63.7838 117.741 63.6356 118.114 63.6356H125.004C125.378 63.6356 125.735 63.7838 125.999 64.0476C126.263 64.3115 126.411 64.6693 126.411 65.0424V65.3984C126.411 65.7714 126.263 66.1292 125.999 66.3931C125.735 66.6569 125.378 66.8051 125.004 66.8051ZM118.114 64.2098C117.894 64.2098 117.682 64.2975 117.526 64.4537C117.369 64.6098 117.282 64.8216 117.282 65.0424V65.3984C117.282 65.6192 117.369 65.8309 117.526 65.9871C117.682 66.1432 117.894 66.2309 118.114 66.2309H125.004C125.225 66.2309 125.437 66.1432 125.593 65.9871C125.749 65.8309 125.837 65.6192 125.837 65.3984V65.0424C125.837 64.8216 125.749 64.6098 125.593 64.4537C125.437 64.2975 125.225 64.2098 125.004 64.2098H118.114Z" fill="black"/>
<path d="M125.096 66.5179C125.096 67.494 123.512 68.2864 121.559 68.2864C119.607 68.2864 118.022 67.494 118.022 66.5179H125.096Z" fill="white"/>
<path d="M121.559 68.5736C119.412 68.5736 117.735 67.6721 117.735 66.518C117.735 66.4419 117.766 66.3689 117.819 66.315C117.873 66.2612 117.946 66.231 118.022 66.231H125.096C125.172 66.231 125.246 66.2612 125.299 66.315C125.353 66.3689 125.383 66.4419 125.383 66.518C125.383 67.6721 123.707 68.5736 121.559 68.5736ZM118.378 66.8051C118.683 67.4138 119.9 67.9994 121.559 67.9994C123.219 67.9994 124.43 67.4252 124.74 66.8051H118.378Z" fill="black"/>
<path d="M120.003 60.3055C119.966 60.3026 119.929 60.2922 119.895 60.2751C119.861 60.2579 119.831 60.2342 119.807 60.2054C119.782 60.1766 119.764 60.1432 119.752 60.1071C119.74 60.0711 119.736 60.0331 119.739 59.9954V59.7428C119.974 57.7187 120.015 55.6768 119.86 53.645C118.58 53.4472 117.366 52.9429 116.323 52.1751C115.677 51.7301 115.163 51.1192 114.836 50.4066C114.661 50.0303 114.587 49.6153 114.62 49.2018C114.653 48.7883 114.793 48.3904 115.025 48.0468C115.229 47.8039 115.481 47.6059 115.765 47.4652C116.049 47.3244 116.359 47.244 116.675 47.2289C116.992 47.2138 117.308 47.2643 117.604 47.3774C117.9 47.4905 118.17 47.6637 118.396 47.886C119.231 49.0003 119.808 50.2871 120.084 51.6526C120.209 52.1404 120.307 52.635 120.377 53.134C121.34 53.2301 122.313 53.1483 123.247 52.8928V52.7435V52.5253C123.443 50.8487 123.684 48.7587 124.895 47.4324C125.096 47.2085 125.814 46.4965 126.583 46.5769C126.773 46.6027 126.954 46.6756 127.108 46.7889C127.262 46.9022 127.386 47.0524 127.468 47.2257C127.719 47.7132 127.849 48.2535 127.849 48.8018C127.849 49.3501 127.719 49.8904 127.468 50.3779C126.971 51.3204 126.214 52.0999 125.286 52.623C124.799 52.9149 124.281 53.1518 123.741 53.3292C123.568 55.5259 123.662 57.7354 124.023 59.9093C124.033 59.9844 124.013 60.0606 123.968 60.1216C123.923 60.1826 123.856 60.2238 123.781 60.2366C123.706 60.2466 123.63 60.227 123.569 60.182C123.508 60.1371 123.467 60.0702 123.454 59.9954C123.11 57.8488 123.019 55.6692 123.184 53.5015C122.282 53.7239 121.349 53.7957 120.423 53.7139C120.565 55.7367 120.521 57.7683 120.29 59.783V60.0413C120.285 60.1134 120.252 60.1807 120.199 60.2297C120.145 60.2786 120.076 60.3057 120.003 60.3055ZM116.794 47.7999H116.708C116.474 47.7999 116.243 47.8514 116.032 47.9506C115.821 48.0499 115.634 48.1944 115.485 48.374C115.315 48.6395 115.216 48.9432 115.195 49.2572C115.174 49.5713 115.232 49.8856 115.364 50.1712C115.654 50.7878 116.104 51.3152 116.667 51.6985C117.59 52.3779 118.657 52.8356 119.785 53.0364C119.716 52.6172 119.636 52.1981 119.527 51.7847C119.276 50.506 118.742 49.2996 117.965 48.2535C117.809 48.0985 117.622 47.9781 117.416 47.9C117.21 47.8218 116.99 47.7877 116.771 47.7999H116.794ZM126.509 47.1453C126.056 47.2205 125.648 47.4597 125.36 47.8171C124.275 49.0114 124.046 50.998 123.862 52.5942V52.6976C124.276 52.5462 124.674 52.3538 125.05 52.1234C125.881 51.6587 126.561 50.9652 127.008 50.1253C127.217 49.7194 127.326 49.2696 127.326 48.8133C127.326 48.3569 127.217 47.9072 127.008 47.5013C126.972 47.4087 126.912 47.3272 126.834 47.2648C126.757 47.2024 126.664 47.1612 126.566 47.1453H126.509Z" fill="black"/>
<path d="M152.691 48.0811C148.953 48.0811 146.025 41.0302 146.025 32.0041C146.025 22.978 148.953 15.9558 152.691 15.9558C156.429 15.9558 159.358 23.0067 159.358 32.0041C159.358 41.0015 156.429 48.0811 152.691 48.0811ZM152.691 16.553C149.332 16.553 146.599 23.4948 146.599 32.0271C146.599 40.5594 149.332 47.5299 152.691 47.5299C156.05 47.5299 158.783 40.5881 158.783 32.0271C158.783 23.4661 156.05 16.5587 152.691 16.5587V16.553Z" fill="black"/>
<path d="M161.786 41.2483C161.459 41.2483 161.12 41.2483 160.764 41.2139C157.526 41.0071 153.633 39.8818 149.803 38.0444C145.973 36.207 142.666 33.8701 140.479 31.47C138.291 29.07 137.43 26.7331 138.222 25.0852C139.014 23.4373 141.282 22.6449 144.618 22.8574C147.857 23.0641 151.75 24.1894 155.579 26.0268C159.409 27.8642 162.716 30.2011 164.904 32.5782C167.092 34.9553 167.947 37.3152 167.155 38.9631C166.449 40.4559 164.56 41.2483 161.786 41.2483ZM143.614 23.3913C141.093 23.3913 139.342 24.0804 138.744 25.3321C138.067 26.7331 138.854 28.8288 140.903 31.0739C143.039 33.4222 146.289 35.7075 150.056 37.5161C153.822 39.3248 157.635 40.4272 160.804 40.6282C163.836 40.8234 165.972 40.1287 166.638 38.7219C167.304 37.3152 166.529 35.2252 164.479 32.9801C162.343 30.6317 159.093 28.3465 155.327 26.5378C151.56 24.7292 147.748 23.6268 144.578 23.4258C144.245 23.4028 143.924 23.3913 143.614 23.3913Z" fill="black"/>
<path d="M143.596 41.2485C140.823 41.2485 138.934 40.4561 138.222 38.9862C137.43 37.3383 138.222 35.0703 140.479 32.6013C142.735 30.1324 145.979 27.8644 149.803 26.027C153.627 24.1896 157.526 23.0642 160.764 22.8575C164.095 22.6451 166.368 23.4317 167.161 25.0853C167.947 26.7332 167.161 29.0012 164.904 31.4702C162.648 33.9392 159.404 36.2072 155.602 38.0446C151.801 39.8819 147.857 41.0073 144.618 41.1911C144.262 41.237 143.924 41.2485 143.596 41.2485ZM161.769 23.3915C161.459 23.3915 161.138 23.403 160.805 23.426C157.635 23.6269 153.817 24.7294 150.056 26.538C146.295 28.3467 143.039 30.6319 140.903 32.9803C138.854 35.2311 138.067 37.3268 138.739 38.7221C139.411 40.1173 141.547 40.8236 144.578 40.6284C147.748 40.4274 151.566 39.325 155.327 37.5163C159.088 35.7076 162.343 33.4224 164.479 31.074C166.529 28.8232 167.316 26.7275 166.638 25.3322C166.041 24.0863 164.29 23.3915 161.769 23.3915Z" fill="black"/>
<path d="M152.691 35.5066C154.61 35.5066 156.165 33.9514 156.165 32.0329C156.165 30.1143 154.61 28.5591 152.691 28.5591C150.773 28.5591 149.218 30.1143 149.218 32.0329C149.218 33.9514 150.773 35.5066 152.691 35.5066Z" fill="black"/>
<path d="M103.611 33.5945C103.566 33.5936 103.522 33.5824 103.482 33.5618C103.442 33.5412 103.408 33.5118 103.381 33.4757C103.354 33.4396 103.336 33.398 103.328 33.3538C103.32 33.3097 103.323 33.2644 103.335 33.2213L107.107 20.687C107.125 20.6337 107.156 20.5861 107.199 20.5497C107.241 20.5132 107.293 20.4892 107.349 20.4803L109.186 20.2678C109.241 20.2603 109.297 20.2694 109.348 20.2939C109.398 20.3185 109.439 20.3573 109.467 20.4056L116.019 31.7227C116.041 31.7641 116.053 31.8105 116.053 31.8576C116.053 31.9048 116.041 31.9512 116.019 31.9926C115.999 32.0351 115.968 32.0718 115.93 32.099C115.892 32.1262 115.847 32.1429 115.8 32.1476L113.372 32.4404C113.315 32.4477 113.258 32.4373 113.207 32.4105C113.157 32.3838 113.116 32.3421 113.09 32.2911L111.747 29.8623L106.964 30.4365L106.258 33.1065C106.241 33.1613 106.209 33.2101 106.165 33.2468C106.121 33.2835 106.068 33.3066 106.011 33.3132L103.639 33.5945H103.611ZM107.63 21.0315L104.036 32.9687L105.758 32.762L106.464 30.0978C106.478 30.042 106.508 29.9917 106.552 29.9537C106.595 29.9157 106.648 29.8919 106.705 29.8853L111.873 29.2709C111.93 29.2633 111.989 29.2735 112.04 29.3002C112.092 29.3269 112.133 29.3688 112.16 29.4202L113.504 31.8433L115.301 31.6308L109.094 20.8592L107.63 21.0315ZM107.245 28.559C107.205 28.5593 107.165 28.5507 107.128 28.5338C107.091 28.5169 107.059 28.4922 107.033 28.4614C107.002 28.4255 106.98 28.3828 106.969 28.3369C106.958 28.291 106.958 28.2431 106.97 28.1972L108.267 23.1272C108.281 23.0714 108.311 23.0212 108.354 22.9832C108.398 22.9452 108.451 22.9213 108.508 22.9148C108.566 22.9062 108.625 22.916 108.676 22.9429C108.728 22.9697 108.769 23.0121 108.795 23.0641L111.207 27.6977C111.23 27.7391 111.241 27.7855 111.241 27.8326C111.241 27.8798 111.23 27.9262 111.207 27.9676C111.185 28.0075 111.153 28.0418 111.115 28.0677C111.078 28.0936 111.034 28.1104 110.989 28.1168L107.28 28.5532L107.245 28.559ZM108.635 23.9655L107.63 27.9101L110.501 27.5656L108.635 23.9655Z" fill="black"/>
<path d="M138.303 53.6851L138.664 53.754C138.854 53.7892 139.046 53.8141 139.238 53.8286C139.42 53.8396 139.603 53.8202 139.778 53.7712C139.94 53.7183 140.086 53.6255 140.203 53.5014C140.337 53.3365 140.422 53.1377 140.45 52.9272C140.482 52.7834 140.482 52.6344 140.45 52.4906C140.418 52.3468 140.356 52.2116 140.266 52.0946C140.074 51.8445 139.792 51.6796 139.48 51.6353C139.212 51.5829 138.934 51.6171 138.687 51.7329C138.442 51.8617 138.242 52.0619 138.113 52.3071L136.712 51.641C136.844 51.3835 137.018 51.1505 137.229 50.952C137.433 50.7627 137.671 50.6128 137.929 50.5099C138.194 50.4089 138.473 50.3489 138.756 50.3319C139.402 50.2981 140.046 50.4285 140.628 50.7108C140.915 50.8525 141.172 51.0474 141.386 51.285C141.593 51.51 141.746 51.779 141.834 52.0716C141.929 52.3964 141.942 52.7394 141.874 53.0707C141.805 53.4917 141.604 53.8798 141.3 54.1789C140.989 54.4757 140.581 54.6492 140.151 54.6669C140.378 54.733 140.589 54.8451 140.771 54.9963C140.953 55.1474 141.101 55.3343 141.208 55.5454C141.413 55.9804 141.469 56.4705 141.369 56.9407C141.313 57.3039 141.171 57.6484 140.955 57.9455C140.753 58.212 140.496 58.433 140.203 58.5943C139.901 58.7526 139.572 58.8538 139.233 58.8929C138.873 58.9329 138.51 58.9213 138.153 58.8584C137.829 58.7992 137.513 58.7029 137.212 58.5713C136.935 58.4491 136.681 58.2822 136.459 58.0776C136.241 57.8763 136.063 57.6345 135.937 57.3656C135.796 57.0659 135.713 56.7427 135.69 56.4124L137.246 56.2919C137.254 56.6083 137.363 56.9139 137.556 57.1646C137.77 57.4061 138.063 57.5629 138.383 57.6067C138.572 57.6449 138.768 57.6449 138.957 57.6067C139.13 57.5789 139.295 57.5185 139.445 57.4287C139.595 57.3403 139.724 57.2209 139.824 57.0785C139.93 56.9275 140 56.7549 140.031 56.5732C140.08 56.3471 140.062 56.1117 139.979 55.8957C139.902 55.7146 139.779 55.5564 139.623 55.4363C139.449 55.3092 139.255 55.2122 139.049 55.1492C138.843 55.0784 138.632 55.0228 138.417 54.9827L138.079 54.9253L138.303 53.6851Z" fill="white"/>
<path d="M138.813 59.2202C138.575 59.2189 138.337 59.1978 138.101 59.1571C137.756 59.092 137.419 58.988 137.097 58.847C136.791 58.715 136.509 58.5326 136.264 58.3073C136.026 58.0785 135.831 57.808 135.69 57.5092C135.535 57.1785 135.442 56.8225 135.414 56.4584C135.411 56.4202 135.415 56.3816 135.427 56.3451C135.439 56.3086 135.458 56.2748 135.483 56.246C135.533 56.1895 135.603 56.1546 135.678 56.1484L137.234 56.0221C137.311 56.0184 137.387 56.0429 137.447 56.091C137.504 56.1432 137.539 56.215 137.544 56.2919C137.553 56.5487 137.639 56.7969 137.791 57.0039C137.964 57.1913 138.199 57.3096 138.452 57.3369C138.598 57.3627 138.748 57.3627 138.894 57.3369C139.032 57.3133 139.164 57.2646 139.284 57.1934C139.396 57.122 139.493 57.0305 139.571 56.9235C139.653 56.807 139.708 56.6736 139.732 56.5331C139.77 56.363 139.758 56.1856 139.698 56.0221C139.641 55.8846 139.548 55.7655 139.428 55.6776C139.287 55.5706 139.13 55.4872 138.963 55.4307C138.774 55.3695 138.582 55.3178 138.389 55.2756L138.05 55.2182C137.975 55.2043 137.909 55.1614 137.866 55.099C137.823 55.0366 137.807 54.9598 137.82 54.8852L138.05 53.6277C138.064 53.5533 138.107 53.4873 138.169 53.4443C138.231 53.4013 138.308 53.3847 138.383 53.3981L138.745 53.467C138.934 53.5016 139.126 53.5246 139.319 53.5359C139.466 53.5478 139.614 53.5322 139.755 53.4899C139.871 53.4577 139.975 53.3918 140.054 53.3005C140.153 53.1791 140.215 53.0314 140.232 52.8756C140.256 52.7707 140.257 52.6616 140.234 52.5563C140.212 52.451 140.166 52.3522 140.1 52.2669C140.026 52.1713 139.935 52.0911 139.83 52.031C139.726 51.9708 139.61 51.932 139.491 51.9167C139.281 51.8764 139.064 51.9046 138.871 51.9971C138.668 52.0962 138.501 52.2569 138.394 52.4564C138.358 52.5191 138.299 52.5658 138.23 52.5871C138.161 52.6084 138.086 52.6027 138.021 52.5713L136.626 51.9109C136.59 51.8945 136.558 51.8707 136.533 51.841C136.507 51.8113 136.488 51.7764 136.477 51.7387C136.46 51.7038 136.451 51.6655 136.451 51.6267C136.451 51.588 136.46 51.5497 136.477 51.5148C136.62 51.2189 136.814 50.9506 137.051 50.7224C137.281 50.5085 137.55 50.3408 137.843 50.2286C138.135 50.1146 138.443 50.0468 138.756 50.0276C139.077 50.0068 139.399 50.0261 139.715 50.0851C140.082 50.1512 140.438 50.2691 140.771 50.4353C141.088 50.5936 141.374 50.8075 141.615 51.0669C141.851 51.3229 142.026 51.6292 142.126 51.9626C142.234 52.3362 142.249 52.7301 142.172 53.111C142.089 53.5928 141.853 54.0354 141.501 54.3742C141.333 54.5359 141.138 54.6679 140.926 54.7646C141.17 54.9406 141.367 55.1731 141.501 55.4421C141.732 55.9324 141.798 56.4843 141.69 57.0154C141.625 57.4296 141.463 57.8229 141.219 58.1638C140.993 58.4644 140.705 58.713 140.375 58.893C140.04 59.0679 139.677 59.1807 139.301 59.226C139.139 59.2342 138.976 59.2323 138.813 59.2202ZM136.017 56.6939C136.048 56.8928 136.108 57.0863 136.195 57.268C136.306 57.5045 136.462 57.7171 136.655 57.8939C136.854 58.0782 137.083 58.2276 137.332 58.336C137.611 58.459 137.904 58.5477 138.205 58.6001C138.532 58.6628 138.867 58.6745 139.198 58.6346C139.503 58.6035 139.8 58.5139 140.071 58.3705C140.326 58.2262 140.549 58.0307 140.725 57.7963C140.914 57.534 141.038 57.2311 141.087 56.912C141.178 56.5023 141.129 56.074 140.949 55.6948C140.857 55.5177 140.728 55.3619 140.572 55.2373C140.416 55.1127 140.235 55.0221 140.042 54.9713C139.977 54.948 139.922 54.9023 139.888 54.8424C139.853 54.7825 139.84 54.7122 139.853 54.644C139.866 54.5793 139.899 54.5203 139.948 54.4751C139.996 54.4299 140.057 54.4006 140.123 54.3914C140.488 54.3793 140.836 54.2319 141.099 53.978C141.367 53.7266 141.545 53.3935 141.604 53.0306C141.663 52.745 141.651 52.4493 141.569 52.1693C141.495 51.915 141.364 51.6812 141.185 51.4861C140.992 51.2785 140.762 51.1091 140.507 50.9865C139.973 50.7228 139.38 50.6021 138.785 50.6363C138.533 50.6503 138.285 50.7046 138.05 50.797C137.821 50.8853 137.61 51.0158 137.43 51.1817C137.309 51.2962 137.201 51.4233 137.108 51.5607L137.998 51.9856C138.151 51.7849 138.347 51.6219 138.572 51.509C138.875 51.3664 139.215 51.3241 139.543 51.3884C139.928 51.4462 140.277 51.6522 140.513 51.9626C140.624 52.1122 140.702 52.2839 140.742 52.4661C140.782 52.6483 140.782 52.8368 140.743 53.0191C140.708 53.2818 140.598 53.5289 140.427 53.7311C140.272 53.8978 140.073 54.0173 139.853 54.0756C139.647 54.1396 139.43 54.163 139.215 54.1445C139.005 54.1338 138.796 54.1089 138.589 54.0699H138.509L138.383 54.7531H138.44C138.666 54.7936 138.889 54.8512 139.106 54.9254C139.335 55.0013 139.55 55.1138 139.744 55.2584C139.959 55.4184 140.123 55.638 140.214 55.8901C140.306 56.1422 140.322 56.4156 140.26 56.6766C140.225 56.8936 140.142 57.1001 140.018 57.2816C139.894 57.4632 139.732 57.6153 139.543 57.7274C139.365 57.8317 139.171 57.9055 138.968 57.9456C138.754 57.9829 138.534 57.9829 138.32 57.9456C137.927 57.8847 137.571 57.6801 137.321 57.3714C137.15 57.156 137.035 56.9014 136.988 56.6307L136.017 56.6939Z" fill="black"/>
<path d="M143.24 58.0087L144.653 58.267L143.108 61.1379L141.868 60.9083L143.24 58.0087Z" fill="white"/>
<path d="M143.108 61.4365H143.057L141.816 61.2068C141.772 61.2009 141.73 61.1842 141.694 61.1581C141.658 61.1321 141.629 61.0975 141.61 61.0575C141.59 61.0183 141.58 60.9751 141.58 60.9312C141.58 60.8873 141.59 60.8441 141.61 60.8049L142.982 57.8938C143.008 57.836 143.053 57.7887 143.109 57.7595C143.165 57.7303 143.23 57.721 143.292 57.733L144.704 57.9914C144.75 57.9985 144.792 58.0169 144.829 58.0451C144.865 58.0732 144.893 58.11 144.911 58.1522C144.931 58.1924 144.941 58.2366 144.941 58.2814C144.941 58.3262 144.931 58.3704 144.911 58.4106L143.361 61.2815C143.336 61.3274 143.3 61.3661 143.256 61.3933C143.211 61.4206 143.16 61.4355 143.108 61.4365ZM142.287 60.713L142.953 60.8336L144.216 58.4852L143.407 58.3359L142.287 60.713Z" fill="black"/>
<path d="M149.447 53.9722L147.644 55.1205L146.99 54.0009L149.861 52.3932L151.124 52.6286L149.619 60.8336L148.23 60.581L149.447 53.9722Z" fill="white"/>
<path d="M149.625 61.1207H149.574L148.184 60.8623C148.147 60.8561 148.111 60.8425 148.079 60.8223C148.047 60.8022 148.019 60.7759 147.997 60.7449C147.975 60.7139 147.959 60.6789 147.951 60.6419C147.943 60.6049 147.942 60.5667 147.949 60.5293L149.045 54.5636L147.799 55.356C147.766 55.3769 147.73 55.3908 147.691 55.3967C147.652 55.4027 147.613 55.4005 147.575 55.3904C147.537 55.3827 147.501 55.3669 147.469 55.3441C147.438 55.3213 147.411 55.2921 147.392 55.2584L146.76 54.1444C146.744 54.1102 146.736 54.073 146.736 54.0354C146.736 53.9977 146.744 53.9605 146.76 53.9263C146.769 53.8892 146.786 53.8545 146.81 53.8247C146.833 53.7949 146.864 53.7708 146.898 53.754L149.769 52.1463C149.826 52.1124 149.893 52.1002 149.958 52.1119L151.221 52.3415C151.296 52.3568 151.361 52.3998 151.405 52.4616C151.449 52.5234 151.467 52.5995 151.457 52.6746L149.947 60.8853C149.934 60.9507 149.899 61.0097 149.847 61.0525C149.796 61.0953 149.732 61.1194 149.665 61.1207H149.625ZM148.569 60.3513L149.396 60.5006L150.797 52.8583L149.918 52.6746L147.397 54.087L147.742 54.6612L149.292 53.6736C149.34 53.6441 149.394 53.6285 149.45 53.6285C149.506 53.6285 149.561 53.6441 149.608 53.6736C149.655 53.7052 149.691 53.7498 149.712 53.8019C149.734 53.854 149.739 53.9112 149.729 53.9665L148.569 60.3513Z" fill="black"/>
<path d="M156.177 60.3112L152.686 59.6738L152.938 58.2901L157.187 53.7368L158.766 54.0296L157.796 59.3178L158.99 59.536L158.76 60.7877L157.566 60.5695L157.262 62.2404L155.867 61.982L156.177 60.3112ZM157.015 55.7177L154.351 58.6575L156.429 59.0365L157.015 55.7177Z" fill="white"/>
<path d="M157.268 62.5275H157.216L155.821 62.2691C155.746 62.2552 155.68 62.2123 155.637 62.1499C155.594 62.0876 155.578 62.0107 155.591 61.9361L155.844 60.5466L152.64 59.9724C152.602 59.9663 152.567 59.9524 152.535 59.9317C152.503 59.9109 152.476 59.8837 152.456 59.8518C152.433 59.8219 152.418 59.7874 152.41 59.7507C152.402 59.714 152.402 59.676 152.41 59.6394L152.663 58.2556C152.673 58.2016 152.699 58.1518 152.737 58.1121L156.986 53.5588C157.02 53.5258 157.061 53.5008 157.106 53.4859C157.15 53.471 157.198 53.4665 157.245 53.4727L158.824 53.7655C158.898 53.7795 158.964 53.8223 159.007 53.8847C159.05 53.9471 159.067 54.024 159.053 54.0986L158.135 59.1054L159.048 59.2719C159.122 59.2859 159.188 59.3287 159.231 59.3911C159.274 59.4535 159.291 59.5304 159.277 59.6049L159.048 60.8566C159.042 60.894 159.028 60.9297 159.007 60.9613C158.986 60.993 158.959 61.0199 158.927 61.0404C158.896 61.0617 158.862 61.0768 158.825 61.0847C158.789 61.0926 158.751 61.0931 158.715 61.0863L157.802 60.9198L157.549 62.3093C157.533 62.3832 157.49 62.4486 157.428 62.4931C157.379 62.5185 157.323 62.5304 157.268 62.5275ZM156.211 61.7524L157.038 61.9017L157.291 60.5179C157.305 60.4434 157.347 60.3775 157.41 60.3344C157.472 60.2914 157.549 60.2748 157.624 60.2882L158.537 60.4547L158.663 59.7657L157.75 59.5992C157.713 59.5925 157.677 59.5783 157.646 59.5576C157.614 59.5369 157.587 59.51 157.566 59.4786C157.545 59.448 157.53 59.4135 157.522 59.377C157.514 59.3405 157.513 59.3029 157.52 59.2662L158.439 54.2593L157.291 54.0526L153.214 58.4164L153.024 59.4327L156.234 60.0069C156.309 60.0208 156.375 60.0637 156.418 60.126C156.461 60.1884 156.477 60.2653 156.464 60.3399L156.211 61.7524ZM156.412 59.3466H156.36L154.282 58.9906C154.232 58.9817 154.185 58.9593 154.147 58.926C154.108 58.8926 154.08 58.8494 154.064 58.8011C154.047 58.7524 154.044 58.7002 154.054 58.6499C154.064 58.5995 154.087 58.5526 154.121 58.514L156.785 55.5455C156.818 55.5109 156.859 55.4849 156.904 55.4698C156.949 55.4548 156.997 55.4512 157.044 55.4594C157.123 55.4728 157.195 55.5159 157.245 55.5799C157.289 55.6438 157.309 55.7209 157.302 55.7981L156.693 59.1111C156.68 59.1766 156.645 59.2356 156.594 59.2784C156.543 59.3212 156.479 59.3452 156.412 59.3466ZM154.896 58.491L156.182 58.7264L156.561 56.6479L154.896 58.491Z" fill="black"/>
<path d="M107.423 61.7811C106.918 61.7811 106.424 61.6312 106.004 61.3505C105.583 61.0697 105.256 60.6707 105.063 60.2038C104.869 59.7369 104.819 59.2232 104.917 58.7275C105.016 58.2319 105.259 57.7766 105.616 57.4193C105.974 57.0619 106.429 56.8186 106.925 56.72C107.42 56.6214 107.934 56.672 108.401 56.8654C108.868 57.0588 109.267 57.3863 109.548 57.8065C109.828 58.2266 109.978 58.7206 109.978 59.226C109.977 59.9032 109.707 60.5522 109.228 61.031C108.749 61.5099 108.1 61.7796 107.423 61.7811ZM107.423 57.2451C107.031 57.2451 106.648 57.3613 106.323 57.5789C105.997 57.7966 105.743 58.106 105.593 58.4679C105.443 58.8299 105.404 59.2282 105.48 59.6125C105.557 59.9967 105.745 60.3497 106.022 60.6267C106.299 60.9038 106.652 61.0924 107.037 61.1689C107.421 61.2453 107.819 61.2061 108.181 61.0561C108.543 60.9062 108.853 60.6523 109.07 60.3265C109.288 60.0008 109.404 59.6178 109.404 59.226C109.397 58.7051 109.185 58.208 108.814 57.8418C108.444 57.4755 107.944 57.2695 107.423 57.268V57.2451Z" fill="#D1D3D4"/>
<path d="M86.8675 30.6031C86.7918 30.6017 86.7196 30.571 86.6661 30.5174C86.6126 30.4639 86.5819 30.3917 86.5804 30.3161V26.8365C86.5819 26.7608 86.6126 26.6887 86.6661 26.6352C86.7196 26.5816 86.7918 26.5509 86.8675 26.5494C86.9436 26.5494 87.0166 26.5797 87.0705 26.6335C87.1243 26.6874 87.1546 26.7604 87.1546 26.8365V30.3448C87.1474 30.4158 87.1141 30.4817 87.061 30.5294C87.0079 30.5772 86.9389 30.6035 86.8675 30.6031Z" fill="black"/>
<path d="M88.6245 28.8462H85.1163C85.0401 28.8462 84.9671 28.8159 84.9133 28.7621C84.8594 28.7082 84.8292 28.6352 84.8292 28.5591C84.8292 28.4829 84.8594 28.4099 84.9133 28.3561C84.9671 28.3022 85.0401 28.272 85.1163 28.272H88.6245C88.7002 28.2734 88.7724 28.3042 88.8259 28.3577C88.8794 28.4112 88.9101 28.4834 88.9116 28.5591C88.9116 28.6352 88.8814 28.7082 88.8275 28.7621C88.7737 28.8159 88.7007 28.8462 88.6245 28.8462Z" fill="black"/>
<path d="M136.39 46.0658C136.351 46.0737 136.31 46.0737 136.27 46.0658C136.236 46.0503 136.205 46.0282 136.179 46.0006C136.154 45.9731 136.134 45.9407 136.121 45.9054C136.108 45.8701 136.103 45.8325 136.104 45.795C136.106 45.7574 136.116 45.7207 136.132 45.6868L137.349 43.0686C137.362 43.0301 137.383 42.9947 137.41 42.9649C137.438 42.935 137.471 42.9112 137.508 42.8952C137.545 42.8791 137.586 42.8711 137.626 42.8717C137.667 42.8723 137.707 42.8815 137.743 42.8986C137.78 42.9158 137.813 42.9405 137.839 42.9712C137.866 43.0018 137.885 43.0378 137.897 43.0766C137.909 43.1154 137.912 43.1563 137.906 43.1965C137.901 43.2366 137.887 43.2752 137.866 43.3097L136.655 45.8993C136.63 45.9487 136.593 45.9904 136.546 46.0198C136.499 46.0492 136.446 46.0651 136.39 46.0658Z" fill="black"/>
<path d="M138.308 45.3653C138.268 45.3732 138.228 45.3732 138.188 45.3653L135.569 44.148C135.51 44.111 135.465 44.0534 135.445 43.986C135.425 43.9186 135.43 43.8461 135.46 43.7824C135.49 43.7186 135.542 43.668 135.607 43.6402C135.671 43.6123 135.744 43.6091 135.811 43.6313L138.429 44.8428C138.463 44.8588 138.494 44.8815 138.52 44.9096C138.546 44.9376 138.565 44.9705 138.578 45.0063C138.591 45.0421 138.597 45.0801 138.595 45.118C138.593 45.156 138.583 45.1932 138.567 45.2275C138.54 45.2719 138.502 45.3083 138.457 45.3326C138.411 45.3569 138.36 45.3682 138.308 45.3653Z" fill="black"/>
<path d="M109.1 39.0608C109.477 39.0608 109.783 38.7548 109.783 38.3775C109.783 38.0001 109.477 37.6942 109.1 37.6942C108.722 37.6942 108.416 38.0001 108.416 38.3775C108.416 38.7548 108.722 39.0608 109.1 39.0608Z" fill="#D1D3D4"/>
<path d="M98.4257 24.58C96.9444 24.58 96.9444 26.8767 98.4257 26.8767C99.9071 26.8767 99.9071 24.58 98.4257 24.58Z" fill="#D1D3D4"/>
<path d="M100.9 65.9438C100.748 65.9438 100.602 66.0043 100.494 66.112C100.387 66.2197 100.326 66.3657 100.326 66.518C100.326 66.6703 100.387 66.8164 100.494 66.924C100.602 67.0317 100.748 67.0922 100.9 67.0922C101.053 67.0922 101.199 67.0317 101.306 66.924C101.414 66.8164 101.475 66.6703 101.475 66.518C101.475 66.3657 101.414 66.2197 101.306 66.112C101.199 66.0043 101.053 65.9438 100.9 65.9438Z" fill="#D1D3D4"/>
<path d="M135.098 62.8088C133.623 62.8088 133.623 65.1056 135.098 65.1056C136.574 65.1056 136.58 62.8088 135.098 62.8088Z" fill="#D1D3D4"/>
<path d="M125.489 25.346L121.023 26.7415L122.418 31.2081L126.885 29.8126L125.489 25.346Z" fill="#D1D3D4"/>
<path d="M153.705 65.2831L149.911 63.9388L148.566 67.7327L152.36 69.077L153.705 65.2831Z" fill="#D1D3D4"/>
<path d="M128.645 19.154C128.482 19.154 128.324 19.1058 128.189 19.0156C128.054 18.9254 127.948 18.7972 127.886 18.6471C127.824 18.4971 127.808 18.332 127.84 18.1727C127.871 18.0135 127.949 17.8672 128.064 17.7523C128.179 17.6375 128.325 17.5593 128.485 17.5276C128.644 17.4959 128.809 17.5122 128.959 17.5743C129.109 17.6365 129.237 17.7417 129.328 17.8768C129.418 18.0118 129.466 18.1705 129.466 18.3329C129.466 18.5507 129.379 18.7595 129.225 18.9135C129.071 19.0675 128.863 19.154 128.645 19.154ZM128.645 18.086C128.596 18.086 128.548 18.1005 128.508 18.1276C128.467 18.1548 128.435 18.1933 128.417 18.2384C128.398 18.2835 128.393 18.3332 128.403 18.3811C128.412 18.429 128.436 18.473 128.47 18.5075C128.505 18.542 128.549 18.5655 128.597 18.5751C128.645 18.5846 128.694 18.5797 128.739 18.561C128.784 18.5423 128.823 18.5107 128.85 18.4701C128.877 18.4295 128.892 18.3817 128.892 18.3329C128.892 18.2674 128.866 18.2046 128.819 18.1583C128.773 18.112 128.71 18.086 128.645 18.086Z" fill="#D1D3D4"/>
</svg>
