<svg width="230" height="174" viewBox="0 0 230 174" fill="none" xmlns="http://www.w3.org/2000/svg">
<path d="M111.885 140.231H135.834L124.476 108.249C124.476 108.249 128.599 97.7993 127.646 95.003C126.693 92.2068 113.004 77.7375 110.059 77.8868C107.113 78.0361 91.949 90.4383 91.6505 92.0575C91.3519 93.6767 104.162 111.046 104.753 111.93C107.627 121.231 110.008 130.678 111.885 140.231Z" fill="white"/>
<path d="M135.833 140.805H111.884C111.749 140.808 111.618 140.762 111.513 140.677C111.408 140.592 111.336 140.473 111.31 140.34C109.435 130.845 107.069 121.454 104.219 112.205C104.081 112.01 103.731 111.522 103.22 110.822C92.8849 96.5188 90.8982 92.9416 91.0762 91.977C91.4265 90.0593 106.814 77.4962 110.024 77.3354H110.082C113.463 77.3354 127.146 91.8162 128.18 94.8364C129.133 97.6154 125.768 106.527 125.085 108.284L136.373 140.059C136.403 140.145 136.412 140.238 136.399 140.329C136.386 140.42 136.352 140.506 136.299 140.581C136.244 140.652 136.173 140.71 136.093 140.748C136.012 140.787 135.923 140.807 135.833 140.805ZM112.355 139.657H135.024L123.936 108.439C123.888 108.309 123.888 108.166 123.936 108.037C125.085 105.166 127.824 97.3169 127.094 95.1867C126.67 93.9407 123.196 89.7951 119.182 85.7414C114.141 80.6485 110.994 78.3862 110.082 78.4608C107.492 78.5872 93.0054 90.2258 92.2188 92.1493C92.3222 92.9531 94.5155 96.7427 104.162 110.121C104.736 110.936 105.132 111.47 105.224 111.608C105.253 111.653 105.276 111.701 105.293 111.752C108.128 120.925 110.485 130.239 112.355 139.657Z" fill="#5F5F5F"/>
<path d="M125.929 86.5512L121.106 78.8457C121.106 78.8457 102.032 92.3676 85.5526 93.4413L91.3977 102.783L97.2429 112.131C105.396 97.7477 125.929 86.5512 125.929 86.5512Z" fill="#F14736"/>
<path d="M97.2486 112.682C97.151 112.682 97.055 112.657 96.9696 112.61C96.8842 112.563 96.8123 112.495 96.7606 112.412L85.0703 93.7225C85.0174 93.6384 84.9873 93.542 84.9828 93.4427C84.9783 93.3434 84.9997 93.2447 85.0449 93.1562C85.09 93.0676 85.1573 92.9923 85.2403 92.9376C85.3233 92.8829 85.419 92.8507 85.5182 92.844C101.647 91.822 120.583 78.4896 120.773 78.346C120.836 78.3016 120.908 78.2706 120.984 78.2548C121.06 78.239 121.139 78.2388 121.215 78.2542C121.291 78.2696 121.364 78.3005 121.428 78.3449C121.492 78.3893 121.547 78.4464 121.588 78.5125L126.411 86.218C126.453 86.2841 126.481 86.3581 126.493 86.4353C126.506 86.5126 126.502 86.5916 126.483 86.6674C126.463 86.7432 126.429 86.8143 126.381 86.8762C126.333 86.9382 126.273 86.9897 126.204 87.0276C125.998 87.1424 105.724 98.3389 97.7482 112.389C97.6993 112.476 97.6286 112.549 97.543 112.6C97.4574 112.652 97.3599 112.68 97.2601 112.682H97.2486ZM86.5459 93.9178L97.2314 111C101.566 103.834 108.853 97.5466 114.302 93.4699C117.765 90.8784 121.377 88.4915 125.119 86.3214L120.933 79.6609C117.345 82.0776 113.618 84.2824 109.771 86.264C103.725 89.353 94.883 93.1541 86.5459 93.9178Z" fill="#5F5F5F"/>
<path d="M101.013 118.13L81.7823 87.3907L78.2873 89.5772L97.5179 120.317L101.013 118.13Z" fill="#F14736"/>
<path d="M97.5243 120.893C97.4824 120.899 97.4399 120.899 97.398 120.893C97.324 120.877 97.254 120.846 97.1919 120.803C97.1298 120.759 97.0769 120.704 97.0363 120.64L77.807 89.9043C77.7669 89.8402 77.7399 89.7689 77.7274 89.6944C77.7149 89.6198 77.7173 89.5436 77.7344 89.47C77.7514 89.3964 77.7829 89.3268 77.8269 89.2654C77.8709 89.204 77.9266 89.1518 77.9908 89.1119L81.4818 86.9243C81.6129 86.8461 81.7685 86.8195 81.9181 86.8497C81.9915 86.8672 82.0608 86.8991 82.1218 86.9434C82.1829 86.9878 82.2347 87.0437 82.2741 87.1081L101.503 117.844C101.544 117.908 101.571 117.979 101.584 118.053C101.597 118.127 101.595 118.203 101.579 118.277C101.562 118.35 101.531 118.42 101.488 118.482C101.444 118.543 101.389 118.596 101.325 118.636L97.8286 120.824C97.7355 120.874 97.6302 120.898 97.5243 120.893ZM79.0874 89.7608L97.708 119.526L100.229 117.947L81.6023 88.1875L79.0874 89.7608Z" fill="#5F5F5F"/>
<path d="M102.595 126.942L74.5512 82.1157C74.2182 81.5834 73.5167 81.4218 72.9844 81.7548L54.6136 93.2475C54.0813 93.5805 53.9198 94.282 54.2528 94.8143L82.2963 139.641C82.6293 140.173 83.3308 140.335 83.8631 140.002L102.234 128.509C102.766 128.176 102.928 127.475 102.595 126.942Z" fill="#F14736"/>
<path d="M83.256 140.754C82.9657 140.753 82.6804 140.679 82.4264 140.538C82.1724 140.398 81.9581 140.195 81.8033 139.95L53.7661 95.1236C53.5261 94.7385 53.4477 94.2743 53.5479 93.8317C53.6501 93.3898 53.9225 93.0061 54.3059 92.7637L72.6796 81.2802C73.0649 81.0416 73.5286 80.9646 73.9703 81.0656C74.412 81.1666 74.7962 81.4376 75.0395 81.8199L103.082 126.646C103.204 126.836 103.285 127.048 103.323 127.27C103.36 127.492 103.353 127.719 103.301 127.938C103.198 128.38 102.926 128.764 102.543 129.006L84.1689 140.489C83.8954 140.661 83.579 140.753 83.256 140.754ZM82.7736 139.341C82.8549 139.465 82.9809 139.553 83.1254 139.586C83.2699 139.619 83.4216 139.595 83.5488 139.519L101.923 128.036C102.047 127.954 102.134 127.828 102.167 127.684C102.201 127.539 102.177 127.388 102.101 127.26L74.0691 82.4228C73.9879 82.2988 73.8618 82.211 73.7173 82.1778C73.5729 82.1447 73.4212 82.1687 73.294 82.2448L54.9202 93.7284C54.7937 93.8078 54.703 93.9334 54.6676 94.0786C54.6346 94.2238 54.6593 94.3762 54.7365 94.5035L82.7736 139.341Z" fill="#5F5F5F"/>
<path d="M90.8618 118.379L77.1187 96.4114C76.5485 95.5 75.3476 95.2234 74.4362 95.7936L67.2563 100.285C66.345 100.855 66.0683 102.056 66.6385 102.968L80.3816 124.936C80.9518 125.847 82.1528 126.124 83.0641 125.554L90.244 121.062C91.1554 120.492 91.432 119.291 90.8618 118.379Z" fill="white"/>
<path d="M82.0444 126.428C81.8509 126.428 81.6581 126.405 81.4702 126.359C81.1439 126.284 80.8363 126.143 80.5658 125.946C80.2954 125.749 80.0679 125.498 79.8969 125.211L66.1511 103.248C65.7981 102.68 65.6846 101.995 65.8352 101.343C65.9858 100.691 66.3884 100.125 66.955 99.7687L74.1322 95.2786C74.6967 94.9344 75.3736 94.8252 76.0176 94.9744C76.6617 95.1236 77.2216 95.5193 77.5773 96.0767L91.3231 118.045C91.6781 118.612 91.7935 119.297 91.6438 119.95C91.4942 120.602 91.0918 121.168 90.525 121.524L83.342 126.014C82.9558 126.269 82.5068 126.412 82.0444 126.428ZM80.896 124.631C80.991 124.785 81.1156 124.918 81.2626 125.023C81.4096 125.129 81.576 125.204 81.7523 125.245C81.9285 125.285 82.1111 125.29 82.2893 125.26C82.4676 125.229 82.6381 125.164 82.7908 125.067L89.9738 120.577C90.1266 120.481 90.2591 120.356 90.3635 120.208C90.4679 120.061 90.5422 119.895 90.5822 119.719C90.6222 119.543 90.6271 119.361 90.5966 119.183C90.5661 119.005 90.5008 118.835 90.4044 118.682L76.6413 96.714C76.4474 96.4055 76.1391 96.1864 75.784 96.1047C75.4289 96.0229 75.0559 96.0851 74.7466 96.2776L67.5693 100.773C67.4154 100.868 67.2819 100.993 67.1765 101.14C67.0711 101.287 66.9959 101.453 66.9553 101.63C66.9147 101.806 66.9095 101.989 66.94 102.167C66.9705 102.345 67.0361 102.516 67.1329 102.668L80.896 124.631Z" fill="#5F5F5F"/>
<path d="M120.089 63.3715C117.888 59.8459 117.175 55.5907 118.107 51.5399C119.039 47.4891 121.54 43.9737 125.062 41.7651L138.877 33.1525C139.07 33.0323 139.286 32.9518 139.511 32.9156C139.736 32.8794 139.966 32.8883 140.188 32.9417C140.41 32.9951 140.619 33.092 140.802 33.2268C140.986 33.3615 141.142 33.5314 141.259 33.7266L148.655 45.503C148.899 45.8921 148.978 46.3621 148.875 46.8095C148.772 47.2569 148.496 47.6451 148.107 47.8888C147.717 48.1324 147.248 48.2115 146.8 48.1087C146.353 48.0059 145.964 47.7295 145.721 47.3404L139.244 37.0052L126.894 44.7107C124.151 46.4307 122.202 49.1687 121.475 52.3238C120.749 55.4788 121.303 58.7933 123.018 61.5399C123.261 61.9289 123.339 62.3986 123.236 62.8454C123.132 63.2923 122.856 63.6798 122.467 63.9227C122.078 64.1656 121.608 64.244 121.161 64.1406C120.714 64.0372 120.327 63.7606 120.084 63.3715H120.089Z" fill="#F14736"/>
<path d="M121.565 64.761C121.172 64.7631 120.786 64.6645 120.442 64.4745C120.098 64.2845 119.809 64.0095 119.601 63.6758C117.32 60.0203 116.583 55.6087 117.552 51.41C118.521 47.2113 121.116 43.5689 124.769 41.2828L138.584 32.6357C138.84 32.4744 139.126 32.3655 139.425 32.3151C139.723 32.2648 140.029 32.274 140.324 32.3424C140.619 32.4107 140.898 32.5367 141.144 32.7132C141.391 32.8896 141.599 33.1131 141.759 33.3706L149.143 45.2102C149.467 45.7287 149.572 46.3549 149.435 46.9509C149.298 47.5469 148.929 48.0639 148.411 48.3883C147.892 48.7126 147.266 48.8177 146.67 48.6804C146.074 48.5432 145.557 48.1747 145.233 47.6562L139.06 37.7803L127.204 45.2102C124.59 46.8497 122.734 49.4588 122.042 52.4652C121.35 55.4716 121.878 58.6298 123.512 61.247C123.732 61.5948 123.855 61.9954 123.867 62.4068C123.879 62.8183 123.781 63.2255 123.582 63.5859C123.383 63.9462 123.091 64.2465 122.736 64.4552C122.381 64.664 121.977 64.7736 121.565 64.7725V64.761ZM139.79 33.4453C139.574 33.4463 139.363 33.508 139.181 33.6233L125.366 42.2647C121.976 44.3915 119.569 47.776 118.671 51.6758C117.773 55.5756 118.459 59.6723 120.578 63.0672C120.658 63.1957 120.763 63.3072 120.886 63.3953C121.009 63.4833 121.149 63.5462 121.297 63.5803C121.444 63.6144 121.597 63.6191 121.747 63.5941C121.896 63.5691 122.039 63.5149 122.168 63.4346C122.297 63.3543 122.408 63.2495 122.496 63.1261C122.584 63.0027 122.647 62.8632 122.681 62.7155C122.715 62.5678 122.72 62.4149 122.695 62.2653C122.67 62.1158 122.616 61.9727 122.535 61.8442C120.742 58.9687 120.162 55.4993 120.923 52.197C121.684 48.8946 123.724 46.0289 126.595 44.2284L138.951 36.4999C139.016 36.4602 139.088 36.4336 139.163 36.4218C139.237 36.41 139.314 36.4131 139.388 36.431C139.535 36.4651 139.663 36.5558 139.744 36.6836L146.22 47.0189C146.3 47.1471 146.405 47.2582 146.528 47.3459C146.651 47.4336 146.791 47.4961 146.938 47.5299C147.159 47.5822 147.391 47.5676 147.604 47.4881C147.817 47.4086 148.001 47.2677 148.134 47.0833C148.267 46.8989 148.342 46.6792 148.35 46.452C148.358 46.2249 148.298 46.0005 148.178 45.8073L140.777 33.9907C140.673 33.8225 140.528 33.6839 140.355 33.5884C140.182 33.4928 139.987 33.4435 139.79 33.4453Z" fill="#5F5F5F"/>
<path d="M139.37 94.1876C139.25 93.995 139.169 93.7805 139.132 93.5565C139.094 93.3325 139.101 93.1033 139.153 92.8821C139.204 92.6608 139.298 92.4518 139.43 92.2669C139.562 92.0821 139.729 91.9251 139.922 91.8048C140.311 91.5619 140.78 91.4835 141.227 91.5869C141.449 91.6381 141.658 91.7324 141.842 91.8643C142.027 91.9963 142.184 92.1634 142.305 92.356C144.025 95.098 146.764 97.0454 149.919 97.7709C153.074 98.4964 156.388 97.9408 159.134 96.226L171.479 88.5033L165.002 78.1681C164.881 77.9754 164.8 77.7609 164.762 77.5367C164.724 77.3126 164.731 77.0832 164.782 76.8616C164.833 76.6401 164.927 76.4308 165.059 76.2456C165.19 76.0604 165.357 75.903 165.55 75.7823C165.743 75.6617 165.957 75.5802 166.181 75.5425C166.406 75.5047 166.635 75.5115 166.857 75.5624C167.078 75.6133 167.287 75.7074 167.473 75.8392C167.658 75.971 167.815 76.138 167.936 76.3307L175.331 88.1473C175.451 88.341 175.532 88.5567 175.568 88.7818C175.604 89.007 175.595 89.237 175.542 89.4587C175.489 89.6803 175.392 89.8892 175.257 90.0731C175.122 90.257 174.952 90.4124 174.757 90.5301L160.965 99.183C157.439 101.382 153.183 102.091 149.134 101.155C145.085 100.218 141.573 97.7121 139.37 94.1876Z" fill="#F14736"/>
<path d="M152.68 102.117C149.925 102.117 147.215 101.418 144.805 100.084C142.395 98.7505 140.363 96.8262 138.9 94.492C138.576 93.9735 138.472 93.3477 138.609 92.7522C138.747 92.1567 139.116 91.6404 139.634 91.3168C140.153 90.9932 140.779 90.8889 141.374 91.0267C141.97 91.1645 142.486 91.5333 142.81 92.0518C144.451 94.6582 147.057 96.509 150.059 97.1997C153.061 97.8904 156.214 97.3649 158.829 95.738L170.686 88.3139L164.514 78.4552C164.351 78.1989 164.241 77.9129 164.19 77.6138C164.139 77.3148 164.147 77.0085 164.215 76.7127C164.283 76.4169 164.409 76.1375 164.585 75.8906C164.761 75.6437 164.985 75.4342 165.243 75.2743C165.5 75.1121 165.786 75.0024 166.085 74.9516C166.384 74.9008 166.691 74.9098 166.987 74.9781C167.282 75.0465 167.562 75.1728 167.808 75.3498C168.055 75.5268 168.264 75.7509 168.424 76.0092L175.813 87.8258C175.975 88.0819 176.084 88.3674 176.135 88.6659C176.186 88.9644 176.177 89.27 176.109 89.5651C176.042 89.8602 175.916 90.139 175.74 90.3854C175.564 90.6318 175.341 90.8411 175.084 91.001L161.27 99.6424C158.696 101.26 155.719 102.117 152.68 102.117ZM139.858 93.8834C141.983 97.2754 145.367 99.6854 149.268 100.584C153.168 101.483 157.266 100.798 160.661 98.6778L174.476 90.0307C174.604 89.9506 174.715 89.8459 174.803 89.7228C174.89 89.5996 174.953 89.4603 174.987 89.3129C175.022 89.1652 175.027 89.012 175.002 88.8622C174.978 88.7124 174.924 88.569 174.843 88.4402L167.448 76.6236C167.368 76.4944 167.263 76.3824 167.14 76.2939C167.017 76.2054 166.877 76.1422 166.729 76.1081C166.581 76.0739 166.428 76.0694 166.278 76.0948C166.129 76.1202 165.986 76.175 165.857 76.2561C165.728 76.3359 165.616 76.4404 165.528 76.5638C165.439 76.6871 165.376 76.8268 165.342 76.9747C165.308 77.1226 165.303 77.2758 165.328 77.4255C165.354 77.5751 165.409 77.7183 165.49 77.8466L171.961 88.1818C172.001 88.2455 172.029 88.3166 172.041 88.3909C172.054 88.4652 172.052 88.5413 172.036 88.6149C172.019 88.6884 171.988 88.758 171.945 88.8197C171.902 88.8814 171.846 88.9338 171.783 88.9742L159.438 96.6969C156.565 98.4909 153.098 99.0734 149.796 98.3169C146.495 97.5604 143.627 95.5264 141.822 92.6604C141.742 92.5318 141.637 92.4204 141.514 92.3323C141.39 92.2443 141.251 92.1814 141.103 92.1473C140.955 92.1131 140.802 92.1084 140.653 92.1334C140.503 92.1584 140.36 92.2126 140.232 92.2929C140.103 92.3732 139.992 92.4781 139.904 92.6015C139.816 92.7248 139.753 92.8644 139.718 93.0121C139.684 93.1598 139.68 93.3127 139.705 93.4622C139.73 93.6117 139.784 93.7549 139.864 93.8834H139.858Z" fill="#5F5F5F"/>
<path d="M150.199 40.4253L173.169 77.1425L147.283 93.337C142.413 96.3835 136.533 97.3707 130.935 96.0815C125.338 94.7923 120.482 91.3323 117.435 86.4626C114.389 81.593 113.401 75.7126 114.691 70.115C115.98 64.5175 119.44 59.6614 124.31 56.615L150.196 40.4204L150.199 40.4253Z" fill="#F14736"/>
<path d="M135.851 97.2194C134.158 97.2187 132.47 97.0261 130.821 96.6452C127.973 95.9962 125.281 94.7893 122.902 93.0942C120.523 91.3991 118.504 89.2494 116.96 86.7693C113.836 81.7673 112.825 75.7299 114.15 69.9832C115.474 64.2364 119.025 59.2502 124.023 56.1196L149.907 39.9221C149.971 39.882 150.042 39.8549 150.117 39.8425C150.191 39.83 150.267 39.8324 150.341 39.8494C150.415 39.8665 150.484 39.8979 150.545 39.9419C150.607 39.9859 150.659 40.0416 150.699 40.1058L173.666 76.8188C173.707 76.883 173.734 76.9546 173.747 77.0295C173.76 77.1044 173.758 77.1811 173.741 77.2552C173.723 77.3286 173.691 77.3978 173.647 77.4589C173.603 77.52 173.547 77.5717 173.482 77.6112L147.598 93.8087C144.082 96.0295 140.01 97.2117 135.851 97.2194ZM150.027 41.2197L124.625 57.1072C119.891 60.0775 116.528 64.8044 115.274 70.2509C114.02 75.6975 114.977 81.4191 117.936 86.1607C119.403 88.5099 121.317 90.5471 123.572 92.1557C125.826 93.7644 128.375 94.9129 131.073 95.5358C133.771 96.1586 136.566 96.2435 139.297 95.7856C142.028 95.3277 144.642 94.336 146.99 92.8671L172.386 76.9796L150.027 41.2197Z" fill="#5F5F5F"/>
<path d="M84.0943 119.486C83.9982 119.486 83.9037 119.462 83.8195 119.415C83.7352 119.369 83.6639 119.303 83.612 119.222L72.9208 102.749C72.8378 102.621 72.809 102.465 72.8408 102.316C72.8725 102.167 72.9622 102.036 73.0902 101.953C73.2181 101.87 73.3737 101.842 73.5229 101.873C73.672 101.905 73.8024 101.995 73.8854 102.123L84.5594 118.596C84.6009 118.66 84.6294 118.731 84.6432 118.805C84.657 118.88 84.6559 118.957 84.6398 119.031C84.6238 119.105 84.5932 119.176 84.5499 119.238C84.5065 119.3 84.4512 119.353 84.3871 119.394C84.2997 119.451 84.1984 119.483 84.0943 119.486Z" fill="#DFEAEF"/>
<path d="M127.646 95.0031C127.646 95.0031 120.847 81.6534 118.786 83.0314C116.725 84.4095 115.548 89.7034 120.061 95.0031C120.061 95.0031 114.049 97.4548 116.96 104.816" fill="white"/>
<path d="M116.96 105.39C116.845 105.39 116.733 105.356 116.638 105.291C116.542 105.227 116.469 105.135 116.426 105.028C113.957 98.7754 117.575 95.7782 119.177 94.8251C117.069 92.1149 116.082 89.0488 116.466 86.31C116.696 84.6391 117.448 83.2324 118.47 82.5491C118.618 82.4527 118.785 82.3899 118.96 82.3651C119.134 82.3403 119.312 82.3541 119.481 82.4056C122.105 83.0888 127.169 92.7982 128.157 94.7389C128.226 94.8752 128.238 95.0335 128.191 95.1788C128.144 95.3242 128.04 95.4448 127.904 95.5141C127.768 95.5834 127.61 95.5957 127.464 95.5483C127.319 95.5009 127.198 95.3977 127.129 95.2614C123.839 88.8019 120.021 83.2037 119.09 83.508C118.35 84.0018 117.77 85.1387 117.586 86.4708C117.224 89.066 118.281 92.0403 120.457 94.6298C120.515 94.6988 120.557 94.7806 120.578 94.8686C120.598 94.9565 120.598 95.0481 120.577 95.136C120.556 95.2238 120.514 95.3054 120.455 95.3741C120.396 95.4428 120.322 95.4967 120.239 95.5313C120.015 95.6232 114.796 97.8797 117.454 104.603C117.482 104.674 117.495 104.749 117.494 104.825C117.493 104.901 117.476 104.975 117.446 105.045C117.415 105.114 117.371 105.177 117.317 105.229C117.262 105.281 117.197 105.322 117.127 105.35C117.074 105.372 117.018 105.386 116.96 105.39Z" fill="#5F5F5F"/>
<path d="M106.73 75.6484L106.726 75.6518C105.261 76.7437 104.959 78.8158 106.051 80.2801L112.422 88.8233C113.513 90.2876 115.586 90.5896 117.05 89.4977L117.054 89.4943C118.519 88.4024 118.821 86.3303 117.729 84.866L111.359 76.3228C110.267 74.8585 108.195 74.5565 106.73 75.6484Z" fill="white"/>
<path d="M115.077 90.7197C114.472 90.7226 113.874 90.5833 113.333 90.313C112.791 90.0428 112.321 89.6491 111.959 89.1636L105.592 80.6199C104.976 79.7945 104.714 78.7585 104.863 77.7399C105.011 76.7212 105.559 75.8034 106.384 75.1881C107.209 74.5729 108.245 74.3108 109.264 74.4594C110.283 74.608 111.2 75.1551 111.816 75.9805L118.183 84.5185C118.797 85.3454 119.059 86.3818 118.91 87.4009C118.762 88.4201 118.215 89.3388 117.391 89.956C116.722 90.4531 115.91 90.7209 115.077 90.7197ZM108.698 75.5671C108.191 75.5674 107.694 75.7087 107.262 75.9753C106.831 76.2419 106.482 76.6232 106.255 77.0766C106.028 77.5301 105.932 78.0377 105.977 78.5428C106.022 79.0478 106.207 79.5304 106.51 79.9366L112.878 88.4746C113.311 89.0564 113.958 89.4421 114.675 89.5471C115.393 89.6521 116.123 89.4677 116.705 89.0345C117.287 88.6012 117.672 87.9546 117.777 87.2369C117.882 86.5193 117.698 85.7893 117.265 85.2076L110.891 76.6638C110.678 76.3752 110.409 76.1321 110.1 75.9487C109.792 75.7653 109.45 75.6453 109.094 75.5958C108.963 75.5748 108.831 75.5652 108.698 75.5671Z" fill="#5F5F5F"/>
<path d="M101.426 79.6026L101.421 79.606C99.9567 80.6979 99.6548 82.7701 100.747 84.2343L107.117 92.7776C108.209 94.2419 110.281 94.5438 111.745 93.4519L111.75 93.4485C113.214 92.3567 113.516 90.2845 112.424 88.8202L106.054 80.277C104.962 78.8127 102.89 78.5108 101.426 79.6026Z" fill="white"/>
<path d="M109.772 94.6815C109.579 94.6793 109.388 94.6659 109.197 94.6413C108.693 94.5676 108.209 94.3954 107.771 94.1343C107.334 93.8732 106.952 93.5284 106.648 93.1197L100.28 84.5759C99.6651 83.7506 99.403 82.7146 99.5516 81.696C99.7002 80.6773 100.247 79.7594 101.073 79.1442C101.898 78.529 102.934 78.2668 103.953 78.4154C104.971 78.564 105.889 79.1112 106.504 79.9366L112.872 88.4746C113.488 89.3009 113.75 90.3378 113.601 91.3573C113.453 92.3769 112.905 93.2958 112.08 93.9121C111.414 94.4111 110.604 94.6811 109.772 94.6815ZM103.392 79.5231C102.885 79.5234 102.388 79.6647 101.957 79.9313C101.526 80.1979 101.177 80.5793 100.95 81.0327C100.723 81.4861 100.627 81.9937 100.672 82.4988C100.717 83.0039 100.901 83.4865 101.205 83.8926L107.572 92.4307C107.786 92.7204 108.054 92.9652 108.362 93.1509C108.67 93.3367 109.012 93.4598 109.368 93.5131C109.724 93.5664 110.087 93.549 110.436 93.4618C110.785 93.3746 111.113 93.2193 111.402 93.0049C111.984 92.5732 112.372 91.9283 112.479 91.2115C112.587 90.4947 112.406 89.7645 111.976 89.1808L105.591 80.6198C105.376 80.3317 105.106 80.0891 104.797 79.9058C104.487 79.7225 104.145 79.6022 103.789 79.5519C103.658 79.5309 103.525 79.5213 103.392 79.5231Z" fill="#5F5F5F"/>
<path d="M96.1152 83.5626L96.1106 83.566C94.6463 84.6578 94.3444 86.73 95.4362 88.1943L101.806 96.7375C102.898 98.2018 104.97 98.5038 106.435 97.4119L106.439 97.4085C107.904 96.3166 108.206 94.2445 107.114 92.7802L100.744 84.2369C99.6517 82.7726 97.5795 82.4707 96.1152 83.5626Z" fill="white"/>
<path d="M104.466 98.6088C103.861 98.6104 103.264 98.4705 102.723 98.2003C102.181 97.9302 101.711 97.5372 101.348 97.0528L94.9807 88.509C94.3655 87.6837 94.1033 86.6477 94.2519 85.6291C94.4005 84.6104 94.9477 83.6925 95.773 83.0773C96.5984 82.4621 97.6344 82.1999 98.653 82.3485C99.6717 82.4971 100.59 83.0443 101.205 83.8697L107.572 92.4077C108.005 92.9839 108.268 93.6691 108.332 94.3865C108.396 95.1039 108.26 95.825 107.937 96.469C107.615 97.1129 107.119 97.6543 106.506 98.0323C105.893 98.4102 105.186 98.6099 104.466 98.6088ZM98.087 83.4563C97.4993 83.4546 96.927 83.644 96.4563 83.996C95.8737 84.4287 95.4862 85.0746 95.3786 85.7923C95.271 86.5101 95.452 87.2412 95.8821 87.8258L102.25 96.3638C102.682 96.9477 103.328 97.3362 104.046 97.4438C104.764 97.5515 105.496 97.3696 106.08 96.938C106.662 96.5063 107.049 95.8614 107.157 95.1446C107.264 94.4278 107.084 93.6976 106.654 93.1139L100.286 84.5702C100.071 84.2816 99.8013 84.0386 99.4918 83.8553C99.1823 83.6719 98.8394 83.5519 98.4832 83.5022C98.352 83.4831 98.2195 83.4754 98.087 83.4792V83.4563Z" fill="#5F5F5F"/>
<path d="M90.8104 87.5169L90.8058 87.5203C89.3415 88.6122 89.0396 90.6844 90.1314 92.1487L96.5017 100.692C97.5935 102.156 99.6657 102.458 101.13 101.366L101.135 101.363C102.599 100.271 102.901 98.1988 101.809 96.7345L95.4387 88.1913C94.3469 86.727 92.2747 86.4251 90.8104 87.5169Z" fill="white"/>
<path d="M99.1607 102.588C98.5558 102.589 97.9589 102.449 97.4177 102.179C96.8764 101.909 96.4057 101.516 96.0429 101.032L89.6752 92.4881C89.1183 91.6614 88.9008 90.6522 89.0678 89.6695C89.2347 88.6868 89.7733 87.806 90.572 87.2096C91.3706 86.6132 92.3681 86.3469 93.3578 86.4659C94.3474 86.5849 95.2533 87.08 95.8879 87.8488L102.256 96.3868C102.685 96.9636 102.947 97.6485 103.01 98.3651C103.073 99.0816 102.936 99.8017 102.614 100.445C102.292 101.088 101.797 101.629 101.185 102.008C100.573 102.386 99.8686 102.587 99.1492 102.588H99.1607ZM92.7816 87.4296C92.2753 87.432 91.7797 87.5746 91.3497 87.8416C90.9196 88.1087 90.572 88.4896 90.3453 88.9423C90.1187 89.3949 90.022 89.9015 90.0659 90.4058C90.1098 90.9101 90.2925 91.3924 90.5939 91.7991L96.9616 100.331C97.3934 100.915 98.0394 101.304 98.7576 101.411C99.4758 101.519 100.207 101.337 100.791 100.906C101.374 100.474 101.761 99.829 101.869 99.1122C101.976 98.3954 101.795 97.6652 101.366 97.0816L94.9979 88.5378C94.5642 87.9565 93.9181 87.5705 93.2007 87.4641C93.0619 87.4435 92.9219 87.432 92.7816 87.4296Z" fill="#5F5F5F"/>
<path d="M109.553 140.231L106.579 124.728L131.86 121.197L139.393 140.231H109.553Z" fill="#F14736"/>
<path d="M139.393 140.805H109.536C109.401 140.808 109.269 140.762 109.164 140.677C109.059 140.592 108.988 140.473 108.962 140.34L105.988 124.837C105.973 124.761 105.974 124.682 105.991 124.606C106.008 124.53 106.04 124.459 106.085 124.395C106.13 124.332 106.187 124.279 106.254 124.238C106.32 124.198 106.393 124.171 106.47 124.16L131.734 120.629C131.861 120.611 131.991 120.636 132.103 120.7C132.214 120.765 132.301 120.865 132.348 120.985L139.881 140.019C139.916 140.106 139.929 140.2 139.919 140.293C139.909 140.386 139.876 140.475 139.824 140.553C139.776 140.624 139.712 140.684 139.638 140.728C139.563 140.772 139.48 140.798 139.393 140.805ZM110.03 139.657H138.549L131.487 121.829L107.251 125.216L110.03 139.657Z" fill="#5F5F5F"/>
<path d="M139.106 114.232C138.954 114.232 138.808 114.172 138.7 114.064C138.593 113.956 138.532 113.81 138.532 113.658V111.241C138.532 111.089 138.593 110.942 138.7 110.835C138.808 110.727 138.954 110.667 139.106 110.667C139.259 110.667 139.405 110.727 139.512 110.835C139.62 110.942 139.68 111.089 139.68 111.241V113.658C139.68 113.81 139.62 113.956 139.512 114.064C139.405 114.172 139.259 114.232 139.106 114.232Z" fill="#DFEAEF"/>
<path d="M139.106 119.486C138.954 119.486 138.808 119.425 138.7 119.318C138.593 119.21 138.532 119.064 138.532 118.912V116.494C138.532 116.342 138.593 116.196 138.7 116.088C138.808 115.981 138.954 115.92 139.106 115.92C139.259 115.92 139.405 115.981 139.512 116.088C139.62 116.196 139.68 116.342 139.68 116.494V118.912C139.68 119.064 139.62 119.21 139.512 119.318C139.405 119.425 139.259 119.486 139.106 119.486Z" fill="#DFEAEF"/>
<path d="M142.971 115.651H140.553C140.401 115.651 140.255 115.59 140.147 115.482C140.04 115.375 139.979 115.229 139.979 115.076C139.979 114.924 140.04 114.778 140.147 114.67C140.255 114.563 140.401 114.502 140.553 114.502H142.971C143.123 114.502 143.269 114.563 143.377 114.67C143.484 114.778 143.545 114.924 143.545 115.076C143.545 115.229 143.484 115.375 143.377 115.482C143.269 115.59 143.123 115.651 142.971 115.651Z" fill="#DFEAEF"/>
<path d="M137.688 115.651H135.277C135.124 115.651 134.978 115.59 134.871 115.482C134.763 115.375 134.702 115.229 134.702 115.076C134.702 114.924 134.763 114.778 134.871 114.67C134.978 114.563 135.124 114.502 135.277 114.502H137.688C137.84 114.502 137.986 114.563 138.094 114.67C138.202 114.778 138.262 114.924 138.262 115.076C138.262 115.229 138.202 115.375 138.094 115.482C137.986 115.59 137.84 115.651 137.688 115.651Z" fill="#DFEAEF"/>
<path d="M161.184 118.068C161.031 118.068 160.885 118.007 160.777 117.9C160.67 117.792 160.609 117.646 160.609 117.494V115.076C160.609 114.924 160.67 114.778 160.777 114.67C160.885 114.563 161.031 114.502 161.184 114.502C161.336 114.502 161.482 114.563 161.59 114.67C161.697 114.778 161.758 114.924 161.758 115.076V117.494C161.758 117.646 161.697 117.792 161.59 117.9C161.482 118.007 161.336 118.068 161.184 118.068Z" fill="#DFEAEF"/>
<path d="M161.184 123.299C161.031 123.299 160.885 123.238 160.777 123.13C160.67 123.023 160.609 122.877 160.609 122.724V120.307C160.609 120.155 160.67 120.009 160.777 119.901C160.885 119.793 161.031 119.733 161.184 119.733C161.336 119.733 161.482 119.793 161.59 119.901C161.697 120.009 161.758 120.155 161.758 120.307V122.724C161.758 122.877 161.697 123.023 161.59 123.13C161.482 123.238 161.336 123.299 161.184 123.299Z" fill="#DFEAEF"/>
<path d="M165.019 119.486H162.602C162.45 119.486 162.303 119.426 162.196 119.318C162.088 119.21 162.028 119.064 162.028 118.912C162.028 118.76 162.088 118.613 162.196 118.506C162.303 118.398 162.45 118.338 162.602 118.338H165.019C165.171 118.338 165.317 118.398 165.425 118.506C165.533 118.613 165.593 118.76 165.593 118.912C165.593 119.064 165.533 119.21 165.425 119.318C165.317 119.426 165.171 119.486 165.019 119.486Z" fill="#DFEAEF"/>
<path d="M159.765 119.486H157.325C157.173 119.486 157.027 119.426 156.919 119.318C156.811 119.21 156.751 119.064 156.751 118.912C156.751 118.76 156.811 118.613 156.919 118.506C157.027 118.398 157.173 118.338 157.325 118.338H159.742C159.895 118.338 160.041 118.398 160.148 118.506C160.256 118.613 160.317 118.76 160.317 118.912C160.317 119.064 160.256 119.21 160.148 119.318C160.041 119.426 159.895 119.486 159.742 119.486H159.765Z" fill="#DFEAEF"/>
<path d="M99.8037 44.504C99.6515 44.504 99.5054 44.4435 99.3977 44.3358C99.2901 44.2281 99.2296 44.0821 99.2296 43.9298V39.6579C99.2296 39.5056 99.2901 39.3596 99.3977 39.2519C99.5054 39.1442 99.6515 39.0837 99.8037 39.0837C99.956 39.0837 100.102 39.1442 100.21 39.2519C100.317 39.3596 100.378 39.5056 100.378 39.6579V43.9298C100.378 44.0821 100.317 44.2281 100.21 44.3358C100.102 44.4435 99.956 44.504 99.8037 44.504Z" fill="#DFEAEF"/>
<path d="M99.8037 53.7884C99.6515 53.7884 99.5054 53.7279 99.3977 53.6202C99.2901 53.5126 99.2296 53.3665 99.2296 53.2142V48.9423C99.2296 48.7901 99.2901 48.644 99.3977 48.5363C99.5054 48.4287 99.6515 48.3682 99.8037 48.3682C99.956 48.3682 100.102 48.4287 100.21 48.5363C100.317 48.644 100.378 48.7901 100.378 48.9423V53.2142C100.378 53.3665 100.317 53.5126 100.21 53.6202C100.102 53.7279 99.956 53.7884 99.8037 53.7884Z" fill="#DFEAEF"/>
<path d="M106.579 47.0132H102.313C102.161 47.0132 102.015 46.9527 101.907 46.8451C101.799 46.7374 101.739 46.5913 101.739 46.439C101.739 46.2868 101.799 46.1407 101.907 46.033C102.015 45.9254 102.161 45.8649 102.313 45.8649H106.579C106.731 45.8649 106.877 45.9254 106.985 46.033C107.093 46.1407 107.153 46.2868 107.153 46.439C107.153 46.5913 107.093 46.7374 106.985 46.8451C106.877 46.9527 106.731 47.0132 106.579 47.0132Z" fill="#DFEAEF"/>
<path d="M97.3003 47.0132H93.0169C92.8647 47.0132 92.7186 46.9527 92.6109 46.8451C92.5032 46.7374 92.4428 46.5913 92.4428 46.439C92.4428 46.2868 92.5032 46.1407 92.6109 46.033C92.7186 45.9254 92.8647 45.8649 93.0169 45.8649H97.2888C97.4411 45.8649 97.5872 45.9254 97.6948 46.033C97.8025 46.1407 97.863 46.2868 97.863 46.439C97.863 46.5913 97.8025 46.7374 97.6948 46.8451C97.5872 46.9527 97.4411 47.0132 97.2888 47.0132H97.3003Z" fill="#DFEAEF"/>
<path d="M69.7513 58.4164C69.599 58.4164 69.4529 58.3559 69.3453 58.2482C69.2376 58.1405 69.1771 57.9945 69.1771 57.8422V55.4364C69.1771 55.2841 69.2376 55.138 69.3453 55.0304C69.4529 54.9227 69.599 54.8622 69.7513 54.8622C69.9035 54.8622 70.0496 54.9227 70.1573 55.0304C70.2649 55.138 70.3254 55.2841 70.3254 55.4364V57.8422C70.3254 57.9945 70.2649 58.1405 70.1573 58.2482C70.0496 58.3559 69.9035 58.4164 69.7513 58.4164Z" fill="#DFEAEF"/>
<path d="M69.7513 63.6816C69.599 63.6816 69.4529 63.6211 69.3453 63.5134C69.2376 63.4057 69.1771 63.2597 69.1771 63.1074V60.7131C69.1771 60.5608 69.2376 60.4148 69.3453 60.3071C69.4529 60.1994 69.599 60.1389 69.7513 60.1389C69.9035 60.1389 70.0496 60.1994 70.1573 60.3071C70.2649 60.4148 70.3254 60.5608 70.3254 60.7131V63.1304C70.3195 63.2787 70.2564 63.4189 70.1494 63.5216C70.0423 63.6244 69.8996 63.6817 69.7513 63.6816Z" fill="#DFEAEF"/>
<path d="M73.581 59.846H71.1637C71.0114 59.846 70.8654 59.7855 70.7577 59.6778C70.65 59.5701 70.5895 59.4241 70.5895 59.2718C70.5895 59.1195 70.65 58.9735 70.7577 58.8658C70.8654 58.7581 71.0114 58.6976 71.1637 58.6976H73.581C73.7332 58.6976 73.8793 58.7581 73.987 58.8658C74.0947 58.9735 74.1551 59.1195 74.1551 59.2718C74.1551 59.4241 74.0947 59.5701 73.987 59.6778C73.8793 59.7855 73.7332 59.846 73.581 59.846Z" fill="#DFEAEF"/>
<path d="M68.3273 59.846H65.9157C65.7635 59.846 65.6174 59.7855 65.5097 59.6778C65.4021 59.5701 65.3416 59.4241 65.3416 59.2718C65.3416 59.1195 65.4021 58.9735 65.5097 58.8658C65.6174 58.7581 65.7635 58.6976 65.9157 58.6976H68.3273C68.4796 58.6976 68.6256 58.7581 68.7333 58.8658C68.841 58.9735 68.9015 59.1195 68.9015 59.2718C68.9015 59.4241 68.841 59.5701 68.7333 59.6778C68.6256 59.7855 68.4796 59.846 68.3273 59.846Z" fill="#DFEAEF"/>
<path d="M91.6446 72.0186C91.4924 72.0186 91.3463 71.9582 91.2386 71.8505C91.131 71.7428 91.0705 71.5968 91.0705 71.4445V64.1868C91.0705 64.0346 91.131 63.8885 91.2386 63.7808C91.3463 63.6732 91.4924 63.6127 91.6446 63.6127C91.7969 63.6127 91.943 63.6732 92.0507 63.7808C92.1583 63.8885 92.2188 64.0346 92.2188 64.1868V71.4445C92.2188 71.5968 92.1583 71.7428 92.0507 71.8505C91.943 71.9582 91.7969 72.0186 91.6446 72.0186Z" fill="#DFEAEF"/>
<path d="M95.2735 68.3898H88.0216C87.8693 68.3898 87.7233 68.3293 87.6156 68.2216C87.5079 68.114 87.4474 67.9679 87.4474 67.8156C87.4474 67.6634 87.5079 67.5173 87.6156 67.4096C87.7233 67.3019 87.8693 67.2415 88.0216 67.2415H95.2735C95.4258 67.2415 95.5718 67.3019 95.6795 67.4096C95.7872 67.5173 95.8477 67.6634 95.8477 67.8156C95.8477 67.9679 95.7872 68.114 95.6795 68.2216C95.5718 68.3293 95.4258 68.3898 95.2735 68.3898Z" fill="#DFEAEF"/>
</svg>
